<svg width="100" height="100" viewBox="0 0 100 100" fill="none" xmlns="http://www.w3.org/2000/svg">
<path d="M52.5999 67.1291C54.6999 66.3291 59.9999 66.3291 62.3999 67.2291C64.7999 68.1291 69.3999 76.0291 69.2999 79.5291C69.2999 80.2291 68.5999 81.0291 68.2999 81.1291C67.1999 81.3291 65.1999 77.8291 63.2999 75.9291C63.1999 76.3291 63.2999 76.8291 63.2999 77.2291C63.3999 77.9291 63.5999 80.5291 63.5999 81.2291C63.5999 81.5291 64.1999 93.6291 62.5999 94.0291C61.7999 94.2291 60.0999 94.1291 59.2999 94.1291C58.4999 94.1291 58.1999 94.2291 57.8999 93.3291C57.5999 92.6291 57.8999 86.6291 57.8999 86.1291C57.4999 86.0291 54.8999 86.1291 54.8999 86.2291C54.8999 86.7291 54.9999 89.8291 54.8999 90.5291C54.7999 91.9291 55.0999 93.7291 54.3999 94.0291C53.9999 94.2291 50.7999 94.2291 49.9999 94.0291C49.4999 93.8291 49.6999 84.2291 49.9999 82.2291C50.1999 80.7291 50.2999 74.3291 50.3999 72.8291" fill="#CBDB2A"/>
<path d="M52.5999 67.1291C54.6999 66.3291 59.9999 66.3291 62.3999 67.2291C64.7999 68.1291 69.3999 76.0291 69.2999 79.5291C69.2999 80.2291 68.5999 81.0291 68.2999 81.1291C67.1999 81.3291 65.1999 77.8291 63.2999 75.9291C63.1999 76.3291 63.2999 76.8291 63.2999 77.2291C63.3999 77.9291 63.5999 80.5291 63.5999 81.2291C63.5999 81.5291 64.1999 93.6291 62.5999 94.0291C61.7999 94.2291 60.0999 94.1291 59.2999 94.1291C58.4999 94.1291 58.1999 94.2291 57.8999 93.3291C57.5999 92.6291 57.8999 86.6291 57.8999 86.1291C57.4999 86.0291 54.8999 86.1291 54.8999 86.2291C54.8999 86.7291 54.9999 89.8291 54.8999 90.5291C54.7999 91.9291 55.0999 93.7291 54.3999 94.0291C53.9999 94.2291 50.7999 94.2291 49.9999 94.0291C49.4999 93.8291 49.6999 84.2291 49.9999 82.2291C50.1999 80.7291 50.2999 74.3291 50.3999 72.8291" stroke="black" stroke-width="0.99" stroke-linecap="round" stroke-linejoin="round"/>
<path d="M72.4997 11.6296C70.4997 9.42962 66.1997 9.52962 63.5997 10.7296C61.1997 11.8296 59.4997 13.2296 59.4997 15.7296C59.4997 17.1296 59.5997 18.7296 59.4997 20.1296C58.2997 20.0296 49.0997 23.0296 47.9997 22.7296C47.1997 22.5296 45.1997 17.6296 43.7997 16.1296C41.7997 13.9296 39.3997 13.2296 36.4997 12.8296C22.9997 11.2296 27.8997 25.6296 28.3997 26.8296C30.1997 31.2296 26.7997 36.0296 24.7997 39.8296C21.5997 45.8296 20.7997 53.2296 24.9997 58.7296C30.6997 66.3296 45.1997 69.9296 56.2997 69.2296C59.8997 69.0296 66.1997 68.2296 69.5997 67.2296C73.8997 65.9296 78.6997 63.8296 81.7997 60.7296C89.7997 52.8296 90.9997 40.5296 83.0997 33.2296C80.6997 31.1296 74.7997 14.1296 72.4997 11.6296Z" fill="#CBDB2A" stroke="black" stroke-width="0.99" stroke-linecap="round" stroke-linejoin="round"/>
<path d="M31 16.0296C32.8 13.2296 36.5 11.5296 39.6 13.3296C43.2 15.4296 46.5 9.82958 42.9 7.72958C36.6 4.12958 29.2 7.02958 25.4 12.7296C23.1 16.2296 28.7 19.5296 31 16.0296Z" fill="black"/>
<path d="M30.8994 18.4289C30.8994 22.1289 34.2994 25.1289 38.3994 25.1289C42.4994 25.1289 45.8994 22.1289 45.8994 18.4289C45.8994 14.7289 42.4994 11.7289 38.3994 11.7289C34.1994 11.6289 30.8994 14.7289 30.8994 18.4289Z" fill="white" stroke="black" stroke-width="0.99" stroke-linecap="round" stroke-linejoin="round"/>
<path d="M44.2994 18.4293C44.2994 15.9293 42.2994 14.0293 39.7994 14.0293C37.2994 14.0293 35.3994 16.0293 35.3994 18.4293C35.3994 20.8293 37.3994 22.8293 39.7994 22.8293C42.2994 22.8293 44.2994 20.8293 44.2994 18.4293Z" fill="black" stroke="black" stroke-width="0.99" stroke-linecap="round" stroke-linejoin="round"/>
<path d="M42.7992 18.0285C42.7992 17.5285 42.3992 17.2285 41.9992 17.2285C41.5992 17.2285 41.1992 17.6285 41.1992 18.0285C41.1992 18.5285 41.5992 18.9285 41.9992 18.9285C42.3992 18.8285 42.7992 18.4285 42.7992 18.0285Z" fill="white"/>
<path d="M76.5993 5.62911C71.0993 2.22911 63.6993 2.92911 59.0993 7.52911C56.2993 10.3291 60.5993 14.6291 63.3993 11.8291C66.0993 9.12911 70.3993 8.92911 73.5993 10.8291C76.8993 12.9291 79.8993 7.62911 76.5993 5.62911Z" fill="black"/>
<path d="M62.0996 14.929C62.0996 18.629 65.4996 21.629 69.5996 21.629C73.6996 21.629 77.0996 18.629 77.0996 14.929C77.0996 11.229 73.6996 8.22899 69.5996 8.22899C65.4996 8.12899 62.0996 11.129 62.0996 14.929Z" fill="white" stroke="black" stroke-width="0.99" stroke-linecap="round" stroke-linejoin="round"/>
<path d="M75.5998 14.9297C75.5998 12.4297 73.5998 10.4297 71.1998 10.4297C68.7998 10.4297 66.7998 12.4297 66.7998 14.9297C66.7998 17.4297 68.7998 19.3297 71.1998 19.3297C73.5998 19.3297 75.5998 17.3297 75.5998 14.9297Z" fill="black" stroke="black" stroke-width="0.99" stroke-linecap="round" stroke-linejoin="round"/>
<path d="M74.6996 14.5285C74.6996 14.0285 74.2996 13.7285 73.8996 13.7285C73.4996 13.7285 73.0996 14.1285 73.0996 14.5285C73.0996 14.9285 73.4996 15.4285 73.8996 15.4285C74.2996 15.3285 74.6996 14.9285 74.6996 14.5285Z" fill="white"/>
<path d="M53.3994 74.8301C53.3994 72.6301 55.1994 70.8301 57.3994 70.8301C59.5994 70.8301 61.3994 72.6301 61.3994 74.8301C61.3994 77.0301 59.5994 78.8301 57.3994 78.8301C55.1994 78.8301 53.3994 77.0301 53.3994 74.8301Z" fill="#ED1C24"/>
<path d="M57.3996 79.1293C54.9996 79.1293 53.0996 77.2293 53.0996 74.8293C53.0996 72.4293 54.9996 70.5293 57.3996 70.5293C59.7996 70.5293 61.6996 72.4293 61.6996 74.8293C61.6996 77.2293 59.6996 79.1293 57.3996 79.1293ZM57.3996 71.2293C55.3996 71.2293 53.7996 72.8293 53.7996 74.8293C53.7996 76.8293 55.3996 78.4293 57.3996 78.4293C59.3996 78.4293 60.9996 76.8293 60.9996 74.8293C60.9996 72.8293 59.3996 71.2293 57.3996 71.2293Z" fill="#F7941D"/>
<path d="M59.3992 72.8289C59.3992 73.0289 59.3992 73.2289 59.1992 73.4289C59.0992 73.5289 58.9992 73.6289 58.7992 73.6289H57.0992C57.0325 73.6289 56.9992 73.6622 56.9992 73.7289V74.4289H58.5992C58.7992 74.4289 58.8992 74.5289 58.9992 74.6289C59.0992 74.7289 59.1992 74.9289 59.1992 75.1289C59.1992 75.3289 59.1992 75.5289 58.9992 75.7289C58.8992 75.8289 58.7992 75.9289 58.5992 75.9289H56.9992V76.8289C56.9992 77.1289 56.9992 77.3289 56.7992 77.4289C56.6992 77.6289 56.4992 77.7289 56.2992 77.7289C56.0992 77.7289 55.9992 77.6289 55.8992 77.5289C55.7992 77.4289 55.6992 77.1289 55.6992 76.8289V73.1289C55.6992 72.5289 55.8992 72.1289 56.3992 72.1289H58.6992C58.8992 72.1289 58.9992 72.2289 59.0992 72.3289C59.2992 72.4289 59.3992 72.6289 59.3992 72.8289Z" fill="white"/>
<path d="M44.3993 66.5299C44.3993 64.7299 45.2993 58.8299 41.1993 55.5299C36.1993 51.6299 31.8993 55.9299 36.8993 60.0299C38.8993 61.6299 40.4993 66.1299 40.1993 67.5299" fill="#CBDB2A"/>
<path d="M44.3993 66.5299C44.3993 64.7299 45.2993 58.8299 41.1993 55.5299C36.1993 51.6299 31.8993 55.9299 36.8993 60.0299C38.8993 61.6299 40.4993 66.1299 40.1993 67.5299" stroke="black" stroke-width="0.99" stroke-linecap="round" stroke-linejoin="round"/>
<path d="M50.5995 68.2292C52.0995 68.6292 53.5995 70.8292 52.8995 72.6292C52.4995 73.6292 51.4995 74.3292 50.4995 74.0292C51.3995 74.8292 51.0995 76.5292 50.2995 77.3292C48.8995 78.6292 45.1995 78.8292 43.4995 78.2292C37.7995 76.4292 36.2995 65.1292 40.9995 61.5292C43.6995 59.4292 50.2995 60.2292 51.2995 64.6292C51.6995 65.9292 51.3995 67.2292 50.5995 68.2292Z" fill="#CBDB2A" stroke="black" stroke-width="0.99" stroke-linecap="round" stroke-linejoin="round"/>
<path d="M80.6997 15.6284C79.9997 10.3284 74.3997 8.92844 67.6997 9.72844C63.7997 10.2284 60.3997 11.3284 58.3997 13.3284L47.1997 14.7284C44.7997 13.3284 41.1997 13.0284 37.2997 13.5284C30.5997 14.3284 25.4997 17.0284 26.0997 22.4284C26.7997 27.7284 30.7997 35.2284 39.7997 34.0284C48.7997 32.8284 50.8997 24.7284 50.2997 19.4284C50.2997 19.1284 50.1997 18.8284 50.0997 18.6284L56.4997 17.8284V18.6284C57.1997 23.9284 61.1997 31.4284 70.1997 30.2284C79.1997 29.1284 81.2997 20.9284 80.6997 15.6284Z" fill="#414042"/>
<path d="M80.6997 15.6284C79.9997 10.3284 74.3997 8.92844 67.6997 9.72844C63.7997 10.2284 60.3997 11.3284 58.3997 13.3284L47.1997 14.7284C44.7997 13.3284 41.1997 13.0284 37.2997 13.5284C30.5997 14.3284 25.4997 17.0284 26.0997 22.4284C26.7997 27.7284 30.7997 35.2284 39.7997 34.0284C48.7997 32.8284 50.8997 24.7284 50.2997 19.4284C50.2997 19.1284 50.1997 18.8284 50.0997 18.6284L56.4997 17.8284V18.6284C57.1997 23.9284 61.1997 31.4284 70.1997 30.2284C79.1997 29.1284 81.2997 20.9284 80.6997 15.6284Z" stroke="black" stroke-width="0.99" stroke-linecap="round" stroke-linejoin="round"/>
<path d="M16.7 40.0289C16.7 34.9289 19.2 30.8289 22.4 30.8289C19.3 30.8289 16.7 26.7289 16.7 21.6289C16.7 26.7289 14.2 30.8289 11 30.8289C14.1 30.9289 16.7 35.0289 16.7 40.0289Z" fill="#FFF200" stroke="black" stroke-width="0.99" stroke-linecap="round" stroke-linejoin="round"/>
<path d="M43.2002 40.7285C43.2002 40.7285 43.8002 44.5285 47.7002 47.5285C53.2002 51.7285 63.0002 51.3285 66.7002 45.4285" fill="#CBDB2A"/>
<path d="M43.2002 40.7285C43.2002 40.7285 43.8002 44.5285 47.7002 47.5285C53.2002 51.7285 63.0002 51.3285 66.7002 45.4285" stroke="black" stroke-width="0.99" stroke-linecap="round" stroke-linejoin="round"/>
<path d="M30.8995 17.8296C32.5995 16.8296 35.5995 15.8296 37.3995 16.0296C38.5995 16.2296 37.9995 16.9296 36.4995 17.5296C33.8995 18.4296 32.3995 19.6296 31.6995 20.4296C29.7995 22.5296 31.4995 25.5296 30.7995 25.8296C29.9995 26.1296 29.0995 24.0296 28.7995 22.3296C28.3995 20.3296 29.0995 18.9296 30.8995 17.8296Z" fill="white"/>
<path d="M61.2999 14.1285C62.9999 13.1285 65.9999 12.1285 67.7999 12.3285C68.9999 12.5285 68.3999 13.2285 66.8999 13.8285C64.2999 14.7285 62.7999 15.9285 62.0999 16.7285C60.1999 18.8285 61.8999 21.8285 61.1999 22.1285C60.3999 22.4285 59.4999 20.3285 59.1999 18.6285C58.7999 16.5285 59.4999 15.1285 61.2999 14.1285Z" fill="white"/>
</svg>
