<svg width="100" height="100" viewBox="0 0 100 100" fill="none" xmlns="http://www.w3.org/2000/svg">
<g clip-path="url(#clip0_403_394)">
<path d="M35.6299 74.2805C35.6299 74.2805 52.1299 29.4805 81.8299 13.4805C81.8299 13.4805 50.2299 42.9805 39.2299 74.8805L35.6299 74.2805Z" fill="#C49A6C" stroke="black" stroke-width="0.99" stroke-linecap="round" stroke-linejoin="round"/>
<path d="M31.63 68.8809C30.73 70.7809 31.73 76.0809 31.73 76.0809C33.73 76.0809 35.23 76.0809 37.43 77.4809C38.53 78.1809 39.83 78.6809 39.73 80.0809C39.63 81.1809 38.63 82.8809 37.73 83.4809C36.93 84.0809 35.03 82.5809 33.63 82.1809C31.73 81.5809 30.43 82.4809 27.93 82.5809C25.43 82.5809 22.73 81.9809 21.23 80.0809C20.33 78.8809 20.03 77.2809 19.83 75.7809C19.43 71.5809 20.03 67.2809 21.63 63.3809L31.13 64.3809" fill="#CBDB2A"/>
<path d="M31.63 68.8809C30.73 70.7809 31.73 76.0809 31.73 76.0809C33.73 76.0809 35.23 76.0809 37.43 77.4809C38.53 78.1809 39.83 78.6809 39.73 80.0809C39.63 81.1809 38.63 82.8809 37.73 83.4809C36.93 84.0809 35.03 82.5809 33.63 82.1809C31.73 81.5809 30.43 82.4809 27.93 82.5809C25.43 82.5809 22.73 81.9809 21.23 80.0809C20.33 78.8809 20.03 77.2809 19.83 75.7809C19.43 71.5809 20.03 67.2809 21.63 63.3809L31.13 64.3809" stroke="black" stroke-width="0.99" stroke-linecap="round" stroke-linejoin="round"/>
<path d="M31.1303 64.2793C32.6303 68.2793 37.0303 67.6793 38.3303 68.5793C40.6303 70.1793 38.7303 72.3793 36.6303 72.4793C34.8303 72.5793 32.1303 72.4793 30.0303 70.5793" fill="#CBDB2A"/>
<path d="M31.1303 64.2793C32.6303 68.2793 37.0303 67.6793 38.3303 68.5793C40.6303 70.1793 38.7303 72.3793 36.6303 72.4793C34.8303 72.5793 32.1303 72.4793 30.0303 70.5793" stroke="black" stroke-width="0.99" stroke-linecap="round" stroke-linejoin="round"/>
<path d="M40.8298 19.0802C39.2298 17.2802 35.8298 17.3802 33.7298 18.3802C31.8298 19.2802 30.4298 20.3802 30.4298 22.3802C30.4298 23.4802 30.5298 24.7802 30.4298 25.8802C29.5298 25.7802 22.1298 28.1802 21.2298 27.9802C20.6298 27.7802 18.9298 23.8802 17.9298 22.7802C16.3298 21.0802 14.4298 20.4802 12.0298 20.1802C1.2298 18.8802 5.22981 30.4802 5.52981 31.3802C6.92981 34.8802 4.2298 38.6802 2.6298 41.6802C0.129805 46.4802 -0.570195 52.3802 2.7298 56.7802C7.2298 62.8802 18.8298 65.7802 27.7298 65.1802C30.6298 64.9802 35.6298 64.3802 38.3298 63.5802C41.8298 62.5802 45.6298 60.8802 48.1298 58.3802C54.5298 52.0802 55.4298 42.2802 49.2298 36.3802C47.4298 34.5802 42.6298 21.0802 40.8298 19.0802Z" fill="#CBDB2A" stroke="black" stroke-width="0.99" stroke-linecap="round" stroke-linejoin="round"/>
<path d="M40.9299 37.9805C40.9299 37.9805 37.4299 46.4805 31.0299 46.9805C23.2299 47.6805 16.1299 41.0805 16.1299 41.0805C16.1299 41.0805 20.8299 54.8805 31.0299 53.5805C41.3299 52.3805 40.9299 37.9805 40.9299 37.9805Z" fill="white" stroke="black" stroke-width="0.99" stroke-linecap="round" stroke-linejoin="round"/>
<path d="M7.62983 22.5803C8.42983 21.2803 9.62983 20.3803 11.0298 19.9803C12.2298 19.6803 13.4298 19.7803 14.4298 20.3803C17.3298 22.0803 19.9298 17.5803 17.0298 15.8803C12.1298 12.9803 6.02983 15.2803 3.02983 19.8803C1.42983 22.7803 5.92983 25.3803 7.62983 22.5803Z" fill="black"/>
<path d="M7.62988 24.4801C7.62988 27.4801 10.3299 29.8801 13.6299 29.8801C16.9299 29.8801 19.6299 27.4801 19.6299 24.4801C19.6299 21.4801 16.9299 19.0801 13.6299 19.0801C10.3299 19.0801 7.62988 21.4801 7.62988 24.4801Z" fill="white" stroke="black" stroke-width="0.99" stroke-linecap="round" stroke-linejoin="round"/>
<path d="M18.2295 24.4805C18.2295 22.4805 16.6295 20.9805 14.7295 20.9805C12.7295 20.9805 11.2295 22.5805 11.2295 24.4805C11.2295 26.3805 12.8295 27.9805 14.7295 27.9805C16.7295 27.9805 18.2295 26.3805 18.2295 24.4805Z" fill="black" stroke="black" stroke-width="0.99" stroke-linecap="round" stroke-linejoin="round"/>
<path d="M17.1295 24.0809C17.1295 23.6809 16.8295 23.3809 16.4295 23.3809C16.0295 23.3809 15.7295 23.6809 15.7295 24.0809C15.7295 24.4809 16.0295 24.7809 16.4295 24.7809C16.8295 24.7809 17.1295 24.4809 17.1295 24.0809Z" fill="white"/>
<path d="M44.1297 14.1799C39.8297 11.4799 33.7297 12.0799 30.1297 15.6799C27.9297 17.8799 31.4297 21.3799 33.6297 19.1799C35.7297 16.9799 39.2297 16.7799 41.7297 18.3799C44.3297 20.0799 46.7297 15.8799 44.1297 14.1799Z" fill="black"/>
<path d="M32.5303 21.5797C32.5303 24.5797 35.2303 26.9797 38.5303 26.9797C41.8303 26.9797 44.5303 24.5797 44.5303 21.5797C44.5303 18.5797 41.8303 16.1797 38.5303 16.1797C35.2303 16.2797 32.5303 18.6797 32.5303 21.5797Z" fill="white" stroke="black" stroke-width="0.99" stroke-linecap="round" stroke-linejoin="round"/>
<path d="M43.2295 21.5801C43.2295 19.5801 41.6295 18.0801 39.7295 18.0801C37.7295 18.0801 36.2295 19.6801 36.2295 21.5801C36.2295 23.4801 37.8295 25.0801 39.7295 25.0801C41.7295 25.1801 43.2295 23.5801 43.2295 21.5801Z" fill="black" stroke="black" stroke-width="0.99" stroke-linecap="round" stroke-linejoin="round"/>
<path d="M42.5299 21.2801C42.5299 20.8801 42.2299 20.5801 41.8299 20.5801C41.4299 20.5801 41.1299 20.8801 41.1299 21.2801C41.1299 21.6801 41.4299 21.9801 41.8299 21.9801C42.2299 21.9801 42.5299 21.6801 42.5299 21.2801Z" fill="white"/>
<path d="M81.8297 13.4805C80.9297 15.6805 80.1297 17.8805 80.0297 20.1805C79.8297 25.0805 84.1297 27.5805 88.4297 28.2805C92.5297 28.9805 98.3297 31.9805 98.9297 36.6805C99.4297 41.5805 98.6297 46.5805 94.3297 49.8805" stroke="black" stroke-width="0.99" stroke-linecap="round" stroke-linejoin="round"/>
<path d="M85.5298 58.5805C85.5298 58.5805 88.3298 50.2805 93.2298 47.8805C98.1298 45.4805 98.5298 49.4805 97.8298 52.2805C96.2298 57.9805 91.8298 59.9805 87.3298 61.1805L87.5298 65.6805C87.5298 65.6805 82.0298 63.6805 81.0298 58.8805L85.5298 58.5805Z" fill="#00AEEF" stroke="black" stroke-width="0.99" stroke-linecap="round" stroke-linejoin="round"/>
<path d="M94.3299 51.0797C94.9926 51.0797 95.5299 50.5424 95.5299 49.8797C95.5299 49.2169 94.9926 48.6797 94.3299 48.6797C93.6671 48.6797 93.1299 49.2169 93.1299 49.8797C93.1299 50.5424 93.6671 51.0797 94.3299 51.0797Z" fill="black"/>
<path d="M86.2298 72.9805C86.2298 72.9805 88.8298 77.1805 88.7298 79.8805C88.4298 83.9805 83.5298 84.1805 84.6298 78.9805C85.5298 74.7805 86.2298 72.9805 86.2298 72.9805Z" fill="#2E6EB7" stroke="black" stroke-width="0.99" stroke-linecap="round" stroke-linejoin="round"/>
<path d="M79.5296 66.2793C79.5296 66.2793 75.8296 69.4793 74.9296 70.4793C74.0296 71.5793 73.8296 72.8793 75.1296 73.6793C75.8296 74.1793 78.8296 74.3793 79.5296 66.2793Z" fill="#2E6EB7" stroke="black" stroke-width="0.99" stroke-linecap="round" stroke-linejoin="round"/>
</g>
<defs>
<clipPath id="clip0_403_394">
<rect width="99.55" height="71.61" fill="white" transform="translate(0 12.5)"/>
</clipPath>
</defs>
</svg>
