<svg width="100" height="100" viewBox="0 0 100 100" fill="none" xmlns="http://www.w3.org/2000/svg">
<g clip-path="url(#clip0_403_400)">
<path d="M35.3008 7L36.2008 14.1C37.0008 14 38.1008 13.6 39.3008 12.8L35.3008 7Z" fill="#FFF200" stroke="black" stroke-width="0.99" stroke-linecap="round" stroke-linejoin="round"/>
<path d="M39.2006 12.8008C38.0006 13.6008 36.9006 13.9008 36.1006 14.1008L36.7006 19.5008C38.0006 19.4008 40.1006 19.0008 42.1006 17.3008L39.2006 12.8008Z" fill="#FFF200" stroke="black" stroke-width="0.99" stroke-linecap="round" stroke-linejoin="round"/>
<path d="M46.3008 23.4008L42.2008 17.3008C40.2008 19.0008 38.1008 19.4008 36.8008 19.5008L37.6008 26.2008L46.3008 23.4008Z" fill="#FFF200" stroke="black" stroke-width="0.99" stroke-linecap="round" stroke-linejoin="round"/>
<path d="M67.7008 2L65.3008 8.8C66.1008 9 67.2008 9.2 68.6008 9L67.7008 2Z" fill="#FFF200" stroke="black" stroke-width="0.99" stroke-linecap="round" stroke-linejoin="round"/>
<path d="M68.6 9.00078C67.2 9.20078 66.1 9.00078 65.3 8.80078L63.5 13.9008C64.7 14.4008 66.7 14.9008 69.3 14.3008L68.6 9.00078Z" fill="#FFF200" stroke="black" stroke-width="0.99" stroke-linecap="round" stroke-linejoin="round"/>
<path d="M70.4004 21.6004L69.4004 14.3004C66.8004 14.9004 64.8004 14.4004 63.6004 13.9004L61.4004 20.3004L70.4004 21.6004Z" fill="#FFF200" stroke="black" stroke-width="0.99" stroke-linecap="round" stroke-linejoin="round"/>
<path d="M41.1003 47.9998C40.7003 49.9998 38.0003 50.8998 36.2003 49.7998C34.4003 48.6998 33.9003 46.2998 34.6003 44.3998C32.9003 44.8998 30.8003 44.9998 29.8003 43.5998C28.0003 41.2998 29.9003 38.1998 32.3003 37.1998C30.1003 36.6998 28.5003 34.2998 28.9003 32.1998C29.3003 29.9998 31.6003 28.2998 33.8003 28.6998C32.7003 26.3998 33.5003 24.0998 35.0003 22.7998C36.2003 21.7998 39.0003 21.4998 40.3003 23.5998C40.6003 21.9998 41.7003 20.3998 43.2003 19.8998C46.2003 18.8998 48.1003 21.0998 48.1003 21.0998C48.3003 18.4998 53.0003 14.9998 55.9003 20.1998C55.9003 20.1998 56.3003 17.2998 59.0003 16.4998C61.7003 15.6998 64.9003 16.8998 65.7003 19.3998C66.5003 17.4998 68.8003 16.7998 70.7003 17.0998C72.8003 17.3998 74.8003 19.0998 74.8003 20.9998C76.4003 20.3998 78.2003 20.3998 79.5003 21.5998C80.8003 22.6998 81.2003 24.6998 80.6003 26.1998C80.6003 26.1998 84.4003 26.4998 84.1003 29.8998C83.9003 31.4998 82.0003 32.9998 81.1003 32.4998C81.1003 32.4998 84.1003 33.7998 84.1003 36.5998C84.1003 38.5998 81.9003 39.5998 80.2003 39.0998C81.0003 40.6998 80.4004 42.8998 78.8004 43.7998C77.3004 44.6998 75.0003 44.1998 74.0003 42.7998C73.9003 44.2998 72.6003 45.3998 71.4003 46.1998C70.4003 46.7998 69.2003 47.3998 68.0003 47.2998C66.8003 47.1998 65.5003 46.3998 65.4003 45.1998C64.3003 47.9998 61.0003 49.3998 58.0003 49.6998C57.1003 49.7998 56.1003 49.7998 55.3003 49.4998C54.5003 49.0998 53.8003 48.3998 53.7003 47.3998C52.8003 49.2998 48.9003 51.4998 46.7003 51.3998C42.8003 51.4998 41.1003 47.9998 41.1003 47.9998Z" fill="#754C29" stroke="black" stroke-width="0.99" stroke-linecap="round" stroke-linejoin="round"/>
<path d="M67.4004 86.9004C67.7004 87.8004 68.4004 88.5004 69.2004 88.8004C70.0004 89.2004 70.6004 89.3004 71.5004 89.3004C71.7004 89.3004 71.9004 89.3004 72.1004 89.4004C72.3004 89.6004 72.3004 89.9004 72.4004 90.1004C72.4004 90.6004 72.4004 92.2004 72.3004 92.6004C72.1004 93.4004 69.4004 93.2004 68.6004 93.1004C65.6004 92.7004 62.8004 91.3004 60.8004 89.1004C58.8004 86.9004 57.4004 84.8004 57.2004 81.8004L57.0004 81.3004C56.0004 81.4004 53.8004 81.1004 51.6004 79.8004C50.6004 79.2004 49.0004 78.3004 48.2004 77.4004C47.5004 76.5004 46.0004 73.9004 48.0004 72.7004C49.7004 71.7004 51.7004 74.5004 52.4004 75.0004C53.1004 75.6004 55.1004 76.1004 56.2004 76.0004" fill="#F04E23"/>
<path d="M67.4004 86.9004C67.7004 87.8004 68.4004 88.5004 69.2004 88.8004C70.0004 89.2004 70.6004 89.3004 71.5004 89.3004C71.7004 89.3004 71.9004 89.3004 72.1004 89.4004C72.3004 89.6004 72.3004 89.9004 72.4004 90.1004C72.4004 90.6004 72.4004 92.2004 72.3004 92.6004C72.1004 93.4004 69.4004 93.2004 68.6004 93.1004C65.6004 92.7004 62.8004 91.3004 60.8004 89.1004C58.8004 86.9004 57.4004 84.8004 57.2004 81.8004L57.0004 81.3004C56.0004 81.4004 53.8004 81.1004 51.6004 79.8004C50.6004 79.2004 49.0004 78.3004 48.2004 77.4004C47.5004 76.5004 46.0004 73.9004 48.0004 72.7004C49.7004 71.7004 51.7004 74.5004 52.4004 75.0004C53.1004 75.6004 55.1004 76.1004 56.2004 76.0004" stroke="black" stroke-width="0.99" stroke-linecap="round" stroke-linejoin="round"/>
<path d="M54.9004 75.3001L65.9004 74.7001C68.0004 75.1001 70.0004 74.0001 71.8004 72.9001C72.9004 72.3001 74.0004 71.6001 75.1004 71.0001C75.6004 70.7001 76.1004 70.4001 76.6004 70.5001C77.3004 70.6001 77.8004 71.4001 77.7004 72.1001C77.7004 72.8001 77.2004 73.5001 76.8004 74.0001C75.9004 75.1001 74.8004 76.0001 73.6004 76.6001C72.2004 77.3001 70.8004 77.7001 69.3004 78.0001C70.1004 79.9001 71.2004 82.4001 71.1004 84.5001C71.0004 86.6001 70.9004 88.1001 68.6004 89.3001C67.5004 89.9001 65.4004 89.7001 64.4004 90.5001C62.9004 91.5001 61.0004 94.8001 60.5004 94.9001C59.2004 95.2001 57.5004 93.5001 57.3004 93.0001C56.9004 92.4001 58.1004 90.6001 58.9004 89.3001C60.3004 87.0001 61.9004 85.4001 64.1004 85.4001" fill="#F04E23"/>
<path d="M54.9004 75.3001L65.9004 74.7001C68.0004 75.1001 70.0004 74.0001 71.8004 72.9001C72.9004 72.3001 74.0004 71.6001 75.1004 71.0001C75.6004 70.7001 76.1004 70.4001 76.6004 70.5001C77.3004 70.6001 77.8004 71.4001 77.7004 72.1001C77.7004 72.8001 77.2004 73.5001 76.8004 74.0001C75.9004 75.1001 74.8004 76.0001 73.6004 76.6001C72.2004 77.3001 70.8004 77.7001 69.3004 78.0001C70.1004 79.9001 71.2004 82.4001 71.1004 84.5001C71.0004 86.6001 70.9004 88.1001 68.6004 89.3001C67.5004 89.9001 65.4004 89.7001 64.4004 90.5001C62.9004 91.5001 61.0004 94.8001 60.5004 94.9001C59.2004 95.2001 57.5004 93.5001 57.3004 93.0001C56.9004 92.4001 58.1004 90.6001 58.9004 89.3001C60.3004 87.0001 61.9004 85.4001 64.1004 85.4001" stroke="black" stroke-width="0.99" stroke-linecap="round" stroke-linejoin="round"/>
<path d="M58.6006 80.6C58.6006 78.9 60.0006 77.5 61.7006 77.5C63.4006 77.5 64.8006 78.9 64.8006 80.6C64.8006 82.3 63.4006 83.7 61.7006 83.7C60.0006 83.7 58.6006 82.3 58.6006 80.6Z" fill="#ED1C24"/>
<path d="M61.7008 83.8996C59.8008 83.8996 58.3008 82.3996 58.3008 80.4996C58.3008 78.5996 59.8008 77.0996 61.7008 77.0996C63.6008 77.0996 65.1008 78.5996 65.1008 80.4996C65.1008 82.3996 63.6008 83.8996 61.7008 83.8996ZM61.7008 77.6996C60.1008 77.6996 58.8008 78.9996 58.8008 80.4996C58.8008 82.0996 60.1008 83.2996 61.7008 83.2996C63.3008 83.2996 64.6008 81.9996 64.6008 80.4996C64.6008 78.9996 63.3008 77.6996 61.7008 77.6996Z" fill="#F7941D"/>
<path d="M63.301 79C63.301 79.2 63.301 79.3 63.201 79.5C63.101 79.6 63.001 79.7 62.901 79.7H61.601C61.5343 79.7 61.501 79.7333 61.501 79.8V80.3H62.701C62.801 80.3 62.901 80.4 63.001 80.5C63.101 80.6 63.101 80.7 63.101 80.9C63.101 81.1 63.101 81.2 63.001 81.3C62.901 81.4 62.801 81.5 62.701 81.5H61.501V82.2C61.501 82.4 61.501 82.6 61.401 82.7C61.301 82.8 61.201 82.9 61.001 82.9C60.801 82.9 60.701 82.8 60.601 82.7C60.501 82.6 60.501 82.4 60.501 82.2V79.3C60.501 78.8 60.701 78.5 61.101 78.5H62.901C63.001 78.5 63.101 78.5 63.201 78.7C63.301 78.6 63.301 78.8 63.301 79Z" fill="white"/>
<path d="M72.9008 31.0002C71.3008 29.2002 68.0008 29.4002 65.9008 30.3002C64.0008 31.1002 62.7008 32.3002 62.7008 34.2002C62.7008 35.3002 62.8008 36.5002 62.7008 37.6002C61.8008 37.5002 54.5008 39.9002 53.7008 39.7002C53.1008 39.5002 51.5008 35.7002 50.4008 34.6002C48.8008 32.9002 47.0008 32.3002 44.7008 32.1002C34.1008 30.8002 38.0008 42.2002 38.3008 43.1002C39.7008 46.5002 37.0008 50.3002 35.5008 53.2002C33.0008 57.9002 32.4008 63.7002 35.6008 68.0002C40.1008 74.0002 51.4008 76.8002 60.1008 76.3002C62.9008 76.1002 67.9008 75.5002 70.5008 74.7002C73.9008 73.7002 77.6008 72.0002 80.1008 69.6002C86.4008 63.4002 87.3008 53.8002 81.1008 48.1002C79.3008 46.3002 74.7008 33.0002 72.9008 31.0002Z" fill="#F04E23" stroke="black" stroke-width="0.99" stroke-linecap="round" stroke-linejoin="round"/>
<path d="M73.0012 49.5996C73.0012 49.5996 69.6012 57.9996 63.3012 58.4996C55.6012 59.0996 48.7012 52.6996 48.7012 52.6996C48.7012 52.6996 53.3012 66.1996 63.3012 64.9996C73.3012 63.6996 73.0012 49.5996 73.0012 49.5996Z" fill="white" stroke="black" stroke-width="0.99" stroke-linecap="round" stroke-linejoin="round"/>
<path d="M40.4003 34.5002C41.8003 32.3002 44.7003 31.0002 47.1003 32.4002C49.9003 34.0002 52.5003 29.6002 49.7003 28.0002C44.8003 25.2002 39.0003 27.4002 36.0003 32.0002C34.2003 34.6002 38.6003 37.2002 40.4003 34.5002Z" fill="black"/>
<path d="M40.3008 36.3C40.3008 39.2 42.9008 41.6 46.2008 41.6C49.5008 41.6 52.1008 39.2 52.1008 36.3C52.1008 33.4 49.5008 31 46.2008 31C42.9008 31 40.3008 33.4 40.3008 36.3Z" fill="white" stroke="black" stroke-width="0.99" stroke-linecap="round" stroke-linejoin="round"/>
<path d="M50.8008 36.2988C50.8008 34.3988 49.2008 32.7988 47.3008 32.7988C45.4008 32.7988 43.8008 34.3988 43.8008 36.2988C43.8008 38.1988 45.4008 39.7988 47.3008 39.7988C49.2008 39.7988 50.8008 38.1988 50.8008 36.2988Z" fill="black" stroke="black" stroke-width="0.99" stroke-linecap="round" stroke-linejoin="round"/>
<path d="M49.6012 35.9988C49.6012 35.5988 49.3012 35.2988 48.9012 35.2988C48.5012 35.2988 48.2012 35.5988 48.2012 35.9988C48.2012 36.3988 48.5012 36.6988 48.9012 36.6988C49.3012 36.5988 49.6012 36.3988 49.6012 35.9988Z" fill="white"/>
<path d="M76.1005 26.2995C71.8005 23.6995 66.0005 24.1995 62.4005 27.7995C60.2005 29.9995 63.6005 33.2995 65.8005 31.1995C67.9005 29.0995 71.3005 28.8995 73.8005 30.3995C76.3005 31.9995 78.7005 27.8995 76.1005 26.2995Z" fill="black"/>
<path d="M64.7012 33.5988C64.7012 36.4988 67.3012 38.8988 70.6012 38.8988C73.9012 38.8988 76.5012 36.4988 76.5012 33.5988C76.5012 30.6988 73.9012 28.2988 70.6012 28.2988C67.3012 28.2988 64.7012 30.6988 64.7012 33.5988Z" fill="white" stroke="black" stroke-width="0.99" stroke-linecap="round" stroke-linejoin="round"/>
<path d="M75.3008 33.5996C75.3008 31.6996 73.7008 30.0996 71.8008 30.0996C69.9008 30.0996 68.3008 31.6996 68.3008 33.5996C68.3008 35.4996 69.9008 37.0996 71.8008 37.0996C73.7008 37.0996 75.3008 35.4996 75.3008 33.5996Z" fill="black" stroke="black" stroke-width="0.99" stroke-linecap="round" stroke-linejoin="round"/>
<path d="M74.5006 33.2996C74.5006 32.8996 74.2006 32.5996 73.8006 32.5996C73.4006 32.5996 73.1006 32.8996 73.1006 33.2996C73.1006 33.6996 73.4006 33.9996 73.8006 33.9996C74.3006 33.8996 74.5006 33.5996 74.5006 33.2996Z" fill="white"/>
<path d="M56.9008 81.4996C55.9008 81.5996 53.7007 81.2996 51.5007 79.9996C50.5007 79.3996 48.9007 78.4996 48.1007 77.5996C47.4007 76.6996 45.9008 74.0996 47.9008 72.8996C49.6008 71.8996 51.6007 74.6996 52.3007 75.1996C53.0007 75.7996 55.1007 76.1996 56.8007 76.2996" fill="#F04E23"/>
<path d="M56.9008 81.4996C55.9008 81.5996 53.7007 81.2996 51.5007 79.9996C50.5007 79.3996 48.9007 78.4996 48.1007 77.5996C47.4007 76.6996 45.9008 74.0996 47.9008 72.8996C49.6008 71.8996 51.6007 74.6996 52.3007 75.1996C53.0007 75.7996 55.1007 76.1996 56.8007 76.2996" stroke="black" stroke-width="0.99" stroke-linecap="round" stroke-linejoin="round"/>
<path d="M65.4004 75.6001C67.6004 75.4001 69.9004 74.0001 71.7004 72.9001C72.8004 72.3001 73.9004 71.6001 75.0004 71.0001C75.5004 70.7001 76.0004 70.4001 76.5004 70.5001C77.2004 70.6001 77.7004 71.4001 77.6004 72.1001C77.6004 72.8001 77.1004 73.5001 76.7004 74.0001C75.8004 75.1001 74.7004 76.0001 73.5004 76.6001C72.1004 77.3001 70.7004 77.7001 69.2004 78.0001" fill="#F04E23"/>
<path d="M65.4004 75.6001C67.6004 75.4001 69.9004 74.0001 71.7004 72.9001C72.8004 72.3001 73.9004 71.6001 75.0004 71.0001C75.5004 70.7001 76.0004 70.4001 76.5004 70.5001C77.2004 70.6001 77.7004 71.4001 77.6004 72.1001C77.6004 72.8001 77.1004 73.5001 76.7004 74.0001C75.8004 75.1001 74.7004 76.0001 73.5004 76.6001C72.1004 77.3001 70.7004 77.7001 69.2004 78.0001" stroke="black" stroke-width="0.99" stroke-linecap="round" stroke-linejoin="round"/>
<path d="M60.4 86.3C59.8 86.8 58.7 88.4 58.7 88.4C62.7 88.2 63.5 92.6 63.5 92.6C65.9 91 69 90.8 70.6 89.3C72.2 87.8 71.5 82.5 71.5 82.5C61.1 86.4 56.8 83.9 56.8 83.9C56.8 83.9 56.5 86 58.8 88.3" fill="#FFF200"/>
<path d="M60.4 86.3C59.8 86.8 58.7 88.4 58.7 88.4C62.7 88.2 63.5 92.6 63.5 92.6C65.9 91 69 90.8 70.6 89.3C72.2 87.8 71.5 82.5 71.5 82.5C61.1 86.4 56.8 83.9 56.8 83.9C56.8 83.9 56.5 86 58.8 88.3" stroke="black" stroke-width="0.99" stroke-linecap="round" stroke-linejoin="round"/>
<path d="M71.2004 88.2992C71.1004 88.0992 71.0004 88.0992 70.8004 87.9992C69.3004 87.1992 67.6004 86.7992 65.9004 86.6992C66.2004 87.0992 66.6004 87.2992 67.1004 87.4992C68.2004 87.9992 69.3004 88.5992 70.3004 89.2992L71.2004 88.2992Z" fill="black"/>
<path d="M61.5996 86.7996C62.9996 85.3996 66.3996 88.3996 66.4996 89.9996C66.4996 89.9996 64.4996 87.9996 61.5996 86.7996Z" fill="black"/>
<path d="M64.8996 84.6992C66.2996 85.0992 68.4996 84.7992 69.5996 85.5992C68.5996 85.4992 67.0996 85.9992 65.9996 86.0992C64.9996 86.0992 63.8996 85.5992 63.0996 84.9992L64.8996 84.6992Z" fill="black"/>
<path d="M49.0005 69.8004C48.3005 68.5004 47.0005 67.7004 45.6005 67.6004C44.4005 64.6004 35.6005 46.0004 32.0005 38.1004C27.9005 29.2004 23.9005 29.0004 21.5005 30.1004C19.1005 31.2004 16.6005 33.3004 18.5005 38.8004C20.1005 43.6004 38.2005 66.1004 41.6005 70.2004C41.1005 71.3004 41.1005 72.7004 41.7005 73.9004C42.8005 75.9004 45.3005 76.7004 47.3005 75.6004C49.4005 74.3004 50.1005 71.8004 49.0005 69.8004ZM46.1005 73.1004C45.4005 73.5004 44.4005 73.2004 44.0005 72.5004C43.6005 71.8004 43.9005 70.8004 44.6005 70.4004C45.3005 70.0004 46.3005 70.3004 46.7005 71.0004C47.1005 71.8004 46.8005 72.7004 46.1005 73.1004Z" fill="#58595B" stroke="black" stroke-width="0.99" stroke-linecap="round" stroke-linejoin="round"/>
<path d="M33.5 45.3L36.4 41L35.8 48.3" fill="#58595B"/>
<path d="M33.5 45.3L36.4 41L35.8 48.3" stroke="black" stroke-width="0.99" stroke-linecap="round" stroke-linejoin="round"/>
<path d="M29.0996 47.3992L29.9996 42.1992L31.4996 47.4992" fill="#58595B"/>
<path d="M29.0996 47.3992L29.9996 42.1992L31.4996 47.4992" stroke="black" stroke-width="0.99" stroke-linecap="round" stroke-linejoin="round"/>
<path d="M24.6004 41.5004L21.4004 36.4004L25.3004 39.4004" fill="#58595B"/>
<path d="M24.6004 41.5004L21.4004 36.4004L25.3004 39.4004" stroke="black" stroke-width="0.99" stroke-linecap="round" stroke-linejoin="round"/>
<path d="M20.7996 32.9L20.0996 26.5L23.3996 32.6" fill="#58595B"/>
<path d="M20.7996 32.9L20.0996 26.5L23.3996 32.6" stroke="black" stroke-width="0.99" stroke-linecap="round" stroke-linejoin="round"/>
<path d="M26.4004 31.9008L29.9004 27.3008L28.8004 34.3008" fill="#58595B"/>
<path d="M26.4004 31.9008L29.9004 27.3008L28.8004 34.3008" stroke="black" stroke-width="0.99" stroke-linecap="round" stroke-linejoin="round"/>
<path d="M30.0996 37.5C30.4996 36.9 32.9996 33.5 32.9996 33.5L32.0996 40.6" fill="#58595B"/>
<path d="M30.0996 37.5C30.4996 36.9 32.9996 33.5 32.9996 33.5L32.0996 40.6" stroke="black" stroke-width="0.99" stroke-linecap="round" stroke-linejoin="round"/>
<path d="M19.3 37.9004L14.5 39.2004L20.8 41.3004" fill="#58595B"/>
<path d="M19.3 37.9004L14.5 39.2004L20.8 41.3004" stroke="black" stroke-width="0.99" stroke-linecap="round" stroke-linejoin="round"/>
<path d="M23.5 44.0996L19 48.1996L25.1 47.1996" fill="#58595B"/>
<path d="M23.5 44.0996L19 48.1996L25.1 47.1996" stroke="black" stroke-width="0.99" stroke-linecap="round" stroke-linejoin="round"/>
<path d="M30.1996 53L23.5996 53.1L28.6996 50.5" fill="#58595B"/>
<path d="M30.1996 53L23.5996 53.1L28.6996 50.5" stroke="black" stroke-width="0.99" stroke-linecap="round" stroke-linejoin="round"/>
</g>
<defs>
<clipPath id="clip0_403_400">
<rect width="71.81" height="93.93" fill="white" transform="translate(14 1.5)"/>
</clipPath>
</defs>
</svg>
