<svg width="100" height="101" viewBox="0 0 100 101" fill="none" xmlns="http://www.w3.org/2000/svg">
<g clip-path="url(#clip0_403_395)">
<path d="M71.9 41.8708C70.9 42.3708 70 42.8708 69 43.2708C67.4 43.9708 65.6 44.0708 63.8 44.2708C59.4 44.8708 55.1 45.6708 50.7 45.8708C42.5 46.1708 34.3 45.3708 26.3 43.5708C20 42.1708 12.7 40.6708 8.8 34.9708C7.9 33.7708 7.6 32.3708 7.5 30.7708C7.5 30.2708 7.5 29.6708 7.9 29.2708C8.4 28.6708 9.2 28.6708 9.9 28.6708C13.5 28.8708 16.5 29.5708 20 28.7708C23.6 27.9708 26.4 27.7708 29 24.7708C31.2 22.2708 31.5 19.1708 32.7 16.1708C33.9 12.9708 35.4 9.47077 37.7 6.87077C41.2 2.97077 46.6 1.07077 51.8 1.57077C58.3 2.17077 62.7 7.07077 67.4 11.0708C70.7 13.8708 73.5 18.6708 78.3 18.8708C80.2 18.9708 81.8 18.2708 83.7 17.8708C85.4 17.4708 87.4 16.5708 89.2 16.8708C94.3 17.8708 87.5 26.7708 86.3 28.5708C83.1 33.4708 78.8 37.5708 73.8 40.5708C73.2 41.0708 72.6 41.4708 71.9 41.8708Z" fill="#221F55"/>
<mask id="mask0_403_395" style="mask-type:luminance" maskUnits="userSpaceOnUse" x="7" y="1" width="85" height="45">
<path d="M71.9 41.8708C70.9 42.3708 70 42.8708 69 43.2708C67.4 43.9708 65.6 44.0708 63.8 44.2708C59.4 44.8708 55.1 45.6708 50.7 45.8708C42.5 46.1708 34.3 45.3708 26.3 43.5708C20 42.1708 12.7 40.6708 8.8 34.9708C7.9 33.7708 7.6 32.3708 7.5 30.7708C7.5 30.2708 7.5 29.6708 7.9 29.2708C8.4 28.6708 9.2 28.6708 9.9 28.6708C13.5 28.8708 16.5 29.5708 20 28.7708C23.6 27.9708 26.4 27.7708 29 24.7708C31.2 22.2708 31.5 19.1708 32.7 16.1708C33.9 12.9708 35.4 9.47077 37.7 6.87077C41.2 2.97077 46.6 1.07077 51.8 1.57077C58.3 2.17077 62.7 7.07077 67.4 11.0708C70.7 13.8708 73.5 18.6708 78.3 18.8708C80.2 18.9708 81.8 18.2708 83.7 17.8708C85.4 17.4708 87.4 16.5708 89.2 16.8708C94.3 17.8708 87.5 26.7708 86.3 28.5708C83.1 33.4708 78.8 37.5708 73.8 40.5708C73.2 41.0708 72.6 41.4708 71.9 41.8708Z" fill="white"/>
</mask>
<g mask="url(#mask0_403_395)">
<path d="M6.1001 30.1698C10.0001 30.7698 18.5001 31.2698 21.9001 30.5698C25.3001 29.7698 28.0001 29.5698 30.5001 26.6698C32.6001 24.1698 32.9001 21.2698 34.0001 18.3698C35.2001 15.2698 36.6001 11.8698 38.8001 9.2698C42.1001 5.4698 47.3001 3.6698 52.3001 4.1698C58.5001 4.7698 62.7001 9.4698 67.2001 13.3698C70.4001 16.0698 73.1001 20.7698 77.6001 20.9698C79.4001 21.0698 81.0001 20.3698 82.7001 19.9698C84.3001 19.5698 91.8001 17.3698 93.4001 16.6698" stroke="white" stroke-width="0.99" stroke-linecap="round" stroke-linejoin="round"/>
</g>
<path d="M71.9 41.8708C70.9 42.3708 70 42.8708 69 43.2708C67.4 43.9708 65.6 44.0708 63.8 44.2708C59.4 44.8708 55.1 45.6708 50.7 45.8708C42.5 46.1708 34.3 45.3708 26.3 43.5708C20 42.1708 12.7 40.6708 8.8 34.9708C7.9 33.7708 7.6 32.3708 7.5 30.7708C7.5 30.2708 7.5 29.6708 7.9 29.2708C8.4 28.6708 9.2 28.6708 9.9 28.6708C13.5 28.8708 16.5 29.5708 20 28.7708C23.6 27.9708 26.4 27.7708 29 24.7708C31.2 22.2708 31.5 19.1708 32.7 16.1708C33.9 12.9708 35.4 9.47077 37.7 6.87077C41.2 2.97077 46.6 1.07077 51.8 1.57077C58.3 2.17077 62.7 7.07077 67.4 11.0708C70.7 13.8708 73.5 18.6708 78.3 18.8708C80.2 18.9708 81.8 18.2708 83.7 17.8708C85.4 17.4708 87.4 16.5708 89.2 16.8708C94.3 17.8708 87.5 26.7708 86.3 28.5708C83.1 33.4708 78.8 37.5708 73.8 40.5708C73.2 41.0708 72.6 41.4708 71.9 41.8708Z" stroke="black" stroke-width="0.99" stroke-linecap="round" stroke-linejoin="round"/>
<path d="M44.3 20.9707C44.4 21.9707 44.5 23.0707 43.3 23.3707C42.1 23.6707 41.6 22.3707 42 21.8707C42.4 21.3707 42.6 21.0707 42.6 21.0707C42.6 21.0707 42.1 21.5707 41.8 21.6707C41.2 21.8707 40.5 21.5707 40.5 20.8707C40.5 20.1707 41.3 19.4707 42.1 19.4707C42.9 19.4707 44.3 18.5707 45.6 17.6707C46.9 16.7707 56.4 11.4707 57 10.9707C57.6 10.4707 57.3 10.5707 57.7 10.1707C58.1 9.77069 57.9 9.07069 58.8 8.67069C59.7 8.27069 60.6 9.87069 59.8 10.5707C59.7 10.6707 59.3 10.8707 59.3 10.8707L60.1 10.6707C60.9 10.3707 61.2 11.3707 60.9 11.9707C60.6 12.5707 59.6 12.6707 58.9 12.4707C58.2 12.2707 58.3 12.4707 57.9 12.5707C57.5 12.6707 48.5 17.5707 46.9 18.5707C45.3 19.5707 44.8 20.0707 44.7 20.1707C44.4 20.5707 44.3 20.9707 44.3 20.9707Z" fill="white" stroke="black" stroke-width="0.99" stroke-linecap="round" stroke-linejoin="round"/>
<path d="M43.2002 12.3715C43.1002 11.3715 42.9002 10.2715 41.7002 10.2715C40.5002 10.2715 40.3002 11.6715 40.8002 12.0715C41.3002 12.4715 41.6002 12.6715 41.6002 12.6715C41.6002 12.6715 41.0002 12.3715 40.6002 12.2715C40.0002 12.2715 39.3002 12.6715 39.5002 13.3715C39.7002 14.0715 40.6002 14.4715 41.4002 14.3715C42.2002 14.1715 43.8002 14.6715 45.2002 15.2715C46.7002 15.8715 57.1002 18.7715 57.8002 19.1715C58.5002 19.5715 58.2002 19.4715 58.7002 19.7715C59.2002 20.0715 59.2002 20.7715 60.1002 20.9715C61.0002 21.0715 61.6002 19.3715 60.6002 18.8715C60.4002 18.7715 60.0002 18.6715 60.0002 18.6715L60.8002 18.7715C61.7002 18.8715 61.7002 17.7715 61.2002 17.3715C60.7002 16.9715 59.8002 16.9715 59.2002 17.2715C58.6002 17.5715 58.6002 17.3715 58.2002 17.3715C57.9002 17.3715 47.9002 14.6715 46.1002 13.9715C44.3002 13.3715 43.7002 12.9715 43.6002 12.9715C43.4002 12.7715 43.2002 12.3715 43.2002 12.3715Z" fill="white" stroke="black" stroke-width="0.99" stroke-linecap="round" stroke-linejoin="round"/>
<path d="M46.2 18.7706C45.8 18.5706 45.4 18.2706 45.1 17.8706C44.4 16.7706 44.4 15.3706 44.9 14.1706C45.3 13.1706 46.1 12.3706 46.9 11.8706C48.1 11.1706 49.9 10.6706 51.3 10.8706C52.7 11.0706 53.7 11.3706 54.9 12.1706C55.5 12.5706 56 13.0706 56.4 13.6706C57 14.6706 57.1 15.9706 56.4 16.8706C55.9 17.5706 55.1 17.7706 54.4 18.1706C54.5 19.1706 54.6 19.7706 54.7 20.7706C54.2 20.8706 53.7 21.0706 53.2 21.1706C53.1 21.1706 52.6 19.8706 52.6 19.8706C52.6 19.8706 52.7 21.2706 52.5 21.3706C52 21.4706 51.5 21.4706 50.9 21.4706C50.8 21.4706 50.5 19.9706 50.5 19.9706C50.5 19.9706 50.4 21.4706 50.3 21.4706C49.9 21.4706 49.5 21.4706 49.1 21.3706C48.8 21.3706 48.7 19.2706 48.7 19.0706C47.9 19.0706 47 19.0706 46.2 18.7706Z" fill="white" stroke="black" stroke-width="0.99" stroke-linecap="round" stroke-linejoin="round"/>
<path d="M48.1004 16.27C48.4004 16.87 49.4004 17.07 49.9004 16.57C50.6004 15.97 50.1004 14.47 49.2004 14.27C48.4004 14.07 47.9004 15.17 47.9004 15.87C48.0004 16.07 48.0004 16.17 48.1004 16.27Z" fill="black" stroke="black" stroke-width="0.99" stroke-linecap="round" stroke-linejoin="round"/>
<path d="M52.5002 16.4709C52.9002 16.6709 53.7002 16.5709 53.8002 15.9709C53.9002 15.2709 53.0002 13.1709 51.8002 14.3709C51.4002 14.6709 51.7002 15.7709 52.1002 16.2709C52.2002 16.2709 52.3002 16.3709 52.5002 16.4709Z" fill="black" stroke="black" stroke-width="0.99" stroke-linecap="round" stroke-linejoin="round"/>
<path d="M62.7999 75.0711C67.7999 74.4711 68.7999 73.5711 69.9999 75.2711C70.8999 76.5711 68.7999 78.1711 66.7999 78.8711C64.3999 79.7711 61.5999 80.2711 61.5999 80.2711C61.5999 81.4711 61.5999 85.2711 61.6999 86.4711C61.7999 88.0711 64.0999 95.1711 63.4999 95.8711C63.0999 96.3711 60.2999 95.8711 59.9999 95.6711C59.3999 95.3711 57.6999 89.7711 57.6999 89.3711C57.6999 89.2711 55.5999 89.0711 55.2999 89.1711C55.2999 89.5711 53.5999 94.3711 53.3999 94.8711C53.0999 95.4711 52.8999 95.3711 52.2999 95.3711C51.5999 95.3711 50.2999 95.2711 49.6999 95.1711C48.3999 94.8711 51.0999 85.1711 51.0999 84.9711C51.0999 84.4711 51.3999 82.3711 51.4999 81.8711C51.5999 81.5711 51.5999 80.4711 51.5999 80.0711L48.8999 72.8711" fill="#CBDB2A"/>
<path d="M62.7999 75.0711C67.7999 74.4711 68.7999 73.5711 69.9999 75.2711C70.8999 76.5711 68.7999 78.1711 66.7999 78.8711C64.3999 79.7711 61.5999 80.2711 61.5999 80.2711C61.5999 81.4711 61.5999 85.2711 61.6999 86.4711C61.7999 88.0711 64.0999 95.1711 63.4999 95.8711C63.0999 96.3711 60.2999 95.8711 59.9999 95.6711C59.3999 95.3711 57.6999 89.7711 57.6999 89.3711C57.6999 89.2711 55.5999 89.0711 55.2999 89.1711C55.2999 89.5711 53.5999 94.3711 53.3999 94.8711C53.0999 95.4711 52.8999 95.3711 52.2999 95.3711C51.5999 95.3711 50.2999 95.2711 49.6999 95.1711C48.3999 94.8711 51.0999 85.1711 51.0999 84.9711C51.0999 84.4711 51.3999 82.3711 51.4999 81.8711C51.5999 81.5711 51.5999 80.4711 51.5999 80.0711L48.8999 72.8711" stroke="black" stroke-width="0.99" stroke-linecap="round" stroke-linejoin="round"/>
<path d="M61.7001 86.4707C61.8001 88.0707 64.1001 95.1707 63.5001 95.8707C63.1001 96.3707 60.3001 95.8707 60.0001 95.6707C59.4001 95.3707 57.7001 89.7707 57.7001 89.3707C57.7001 89.2707 55.6001 89.0707 55.3001 89.1707C55.3001 89.5707 53.6001 94.3707 53.4001 94.8707C53.1001 95.4707 52.9001 95.3707 52.3001 95.3707C51.6001 95.3707 50.3001 95.2707 49.7001 95.1707C48.4001 94.8707 51.1001 85.1707 51.1001 84.9707" fill="#1C75BC"/>
<path d="M61.7001 86.4707C61.8001 88.0707 64.1001 95.1707 63.5001 95.8707C63.1001 96.3707 60.3001 95.8707 60.0001 95.6707C59.4001 95.3707 57.7001 89.7707 57.7001 89.3707C57.7001 89.2707 55.6001 89.0707 55.3001 89.1707C55.3001 89.5707 53.6001 94.3707 53.4001 94.8707C53.1001 95.4707 52.9001 95.3707 52.3001 95.3707C51.6001 95.3707 50.3001 95.2707 49.7001 95.1707C48.4001 94.8707 51.1001 85.1707 51.1001 84.9707" stroke="black" stroke-width="0.99" stroke-linecap="round" stroke-linejoin="round"/>
<path d="M51.8998 86.1711C52.8998 86.6711 54.0998 86.7711 55.1998 86.8711C57.2998 86.9711 59.3998 87.0711 61.3998 86.8711L61.2998 85.0711C59.1998 85.3711 57.1998 85.2711 55.0998 85.0711C53.9998 84.9711 52.7998 84.9711 51.7998 84.3711L51.8998 86.1711Z" fill="#603913" stroke="black" stroke-width="0.99" stroke-linecap="round" stroke-linejoin="round"/>
<path d="M69.3 29.9708C67.7 28.1708 64.3 28.2708 62.2 29.2708C60.3 30.1708 58.9 31.2708 58.9 33.2708C58.9 34.3708 59 35.6708 58.9 36.7708C58 36.6708 50.6 39.0708 49.7 38.8708C49.1 38.6708 47.4 34.7708 46.4 33.6708C44.8 31.9708 42.9 31.3708 40.5 31.0708C29.7 29.7708 33.6 41.3708 34 42.2708C35.4 45.7708 32.7 49.5708 31.1 52.5708C28.6 57.3708 27.9 63.2708 31.2 67.6708C35.7 73.7708 47.3 76.6708 56.2 76.0708C59.1 75.8708 64.1 75.2708 66.8 74.4708C70.3 73.4708 74.1 71.6708 76.6 69.2708C83 62.8708 83.9 53.1708 77.7 47.2708C75.8 45.5708 71.1 31.9708 69.3 29.9708Z" fill="#CBDB2A" stroke="black" stroke-width="0.99" stroke-linecap="round" stroke-linejoin="round"/>
<path d="M69.4002 48.2715C69.4002 48.2715 65.2002 54.8715 58.1002 55.4715C49.4002 56.1715 41.7002 51.5715 41.7002 51.5715C41.7002 51.5715 47.0002 65.8715 58.3002 64.5715C69.8002 63.2715 69.4002 48.2715 69.4002 48.2715Z" fill="white" stroke="black" stroke-width="0.99" stroke-linecap="round" stroke-linejoin="round"/>
<path d="M36.6999 32.0714C38.5999 30.2714 41.7999 29.4714 43.8999 31.4714C46.2999 33.7714 49.9999 30.0714 47.5999 27.7714C43.3999 23.7714 37.0999 24.5714 33.0999 28.3714C30.5999 30.7714 34.1999 34.3714 36.6999 32.0714Z" fill="black"/>
<path d="M36 35.3707C36 38.3707 38.7 40.7707 42 40.7707C45.3 40.7707 48 38.3707 48 35.3707C48 32.3707 45.3 29.9707 42 29.9707C38.7 29.9707 36 32.4707 36 35.3707Z" fill="white" stroke="black" stroke-width="0.99" stroke-linecap="round" stroke-linejoin="round"/>
<path d="M46.7002 35.3711C46.7002 33.3711 45.1002 31.8711 43.2002 31.8711C41.3002 31.8711 39.7002 33.4711 39.7002 35.3711C39.7002 37.2711 41.3002 38.8711 43.2002 38.8711C45.1002 38.8711 46.7002 37.3711 46.7002 35.3711Z" fill="black" stroke="black" stroke-width="0.99" stroke-linecap="round" stroke-linejoin="round"/>
<path d="M45.5001 35.0711C45.5001 34.6711 45.2001 34.3711 44.8001 34.3711C44.4001 34.3711 44.1001 34.6711 44.1001 35.0711C44.1001 35.4711 44.4001 35.7711 44.8001 35.7711C45.2001 35.6711 45.5001 35.4711 45.5001 35.0711Z" fill="white"/>
<path d="M71.7999 24.671C66.6999 22.471 60.9999 23.771 57.6999 28.171C55.7999 30.671 59.9999 33.071 61.8999 30.671C63.4999 28.571 66.9999 27.771 69.3999 28.871C72.1999 30.071 74.5999 25.871 71.7999 24.671Z" fill="black"/>
<path d="M61 32.5699C61 35.5699 63.7 37.9699 67 37.9699C70.3 37.9699 73 35.5699 73 32.5699C73 29.5699 70.3 27.1699 67 27.1699C63.7 27.1699 61 29.5699 61 32.5699Z" fill="white" stroke="black" stroke-width="0.99" stroke-linecap="round" stroke-linejoin="round"/>
<path d="M71.7002 32.5703C71.7002 30.5703 70.1002 29.0703 68.2002 29.0703C66.3002 29.0703 64.7002 30.6703 64.7002 32.5703C64.7002 34.4703 66.3002 36.0703 68.2002 36.0703C70.1002 36.0703 71.7002 34.5703 71.7002 32.5703Z" fill="black" stroke="black" stroke-width="0.99" stroke-linecap="round" stroke-linejoin="round"/>
<path d="M71.0001 32.2703C71.0001 31.8703 70.7001 31.5703 70.3001 31.5703C69.9001 31.5703 69.6001 31.8703 69.6001 32.2703C69.6001 32.6703 69.9001 32.9703 70.3001 32.9703C70.7001 32.9703 71.0001 32.6703 71.0001 32.2703Z" fill="white"/>
<path d="M53.2998 80.5691C53.2998 78.7691 54.6998 77.3691 56.4998 77.3691C58.2998 77.3691 59.6998 78.7691 59.6998 80.5691C59.6998 82.3691 58.2998 83.7691 56.4998 83.7691C54.6998 83.6691 53.2998 82.2691 53.2998 80.5691Z" fill="#ED1C24"/>
<path d="M56.4 83.9699C54.5 83.9699 53 82.4699 53 80.5699C53 78.6699 54.5 77.1699 56.4 77.1699C58.3 77.1699 59.8 78.6699 59.8 80.5699C59.9 82.3699 58.3 83.9699 56.4 83.9699ZM56.4 77.5699C54.8 77.5699 53.5 78.8699 53.5 80.4699C53.5 82.0699 54.8 83.3699 56.4 83.3699C58 83.3699 59.3 82.0699 59.3 80.4699C59.3 78.8699 58 77.5699 56.4 77.5699Z" fill="#F7941D"/>
<path d="M58.0002 78.9711C58.0002 79.1711 58.0002 79.3711 57.9002 79.4711C57.8002 79.5711 57.7002 79.5711 57.6002 79.5711H56.2002C56.1335 79.5711 56.1002 79.6044 56.1002 79.6711V80.1711H57.4002C57.5002 80.1711 57.6002 80.2711 57.7002 80.3711C57.8002 80.4711 57.8002 80.6711 57.8002 80.7711C57.8002 80.9711 57.8002 81.0711 57.7002 81.2711C57.6002 81.3711 57.5002 81.3711 57.4002 81.3711H56.2002V82.1711C56.2002 82.3711 56.2002 82.5711 56.1002 82.6711C56.0002 82.7711 55.9002 82.8711 55.7002 82.8711C55.5002 82.8711 55.4002 82.7711 55.3002 82.6711C55.2002 82.5711 55.2002 82.3711 55.2002 82.1711V79.1711C55.2002 78.6711 55.4002 78.3711 55.8002 78.3711H57.6002C57.7002 78.3711 57.8002 78.3711 57.9002 78.5711C58.0002 78.5711 58.0002 78.7711 58.0002 78.9711Z" fill="white"/>
<path d="M36 35.3707C36 38.3707 38.7 40.7707 42 40.7707C45.3 40.7707 48 38.3707 48 35.3707C48 32.3707 45.3 29.9707 42 29.9707C38.7 29.9707 36 32.4707 36 35.3707Z" fill="black" stroke="black" stroke-width="0.99" stroke-linecap="round" stroke-linejoin="round"/>
<path d="M55.1998 75.1699C47.9998 75.3699 35.2998 72.6699 35.2998 72.6699C35.2998 72.6699 43.5998 77.2699 48.7998 77.2699C47.8998 77.7699 45.2998 79.0699 44.5998 79.8699C41.2998 83.3699 46.3998 84.2699 47.6998 83.0699C48.1998 82.5699 49.0998 82.0699 49.9998 81.6699C49.6998 83.5699 48.9998 86.7699 47.9998 88.1699C47.9998 88.1699 51.5998 89.1699 53.1998 89.1699C53.1998 89.1699 54.7998 81.4699 54.8998 79.7699C54.9998 78.0699 55.1998 75.1699 55.1998 75.1699Z" fill="#8A4F3D" stroke="black" stroke-width="0.99" stroke-linecap="round" stroke-linejoin="round"/>
<path d="M44.0002 83.2701C44.2002 83.6701 44.0002 84.1701 43.6002 84.3701L41.4002 85.4701C41.0002 85.6701 40.5002 85.4701 40.3002 85.0701C39.9002 84.2701 38.9002 83.9701 38.1002 84.2701C37.3002 84.5701 37.0002 85.6701 37.3002 86.4701C37.7002 87.2701 38.8002 87.6701 39.7002 87.5701C40.3002 87.4701 41.3002 87.2701 41.3002 87.2701C41.3002 87.2701 40.9002 88.2701 40.2002 88.7701C38.6002 89.6701 36.6002 88.8701 35.8002 87.2701C35.0002 85.6701 35.7002 83.5701 37.3002 82.7701C38.7002 82.0701 40.3002 82.4701 41.3002 83.5701L42.9002 82.7701C43.3002 82.6701 43.8002 82.8701 44.0002 83.2701Z" fill="#939598" stroke="black" stroke-width="0.99" stroke-linecap="round" stroke-linejoin="round"/>
<path d="M42 81.1703L43.9 86.3703L47.6 84.5703C47.6 84.5703 45.9 79.4703 44.1 78.5703L42 81.1703Z" fill="#ED1C24" stroke="black" stroke-width="0.99" stroke-linecap="round" stroke-linejoin="round"/>
<path d="M66.5 79.3711L62.5 80.5711C62.5 82.2711 63.8 88.2711 63.8 88.2711L59.9 88.9711C58.9 83.2711 58.5 75.1711 58.5 75.1711C58.5 75.1711 62.5 75.2711 65.1 74.3711L66.5 79.3711Z" fill="#8A4F3D" stroke="black" stroke-width="0.99" stroke-linecap="round" stroke-linejoin="round"/>
<path d="M66.5001 73.9707L69.3001 78.1707L66.6001 80.5707C66.6001 80.5707 63.8001 76.5707 63.9001 74.5707L66.5001 73.9707Z" fill="#ED1C24" stroke="black" stroke-width="0.99" stroke-linecap="round" stroke-linejoin="round"/>
<path d="M49.1 91.8711C48.9 92.4711 48.6 93.7711 48.6 93.7711C48.6 93.7711 47.6 93.5711 46.6 93.6711C45.6 93.6711 44.9 94.1711 44.6 94.9711C43.2 98.5711 53.5 96.7711 53.5 96.7711C53.9 95.4711 54.6 92.8711 54.6 92.8711L49.1 91.8711Z" fill="black" stroke="black" stroke-width="0.99" stroke-linecap="round" stroke-linejoin="round"/>
<path d="M63.6001 91.8711C63.8001 92.4711 64.1001 93.7711 64.1001 93.7711C64.1001 93.7711 65.1001 93.5711 66.1001 93.6711C67.1001 93.6711 67.8001 94.1711 68.1001 94.9711C69.5001 98.5711 59.2001 96.7711 59.2001 96.7711C58.8001 95.4711 58.1001 92.8711 58.1001 92.8711L63.6001 91.8711Z" fill="black" stroke="black" stroke-width="0.99" stroke-linecap="round" stroke-linejoin="round"/>
<path d="M70 72.9707C70 72.9707 80.4 61.2707 83.4 44.4707C83.4 44.4707 87.2 50.0707 84.4 58.4707C81.6 66.8707 72.4 74.2707 72.4 74.2707" fill="white"/>
<path d="M70 72.9707C70 72.9707 80.4 61.2707 83.4 44.4707C83.4 44.4707 87.2 50.0707 84.4 58.4707C81.6 66.8707 72.4 74.2707 72.4 74.2707" stroke="black" stroke-width="0.99" stroke-linecap="round" stroke-linejoin="round"/>
<path d="M66.2998 72.2717C66.2998 72.2717 68.7998 69.9717 71.7998 72.0717C74.7998 74.1717 72.6998 77.3717 72.6998 77.3717C72.6998 77.3717 68.8998 76.1717 66.2998 72.2717Z" fill="#FFF200" stroke="black" stroke-width="0.99" stroke-linecap="round" stroke-linejoin="round"/>
<path d="M45.6 32.3711C45.6 32.3711 44.7 34.0711 43.4 34.8711C39.6 37.0711 36.7 38.9711 32.5 38.9711V40.6711C36.7 40.6711 40.7 38.5711 44.5 36.3711C45.8 35.5711 46.2 35.4711 46.8 33.8711L45.6 32.3711Z" fill="black" stroke="black" stroke-width="0.99" stroke-linecap="round" stroke-linejoin="round"/>
<path d="M53.1 78.7703C53.4314 78.7703 53.7 78.5017 53.7 78.1703C53.7 77.8389 53.4314 77.5703 53.1 77.5703C52.7686 77.5703 52.5 77.8389 52.5 78.1703C52.5 78.5017 52.7686 78.7703 53.1 78.7703Z" fill="#FFF200"/>
<path d="M52.8998 81.2703C53.2312 81.2703 53.4998 81.0017 53.4998 80.6703C53.4998 80.3389 53.2312 80.0703 52.8998 80.0703C52.5684 80.0703 52.2998 80.3389 52.2998 80.6703C52.2998 81.0017 52.5684 81.2703 52.8998 81.2703Z" fill="#FFF200"/>
<path d="M52.4999 83.7703C52.8313 83.7703 53.0999 83.5017 53.0999 83.1703C53.0999 82.8389 52.8313 82.5703 52.4999 82.5703C52.1685 82.5703 51.8999 82.8389 51.8999 83.1703C51.8999 83.5017 52.1685 83.7703 52.4999 83.7703Z" fill="#FFF200"/>
<path d="M52.1 86.2703C52.4314 86.2703 52.7 86.0017 52.7 85.6703C52.7 85.3389 52.4314 85.0703 52.1 85.0703C51.7686 85.0703 51.5 85.3389 51.5 85.6703C51.5 86.0017 51.7686 86.2703 52.1 86.2703Z" fill="#FFF200"/>
<path d="M60.1 78.0711C60.4314 78.0711 60.7 77.8025 60.7 77.4711C60.7 77.1397 60.4314 76.8711 60.1 76.8711C59.7686 76.8711 59.5 77.1397 59.5 77.4711C59.5 77.8025 59.7686 78.0711 60.1 78.0711Z" fill="#FFF200"/>
<path d="M60.3002 80.5711C60.6316 80.5711 60.9002 80.3025 60.9002 79.9711C60.9002 79.6397 60.6316 79.3711 60.3002 79.3711C59.9688 79.3711 59.7002 79.6397 59.7002 79.9711C59.7002 80.3025 59.9688 80.5711 60.3002 80.5711Z" fill="#FFF200"/>
<path d="M60.6 83.0711C60.9314 83.0711 61.2 82.8025 61.2 82.4711C61.2 82.1397 60.9314 81.8711 60.6 81.8711C60.2686 81.8711 60 82.1397 60 82.4711C60 82.8025 60.2686 83.0711 60.6 83.0711Z" fill="#FFF200"/>
<path d="M60.8998 85.5711C61.2312 85.5711 61.4998 85.3025 61.4998 84.9711C61.4998 84.6397 61.2312 84.3711 60.8998 84.3711C60.5684 84.3711 60.2998 84.6397 60.2998 84.9711C60.2998 85.3025 60.5684 85.5711 60.8998 85.5711Z" fill="#FFF200"/>
<path d="M58.4999 44.7707C55.0999 44.5707 51.6999 45.1707 49.2999 46.1707C47.2999 46.9707 44.1999 48.8707 45.8999 51.0707C46.3999 51.6707 47.5999 51.7707 47.8999 51.0707C48.1999 51.9707 48.8999 52.8707 49.9999 53.0707C50.9999 53.2707 52.1999 52.5707 52.2999 51.6707C52.8999 52.5707 53.9999 53.0707 55.0999 52.9707C56.1999 52.9707 57.1999 52.3707 57.6999 51.4707C58.6999 52.0707 59.8999 52.5707 60.9999 52.3707C62.0999 52.1707 63.1999 51.0707 62.7999 49.9707C63.8999 50.5707 65.5999 50.8707 66.2999 49.8707C66.8999 48.9707 66.2999 47.8707 65.4999 47.1707C63.6999 45.5707 60.9999 44.9707 58.4999 44.7707Z" fill="#603913" stroke="black" stroke-width="0.99" stroke-linecap="round" stroke-linejoin="round"/>
</g>
<defs>
<clipPath id="clip0_403_395">
<rect width="84.57" height="96.72" fill="white" transform="translate(7 1)"/>
</clipPath>
</defs>
</svg>
