<svg width="100" height="101" viewBox="0 0 100 101" fill="none" xmlns="http://www.w3.org/2000/svg">
<g clip-path="url(#clip0_403_393)">
<path d="M56.3793 70.6699C58.9793 72.7699 61.1793 72.8699 64.0793 71.8699C64.9793 71.5699 65.9793 71.3699 66.7793 71.7699C67.5793 72.0699 68.5793 73.0699 68.0793 74.2699C67.4793 75.5699 65.9793 75.7699 64.7793 76.0699C63.2793 76.4699 61.8793 77.2699 60.3793 77.3699C58.6793 77.4699 56.8793 77.2699 55.2793 76.5699" fill="#CBDB2A"/>
<path d="M56.3793 70.6699C58.9793 72.7699 61.1793 72.8699 64.0793 71.8699C64.9793 71.5699 65.9793 71.3699 66.7793 71.7699C67.5793 72.0699 68.5793 73.0699 68.0793 74.2699C67.4793 75.5699 65.9793 75.7699 64.7793 76.0699C63.2793 76.4699 61.8793 77.2699 60.3793 77.3699C58.6793 77.4699 56.8793 77.2699 55.2793 76.5699" stroke="black" stroke-width="0.99" stroke-linecap="round" stroke-linejoin="round"/>
<path d="M56.88 70.6694C56.28 70.3694 55.78 69.8694 55.18 69.5694C52.28 68.4694 45.58 67.5694 44.38 71.4694C43.88 73.4694 43.78 75.4694 43.88 77.5694C43.98 79.4694 43.88 81.2694 43.88 83.1694C43.88 83.4694 42.58 95.5694 44.18 95.9694C44.98 96.1694 46.68 96.2694 47.48 96.2694C48.28 96.2694 48.58 96.3694 48.88 95.5694C49.18 94.8694 49.28 88.8694 49.28 88.3694C49.68 88.2694 52.28 88.5694 52.28 88.6694C52.28 89.1694 51.98 92.2694 51.98 92.9694C51.98 94.3694 51.58 96.1694 52.28 96.4694C52.68 96.6694 55.88 96.8694 56.68 96.6694C57.28 96.4694 57.48 86.9694 57.38 84.8694C57.28 83.3694 57.18 76.5694 57.18 76.5694" fill="#CBDB2A"/>
<path d="M56.88 70.6694C56.28 70.3694 55.78 69.8694 55.18 69.5694C52.28 68.4694 45.58 67.5694 44.38 71.4694C43.88 73.4694 43.78 75.4694 43.88 77.5694C43.98 79.4694 43.88 81.2694 43.88 83.1694C43.88 83.4694 42.58 95.5694 44.18 95.9694C44.98 96.1694 46.68 96.2694 47.48 96.2694C48.28 96.2694 48.58 96.3694 48.88 95.5694C49.18 94.8694 49.28 88.8694 49.28 88.3694C49.68 88.2694 52.28 88.5694 52.28 88.6694C52.28 89.1694 51.98 92.2694 51.98 92.9694C51.98 94.3694 51.58 96.1694 52.28 96.4694C52.68 96.6694 55.88 96.8694 56.68 96.6694C57.28 96.4694 57.48 86.9694 57.38 84.8694C57.28 83.3694 57.18 76.5694 57.18 76.5694" stroke="black" stroke-width="0.99" stroke-linecap="round" stroke-linejoin="round"/>
<path d="M66.8795 14.4695C64.8795 12.2695 60.5795 12.3695 57.9795 13.5695C55.5795 14.6695 53.8795 16.0695 53.8795 18.5695C53.8795 19.9695 53.9795 21.4695 53.8795 22.9695C52.6795 22.8695 43.4795 25.8695 42.3795 25.5695C41.5795 25.3695 39.5795 20.4695 38.1795 18.9695C36.1795 16.8695 33.7795 16.0695 30.8795 15.6695C17.3795 14.0695 22.2795 28.4695 22.7795 29.6695C24.5795 34.0695 21.1795 38.8695 19.1795 42.5695C15.9795 48.5695 15.1795 55.8695 19.3795 61.4695C25.0795 69.0695 39.5795 72.6695 50.5795 71.9695C54.1795 71.7695 60.4795 70.9695 63.8795 69.9695C68.1795 68.6695 72.9795 66.5695 76.0795 63.4695C84.0795 55.5695 85.1795 43.3695 77.3795 35.9695C75.0795 33.8695 69.1795 16.9695 66.8795 14.4695Z" fill="#CBDB2A" stroke="black" stroke-width="0.99" stroke-linecap="round" stroke-linejoin="round"/>
<path d="M67.0791 38.0703C67.0791 38.0703 62.6791 48.6703 54.7791 49.3703C44.9791 50.1703 36.0791 41.9703 36.0791 41.9703C36.0791 41.9703 41.9791 59.1703 54.7791 57.6703C67.4791 56.1703 67.0791 38.0703 67.0791 38.0703Z" fill="white" stroke="black" stroke-width="0.99" stroke-linecap="round" stroke-linejoin="round"/>
<path d="M25.4798 18.7699C25.6798 18.3699 25.9798 18.0699 26.1798 17.7699C25.9798 17.9699 25.8798 18.1699 25.6798 18.3699C26.1798 17.6699 26.8798 16.9699 27.5798 16.4699C27.3798 16.6699 27.1798 16.7699 26.8798 16.9699C27.5798 16.4699 28.3798 15.9699 29.1798 15.6699C28.8798 15.7699 28.6798 15.8699 28.3798 15.9699C29.1798 15.6699 30.0798 15.3699 30.8798 15.2699C30.5798 15.2699 30.2798 15.3699 29.9798 15.3699C30.7798 15.2699 31.6798 15.2699 32.4798 15.3699C32.1798 15.3699 31.8798 15.2699 31.5798 15.2699C32.2798 15.3699 32.9798 15.5699 33.6798 15.8699C33.3798 15.7699 33.1798 15.6699 32.8798 15.5699C33.1798 15.6699 33.5798 15.8699 33.8798 16.0699C35.2798 16.9699 37.4798 16.4699 38.2798 14.8699C39.0798 13.2699 38.6798 11.3699 37.0798 10.4699C35.0798 9.26993 32.5798 8.66993 30.2798 8.86993C28.9798 8.96993 27.7798 9.16993 26.5798 9.66993C25.8798 9.96993 25.1798 10.2699 24.5798 10.6699C23.8798 11.0699 23.2798 11.5699 22.6798 12.0699C21.4798 13.0699 20.4798 14.2699 19.6798 15.5699C18.7798 16.9699 19.2798 19.1699 20.8798 19.9699C22.5798 20.7699 24.4798 20.3699 25.4798 18.7699Z" fill="black"/>
<path d="M25.2793 21.1707C25.2793 24.8707 28.5793 27.8707 32.7793 27.8707C36.9793 27.8707 40.2793 24.8707 40.2793 21.1707C40.2793 17.4707 36.9793 14.4707 32.7793 14.4707C28.6793 14.4707 25.2793 17.4707 25.2793 21.1707Z" fill="white" stroke="black" stroke-width="0.99" stroke-linecap="round" stroke-linejoin="round"/>
<path d="M38.6799 21.1695C38.6799 18.6695 36.6799 16.7695 34.2799 16.7695C31.8799 16.7695 29.8799 18.7695 29.8799 21.1695C29.8799 23.5695 31.8799 25.5695 34.2799 25.5695C36.6799 25.6695 38.6799 23.6695 38.6799 21.1695Z" fill="black" stroke="black" stroke-width="0.99" stroke-linecap="round" stroke-linejoin="round"/>
<path d="M37.1791 20.7707C37.1791 20.2707 36.7791 19.9707 36.3791 19.9707C35.9791 19.9707 35.5791 20.3707 35.5791 20.7707C35.5791 21.2707 35.9791 21.5707 36.3791 21.5707C36.7791 21.5707 37.1791 21.2707 37.1791 20.7707Z" fill="white"/>
<path d="M70.9791 8.37002C66.7791 5.57002 60.9791 5.67002 56.5791 7.97002C55.4791 8.57002 54.3791 9.37002 53.4791 10.27C52.3791 11.47 52.2791 13.47 53.4791 14.57C54.6791 15.67 56.5791 15.77 57.7791 14.57C58.0791 14.27 58.4791 13.97 58.7791 13.67C58.5791 13.87 58.3791 13.97 58.1791 14.17C58.8791 13.67 59.5791 13.17 60.3791 12.87C60.1791 12.97 59.8791 13.07 59.6791 13.17C60.6791 12.77 61.6791 12.47 62.7791 12.37C62.4791 12.37 62.2791 12.47 61.9791 12.47C62.9791 12.37 64.0791 12.37 65.0791 12.47C64.7791 12.47 64.5791 12.37 64.2791 12.37C65.1791 12.47 66.0791 12.77 66.9791 13.07C66.7791 12.97 66.4791 12.87 66.2791 12.77C66.8791 12.97 67.3791 13.27 67.9791 13.67C69.2791 14.57 71.3791 13.97 72.1791 12.57C72.8791 11.07 72.3791 9.37002 70.9791 8.37002Z" fill="black"/>
<path d="M56.4795 17.6707C56.4795 21.3707 59.7795 24.3707 63.9795 24.3707C68.1795 24.3707 71.4795 21.3707 71.4795 17.6707C71.4795 13.9707 68.1795 10.9707 63.9795 10.9707C59.8795 10.9707 56.4795 13.9707 56.4795 17.6707Z" fill="white" stroke="black" stroke-width="0.99" stroke-linecap="round" stroke-linejoin="round"/>
<path d="M69.9797 17.6695C69.9797 15.1695 67.9797 13.2695 65.5797 13.2695C63.1797 13.2695 61.1797 15.2695 61.1797 17.6695C61.1797 20.0695 63.1797 22.0695 65.5797 22.0695C67.9797 22.0695 69.9797 20.0695 69.9797 17.6695Z" fill="black" stroke="black" stroke-width="0.99" stroke-linecap="round" stroke-linejoin="round"/>
<path d="M68.9799 17.2707C68.9799 16.7707 68.5799 16.4707 68.1799 16.4707C67.6799 16.4707 67.3799 16.8707 67.3799 17.2707C67.3799 17.6707 67.7799 18.1707 68.1799 18.1707C68.6799 18.1707 68.9799 17.7707 68.9799 17.2707Z" fill="white"/>
<path d="M48.6791 74.0703C51.2791 76.1703 53.4791 76.2703 56.3791 75.2703C57.2791 74.9703 58.2791 74.7703 59.0791 75.1703C59.8791 75.4703 60.8791 76.4703 60.3791 77.6703C59.7791 78.9703 58.2791 79.1703 57.0791 79.4703C55.5791 79.8703 54.1791 80.6703 52.6791 80.7703C50.9791 80.8703 49.1791 80.6703 47.5791 79.9703" fill="#CBDB2A"/>
<path d="M48.6791 74.0703C51.2791 76.1703 53.4791 76.2703 56.3791 75.2703C57.2791 74.9703 58.2791 74.7703 59.0791 75.1703C59.8791 75.4703 60.8791 76.4703 60.3791 77.6703C59.7791 78.9703 58.2791 79.1703 57.0791 79.4703C55.5791 79.8703 54.1791 80.6703 52.6791 80.7703C50.9791 80.8703 49.1791 80.6703 47.5791 79.9703" stroke="black" stroke-width="0.99" stroke-linecap="round" stroke-linejoin="round"/>
<path d="M43.7793 82.6687C41.2793 83.6687 38.7793 91.9687 38.7793 91.9687L41.4793 91.3687C41.4793 91.3687 41.1793 93.0687 41.2793 93.7687C43.3793 93.3687 44.3793 92.9687 45.2793 91.7687C45.2793 92.2687 46.4793 93.8687 46.4793 93.8687C46.4793 93.8687 48.9793 92.7687 49.3793 91.8687C49.5793 92.5687 50.5793 93.3687 51.6793 93.9687C52.8793 93.6687 53.2793 92.7687 53.5793 91.9687C54.1793 93.2687 56.4793 94.2687 56.4793 94.2687C56.4793 94.2687 57.8793 92.8687 58.1793 91.4687C58.3793 92.2687 59.4793 93.4687 60.3793 94.1687C61.1793 93.5687 61.1793 92.4687 61.2793 91.6687C61.5793 89.6687 59.4793 84.5687 57.1793 83.3687C56.9793 83.2687 44.3793 82.4687 43.7793 82.6687Z" fill="#009444" stroke="black" stroke-width="0.99" stroke-linecap="round" stroke-linejoin="round"/>
<path d="M33.28 2.96986C34.08 2.66986 34.98 2.86986 35.48 3.46986C35.98 4.06986 36.28 4.96986 36.18 5.76986C36.88 5.06986 38.68 4.06986 39.68 5.06986C40.68 6.06986 40.68 8.26986 38.68 8.96986C39.28 9.36986 39.98 9.76986 40.28 10.3699C41.08 11.7699 39.88 12.6699 38.48 12.4699C37.78 12.3699 37.18 12.1699 36.58 11.9699C36.48 12.7699 35.88 13.5699 35.08 13.8699C34.28 14.1699 33.28 13.9699 32.78 13.3699C32.28 12.7699 32.18 11.6699 32.68 11.0699C32.08 11.3699 31.48 11.5699 30.78 11.5699C30.08 11.5699 29.38 11.2699 29.18 10.6699C28.28 8.56986 31.68 6.86986 31.68 6.86986C31.68 6.86986 31.48 3.76986 33.28 2.96986Z" fill="#EC008C" stroke="black" stroke-width="0.99" stroke-linecap="round" stroke-linejoin="round"/>
<path d="M50.3803 6.96914C50.2803 6.16914 50.6803 5.36914 51.4803 4.96914C52.1803 4.56914 53.0803 4.56914 53.8803 4.86914C53.3803 4.06914 52.8803 2.06914 54.0803 1.26914C55.2803 0.56914 57.4803 1.16914 57.5803 3.26914C58.0803 2.76914 59.0803 1.46914 60.3803 2.56914C61.7803 3.66914 60.2803 5.46914 59.8803 6.06914C60.6803 6.46914 61.2803 7.16914 61.3803 7.96914C61.4803 8.76914 61.0803 9.76914 60.2803 10.0691C59.4803 10.3691 58.4803 10.2691 57.9803 9.56914C57.2803 11.9691 56.0803 12.0691 55.4803 12.0691C53.8803 11.9691 53.6803 9.56914 53.6803 9.56914C53.6803 9.56914 50.6803 8.76914 50.3803 6.96914Z" fill="#EC008C" stroke="black" stroke-width="0.99" stroke-linecap="round" stroke-linejoin="round"/>
<path d="M42.4804 3.76953C42.1804 2.06953 43.7804 1.46953 45.0804 2.16953C45.7804 2.56953 46.3804 3.26953 46.4804 4.06953C47.2804 3.56953 48.2804 3.36953 49.1804 3.76953C50.0804 4.16953 50.6804 4.96953 50.6804 5.96953C50.6804 6.96953 49.8804 7.76953 48.9804 7.86953C49.6804 8.26953 50.2804 8.86953 50.4804 9.56953C50.8804 10.8695 49.3804 13.0695 46.2804 10.8695C45.8804 11.4695 45.2804 11.9695 44.4804 12.0695C43.7804 12.1695 42.9804 11.8695 42.5804 11.1695C42.0804 10.3695 42.3804 9.26953 42.6804 8.46953C41.1804 8.86953 38.9804 7.16953 39.8804 5.86953C40.7804 4.66953 42.5804 5.26953 42.5804 5.26953C42.5804 5.26953 42.4804 4.36953 42.4804 3.76953Z" fill="#F15A29" stroke="black" stroke-width="0.99" stroke-linecap="round" stroke-linejoin="round"/>
</g>
<defs>
<clipPath id="clip0_403_393">
<rect width="67.18" height="96.75" fill="white" transform="translate(16 0.5)"/>
</clipPath>
</defs>
</svg>
