<svg width="100" height="100" viewBox="0 0 100 100" fill="none" xmlns="http://www.w3.org/2000/svg">
<g clip-path="url(#clip0_403_399)">
<path d="M44.3497 70.1313C40.5497 69.9313 36.6497 69.6313 33.0497 68.1313C30.3497 67.0313 27.4497 65.1313 26.5497 62.3313C26.1497 60.9313 24.9497 56.4313 22.7497 57.2313C21.6497 57.6313 20.9497 59.8313 20.9497 60.8313C20.8497 70.5313 37.0497 73.7313 42.7497 73.1313" fill="#00A79D"/>
<path d="M44.3497 70.1313C40.5497 69.9313 36.6497 69.6313 33.0497 68.1313C30.3497 67.0313 27.4497 65.1313 26.5497 62.3313C26.1497 60.9313 24.9497 56.4313 22.7497 57.2313C21.6497 57.6313 20.9497 59.8313 20.9497 60.8313C20.8497 70.5313 37.0497 73.7313 42.7497 73.1313" stroke="black" stroke-width="0.99" stroke-linecap="round" stroke-linejoin="round"/>
<path d="M63.5498 67.7305C67.3498 68.1305 71.2498 68.4305 74.9498 67.5305C77.8498 66.8305 80.9498 65.5305 82.3498 62.8305C82.9498 61.5305 84.8498 57.2305 86.9498 58.3305C87.9498 58.8305 88.3498 61.2305 88.1498 62.2305C86.7498 71.8305 70.1498 72.4305 64.6498 70.9305" fill="#00A79D"/>
<path d="M63.5498 67.7305C67.3498 68.1305 71.2498 68.4305 74.9498 67.5305C77.8498 66.8305 80.9498 65.5305 82.3498 62.8305C82.9498 61.5305 84.8498 57.2305 86.9498 58.3305C87.9498 58.8305 88.3498 61.2305 88.1498 62.2305C86.7498 71.8305 70.1498 72.4305 64.6498 70.9305" stroke="black" stroke-width="0.99" stroke-linecap="round" stroke-linejoin="round"/>
<path d="M65.1495 62.6309C64.8495 65.3309 65.2495 68.2309 66.6495 70.6309C68.0495 73.1309 70.1495 74.3309 72.7495 75.2309C75.1495 76.1309 78.4495 75.7309 79.3495 77.4309C79.6495 78.0309 79.4495 78.8309 78.9495 79.4309C77.9495 80.5309 76.4495 80.7309 75.0495 80.8309C72.4495 80.9309 69.4495 80.7309 67.9495 78.5309C68.7495 79.7309 69.5495 81.6309 74.5495 83.3309C76.8495 84.1309 76.2495 86.3309 73.4495 87.1309C72.0495 87.5309 70.2495 87.4309 68.8495 87.1309C66.5495 86.6309 63.4495 85.0309 62.9495 82.4309C62.8495 84.5309 63.9495 86.1309 65.5495 87.3309C66.4495 88.0309 67.8495 89.2309 67.0495 90.4309C65.7495 92.3309 62.2495 91.7309 59.8495 90.2309C57.6495 88.9309 56.1495 86.8309 55.8495 84.2309C56.0495 86.3309 56.1495 87.6309 57.0495 89.0309C57.5495 89.8309 58.1495 90.9309 57.9495 91.8309C57.6495 93.1309 56.3495 93.3309 55.2495 93.4309C53.3495 93.5309 51.0495 92.5309 50.0495 90.8309C48.9495 88.9309 49.4495 86.3309 49.4495 84.1309C49.1495 86.7309 47.0495 89.1309 44.9495 90.4309C42.4495 91.9309 38.9495 92.4309 37.7495 90.6309C36.9495 89.4309 38.2495 88.2309 39.2495 87.5309C40.7495 86.4309 42.0495 84.7309 41.8495 82.6309C41.3495 85.2309 38.2495 86.7309 35.9495 87.3309C34.5495 87.6309 32.7495 87.7309 31.3495 87.3309C28.5495 86.5309 27.9495 84.3309 30.2495 83.5309C35.2495 81.8309 36.0495 79.8309 36.8495 78.7309C35.4495 80.9309 32.3495 81.0309 29.7495 81.0309C28.3495 81.0309 26.8495 80.7309 25.8495 79.6309C25.3495 79.1309 25.1495 78.3309 25.4495 77.6309C26.3495 75.8309 29.6495 76.2309 32.0495 75.4309C34.6495 74.4309 36.7495 73.3309 38.1495 70.8309C39.5495 68.4309 39.9495 65.6309 39.6495 62.8309" fill="#00A79D"/>
<path d="M65.1495 62.6309C64.8495 65.3309 65.2495 68.2309 66.6495 70.6309C68.0495 73.1309 70.1495 74.3309 72.7495 75.2309C75.1495 76.1309 78.4495 75.7309 79.3495 77.4309C79.6495 78.0309 79.4495 78.8309 78.9495 79.4309C77.9495 80.5309 76.4495 80.7309 75.0495 80.8309C72.4495 80.9309 69.4495 80.7309 67.9495 78.5309C68.7495 79.7309 69.5495 81.6309 74.5495 83.3309C76.8495 84.1309 76.2495 86.3309 73.4495 87.1309C72.0495 87.5309 70.2495 87.4309 68.8495 87.1309C66.5495 86.6309 63.4495 85.0309 62.9495 82.4309C62.8495 84.5309 63.9495 86.1309 65.5495 87.3309C66.4495 88.0309 67.8495 89.2309 67.0495 90.4309C65.7495 92.3309 62.2495 91.7309 59.8495 90.2309C57.6495 88.9309 56.1495 86.8309 55.8495 84.2309C56.0495 86.3309 56.1495 87.6309 57.0495 89.0309C57.5495 89.8309 58.1495 90.9309 57.9495 91.8309C57.6495 93.1309 56.3495 93.3309 55.2495 93.4309C53.3495 93.5309 51.0495 92.5309 50.0495 90.8309C48.9495 88.9309 49.4495 86.3309 49.4495 84.1309C49.1495 86.7309 47.0495 89.1309 44.9495 90.4309C42.4495 91.9309 38.9495 92.4309 37.7495 90.6309C36.9495 89.4309 38.2495 88.2309 39.2495 87.5309C40.7495 86.4309 42.0495 84.7309 41.8495 82.6309C41.3495 85.2309 38.2495 86.7309 35.9495 87.3309C34.5495 87.6309 32.7495 87.7309 31.3495 87.3309C28.5495 86.5309 27.9495 84.3309 30.2495 83.5309C35.2495 81.8309 36.0495 79.8309 36.8495 78.7309C35.4495 80.9309 32.3495 81.0309 29.7495 81.0309C28.3495 81.0309 26.8495 80.7309 25.8495 79.6309C25.3495 79.1309 25.1495 78.3309 25.4495 77.6309C26.3495 75.8309 29.6495 76.2309 32.0495 75.4309C34.6495 74.4309 36.7495 73.3309 38.1495 70.8309C39.5495 68.4309 39.9495 65.6309 39.6495 62.8309" stroke="black" stroke-width="0.99" stroke-linecap="round" stroke-linejoin="round"/>
<path d="M87.1495 19.6296C87.9495 19.1296 88.3495 18.2296 88.3495 17.3296C88.3495 15.7296 87.0495 14.5296 85.5495 14.5296C84.0495 14.5296 82.7495 15.8296 82.7495 17.3296C82.7495 18.8296 84.0495 20.1296 85.5495 20.1296H85.7495C86.1495 22.9296 86.1495 27.3296 82.5495 29.7296C81.1495 30.6296 79.8495 31.2296 78.6495 31.5296C76.0495 27.7296 70.7495 12.9296 68.6495 10.6296C66.6495 8.42962 62.3495 8.52962 59.7495 9.72962C57.3495 10.8296 55.6495 12.2296 55.6495 14.7296C55.6495 16.1296 55.7495 17.7296 55.6495 19.1296C54.4495 19.0296 45.2495 22.0296 44.1495 21.7296C43.3495 21.5296 41.3495 16.6296 39.9495 15.1296C37.9495 12.9296 35.5495 12.2296 32.6495 11.9296C19.1495 10.3296 24.0495 24.7296 24.5495 25.9296C25.9495 29.2296 24.3495 32.7296 22.5495 35.9296C21.3495 35.8296 19.9495 35.4296 18.3495 34.8296C14.4495 33.1296 13.6495 28.7296 13.5495 25.9296H13.7495C15.2495 25.6296 16.3495 24.2296 16.0495 22.7296C15.7495 21.2296 14.3495 20.1296 12.8495 20.4296C11.3495 20.7296 10.2495 22.1296 10.5495 23.6296C10.7495 24.6296 11.3495 25.3296 12.1495 25.7296C12.0495 26.2296 11.9495 26.9296 11.9495 27.7296C11.8495 34.2296 15.7495 38.1296 20.9495 38.8296V38.9296C17.8495 44.9296 16.9495 52.2296 21.0495 57.8296C26.7495 65.4296 41.2495 69.0296 52.2495 68.3296C55.8495 68.1296 62.1495 67.3296 65.5495 66.3296C69.8495 65.0296 74.6495 62.9296 77.7495 59.8296C85.1495 52.5296 86.6495 41.6296 80.7495 34.2296C85.6495 32.6296 88.7495 28.1296 87.5495 21.8296C87.5495 20.7296 87.3495 20.1296 87.1495 19.6296Z" fill="#00A79D" stroke="black" stroke-width="0.99" stroke-linecap="round" stroke-linejoin="round"/>
<path d="M68.8496 33.4297C68.8496 33.4297 63.6496 41.7297 54.7496 42.4297C43.8496 43.3297 34.3496 37.5297 34.3496 37.5297C34.3496 37.5297 40.9496 55.4297 55.1496 53.8297C69.2496 52.1297 68.8496 33.4297 68.8496 33.4297Z" fill="white" stroke="black" stroke-width="0.99" stroke-linecap="round" stroke-linejoin="round"/>
<path d="M27.9494 13.1301C30.3494 10.8301 34.2494 9.93012 36.9494 12.3301C39.9494 15.1301 44.5494 10.6301 41.5494 7.73012C36.2494 2.83012 28.4494 3.73012 23.4494 8.53012C20.3494 11.4301 24.9494 16.0301 27.9494 13.1301Z" fill="black"/>
<path d="M27.1494 17.2312C27.1494 20.9312 30.5494 23.9313 34.6494 23.9313C38.7494 23.9313 42.1494 20.9312 42.1494 17.2312C42.1494 13.5312 38.7494 10.5312 34.6494 10.5312C30.5494 10.5312 27.1494 13.5312 27.1494 17.2312Z" fill="white" stroke="black" stroke-width="0.99"/>
<path d="M40.4494 17.2301C40.4494 14.7301 38.4494 12.8301 36.0494 12.8301C33.6494 12.8301 31.6494 14.8301 31.6494 17.2301C31.6494 19.6301 33.6494 21.6301 36.0494 21.6301C38.4494 21.7301 40.4494 19.7301 40.4494 17.2301Z" fill="black" stroke="black" stroke-width="0.99"/>
<path d="M39.0492 16.8313C39.0492 16.3313 38.6492 16.0312 38.2492 16.0312C37.8492 16.0312 37.4492 16.4313 37.4492 16.8313C37.4492 17.3313 37.8492 17.6313 38.2492 17.6313C38.6492 17.6313 39.0492 17.3313 39.0492 16.8313Z" fill="white"/>
<path d="M71.7499 3.8305C65.4499 1.0305 58.2499 2.7305 54.0499 8.2305C51.6499 11.3305 56.9499 14.4305 59.3499 11.3305C61.3499 8.6305 65.6499 7.7305 68.6499 9.0305C72.2499 10.6305 75.3499 5.4305 71.7499 3.8305Z" fill="black"/>
<path d="M58.6493 18.8305C52.3493 16.0305 45.1493 17.7305 40.9493 23.2305C38.5493 26.3305 43.8493 29.4305 46.2493 26.3305C48.2493 23.6305 52.5493 22.7305 55.5493 24.0305C59.1493 25.6305 62.2493 20.4305 58.6493 18.8305Z" fill="black"/>
<path d="M58.25 13.7312C58.25 17.4312 61.65 20.4312 65.75 20.4312C69.85 20.4312 73.25 17.4312 73.25 13.7312C73.25 10.0312 69.85 7.03125 65.75 7.03125C61.65 7.03125 58.25 10.0312 58.25 13.7312Z" fill="white" stroke="black" stroke-width="0.99"/>
<path d="M71.7492 13.7301C71.7492 11.2301 69.7492 9.33008 67.3492 9.33008C64.9492 9.33008 62.9492 11.3301 62.9492 13.7301C62.9492 16.1301 64.9492 18.1301 67.3492 18.1301C69.7492 18.2301 71.7492 16.2301 71.7492 13.7301Z" fill="black" stroke="black" stroke-width="0.99"/>
<path d="M70.8494 13.3313C70.8494 12.8313 70.4494 12.5312 69.9494 12.5312C69.4494 12.5312 69.1494 12.9313 69.1494 13.3313C69.1494 13.7313 69.5494 14.1313 69.9494 14.1313C70.4494 14.2313 70.8494 13.8313 70.8494 13.3313Z" fill="white"/>
<path d="M44.1494 29.2307C44.4494 32.9307 48.0494 35.6307 52.1494 35.3307C56.2494 35.0307 59.3494 31.7307 59.0494 28.0307C58.7494 24.3307 55.1494 21.5307 51.0494 21.9307C47.0494 22.2307 43.8494 25.5307 44.1494 29.2307Z" fill="white" stroke="black" stroke-width="0.99"/>
<path d="M57.6498 28.1301C57.4498 25.7301 55.3498 23.8301 52.8498 24.0301C50.4498 24.2301 48.5498 26.3301 48.7498 28.8301C48.9498 31.2301 51.0498 33.1301 53.5498 32.9301C55.9498 32.7301 57.7498 30.6301 57.6498 28.1301Z" fill="black" stroke="black" stroke-width="0.99"/>
<path d="M56.6492 27.8312C56.6492 27.3312 56.2492 27.0312 55.7492 27.0312C55.2492 27.0312 54.9492 27.4312 54.9492 27.9312C54.9492 28.4312 55.3492 28.7312 55.8492 28.7312C56.3492 28.7312 56.6492 28.3312 56.6492 27.8312Z" fill="white"/>
<path d="M48.6494 73.7305C48.6494 71.5305 50.4494 69.7305 52.6494 69.7305C54.8494 69.7305 56.6494 71.5305 56.6494 73.7305C56.6494 75.9305 54.8494 77.7305 52.6494 77.7305C50.4494 77.6305 48.6494 75.8305 48.6494 73.7305Z" fill="#ED1C24"/>
<path d="M52.6496 77.9301C50.2496 77.9301 48.3496 76.0301 48.3496 73.6301C48.3496 71.2301 50.2496 69.3301 52.6496 69.3301C55.0496 69.3301 56.9496 71.2301 56.9496 73.6301C56.9496 76.0301 55.0496 77.9301 52.6496 77.9301ZM52.6496 70.0301C50.6496 70.0301 49.0496 71.6301 49.0496 73.6301C49.0496 75.6301 50.6496 77.2301 52.6496 77.2301C54.6496 77.2301 56.2496 75.6301 56.2496 73.6301C56.2496 71.6301 54.6496 70.0301 52.6496 70.0301Z" fill="#F7941D"/>
<path d="M54.6498 71.7313C54.6498 71.9313 54.6498 72.1313 54.4498 72.3313C54.3498 72.4313 54.2498 72.5312 54.0498 72.5312H52.3498C52.2831 72.5312 52.2498 72.5646 52.2498 72.6312V73.3313H53.8498C54.0498 73.3313 54.1498 73.4312 54.2498 73.5312C54.3498 73.6313 54.3498 73.8312 54.3498 74.0312C54.3498 74.2313 54.3498 74.4312 54.2498 74.6312C54.1498 74.8312 54.0498 74.8313 53.8498 74.8313H52.2498V75.7313C52.2498 76.0313 52.2498 76.2313 52.0498 76.3313C51.9498 76.5313 51.7498 76.6312 51.5498 76.6312C51.3498 76.6312 51.2498 76.5313 51.1498 76.4313C51.0498 76.3313 51.0498 76.0313 51.0498 75.7313V72.0312C51.0498 71.4312 51.2498 71.0312 51.7498 71.0312H54.0498C54.2498 71.0312 54.3498 71.1313 54.4498 71.2313C54.5498 71.2313 54.6498 71.4313 54.6498 71.7313Z" fill="white"/>
<path d="M48.6498 42.5312L48.5498 46.1313H56.5498L55.8498 42.5312" stroke="black" stroke-width="0.99" stroke-linecap="round" stroke-linejoin="round"/>
<path d="M33.0492 68.1313C30.3492 67.0313 27.4492 65.1313 26.5492 62.3313C26.1492 60.9313 24.9492 56.4313 22.7492 57.2313C21.6492 57.6313 20.9492 59.8313 20.9492 60.8313" fill="#00A79D"/>
<path d="M33.0492 68.1313C30.3492 67.0313 27.4492 65.1313 26.5492 62.3313C26.1492 60.9313 24.9492 56.4313 22.7492 57.2313C21.6492 57.6313 20.9492 59.8313 20.9492 60.8313" stroke="black" stroke-width="0.99" stroke-linecap="round" stroke-linejoin="round"/>
<path d="M25.3491 50.0312C24.5491 49.8312 21.7491 46.4313 23.2491 46.0312C24.6491 45.6312 26.0491 45.5312 27.4491 45.5312C27.9491 47.0312 28.0491 48.6313 27.8491 50.1313C27.0491 50.3313 26.1491 50.2313 25.3491 50.0312Z" fill="#006664"/>
<path d="M27.6487 52.9321C27.7487 53.1321 27.9487 53.1321 28.0487 53.2321C28.8487 53.4321 29.6487 53.7321 30.4487 53.9321H30.6487C30.7487 53.9321 30.7487 53.8321 30.7487 53.7321C31.1487 52.7321 31.4487 51.7321 31.8487 50.7321C31.9487 50.5321 29.4487 50.5321 29.1487 50.6321C28.7487 50.8321 27.4487 52.2321 27.6487 52.9321Z" fill="#006664"/>
<path d="M30.9489 46.6307C30.9489 46.5307 29.1489 47.2307 29.0489 47.8307C28.7489 49.4307 30.2489 49.1307 30.9489 49.1307C30.9489 48.2307 31.0489 47.4307 30.9489 46.6307Z" fill="#006664"/>
<path d="M74.8498 52.7307C74.7498 52.9307 74.6498 53.2307 74.5498 53.4307C73.9498 55.7307 74.1498 56.0307 76.0498 57.5307C76.5498 57.2307 76.7498 56.7307 77.0498 56.2307C77.4498 55.4307 77.8498 54.7307 78.1498 53.9307C78.4498 53.0307 78.5498 52.9307 77.8498 52.4307C76.8498 51.9307 75.5498 51.7307 74.8498 52.7307Z" fill="#006664"/>
<path d="M74.4499 58.7309C74.7499 59.8309 69.3499 58.1309 71.2499 57.2309C71.9499 56.9309 72.7499 56.2309 73.4499 56.1309C73.8499 57.0309 74.2499 57.8309 74.4499 58.7309Z" fill="#006664"/>
</g>
<defs>
<clipPath id="clip0_403_399">
<rect width="78.84" height="91.43" fill="white" transform="translate(10 2.5)"/>
</clipPath>
</defs>
</svg>
