<svg width="100" height="100" viewBox="0 0 100 100" fill="none" xmlns="http://www.w3.org/2000/svg">
<g clip-path="url(#clip0_403_397)">
<path d="M42.6658 67.5645L27.3916 76.3086L28.1865 77.6972L43.4607 68.9531L42.6658 67.5645Z" fill="#808285" stroke="black" stroke-width="0.99" stroke-linecap="round" stroke-linejoin="round"/>
<path d="M41.7996 72.7594C43.8431 72.7594 45.4996 71.1028 45.4996 69.0594C45.4996 67.0159 43.8431 65.3594 41.7996 65.3594C39.7562 65.3594 38.0996 67.0159 38.0996 69.0594C38.0996 71.1028 39.7562 72.7594 41.7996 72.7594Z" fill="#A7A9AC" stroke="black" stroke-width="0.99" stroke-linecap="round" stroke-linejoin="round"/>
<path d="M33.0994 76.0602C34.3144 76.0602 35.2994 75.0752 35.2994 73.8602C35.2994 72.6451 34.3144 71.6602 33.0994 71.6602C31.8844 71.6602 30.8994 72.6451 30.8994 73.8602C30.8994 75.0752 31.8844 76.0602 33.0994 76.0602Z" fill="#A7A9AC" stroke="black" stroke-width="0.99" stroke-linecap="round" stroke-linejoin="round"/>
<path d="M23.1998 78.2594C23.2998 77.5594 23.7998 77.0594 24.4998 76.7594C25.4998 76.4594 26.5998 76.9594 26.9998 77.9594C27.2998 78.9594 26.7998 80.0594 25.7998 80.4594C25.0998 80.6594 24.3998 80.5594 23.8998 80.0594L21.8998 80.7594C22.8998 82.1594 24.6998 82.8594 26.3998 82.2594C28.3998 81.5594 29.4998 79.3594 28.7998 77.3594C28.0998 75.3594 25.8998 74.2594 23.8998 74.9594C22.1998 75.5594 21.1998 77.1594 21.2998 78.9594L23.1998 78.2594Z" fill="#ED1C24" stroke="black" stroke-width="0.99" stroke-linecap="round" stroke-linejoin="round"/>
<path d="M59.23 65.7892L58.4351 67.1777L73.7093 75.9218L74.5042 74.5332L59.23 65.7892Z" fill="#808285" stroke="black" stroke-width="0.99" stroke-linecap="round" stroke-linejoin="round"/>
<path d="M60.0999 71.0602C62.1434 71.0602 63.7999 69.4036 63.7999 67.3602C63.7999 65.3167 62.1434 63.6602 60.0999 63.6602C58.0564 63.6602 56.3999 65.3167 56.3999 67.3602C56.3999 69.4036 58.0564 71.0602 60.0999 71.0602Z" fill="#A7A9AC" stroke="black" stroke-width="0.99" stroke-linecap="round" stroke-linejoin="round"/>
<path d="M68.7 74.2594C69.915 74.2594 70.9 73.2744 70.9 72.0594C70.9 70.8443 69.915 69.8594 68.7 69.8594C67.485 69.8594 66.5 70.8443 66.5 72.0594C66.5 73.2744 67.485 74.2594 68.7 74.2594Z" fill="#A7A9AC" stroke="black" stroke-width="0.99" stroke-linecap="round" stroke-linejoin="round"/>
<path d="M78.7 76.4605C78.6 75.7605 78.1 75.2605 77.4 74.9605C76.4 74.6605 75.3 75.1605 74.9 76.1605C74.6 77.1605 75.1 78.2605 76.1 78.6605C76.8 78.8605 77.5 78.7605 78 78.2605L80 78.9605C79 80.3605 77.2 81.0605 75.5 80.4605C73.5 79.7605 72.4 77.5605 73.1 75.5605C73.8 73.5605 76 72.4605 78 73.1605C79.7 73.7605 80.7 75.3605 80.6 77.1605L78.7 76.4605Z" fill="#ED1C24" stroke="black" stroke-width="0.99" stroke-linecap="round" stroke-linejoin="round"/>
<path d="M21.5 37.0605L13.8 38.3605L12.5 50.4605L19.3 53.4605L21.5 37.0605Z" fill="#ED1C24" stroke="black" stroke-width="0.99" stroke-linecap="round" stroke-linejoin="round"/>
<path d="M77.5 32.7598H83.3L86.2 44.6598L79.8 48.5598L77.5 32.7598Z" fill="#ED1C24" stroke="black" stroke-width="0.99" stroke-linecap="round" stroke-linejoin="round"/>
<path d="M49.2 21.4602L45 17.1602L48.3 15.5602L45.6 13.9602L48.7 12.6602L46.3 10.6602" stroke="black" stroke-width="0.99" stroke-linecap="round" stroke-linejoin="round"/>
<path d="M45.8999 11.3594C47.0045 11.3594 47.8999 10.4639 47.8999 9.35938C47.8999 8.25481 47.0045 7.35938 45.8999 7.35938C44.7953 7.35938 43.8999 8.25481 43.8999 9.35938C43.8999 10.4639 44.7953 11.3594 45.8999 11.3594Z" fill="#FFF200" stroke="black" stroke-width="0.99" stroke-linecap="round" stroke-linejoin="round"/>
<path d="M43.0622 80.6252L42.0762 91.4805L47.952 92.0142L48.938 81.1589L43.0622 80.6252Z" fill="#A7A9AC" stroke="black" stroke-width="0.99" stroke-linecap="round" stroke-linejoin="round"/>
<path d="M41.7315 91.0533L41.4873 93.7422L48.2594 94.3573L48.5037 91.6684L41.7315 91.0533Z" fill="#808285" stroke="black" stroke-width="0.99" stroke-linecap="round" stroke-linejoin="round"/>
<path d="M59.2913 80.605L53.4155 81.1387L54.4015 91.994L60.2773 91.4603L59.2913 80.605Z" fill="#A7A9AC" stroke="black" stroke-width="0.99" stroke-linecap="round" stroke-linejoin="round"/>
<path d="M60.757 91.0431L53.9849 91.6582L54.2291 94.3471L61.0012 93.732L60.757 91.0431Z" fill="#808285" stroke="black" stroke-width="0.99" stroke-linecap="round" stroke-linejoin="round"/>
<path d="M43.3996 65.0598L58.5996 64.2598C59.0996 64.2598 59.4996 64.5598 59.4996 65.0598L60.6996 80.8598C60.6996 81.3598 60.3996 81.7598 59.8996 81.7598L43.5996 82.2598C43.0996 82.2598 42.6996 81.8598 42.6996 81.3598L42.5996 65.8598C42.5996 65.4598 42.8996 65.1598 43.3996 65.0598Z" fill="#A7A9AC" stroke="black" stroke-width="0.99" stroke-linecap="round" stroke-linejoin="round"/>
<path d="M57.4998 76.5598L52.3998 76.8598L52.2998 74.4598L57.4998 74.2598V76.5598Z" fill="#009444" stroke="black" stroke-width="0.99" stroke-linecap="round" stroke-linejoin="round"/>
<path d="M46.1998 77.1594C46.6969 77.1594 47.0998 76.7564 47.0998 76.2594C47.0998 75.7623 46.6969 75.3594 46.1998 75.3594C45.7027 75.3594 45.2998 75.7623 45.2998 76.2594C45.2998 76.7564 45.7027 77.1594 46.1998 77.1594Z" fill="#FFF200" stroke="black" stroke-width="0.99" stroke-linecap="round" stroke-linejoin="round"/>
<path d="M49.5997 77.0598C50.0968 77.0598 50.4997 76.6568 50.4997 76.1598C50.4997 75.6627 50.0968 75.2598 49.5997 75.2598C49.1026 75.2598 48.6997 75.6627 48.6997 76.1598C48.6997 76.6568 49.1026 77.0598 49.5997 77.0598Z" fill="#1C75BC" stroke="black" stroke-width="0.99" stroke-linecap="round" stroke-linejoin="round"/>
<path d="M51.6999 68.1602C48.1999 68.1602 46.0999 69.0602 44.8999 69.8602V73.0602L58.0999 72.7602L57.7999 69.2602C56.6999 68.7602 54.6999 68.2602 51.6999 68.1602Z" fill="white" stroke="black" stroke-width="0.99" stroke-linecap="round" stroke-linejoin="round"/>
<path d="M46.7998 69.4609L47.1998 70.5609" stroke="black" stroke-width="0.99" stroke-linecap="round" stroke-linejoin="round"/>
<path d="M51.6997 68.6602V69.9602" stroke="black" stroke-width="0.99" stroke-linecap="round" stroke-linejoin="round"/>
<path d="M56.2 68.9609L56 70.2609" stroke="black" stroke-width="0.99" stroke-linecap="round" stroke-linejoin="round"/>
<path d="M54.1 68.7598L54 70.0598" stroke="black" stroke-width="0.99" stroke-linecap="round" stroke-linejoin="round"/>
<path d="M51.2998 72.8594L49.2998 69.8594L50.1998 72.8594H51.2998Z" fill="#ED1C24" stroke="black" stroke-width="0.99" stroke-linecap="round" stroke-linejoin="round"/>
<path d="M66.0003 10.3599C64.0003 8.15986 59.9003 8.35986 57.3003 9.45986C55.0003 10.4599 53.3003 11.9599 53.3003 14.2599C53.3003 15.6599 53.4003 17.1599 53.3003 18.4599C52.2003 18.3599 43.2003 21.2599 42.2003 20.9599C41.4003 20.7599 39.5003 15.9599 38.2003 14.5599C36.2003 12.4599 34.0003 11.7599 31.1003 11.4599C18.0003 9.85986 22.8003 23.8599 23.3003 24.9599C25.0003 29.1599 21.7003 33.8599 19.8003 37.4599C16.8003 43.2599 16.0003 50.3599 20.0003 55.7599C25.5003 63.1599 39.5003 66.5599 50.3003 65.9599C53.8003 65.7599 59.9003 64.9599 63.2003 64.0599C67.4003 62.8599 72.0003 60.7599 75.0003 57.7599C82.8003 50.0599 83.9003 38.2599 76.3003 31.1599C74.0003 29.1599 68.3003 12.8599 66.0003 10.3599Z" fill="#A7A9AC" stroke="black" stroke-width="0.99" stroke-linecap="round" stroke-linejoin="round"/>
<path d="M25.9 14.5609C26.9 12.9609 28.4 11.8609 30.1 11.3609C31.6 10.9609 33 11.1609 34.3 11.8609C37.8 13.9609 40.9 8.56089 37.5 6.46089C31.5 2.86089 24.1 5.76089 20.6 11.3609C18.3 14.8609 23.7 17.9609 25.9 14.5609Z" fill="black"/>
<path d="M25.7998 16.9595C25.7998 20.5595 28.9998 23.4595 33.0998 23.4595C37.1998 23.4595 40.2998 20.5595 40.2998 16.9595C40.2998 13.3595 37.0998 10.4595 33.0998 10.4595C28.9998 10.3595 25.7998 13.2595 25.7998 16.9595Z" fill="white" stroke="black" stroke-width="0.99" stroke-linecap="round" stroke-linejoin="round"/>
<path d="M38.6996 16.8605C38.6996 14.4605 36.7996 12.5605 34.3996 12.5605C31.9996 12.5605 30.0996 14.4605 30.0996 16.8605C30.0996 19.2605 31.9996 21.1605 34.3996 21.1605C36.7996 21.1605 38.6996 19.2605 38.6996 16.8605Z" fill="black" stroke="black" stroke-width="0.99" stroke-linecap="round" stroke-linejoin="round"/>
<path d="M37.3002 16.4602C37.3002 15.9602 36.9002 15.6602 36.5002 15.6602C36.1002 15.6602 35.7002 16.0602 35.7002 16.4602C35.7002 16.8602 36.1002 17.2602 36.5002 17.2602C36.9002 17.3602 37.3002 16.9602 37.3002 16.4602Z" fill="white"/>
<path d="M70.0002 4.56004C64.8002 1.26004 57.3002 1.96004 53.0002 6.46004C50.3002 9.16004 54.5002 13.36 57.2002 10.66C59.7002 8.06004 64.0002 7.76004 67.0002 9.76004C70.2002 11.66 73.2002 6.56004 70.0002 4.56004Z" fill="black"/>
<path d="M56 13.4609C56 17.0609 59.2 19.9609 63.2 19.9609C67.2 19.9609 70.5 17.0609 70.5 13.4609C70.5 9.86094 67.3 6.96094 63.2 6.96094C59.1 6.96094 56 9.86094 56 13.4609Z" fill="white" stroke="black" stroke-width="0.99" stroke-linecap="round" stroke-linejoin="round"/>
<path d="M68.9999 13.4602C68.9999 11.0602 67.0999 9.16016 64.6999 9.16016C62.2999 9.16016 60.3999 11.0602 60.3999 13.4602C60.3999 15.8602 62.2999 17.7602 64.6999 17.7602C67.0999 17.7602 68.9999 15.8602 68.9999 13.4602Z" fill="black" stroke="black" stroke-width="0.99" stroke-linecap="round" stroke-linejoin="round"/>
<path d="M68.1 13.0598C68.1 12.5598 67.7 12.2598 67.3 12.2598C66.9 12.2598 66.5 12.6598 66.5 13.0598C66.5 13.5598 66.9 13.8598 67.3 13.8598C67.7 13.9598 68.1 13.5598 68.1 13.0598Z" fill="white"/>
<path d="M37.2002 45.2609L66.6002 42.4609L67.1002 49.5609L37.7002 52.5609L37.2002 45.2609Z" fill="white" stroke="black" stroke-width="0.99" stroke-linecap="round" stroke-linejoin="round"/>
</g>
<defs>
<clipPath id="clip0_403_397">
<rect width="74.69" height="92.35" fill="white" transform="translate(12 2.5)"/>
</clipPath>
</defs>
</svg>
