<svg width="100" height="100" viewBox="0 0 100 100" fill="none" xmlns="http://www.w3.org/2000/svg">
<g clip-path="url(#clip0_499_2042)">
<mask id="mask0_499_2042" style="mask-type:luminance" maskUnits="userSpaceOnUse" x="36" y="79" width="28" height="21">
<path d="M36.877 79.8145H63.1243V99.2492H36.877V79.8145Z" fill="white"/>
</mask>
<g mask="url(#mask0_499_2042)">
<path d="M63.1243 99.2349L36.877 99.2292L40.6815 79.8828L59.2349 79.8885L63.1243 99.2349Z" fill="#81B2B7"/>
</g>
<path d="M40.6309 72.5957L59.3759 72.6014L56.0858 81.1441L44.3105 81.1384L40.6309 72.5957Z" fill="#81B2B7"/>
<path d="M40.6309 65.3086L59.3781 65.3143L56.0858 73.857H44.3127L40.6309 65.3086Z" fill="#81B2B7"/>
<path d="M40.6309 58.0234L59.3781 58.0291L56.0882 66.5718L44.3127 66.5661L40.6309 58.0234Z" fill="#81B2B7"/>
<path d="M40.6328 50.7363L59.3803 50.7409L56.0878 59.2852L44.3149 59.2796L40.6328 50.7363Z" fill="#81B2B7"/>
<path d="M40.6328 43.4512L59.3819 43.4536L56.0878 51.9968L44.3149 51.9944L40.6328 43.4512Z" fill="#81B2B7"/>
<path d="M40.6328 36.166H59.3819L56.0878 44.7093L44.3149 44.7071L40.6328 36.166Z" fill="#81B2B7"/>
<path d="M40.6348 28.877L59.3817 28.8794L56.09 37.4202H44.3169L40.6348 28.877Z" fill="#81B2B7"/>
<path d="M40.6367 21.5918L59.3837 21.5964L56.0895 30.1391L44.3167 30.135L40.6367 21.5918Z" fill="#81B2B7"/>
<path d="M55.8671 22.5959L44.1523 22.5943V19.5781L55.8695 19.5803L55.8671 22.5959Z" fill="#81B2B7"/>
<path d="M51.4184 20.5878H48.6035V10.7891H51.4206L51.4184 20.5878Z" fill="#81B2B7"/>
<path d="M54.0875 16.5665H45.932L45.0898 13.8027L54.9342 13.8052L54.0875 16.5665Z" fill="#81B2B7"/>
<path d="M54.0126 10.9116C54.0126 11.3398 53.3707 11.6786 52.5815 11.6786H47.4399C46.6508 11.6786 46.0156 11.3352 46.0156 10.9116C46.0156 10.4896 46.6508 10.1465 47.4399 10.1465L52.5815 10.1486C53.3707 10.1486 54.0126 10.4896 54.0126 10.9116Z" fill="#1B6379"/>
<path d="M50.7131 10.7878C50.7131 10.9972 50.3987 11.1647 50.0112 11.1647C49.6187 11.1647 49.3066 10.9972 49.3066 10.7878V0.736259C49.3066 0.526879 49.6233 0.359375 50.0112 0.359375C50.4008 0.359375 50.7153 0.526879 50.7153 0.736529L50.7131 10.7878Z" fill="#1B6379"/>
<path d="M45.5137 89.5377H54.4959V88.8926H45.5137V89.5377Z" fill="#DFDEE1"/>
<path d="M59.4374 80.5397H40.5098L40.7037 79.8945H59.4374V80.5397Z" fill="#DFDEE1"/>
<path d="M59.6047 81.8351H40.3047L40.4652 81.127L59.5466 81.1556L59.6047 81.8351Z" fill="#DFDEE1"/>
<path d="M45.5137 90.9147H54.4959V90.2695H45.5137V90.9147Z" fill="#DFDEE1"/>
<path d="M45.5137 92.2919H54.4959V91.6465H45.5137V92.2919Z" fill="#DFDEE1"/>
<path d="M45.5137 93.661H54.4959V93.0215H45.5137V93.661Z" fill="#DFDEE1"/>
<path d="M45.5137 95.0379H54.4959V94.3984H45.5137V95.0379Z" fill="#DFDEE1"/>
<path d="M45.5137 96.4184H54.4959V95.7676H45.5137V96.4184Z" fill="#DFDEE1"/>
<path d="M45.5137 97.7899H54.4959V97.1504H45.5137V97.7899Z" fill="#DFDEE1"/>
<path d="M45.5137 99.1669H54.4959V98.5215H45.5137V99.1669Z" fill="#DFDEE1"/>
<path d="M54.8195 81.6925C54.8195 83.1201 52.6622 84.2734 50.0054 84.2734C47.3467 84.2734 45.1953 83.1201 45.1953 81.6925C45.1953 80.2706 47.3467 79.1113 50.0054 79.1113C52.6622 79.1113 54.8195 80.2706 54.8195 81.6925Z" fill="#DFDEE1"/>
<path d="M53.6939 81.675C53.6939 82.7716 52.0419 83.651 50.0048 83.651C47.9696 83.651 46.3184 82.7716 46.3184 81.675C46.3184 80.5843 47.9696 79.6992 50.0048 79.6992C52.0419 79.6992 53.6939 80.5843 53.6939 81.675Z" fill="#81B2B7"/>
<path d="M48.3044 72.4923C48.3244 72.4752 48.3511 72.4639 48.3779 72.4466C48.6232 72.3153 48.9906 72.2696 49.3164 72.2353C49.907 72.1726 50.5176 72.1554 51.102 72.2353C51.3827 72.2696 51.6971 72.3096 51.9287 72.4066C52.2048 72.5209 52.2272 72.7435 51.8328 72.8178C51.5099 72.8805 51.1241 72.7778 50.8075 72.7265C50.4195 72.6752 50.0097 72.6292 49.6196 72.7035C49.2475 72.7722 48.9552 72.8978 48.5427 72.8178C48.2398 72.7608 48.1639 72.6122 48.3044 72.4923Z" fill="#DFDEE1"/>
<path d="M48.3044 65.1447C48.3244 65.1274 48.3511 65.1104 48.3779 65.099C48.6232 64.9677 48.9906 64.9218 49.3164 64.8878C49.907 64.8248 50.5176 64.8078 51.102 64.8878C51.3827 64.9278 51.6971 64.9677 51.9287 65.0591C52.2048 65.179 52.2272 65.396 51.8328 65.4702C51.5099 65.5329 51.1241 65.4303 50.8075 65.3843C50.4195 65.3273 50.0097 65.2817 49.6196 65.356C49.2475 65.4243 48.9552 65.5499 48.5427 65.4759C48.2398 65.4186 48.1639 65.2703 48.3044 65.1447Z" fill="#DFDEE1"/>
<path d="M48.3044 58.0568C48.3244 58.0395 48.3511 58.0225 48.3779 58.0052C48.6232 57.8796 48.9906 57.8339 49.3164 57.7999C49.907 57.7369 50.5176 57.7199 51.102 57.7999C51.3827 57.8396 51.6971 57.8796 51.9287 57.9712C52.2048 58.0852 52.2272 58.3081 51.8328 58.3821C51.5099 58.445 51.1241 58.3421 50.8075 58.2964C50.4195 58.2394 50.0097 58.1938 49.6196 58.2681C49.2475 58.3364 48.9552 58.4621 48.5427 58.3821C48.2398 58.3308 48.1639 58.1765 48.3044 58.0568Z" fill="#DFDEE1"/>
<path d="M48.3044 50.9059C48.3244 50.8851 48.3511 50.8721 48.3779 50.8567C48.6232 50.727 48.9906 50.6778 49.3164 50.6465C49.907 50.5865 50.5176 50.5665 51.102 50.6465C51.3827 50.6849 51.6971 50.7248 51.9287 50.8183C52.2048 50.9342 52.2272 51.1531 51.8328 51.229C51.5099 51.2911 51.1241 51.1866 50.8075 51.1423C50.4195 51.0885 50.0097 51.0393 49.6196 51.1131C49.2475 51.1798 48.9552 51.3071 48.5427 51.2336C48.2398 51.1752 48.1639 51.0264 48.3044 50.9059Z" fill="#DFDEE1"/>
<path d="M48.3044 43.6883C48.3244 43.6683 48.3511 43.6524 48.3779 43.637C48.6232 43.5098 48.9906 43.4611 49.3164 43.4298C49.907 43.3668 50.5176 43.3514 51.102 43.4319C51.3827 43.4673 51.6971 43.5079 51.9287 43.6016C52.2048 43.7151 52.2272 43.938 51.8328 44.0115C51.5099 44.0744 51.1241 43.9715 50.8075 43.9247C50.4195 43.8688 50.0097 43.8242 49.6196 43.898C49.2475 43.9647 48.9552 44.0898 48.5427 44.016C48.2398 43.9585 48.1639 43.8088 48.3044 43.6883Z" fill="#DFDEE1"/>
<path d="M48.3044 36.4693C48.3244 36.4493 48.3511 36.436 48.3779 36.4201C48.6232 36.2909 48.9906 36.242 49.3164 36.2104C49.907 36.1529 50.5176 36.1345 51.102 36.2104C51.3827 36.251 51.6971 36.2888 51.9287 36.3847C52.2048 36.496 52.2272 36.7194 51.8328 36.7929C51.5099 36.8553 51.1241 36.7524 50.8075 36.7057C50.4195 36.6503 50.0097 36.6079 49.6196 36.677C49.2475 36.7462 48.9552 36.8729 48.5427 36.7954C48.2398 36.7392 48.1639 36.5873 48.3044 36.4693Z" fill="#DFDEE1"/>
<path d="M48.3044 28.9298C48.3244 28.9098 48.3511 28.8944 48.3779 28.8768C48.6232 28.7496 48.9906 28.7004 49.3164 28.6691C49.907 28.6091 50.5176 28.5913 51.102 28.6691C51.3827 28.7072 51.6971 28.7472 51.9287 28.8431C52.2048 28.9568 52.2272 29.1754 51.8328 29.2537C51.5099 29.3137 51.1241 29.2108 50.8075 29.164C50.4195 29.1086 50.0097 29.0665 49.6196 29.1378C49.2475 29.2045 48.9552 29.3337 48.5427 29.2559C48.2398 29.2 48.1639 29.046 48.3044 28.9298Z" fill="#DFDEE1"/>
<path d="M42.959 22.7759H45.1184V22.2363H42.959V22.7759Z" fill="#1B6379"/>
<path d="M46.0137 22.7759H48.1756V22.2363H46.0137V22.7759Z" fill="#1B6379"/>
<path d="M49.0664 22.7759H51.2286V22.2363H49.0664V22.7759Z" fill="#1B6379"/>
<path d="M52.1191 22.7759H54.2832V22.2363H52.1191V22.7759Z" fill="#1B6379"/>
<path d="M55.1738 22.7759H57.3381V22.2363H55.1738V22.7759Z" fill="#1B6379"/>
<path d="M42.959 24.4463H45.1184V23.9062H42.959V24.4463Z" fill="#1B6379"/>
<path d="M46.0137 24.4463H48.1756V23.9062H46.0137V24.4463Z" fill="#1B6379"/>
<path d="M49.0664 24.4463H51.2286V23.9062H49.0664V24.4463Z" fill="#1B6379"/>
<path d="M52.1191 24.4463H54.2832V23.9062H52.1191V24.4463Z" fill="#1B6379"/>
<path d="M55.1738 24.4463H57.3381V23.9062H55.1738V24.4463Z" fill="#1B6379"/>
<path d="M42.959 25.9534H45.1184V25.416H42.959V25.9534Z" fill="#1B6379"/>
<path d="M46.0137 25.9534H48.1756V25.416H46.0137V25.9534Z" fill="#1B6379"/>
<path d="M49.0664 25.9534H51.2286V25.416H49.0664V25.9534Z" fill="#1B6379"/>
<path d="M52.1191 25.9534H54.2832V25.416H52.1191V25.9534Z" fill="#1B6379"/>
<path d="M55.1738 25.9534H57.3381V25.416H55.1738V25.9534Z" fill="#1B6379"/>
<path d="M43.7109 27.573H45.1191V27.0332H43.7109V27.573Z" fill="#1B6379"/>
<path d="M46.0137 27.573H48.1756V27.0332H46.0137V27.573Z" fill="#1B6379"/>
<path d="M49.0664 27.573H51.2286V27.0332H49.0664V27.573Z" fill="#1B6379"/>
<path d="M52.1191 27.573H54.2832V27.0332H52.1191V27.573Z" fill="#1B6379"/>
<path d="M55.1738 27.573H56.4914V27.0332H55.1738V27.573Z" fill="#1B6379"/>
<path d="M42.959 30.6453H45.1184V30.1055H42.959V30.6453Z" fill="#1B6379"/>
<path d="M46.0137 30.6453H48.1756V30.1055H46.0137V30.6453Z" fill="#1B6379"/>
<path d="M49.0664 30.6453H51.2286V30.1055H49.0664V30.6453Z" fill="#1B6379"/>
<path d="M52.1191 30.6453H54.2832V30.1055H52.1191V30.6453Z" fill="#1B6379"/>
<path d="M55.1738 30.6453H57.3381V30.1055H55.1738V30.6453Z" fill="#1B6379"/>
<path d="M42.959 32.3149H45.1184V31.7754H42.959V32.3149Z" fill="#1B6379"/>
<path d="M46.0137 32.3149H48.1756V31.7754H46.0137V32.3149Z" fill="#1B6379"/>
<path d="M49.0664 32.3149H51.2286V31.7754H49.0664V32.3149Z" fill="#1B6379"/>
<path d="M52.1191 32.3149H54.2832V31.7754H52.1191V32.3149Z" fill="#1B6379"/>
<path d="M55.1738 32.3149H57.3381V31.7754H55.1738V32.3149Z" fill="#1B6379"/>
<path d="M43.3359 33.825H45.3846V33.2852H43.3359V33.825Z" fill="#1B6379"/>
<path d="M46.2285 33.825H48.2764V33.2852H46.2285V33.825Z" fill="#1B6379"/>
<path d="M49.125 33.825H51.1734V33.2852H49.125V33.825Z" fill="#1B6379"/>
<path d="M52.0156 33.825H54.064V33.2852H52.0156V33.825Z" fill="#1B6379"/>
<path d="M54.9102 33.825H56.9586V33.2852H54.9102V33.825Z" fill="#1B6379"/>
<path d="M43.7109 35.4427H45.1191V34.9023H43.7109V35.4427Z" fill="#1B6379"/>
<path d="M46.0137 35.4427H48.1756V34.9023H46.0137V35.4427Z" fill="#1B6379"/>
<path d="M49.0664 35.4427H51.2286V34.9023H49.0664V35.4427Z" fill="#1B6379"/>
<path d="M52.1191 35.4427H54.2832V34.9023H52.1191V35.4427Z" fill="#1B6379"/>
<path d="M55.1738 35.4427H56.4914V34.9023H55.1738V35.4427Z" fill="#1B6379"/>
<path d="M42.959 37.5303H45.1184V36.9902H42.959V37.5303Z" fill="#1B6379"/>
<path d="M46.0137 37.5303H48.1756V36.9902H46.0137V37.5303Z" fill="#1B6379"/>
<path d="M49.0664 37.5303H51.2286V36.9902H49.0664V37.5303Z" fill="#1B6379"/>
<path d="M52.1191 37.5303H54.2832V36.9902H52.1191V37.5303Z" fill="#1B6379"/>
<path d="M55.1738 37.5303H57.3381V36.9902H55.1738V37.5303Z" fill="#1B6379"/>
<path d="M42.959 39.202H45.1184V38.6641H42.959V39.202Z" fill="#1B6379"/>
<path d="M46.0137 39.202H48.1756V38.6641H46.0137V39.202Z" fill="#1B6379"/>
<path d="M49.0664 39.202H51.2286V38.6641H49.0664V39.202Z" fill="#1B6379"/>
<path d="M52.1191 39.202H54.2832V38.6641H52.1191V39.202Z" fill="#1B6379"/>
<path d="M55.1738 39.202H57.3381V38.6641H55.1738V39.202Z" fill="#1B6379"/>
<path d="M43.3359 40.7092H45.3846V40.1719H43.3359V40.7092Z" fill="#1B6379"/>
<path d="M46.2285 40.7092H48.2764V40.1719H46.2285V40.7092Z" fill="#1B6379"/>
<path d="M49.125 40.7092H51.1734V40.1719H49.125V40.7092Z" fill="#1B6379"/>
<path d="M52.0156 40.7092H54.064V40.1719H52.0156V40.7092Z" fill="#1B6379"/>
<path d="M54.9102 40.7092H56.9586V40.1719H54.9102V40.7092Z" fill="#1B6379"/>
<path d="M43.7109 42.3312H45.1191V41.7871H43.7109V42.3312Z" fill="#1B6379"/>
<path d="M46.0137 42.3312H48.1756V41.7871H46.0137V42.3312Z" fill="#1B6379"/>
<path d="M49.0664 42.3312H51.2286V41.7871H49.0664V42.3312Z" fill="#1B6379"/>
<path d="M52.1191 42.3312H54.2832V41.7871H52.1191V42.3312Z" fill="#1B6379"/>
<path d="M55.1738 42.3312H56.4914V41.7871H55.1738V42.3312Z" fill="#1B6379"/>
<path d="M45.1209 45.1982H42.959V44.6562L45.1209 44.6587V45.1982Z" fill="#1B6379"/>
<path d="M46.0137 45.1997H48.1756V44.6602H46.0137V45.1997Z" fill="#1B6379"/>
<path d="M49.0664 45.1997H51.2286V44.6602H49.0664V45.1997Z" fill="#1B6379"/>
<path d="M52.1191 45.1997H54.2832V44.6602H52.1191V45.1997Z" fill="#1B6379"/>
<path d="M57.3357 45.1997H55.1738V44.6602H57.3357V45.1997Z" fill="#1B6379"/>
<path d="M42.959 46.8674H45.1184V46.3301H42.959V46.8674Z" fill="#1B6379"/>
<path d="M46.0137 46.8674H48.1756V46.3301H46.0137V46.8674Z" fill="#1B6379"/>
<path d="M49.0664 46.8674H51.2286V46.3301H49.0664V46.8674Z" fill="#1B6379"/>
<path d="M52.1191 46.8689H54.2832V46.334H52.1191V46.8689Z" fill="#1B6379"/>
<path d="M57.3357 46.8713L55.1738 46.8689V46.334H57.3357V46.8713Z" fill="#1B6379"/>
<path d="M45.3822 48.3777H43.3359V47.8379L45.3822 47.8398V48.3777Z" fill="#1B6379"/>
<path d="M48.2764 48.3799L46.2285 48.3777V47.8398H48.2764V48.3799Z" fill="#1B6379"/>
<path d="M49.125 48.3799H51.1734V47.8398H49.125V48.3799Z" fill="#1B6379"/>
<path d="M52.0156 48.3817H54.064V47.8438H52.0156V48.3817Z" fill="#1B6379"/>
<path d="M54.9102 48.3817H56.9586V47.8438H54.9102V48.3817Z" fill="#1B6379"/>
<path d="M43.7109 49.9946H45.1191V49.4551H43.7109V49.9946Z" fill="#1B6379"/>
<path d="M46.0137 49.9946H48.1756V49.4551H46.0137V49.9946Z" fill="#1B6379"/>
<path d="M49.0664 49.997H51.2286V49.4551H49.0664V49.997Z" fill="#1B6379"/>
<path d="M52.1191 49.997H54.2832V49.4551H52.1191V49.997Z" fill="#1B6379"/>
<path d="M56.4914 49.997H55.1738V49.4551L56.4914 49.4567V49.997Z" fill="#1B6379"/>
<path d="M45.1184 52.206H42.959V51.6641L45.1209 51.6665L45.1184 52.206Z" fill="#1B6379"/>
<path d="M48.1734 52.2055H46.0137V51.666H48.1756L48.1734 52.2055Z" fill="#1B6379"/>
<path d="M51.2286 52.2055H49.0664V51.666H51.2286V52.2055Z" fill="#1B6379"/>
<path d="M54.281 52.2053H52.1191V51.668H54.2832L54.281 52.2053Z" fill="#1B6379"/>
<path d="M57.3357 52.2053H55.1738V51.668H57.3357V52.2053Z" fill="#1B6379"/>
<path d="M45.1184 53.8763H42.959V53.3359H45.1184V53.8763Z" fill="#1B6379"/>
<path d="M46.0137 53.8763H48.1734V53.3359H46.0137V53.8763Z" fill="#1B6379"/>
<path d="M49.0664 53.8784H51.2286V53.3359H49.0664V53.8784Z" fill="#1B6379"/>
<path d="M52.1191 53.878H54.281V53.3379H52.1191V53.878Z" fill="#1B6379"/>
<path d="M55.1738 53.878H57.3357V53.3379H55.1738V53.878Z" fill="#1B6379"/>
<path d="M45.3824 55.3857H43.334V54.8438L45.3824 54.8462V55.3857Z" fill="#1B6379"/>
<path d="M46.2285 55.3872H48.2764V54.8477H46.2285V55.3872Z" fill="#1B6379"/>
<path d="M49.123 55.3872H51.1715V54.8477H49.123V55.3872Z" fill="#1B6379"/>
<path d="M52.0156 55.3872H54.064V54.8477H52.0156V55.3872Z" fill="#1B6379"/>
<path d="M56.9586 55.3896L54.9102 55.3872V54.8477H56.9586V55.3896Z" fill="#1B6379"/>
<path d="M43.7109 57.0044H45.1191V56.4648H43.7109V57.0044Z" fill="#1B6379"/>
<path d="M48.1734 57.0044H46.0137V56.4648H48.1734V57.0044Z" fill="#1B6379"/>
<path d="M49.0664 57.0044H51.2286V56.4648H49.0664V57.0044Z" fill="#1B6379"/>
<path d="M52.1191 57.0044H54.281V56.4648H52.1191V57.0044Z" fill="#1B6379"/>
<path d="M56.489 57.0065L55.1738 57.0044V56.4648L56.489 56.4694V57.0065Z" fill="#1B6379"/>
<path d="M45.1184 59.2671H42.959V58.7246H45.1209L45.1184 59.2671Z" fill="#1B6379"/>
<path d="M48.1734 59.2671H46.0137V58.7246H48.1756L48.1734 59.2671Z" fill="#1B6379"/>
<path d="M51.2286 59.2671H49.0664V58.7246H51.2286V59.2671Z" fill="#1B6379"/>
<path d="M54.281 59.2671H52.1191V58.7246H54.2832L54.281 59.2671Z" fill="#1B6379"/>
<path d="M57.3357 59.2671H55.1738V58.7246L57.3357 58.7303V59.2671Z" fill="#1B6379"/>
<path d="M42.959 60.935H45.1184V60.3984H42.959V60.935Z" fill="#1B6379"/>
<path d="M48.1734 60.935H46.0137V60.3984H48.1734V60.935Z" fill="#1B6379"/>
<path d="M49.0664 60.935H51.2286V60.3984H49.0664V60.935Z" fill="#1B6379"/>
<path d="M52.1191 60.935H54.281V60.3984H52.1191V60.935Z" fill="#1B6379"/>
<path d="M57.3357 60.9407L55.1738 60.935V60.3984H57.3357V60.9407Z" fill="#1B6379"/>
<path d="M43.334 62.4485H45.3824V61.9062H43.334V62.4485Z" fill="#1B6379"/>
<path d="M48.2764 62.4485H46.2285V61.9062L48.2764 61.9119V62.4485Z" fill="#1B6379"/>
<path d="M49.123 62.4487H51.1715V61.9121H49.123V62.4487Z" fill="#1B6379"/>
<path d="M52.0156 62.4487H54.064V61.9121H52.0156V62.4487Z" fill="#1B6379"/>
<path d="M56.9586 62.4487H54.9102V61.9121H56.9586V62.4487Z" fill="#1B6379"/>
<path d="M45.1191 64.064H43.7109V63.5215H45.1191V64.064Z" fill="#1B6379"/>
<path d="M48.1734 64.064H46.0137V63.5215L48.1734 63.5272V64.064Z" fill="#1B6379"/>
<path d="M49.0664 64.0642H51.2286V63.5273H49.0664V64.0642Z" fill="#1B6379"/>
<path d="M52.1191 64.0642H54.281V63.5273H52.1191V64.0642Z" fill="#1B6379"/>
<path d="M56.489 64.0642H55.1738V63.5273H56.489V64.0642Z" fill="#1B6379"/>
<path d="M45.1184 66.8179H42.959V66.2754H45.1209L45.1184 66.8179Z" fill="#1B6379"/>
<path d="M48.1734 66.8179H46.0137V66.2754H48.1756L48.1734 66.8179Z" fill="#1B6379"/>
<path d="M51.2286 66.8179H49.0664V66.2754H51.2286V66.8179Z" fill="#1B6379"/>
<path d="M54.281 66.8179H52.1191V66.2754H54.2832L54.281 66.8179Z" fill="#1B6379"/>
<path d="M57.3357 66.8179H55.1738V66.2754L57.3357 66.2811V66.8179Z" fill="#1B6379"/>
<path d="M45.1184 68.4841H42.959V67.9473H45.1184V68.4841Z" fill="#1B6379"/>
<path d="M46.0137 68.4841H48.1734V67.9473H46.0137V68.4841Z" fill="#1B6379"/>
<path d="M49.0664 68.4841H51.2286V67.9473H49.0664V68.4841Z" fill="#1B6379"/>
<path d="M52.1191 68.4841H54.281V67.9473H52.1191V68.4841Z" fill="#1B6379"/>
<path d="M57.3357 68.4841H55.1738V67.9473H57.3357V68.4841Z" fill="#1F4865"/>
<path d="M45.3824 69.9976L43.334 69.9916V69.4551H45.3824V69.9976Z" fill="#1B6379"/>
<path d="M48.2764 69.9976H46.2285V69.4551H48.2764V69.9976Z" fill="#1B6379"/>
<path d="M49.123 69.9976H51.1715V69.4551H49.123V69.9976Z" fill="#1B6379"/>
<path d="M52.0156 69.9976H54.064V69.4551H52.0156V69.9976Z" fill="#1B6379"/>
<path d="M56.9586 69.9976H54.9102V69.4551H56.9586V69.9976Z" fill="#1B6379"/>
<path d="M45.1191 71.6071H43.7109V71.0703L45.1191 71.076V71.6071Z" fill="#1B6379"/>
<path d="M46.0137 71.6071H48.1734V71.0703H46.0137V71.6071Z" fill="#1B6379"/>
<path d="M49.0664 71.6071H51.2286V71.0703H49.0664V71.6071Z" fill="#1B6379"/>
<path d="M52.1191 71.613H54.281V71.0762H52.1191V71.613Z" fill="#1B6379"/>
<path d="M55.1738 71.613H56.489V71.0762H55.1738V71.613Z" fill="#1B6379"/>
<path d="M45.1184 74.0349H42.959V73.498H45.1209L45.1184 74.0349Z" fill="#1B6379"/>
<path d="M48.1734 74.0349H46.0137V73.498H48.1756L48.1734 74.0349Z" fill="#1B6379"/>
<path d="M51.2286 74.0349H49.0664V73.498H51.2286V74.0349Z" fill="#1B6379"/>
<path d="M54.281 74.0349H52.1191V73.498H54.2832L54.281 74.0349Z" fill="#1B6379"/>
<path d="M57.3357 74.0405L55.1738 74.0349V73.498H57.3357V74.0405Z" fill="#1B6379"/>
<path d="M42.959 75.7087H45.1184V75.1719H42.959V75.7087Z" fill="#1B6379"/>
<path d="M48.1734 75.7087H46.0137V75.1719H48.1734V75.7087Z" fill="#1B6379"/>
<path d="M49.0664 75.7087H51.2286V75.1719H49.0664V75.7087Z" fill="#1B6379"/>
<path d="M52.1191 75.7087H54.281V75.1719H52.1191V75.7087Z" fill="#1B6379"/>
<path d="M57.3357 75.7087H55.1738V75.1719H57.3357V75.7087Z" fill="#1B6379"/>
<path d="M45.3824 77.2146H43.334V76.6777H45.3824V77.2146Z" fill="#1B6379"/>
<path d="M48.2764 77.2146H46.2285V76.6777H48.2764V77.2146Z" fill="#1B6379"/>
<path d="M49.123 77.2146H51.1715V76.6777H49.123V77.2146Z" fill="#1B6379"/>
<path d="M52.0156 77.2146H54.064V76.6777H52.0156V77.2146Z" fill="#1B6379"/>
<path d="M56.9586 77.2202L54.9102 77.2146V76.6777H56.9586V77.2202Z" fill="#1B6379"/>
<path d="M45.1191 78.8374L43.7109 78.8315V78.2949H45.1191V78.8374Z" fill="#1B6379"/>
<path d="M48.1734 78.8374H46.0137V78.2949H48.1734V78.8374Z" fill="#1B6379"/>
<path d="M49.0664 78.8374H51.2286V78.2949H49.0664V78.8374Z" fill="#1B6379"/>
<path d="M52.1191 78.8374H54.281V78.2949H52.1191V78.8374Z" fill="#1B6379"/>
<path d="M56.489 78.8374H55.1738V78.2949H56.489V78.8374Z" fill="#1B6379"/>
<path d="M38.3574 99.235H43.147V98.5898H38.3574V99.235Z" fill="#1B6379"/>
<path d="M38.3574 98.2643H43.147V97.6191H38.3574V98.2643Z" fill="#1B6379"/>
<path d="M38.3574 97.2936H43.147V96.6484H38.3574V97.2936Z" fill="#1B6379"/>
<path d="M38.3574 96.3229H43.147V95.6777H38.3574V96.3229Z" fill="#1B6379"/>
<path d="M38.3574 95.3581H43.147V94.707H38.3574V95.3581Z" fill="#1B6379"/>
<path d="M38.3574 94.3798H43.147V93.7344H38.3574V94.3798Z" fill="#1B6379"/>
<path d="M38.3574 93.4167H43.147V92.7656H38.3574V93.4167Z" fill="#1B6379"/>
<path d="M38.6367 92.4381H43.1455V91.793H38.6367V92.4381Z" fill="#1B6379"/>
<path d="M39.1055 91.4752H43.1464V90.8301H39.1055V91.4752Z" fill="#1B6379"/>
<path d="M39.4824 90.5026H43.1464V89.8574H39.4824V90.5026Z" fill="#1B6379"/>
<path d="M39.8594 89.5338H43.1468V88.8887H39.8594V89.5338Z" fill="#1B6379"/>
<path d="M40.3301 88.5614H43.1471V87.916H40.3301V88.5614Z" fill="#1B6379"/>
<path d="M56.6777 99.235H61.4681V98.5898H56.6777V99.235Z" fill="#1B6379"/>
<path d="M56.6777 98.2643H61.4681V97.6191H56.6777V98.2643Z" fill="#1B6379"/>
<path d="M56.6777 97.2936H61.4681V96.6484H56.6777V97.2936Z" fill="#1B6379"/>
<path d="M56.6777 96.3229H61.4681V95.6777H56.6777V96.3229Z" fill="#1B6379"/>
<path d="M56.6777 95.3581H61.4681V94.707H56.6777V95.3581Z" fill="#1B6379"/>
<path d="M56.6777 94.3798H61.4681V93.7344H56.6777V94.3798Z" fill="#1B6379"/>
<path d="M56.6777 93.4167H61.4681V92.7656H56.6777V93.4167Z" fill="#1B6379"/>
<path d="M56.6777 92.4381H61.1866V91.793H56.6777V92.4381Z" fill="#1B6379"/>
<path d="M56.6777 91.4752H60.7165V90.8301H56.6777V91.4752Z" fill="#1B6379"/>
<path d="M56.6777 90.5026H60.3423V89.8574H56.6777V90.5026Z" fill="#1B6379"/>
<path d="M56.6777 89.5338H59.9678V88.8887H56.6777V89.5338Z" fill="#1B6379"/>
<path d="M56.6777 88.5614H59.4953V87.916H56.6777V88.5614Z" fill="#1B6379"/>
<path d="M44.0879 88.6242H55.7383V88.4473H44.0879V88.6242Z" fill="#1F4865"/>
<path d="M43.6191 87.7632H55.5508V87.5859H43.6191V87.7632Z" fill="#1F4865"/>
<path d="M44.9336 21.3542H55.3623V21.1777H44.9336V21.3542Z" fill="#1F4865"/>
</g>
<mask id="path-222-outside-1_499_2042" maskUnits="userSpaceOnUse" x="17" y="86" width="63" height="13" fill="black">
<rect fill="white" x="17" y="86" width="63" height="13"/>
<path d="M18.6719 89.9858V88.2727H26.0483V89.9858H23.402V97H21.3224V89.9858H18.6719ZM27.8764 97H25.6094L28.554 88.2727H31.3622L34.3068 97H32.0398L29.9901 90.4716H29.9219L27.8764 97ZM27.5739 93.5653H32.3125V95.1676H27.5739V93.5653ZM37.3558 88.2727V97H35.2464V88.2727H37.3558ZM38.68 97V88.2727H42.2852C42.9386 88.2727 43.5025 88.4006 43.9769 88.6562C44.4542 88.9091 44.8221 89.2628 45.0806 89.7173C45.3391 90.169 45.4684 90.6946 45.4684 91.294C45.4684 91.8963 45.3363 92.4233 45.0721 92.875C44.8107 93.3239 44.4371 93.6719 43.9513 93.919C43.4656 94.1662 42.8888 94.2898 42.2212 94.2898H39.9968V92.6278H41.8292C42.1474 92.6278 42.413 92.5724 42.6261 92.4616C42.842 92.3509 43.0053 92.196 43.1161 91.9972C43.2269 91.7955 43.2823 91.5611 43.2823 91.294C43.2823 91.0241 43.2269 90.7912 43.1161 90.5952C43.0053 90.3963 42.842 90.2429 42.6261 90.1349C42.4102 90.027 42.1445 89.973 41.8292 89.973H40.7894V97H38.68ZM46.5082 97V88.2727H52.5934V89.9858H48.6175V91.7756H52.2823V93.4929H48.6175V95.2869H52.5934V97H46.5082ZM56.0238 88.2727V97H53.9144V88.2727H56.0238ZM63.9446 88.2727V97H61.8395V90.2415H61.7884L59.8366 91.4347V89.6108L61.9886 88.2727H63.9446ZM69.4833 97.2131C68.7219 97.2131 68.0657 97.0327 67.5146 96.6719C66.9634 96.3082 66.5387 95.7869 66.2404 95.108C65.9421 94.4261 65.7944 93.6065 65.7972 92.6491C65.8001 91.6918 65.9492 90.8793 66.2447 90.2116C66.543 89.5412 66.9663 89.0312 67.5146 88.6818C68.0657 88.3295 68.7219 88.1534 69.4833 88.1534C70.2447 88.1534 70.9009 88.3295 71.4521 88.6818C72.006 89.0312 72.4322 89.5412 72.7305 90.2116C73.0288 90.8821 73.1765 91.6946 73.1737 92.6491C73.1737 93.6094 73.0245 94.4304 72.7262 95.1122C72.4279 95.794 72.0032 96.3153 71.4521 96.6761C70.9038 97.0341 70.2475 97.2131 69.4833 97.2131ZM69.4833 95.4872C69.9379 95.4872 70.3058 95.2557 70.587 94.7926C70.8683 94.3267 71.0075 93.6122 71.0046 92.6491C71.0046 92.0185 70.9407 91.4986 70.8129 91.0895C70.685 90.6776 70.5075 90.3707 70.2802 90.169C70.0529 89.9673 69.7873 89.8665 69.4833 89.8665C69.0316 89.8665 68.6665 90.0952 68.3881 90.5526C68.1097 91.0071 67.9691 91.706 67.9663 92.6491C67.9634 93.2884 68.0245 93.8182 68.1495 94.2386C68.2773 94.6591 68.4563 94.973 68.6864 95.1804C68.9165 95.3849 69.1822 95.4872 69.4833 95.4872ZM78.4173 88.2727V97H76.3121V90.2415H76.261L74.3093 91.4347V89.6108L76.4613 88.2727H78.4173Z"/>
</mask>
<path d="M18.6719 89.9858V88.2727H26.0483V89.9858H23.402V97H21.3224V89.9858H18.6719ZM27.8764 97H25.6094L28.554 88.2727H31.3622L34.3068 97H32.0398L29.9901 90.4716H29.9219L27.8764 97ZM27.5739 93.5653H32.3125V95.1676H27.5739V93.5653ZM37.3558 88.2727V97H35.2464V88.2727H37.3558ZM38.68 97V88.2727H42.2852C42.9386 88.2727 43.5025 88.4006 43.9769 88.6562C44.4542 88.9091 44.8221 89.2628 45.0806 89.7173C45.3391 90.169 45.4684 90.6946 45.4684 91.294C45.4684 91.8963 45.3363 92.4233 45.0721 92.875C44.8107 93.3239 44.4371 93.6719 43.9513 93.919C43.4656 94.1662 42.8888 94.2898 42.2212 94.2898H39.9968V92.6278H41.8292C42.1474 92.6278 42.413 92.5724 42.6261 92.4616C42.842 92.3509 43.0053 92.196 43.1161 91.9972C43.2269 91.7955 43.2823 91.5611 43.2823 91.294C43.2823 91.0241 43.2269 90.7912 43.1161 90.5952C43.0053 90.3963 42.842 90.2429 42.6261 90.1349C42.4102 90.027 42.1445 89.973 41.8292 89.973H40.7894V97H38.68ZM46.5082 97V88.2727H52.5934V89.9858H48.6175V91.7756H52.2823V93.4929H48.6175V95.2869H52.5934V97H46.5082ZM56.0238 88.2727V97H53.9144V88.2727H56.0238ZM63.9446 88.2727V97H61.8395V90.2415H61.7884L59.8366 91.4347V89.6108L61.9886 88.2727H63.9446ZM69.4833 97.2131C68.7219 97.2131 68.0657 97.0327 67.5146 96.6719C66.9634 96.3082 66.5387 95.7869 66.2404 95.108C65.9421 94.4261 65.7944 93.6065 65.7972 92.6491C65.8001 91.6918 65.9492 90.8793 66.2447 90.2116C66.543 89.5412 66.9663 89.0312 67.5146 88.6818C68.0657 88.3295 68.7219 88.1534 69.4833 88.1534C70.2447 88.1534 70.9009 88.3295 71.4521 88.6818C72.006 89.0312 72.4322 89.5412 72.7305 90.2116C73.0288 90.8821 73.1765 91.6946 73.1737 92.6491C73.1737 93.6094 73.0245 94.4304 72.7262 95.1122C72.4279 95.794 72.0032 96.3153 71.4521 96.6761C70.9038 97.0341 70.2475 97.2131 69.4833 97.2131ZM69.4833 95.4872C69.9379 95.4872 70.3058 95.2557 70.587 94.7926C70.8683 94.3267 71.0075 93.6122 71.0046 92.6491C71.0046 92.0185 70.9407 91.4986 70.8129 91.0895C70.685 90.6776 70.5075 90.3707 70.2802 90.169C70.0529 89.9673 69.7873 89.8665 69.4833 89.8665C69.0316 89.8665 68.6665 90.0952 68.3881 90.5526C68.1097 91.0071 67.9691 91.706 67.9663 92.6491C67.9634 93.2884 68.0245 93.8182 68.1495 94.2386C68.2773 94.6591 68.4563 94.973 68.6864 95.1804C68.9165 95.3849 69.1822 95.4872 69.4833 95.4872ZM78.4173 88.2727V97H76.3121V90.2415H76.261L74.3093 91.4347V89.6108L76.4613 88.2727H78.4173Z" fill="black"/>
<path d="M18.6719 89.9858H17.1719V91.4858H18.6719V89.9858ZM18.6719 88.2727V86.7727H17.1719V88.2727H18.6719ZM26.0483 88.2727H27.5483V86.7727H26.0483V88.2727ZM26.0483 89.9858V91.4858H27.5483V89.9858H26.0483ZM23.402 89.9858V88.4858H21.902V89.9858H23.402ZM23.402 97V98.5H24.902V97H23.402ZM21.3224 97H19.8224V98.5H21.3224V97ZM21.3224 89.9858H22.8224V88.4858H21.3224V89.9858ZM20.1719 89.9858V88.2727H17.1719V89.9858H20.1719ZM18.6719 89.7727H26.0483V86.7727H18.6719V89.7727ZM24.5483 88.2727V89.9858H27.5483V88.2727H24.5483ZM26.0483 88.4858H23.402V91.4858H26.0483V88.4858ZM21.902 89.9858V97H24.902V89.9858H21.902ZM23.402 95.5H21.3224V98.5H23.402V95.5ZM22.8224 97V89.9858H19.8224V97H22.8224ZM21.3224 88.4858H18.6719V91.4858H21.3224V88.4858ZM27.8764 97V98.5H28.9783L29.3078 97.4485L27.8764 97ZM25.6094 97L24.1881 96.5205L23.5202 98.5H25.6094V97ZM28.554 88.2727V86.7727H27.477L27.1327 87.7932L28.554 88.2727ZM31.3622 88.2727L32.7835 87.7932L32.4392 86.7727H31.3622V88.2727ZM34.3068 97V98.5H36.396L35.7281 96.5205L34.3068 97ZM32.0398 97L30.6087 97.4493L30.9385 98.5H32.0398V97ZM29.9901 90.4716L31.4212 90.0223L31.0913 88.9716H29.9901V90.4716ZM29.9219 90.4716V88.9716H28.8199L28.4905 90.0231L29.9219 90.4716ZM27.5739 93.5653V92.0653H26.0739V93.5653H27.5739ZM32.3125 93.5653H33.8125V92.0653H32.3125V93.5653ZM32.3125 95.1676V96.6676H33.8125V95.1676H32.3125ZM27.5739 95.1676H26.0739V96.6676H27.5739V95.1676ZM27.8764 95.5H25.6094V98.5H27.8764V95.5ZM27.0307 97.4795L29.9753 88.7523L27.1327 87.7932L24.1881 96.5205L27.0307 97.4795ZM28.554 89.7727H31.3622V86.7727H28.554V89.7727ZM29.9409 88.7523L32.8855 97.4795L35.7281 96.5205L32.7835 87.7932L29.9409 88.7523ZM34.3068 95.5H32.0398V98.5H34.3068V95.5ZM33.4709 96.5507L31.4212 90.0223L28.5589 90.9209L30.6087 97.4493L33.4709 96.5507ZM29.9901 88.9716H29.9219V91.9716H29.9901V88.9716ZM28.4905 90.0231L26.445 96.5515L29.3078 97.4485L31.3533 90.9201L28.4905 90.0231ZM27.5739 95.0653H32.3125V92.0653H27.5739V95.0653ZM30.8125 93.5653V95.1676H33.8125V93.5653H30.8125ZM32.3125 93.6676H27.5739V96.6676H32.3125V93.6676ZM29.0739 95.1676V93.5653H26.0739V95.1676H29.0739ZM37.3558 88.2727H38.8558V86.7727H37.3558V88.2727ZM37.3558 97V98.5H38.8558V97H37.3558ZM35.2464 97H33.7464V98.5H35.2464V97ZM35.2464 88.2727V86.7727H33.7464V88.2727H35.2464ZM35.8558 88.2727V97H38.8558V88.2727H35.8558ZM37.3558 95.5H35.2464V98.5H37.3558V95.5ZM36.7464 97V88.2727H33.7464V97H36.7464ZM35.2464 89.7727H37.3558V86.7727H35.2464V89.7727ZM38.68 97H37.18V98.5H38.68V97ZM38.68 88.2727V86.7727H37.18V88.2727H38.68ZM43.9769 88.6562L43.2653 89.9767L43.2747 89.9817L43.9769 88.6562ZM45.0806 89.7173L43.7767 90.4589L43.7787 90.4624L45.0806 89.7173ZM45.0721 92.875L43.7773 92.1177L43.7758 92.1202L45.0721 92.875ZM43.9513 93.919L44.6315 95.256L44.6315 95.256L43.9513 93.919ZM39.9968 94.2898H38.4968V95.7898H39.9968V94.2898ZM39.9968 92.6278V91.1278H38.4968V92.6278H39.9968ZM42.6261 92.4616L41.9412 91.1271L41.934 91.1308L42.6261 92.4616ZM43.1161 91.9972L44.4265 92.7272L44.4308 92.7193L43.1161 91.9972ZM43.1161 90.5952L41.8057 91.3252L41.8103 91.3333L43.1161 90.5952ZM42.6261 90.1349L41.9552 91.4766L41.9552 91.4766L42.6261 90.1349ZM40.7894 89.973V88.473H39.2894V89.973H40.7894ZM40.7894 97V98.5H42.2894V97H40.7894ZM40.18 97V88.2727H37.18V97H40.18ZM38.68 89.7727H42.2852V86.7727H38.68V89.7727ZM42.2852 89.7727C42.7425 89.7727 43.0514 89.8614 43.2653 89.9767L44.6885 87.3358C43.9536 86.9397 43.1346 86.7727 42.2852 86.7727V89.7727ZM43.2747 89.9817C43.5087 90.1057 43.664 90.2607 43.7767 90.4589L46.3845 88.9758C45.9802 88.2649 45.3996 87.7125 44.6791 87.3308L43.2747 89.9817ZM43.7787 90.4624C43.8888 90.6548 43.9684 90.9158 43.9684 91.294H46.9684C46.9684 90.4734 46.7894 89.6833 46.3825 88.9722L43.7787 90.4624ZM43.9684 91.294C43.9684 91.6709 43.8879 91.9285 43.7773 92.1177L46.3669 93.6323C46.7847 92.918 46.9684 92.1217 46.9684 91.294H43.9684ZM43.7758 92.1202C43.6669 92.3072 43.5132 92.459 43.2712 92.5821L44.6315 95.256C45.361 94.8848 45.9545 94.3405 46.3684 93.6298L43.7758 92.1202ZM43.2712 92.5821C43.0382 92.7006 42.7048 92.7898 42.2212 92.7898V95.7898C43.0729 95.7898 43.8929 95.6318 44.6315 95.256L43.2712 92.5821ZM42.2212 92.7898H39.9968V95.7898H42.2212V92.7898ZM41.4968 94.2898V92.6278H38.4968V94.2898H41.4968ZM39.9968 94.1278H41.8292V91.1278H39.9968V94.1278ZM41.8292 94.1278C42.3131 94.1278 42.8333 94.0446 43.3181 93.7925L41.934 91.1308C41.9638 91.1153 41.9764 91.1146 41.9608 91.1179C41.9442 91.1213 41.9025 91.1278 41.8292 91.1278V94.1278ZM43.3109 93.7962C43.7722 93.5595 44.1618 93.2023 44.4265 92.7272L41.8058 91.2671C41.8236 91.2351 41.8485 91.2023 41.8786 91.1737C41.9081 91.1458 41.9323 91.1317 41.9412 91.1271L43.3109 93.7962ZM44.4308 92.7193C44.6814 92.2631 44.7823 91.7728 44.7823 91.294H41.7823C41.7823 91.3238 41.7792 91.3324 41.781 91.3251C41.7818 91.3215 41.7837 91.3147 41.7872 91.3056C41.7907 91.2964 41.7954 91.286 41.8014 91.275L44.4308 92.7193ZM44.7823 91.294C44.7823 90.8168 44.6831 90.3191 44.422 89.8571L41.8103 91.3333C41.7922 91.3012 41.7843 91.2757 41.7815 91.2639C41.779 91.2534 41.7823 91.2614 41.7823 91.294H44.7823ZM44.4265 89.8651C44.1598 89.3864 43.7654 89.0276 43.2969 88.7933L41.9552 91.4766C41.9431 91.4705 41.9159 91.4546 41.8837 91.4244C41.8509 91.3936 41.8244 91.3586 41.8058 91.3252L44.4265 89.8651ZM43.2969 88.7933C42.8189 88.5543 42.3087 88.473 41.8292 88.473V91.473C41.9803 91.473 42.0014 91.4997 41.9552 91.4766L43.2969 88.7933ZM41.8292 88.473H40.7894V91.473H41.8292V88.473ZM39.2894 89.973V97H42.2894V89.973H39.2894ZM40.7894 95.5H38.68V98.5H40.7894V95.5ZM46.5082 97H45.0082V98.5H46.5082V97ZM46.5082 88.2727V86.7727H45.0082V88.2727H46.5082ZM52.5934 88.2727H54.0934V86.7727H52.5934V88.2727ZM52.5934 89.9858V91.4858H54.0934V89.9858H52.5934ZM48.6175 89.9858V88.4858H47.1175V89.9858H48.6175ZM48.6175 91.7756H47.1175V93.2756H48.6175V91.7756ZM52.2823 91.7756H53.7823V90.2756H52.2823V91.7756ZM52.2823 93.4929V94.9929H53.7823V93.4929H52.2823ZM48.6175 93.4929V91.9929H47.1175V93.4929H48.6175ZM48.6175 95.2869H47.1175V96.7869H48.6175V95.2869ZM52.5934 95.2869H54.0934V93.7869H52.5934V95.2869ZM52.5934 97V98.5H54.0934V97H52.5934ZM48.0082 97V88.2727H45.0082V97H48.0082ZM46.5082 89.7727H52.5934V86.7727H46.5082V89.7727ZM51.0934 88.2727V89.9858H54.0934V88.2727H51.0934ZM52.5934 88.4858H48.6175V91.4858H52.5934V88.4858ZM47.1175 89.9858V91.7756H50.1175V89.9858H47.1175ZM48.6175 93.2756H52.2823V90.2756H48.6175V93.2756ZM50.7823 91.7756V93.4929H53.7823V91.7756H50.7823ZM52.2823 91.9929H48.6175V94.9929H52.2823V91.9929ZM47.1175 93.4929V95.2869H50.1175V93.4929H47.1175ZM48.6175 96.7869H52.5934V93.7869H48.6175V96.7869ZM51.0934 95.2869V97H54.0934V95.2869H51.0934ZM52.5934 95.5H46.5082V98.5H52.5934V95.5ZM56.0238 88.2727H57.5238V86.7727H56.0238V88.2727ZM56.0238 97V98.5H57.5238V97H56.0238ZM53.9144 97H52.4144V98.5H53.9144V97ZM53.9144 88.2727V86.7727H52.4144V88.2727H53.9144ZM54.5238 88.2727V97H57.5238V88.2727H54.5238ZM56.0238 95.5H53.9144V98.5H56.0238V95.5ZM55.4144 97V88.2727H52.4144V97H55.4144ZM53.9144 89.7727H56.0238V86.7727H53.9144V89.7727ZM63.9446 88.2727H65.4446V86.7727H63.9446V88.2727ZM63.9446 97V98.5H65.4446V97H63.9446ZM61.8395 97H60.3395V98.5H61.8395V97ZM61.8395 90.2415H63.3395V88.7415H61.8395V90.2415ZM61.7884 90.2415V88.7415H61.3662L61.006 88.9617L61.7884 90.2415ZM59.8366 91.4347H58.3366V94.1098L60.619 92.7144L59.8366 91.4347ZM59.8366 89.6108L59.0446 88.337L58.3366 88.7772V89.6108H59.8366ZM61.9886 88.2727V86.7727H61.5603L61.1966 86.9989L61.9886 88.2727ZM62.4446 88.2727V97H65.4446V88.2727H62.4446ZM63.9446 95.5H61.8395V98.5H63.9446V95.5ZM63.3395 97V90.2415H60.3395V97H63.3395ZM61.8395 88.7415H61.7884V91.7415H61.8395V88.7415ZM61.006 88.9617L59.0542 90.1549L60.619 92.7144L62.5708 91.5213L61.006 88.9617ZM61.3366 91.4347V89.6108H58.3366V91.4347H61.3366ZM60.6287 90.8846L62.7807 89.5466L61.1966 86.9989L59.0446 88.337L60.6287 90.8846ZM61.9886 89.7727H63.9446V86.7727H61.9886V89.7727ZM67.5146 96.6719L66.6885 97.9239L66.693 97.9269L67.5146 96.6719ZM66.2404 95.108L64.8662 95.7092L64.8671 95.7113L66.2404 95.108ZM65.7972 92.6491L64.2972 92.6447L64.2972 92.6447L65.7972 92.6491ZM66.2447 90.2116L64.8742 89.6019L64.873 89.6046L66.2447 90.2116ZM67.5146 88.6818L68.3207 89.9468L68.3224 89.9457L67.5146 88.6818ZM71.4521 88.6818L70.6442 89.9457L70.6518 89.9505L71.4521 88.6818ZM72.7305 90.2116L74.1009 89.6019L74.1009 89.6019L72.7305 90.2116ZM73.1737 92.6491L71.6737 92.6447V92.6491H73.1737ZM72.7262 95.1122L71.352 94.511L71.352 94.511L72.7262 95.1122ZM71.4521 96.6761L72.2721 97.9322L72.2736 97.9311L71.4521 96.6761ZM70.587 94.7926L71.8691 95.5713L71.8712 95.5678L70.587 94.7926ZM71.0046 92.6491L69.5046 92.6491L69.5046 92.6536L71.0046 92.6491ZM70.8129 91.0895L69.3803 91.5341L69.3811 91.5369L70.8129 91.0895ZM70.2802 90.169L71.2759 89.0471L71.2759 89.0471L70.2802 90.169ZM68.3881 90.5526L69.6673 91.336L69.6694 91.3325L68.3881 90.5526ZM67.9663 92.6491L69.4663 92.6558L69.4663 92.6537L67.9663 92.6491ZM68.1495 94.2386L66.7117 94.6661L66.7144 94.675L68.1495 94.2386ZM68.6864 95.1804L67.6822 96.2947L67.6899 96.3015L68.6864 95.1804ZM69.4833 95.7131C68.9672 95.7131 68.6068 95.5941 68.3361 95.4169L66.693 97.9269C67.5246 98.4713 68.4767 98.7131 69.4833 98.7131V95.7131ZM68.3406 95.4198C68.0595 95.2343 67.8106 94.9528 67.6137 94.5046L64.8671 95.7113C65.2668 96.6211 65.8674 97.3822 66.6885 97.9239L68.3406 95.4198ZM67.6146 94.5067C67.4202 94.0622 67.2948 93.4599 67.2972 92.6536L64.2972 92.6447C64.2939 93.7532 64.4641 94.7901 64.8662 95.7092L67.6146 94.5067ZM67.2972 92.6536C67.2996 91.8422 67.4267 91.2472 67.6164 90.8187L64.873 89.6046C64.4717 90.5113 64.3005 91.5414 64.2972 92.6447L67.2972 92.6536ZM67.6152 90.8214C67.8096 90.3842 68.0518 90.1181 68.3207 89.9468L66.7084 87.4169C65.8807 87.9444 65.2763 88.6981 64.8742 89.6019L67.6152 90.8214ZM68.3224 89.9457C68.5949 89.7715 68.9604 89.6534 69.4833 89.6534V86.6534C68.4835 86.6534 67.5365 86.8876 66.7067 87.4179L68.3224 89.9457ZM69.4833 89.6534C70.0063 89.6534 70.3717 89.7715 70.6442 89.9457L72.2599 87.4179C71.4301 86.8876 70.4831 86.6534 69.4833 86.6534V89.6534ZM70.6518 89.9505C70.9251 90.1229 71.1673 90.3883 71.36 90.8214L74.1009 89.6019C73.697 88.694 73.087 87.9396 72.2523 87.4131L70.6518 89.9505ZM71.36 90.8214C71.5506 91.2497 71.676 91.8408 71.6737 92.6447L74.6736 92.6536C74.6769 91.5484 74.507 90.5145 74.1009 89.6019L71.36 90.8214ZM71.6737 92.6491C71.6737 93.46 71.547 94.0652 71.352 94.511L74.1004 95.7134C74.502 94.7956 74.6737 93.7587 74.6737 92.6491H71.6737ZM71.352 94.511C71.1548 94.9616 70.9071 95.2401 70.6305 95.4211L72.2736 97.9311C73.0993 97.3906 73.701 96.6265 74.1004 95.7134L71.352 94.511ZM70.6321 95.4201C70.3661 95.5937 70.006 95.7131 69.4833 95.7131V98.7131C70.489 98.7131 71.4414 98.4745 72.2721 97.9322L70.6321 95.4201ZM69.4833 96.9872C70.5698 96.9872 71.377 96.3815 71.8691 95.5713L69.3049 94.0139C69.256 94.0945 69.2457 94.079 69.3012 94.0441C69.3288 94.0266 69.3634 94.0107 69.4015 93.9999C69.4392 93.9893 69.4683 93.9872 69.4833 93.9872V96.9872ZM71.8712 95.5678C72.3661 94.7479 72.5077 93.699 72.5046 92.6447L69.5046 92.6536C69.5072 93.5254 69.3704 93.9055 69.3028 94.0174L71.8712 95.5678ZM72.5046 92.6491C72.5046 91.9312 72.4336 91.2468 72.2446 90.6421L69.3811 91.5369C69.4478 91.7503 69.5046 92.1057 69.5046 92.6491H72.5046ZM72.2455 90.6449C72.0688 90.0756 71.7763 89.4913 71.2759 89.0471L69.2845 91.2909C69.26 91.2692 69.2641 91.2646 69.2855 91.3017C69.3077 91.3401 69.3427 91.4129 69.3803 91.5341L72.2455 90.6449ZM71.2759 89.0471C70.774 88.6018 70.1541 88.3665 69.4833 88.3665V91.3665C69.4662 91.3665 69.4269 91.363 69.3781 91.3444C69.3292 91.3259 69.2975 91.3024 69.2845 91.2909L71.2759 89.0471ZM69.4833 88.3665C68.4035 88.3665 67.5982 88.9654 67.1068 89.7726L69.6694 91.3325C69.7162 91.2556 69.7244 91.2733 69.6671 91.3092C69.6386 91.327 69.6036 91.3431 69.5652 91.3538C69.5274 91.3644 69.4982 91.3665 69.4833 91.3665V88.3665ZM67.109 89.7691C66.6144 90.5766 66.4694 91.6101 66.4663 92.6446L69.4663 92.6537C69.4688 91.8018 69.605 91.4376 69.6673 91.336L67.109 89.7691ZM66.4663 92.6425C66.4631 93.3679 66.5305 94.0564 66.7117 94.6661L69.5873 93.8112C69.5186 93.5799 69.4638 93.2088 69.4662 92.6558L66.4663 92.6425ZM66.7144 94.675C66.89 95.2527 67.1818 95.8437 67.6822 96.2947L69.6906 94.0661C69.7123 94.0856 69.7059 94.0871 69.6827 94.0465C69.6589 94.0046 69.6228 93.9278 69.5846 93.8023L66.7144 94.675ZM67.6899 96.3015C68.1878 96.7441 68.8058 96.9872 69.4833 96.9872V93.9872C69.5062 93.9872 69.5482 93.9918 69.5972 94.0107C69.6457 94.0293 69.6745 94.0518 69.683 94.0593L67.6899 96.3015ZM78.4173 88.2727H79.9173V86.7727H78.4173V88.2727ZM78.4173 97V98.5H79.9173V97H78.4173ZM76.3121 97H74.8121V98.5H76.3121V97ZM76.3121 90.2415H77.8121V88.7415H76.3121V90.2415ZM76.261 90.2415V88.7415H75.8388L75.4786 88.9617L76.261 90.2415ZM74.3093 91.4347H72.8093V94.1098L75.0917 92.7144L74.3093 91.4347ZM74.3093 89.6108L73.5173 88.337L72.8093 88.7772V89.6108H74.3093ZM76.4613 88.2727V86.7727H76.033L75.6692 86.9989L76.4613 88.2727ZM76.9173 88.2727V97H79.9173V88.2727H76.9173ZM78.4173 95.5H76.3121V98.5H78.4173V95.5ZM77.8121 97V90.2415H74.8121V97H77.8121ZM76.3121 88.7415H76.261V91.7415H76.3121V88.7415ZM75.4786 88.9617L73.5269 90.1549L75.0917 92.7144L77.0434 91.5213L75.4786 88.9617ZM75.8093 91.4347V89.6108H72.8093V91.4347H75.8093ZM75.1014 90.8846L77.2533 89.5466L75.6692 86.9989L73.5173 88.337L75.1014 90.8846ZM76.4613 89.7727H78.4173V86.7727H76.4613V89.7727Z" fill="white" mask="url(#path-222-outside-1_499_2042)"/>
<defs>
<clipPath id="clip0_499_2042">
<rect width="56.022" height="99.5946" fill="white" transform="translate(22)"/>
</clipPath>
</defs>
</svg>
