<svg xmlns="http://www.w3.org/2000/svg" version="1.0" viewBox="0 0 75 75">
  <defs>
    <clipPath id="a">
      <path d="M20 0h7v11h-7Zm0 0"/>
    </clipPath>
    <clipPath id="b">
      <path d="M22.8 0s2 4.1 0 5.5c0 0 .2-1.6-.8-2.5 0 2.5-1.5 2.8-1.5 5 0 1.5 1.1 2.4 1.2 2.4l1.6.3s3-.8 3-4C26.3 2 22.8.1 22.8.1Zm0 0"/>
    </clipPath>
    <clipPath id="d">
      <path d="M18.5 10h38.2v59H18.5Zm0 0"/>
    </clipPath>
    <clipPath id="e">
      <path d="m48.4 61.3-1.7-5.5.5-2-1-2.6.2-.7-.1-1 .9-1.5-.4-1.8 9.8-.8-9.7-.7s0-.7-.2-1.1l7.4-3.4-8.2 1.8-.7-.8 5-6.4-6.6 5.2-1.5-.5-1.4-7.4-1 7.3c-.7.1-1.2.3-1.8.6l-6.6-5.2 5 6.4-.7.7-6.7-1.5-.1-2.7c-.2-1.7-1.3-5.8-1.3-5.8l-.5-6.2.5-1.8v-2.8l-.7-1.3c-.3-.4-.6-1.5-.6-1.5l-.7-.5.2-1.8h.4v-1.7H28V10h-9.3v4.1h2.1v1.2l-.4-.4-.8.7 1.1 2-.5 1 .6.6-.3.7.6.8-.6.9.7 2.3c.2.5 1 1.2 1 1.2v3.5h.5l-.4 9.5c0 2.2 1.1 4 1.1 4l.3 3.4s-3.3 5.1-3.5 8.5c-.1 3.3 1.7 4.5 1.7 4.5l1 .2.2 1-.8 1.6 2.3 3V69h29L52 63Zm-19.6-18v-2.2l6 2.2-.4 1.2-3.8.4Zm5.5 9.8s-2.5-2.5-2.5-2.7v-2.9l-.5-.7-.2-.8 3.4.2-.1 1.4.8 1.6-.3 1 .4 1Zm0 0"/>
    </clipPath>
    <clipPath id="g">
      <path d="M43 65h4v4h-4Zm0 0"/>
    </clipPath>
    <clipPath id="h">
      <path d="M37 62h7v7h-7Zm0 0"/>
    </clipPath>
    <clipPath id="i">
      <path d="M30 40h26.7v29H30Zm0 0"/>
    </clipPath>
    <clipPath id="j">
      <path d="M19 15h13v54H19Zm0 0"/>
    </clipPath>
    <radialGradient id="c" cx="32.1" cy="19.9" r="4.7" fx="32.1" fy="19.9" gradientTransform="matrix(.80465 0 0 1.19535 -2.7 -15)" gradientUnits="userSpaceOnUse">
      <stop offset="0" stop-color="#FFF8BA"/>
      <stop offset="0" stop-color="#FFF8B9"/>
      <stop offset="0" stop-color="#FFF7B8"/>
      <stop offset="0" stop-color="#FFF7B6"/>
      <stop offset="0" stop-color="#FFF6B4"/>
      <stop offset="0" stop-color="#FFF5B3"/>
      <stop offset="0" stop-color="#FFF4B1"/>
      <stop offset="0" stop-color="#FFF4AF"/>
      <stop offset="0" stop-color="#FFF3AE"/>
      <stop offset="0" stop-color="#FFF2AC"/>
      <stop offset="0" stop-color="#FFF2AA"/>
      <stop offset="0" stop-color="#FFF1A9"/>
      <stop offset="0" stop-color="#FFF0A7"/>
      <stop offset=".1" stop-color="#FFF0A5"/>
      <stop offset=".1" stop-color="#FFEFA3"/>
      <stop offset=".1" stop-color="#FFEEA2"/>
      <stop offset=".1" stop-color="#FFEEA0"/>
      <stop offset=".1" stop-color="#FFED9E"/>
      <stop offset=".1" stop-color="#FFEC9D"/>
      <stop offset=".1" stop-color="#FFEB9B"/>
      <stop offset=".1" stop-color="#FFEB99"/>
      <stop offset=".1" stop-color="#FFEA98"/>
      <stop offset=".1" stop-color="#FFE996"/>
      <stop offset=".1" stop-color="#FFE994"/>
      <stop offset=".1" stop-color="#FFE892"/>
      <stop offset=".1" stop-color="#FFE791"/>
      <stop offset=".1" stop-color="#FFE78F"/>
      <stop offset=".1" stop-color="#FEE68D"/>
      <stop offset=".1" stop-color="#FEE58C"/>
      <stop offset=".1" stop-color="#FEE48A"/>
      <stop offset=".1" stop-color="#FEE488"/>
      <stop offset=".1" stop-color="#FEE387"/>
      <stop offset=".1" stop-color="#FEE285"/>
      <stop offset=".1" stop-color="#FEE283"/>
      <stop offset=".1" stop-color="#FEE182"/>
      <stop offset=".1" stop-color="#FEE080"/>
      <stop offset=".1" stop-color="#FEE07E"/>
      <stop offset=".1" stop-color="#FEDF7C"/>
      <stop offset=".1" stop-color="#FEDE7B"/>
      <stop offset=".2" stop-color="#FEDE79"/>
      <stop offset=".2" stop-color="#FEDD77"/>
      <stop offset=".2" stop-color="#FEDC76"/>
      <stop offset=".2" stop-color="#FEDB74"/>
      <stop offset=".2" stop-color="#FEDB72"/>
      <stop offset=".2" stop-color="#FEDA71"/>
      <stop offset=".2" stop-color="#FED96F"/>
      <stop offset=".2" stop-color="#FED96D"/>
      <stop offset=".2" stop-color="#FED86B"/>
      <stop offset=".2" stop-color="#FED76A"/>
      <stop offset=".2" stop-color="#FED768"/>
      <stop offset=".2" stop-color="#FED666"/>
      <stop offset=".2" stop-color="#FED565"/>
      <stop offset=".2" stop-color="#FED463"/>
      <stop offset=".2" stop-color="#FED461"/>
      <stop offset=".2" stop-color="#FED360"/>
      <stop offset=".2" stop-color="#FED25E"/>
      <stop offset=".2" stop-color="#FED25C"/>
      <stop offset=".2" stop-color="#FED15A"/>
      <stop offset=".2" stop-color="#FED059"/>
      <stop offset=".2" stop-color="#FED057"/>
      <stop offset=".2" stop-color="#FECF55"/>
      <stop offset=".2" stop-color="#FECE53"/>
      <stop offset=".2" stop-color="#FECD51"/>
      <stop offset=".2" stop-color="#FECD50"/>
      <stop offset=".3" stop-color="#FECC4E"/>
      <stop offset=".3" stop-color="#FECB4C"/>
      <stop offset=".3" stop-color="#FECB4A"/>
      <stop offset=".3" stop-color="#FDCA49"/>
      <stop offset=".3" stop-color="#FDC947"/>
      <stop offset=".3" stop-color="#FDC845"/>
      <stop offset=".3" stop-color="#FDC843"/>
      <stop offset=".3" stop-color="#FDC742"/>
      <stop offset=".3" stop-color="#FDC640"/>
      <stop offset=".3" stop-color="#FDC63E"/>
      <stop offset=".3" stop-color="#FDC53C"/>
      <stop offset=".3" stop-color="#FDC43A"/>
      <stop offset=".3" stop-color="#FDC439"/>
      <stop offset=".3" stop-color="#FDC337"/>
      <stop offset=".3" stop-color="#FDC235"/>
      <stop offset=".3" stop-color="#FDC133"/>
      <stop offset=".3" stop-color="#FDC132"/>
      <stop offset=".3" stop-color="#FDC030"/>
      <stop offset=".3" stop-color="#FDBF2E"/>
      <stop offset=".3" stop-color="#FDBF2C"/>
      <stop offset=".3" stop-color="#FDBE2B"/>
      <stop offset=".3" stop-color="#FDBD29"/>
      <stop offset=".3" stop-color="#FDBC27"/>
      <stop offset=".3" stop-color="#FDBC25"/>
      <stop offset=".3" stop-color="#FDBB23"/>
      <stop offset=".3" stop-color="#FDBA22"/>
      <stop offset=".4" stop-color="#FDBA20"/>
      <stop offset=".4" stop-color="#FDB91E"/>
      <stop offset=".4" stop-color="#FDB81C"/>
      <stop offset=".4" stop-color="#FDB81B"/>
      <stop offset=".4" stop-color="#FCB719"/>
      <stop offset=".4" stop-color="#FCB617"/>
      <stop offset=".4" stop-color="#FCB515"/>
      <stop offset=".4" stop-color="#FCB514"/>
      <stop offset=".4" stop-color="#FCB412"/>
      <stop offset=".4" stop-color="#FCB310"/>
      <stop offset=".4" stop-color="#FCB30E"/>
      <stop offset=".4" stop-color="#FCB20C"/>
      <stop offset=".4" stop-color="#FCB10B"/>
      <stop offset=".4" stop-color="#FCB009"/>
      <stop offset=".4" stop-color="#FCB007"/>
      <stop offset=".4" stop-color="#FCAF05"/>
      <stop offset=".4" stop-color="#FCAE04"/>
      <stop offset=".4" stop-color="#FCAE02"/>
      <stop offset=".4" stop-color="#FCAD00"/>
      <stop offset=".4" stop-color="#FCAC00"/>
      <stop offset=".4" stop-color="#FCAB00"/>
      <stop offset=".4" stop-color="#FBAA00"/>
      <stop offset=".4" stop-color="#FBA900"/>
      <stop offset=".4" stop-color="#FBA800"/>
      <stop offset=".4" stop-color="#FBA700"/>
      <stop offset=".4" stop-color="#FBA600"/>
      <stop offset=".5" stop-color="#FAA500"/>
      <stop offset=".5" stop-color="#FAA400"/>
      <stop offset=".5" stop-color="#FAA200"/>
      <stop offset=".5" stop-color="#FAA100"/>
      <stop offset=".5" stop-color="#FAA000"/>
      <stop offset=".5" stop-color="#F99F00"/>
      <stop offset=".5" stop-color="#F99E00"/>
      <stop offset=".5" stop-color="#F99D00"/>
      <stop offset=".5" stop-color="#F99C00"/>
      <stop offset=".5" stop-color="#F99B00"/>
      <stop offset=".5" stop-color="#F99A00"/>
      <stop offset=".5" stop-color="#F89900"/>
      <stop offset=".5" stop-color="#F89800"/>
      <stop offset=".5" stop-color="#F89700"/>
      <stop offset=".5" stop-color="#F89600"/>
      <stop offset=".5" stop-color="#F89500"/>
      <stop offset=".5" stop-color="#F79400"/>
      <stop offset=".5" stop-color="#F79300"/>
      <stop offset=".5" stop-color="#F79200"/>
      <stop offset=".5" stop-color="#F79100"/>
      <stop offset=".5" stop-color="#F79000"/>
      <stop offset=".5" stop-color="#F68F00"/>
      <stop offset=".5" stop-color="#F68E00"/>
      <stop offset=".5" stop-color="#F68D00"/>
      <stop offset=".5" stop-color="#F68B00"/>
      <stop offset=".6" stop-color="#F68A00"/>
      <stop offset=".6" stop-color="#F58900"/>
      <stop offset=".6" stop-color="#F58800"/>
      <stop offset=".6" stop-color="#F58700"/>
      <stop offset=".6" stop-color="#F58600"/>
      <stop offset=".6" stop-color="#F58500"/>
      <stop offset=".6" stop-color="#F58400"/>
      <stop offset=".6" stop-color="#F48300"/>
      <stop offset=".6" stop-color="#F48200"/>
      <stop offset=".6" stop-color="#F48100"/>
      <stop offset=".6" stop-color="#F48000"/>
      <stop offset=".6" stop-color="#F47F00"/>
      <stop offset=".6" stop-color="#F37E00"/>
      <stop offset=".6" stop-color="#F37D00"/>
      <stop offset=".6" stop-color="#F37C00"/>
      <stop offset=".6" stop-color="#F37B00"/>
      <stop offset=".6" stop-color="#F37A00"/>
      <stop offset=".6" stop-color="#F37900"/>
      <stop offset=".6" stop-color="#F27800"/>
      <stop offset=".6" stop-color="#F27700"/>
      <stop offset=".6" stop-color="#F27700"/>
      <stop offset=".6" stop-color="#F27600"/>
      <stop offset=".6" stop-color="#F27500"/>
      <stop offset=".6" stop-color="#F27400"/>
      <stop offset=".6" stop-color="#F17300"/>
      <stop offset=".6" stop-color="#F17200"/>
      <stop offset=".7" stop-color="#F17100"/>
      <stop offset=".7" stop-color="#F17100"/>
      <stop offset=".7" stop-color="#F17000"/>
      <stop offset=".7" stop-color="#F16F00"/>
      <stop offset=".7" stop-color="#F06E00"/>
      <stop offset=".7" stop-color="#F06D00"/>
      <stop offset=".7" stop-color="#F06C00"/>
      <stop offset=".7" stop-color="#F06B00"/>
      <stop offset=".7" stop-color="#F06A00"/>
      <stop offset=".7" stop-color="#F06A00"/>
      <stop offset=".7" stop-color="#EF6900"/>
      <stop offset=".7" stop-color="#EF6800"/>
      <stop offset=".7" stop-color="#EF6700"/>
      <stop offset=".7" stop-color="#EF6600"/>
      <stop offset=".7" stop-color="#EF6500"/>
      <stop offset=".7" stop-color="#EF6400"/>
      <stop offset=".7" stop-color="#EE6400"/>
      <stop offset=".7" stop-color="#EE6300"/>
      <stop offset=".7" stop-color="#EE6200"/>
      <stop offset=".7" stop-color="#EE6100"/>
      <stop offset=".7" stop-color="#EE6000"/>
      <stop offset=".7" stop-color="#EE5F00"/>
      <stop offset=".7" stop-color="#ED5E00"/>
      <stop offset=".7" stop-color="#ED5D00"/>
      <stop offset=".7" stop-color="#ED5D00"/>
      <stop offset=".8" stop-color="#ED5C00"/>
      <stop offset=".8" stop-color="#ED5B00"/>
      <stop offset=".8" stop-color="#ED5A00"/>
      <stop offset=".8" stop-color="#EC5900"/>
      <stop offset=".8" stop-color="#EC5800"/>
      <stop offset=".8" stop-color="#EC5700"/>
      <stop offset=".8" stop-color="#EC5700"/>
      <stop offset=".8" stop-color="#EC5600"/>
      <stop offset=".8" stop-color="#EC5500"/>
      <stop offset=".8" stop-color="#EC5400"/>
      <stop offset=".8" stop-color="#EC5400"/>
      <stop offset=".8" stop-color="#EB5300"/>
      <stop offset=".8" stop-color="#EB5200"/>
      <stop offset=".8" stop-color="#EB5200"/>
      <stop offset=".8" stop-color="#EB5100"/>
      <stop offset=".8" stop-color="#EB5000"/>
      <stop offset=".8" stop-color="#EB5000"/>
      <stop offset=".8" stop-color="#EB4F00"/>
      <stop offset=".8" stop-color="#EB4F00"/>
      <stop offset=".8" stop-color="#EB4E00"/>
      <stop offset=".8" stop-color="#EA4D00"/>
      <stop offset=".8" stop-color="#EA4D00"/>
      <stop offset=".8" stop-color="#EA4C00"/>
      <stop offset=".8" stop-color="#EA4B00"/>
      <stop offset=".8" stop-color="#EA4B00"/>
      <stop offset=".8" stop-color="#EA4A00"/>
      <stop offset=".9" stop-color="#EA4900"/>
      <stop offset=".9" stop-color="#EA4900"/>
      <stop offset=".9" stop-color="#EA4800"/>
      <stop offset=".9" stop-color="#E94700"/>
      <stop offset=".9" stop-color="#E94700"/>
      <stop offset=".9" stop-color="#E94600"/>
      <stop offset=".9" stop-color="#E94500"/>
      <stop offset=".9" stop-color="#E94500"/>
      <stop offset=".9" stop-color="#E94400"/>
      <stop offset=".9" stop-color="#E94300"/>
      <stop offset=".9" stop-color="#E94300"/>
      <stop offset=".9" stop-color="#E94200"/>
      <stop offset=".9" stop-color="#E84100"/>
      <stop offset=".9" stop-color="#E84100"/>
      <stop offset=".9" stop-color="#E84000"/>
      <stop offset=".9" stop-color="#E83F00"/>
      <stop offset=".9" stop-color="#E83F00"/>
      <stop offset=".9" stop-color="#E83E00"/>
      <stop offset=".9" stop-color="#E83D00"/>
      <stop offset=".9" stop-color="#E73C00"/>
      <stop offset=".9" stop-color="#E73C00"/>
      <stop offset=".9" stop-color="#E73B00"/>
      <stop offset="1" stop-color="#E73B00"/>
      <stop offset="1" stop-color="#E73A00"/>
      <stop offset="1" stop-color="#E73900"/>
      <stop offset="1" stop-color="#E73900"/>
      <stop offset="1" stop-color="#E73800"/>
      <stop offset="1" stop-color="#E63800"/>
      <stop offset="1" stop-color="#E63700"/>
      <stop offset="1" stop-color="#E63600"/>
      <stop offset="1" stop-color="#E63600"/>
    </radialGradient>
    <linearGradient id="f" x1="23" x2="23" y1="9.9" y2="43.8" gradientTransform="matrix(1.75177 0 0 1.73803 -2.7 -7.1)" gradientUnits="userSpaceOnUse">
      <stop offset="0" stop-color="#76DCD4"/>
      <stop offset="0" stop-color="#76DCD4"/>
      <stop offset="0" stop-color="#75DBD3"/>
      <stop offset="0" stop-color="#74DAD3"/>
      <stop offset=".1" stop-color="#73D9D2"/>
      <stop offset=".1" stop-color="#73D9D2"/>
      <stop offset=".1" stop-color="#72D8D1"/>
      <stop offset=".1" stop-color="#71D7D0"/>
      <stop offset=".1" stop-color="#71D7D0"/>
      <stop offset=".1" stop-color="#70D6CF"/>
      <stop offset=".2" stop-color="#6FD5CE"/>
      <stop offset=".2" stop-color="#6ED4CE"/>
      <stop offset=".2" stop-color="#6ED4CD"/>
      <stop offset=".2" stop-color="#6DD3CD"/>
      <stop offset=".2" stop-color="#6CD2CC"/>
      <stop offset=".2" stop-color="#6CD2CB"/>
      <stop offset=".3" stop-color="#6BD1CB"/>
      <stop offset=".3" stop-color="#6AD0CA"/>
      <stop offset=".3" stop-color="#69CFC9"/>
      <stop offset=".3" stop-color="#69CFC9"/>
      <stop offset=".3" stop-color="#68CEC8"/>
      <stop offset=".3" stop-color="#67CDC8"/>
      <stop offset=".3" stop-color="#67CDC7"/>
      <stop offset=".4" stop-color="#66CCC6"/>
      <stop offset=".4" stop-color="#65CBC6"/>
      <stop offset=".4" stop-color="#64CAC5"/>
      <stop offset=".4" stop-color="#64CAC4"/>
      <stop offset=".4" stop-color="#63C9C4"/>
      <stop offset=".4" stop-color="#62C8C3"/>
      <stop offset=".5" stop-color="#62C8C3"/>
      <stop offset=".5" stop-color="#61C7C2"/>
      <stop offset=".5" stop-color="#60C6C1"/>
      <stop offset=".5" stop-color="#5FC5C1"/>
      <stop offset=".5" stop-color="#5FC5C0"/>
      <stop offset=".5" stop-color="#5EC4BF"/>
      <stop offset=".5" stop-color="#5DC3BF"/>
      <stop offset=".6" stop-color="#5DC3BE"/>
      <stop offset=".6" stop-color="#5CC2BE"/>
      <stop offset=".6" stop-color="#5BC1BD"/>
      <stop offset=".6" stop-color="#5AC0BC"/>
      <stop offset=".6" stop-color="#5AC0BC"/>
      <stop offset=".6" stop-color="#59BFBB"/>
      <stop offset=".7" stop-color="#58BEBA"/>
      <stop offset=".7" stop-color="#58BEBA"/>
      <stop offset=".7" stop-color="#57BDB9"/>
      <stop offset=".7" stop-color="#56BCB9"/>
      <stop offset=".7" stop-color="#55BBB8"/>
      <stop offset=".7" stop-color="#55BBB7"/>
      <stop offset=".8" stop-color="#54BAB7"/>
      <stop offset=".8" stop-color="#53B9B6"/>
      <stop offset=".8" stop-color="#53B9B5"/>
      <stop offset=".8" stop-color="#52B8B5"/>
      <stop offset=".9" stop-color="#52B8B5"/>
      <stop offset="1" stop-color="#51B7B4"/>
    </linearGradient>
  </defs>
  <g clip-path="url(#a)">
    <g clip-path="url(#b)">
      <path fill="url(#c)" d="M20.5 0v10.7h5.8V0Zm0 0"/>
    </g>
  </g>
  <g clip-path="url(#d)">
    <g clip-path="url(#e)">
      <path fill="url(#f)" d="M18.7 10.1V69h37.9V10.1Zm0 0"/>
    </g>
  </g>
  <path fill="#006064" d="M40.7 51.9h-1.2v.2l.4.3.9-.1.8.1.4-.3v-.2ZM20.8 14.2h5.3v.9h-5.3Zm0 0"/>
  <g clip-path="url(#g)">
    <path fill="#006064" d="M46.3 65.2c-1.5 1.2-2.7 3-3.2 4h2.1c.3-1.5 1.1-4 1.1-4Zm0 0"/>
  </g>
  <g clip-path="url(#h)">
    <path fill="#006064" d="M37.5 69.1h2.7a47 47 0 0 1 3.7-6.7 17 17 0 0 0-6.4 6.7Zm0 0"/>
  </g>
  <g clip-path="url(#i)">
    <path fill="#006064" d="m48.4 61.3-1.7-5.5.5-2-1-2.6.2-.7-.1-1 .9-1.5-.4-1.8 9.7-.8h-9.9c-.4-1.8-1.6-5-5.7-5-4.7 0-6.1 4.8-6.1 4.8l-3.8.2.2.6 3.3.2-.1 1.4.8 1.6-.3 1 .4 1-1 2 4.2 5.4 2.5 1.7s-5.5 2.9-9.5 8.8H35c.7-1.3 3.7-6 7.3-8.2l7 3 .5 5.2h3.8l-1.6-6Zm-7.6-7.6s-2.6 0-3-.7a9.6 9.6 0 0 1-1.3-2.8c0-.6 1-1.8 1-1.8H39l.3-.1.4.8v.7l-.2.3v.3l.9.3v.2h-.7l-.5.5v.2l.5-.2h2l.5.2.1-.2-.5-.5H41v-.2l.8-.3v-.3l-.2-.3v-.7l.4-.8.4.2H44s1 1 1 1.7c0 .3-.8 2.2-1.2 2.8-.4.7-3 .7-3 .7ZM37.4 47s.2-.8 1.5-1.3c1.3-.6 2-1.3 2-1.3s.6.7 1.8 1.3c1.4.5 1.4 1.3 1.4 1.3l-.7-.4c-.2 0-1.8-.2-1.9.2l-.3 3.2h-.9l-.3-3.2c-.1-.4-1.6-.3-1.9-.2l-.7.4Zm3.9 11.4s2.5-2.9 3-3.9c0 0 0 3.6-.2 4.3 0 0 .8.6 1 1.4 0 0-2.8-.6-3.8-1.8ZM45.9 48c0-.9-2-2.6-3.4-3.2-1.4-.7-1.7-1.4-1.7-1.4s-.3.7-1.7 1.4c-1.4.6-3.4 2.3-3.5 3.2 0 0 0-5.8 5.2-5.8s5.1 5.8 5.1 5.8Zm0 0"/>
  </g>
  <g clip-path="url(#j)">
    <path fill="#006064" d="M27 65.3c4-3.2 4.5-8.5 4.5-8.5-1 1.8-3.4 3.2-3.4 3.2s1.2-2.3 1.7-4.1c.5-1.8-.1-3-.1-3-2.8 3.2-6.4 2.8-6.4 2.8 3.7-1.4 5.7-6.7 6-8.2.3-1.3 0-3.1 0-3.8l-.5-.4v-.1c.3 4-2 5.8-2 5.8-.6-.9-.6-3.4-.6-3.4l1-1.6-1.5-.4-1.2-11.8 1.6-5.5s0-1.1-.2-1.7c-.3-.6-.5-.8-.6-1.9 0-1 .2-1.9.2-1.9l-.4-1s-.2-.5-.7-1c-.4-.5-.3-1.8-.3-1.8l.5-.2.6 1h.3l.2-1.8h-4.6l.5 1.4H21l-.7-1.6-.1-.5-.4.3-.2.3.8 1.8-.4.8v.1l.4.6-.2.6v.2l.3.5.3.2-.6 1a95.7 95.7 0 0 0 .6 2.1v.2c.3.5 1.5 1.2 1.5 1.2V24c0-.9 2.4-1.8 2.4-1.8l-.3 6.7h-1.6l-.1 2.7-.3 5.7v1a16.9 16.9 0 0 0 .9 3.7l.1.2v.1l.3 2.1v1.3s-3.2 4.6-3.4 8.8c0 3 1.7 4.2 1.7 4.2l1 .2.1.6v.3l-.7 1.7 2.3 3v4.7h4.2a9 9 0 0 1 1.5-3.2c1.2-2 1-3.4 1-3.4-1.3 2.2-4.2 2.8-4.2 2.8Zm-6.4-46.9.3-.6h.9l1-.5.6.1v.8l-1.4.4-1.2.1Zm2.7 3.4h-1.7l-.3.3.2.2h.6l-.4 1v.8l-.4-.8-.5-1.6.7-1h1.7l.5.4Zm.5-1.3-1.4-.4L21 20l.4-.8h1.5l1.2.6Zm0 0"/>
  </g>
  <path fill="#006064" d="M42.1 39.5 40.7 32l-1 7.3H42Zm4.6 4.1 7.4-3.4-7.7 2.6.3.8ZM28.9 41l5.8 2.3.4-.7-6.2-2Zm16.3.2 5-6.4-5.9 5.6 1 .8Zm-8.1-.8-5.8-5.6 5 6.4.8-.8Zm0 0"/>
  <path fill="none" stroke="#fff" stroke-width="2.6" d="M4.8 65.7v6H8V73H3.4v-7.2Zm4.9 1.1c-.2 0-.4 0-.6-.2a.8.8 0 0 1-.2-.6c0-.2 0-.4.2-.5l.6-.3.4.1.3.3.1.4v.4c-.1.2-.2.3-.4.3l-.4.1Zm-.7 6v-5.3h1.4v5.4Zm6 .2c-.7 0-1.3-.3-1.6-.8h-.1v.7h-1.4v-7.6h1.4v2.8h.1l.7-.5a2 2 0 0 1 .9-.2c.4 0 .8 0 1.1.3.3.2.6.5.8 1 .2.4.3.9.3 1.5s-.1 1.1-.3 1.5a2 2 0 0 1-.8 1c-.3.2-.7.3-1.2.3Zm-.5-1.2c.4 0 .7 0 1-.4.2-.2.3-.6.3-1.2s-.1-1-.4-1.3c-.2-.2-.5-.4-.9-.4s-.7.2-.9.4c-.2.3-.3.7-.3 1.3 0 .5 0 1 .3 1.2.2.3.5.4 1 .4Zm8.5-1.3h-3.5c0 .5.2.8.4 1 .2.2.5.3 1 .3l.7-.1.5-.6 1 .6-.8 1c-.4.2-.9.3-1.5.3-.5 0-1-.1-1.4-.3-.4-.2-.7-.6-1-1-.2-.4-.3-.9-.3-1.5s.1-1.1.4-1.6c.2-.4.5-.7 1-1l1.2-.2c.8 0 1.4.2 1.8.6.4.4.6 1 .6 1.8v.6Zm-1.2-.9c0-.4 0-.7-.3-.9-.1-.2-.4-.3-.8-.3-.6 0-1 .4-1.2 1.2Zm2.5 3.3v-5.4h1.3v.8h.1l.5-.7.8-.2c.3 0 .6 0 .7.2l-.2 1.2h-.1l-.3-.1h-.3a1 1 0 0 0-.8.4c-.2.2-.3.7-.3 1.3v2.5Zm7.2-1.3.3 1-.5.3-.8.1c-.6 0-1-.2-1.3-.5a2 2 0 0 1-.5-1.4v-2.5H28v-1.1h.8v-1l1.4-.3v1.3h1.5v1h-1.5V71c0 .3 0 .5.2.6 0 .1.2.2.5.2.2 0 .4 0 .6-.2Zm1.7 3.6A3.1 3.1 0 0 1 32 75l.2-1.1h.4l.3.1h.6l.4-.4.2-.5-2.1-5.6h1.4l1.3 3.7h.2l1.3-3.7h1.4l-2.2 5.7-.6 1.2a2 2 0 0 1-.7.6l-1 .2ZM43.3 73c-.5 0-1 0-1.3-.2l-1-.5-.6-.6.8-1h.1l.8.8 1.2.3c.4 0 .7-.1.9-.3.2-.1.3-.4.3-.6l-.1-.5-.3-.3-.6-.2-1-.2c-.6-.1-1-.4-1.4-.7a2 2 0 0 1-.2-2.4c.2-.3.5-.6 1-.7.3-.2.8-.3 1.3-.3.6 0 1 0 1.4.2.4.2.8.4 1 .7l-.7 1a2 2 0 0 0-1.7-.7l-.9.2-.3.6.2.5.8.4 1 .2c.6.1 1.1.4 1.4.7.4.4.5.8.5 1.4 0 .4 0 .8-.3 1.1a2 2 0 0 1-.9.8c-.3.2-.8.3-1.4.3Zm6.7-1.4.4 1-.6.3-.7.1c-.6 0-1-.2-1.4-.5-.3-.3-.4-.8-.4-1.4v-2.5h-.8v-1.1h.8v-1l1.3-.3v1.3h1.6v1h-1.6V71l.2.6.5.2c.2 0 .4 0 .6-.2Zm2.6 1.4a2 2 0 0 1-.9-.2c-.3-.1-.4-.3-.6-.6l-.2-.8c0-.4 0-.6.2-.9l.7-.5 1-.3.8-.2.4-.2V69l-.1-.4-.6-.1a2 2 0 0 0-.9.2l-.7.5h-.1l-.6-.9 1-.7 1.3-.2c.7 0 1.3.1 1.6.4.3.3.5.8.5 1.3v2.4c0 .2 0 .3.3.3h.3v1h-.2a2 2 0 0 1-.5.1l-.7-.1a1 1 0 0 1-.4-.6H54c-.3.5-.8.8-1.5.8Zm.4-1c.4 0 .6-.1.8-.3.2-.2.3-.5.3-1v-.5H54l-.3.2-.6.1a1 1 0 0 0-.7.3l-.1.5c0 .2 0 .4.2.5l.5.2Zm7-.4.3 1-.6.3-.7.1c-.6 0-1-.2-1.4-.5-.3-.3-.4-.8-.4-1.4v-2.5h-.8v-1.1h.8v-1l1.3-.3v1.3h1.6v1h-1.6V71l.2.6.5.2c.2 0 .4 0 .6-.2Zm2.9 1.4c-.6 0-1-.2-1.4-.5-.3-.3-.4-.8-.4-1.4v-3.6h1.4v3.4c0 .3 0 .6.2.7.1.2.3.3.6.3.4 0 .7-.2 1-.4l.2-1.2v-2.8H66v5.4h-1.3V72h-.1l-.7.7-1 .2Zm9.1-2.5h-3.5c0 .5.2.8.4 1 .3.2.6.3 1 .3l.7-.1c.2-.1.4-.3.5-.6l1 .6c-.2.4-.4.7-.8 1-.4.2-.8.3-1.4.3-.6 0-1-.1-1.5-.3-.4-.2-.7-.6-1-1-.1-.4-.3-.9-.3-1.5s.2-1.1.4-1.6c.2-.4.5-.7 1-1l1.3-.2c.7 0 1.3.2 1.7.6.4.4.6 1 .6 1.8v.6Zm-1.2-.9c0-.4 0-.7-.2-.9-.2-.2-.5-.3-.8-.3-.7 0-1.1.4-1.2 1.2Zm0 0"/>
  <path d="M4.8 65.7v6H8V73H3.4v-7.2Zm4.9 1.1c-.2 0-.4 0-.6-.2a.7.7 0 0 1-.2-.6c0-.2 0-.4.2-.5l.6-.3.4.1.3.3.1.4v.5l-.4.2a1 1 0 0 1-.4.1ZM9 73v-5.4h1.4V73Zm6 0c-.7 0-1.3-.3-1.6-.8h-.1v.7h-1.4v-7.6h1.4v2.8l.7-.5c.3-.2.6-.2 1-.2s.8 0 1.1.3c.3.2.6.5.8 1 .2.3.3.9.3 1.5s-.1 1.1-.3 1.6a2 2 0 0 1-.8.9c-.3.2-.7.3-1.2.3Zm-.5-1.2c.4 0 .7 0 1-.3.1-.3.3-.7.3-1.3 0-.6-.2-1-.4-1.3a1 1 0 0 0-.9-.4 1 1 0 0 0-.9.5c-.2.2-.3.6-.3 1.2 0 .5 0 1 .3 1.2.2.3.5.4 1 .4Zm8.5-1.3h-3.5c0 .5.2.8.4 1 .2.2.5.3 1 .3l.7-.1.5-.6 1 .6a2.2 2.2 0 0 1-2.3 1.3c-.5 0-1-.1-1.4-.3-.4-.2-.7-.5-1-1-.2-.4-.3-.9-.3-1.5s.1-1.1.4-1.6c.2-.4.5-.7 1-1l1.2-.2c.8 0 1.4.2 1.8.6.4.4.6 1 .6 1.8v.6Zm-1.2-.9c0-.4-.1-.7-.3-.9-.2-.2-.4-.3-.8-.3-.6 0-1 .4-1.2 1.2Zm2.5 3.3v-5.4h1.3v.8h.1l.5-.6c.2-.2.5-.3.8-.3l.7.2-.2 1.2H27l-.3-.1c-.4 0-.7.1-.8.4-.2.2-.3.7-.3 1.3v2.5Zm7.2-1.3.4 1-.6.3-.8.1c-.5 0-1-.2-1.3-.5a2 2 0 0 1-.5-1.4v-2.5H28v-1.1h.8v-1l1.4-.3v1.3h1.5v1h-1.5V71c0 .3 0 .5.2.6 0 .1.2.2.5.2.2 0 .4 0 .6-.2Zm1.7 3.6A3.1 3.1 0 0 1 32 75l.2-1.1h.4a1.6 1.6 0 0 0 .9 0l.4-.3.2-.5-2.1-5.6h1.4l1.3 3.8h.2l1.3-3.8h1.4l-2.2 5.7-.6 1.1a2 2 0 0 1-.7.7l-1 .2ZM43.3 73c-.5 0-1 0-1.3-.2l-1-.5-.6-.6.8-1h.1l.8.8 1.2.3c.4 0 .7-.1.9-.3.2-.1.3-.4.3-.6l-.1-.5-.3-.3-.6-.2-1-.2c-.6-.1-1-.4-1.4-.7a2 2 0 0 1-.2-2.4c.2-.3.5-.6 1-.7.3-.2.8-.3 1.3-.3.6 0 1 0 1.4.2.4.2.8.4 1 .7l-.7 1a2 2 0 0 0-1.7-.7l-.9.2-.3.6c0 .2 0 .4.2.5l.8.4 1 .2c.6.1 1.1.4 1.4.7.4.4.5.8.5 1.4 0 .4 0 .8-.3 1.2a2 2 0 0 1-.9.7c-.3.2-.8.3-1.4.3Zm6.7-1.4.4 1-.6.3-.7.1c-.6 0-1-.2-1.4-.5-.3-.3-.4-.8-.4-1.4v-2.5h-.9v-1.1h.9v-1l1.3-.3v1.3h1.6v1h-1.6V71c0 .3 0 .5.2.6l.5.2c.2 0 .4 0 .6-.2Zm2.6 1.4a2 2 0 0 1-.9-.2 1 1 0 0 1-.6-.5l-.2-1c0-.3 0-.5.2-.7.1-.3.4-.4.6-.6a4 4 0 0 1 1.2-.3l.7-.2c.2 0 .3-.1.3-.2l.1-.3-.1-.4-.6-.1a2 2 0 0 0-.9.2l-.7.5h-.1l-.6-.9a3.1 3.1 0 0 1 2.3-1c.7 0 1.3.2 1.6.5.3.4.5.8.5 1.3v2.4c0 .2 0 .3.3.3h.3v1l-.2.1a2 2 0 0 1-.5 0l-.7-.1a1 1 0 0 1-.4-.6H54c-.3.5-.8.8-1.5.8Zm.4-1c.4 0 .6-.1.8-.3.2-.2.3-.5.3-1v-.5H54l-.3.2-.6.1a1 1 0 0 0-.7.3l-.1.5c0 .2 0 .4.2.5l.5.2Zm7-.4.3 1-.6.3-.7.1c-.6 0-1-.2-1.4-.5-.3-.3-.4-.8-.4-1.4v-2.5h-.8v-1.1h.8v-1l1.3-.3v1.3h1.6v1h-1.6V71c0 .3 0 .5.2.6l.5.2c.2 0 .4 0 .6-.2Zm2.9 1.4c-.6 0-1-.2-1.4-.5-.3-.3-.4-.8-.4-1.4v-3.6h1.4v3.4c0 .3 0 .6.2.7.1.2.3.2.6.2.4 0 .7 0 1-.3l.2-1.2v-2.8H66v5.4h-1.3v-.8h-.1a2 2 0 0 1-.7.7l-1 .2Zm9.1-2.5h-3.5c0 .5.2.8.4 1 .3.2.6.3 1 .3l.7-.1c.2-.1.4-.3.5-.6l1 .6a2.2 2.2 0 0 1-2.2 1.3c-.6 0-1-.1-1.5-.3-.4-.2-.7-.5-1-1-.1-.4-.3-.9-.3-1.5s.2-1.1.4-1.6c.2-.4.5-.7 1-1l1.3-.2c.7 0 1.3.2 1.7.6.4.4.6 1 .6 1.8v.6Zm-1.2-.9c0-.4 0-.7-.3-.9-.1-.2-.4-.3-.7-.3-.7 0-1.1.4-1.2 1.2Zm0 0"/>
</svg>
