<svg xmlns="http://www.w3.org/2000/svg" xmlns:xlink="http://www.w3.org/1999/xlink" version="1.0" viewBox="0 0 75 75">
  <defs>
    <path id="a" d="M47 34h24v15.8H47Zm0 0"/>
  </defs>
  <defs>
    <clipPath id="b">
      <use xlink:href="#a"/>
    </clipPath>
    <clipPath id="c">
      <path d="M47 34h12v15.8H47Zm0 0"/>
    </clipPath>
    <clipPath id="d">
      <use xlink:href="#a"/>
    </clipPath>
    <clipPath id="e">
      <path d="M17 14.6h46v35.2H17Zm0 0"/>
    </clipPath>
    <clipPath id="f">
      <path d="M38 14.6h25v35.2H38Zm0 0"/>
    </clipPath>
    <clipPath id="g">
      <path d="M32 14.6h15V26H32Zm0 0"/>
    </clipPath>
    <clipPath id="h">
      <path d="M17 14.6h22v35.2H17Zm0 0"/>
    </clipPath>
    <clipPath id="i">
      <path d="M17 14.6h23v35.2H17Zm0 0"/>
    </clipPath>
    <clipPath id="j">
      <path d="M17 14.6h47v35.2H17Zm0 0"/>
    </clipPath>
    <clipPath id="k">
      <path d="M6 25h34v24.8H6Zm0 0"/>
    </clipPath>
    <clipPath id="l">
      <path d="M21 25h19v24.8H21Zm0 0"/>
    </clipPath>
    <clipPath id="m">
      <path d="M6 25h16v24.8H6Zm0 0"/>
    </clipPath>
    <clipPath id="n">
      <path d="M5 25h18v24.8H5Zm0 0"/>
    </clipPath>
    <clipPath id="o">
      <path d="M5 25h35v24.8H5Zm0 0"/>
    </clipPath>
    <clipPath id="p">
      <path d="M10 38h7v11.8h-7Zm0 0"/>
    </clipPath>
    <clipPath id="q">
      <path d="M10 37h7v12.8h-7Zm0 0"/>
    </clipPath>
    <clipPath id="r">
      <path d="M64 38h7v11.8h-7Zm0 0"/>
    </clipPath>
    <clipPath id="s">
      <path d="M64 37h7v12.8h-7Zm0 0"/>
    </clipPath>
    <clipPath id="t">
      <path d="M6 35h7v14.8H6Zm0 0"/>
    </clipPath>
    <clipPath id="u">
      <path d="M5 34h8v15.8H5Zm0 0"/>
    </clipPath>
    <clipPath id="v">
      <path d="M0 48h73v1.8H0Zm0 0"/>
    </clipPath>
  </defs>
  <g clip-path="url(#b)">
    <path fill="#e29f4d" d="M48 49.3h22.6l-12-14.5Zm0 0"/>
  </g>
  <path fill="#ffad5c" d="M63 42h1.5l.3.2.2.3c0 .1 0 .2-.2.3l-.3.2H63s-.2 0-.3-.2a.4.4 0 0 1 0-.6l.3-.1Zm-.7 2.6H67l.3.1.1.4a.4.4 0 0 1-.4.4h-4.6l-.3-.1-.1-.3.1-.4h.3Zm0 0"/>
  <path fill="#ffe0b2" d="m64 41.4-5.4-6.6-4.9 6.6Zm0 0"/>
  <g fill="#390075" clip-path="url(#c)">
    <path fill-opacity=".3" d="m55.9 49.3 2.7-14.5L48 49.3Zm0 0"/>
    <path d="M55.9 49.7h-8s-.2 0-.3-.2V49l10.7-14.5a.4.4 0 0 1 .6.3l-2.7 14.5c0 .2-.2.3-.3.3Zm-7.2-.7h6.9l2.3-12.7Zm0 0"/>
  </g>
  <g clip-path="url(#d)">
    <path fill="#390075" d="M70.6 49.7H48c-.2 0-.3 0-.4-.2V49l10.7-14.5.3-.2s.2 0 .3.2l12 14.5v.4l-.3.2Zm-22-.7h21.2L58.6 35.4Zm0 0"/>
  </g>
  <g clip-path="url(#e)">
    <path fill="#e29f4d" d="M17.6 49.3h45.2L38.8 15Zm0 0"/>
  </g>
  <path fill="#ffad5c" d="M43 35h8.5c.1 0 .2 0 .3.2l.2.3c0 .1 0 .2-.2.3l-.3.1h-8.9l-.1-.4a.4.4 0 0 1 .4-.5Zm8 9.6h8.6l.3.1.1.4a.4.4 0 0 1-.4.4H51l-.3-.1-.2-.3c0-.2 0-.3.2-.4h.3Zm-3.6 0h1.9l.3.1.1.4-.1.3-.3.1h-1.9l-.3-.1-.1-.3.1-.4h.3ZM39.5 35H41c.1 0 .2 0 .3.2l.1.3-.1.3-.3.1h-1.8l-.1-.4v-.3l.4-.2Zm-5.6 0h1.4c.2 0 .3 0 .3.2l.2.3c0 .1 0 .2-.2.3l-.3.1h-1.8v-.7l.4-.2Zm14.3 4.8h1.4c.2 0 .3 0 .4.2v.6l-.4.1h-1.4l-.3-.1-.2-.3c0-.1 0-.3.2-.3 0-.1.1-.2.3-.2Zm0-8.8h1.4c.2 0 .3 0 .4.2v.6l-.4.1h-1.4l-.3-.1-.2-.3c0-.2 0-.3.2-.3 0-.1.1-.2.3-.2Zm-2.6 0h.5c.1 0 .3 0 .3.2.1 0 .2.1.2.3 0 0 0 .2-.2.3l-.3.1h-.5l-.3-.1-.1-.3.1-.3.3-.2ZM43 39.8h2.8s.2 0 .3.2l.1.3-.1.3-.3.1h-2.9a.4.4 0 0 1-.4-.4l.1-.3.3-.2Zm-8.7 0h4.5c.1 0 .2 0 .3.2l.2.3a.4.4 0 0 1-.5.4h-4.5a.4.4 0 0 1-.4-.4V40l.4-.2Zm0 0"/>
  <g clip-path="url(#f)">
    <path fill="#fff" fill-opacity=".5" d="m38.9 15-.7 1 23.3 33.3h1.3Zm0 0"/>
  </g>
  <g clip-path="url(#g)">
    <path fill="#ffe0b2" d="M46.2 25.5 39 15l-6.6 10.5Zm0 0"/>
  </g>
  <g clip-path="url(#h)">
    <path fill="#390075" fill-opacity=".3" d="M17.6 49.3h16L38.8 15Zm0 0"/>
  </g>
  <g clip-path="url(#i)">
    <path fill="#390075" d="M33.5 49.7H17.6c-.1 0-.2 0-.3-.2v-.4l21.3-34.3c0-.2.2-.2.4-.2s.3.2.2.4L34 49.4c0 .2-.2.3-.4.3ZM18.3 49h15l5-32.3Zm0 0"/>
  </g>
  <g clip-path="url(#j)">
    <path fill="#390075" d="M62.8 49.7H17.6c-.1 0-.2 0-.3-.2v-.4l21.3-34.3c0-.1.1-.2.3-.2l.3.1 24 34.4a.4.4 0 0 1-.4.6ZM18.3 49H62L39 15.6Zm0 0"/>
  </g>
  <g clip-path="url(#k)">
    <path fill="#e29f4d" d="M6.3 49.3h33.2L21.9 25.5Zm0 0"/>
  </g>
  <path fill="#ffad5c" d="M29.7 39.8h2.9s.2 0 .3.2l.1.3a.4.4 0 0 1-.4.4h-2.9l-.3-.1-.1-.3.1-.3.3-.2Zm-2.8 0H28s.2 0 .3.2l.1.3-.1.3-.3.1h-1.2l-.4-.1a.4.4 0 0 1 0-.6l.4-.2Zm.1 4.8h8.7l.3.1.1.4a.4.4 0 0 1-.4.4H27l-.3-.1-.2-.3c0-.2 0-.3.2-.4h.3Zm-3.9 0h2.2l.3.1.1.4v.3l-.4.1H23l-.3-.1-.1-.3.1-.4h.3Zm0 0"/>
  <g clip-path="url(#l)">
    <path fill="#fff" fill-opacity=".5" d="m22 25.5-.8 1.2 16.7 22.6h1.6Zm0 0"/>
  </g>
  <path fill="#ffad5c" d="M15.5 39.8h1.2c.2 0 .3 0 .4.2a.4.4 0 0 1 0 .6l-.4.1h-1.2l-.3-.1-.1-.3.1-.3.3-.2Zm-4.1 4.8h4.3l.3.1.1.4a.4.4 0 0 1-.4.4h-4.3l-.3-.1-.1-.3v-.4h.4Zm0 0"/>
  <path fill="#ffe0b2" d="M29.4 35.7 22 25.5l-6.6 10.2Zm0 0"/>
  <g clip-path="url(#m)">
    <path fill="#390075" fill-opacity=".3" d="M6.3 49.3h8.2L22 25.5Zm0 0"/>
  </g>
  <g clip-path="url(#n)">
    <path fill="#390075" d="M14.5 49.7H6.3A.4.4 0 0 1 6 49l15.6-23.8a.4.4 0 0 1 .7.4l-7.4 23.7c0 .2-.2.3-.4.3ZM7 49h7.3l6.5-21Zm0 0"/>
  </g>
  <g clip-path="url(#o)">
    <path fill="#390075" d="M39.5 49.7H6.3A.4.4 0 0 1 6 49l15.6-23.8.3-.1.3.1L39.8 49v.4l-.3.2ZM7 49h31.8L21.9 26.2Zm0 0"/>
  </g>
  <g clip-path="url(#p)">
    <path fill="#fff176" d="M10.8 49.3S12 41 16 38.1c0 0-3.7 7.7-2.9 11.2Zm0 0"/>
  </g>
  <g clip-path="url(#q)">
    <path fill="#390075" d="M13.1 49.6h-2.3l-.2-.1v-.2c0-.4 1.2-8.5 5.3-11.4h.3v.3s-3.7 7.6-2.9 11v.3h-.2Zm-2-.5h1.7c-.5-3 1.6-8 2.5-10.1-2.8 3-4 8.7-4.2 10Zm0 0"/>
  </g>
  <path fill="#00c853" d="M16.5 42.2a5.8 5.8 0 0 0-1-3.8l.7.2a9.3 9.3 0 0 0-3.1 1.4l-.8.9c-.1.2-.5 0-.4-.3a6.2 6.2 0 0 1 2.8-2.5l1.1-.6c.3-.1.6 0 .7.2l.4.9c.2.7.4 1.5.4 2.3l-.2 1.4c-.1.4-.6.3-.6 0Zm0 0"/>
  <path fill="#00c853" d="M10.6 37.3c1.8-.8 3.9-.4 5.7.2H16c1.6.2 3.3 1 4.5 2.3.1.2-.1.5-.3.3a6.8 6.8 0 0 0-4.3-1.4h-.2a9 9 0 0 0-3.8-1.2h-1.3c-.2.1-.3-.1-.1-.2Zm0 0"/>
  <path fill="#00c853" d="M19.9 37.8c-1.1-.2-2.2 0-3.2.6l-.4.2h-.6l-.1-.1-1.1-1.4c-.4-.4-.9-.9-1.4-1-.2-.2-.1-.5.1-.5.7.1 1.2.5 1.8.9l1.5 1.2-.8-.2c.7-.2 1.4-.4 2.2-.4a5 5 0 0 1 2.1.2c.1 0 .2.2.1.3l-.2.2Zm0 0"/>
  <path fill="#00c853" d="m16 36 .6 2-1-.4 1.9-1.2.2.1v.2l-1.3 1.8c-.3.5-1 .2-1-.4l.2-2c0-.2.3-.3.3 0Zm0 0"/>
  <path fill="#00c853" d="M9.6 39.7c.8-1.9 4.8-2.5 6.6-2.2 1.3.6 2.4 1.8 2.8 3.3v1c-.1.2-.4.2-.5 0-.6-.5-.8-1.1-1.3-1.7-.4-.6-1-1-1.5-1.5h.3l-1.6.2-3 .6c-.6.1-1 .2-1.5.5-.1.2-.4 0-.3-.2Zm0 0"/>
  <path fill="#390075" d="M16.8 42.8h-.1a.5.5 0 0 1-.4-.6v-1.5h-.1v-.4a6 6 0 0 0-.4-1l-.1-.2a30.7 30.7 0 0 0-1.5.6l-1 .6a3 3 0 0 0-.7.7.5.5 0 0 1-.8-.5l.8-1.1c-.3 0-.7 0-1.1.2L10 40c-.2.2-.5.1-.7 0v-.5c.1-.3.3-.6.6-.8l.8-.6a6 6 0 0 1 1.2-.5 5 5 0 0 0-1.3.1h-.3l-.2-.3c0-.2 0-.4.3-.5a6.2 6.2 0 0 1 3-.4 9.3 9.3 0 0 1 1.8.3V36a.4.4 0 0 1 .5-.4c.2 0 .3 0 .4.2l.3.9.8-.6c.2 0 .5 0 .6.2.1.1.1.3 0 .4h1l1.2.3c.2.1.4.4.3.6-.1.2-.3.3-.5.3a3.9 3.9 0 0 0-1.3 0 7.1 7.1 0 0 1 2.1 1.6c.2.2.2.5 0 .7H20a5.3 5.3 0 0 0-2.1-1.1l-.7-.2.1 1v.5h.1v.7l-.2 1.2-.2.3h-.3Zm-.8-4.1v.1l.2.3a6.9 6.9 0 0 1 .5 1.4v1.7h.1l.2-1V40l-.3-1.2v-.3l.3-.1h.1a8 8 0 0 1 2.3.7l.8.5a6.8 6.8 0 0 0-2.4-1.5c-.2 0-.2-.2-.2-.3l.1-.2h.2a5.7 5.7 0 0 1 1.8-.2 4 4 0 0 0-.8-.2 5.8 5.8 0 0 0-1.4 0h-.2v-.5l-.8.6h-.2c-.1 0-.2 0-.2-.2l-.3-1v1l-.2.2s-.1.1-.2 0A10.3 10.3 0 0 0 12 37l-.4.1a5.5 5.5 0 0 1 1.7.2l.2.2c0 .2 0 .3-.2.3l-.7.1-1.6.6-.7.5-.4.6 1.4-.6a15 15 0 0 1 2-.4c.1 0 .2 0 .3.2l-.1.3-.7.5a3.7 3.7 0 0 0-.7 1l.9-.8a10.2 10.2 0 0 1 2.6-1.3h.3Zm4.6 1.4Zm-.2-.1Zm0 0Zm-2.8-3.3Zm0 0"/>
  <path fill="#390075" d="M18.7 42.2h-.2l-.2-.1-.6-.9v-.1h-.1l-.6-.9v-.1l-.3-1.2v-.3l.3-.1h.1l1 .2.1.1a5.1 5.1 0 0 1 1 2v1.1l-.3.3h-.2Zm-.7-1.4.1.2.6.7v-1.2a4.8 4.8 0 0 0-.8-1.3l-.6-.2a8 8 0 0 1 .1 1l.6.8Zm1 .5Zm-3.5-3.8a10.3 10.3 0 0 0-1.1-.3h-.2l-.5-.5-.6-.5a.4.4 0 0 1-.3-.5c0-.2.3-.3.4-.3.4 0 .8.2 1 .3a7.1 7.1 0 0 1 1.4 1c.1 0 .2 0 .1.2v.4a.2.2 0 0 1-.2.2Zm-1-.7a6.7 6.7 0 0 1 .7.1l-.4-.2a7 7 0 0 0-1.2-.7c.2 0 .3.2.4.3l.5.5Zm-1.9 2.4 1.5-1c.1 0 .7-.3.7 0v.1l-.5.2-1.4 1.1c-.2.2-.5-.1-.3-.4Zm.2-1.7h1c.2 0 .6 0 .5.3h-.5l-1 .1c-.3 0-.3-.4 0-.4Zm0 5.7.3.2c.2 0 .2.3 0 .4l-.3.1c-.2.1-.5 0-.6-.2-.1-.3.2-.6.6-.5Zm.3 2.5-.5-.2a.2.2 0 0 1-.2-.3l.2-.1.5-.2c.2 0 .4.1.5.3 0 .3-.2.6-.5.5Zm-1.5.9.8.2v.2l-.8.3c-.2 0-.4 0-.5-.2 0-.3.2-.6.5-.5Zm0 0"/>
  <g clip-path="url(#r)">
    <path fill="#fff176" d="M64.9 49.3S66 41 70 38.1c0 0-3.8 7.7-3 11.2Zm0 0"/>
  </g>
  <g clip-path="url(#s)">
    <path fill="#390075" d="M67.2 49.6h-2.3l-.2-.1v-.2c0-.4 1.2-8.5 5.3-11.4h.3v.3s-3.7 7.6-2.9 11v.3h-.2Zm-2-.5h1.7c-.5-3 1.5-8 2.5-10.1a21 21 0 0 0-4.2 10Zm0 0"/>
  </g>
  <path fill="#00c853" d="M70.6 42.2a5.8 5.8 0 0 0-1-3.8l.7.2a9.5 9.5 0 0 0-3.1 1.4l-.8.9c-.2.2-.6 0-.4-.3a6.2 6.2 0 0 1 2.8-2.5c.3-.3.7-.4 1.1-.6.2-.1.5 0 .7.2l.4.9c.2.7.3 1.5.3 2.3 0 .5 0 1-.2 1.4 0 .4-.5.3-.5 0Zm0 0"/>
  <path fill="#00c853" d="M64.6 37.3c1.9-.8 4-.4 5.8.2H70a7 7 0 0 1 4.5 2.3c.2.2 0 .5-.3.3a6.8 6.8 0 0 0-4.2-1.4h-.2a9 9 0 0 0-3.8-1.2h-1.4c-.2.1-.3-.1 0-.2Zm0 0"/>
  <path fill="#00c853" d="M74 37.8a5.2 5.2 0 0 0-3.6.8h-.7v-.1L68.4 37c-.3-.4-.8-.9-1.3-1-.2-.2-.1-.5 0-.5.8.1 1.3.5 1.9.9l1.5 1.2-.8-.2c.7-.2 1.4-.4 2.2-.4a5 5 0 0 1 2 .2c.2 0 .3.2.2.3l-.2.2Zm0 0"/>
  <path fill="#00c853" d="m70 36 .7 2-1-.4 1.8-1.2.3.1v.2l-1.3 1.8c-.3.5-1 .2-1-.4l.1-2c0-.2.3-.3.4 0Zm0 0"/>
  <path fill="#00c853" d="M63.7 39.7c.8-1.9 4.8-2.5 6.6-2.2 1.3.6 2.4 1.8 2.8 3.3l-.1 1c0 .2-.3.2-.4 0-.6-.5-.8-1.1-1.3-1.7-.4-.6-1-1-1.5-1.5h.3l-1.6.2c-1 .1-2.1.3-3.1.6-.5.1-1 .2-1.4.5-.1.2-.4 0-.3-.2Zm0 0"/>
  <path fill="#390075" d="M70.9 42.8h-.1a.5.5 0 0 1-.4-.6v-1.3l-.1-.2-.1-.4-.4-1v-.2l-.5.1a10 10 0 0 0-2 1l-.7.8c-.1.2-.4.3-.7.1a.5.5 0 0 1-.2-.6l.9-1.1c-.4 0-.8 0-1.1.2L64 40a.4.4 0 0 1-.6-.5c0-.3.3-.6.6-.8l.8-.6a6 6 0 0 1 1.1-.5l-1.2.1h-.3l-.2-.3c0-.2 0-.4.2-.5a6.2 6.2 0 0 1 3-.4 9.3 9.3 0 0 1 1.8.3V36l.2-.3a.4.4 0 0 1 .8.1l.2.9 1-.6c.1 0 .4 0 .5.2.1.1.1.3 0 .4h1l1.2.3c.2.1.3.4.2.6 0 .2-.2.3-.5.3a4 4 0 0 0-1.2 0 7.1 7.1 0 0 1 2.1 1.6c.2.2.2.5 0 .7h-.6a5.3 5.3 0 0 0-2-1l-.1-.1-.8-.2.2 1v1.2l-.1 1.2a.5.5 0 0 1-.5.4Zm-.9-4.1.1.1.2.3a6.9 6.9 0 0 1 .4 1.4v.1l.1.2v1.4h.1l.2-1V40l-.3-1.2a.2.2 0 0 1 .2-.4h.2a8 8 0 0 1 2.3.7l.7.5a6.8 6.8 0 0 0-2.4-1.5l-.2-.3.2-.2h.2a5.6 5.6 0 0 1 1.8-.2 4 4 0 0 0-.8-.2 5.8 5.8 0 0 0-1.4 0h-.3v-.4l.2-.1-1 .6h-.2l-.1-.2-.3-1-.1 1-.1.2s-.1.1-.2 0a11.1 11.1 0 0 0-2-.3 7.8 7.8 0 0 0-1.9.1 5.5 5.5 0 0 1 1.8.2l.2.2c0 .2-.1.3-.2.3a8.7 8.7 0 0 0-2.3.7l-.7.5a2 2 0 0 0-.4.6c.4-.3.9-.5 1.3-.6a15 15 0 0 1 2-.4c.2 0 .3 0 .3.2v.3l-.7.5a3.6 3.6 0 0 0-.7 1l.8-.8 1-.6a10.2 10.2 0 0 1 1.7-.7h.3Zm4.6 1.4Zm-.1-.1Zm0 0Zm-2.8-3.3Zm0 0"/>
  <path fill="#390075" d="M72.8 42.2h-.2l-.2-.1-.6-.9-.1-.1-.6-.9v-.1l-.3-1.2v-.3l.2-.1h.2l1 .2.1.1.3.3a5.3 5.3 0 0 1 .7 1.6V42a.5.5 0 0 1-.5.3Zm-.7-1.4.1.2.5.7.1-.3v-.9l-.6-1c0-.2-.1-.2-.2-.3l-.7-.2.2 1 .6.8Zm1 .5Zm-3.5-3.8h-.1a11.1 11.1 0 0 0-1.2-.3l-.5-.5-.7-.5a.4.4 0 0 1 .2-.8c.4 0 .7.2 1 .3a7.1 7.1 0 0 1 1.4 1l.1.2v.4l-.1.1h-.1Zm-1-.7a6.2 6.2 0 0 1 .7.1 9.3 9.3 0 0 0-1.6-1l.4.4.5.5Zm-1.9 2.4c.4-.4 1-.7 1.5-1 .1 0 .7-.3.7 0v.1a2 2 0 0 0-.6.2L67 39.6c-.2.2-.5-.1-.3-.4Zm.1-1.7H68s.5 0 .4.3h-.5l-1 .1c-.3 0-.4-.4 0-.4Zm0 5.7.4.2c.2 0 .2.3 0 .4l-.4.1c-.2.1-.4 0-.5-.2-.2-.3.2-.6.5-.5Zm.4 2.5-.6-.2a.2.2 0 0 1-.1-.3l.1-.1.6-.2c.2 0 .4.1.4.3.1.3-.1.6-.4.5Zm-1.5.9.8.2v.2l-.8.3c-.2 0-.4 0-.5-.2-.1-.3.2-.6.5-.5Zm0 0"/>
  <g clip-path="url(#t)">
    <path fill="#fff176" d="M12.7 49.3S11 39 6 35.2c0 0 4.7 9.7 3.7 14.1Zm0 0"/>
  </g>
  <g clip-path="url(#u)">
    <path fill="#390075" d="M12.7 49.6h-3l-.1-.1s-.1-.2 0-.2c1-4.4-3.7-14-3.7-14V35h.3c5.1 3.7 6.6 13.9 6.7 14.3v.2h-.2ZM10 49h2.3c-.3-1.6-1.8-9.4-5.6-13 1.1 2.5 4 9.2 3.3 13Zm0 0"/>
  </g>
  <path fill="#00c853" d="M4.8 40.5a7 7 0 0 1 0-2.9c0-.7.2-1.4.5-2 .2-.5.3-1.2 1-1a14 14 0 0 1 4 2.5l1 1.3c0 .1 0 .3-.2.4l-.3-.1c-.3-.4-.6-.8-1-1-1.1-1-2.5-1.5-3.9-2l.7-.2c0 .2-.2.4-.3.5-.5 1-.8 2-1 3v1.4c.1.4-.4.4-.5.1Zm0 0"/>
  <path fill="#00c853" d="M12.8 34.6a8 8 0 0 0-6 1l-.4.1H6l-.7.1a9 9 0 0 0-4.2 1.6l-.5.3H.4v-.3l.4-.4a9.9 9.9 0 0 1 5.3-2.4h-.3a12.8 12.8 0 0 1 5.4-.8c.6 0 1.2.2 1.7.4l.1.2c0 .1 0 .2-.2.2Zm0 0"/>
  <path fill="#00c853" d="M1.1 34.3a7 7 0 0 1 4 0l1.3.3-.8.2a14 14 0 0 1 2.9-2.2l1.1-.4.3.1c0 .1 0 .2-.2.3-.3 0-.6.3-.9.5a11.3 11.3 0 0 0-2.2 2.5h-.1c-.2.2-.5.3-.7.1-.7-.4-1.4-.7-2.2-.9-.8-.2-1.6-.2-2.4 0-.2 0-.3-.4 0-.5Zm0 0"/>
  <path fill="#00c853" d="m6.6 32.7.1 2.6c0 .5-.7.8-1 .3L4 33.5v-.3h.2l2.3 1.5-1 .4.7-2.5c.1-.2.4-.1.4.1Zm0 0"/>
  <path fill="#00c853" d="M13.8 37.5C12 36.2 8.3 36 6 35.8l.3-.1c-.9.7-1.7 1.5-2.3 2.5l-1.2 1.7a.2.2 0 0 1-.4 0v-1.3a6.7 6.7 0 0 1 3.3-4H7c1.2 0 2.2.1 3.3.4 1 .3 2.1.6 3 1.4.3.2.5.5.7.9l-.1.2h-.2Zm0 0"/>
  <path fill="#390075" d="M5.1 41h-.3a.6.6 0 0 1-.3-.4L4.3 39v-1.5l.3-1.3a10 10 0 0 0-2.5.8L.9 38c-.2.2-.5.2-.7 0a.5.5 0 0 1 0-.7 7.6 7.6 0 0 1 2.6-2l.3-.1-.7-.1H1.3a.5.5 0 0 1-.3-1 6 6 0 0 1 2.8-.3.5.5 0 0 1 0-.6c0-.2.4-.3.6-.2l1.2.8.4-1.1c0-.2.2-.4.4-.4a.5.5 0 0 1 .5.5l.1 1.1a11.4 11.4 0 0 1 2.3-.4h2l1.8.6a.5.5 0 0 1 0 .8h-.3a6.3 6.3 0 0 0-2-.1 8 8 0 0 1 1.8.7l1 .7c.4.3.6.7.8 1v.5l-.4.2h-.4c-.5-.4-1-.6-1.7-.8l-1.6-.3.2.2c.5.5.8.9 1 1.4.1.2 0 .5-.2.7-.3.2-.6 0-.8-.2l-.9-.9a12.2 12.2 0 0 0-3-1.5h-.1l-.1.4a8.3 8.3 0 0 0-.6 1.6v.5l-.1.1v1.3c0 .3-.2.5-.4.6H5Zm-.3-2v.2a7.1 7.1 0 0 0 .3 1.4h.1v-2.1l.1-.2v-.1l.2-.5c0-.4.2-.9.4-1.3l.2-.2V36l.1-.1v-.1h.4a11.4 11.4 0 0 1 3.3 1.6l1 1c0 .1.1.1.1 0a3 3 0 0 0-.9-1.3l-.8-.7v-.3l.2-.1h.6l2 .5c.6.1 1.2.3 1.8.7l-.6-.8-1-.7a8.1 8.1 0 0 0-2.8-1 .2.2 0 0 1-.2-.1c0-.2 0-.3.2-.3a9 9 0 0 1 1.7-.2h1.3l-1.3-.2a9.8 9.8 0 0 0-3.6.2l-.7.2h-.3v-.2l-.1-1.5-.6 1.4-.1.2h-.2l-1.5-1 .4.5v.3l-.2.1H2.4l-1.2.3a5.5 5.5 0 0 1 2.5.2h.2l.2.3c0 .1 0 .2-.2.2a11.2 11.2 0 0 0-2.2 1.3 7 7 0 0 0-1.1 1l1.3-.8 1.4-.6h.2l1.2-.3h.4v.5L5 37.7l-.1.6v.4Zm8-4.5Zm0 0"/>
  <path fill="#390075" d="M2.8 40.3h-.3a.6.6 0 0 1-.3-.4v-.4l-.1-.3v-.7l.2-.4a6.7 6.7 0 0 1 1-2h.2l1.2-.3h.4v.5a9 9 0 0 0-.2 1.4l-.1.2a7.2 7.2 0 0 0-.7 1l-.2.2-.7 1-.3.2h-.1Zm-.2-1.1a5.2 5.2 0 0 0 0 .6h.2l.7-1 .1-.1c.3-.4.5-.8.8-1v-.1l.2-1.3-1 .2a6.9 6.9 0 0 0-1 2.1v.6Zm4.2-4.8h-.2v-.9a13.1 13.1 0 0 1 1.7-1.2l1.3-.4c.2 0 .4.1.5.3.1.3 0 .5-.3.6l-.8.6-.7.6h-.1a11 11 0 0 0-1.3.4h-.1Zm.2-.6a11.4 11.4 0 0 1 1-.2l.7-.6c.2-.2.6-.5 1-.6-.4 0-.8.2-1.1.4a8.7 8.7 0 0 0-1.6 1Zm3 3.2-1.1-.8-1.2-.8c-.1 0 0-.2 0-.2.8.1 1.4.6 2 1l.6.5c.1.1.1.3 0 .4H10Zm.1-2c-.5 0-1.1-.2-1.7-.1-.1 0-.2-.1 0-.2.3-.3.8-.3 1.3-.3.3 0 .7 0 .7.4l-.3.2Zm.1 7.5-.5-.2c-.2 0-.2-.3 0-.4l.5-.2c.2 0 .4 0 .5.3.1.3-.2.6-.5.5ZM9.8 44h.7l.1.3-.1.2-.7.1c-.6.1-.6-.8 0-.7Zm1.8 2.7-1-.2v-.3l1-.2c.2 0 .4 0 .5.2 0 .3-.2.6-.5.5Zm0 0"/>
  <g clip-path="url(#v)">
    <path fill="#390075" d="M.5 49.2C2 49 3.5 49 5 49h4.5l9-.1h49.9c1.5 0 3 0 4.6.3v.2c-1.5.4-3 .3-4.6.3H5a58.5 58.5 0 0 1-4.6-.4v-.1Zm0 0"/>
  </g>
  <path fill="none" stroke="#fff" stroke-width="3.1" d="M15.6 51.7V53H13v7.2h-1.7V53H8.9v-1.4Zm1.1 8.6v-9.1h1.7v3.4l.9-.7 1.1-.2c1.4 0 2.2.8 2.2 2.4v4.2h-1.7v-4c0-.4 0-.7-.2-1l-.9-.2c-.4 0-.8.1-1 .4-.3.3-.4.8-.4 1.4v3.4Zm13.1-2.9h-4.2c0 .6.2 1 .5 1.2.3.3.7.4 1.1.4.4 0 .7 0 1-.2.2-.1.4-.3.5-.6h.1l1.1.7a2 2 0 0 1-1 1 3 3 0 0 1-1.7.5c-.6 0-1.2-.1-1.7-.4a2 2 0 0 1-1.1-1.1A4 4 0 0 1 24 57a3.4 3.4 0 0 1 1.5-3c.5-.2 1-.3 1.6-.3 1 0 1.6.2 2.1.7.5.5.8 1.2.8 2.1v.8Zm-1.4-1c0-.5-.1-.9-.3-1.1-.3-.2-.6-.4-1-.4-.8 0-1.3.5-1.4 1.5Zm9 4c-.7 0-1.3-.2-1.8-.5s-1-.8-1.2-1.5C34 57.8 34 57 34 56s.1-1.8.5-2.5a4 4 0 0 1 1.4-1.5c.6-.3 1.3-.4 2.1-.4s1.5.1 2.1.4c.6.3 1 .8 1.2 1.4l-1.2.7H40c-.2-.4-.5-.6-.8-.8-.3-.2-.7-.3-1.2-.3-.7 0-1.3.3-1.7.7-.4.5-.6 1.3-.6 2.3 0 1 .2 1.8.6 2.3.3.4.9.7 1.6.7.6 0 1-.2 1.4-.5.3-.2.4-.7.4-1.2v-.4h-2v-1.4h3.7v4.8h-1.6V59h-.1a2 2 0 0 1-.9 1c-.3.2-.8.3-1.3.3Zm5.8-.1v-6.5h1.6v1h.1l.6-.8c.3-.2.6-.3 1-.3l.8.2-.3 1.4a1.6 1.6 0 0 0-.7 0c-.4 0-.8 0-1 .4-.2.3-.4.8-.4 1.6v3Zm10.6-2.9h-4.2c0 .6.2 1 .5 1.2.3.3.6.4 1.1.4.4 0 .7 0 1-.2l.5-.6 1.2.7c-.2.4-.6.8-1 1a3 3 0 0 1-1.7.5 3 3 0 0 1-1.7-.4c-.5-.2-.9-.6-1.2-1.1A4 4 0 0 1 48 57c0-.7.2-1.3.5-1.8a3 3 0 0 1 1-1.2 5 5 0 0 1 1.7-.3c1 0 1.6.2 2.1.7.5.5.7 1.2.7 2.1v.8Zm-1.4-1c0-.5-.2-.9-.4-1.1-.2-.2-.5-.4-1-.4-.7 0-1.2.5-1.4 1.5Zm4.5 4c-.4 0-.7 0-1-.2-.3-.2-.6-.4-.7-.7-.2-.3-.3-.6-.3-1s0-.8.3-1c.1-.3.4-.5.7-.7l1.4-.4c.4 0 .7 0 .9-.2l.4-.2v-.4l-.1-.4c-.2-.2-.4-.2-.8-.2-.3 0-.7 0-1 .2l-.8.7h-.2l-.6-1a4 4 0 0 1 1.2-1l1.5-.2a3 3 0 0 1 1.9.5c.4.4.6 1 .6 1.6v2.8c0 .3 0 .4.3.4h.4l.1 1.1-.4.2h-.5c-.4 0-.7 0-.9-.2-.2-.1-.4-.4-.5-.7-.4.7-1 1-1.9 1Zm.6-1.2c.3 0 .6-.1.9-.4.2-.2.3-.6.3-1V57h-.1l-.4.2-.7.1c-.3 0-.6.2-.7.3l-.3.6c0 .3.1.5.3.7l.7.2Zm8.2-.5.5 1.2a2 2 0 0 1-.7.4 3 3 0 0 1-1 .1 2 2 0 0 1-1.5-.6c-.4-.3-.6-.9-.6-1.6V55h-1v-1.3h1v-1.3l1.7-.2v1.5h1.8V55h-1.8v3c0 .3 0 .5.2.7l.6.2c.2 0 .5-.1.7-.3Zm-48.4 4a3 3 0 0 1 1.6.4 2.5 2.5 0 0 1 1.3 2.3c0 .6-.1 1-.3 1.4-.3.5-.6.8-1 1-.5.2-1 .3-1.6.3h-1.6v3.2H14v-8.6Zm-.2 4c1 0 1.4-.4 1.4-1.3s-.5-1.3-1.4-1.3h-1.4v2.7Zm5 7.4a4 4 0 0 1-.7 0l-.6-.2.3-1.4h.1l.4.1a2.1 2.1 0 0 0 1 0l.5-.4.3-.6-2.6-6.8h1.8l1.6 4.6h.1l1.6-4.6h1.6l-2.6 7a4 4 0 0 1-.7 1.3 2.4 2.4 0 0 1-2 1Zm6.5-2.8v-6.5h1.6v1h.1l.6-.8 1-.2c.3 0 .6 0 .8.2l-.3 1.4a1.7 1.7 0 0 0-.8-.1c-.4 0-.8.1-1 .5-.2.3-.4.8-.4 1.5v3Zm6.7.2c-.4 0-.8-.1-1-.3-.4-.1-.6-.3-.8-.6-.2-.3-.2-.7-.2-1.1 0-.4 0-.7.2-1 .2-.2.4-.5.8-.6a5 5 0 0 1 1.3-.4l1-.2.3-.3.1-.3c0-.2 0-.4-.2-.5l-.7-.2c-.4 0-.7.1-1 .3-.4.1-.7.4-.9.6h-.1l-.7-1c.3-.4.7-.7 1.2-.9.5-.2 1-.3 1.6-.3.8 0 1.4.2 1.8.6.4.3.6.9.6 1.5v2.8c0 .3.1.5.4.5h.3l.2 1-.4.2h-.5l-1-.1-.4-.7h-.1c-.3.6-1 1-1.8 1Zm.5-1.3c.4 0 .7 0 1-.3.1-.3.3-.6.3-1V68h-.2l-.3.2-.7.2c-.4 0-.6.1-.8.3l-.2.6c0 .3 0 .5.2.6.2.2.4.2.7.2Zm4.7 1.1v-6.5h1.6v1h.1c.2-.4.5-.7.8-.8.3-.2.6-.3 1-.3.6 0 1 .1 1.3.3.3.2.5.5.6.9h.1c.2-.4.5-.7.8-.9.3-.2.7-.3 1.2-.3 1.3 0 2 .8 2 2.3v4.3h-1.6v-4.1l-.2-.8c-.2-.2-.4-.3-.8-.3-.9 0-1.3.6-1.3 1.8v3.4h-1.6v-4.1c0-.4-.1-.7-.3-.8-.1-.2-.4-.3-.7-.3-.4 0-.7.1-1 .4-.2.3-.3.7-.3 1.4v3.4Zm12-7.2a1 1 0 0 1-.6-.3 1 1 0 0 1-.3-.7c0-.3 0-.5.3-.7.2-.2.4-.2.7-.2h.5a.9.9 0 0 1 .5 1l-.1.4c-.1.1-.2.3-.4.3a1 1 0 0 1-.5.2Zm-.7 7.2v-6.5h1.6v6.5Zm5.7.2a2.5 2.5 0 0 1-2.3-1.5c-.2-.5-.3-1.2-.3-1.9s.1-1.4.4-1.9c.2-.5.5-.9 1-1.1.3-.3.8-.4 1.3-.4.4 0 .8 0 1 .2.4.2.6.4.8.7h.2v-3.4h1.6v9.1h-1.6v-.8h-.2a2 2 0 0 1-.7.7c-.3.2-.7.3-1.2.3Zm.6-1.4c.4 0 .8-.2 1-.5.3-.3.5-.8.5-1.5s-.2-1.2-.4-1.5c-.3-.3-.7-.5-1.1-.5-.5 0-.9.2-1.1.5-.3.3-.4.8-.4 1.5s.1 1.2.4 1.5c.2.3.6.5 1 .5Zm0 0"/>
  <path d="M15.5 51.7v1.4h-2.4v7.2h-1.7V53H8.9v-1.4Zm1.2 8.6v-9.1h1.6v3.4h.2l.8-.7 1.1-.2c1.4 0 2.2.8 2.2 2.4v4.2h-1.7v-4c0-.4 0-.7-.2-1l-.9-.2c-.4 0-.8.1-1 .4a2 2 0 0 0-.5 1.4v3.4Zm13.1-2.9h-4.2c0 .6.2 1 .5 1.2.3.3.7.4 1.1.4.4 0 .7 0 1-.2.2-.1.4-.3.5-.6h.1l1.1.7a2 2 0 0 1-1 1 3 3 0 0 1-1.7.5c-.6 0-1.2-.1-1.7-.4a2 2 0 0 1-1.1-1.1 4 4 0 0 1-.4-1.8c0-.8.1-1.4.4-1.9.3-.5.6-.9 1.1-1.1a3 3 0 0 1 1.6-.4c1 0 1.6.2 2.1.7.5.5.8 1.2.8 2.2v.7Zm-1.4-1c0-.5-.1-.9-.4-1.1-.2-.2-.5-.4-.9-.4-.8 0-1.3.5-1.4 1.5Zm9.1 4c-.8 0-1.4-.1-1.9-.5-.5-.3-1-.8-1.2-1.5-.3-.6-.4-1.4-.4-2.4s.1-1.8.5-2.5c.3-.6.8-1.1 1.4-1.4.6-.4 1.3-.5 2.1-.5s1.5.1 2.1.4c.6.3 1 .8 1.2 1.4l-1.2.7h-.2c-.1-.3-.4-.6-.7-.8-.3-.2-.7-.3-1.2-.3-.7 0-1.3.3-1.7.7-.4.5-.6 1.3-.6 2.3 0 1 .2 1.8.6 2.3.3.4.9.7 1.6.7.6 0 1-.2 1.4-.5.3-.2.4-.7.4-1.2v-.4h-2v-1.4h3.7v4.8h-1.6V59h-.2a2 2 0 0 1-.8 1c-.3.2-.8.3-1.3.3Zm5.7-.1v-6.5h1.6v1h.1l.6-.8c.3-.2.6-.3 1-.3l.8.2-.3 1.4a1.7 1.7 0 0 0-.7-.1c-.4 0-.8.2-1 .5-.3.3-.4.9-.4 1.6v3Zm10.6-2.9h-4.2c0 .6.2 1 .5 1.2.3.3.6.4 1.1.4.4 0 .7 0 1-.2l.5-.6 1.2.7c-.2.4-.6.8-1 1a3 3 0 0 1-1.7.5 3 3 0 0 1-1.7-.4c-.5-.2-1-.6-1.2-1.1a4 4 0 0 1-.4-1.8c0-.8.2-1.4.5-1.9.2-.5.6-.9 1-1.1.6-.3 1.1-.4 1.7-.4.9 0 1.6.2 2.1.7.5.5.7 1.2.7 2.2v.7Zm-1.4-1c0-.5-.2-.9-.4-1.1-.2-.2-.5-.4-1-.4-.7 0-1.2.5-1.4 1.5Zm4.6 4c-.5 0-.8 0-1.1-.2-.4-.2-.6-.4-.8-.7l-.2-1c0-.4 0-.8.2-1l.8-.7 1.4-.4c.4 0 .6 0 .8-.2.3 0 .4-.1.5-.2v-.4l-.1-.4-.8-.2c-.3 0-.7 0-1 .2l-.8.7h-.2l-.6-1a4 4 0 0 1 1.2-1l1.5-.2a3 3 0 0 1 1.9.5c.4.4.6 1 .6 1.6v2.8c0 .3 0 .4.3.4h.4l.1 1.1-.4.2h-.5c-.4 0-.7 0-.9-.2-.2-.1-.4-.4-.5-.7-.4.7-1 1-1.9 1Zm.5-1.2c.3 0 .6-.1.9-.4.2-.2.3-.6.3-1V57h-.1l-.4.2-.7.1c-.3 0-.6.2-.7.3l-.3.6c0 .3.1.5.3.7l.7.2Zm8.2-.5.5 1.2a2 2 0 0 1-.7.4l-1 .1a2 2 0 0 1-1.5-.6c-.4-.3-.6-.9-.6-1.6V55h-1v-1.3h1v-1.3l1.7-.2v1.5h1.8V55h-1.8v3c0 .3 0 .5.2.7l.6.2c.2 0 .5-.1.7-.3Zm-48.4 4c.6 0 1.1.2 1.6.4a2.5 2.5 0 0 1 1.3 2.3c0 .6-.1 1-.4 1.5-.2.4-.5.7-1 1l-1.5.2h-1.6v3.2H14v-8.6Zm-.2 4c1 0 1.4-.4 1.4-1.3s-.5-1.3-1.4-1.3h-1.4v2.7Zm5 7.3h-.7l-.6-.1.3-1.4h.1a2 2 0 0 0 .8.2l.7-.1.4-.4.3-.6-2.6-6.7h1.8l1.6 4.5h.1l1.6-4.5h1.6L25 71.7l-.7 1.4c-.2.3-.5.6-.8.7-.4.2-.8.3-1.3.3Zm6.5-2.7V65h1.6v1h.1l.6-.9 1-.2c.3 0 .6 0 .8.2l-.3 1.4h-.1a1.7 1.7 0 0 0-.7-.1c-.4 0-.8.2-1 .5-.2.3-.4.8-.4 1.5v3Zm6.7.2a2 2 0 0 1-1.1-.3c-.3-.1-.5-.3-.7-.6-.2-.3-.2-.7-.2-1.1 0-.4 0-.7.2-1l.8-.6c.3-.2.8-.3 1.3-.4l.9-.2c.2 0 .3-.2.4-.3l.1-.3c0-.2 0-.4-.2-.5l-.7-.2c-.4 0-.7.1-1 .3-.4.1-.7.4-.9.6h-.1l-.7-1c.3-.4.7-.7 1.2-.9.5-.2 1-.3 1.6-.3.8 0 1.4.2 1.8.6.4.3.6.9.6 1.5v2.9c0 .2.1.4.4.4h.3l.2 1-.4.2h-.5l-1-.1-.4-.7H37c-.3.6-1 1-1.8 1Zm.5-1.3c.4 0 .7 0 .9-.3.2-.3.3-.6.3-1v-.7l-.5.1-.6.2c-.4 0-.6.1-.8.3l-.2.6c0 .3 0 .5.2.6.2.2.4.2.7.2Zm4.7 1.1V65h1.6v.8h.1c.2-.3.5-.6.8-.7.3-.2.6-.3 1-.3.6 0 1 .1 1.3.3.3.2.5.5.6.9h.1c.2-.4.5-.7.8-.9.3-.2.7-.3 1.2-.3 1.3 0 2 .8 2 2.3v4.3h-1.6v-4.1c0-.4-.1-.7-.3-.8-.1-.2-.3-.3-.7-.3-.9 0-1.3.6-1.3 1.8v3.4h-1.6v-4.1c0-.4-.1-.7-.3-.8-.1-.2-.4-.3-.7-.3-.4 0-.7.1-1 .4-.2.3-.3.8-.3 1.4v3.4ZM52.6 64a1 1 0 0 1-.7-.2.9.9 0 0 1-.3-.7c0-.3 0-.5.3-.7l.7-.2h.5a1 1 0 0 1 .5 1l-.1.4c-.1.2-.2.3-.4.3a1 1 0 0 1-.5.2Zm-.8 7.3V65h1.6v6.4Zm5.7.2a2.5 2.5 0 0 1-2.3-1.5c-.2-.5-.3-1.2-.3-1.9s.1-1.4.4-1.9c.2-.5.5-.8 1-1.1.3-.2.8-.4 1.3-.4l1 .2c.4.2.6.4.8.7h.2v-3.4h1.6v9.1h-1.6v-.8h-.2a2 2 0 0 1-.7.7c-.3.2-.7.3-1.2.3Zm.6-1.4c.4 0 .8-.2 1-.5.3-.3.5-.8.5-1.5s-.2-1.2-.5-1.5c-.2-.3-.6-.5-1-.5-.5 0-.9.2-1.1.5-.3.3-.4.8-.4 1.5s.1 1.2.4 1.5c.2.3.6.5 1 .5Zm0 0"/>
</svg>
