<svg width="100" height="100" viewBox="0 0 100 100" fill="none" xmlns="http://www.w3.org/2000/svg">
<g clip-path="url(#clip0_499_2866)">
<g clip-path="url(#clip1_499_2866)">
<path d="M68.2196 61.6769L57.3887 48.4609L63.1065 61.6769H68.2196Z" fill="#F9AA4A"/>
<path d="M63.1055 61.6758L78.2614 96.702H96.9266L68.2186 61.6758H63.1055Z" fill="#F78E1E"/>
<path d="M78.2612 96.702L63.1053 61.6758H49.1241L25.9258 96.702H78.2612Z" fill="#F9AA4A"/>
<path d="M57.3885 48.4609L49.125 61.6769H63.1063L57.3885 48.4609Z" fill="#FBCE45"/>
<path d="M59.1197 69.2106H51.9922V66.9707H59.1197V69.2106Z" fill="#FBCE45"/>
<path d="M49.1427 75.7262H42.0156V73.4863H49.1427V75.7262Z" fill="#FBCE45"/>
<path d="M62.7858 80.4098H55.6582V78.1699H62.7858V80.4098Z" fill="#FBCE45"/>
<path d="M49.1427 87.3341H42.0156V85.0938H49.1427V87.3341Z" fill="#FBCE45"/>
<path d="M70.7272 92.6286H63.5996V90.3887H70.7272V92.6286Z" fill="#FBCE45"/>
<path d="M87.8321 89.5739H80.7051V87.334H87.8321V89.5739Z" fill="#F9AA4A"/>
<path d="M78.2623 77.967H71.1348V75.7266H78.2623V77.967Z" fill="#F9AA4A"/>
<path d="M72.7638 72.8747H68.8945V70.6348H72.7638V72.8747Z" fill="#F9AA4A"/>
<path d="M91.3095 72.0739L90.3947 72.8847L90.9346 73.4938C92.2258 72.3501 92.0062 70.25 90.6013 68.6656C89.1969 67.0803 87.1379 66.6091 85.8477 67.7532L86.4775 68.4649L87.3924 67.6545L88.0677 68.4165L87.1529 69.2263L87.5588 69.6835L88.4727 68.8732L89.148 69.6351L88.2341 70.4459L88.6391 70.9031L89.5529 70.0928L90.2283 70.8547L89.3144 71.6651L89.7194 72.1227L90.6342 71.3119L91.3095 72.0739Z" fill="#4DBA57"/>
<path d="M90.237 72.349L90.5606 73.5271L91.3458 73.3113C90.8901 71.649 88.9085 70.9185 86.8655 71.4797C84.8235 72.0404 83.4926 73.679 83.9493 75.3422L84.8655 75.0902L84.5419 73.9121L85.5235 73.6422L85.8476 74.8212L86.4369 74.6591L86.1132 73.4811L87.0948 73.2111L87.4185 74.3901L88.0077 74.2281L87.6841 73.0496L88.6656 72.7801L88.9893 73.9581L89.5781 73.7965L89.2554 72.6185L90.237 72.349Z" fill="#4DBA57"/>
<path d="M91.2636 72.0739L92.1779 72.8847L91.6376 73.4938C90.3468 72.3501 90.567 70.25 91.9719 68.6656C93.3768 67.0803 95.4343 66.6091 96.7245 67.7532L96.0946 68.4649L95.1798 67.6545L94.5054 68.4165L95.4193 69.2263L95.0144 69.6835L94.0995 68.8732L93.4242 69.6351L94.339 70.4459L93.9336 70.9031L93.0192 70.0928L92.3439 70.8547L93.2582 71.6651L92.8533 72.1227L91.9385 71.3119L91.2636 72.0739Z" fill="#4DBA57"/>
<path d="M92.3354 72.349L92.0117 73.5271L91.2266 73.3113C91.6833 71.649 93.6639 70.9185 95.7064 71.4797C97.7494 72.0404 99.0803 73.679 98.6236 75.3422L97.7073 75.0902L98.03 73.9121L97.0484 73.6422L96.7247 74.8212L96.136 74.6591L96.4591 73.4811L95.4775 73.2111L95.1539 74.3901L94.5651 74.2281L94.8878 73.0496L93.9062 72.7801L93.5826 73.9581L92.9938 73.7965L93.317 72.6185L92.3354 72.349Z" fill="#4DBA57"/>
<path d="M92.0588 85.0951H90.4638L89.666 83.6699H92.8566L92.0588 85.0951Z" fill="#B36130"/>
<path d="M92.0588 83.6684H90.4638L89.666 82.0391H92.8566L92.0588 83.6684Z" fill="#854826"/>
<path d="M92.0588 82.0385H90.4638L89.666 80.6133H92.8566L92.0588 82.0385Z" fill="#B36130"/>
<path d="M92.0588 80.6152H90.4638L89.666 79.1895H92.8566L92.0588 80.6152Z" fill="#854826"/>
<path d="M92.0588 79.1889H90.4638L89.666 77.7637H92.8566L92.0588 79.1889Z" fill="#B36130"/>
<path d="M92.0588 77.7641H90.4638L89.666 76.1348H92.8566L92.0588 77.7641Z" fill="#854826"/>
<path d="M92.0588 76.1342H90.4638L89.666 74.709H92.8566L92.0588 76.1342Z" fill="#B36130"/>
<path d="M92.0588 74.7089H90.4638L89.666 73.2832H92.8566L92.0588 74.7089Z" fill="#854826"/>
<path d="M92.0588 96.9042H90.4638L89.666 95.4785H92.8566L92.0588 96.9042Z" fill="#B36130"/>
<path d="M92.0588 95.4805H90.4638L89.666 93.8516H92.8566L92.0588 95.4805Z" fill="#854826"/>
<path d="M92.0588 93.8515H90.4638L89.666 92.4258H92.8566L92.0588 93.8515Z" fill="#B36130"/>
<path d="M92.0588 92.4252H90.4638L89.666 91H92.8566L92.0588 92.4252Z" fill="#854826"/>
<path d="M92.0588 90.9999H90.4638L89.666 89.5742H92.8566L92.0588 90.9999Z" fill="#B36130"/>
<path d="M92.0588 89.5742H90.4638L89.666 87.9453H92.8566L92.0588 89.5742Z" fill="#854826"/>
<path d="M92.0588 87.9452H90.4638L89.666 86.5195H92.8566L92.0588 87.9452Z" fill="#B36130"/>
<path d="M92.0588 86.5195H90.4638L89.666 85.0938H92.8566L92.0588 86.5195Z" fill="#854826"/>
<path d="M36.5224 78.3753L29.4805 71.4297L33.1983 78.3753H36.5224Z" fill="#F9AA4A"/>
<path d="M33.1973 78.375L43.0514 96.7026H55.1866L36.5213 78.375H33.1973Z" fill="#F78E1E"/>
<path d="M43.0531 96.7026L33.199 78.375H24.1082L9.02539 96.7026H43.0531Z" fill="#F9AA4A"/>
<path d="M29.4803 71.4297L24.1074 78.3753H33.1982L29.4803 71.4297Z" fill="#FBCE45"/>
<path d="M30.6093 82.2444H25.9258V81.2266H30.6093V82.2444Z" fill="#FBCE45"/>
<path d="M24.0936 85.7059H19.4102V84.4844H24.0936V85.7059Z" fill="#FBCE45"/>
<path d="M33.0526 88.1487H28.3691V87.1309H33.0526V88.1487Z" fill="#FBCE45"/>
<path d="M24.0936 91.8133H19.4102V90.5918H24.0936V91.8133Z" fill="#FBCE45"/>
<path d="M38.1449 94.6649H33.4609V93.4434H38.1449V94.6649Z" fill="#FBCE45"/>
<path d="M49.3456 93.0365H44.6621V91.8145H49.3456V93.0365Z" fill="#F9AA4A"/>
<path d="M43.0311 86.7234H38.3477V85.7051H43.0311V86.7234Z" fill="#F9AA4A"/>
<path d="M39.5711 84.075H36.9238V83.0566H39.5711V84.075Z" fill="#F9AA4A"/>
<path d="M13.1696 79.343L12.5228 79.9158L12.9045 80.3468C13.8179 79.5379 13.6626 78.0537 12.6684 76.9318C11.6747 75.8109 10.2191 75.4776 9.30664 76.2874L9.7522 76.7901L10.399 76.2168L10.877 76.7562L10.2302 77.329L10.5166 77.6526L11.1634 77.0789L11.6404 77.6183L10.9941 78.1911L11.281 78.5147L11.9278 77.9415L12.4053 78.4809L11.7584 79.0532L12.0453 79.3773L12.6921 78.8035L13.1696 79.343Z" fill="#4DBA57"/>
<path d="M12.4111 79.5379L12.6404 80.3715L13.1953 80.2191C12.8726 79.0425 11.4716 78.5263 10.027 78.923C8.58246 79.3192 7.6415 80.4784 7.9637 81.6549L8.61197 81.4764L8.38363 80.6438L9.07833 80.4527L9.3062 81.2863L9.72322 81.1716L9.49439 80.339L10.1896 80.148L10.4179 80.9815L10.8345 80.8673L10.6056 80.0333L11.2999 79.8437L11.5292 80.6762L11.9457 80.5616L11.7169 79.729L12.4111 79.5379Z" fill="#4DBA57"/>
<path d="M13.1368 79.343L13.7836 79.9158L13.4009 80.3468C12.4885 79.5379 12.6438 78.0537 13.6375 76.9318C14.6307 75.8109 16.0864 75.4776 16.9997 76.2874L16.5537 76.7901L15.9069 76.2168L15.4294 76.7562L16.0762 77.329L15.7888 77.6526L15.1425 77.0789L14.665 77.6183L15.3118 78.1911L15.0254 78.5147L14.3786 77.9415L13.9006 78.4809L14.5475 79.0532L14.2611 79.3773L13.6142 78.8035L13.1368 79.343Z" fill="#4DBA57"/>
<path d="M13.8965 79.5379L13.6682 80.3715L13.1133 80.2191C13.4355 79.0425 14.837 78.5263 16.2816 78.923C17.7261 79.3192 18.6671 80.4784 18.3444 81.6549L17.6957 81.4764L17.925 80.6438L17.2307 80.4527L17.0014 81.2863L16.5844 81.1716L16.8137 80.339L16.119 80.148L15.8912 80.9815L15.4741 80.8673L15.7025 80.0333L15.0078 79.8437L14.7799 80.6762L14.3629 80.5616L14.5912 79.729L13.8965 79.5379Z" fill="#4DBA57"/>
<path d="M13.7001 88.555H12.5719L12.0078 87.5371H14.2642L13.7001 88.555Z" fill="#B36130"/>
<path d="M13.7001 87.5384H12.5719L12.0078 86.3164H14.2642L13.7001 87.5384Z" fill="#854826"/>
<path d="M13.7001 86.3152H12.5719L12.0078 85.2969H14.2642L13.7001 86.3152Z" fill="#B36130"/>
<path d="M13.7001 85.2991H12.5719L12.0078 84.2812H14.2642L13.7001 85.2991Z" fill="#854826"/>
<path d="M13.7001 84.2795H12.5719L12.0078 83.4648H14.2642L13.7001 84.2795Z" fill="#B36130"/>
<path d="M13.7001 83.4642H12.5719L12.0078 82.2422H14.2642L13.7001 83.4642Z" fill="#854826"/>
<path d="M13.7001 82.2444H12.5719L12.0078 81.2266H14.2642L13.7001 82.2444Z" fill="#B36130"/>
<path d="M13.7001 81.2254H12.5719L12.0078 80.207H14.2642L13.7001 81.2254Z" fill="#854826"/>
<path d="M13.7001 96.9051H12.5719L12.0078 95.8867H14.2642L13.7001 96.9051Z" fill="#B36130"/>
<path d="M13.7001 95.888H12.5719L12.0078 94.666H14.2642L13.7001 95.888Z" fill="#854826"/>
<path d="M13.7001 94.6663H12.5719L12.0078 93.6484H14.2642L13.7001 94.6663Z" fill="#B36130"/>
<path d="M13.7001 93.6473H12.5719L12.0078 92.6289H14.2642L13.7001 93.6473Z" fill="#854826"/>
<path d="M13.7001 92.6291H12.5719L12.0078 91.8145H14.2642L13.7001 92.6291Z" fill="#B36130"/>
<path d="M13.7001 91.8133H12.5719L12.0078 90.5918H14.2642L13.7001 91.8133Z" fill="#854826"/>
<path d="M13.7001 90.5926H12.5719L12.0078 89.5742H14.2642L13.7001 90.5926Z" fill="#B36130"/>
<path d="M13.7001 89.575H12.5719L12.0078 88.5566H14.2642L13.7001 89.575Z" fill="#854826"/>
<mask id="mask0_499_2866" style="mask-type:luminance" maskUnits="userSpaceOnUse" x="7" y="34" width="29" height="29">
<path d="M7.92578 34.5469H35.7916V62.3507H7.92578V34.5469Z" fill="white"/>
</mask>
<g mask="url(#mask0_499_2866)">
<path d="M35.7596 48.442C35.7596 56.1158 29.5381 62.3372 21.8639 62.3372C14.1902 62.3372 7.96875 56.1158 7.96875 48.442C7.96875 40.7683 14.1902 34.5469 21.8639 34.5469C29.5381 34.5469 35.7596 40.7683 35.7596 48.442Z" fill="#FBCE45"/>
</g>
<path d="M100.256 99.7577H0.0644531V96.7031H100.256V99.7577Z" fill="#FBCE45"/>
<mask id="path-68-outside-1_499_2866" maskUnits="userSpaceOnUse" x="13" y="71" width="71" height="28" fill="black">
<rect fill="white" x="13" y="71" width="71" height="28"/>
<path d="M14.625 74.9858V73.2727H22.0014V74.9858H19.3551V82H17.2756V74.9858H14.625ZM23.0316 82V73.2727H25.141V76.7756H28.5799V73.2727H30.685V82H28.5799V78.4929H25.141V82H23.0316ZM32.0082 82V73.2727H38.0934V74.9858H34.1175V76.7756H37.7823V78.4929H34.1175V80.2869H38.0934V82H32.0082ZM47.7198 76.1236C47.6715 75.9446 47.6005 75.7869 47.5067 75.6506C47.413 75.5114 47.2979 75.3935 47.1616 75.2969C47.0252 75.2003 46.869 75.1278 46.6928 75.0795C46.5167 75.0284 46.3235 75.0028 46.1133 75.0028C45.69 75.0028 45.3235 75.1051 45.0138 75.3097C44.707 75.5142 44.4698 75.8125 44.3022 76.2045C44.1346 76.5937 44.0508 77.0668 44.0508 77.6236C44.0508 78.1832 44.1317 78.6605 44.2937 79.0554C44.4556 79.4503 44.69 79.7514 44.9968 79.9588C45.3036 80.1662 45.6758 80.2699 46.1133 80.2699C46.4996 80.2699 46.8263 80.2074 47.0934 80.0824C47.3633 79.9545 47.5678 79.7741 47.707 79.5412C47.8462 79.3082 47.9158 79.0341 47.9158 78.7188L48.3079 78.7656H46.1857V77.2273H49.9485V78.3821C49.9485 79.1634 49.7823 79.8324 49.4499 80.3892C49.1204 80.946 48.6658 81.3736 48.0863 81.6719C47.5096 81.9702 46.8462 82.1193 46.0962 82.1193C45.2638 82.1193 44.5323 81.9389 43.9016 81.5781C43.271 81.2173 42.7795 80.7031 42.4272 80.0355C42.0749 79.3651 41.8988 78.5696 41.8988 77.6491C41.8988 76.9332 42.0053 76.2983 42.2184 75.7443C42.4315 75.1875 42.7283 74.7159 43.109 74.3295C43.4925 73.9432 43.9357 73.6506 44.4386 73.4517C44.9442 73.2528 45.4883 73.1534 46.0707 73.1534C46.5763 73.1534 47.0465 73.2259 47.4812 73.3707C47.9187 73.5156 48.305 73.7202 48.6403 73.9844C48.9783 74.2486 49.2525 74.5625 49.4627 74.9261C49.6729 75.2898 49.8036 75.6889 49.8548 76.1236H47.7198ZM51.1918 82V73.2727H54.7969C55.4503 73.2727 56.0142 73.3906 56.4886 73.6264C56.9659 73.8594 57.3338 74.1946 57.5923 74.6321C57.8509 75.0668 57.9801 75.5824 57.9801 76.179C57.9801 76.7841 57.848 77.2983 57.5838 77.7216C57.3196 78.142 56.9446 78.4631 56.4588 78.6847C55.973 78.9034 55.3977 79.0128 54.733 79.0128H52.4531V77.3509H54.3409C54.6591 77.3509 54.9247 77.3097 55.1378 77.2273C55.3537 77.142 55.517 77.0142 55.6278 76.8438C55.7386 76.6705 55.794 76.4489 55.794 76.179C55.794 75.9091 55.7386 75.6861 55.6278 75.5099C55.517 75.331 55.3537 75.1974 55.1378 75.1094C54.9219 75.0185 54.6563 74.973 54.3409 74.973H53.3011V82H51.1918ZM56.1051 78.0114L58.2784 82H55.9773L53.8466 78.0114H56.1051ZM59.1371 82V73.2727H65.2223V74.9858H61.2464V76.7756H64.9112V78.4929H61.2464V80.2869H65.2223V82H59.1371ZM68.4311 82H66.1641L69.1087 73.2727H71.9169L74.8615 82H72.5945L70.5447 75.4716H70.4766L68.4311 82ZM68.1286 78.5653H72.8672V80.1676H68.1286V78.5653ZM74.4258 74.9858V73.2727H81.8022V74.9858H79.1559V82H77.0763V74.9858H74.4258ZM21.5433 97V88.2727H25.1484C25.8018 88.2727 26.3658 88.4006 26.8402 88.6562C27.3175 88.9091 27.6854 89.2628 27.9439 89.7173C28.2024 90.169 28.3317 90.6946 28.3317 91.294C28.3317 91.8963 28.1996 92.4233 27.9354 92.875C27.674 93.3239 27.3004 93.6719 26.8146 93.919C26.3288 94.1662 25.7521 94.2898 25.0845 94.2898H22.8601V92.6278H24.6925C25.0107 92.6278 25.2763 92.5724 25.4893 92.4616C25.7053 92.3509 25.8686 92.196 25.9794 91.9972C26.0902 91.7955 26.1456 91.5611 26.1456 91.294C26.1456 91.0241 26.0902 90.7912 25.9794 90.5952C25.8686 90.3963 25.7053 90.2429 25.4893 90.1349C25.2734 90.027 25.0078 89.973 24.6925 89.973H23.6527V97H21.5433ZM28.9368 88.2727H31.2933L33.1385 91.9247H33.2152L35.0604 88.2727H37.4169L34.2251 94.0852V97H32.1286V94.0852L28.9368 88.2727ZM38.3011 97V88.2727H41.9062C42.5597 88.2727 43.1236 88.3906 43.598 88.6264C44.0753 88.8594 44.4432 89.1946 44.7017 89.6321C44.9602 90.0668 45.0895 90.5824 45.0895 91.179C45.0895 91.7841 44.9574 92.2983 44.6932 92.7216C44.429 93.142 44.054 93.4631 43.5682 93.6847C43.0824 93.9034 42.5071 94.0128 41.8423 94.0128H39.5625V92.3509H41.4503C41.7685 92.3509 42.0341 92.3097 42.2472 92.2273C42.4631 92.142 42.6264 92.0142 42.7372 91.8438C42.848 91.6705 42.9034 91.4489 42.9034 91.179C42.9034 90.9091 42.848 90.6861 42.7372 90.5099C42.6264 90.331 42.4631 90.1974 42.2472 90.1094C42.0313 90.0185 41.7656 89.973 41.4503 89.973H40.4105V97H38.3011ZM43.2145 93.0114L45.3878 97H43.0866L40.956 93.0114H43.2145ZM48.1342 97H45.8672L48.8118 88.2727H51.62L54.5646 97H52.2976L50.2479 90.4716H50.1797L48.1342 97ZM47.8317 93.5653H52.5703V95.1676H47.8317V93.5653ZM55.5043 88.2727H58.1165L60.3324 93.6761H60.4347L62.6506 88.2727H65.2628V97H63.2088V91.6392H63.1364L61.0398 96.9446H59.7273L57.6307 91.6094H57.5582V97H55.5043V88.2727ZM68.6879 88.2727V97H66.5785V88.2727H68.6879ZM73.2379 97H70.0121V88.2727H73.2337C74.1229 88.2727 74.8885 88.4474 75.5305 88.7969C76.1754 89.1435 76.6726 89.6435 77.022 90.2969C77.3714 90.9474 77.5462 91.7259 77.5462 92.6321C77.5462 93.5412 77.3714 94.3224 77.022 94.9759C76.6754 95.6293 76.1797 96.1307 75.5348 96.4801C74.8899 96.8267 74.1243 97 73.2379 97ZM72.1214 95.2017H73.157C73.6456 95.2017 74.0589 95.1193 74.397 94.9545C74.7379 94.7869 74.995 94.5156 75.1683 94.1406C75.3445 93.7628 75.4325 93.2599 75.4325 92.6321C75.4325 92.0043 75.3445 91.5043 75.1683 91.1321C74.9922 90.7571 74.7322 90.4872 74.3885 90.3224C74.0476 90.1548 73.6271 90.071 73.1271 90.071H72.1214V95.2017Z"/>
</mask>
<path d="M14.625 74.9858V73.2727H22.0014V74.9858H19.3551V82H17.2756V74.9858H14.625ZM23.0316 82V73.2727H25.141V76.7756H28.5799V73.2727H30.685V82H28.5799V78.4929H25.141V82H23.0316ZM32.0082 82V73.2727H38.0934V74.9858H34.1175V76.7756H37.7823V78.4929H34.1175V80.2869H38.0934V82H32.0082ZM47.7198 76.1236C47.6715 75.9446 47.6005 75.7869 47.5067 75.6506C47.413 75.5114 47.2979 75.3935 47.1616 75.2969C47.0252 75.2003 46.869 75.1278 46.6928 75.0795C46.5167 75.0284 46.3235 75.0028 46.1133 75.0028C45.69 75.0028 45.3235 75.1051 45.0138 75.3097C44.707 75.5142 44.4698 75.8125 44.3022 76.2045C44.1346 76.5937 44.0508 77.0668 44.0508 77.6236C44.0508 78.1832 44.1317 78.6605 44.2937 79.0554C44.4556 79.4503 44.69 79.7514 44.9968 79.9588C45.3036 80.1662 45.6758 80.2699 46.1133 80.2699C46.4996 80.2699 46.8263 80.2074 47.0934 80.0824C47.3633 79.9545 47.5678 79.7741 47.707 79.5412C47.8462 79.3082 47.9158 79.0341 47.9158 78.7188L48.3079 78.7656H46.1857V77.2273H49.9485V78.3821C49.9485 79.1634 49.7823 79.8324 49.4499 80.3892C49.1204 80.946 48.6658 81.3736 48.0863 81.6719C47.5096 81.9702 46.8462 82.1193 46.0962 82.1193C45.2638 82.1193 44.5323 81.9389 43.9016 81.5781C43.271 81.2173 42.7795 80.7031 42.4272 80.0355C42.0749 79.3651 41.8988 78.5696 41.8988 77.6491C41.8988 76.9332 42.0053 76.2983 42.2184 75.7443C42.4315 75.1875 42.7283 74.7159 43.109 74.3295C43.4925 73.9432 43.9357 73.6506 44.4386 73.4517C44.9442 73.2528 45.4883 73.1534 46.0707 73.1534C46.5763 73.1534 47.0465 73.2259 47.4812 73.3707C47.9187 73.5156 48.305 73.7202 48.6403 73.9844C48.9783 74.2486 49.2525 74.5625 49.4627 74.9261C49.6729 75.2898 49.8036 75.6889 49.8548 76.1236H47.7198ZM51.1918 82V73.2727H54.7969C55.4503 73.2727 56.0142 73.3906 56.4886 73.6264C56.9659 73.8594 57.3338 74.1946 57.5923 74.6321C57.8509 75.0668 57.9801 75.5824 57.9801 76.179C57.9801 76.7841 57.848 77.2983 57.5838 77.7216C57.3196 78.142 56.9446 78.4631 56.4588 78.6847C55.973 78.9034 55.3977 79.0128 54.733 79.0128H52.4531V77.3509H54.3409C54.6591 77.3509 54.9247 77.3097 55.1378 77.2273C55.3537 77.142 55.517 77.0142 55.6278 76.8438C55.7386 76.6705 55.794 76.4489 55.794 76.179C55.794 75.9091 55.7386 75.6861 55.6278 75.5099C55.517 75.331 55.3537 75.1974 55.1378 75.1094C54.9219 75.0185 54.6563 74.973 54.3409 74.973H53.3011V82H51.1918ZM56.1051 78.0114L58.2784 82H55.9773L53.8466 78.0114H56.1051ZM59.1371 82V73.2727H65.2223V74.9858H61.2464V76.7756H64.9112V78.4929H61.2464V80.2869H65.2223V82H59.1371ZM68.4311 82H66.1641L69.1087 73.2727H71.9169L74.8615 82H72.5945L70.5447 75.4716H70.4766L68.4311 82ZM68.1286 78.5653H72.8672V80.1676H68.1286V78.5653ZM74.4258 74.9858V73.2727H81.8022V74.9858H79.1559V82H77.0763V74.9858H74.4258ZM21.5433 97V88.2727H25.1484C25.8018 88.2727 26.3658 88.4006 26.8402 88.6562C27.3175 88.9091 27.6854 89.2628 27.9439 89.7173C28.2024 90.169 28.3317 90.6946 28.3317 91.294C28.3317 91.8963 28.1996 92.4233 27.9354 92.875C27.674 93.3239 27.3004 93.6719 26.8146 93.919C26.3288 94.1662 25.7521 94.2898 25.0845 94.2898H22.8601V92.6278H24.6925C25.0107 92.6278 25.2763 92.5724 25.4893 92.4616C25.7053 92.3509 25.8686 92.196 25.9794 91.9972C26.0902 91.7955 26.1456 91.5611 26.1456 91.294C26.1456 91.0241 26.0902 90.7912 25.9794 90.5952C25.8686 90.3963 25.7053 90.2429 25.4893 90.1349C25.2734 90.027 25.0078 89.973 24.6925 89.973H23.6527V97H21.5433ZM28.9368 88.2727H31.2933L33.1385 91.9247H33.2152L35.0604 88.2727H37.4169L34.2251 94.0852V97H32.1286V94.0852L28.9368 88.2727ZM38.3011 97V88.2727H41.9062C42.5597 88.2727 43.1236 88.3906 43.598 88.6264C44.0753 88.8594 44.4432 89.1946 44.7017 89.6321C44.9602 90.0668 45.0895 90.5824 45.0895 91.179C45.0895 91.7841 44.9574 92.2983 44.6932 92.7216C44.429 93.142 44.054 93.4631 43.5682 93.6847C43.0824 93.9034 42.5071 94.0128 41.8423 94.0128H39.5625V92.3509H41.4503C41.7685 92.3509 42.0341 92.3097 42.2472 92.2273C42.4631 92.142 42.6264 92.0142 42.7372 91.8438C42.848 91.6705 42.9034 91.4489 42.9034 91.179C42.9034 90.9091 42.848 90.6861 42.7372 90.5099C42.6264 90.331 42.4631 90.1974 42.2472 90.1094C42.0313 90.0185 41.7656 89.973 41.4503 89.973H40.4105V97H38.3011ZM43.2145 93.0114L45.3878 97H43.0866L40.956 93.0114H43.2145ZM48.1342 97H45.8672L48.8118 88.2727H51.62L54.5646 97H52.2976L50.2479 90.4716H50.1797L48.1342 97ZM47.8317 93.5653H52.5703V95.1676H47.8317V93.5653ZM55.5043 88.2727H58.1165L60.3324 93.6761H60.4347L62.6506 88.2727H65.2628V97H63.2088V91.6392H63.1364L61.0398 96.9446H59.7273L57.6307 91.6094H57.5582V97H55.5043V88.2727ZM68.6879 88.2727V97H66.5785V88.2727H68.6879ZM73.2379 97H70.0121V88.2727H73.2337C74.1229 88.2727 74.8885 88.4474 75.5305 88.7969C76.1754 89.1435 76.6726 89.6435 77.022 90.2969C77.3714 90.9474 77.5462 91.7259 77.5462 92.6321C77.5462 93.5412 77.3714 94.3224 77.022 94.9759C76.6754 95.6293 76.1797 96.1307 75.5348 96.4801C74.8899 96.8267 74.1243 97 73.2379 97ZM72.1214 95.2017H73.157C73.6456 95.2017 74.0589 95.1193 74.397 94.9545C74.7379 94.7869 74.995 94.5156 75.1683 94.1406C75.3445 93.7628 75.4325 93.2599 75.4325 92.6321C75.4325 92.0043 75.3445 91.5043 75.1683 91.1321C74.9922 90.7571 74.7322 90.4872 74.3885 90.3224C74.0476 90.1548 73.6271 90.071 73.1271 90.071H72.1214V95.2017Z" fill="black"/>
<path d="M14.625 74.9858H13.125V76.4858H14.625V74.9858ZM14.625 73.2727V71.7727H13.125V73.2727H14.625ZM22.0014 73.2727H23.5014V71.7727H22.0014V73.2727ZM22.0014 74.9858V76.4858H23.5014V74.9858H22.0014ZM19.3551 74.9858V73.4858H17.8551V74.9858H19.3551ZM19.3551 82V83.5H20.8551V82H19.3551ZM17.2756 82H15.7756V83.5H17.2756V82ZM17.2756 74.9858H18.7756V73.4858H17.2756V74.9858ZM16.125 74.9858V73.2727H13.125V74.9858H16.125ZM14.625 74.7727H22.0014V71.7727H14.625V74.7727ZM20.5014 73.2727V74.9858H23.5014V73.2727H20.5014ZM22.0014 73.4858H19.3551V76.4858H22.0014V73.4858ZM17.8551 74.9858V82H20.8551V74.9858H17.8551ZM19.3551 80.5H17.2756V83.5H19.3551V80.5ZM18.7756 82V74.9858H15.7756V82H18.7756ZM17.2756 73.4858H14.625V76.4858H17.2756V73.4858ZM23.0316 82H21.5316V83.5H23.0316V82ZM23.0316 73.2727V71.7727H21.5316V73.2727H23.0316ZM25.141 73.2727H26.641V71.7727H25.141V73.2727ZM25.141 76.7756H23.641V78.2756H25.141V76.7756ZM28.5799 76.7756V78.2756H30.0799V76.7756H28.5799ZM28.5799 73.2727V71.7727H27.0799V73.2727H28.5799ZM30.685 73.2727H32.185V71.7727H30.685V73.2727ZM30.685 82V83.5H32.185V82H30.685ZM28.5799 82H27.0799V83.5H28.5799V82ZM28.5799 78.4929H30.0799V76.9929H28.5799V78.4929ZM25.141 78.4929V76.9929H23.641V78.4929H25.141ZM25.141 82V83.5H26.641V82H25.141ZM24.5316 82V73.2727H21.5316V82H24.5316ZM23.0316 74.7727H25.141V71.7727H23.0316V74.7727ZM23.641 73.2727V76.7756H26.641V73.2727H23.641ZM25.141 78.2756H28.5799V75.2756H25.141V78.2756ZM30.0799 76.7756V73.2727H27.0799V76.7756H30.0799ZM28.5799 74.7727H30.685V71.7727H28.5799V74.7727ZM29.185 73.2727V82H32.185V73.2727H29.185ZM30.685 80.5H28.5799V83.5H30.685V80.5ZM30.0799 82V78.4929H27.0799V82H30.0799ZM28.5799 76.9929H25.141V79.9929H28.5799V76.9929ZM23.641 78.4929V82H26.641V78.4929H23.641ZM25.141 80.5H23.0316V83.5H25.141V80.5ZM32.0082 82H30.5082V83.5H32.0082V82ZM32.0082 73.2727V71.7727H30.5082V73.2727H32.0082ZM38.0934 73.2727H39.5934V71.7727H38.0934V73.2727ZM38.0934 74.9858V76.4858H39.5934V74.9858H38.0934ZM34.1175 74.9858V73.4858H32.6175V74.9858H34.1175ZM34.1175 76.7756H32.6175V78.2756H34.1175V76.7756ZM37.7823 76.7756H39.2823V75.2756H37.7823V76.7756ZM37.7823 78.4929V79.9929H39.2823V78.4929H37.7823ZM34.1175 78.4929V76.9929H32.6175V78.4929H34.1175ZM34.1175 80.2869H32.6175V81.7869H34.1175V80.2869ZM38.0934 80.2869H39.5934V78.7869H38.0934V80.2869ZM38.0934 82V83.5H39.5934V82H38.0934ZM33.5082 82V73.2727H30.5082V82H33.5082ZM32.0082 74.7727H38.0934V71.7727H32.0082V74.7727ZM36.5934 73.2727V74.9858H39.5934V73.2727H36.5934ZM38.0934 73.4858H34.1175V76.4858H38.0934V73.4858ZM32.6175 74.9858V76.7756H35.6175V74.9858H32.6175ZM34.1175 78.2756H37.7823V75.2756H34.1175V78.2756ZM36.2823 76.7756V78.4929H39.2823V76.7756H36.2823ZM37.7823 76.9929H34.1175V79.9929H37.7823V76.9929ZM32.6175 78.4929V80.2869H35.6175V78.4929H32.6175ZM34.1175 81.7869H38.0934V78.7869H34.1175V81.7869ZM36.5934 80.2869V82H39.5934V80.2869H36.5934ZM38.0934 80.5H32.0082V83.5H38.0934V80.5ZM47.7198 76.1236L46.2716 76.5144L46.5709 77.6236H47.7198V76.1236ZM47.5067 75.6506L46.2626 76.4885L46.2666 76.4944L46.2707 76.5004L47.5067 75.6506ZM46.6928 75.0795L46.2746 76.5201L46.2854 76.5232L46.2962 76.5262L46.6928 75.0795ZM45.0138 75.3097L44.1871 74.0581L44.1818 74.0616L45.0138 75.3097ZM44.3022 76.2045L45.6799 76.7979L45.6814 76.7942L44.3022 76.2045ZM44.2937 79.0554L45.6815 78.4863L45.6815 78.4863L44.2937 79.0554ZM44.9968 79.9588L45.8368 78.7161L45.8368 78.7161L44.9968 79.9588ZM47.0934 80.0824L47.7293 81.4409L47.7355 81.438L47.0934 80.0824ZM47.707 79.5412L46.4194 78.7718L46.4194 78.7718L47.707 79.5412ZM47.9158 78.7188L48.0939 77.2294L46.4158 77.0287V78.7188H47.9158ZM48.3079 78.7656V80.2656L48.486 77.2762L48.3079 78.7656ZM46.1857 78.7656H44.6857V80.2656H46.1857V78.7656ZM46.1857 77.2273V75.7273H44.6857V77.2273H46.1857ZM49.9485 77.2273H51.4485V75.7273H49.9485V77.2273ZM49.4499 80.3892L48.1619 79.6204L48.1591 79.6252L49.4499 80.3892ZM48.0863 81.6719L47.3998 80.3382L47.3972 80.3395L48.0863 81.6719ZM43.9016 81.5781L44.6465 80.2761L44.6465 80.2761L43.9016 81.5781ZM42.4272 80.0355L41.0993 80.7332L41.1006 80.7355L42.4272 80.0355ZM42.2184 75.7443L43.6184 76.2828L43.6193 76.2804L42.2184 75.7443ZM43.109 74.3295L42.0444 73.2728L42.0405 73.2768L43.109 74.3295ZM44.4386 73.4517L43.8896 72.0558L43.8869 72.0568L44.4386 73.4517ZM47.4812 73.3707L47.0068 74.7938L47.0096 74.7947L47.4812 73.3707ZM48.6403 73.9844L47.7118 75.1625L47.7166 75.1663L48.6403 73.9844ZM49.4627 74.9261L48.1641 75.6769L48.1641 75.6769L49.4627 74.9261ZM49.8548 76.1236V77.6236H51.5416L51.3445 75.9483L49.8548 76.1236ZM49.168 75.7328C49.0808 75.4094 48.9436 75.0928 48.7428 74.8008L46.2707 76.5004C46.2646 76.4915 46.2623 76.4863 46.2627 76.4872C46.2631 76.4882 46.2668 76.4965 46.2716 76.5144L49.168 75.7328ZM48.7509 74.8127C48.5563 74.5237 48.3136 74.2747 48.0286 74.0728L46.2946 76.5209C46.2898 76.5175 46.2834 76.5123 46.2766 76.5054C46.2699 76.4985 46.2652 76.4924 46.2626 76.4885L48.7509 74.8127ZM48.0286 74.0728C47.7369 73.8662 47.4185 73.7232 47.0895 73.6329L46.2962 76.5262C46.3087 76.5296 46.313 76.5318 46.3112 76.5309C46.3091 76.53 46.303 76.5269 46.2946 76.5209L48.0286 74.0728ZM47.111 73.639C46.7808 73.5432 46.4448 73.5028 46.1133 73.5028V76.5028C46.2022 76.5028 46.2525 76.5137 46.2746 76.5201L47.111 73.639ZM46.1133 73.5028C45.4386 73.5028 44.7753 73.6695 44.1871 74.0581L45.8406 76.5613C45.8717 76.5407 45.9414 76.5028 46.1133 76.5028V73.5028ZM44.1818 74.0616C43.5964 74.4518 43.1868 74.9978 42.923 75.6149L45.6814 76.7942C45.7528 76.6272 45.8177 76.5766 45.8459 76.5577L44.1818 74.0616ZM42.9245 75.6112C42.6552 76.2367 42.5508 76.9237 42.5508 77.6236H45.5508C45.5508 77.2098 45.614 76.9508 45.6799 76.7979L42.9245 75.6112ZM42.5508 77.6236C42.5508 78.3207 42.6507 79.0024 42.9058 79.6245L45.6815 78.4863C45.6128 78.3187 45.5508 78.0458 45.5508 77.6236H42.5508ZM42.9058 79.6245C43.1624 80.2502 43.5692 80.8044 44.1568 81.2015L45.8368 78.7161C45.8108 78.6985 45.7488 78.6504 45.6815 78.4863L42.9058 79.6245ZM44.1568 81.2015C44.754 81.6052 45.4318 81.7699 46.1133 81.7699V78.7699C45.9197 78.7699 45.8533 78.7272 45.8368 78.7161L44.1568 81.2015ZM46.1133 81.7699C46.6541 81.7699 47.2115 81.6833 47.7293 81.4409L46.4575 78.7239C46.4412 78.7315 46.3452 78.7699 46.1133 78.7699V81.7699ZM47.7355 81.438C48.2458 81.1963 48.6879 80.824 48.9947 80.3106L46.4194 78.7718C46.424 78.764 46.43 78.7555 46.4371 78.7469C46.4442 78.7384 46.4511 78.7314 46.457 78.7262C46.4696 78.7152 46.4712 78.7173 46.4513 78.7268L47.7355 81.438ZM48.9947 80.3106C49.294 79.8096 49.4158 79.2605 49.4158 78.7188H46.4158C46.4158 78.766 46.4107 78.7882 46.4098 78.7917C46.4093 78.7936 46.4096 78.7919 46.4114 78.7876C46.4132 78.7833 46.4158 78.7777 46.4194 78.7718L48.9947 80.3106ZM47.7378 80.2081L48.1298 80.255L48.486 77.2762L48.0939 77.2294L47.7378 80.2081ZM48.3079 77.2656H46.1857V80.2656H48.3079V77.2656ZM47.6857 78.7656V77.2273H44.6857V78.7656H47.6857ZM46.1857 78.7273H49.9485V75.7273H46.1857V78.7273ZM48.4485 77.2273V78.3821H51.4485V77.2273H48.4485ZM48.4485 78.3821C48.4485 78.9482 48.3296 79.3395 48.162 79.6204L50.7379 81.158C51.235 80.3253 51.4485 79.3785 51.4485 78.3821H48.4485ZM48.1591 79.6252C47.9745 79.9371 47.7303 80.1681 47.3998 80.3382L48.7728 83.0056C49.6014 82.5791 50.2663 81.9549 50.7408 81.1532L48.1591 79.6252ZM47.3972 80.3395C47.0643 80.5117 46.6438 80.6193 46.0962 80.6193V83.6193C47.0487 83.6193 47.9549 83.4286 48.7754 83.0042L47.3972 80.3395ZM46.0962 80.6193C45.4865 80.6193 45.0191 80.4893 44.6465 80.2761L43.1568 82.8801C44.0456 83.3886 45.0412 83.6193 46.0962 83.6193V80.6193ZM44.6465 80.2761C44.2729 80.0624 43.9787 79.7616 43.7538 79.3355L41.1006 80.7355C41.5803 81.6446 42.269 82.3723 43.1568 82.8801L44.6465 80.2761ZM43.7551 79.3378C43.5377 78.9241 43.3988 78.3783 43.3988 77.6491H40.3988C40.3988 78.7609 40.6121 79.806 41.0993 80.7332L43.7551 79.3378ZM43.3988 77.6491C43.3988 77.0804 43.4835 76.6335 43.6184 76.2828L40.8184 75.2058C40.5271 75.9631 40.3988 76.7861 40.3988 77.6491H43.3988ZM43.6193 76.2804C43.7658 75.8976 43.9559 75.6072 44.1775 75.3823L42.0405 73.2768C41.5007 73.8246 41.0971 74.4774 40.8175 75.2082L43.6193 76.2804ZM44.1736 75.3863C44.4123 75.1458 44.6812 74.9688 44.9902 74.8466L43.8869 72.0568C43.1903 72.3323 42.5728 72.7406 42.0445 73.2728L44.1736 75.3863ZM44.9875 74.8476C45.3061 74.7223 45.6626 74.6534 46.0707 74.6534V71.6534C45.314 71.6534 44.5824 71.7833 43.8896 72.0558L44.9875 74.8476ZM46.0707 74.6534C46.4317 74.6534 46.7401 74.7049 47.0068 74.7938L47.9555 71.9477C47.3529 71.7468 46.721 71.6534 46.0707 71.6534V74.6534ZM47.0096 74.7947C47.2949 74.8892 47.524 75.0144 47.7118 75.1625L49.5688 72.8063C49.0861 72.4259 48.5425 72.1421 47.9527 71.9468L47.0096 74.7947ZM47.7166 75.1663C47.9066 75.3147 48.0522 75.4833 48.1641 75.6769L50.7613 74.1754C50.4528 73.6417 50.0501 73.1825 49.5639 72.8025L47.7166 75.1663ZM48.1641 75.6769C48.2678 75.8563 48.3367 76.0583 48.365 76.2988L51.3445 75.9483C51.2705 75.3195 51.0781 74.7233 50.7613 74.1754L48.1641 75.6769ZM49.8548 74.6236H47.7198V77.6236H49.8548V74.6236ZM51.1918 82H49.6918V83.5H51.1918V82ZM51.1918 73.2727V71.7727H49.6918V73.2727H51.1918ZM56.4886 73.6264L55.821 74.9697L55.8307 74.9744L56.4886 73.6264ZM57.5923 74.6321L56.3009 75.3952L56.3031 75.3989L57.5923 74.6321ZM57.5838 77.7216L58.8539 78.5197L58.8563 78.5158L57.5838 77.7216ZM56.4588 78.6847L57.0747 80.0524L57.0813 80.0494L56.4588 78.6847ZM52.4531 79.0128H50.9531V80.5128H52.4531V79.0128ZM52.4531 77.3509V75.8509H50.9531V77.3509H52.4531ZM55.1378 77.2273L55.6788 78.6264L55.6885 78.6225L55.1378 77.2273ZM55.6278 76.8438L56.8855 77.6613L56.8916 77.6517L55.6278 76.8438ZM55.6278 75.5099L54.3524 76.2995L54.3582 76.3086L55.6278 75.5099ZM55.1378 75.1094L54.5557 76.4918L54.5635 76.4951L54.5713 76.4983L55.1378 75.1094ZM53.3011 74.973V73.473H51.8011V74.973H53.3011ZM53.3011 82V83.5H54.8011V82H53.3011ZM56.1051 78.0114L57.4223 77.2937L56.996 76.5114H56.1051V78.0114ZM58.2784 82V83.5H60.8039L59.5956 81.2823L58.2784 82ZM55.9773 82L54.6542 82.7068L55.078 83.5H55.9773V82ZM53.8466 78.0114V76.5114H51.3447L52.5235 78.7181L53.8466 78.0114ZM52.6918 82V73.2727H49.6918V82H52.6918ZM51.1918 74.7727H54.7969V71.7727H51.1918V74.7727ZM54.7969 74.7727C55.2716 74.7727 55.5968 74.8582 55.821 74.9697L57.1562 72.2832C56.4316 71.923 55.6289 71.7727 54.7969 71.7727V74.7727ZM55.8307 74.9744C56.0567 75.0847 56.1987 75.2222 56.3009 75.3952L58.8837 73.869C58.4689 73.167 57.8751 72.634 57.1466 72.2784L55.8307 74.9744ZM56.3031 75.3989C56.4006 75.5628 56.4801 75.8034 56.4801 76.179H59.4801C59.4801 75.3614 59.3011 74.5707 58.8815 73.8653L56.3031 75.3989ZM56.4801 76.179C56.4801 76.5633 56.398 76.7885 56.3113 76.9274L58.8563 78.5158C59.298 77.8081 59.4801 77.0049 59.4801 76.179H56.4801ZM56.3137 76.9235C56.2173 77.077 56.0765 77.2104 55.8363 77.3199L57.0813 80.0494C57.8127 79.7158 58.4219 79.207 58.8539 78.5197L56.3137 76.9235ZM55.8429 77.3169C55.5925 77.4297 55.2365 77.5128 54.733 77.5128V80.5128C55.559 80.5128 56.3536 80.3771 57.0747 80.0524L55.8429 77.3169ZM54.733 77.5128H52.4531V80.5128H54.733V77.5128ZM53.9531 79.0128V77.3509H50.9531V79.0128H53.9531ZM52.4531 78.8509H54.3409V75.8509H52.4531V78.8509ZM54.3409 78.8509C54.7767 78.8509 55.2398 78.7961 55.6788 78.6263L54.5968 75.8282C54.6065 75.8245 54.5934 75.8308 54.5489 75.8377C54.5044 75.8446 54.4366 75.8509 54.3409 75.8509V78.8509ZM55.6885 78.6225C56.1517 78.4397 56.5814 78.129 56.8855 77.6612L54.3702 76.0263C54.4069 75.9698 54.4518 75.9222 54.4978 75.8862C54.5423 75.8513 54.5765 75.8362 54.587 75.832L55.6885 78.6225ZM56.8916 77.6517C57.1979 77.1726 57.294 76.6475 57.294 76.179H54.294C54.294 76.2502 54.2793 76.1683 54.3641 76.0358L56.8916 77.6517ZM57.294 76.179C57.294 75.7091 57.1974 75.188 56.8975 74.7113L54.3582 76.3086C54.2798 76.1841 54.294 76.1091 54.294 76.179H57.294ZM56.9032 74.7204C56.6075 74.2427 56.1807 73.9148 55.7043 73.7205L54.5713 76.4983C54.5554 76.4918 54.5183 76.474 54.4729 76.437C54.4264 76.3989 54.3846 76.3515 54.3524 76.2995L56.9032 74.7204ZM55.7199 73.7269C55.2678 73.5366 54.7909 73.473 54.3409 73.473V76.473C54.5216 76.473 54.5759 76.5003 54.5557 76.4918L55.7199 73.7269ZM54.3409 73.473H53.3011V76.473H54.3409V73.473ZM51.8011 74.973V82H54.8011V74.973H51.8011ZM53.3011 80.5H51.1918V83.5H53.3011V80.5ZM54.7879 78.7291L56.9612 82.7177L59.5956 81.2823L57.4223 77.2937L54.7879 78.7291ZM58.2784 80.5H55.9773V83.5H58.2784V80.5ZM57.3003 81.2932L55.1697 77.3046L52.5235 78.7181L54.6542 82.7068L57.3003 81.2932ZM53.8466 79.5114H56.1051V76.5114H53.8466V79.5114ZM59.1371 82H57.6371V83.5H59.1371V82ZM59.1371 73.2727V71.7727H57.6371V73.2727H59.1371ZM65.2223 73.2727H66.7223V71.7727H65.2223V73.2727ZM65.2223 74.9858V76.4858H66.7223V74.9858H65.2223ZM61.2464 74.9858V73.4858H59.7464V74.9858H61.2464ZM61.2464 76.7756H59.7464V78.2756H61.2464V76.7756ZM64.9112 76.7756H66.4112V75.2756H64.9112V76.7756ZM64.9112 78.4929V79.9929H66.4112V78.4929H64.9112ZM61.2464 78.4929V76.9929H59.7464V78.4929H61.2464ZM61.2464 80.2869H59.7464V81.7869H61.2464V80.2869ZM65.2223 80.2869H66.7223V78.7869H65.2223V80.2869ZM65.2223 82V83.5H66.7223V82H65.2223ZM60.6371 82V73.2727H57.6371V82H60.6371ZM59.1371 74.7727H65.2223V71.7727H59.1371V74.7727ZM63.7223 73.2727V74.9858H66.7223V73.2727H63.7223ZM65.2223 73.4858H61.2464V76.4858H65.2223V73.4858ZM59.7464 74.9858V76.7756H62.7464V74.9858H59.7464ZM61.2464 78.2756H64.9112V75.2756H61.2464V78.2756ZM63.4112 76.7756V78.4929H66.4112V76.7756H63.4112ZM64.9112 76.9929H61.2464V79.9929H64.9112V76.9929ZM59.7464 78.4929V80.2869H62.7464V78.4929H59.7464ZM61.2464 81.7869H65.2223V78.7869H61.2464V81.7869ZM63.7223 80.2869V82H66.7223V80.2869H63.7223ZM65.2223 80.5H59.1371V83.5H65.2223V80.5ZM68.4311 82V83.5H69.533L69.8625 82.4485L68.4311 82ZM66.1641 82L64.7428 81.5205L64.0749 83.5H66.1641V82ZM69.1087 73.2727V71.7727H68.0317L67.6874 72.7932L69.1087 73.2727ZM71.9169 73.2727L73.3382 72.7932L72.9939 71.7727H71.9169V73.2727ZM74.8615 82V83.5H76.9507L76.2828 81.5205L74.8615 82ZM72.5945 82L71.1633 82.4493L71.4932 83.5H72.5945V82ZM70.5447 75.4716L71.9759 75.0223L71.646 73.9716H70.5447V75.4716ZM70.4766 75.4716V73.9716H69.3746L69.0452 75.0231L70.4766 75.4716ZM68.1286 78.5653V77.0653H66.6286V78.5653H68.1286ZM72.8672 78.5653H74.3672V77.0653H72.8672V78.5653ZM72.8672 80.1676V81.6676H74.3672V80.1676H72.8672ZM68.1286 80.1676H66.6286V81.6676H68.1286V80.1676ZM68.4311 80.5H66.1641V83.5H68.4311V80.5ZM67.5853 82.4795L70.5299 73.7523L67.6874 72.7932L64.7428 81.5205L67.5853 82.4795ZM69.1087 74.7727H71.9169V71.7727H69.1087V74.7727ZM70.4956 73.7523L73.4402 82.4795L76.2828 81.5205L73.3382 72.7932L70.4956 73.7523ZM74.8615 80.5H72.5945V83.5H74.8615V80.5ZM74.0256 81.5507L71.9759 75.0223L69.1136 75.9209L71.1633 82.4493L74.0256 81.5507ZM70.5447 73.9716H70.4766V76.9716H70.5447V73.9716ZM69.0452 75.0231L66.9997 81.5515L69.8625 82.4485L71.9079 75.9201L69.0452 75.0231ZM68.1286 80.0653H72.8672V77.0653H68.1286V80.0653ZM71.3672 78.5653V80.1676H74.3672V78.5653H71.3672ZM72.8672 78.6676H68.1286V81.6676H72.8672V78.6676ZM69.6286 80.1676V78.5653H66.6286V80.1676H69.6286ZM74.4258 74.9858H72.9258V76.4858H74.4258V74.9858ZM74.4258 73.2727V71.7727H72.9258V73.2727H74.4258ZM81.8022 73.2727H83.3022V71.7727H81.8022V73.2727ZM81.8022 74.9858V76.4858H83.3022V74.9858H81.8022ZM79.1559 74.9858V73.4858H77.6559V74.9858H79.1559ZM79.1559 82V83.5H80.6559V82H79.1559ZM77.0763 82H75.5763V83.5H77.0763V82ZM77.0763 74.9858H78.5763V73.4858H77.0763V74.9858ZM75.9258 74.9858V73.2727H72.9258V74.9858H75.9258ZM74.4258 74.7727H81.8022V71.7727H74.4258V74.7727ZM80.3022 73.2727V74.9858H83.3022V73.2727H80.3022ZM81.8022 73.4858H79.1559V76.4858H81.8022V73.4858ZM77.6559 74.9858V82H80.6559V74.9858H77.6559ZM79.1559 80.5H77.0763V83.5H79.1559V80.5ZM78.5763 82V74.9858H75.5763V82H78.5763ZM77.0763 73.4858H74.4258V76.4858H77.0763V73.4858ZM21.5433 97H20.0433V98.5H21.5433V97ZM21.5433 88.2727V86.7727H20.0433V88.2727H21.5433ZM26.8402 88.6562L26.1286 89.9767L26.138 89.9817L26.8402 88.6562ZM27.9439 89.7173L26.64 90.4589L26.642 90.4624L27.9439 89.7173ZM27.9354 92.875L26.6406 92.1177L26.6391 92.1202L27.9354 92.875ZM26.8146 93.919L27.4948 95.256L27.4948 95.256L26.8146 93.919ZM22.8601 94.2898H21.3601V95.7898H22.8601V94.2898ZM22.8601 92.6278V91.1278H21.3601V92.6278H22.8601ZM25.4893 92.4616L24.8045 91.1271L24.7973 91.1308L25.4893 92.4616ZM25.9794 91.9972L27.2898 92.7272L27.2941 92.7193L25.9794 91.9972ZM25.9794 90.5952L24.669 91.3252L24.6736 91.3333L25.9794 90.5952ZM25.4893 90.1349L24.8185 91.4766L24.8185 91.4766L25.4893 90.1349ZM23.6527 89.973V88.473H22.1527V89.973H23.6527ZM23.6527 97V98.5H25.1527V97H23.6527ZM23.0433 97V88.2727H20.0433V97H23.0433ZM21.5433 89.7727H25.1484V86.7727H21.5433V89.7727ZM25.1484 89.7727C25.6058 89.7727 25.9147 89.8614 26.1286 89.9767L27.5518 87.3358C26.8169 86.9397 25.9979 86.7727 25.1484 86.7727V89.7727ZM26.138 89.9817C26.372 90.1057 26.5273 90.2607 26.64 90.4589L29.2478 88.9758C28.8435 88.2649 28.2629 87.7125 27.5424 87.3308L26.138 89.9817ZM26.642 90.4624C26.7521 90.6548 26.8317 90.9158 26.8317 91.294H29.8317C29.8317 90.4734 29.6527 89.6833 29.2458 88.9722L26.642 90.4624ZM26.8317 91.294C26.8317 91.6709 26.7512 91.9285 26.6406 92.1177L29.2302 93.6323C29.6479 92.918 29.8317 92.1217 29.8317 91.294H26.8317ZM26.6391 92.1202C26.5302 92.3072 26.3765 92.459 26.1344 92.5821L27.4948 95.256C28.2243 94.8848 28.8178 94.3405 29.2316 93.6298L26.6391 92.1202ZM26.1344 92.5821C25.9015 92.7006 25.5681 92.7898 25.0845 92.7898V95.7898C25.9362 95.7898 26.7562 95.6318 27.4948 95.256L26.1344 92.5821ZM25.0845 92.7898H22.8601V95.7898H25.0845V92.7898ZM24.3601 94.2898V92.6278H21.3601V94.2898H24.3601ZM22.8601 94.1278H24.6925V91.1278H22.8601V94.1278ZM24.6925 94.1278C25.1764 94.1278 25.6966 94.0446 26.1814 93.7925L24.7973 91.1308C24.8271 91.1153 24.8397 91.1146 24.8241 91.1179C24.8075 91.1213 24.7658 91.1278 24.6925 91.1278V94.1278ZM26.1742 93.7962C26.6354 93.5595 27.025 93.2023 27.2898 92.7272L24.6691 91.2671C24.6869 91.2351 24.7118 91.2023 24.7419 91.1737C24.7714 91.1458 24.7956 91.1317 24.8045 91.1271L26.1742 93.7962ZM27.2941 92.7193C27.5447 92.2631 27.6456 91.7728 27.6456 91.294H24.6456C24.6456 91.3238 24.6425 91.3324 24.6443 91.3251C24.6451 91.3215 24.647 91.3147 24.6505 91.3056C24.654 91.2964 24.6586 91.286 24.6647 91.275L27.2941 92.7193ZM27.6456 91.294C27.6456 90.8168 27.5464 90.3191 27.2852 89.8571L24.6736 91.3333C24.6555 91.3012 24.6475 91.2757 24.6447 91.2639C24.6422 91.2534 24.6456 91.2614 24.6456 91.294H27.6456ZM27.2898 89.8651C27.0231 89.3864 26.6287 89.0276 26.1602 88.7933L24.8185 91.4766C24.8064 91.4705 24.7791 91.4546 24.7469 91.4244C24.7142 91.3936 24.6877 91.3586 24.6691 91.3252L27.2898 89.8651ZM26.1602 88.7933C25.6822 88.5543 25.172 88.473 24.6925 88.473V91.473C24.8436 91.473 24.8647 91.4997 24.8185 91.4766L26.1602 88.7933ZM24.6925 88.473H23.6527V91.473H24.6925V88.473ZM22.1527 89.973V97H25.1527V89.973H22.1527ZM23.6527 95.5H21.5433V98.5H23.6527V95.5ZM28.9368 88.2727V86.7727H26.4018L27.622 88.9947L28.9368 88.2727ZM31.2933 88.2727L32.6321 87.5963L32.216 86.7727H31.2933V88.2727ZM33.1385 91.9247L31.7997 92.6012L32.2158 93.4247H33.1385V91.9247ZM33.2152 91.9247V93.4247H34.1379L34.554 92.6012L33.2152 91.9247ZM35.0604 88.2727V86.7727H34.1377L33.7216 87.5963L35.0604 88.2727ZM37.4169 88.2727L38.7317 88.9947L39.9519 86.7727H37.4169V88.2727ZM34.2251 94.0852L32.9103 93.3632L32.7251 93.7005V94.0852H34.2251ZM34.2251 97V98.5H35.7251V97H34.2251ZM32.1286 97H30.6286V98.5H32.1286V97ZM32.1286 94.0852H33.6286V93.7005L33.4434 93.3632L32.1286 94.0852ZM28.9368 89.7727H31.2933V86.7727H28.9368V89.7727ZM29.9545 88.9492L31.7997 92.6012L34.4773 91.2483L32.6321 87.5963L29.9545 88.9492ZM33.1385 93.4247H33.2152V90.4247H33.1385V93.4247ZM34.554 92.6012L36.3992 88.9492L33.7216 87.5963L31.8764 91.2483L34.554 92.6012ZM35.0604 89.7727H37.4169V86.7727H35.0604V89.7727ZM36.1021 87.5507L32.9103 93.3632L35.54 94.8072L38.7317 88.9947L36.1021 87.5507ZM32.7251 94.0852V97H35.7251V94.0852H32.7251ZM34.2251 95.5H32.1286V98.5H34.2251V95.5ZM33.6286 97V94.0852H30.6286V97H33.6286ZM33.4434 93.3632L30.2516 87.5507L27.622 88.9947L30.8137 94.8072L33.4434 93.3632ZM38.3011 97H36.8011V98.5H38.3011V97ZM38.3011 88.2727V86.7727H36.8011V88.2727H38.3011ZM43.598 88.6264L42.9304 89.9697L42.9401 89.9744L43.598 88.6264ZM44.7017 89.6321L43.4103 90.3952L43.4125 90.3989L44.7017 89.6321ZM44.6932 92.7216L45.9633 93.5197L45.9657 93.5158L44.6932 92.7216ZM43.5682 93.6847L44.1841 95.0524L44.1907 95.0494L43.5682 93.6847ZM39.5625 94.0128H38.0625V95.5128H39.5625V94.0128ZM39.5625 92.3509V90.8509H38.0625V92.3509H39.5625ZM42.2472 92.2273L42.7881 93.6264L42.7979 93.6225L42.2472 92.2273ZM42.7372 91.8438L43.9949 92.6613L44.001 92.6517L42.7372 91.8438ZM42.7372 90.5099L41.4618 91.2995L41.4675 91.3086L42.7372 90.5099ZM42.2472 90.1094L41.6651 91.4918L41.6728 91.4951L41.6806 91.4983L42.2472 90.1094ZM40.4105 89.973V88.473H38.9105V89.973H40.4105ZM40.4105 97V98.5H41.9105V97H40.4105ZM43.2145 93.0114L44.5317 92.2937L44.1054 91.5114H43.2145V93.0114ZM45.3878 97V98.5H47.9133L46.705 96.2823L45.3878 97ZM43.0866 97L41.7636 97.7068L42.1873 98.5H43.0866V97ZM40.956 93.0114V91.5114H38.4541L39.6329 93.7181L40.956 93.0114ZM39.8011 97V88.2727H36.8011V97H39.8011ZM38.3011 89.7727H41.9062V86.7727H38.3011V89.7727ZM41.9062 89.7727C42.381 89.7727 42.7062 89.8582 42.9304 89.9697L44.2656 87.2832C43.541 86.923 42.7383 86.7727 41.9062 86.7727V89.7727ZM42.9401 89.9744C43.166 90.0847 43.3081 90.2222 43.4103 90.3952L45.9931 88.869C45.5783 88.167 44.9845 87.634 44.256 87.2784L42.9401 89.9744ZM43.4125 90.3989C43.51 90.5628 43.5895 90.8034 43.5895 91.179H46.5895C46.5895 90.3614 46.4104 89.5707 45.9909 88.8653L43.4125 90.3989ZM43.5895 91.179C43.5895 91.5633 43.5074 91.7885 43.4207 91.9274L45.9657 93.5158C46.4074 92.8081 46.5895 92.0049 46.5895 91.179H43.5895ZM43.4231 91.9235C43.3266 92.077 43.1859 92.2104 42.9457 92.3199L44.1907 95.0494C44.922 94.7158 45.5313 94.207 45.9632 93.5197L43.4231 91.9235ZM42.9523 92.3169C42.7018 92.4297 42.3458 92.5128 41.8423 92.5128V95.5128C42.6684 95.5128 43.4629 95.3771 44.1841 95.0524L42.9523 92.3169ZM41.8423 92.5128H39.5625V95.5128H41.8423V92.5128ZM41.0625 94.0128V92.3509H38.0625V94.0128H41.0625ZM39.5625 93.8509H41.4503V90.8509H39.5625V93.8509ZM41.4503 93.8509C41.8861 93.8509 42.3492 93.7961 42.7881 93.6263L41.7062 90.8282C41.7158 90.8245 41.7028 90.8308 41.6583 90.8377C41.6138 90.8446 41.546 90.8509 41.4503 90.8509V93.8509ZM42.7979 93.6225C43.2611 93.4397 43.6908 93.129 43.9949 92.6612L41.4796 91.0263C41.5162 90.9698 41.5611 90.9222 41.6071 90.8862C41.6517 90.8513 41.6859 90.8362 41.6964 90.832L42.7979 93.6225ZM44.001 92.6517C44.3073 92.1726 44.4034 91.6475 44.4034 91.179H41.4034C41.4034 91.2502 41.3887 91.1683 41.4734 91.0358L44.001 92.6517ZM44.4034 91.179C44.4034 90.7091 44.3068 90.188 44.0069 89.7113L41.4675 91.3086C41.3892 91.1841 41.4034 91.1091 41.4034 91.179H44.4034ZM44.0126 89.7204C43.7169 89.2427 43.2901 88.9148 42.8137 88.7205L41.6806 91.4983C41.6648 91.4918 41.6276 91.474 41.5823 91.437C41.5358 91.3989 41.494 91.3515 41.4618 91.2995L44.0126 89.7204ZM42.8292 88.7269C42.3772 88.5366 41.9003 88.473 41.4503 88.473V91.473C41.6309 91.473 41.6853 91.5003 41.6651 91.4918L42.8292 88.7269ZM41.4503 88.473H40.4105V91.473H41.4503V88.473ZM38.9105 89.973V97H41.9105V89.973H38.9105ZM40.4105 95.5H38.3011V98.5H40.4105V95.5ZM41.8973 93.7291L44.0706 97.7177L46.705 96.2823L44.5317 92.2937L41.8973 93.7291ZM45.3878 95.5H43.0866V98.5H45.3878V95.5ZM44.4097 96.2932L42.279 92.3046L39.6329 93.7181L41.7636 97.7068L44.4097 96.2932ZM40.956 94.5114H43.2145V91.5114H40.956V94.5114ZM48.1342 97V98.5H49.2362L49.5656 97.4485L48.1342 97ZM45.8672 97L44.4459 96.5205L43.778 98.5H45.8672V97ZM48.8118 88.2727V86.7727H47.7348L47.3905 87.7932L48.8118 88.2727ZM51.62 88.2727L53.0413 87.7932L52.697 86.7727H51.62V88.2727ZM54.5646 97V98.5H56.6538L55.9859 96.5205L54.5646 97ZM52.2976 97L50.8665 97.4493L51.1963 98.5H52.2976V97ZM50.2479 90.4716L51.679 90.0223L51.3491 88.9716H50.2479V90.4716ZM50.1797 90.4716V88.9716H49.0778L48.7483 90.0231L50.1797 90.4716ZM47.8317 93.5653V92.0653H46.3317V93.5653H47.8317ZM52.5703 93.5653H54.0703V92.0653H52.5703V93.5653ZM52.5703 95.1676V96.6676H54.0703V95.1676H52.5703ZM47.8317 95.1676H46.3317V96.6676H47.8317V95.1676ZM48.1342 95.5H45.8672V98.5H48.1342V95.5ZM47.2885 97.4795L50.2331 88.7523L47.3905 87.7932L44.4459 96.5205L47.2885 97.4795ZM48.8118 89.7727H51.62V86.7727H48.8118V89.7727ZM50.1987 88.7523L53.1434 97.4795L55.9859 96.5205L53.0413 87.7932L50.1987 88.7523ZM54.5646 95.5H52.2976V98.5H54.5646V95.5ZM53.7287 96.5507L51.679 90.0223L48.8167 90.9209L50.8665 97.4493L53.7287 96.5507ZM50.2479 88.9716H50.1797V91.9716H50.2479V88.9716ZM48.7483 90.0231L46.7028 96.5515L49.5656 97.4485L51.6111 90.9201L48.7483 90.0231ZM47.8317 95.0653H52.5703V92.0653H47.8317V95.0653ZM51.0703 93.5653V95.1676H54.0703V93.5653H51.0703ZM52.5703 93.6676H47.8317V96.6676H52.5703V93.6676ZM49.3317 95.1676V93.5653H46.3317V95.1676H49.3317ZM55.5043 88.2727V86.7727H54.0043V88.2727H55.5043ZM58.1165 88.2727L59.5043 87.7036L59.1226 86.7727H58.1165V88.2727ZM60.3324 93.6761L58.9446 94.2453L59.3263 95.1761H60.3324V93.6761ZM60.4347 93.6761V95.1761H61.4408L61.8225 94.2453L60.4347 93.6761ZM62.6506 88.2727V86.7727H61.6445L61.2627 87.7036L62.6506 88.2727ZM65.2628 88.2727H66.7628V86.7727H65.2628V88.2727ZM65.2628 97V98.5H66.7628V97H65.2628ZM63.2088 97H61.7088V98.5H63.2088V97ZM63.2088 91.6392H64.7088V90.1392H63.2088V91.6392ZM63.1364 91.6392V90.1392H62.1163L61.7413 91.0879L63.1364 91.6392ZM61.0398 96.9446V98.4446H62.0599L62.4348 97.4959L61.0398 96.9446ZM59.7273 96.9446L58.3312 97.4932L58.7051 98.4446H59.7273V96.9446ZM57.6307 91.6094L59.0268 91.0608L58.6529 90.1094H57.6307V91.6094ZM57.5582 91.6094V90.1094H56.0582V91.6094H57.5582ZM57.5582 97V98.5H59.0582V97H57.5582ZM55.5043 97H54.0043V98.5H55.5043V97ZM55.5043 89.7727H58.1165V86.7727H55.5043V89.7727ZM56.7286 88.8419L58.9446 94.2453L61.7202 93.107L59.5043 87.7036L56.7286 88.8419ZM60.3324 95.1761H60.4347V92.1761H60.3324V95.1761ZM61.8225 94.2453L64.0384 88.8419L61.2627 87.7036L59.0468 93.107L61.8225 94.2453ZM62.6506 89.7727H65.2628V86.7727H62.6506V89.7727ZM63.7628 88.2727V97H66.7628V88.2727H63.7628ZM65.2628 95.5H63.2088V98.5H65.2628V95.5ZM64.7088 97V91.6392H61.7088V97H64.7088ZM63.2088 90.1392H63.1364V93.1392H63.2088V90.1392ZM61.7413 91.0879L59.6448 96.3933L62.4348 97.4959L64.5314 92.1905L61.7413 91.0879ZM61.0398 95.4446H59.7273V98.4446H61.0398V95.4446ZM61.1233 96.396L59.0268 91.0608L56.2346 92.158L58.3312 97.4932L61.1233 96.396ZM57.6307 90.1094H57.5582V93.1094H57.6307V90.1094ZM56.0582 91.6094V97H59.0582V91.6094H56.0582ZM57.5582 95.5H55.5043V98.5H57.5582V95.5ZM57.0043 97V88.2727H54.0043V97H57.0043ZM68.6879 88.2727H70.1879V86.7727H68.6879V88.2727ZM68.6879 97V98.5H70.1879V97H68.6879ZM66.5785 97H65.0785V98.5H66.5785V97ZM66.5785 88.2727V86.7727H65.0785V88.2727H66.5785ZM67.1879 88.2727V97H70.1879V88.2727H67.1879ZM68.6879 95.5H66.5785V98.5H68.6879V95.5ZM68.0785 97V88.2727H65.0785V97H68.0785ZM66.5785 89.7727H68.6879V86.7727H66.5785V89.7727ZM70.0121 97H68.5121V98.5H70.0121V97ZM70.0121 88.2727V86.7727H68.5121V88.2727H70.0121ZM75.5305 88.7969L74.8135 90.1144L74.8204 90.1181L75.5305 88.7969ZM77.022 90.2969L75.6993 91.0043L75.7006 91.0066L77.022 90.2969ZM77.022 94.9759L75.6993 94.2685L75.6969 94.273L77.022 94.9759ZM75.5348 96.4801L76.2449 97.8014L76.2494 97.799L75.5348 96.4801ZM72.1214 95.2017H70.6214V96.7017H72.1214V95.2017ZM74.397 94.9545L75.0542 96.3029L75.0588 96.3006L74.397 94.9545ZM75.1683 94.1406L73.8088 93.5069L73.8067 93.5114L75.1683 94.1406ZM75.1683 91.1321L73.8106 91.7698L73.8125 91.7738L75.1683 91.1321ZM74.3885 90.3224L73.7267 91.6685L73.7334 91.6718L73.7401 91.6751L74.3885 90.3224ZM72.1214 90.071V88.571H70.6214V90.071H72.1214ZM73.2379 95.5H70.0121V98.5H73.2379V95.5ZM71.5121 97V88.2727H68.5121V97H71.5121ZM70.0121 89.7727H73.2337V86.7727H70.0121V89.7727ZM73.2337 89.7727C73.9261 89.7727 74.4343 89.908 74.8135 90.1144L76.2476 87.4794C75.3427 86.9869 74.3196 86.7727 73.2337 86.7727V89.7727ZM74.8204 90.1181C75.2018 90.3231 75.4874 90.608 75.6993 91.0042L78.3447 89.5895C77.8578 88.679 77.1491 87.9638 76.2406 87.4756L74.8204 90.1181ZM75.7006 91.0066C75.909 91.3948 76.0462 91.918 76.0462 92.6321H79.0462C79.0462 91.5338 78.8339 90.5001 78.3435 89.5871L75.7006 91.0066ZM76.0462 92.6321C76.0462 93.3497 75.9088 93.8767 75.6993 94.2685L78.3447 95.6832C78.8341 94.7682 79.0462 93.7327 79.0462 92.6321H76.0462ZM75.6969 94.273C75.4875 94.6678 75.203 94.9538 74.8202 95.1613L76.2494 97.799C77.1563 97.3075 77.8634 96.5908 78.3471 95.6787L75.6969 94.273ZM74.8247 95.1588C74.4396 95.3658 73.9283 95.5 73.2379 95.5V98.5C74.3203 98.5 75.3402 98.2876 76.2449 97.8014L74.8247 95.1588ZM72.1214 96.7017H73.157V93.7017H72.1214V96.7017ZM73.157 96.7017C73.8077 96.7017 74.4596 96.5927 75.0542 96.3029L73.7398 93.6062C73.6583 93.6459 73.4835 93.7017 73.157 93.7017V96.7017ZM75.0588 96.3006C75.7359 95.9677 76.2259 95.4278 76.53 94.7699L73.8067 93.5114C73.7813 93.5662 73.7619 93.5881 73.7567 93.5936C73.7527 93.5978 73.7485 93.6019 73.7352 93.6084L75.0588 96.3006ZM76.5279 94.7744C76.8313 94.1234 76.9325 93.3781 76.9325 92.6321H73.9325C73.9325 93.1418 73.8576 93.4021 73.8088 93.5069L76.5279 94.7744ZM76.9325 92.6321C76.9325 91.8879 76.8319 91.1406 76.5241 90.4904L73.8125 91.7738C73.857 91.8679 73.9325 92.1206 73.9325 92.6321H76.9325ZM76.526 90.4944C76.2166 89.8356 75.7202 89.2974 75.0369 88.9698L73.7401 91.6751C73.7534 91.6814 73.7573 91.6853 73.7609 91.689C73.7656 91.6939 73.785 91.7153 73.8106 91.7698L76.526 90.4944ZM75.0503 88.9763C74.449 88.6807 73.787 88.571 73.1271 88.571V91.571C73.4672 91.571 73.6462 91.629 73.7267 91.6685L75.0503 88.9763ZM73.1271 88.571H72.1214V91.571H73.1271V88.571ZM70.6214 90.071V95.2017H73.6214V90.071H70.6214Z" fill="white" mask="url(#path-68-outside-1_499_2866)"/>
</g>
</g>
<defs>
<clipPath id="clip0_499_2866">
<rect width="100" height="100" fill="white"/>
</clipPath>
<clipPath id="clip1_499_2866">
<rect width="100" height="71.0345" fill="white" transform="translate(0 29)"/>
</clipPath>
</defs>
</svg>
