<svg xmlns="http://www.w3.org/2000/svg" version="1.0" viewBox="0 0 75 75">
  <defs>
    <clipPath id="a">
      <path d="M6.7 56.7H68V69H6.7Zm0 0"/>
    </clipPath>
    <clipPath id="b">
      <path d="M7.3 2h60v67h-60Zm0 0"/>
    </clipPath>
  </defs>
  <g clip-path="url(#a)">
    <path fill="#fbcabb" fill-rule="evenodd" d="M36 57c10-.5 18.4.5 28.3 2a6 6 0 0 1 3 1.1c.8.7 1.2 2 .5 2.8-.3.4-.8.6-1.3.8-4.3 1.5-8.8 1.7-13.3 2.4a2 2 0 0 0-1.2.4c-.3.2-.5.8-.2 1 .2.4.6.5.6.8 0 .4-.4.5-.8.5-11 .2-22.2.4-33.3-.1-1 0-2.2-.5-2-1.4.2-.5.7-.7 1.1-1 1.5-.5 3-1 4.4-1.7.5-.1 1-.4 1-.9 0-.6-.9-.8-1.5-.8l-11.2.1c-1 0-2.2 0-3-.7-.3-.2-.5-.5-.4-.8 0-.2.1-.5.3-.6 1.5-1.7 4-2 6.1-2.3 7.6-.8 15.2-1.3 22.8-1.6"/>
  </g>
  <path fill="#4eb06c" d="m67 57.7-1.5-.4c.5-.9 0-2-.6-2.6a5.2 5.2 0 0 0-4.1-1.6c.3-.5.3-1.2 0-1.7-.4-.5-1.1-.8-1.7-.6a4.4 4.4 0 0 0-2.7-3.8c-1.6-.6-3.6.2-4.2 1.7-1-.6-2.6 0-3 1.1-.6-.4-1.4-.5-2-.3a2 2 0 0 0-1.5 1.5l-.1-.2a5 5 0 0 0-1.9 1.3c-.5.6-.8 1.4-.5 2.2l.2.7c0 .4-.4.8-.7 1-.7.9-.8 2-.3 3a3 3 0 0 0 2.4 1.6c2 .3 4-1.2 5.8-.4l1 .5c.6.3 1.4.2 2.1.2 4 0 8 .4 11.9-.2.5-.1 1-.2 1.4-.5.5-.3.8-.8.8-1.3s-.4-1-.8-1.2Zm-33.8.3c-.3.8-1.4 1-2.3 1l-9.6.7-3.2.1h-3.6c-1.5.1-3 .4-4.3.9-.5.1-1 .3-1.3 0-.3 0-.4-.3-.5-.6-.3-.8 0-1.7.4-2.3a3 3 0 0 1 2.1-1c.5 0 1-.1 1.1-.5v-.5c-.3-1 0-2 .7-2.7a3 3 0 0 1 2.8-.6c.2 0 .3.2.5 0l.2-.1c.5-1 2-1.1 2.8-.4.2-1 1-1.9 2-2.4.6-.2 1.2-.4 1.7-.3.6 0 1.1.5 1.3 1 .6-1 2.2-1.1 3.1-.5a3 3 0 0 1 1.1 3.2l.3-.2 1.1 2.3.2.3c.2.2.4.2.6.2.8 0 1.5 0 2.1.5.6.4 1 1.2.7 1.9"/>
  <path fill="#f5bf19" d="m35.5 45.4 1.7-7h2.5l1.3 7Zm4.8-13.1c-1.7-16.7-1-28.2-1-28.2h-.9v-.3h-.2v-.1c-.2 0-.3.1-.3.2v.2h-.7s.7 11.5-1 28.2c-1.8 16.9-17 28-17 28H30a8.1 8.1 0 0 1 8.1-7.4c.7 0 7 0 8.2 7.5h10.9S42 49.2 40.2 32.3"/>
  <path fill="#da8917" d="M40 32.6c.2.1.2.4.2.6 0 .2 0 .3-.3.2l-.4-.1v-.7l.1-.1h.5Zm-.8-.1v.7c0 .2-.1.3-.4.3-.2 0-.2 0-.2-.3v-.7s.3-.1.4 0h.2Zm-1.2.2v.6c0 .1 0 .3-.3.2-.2 0-.3-.1-.3-.4l.1-.6.4.1Zm-1.8.7v-.2c0-.2 0-.4.2-.6.1-.1.5 0 .5.1 0 .3 0 1-.4.9 0 0-.2 0-.3-.2Zm2.3-31.8Zm-1.6 3v.2h2.6l.1-.2.5-1.4h-1.3l-.1-1.5c0-.5 0-1.1-.2-1.6l-.2-.1-.1.3v.2a111803.9 111803.9 0 0 0-.4 2.7h-1.3l.4 1.4Zm9.4 45v-.2c.2 0 .5 0 .4.1l.1.3v.4c-.3 0-.4 0-.5-.2v-.4Zm-.9 0c.1.1.1.7-.2.7-.4 0-.3-.5-.2-.7a.2.2 0 0 1 .2-.2l.2.1Zm-1.6 0c.1.2.2.7-.2.6-.2 0-.3 0-.4-.2l.1-.5h.5Zm-2.5 0s.3-.2.3 0c.2.1.3.6 0 .7-.1 0-.3.2-.4 0v-.6h.1Zm-1.7-.1c0 .3.1 1-.3 1s-.3-.7-.2-1h.3c0-.1.2-.1.2 0Zm-2.6.2c0 .2 0 .5-.2.6-.1.2-.4 0-.4-.1v-.7h.3c.2 0 .3 0 .3.2Zm-2.4.6c-.2.2-.4.1-.5 0v-.8h.1c.5-.1.6.5.4.8Zm-1.6-.7c.2.3 0 .6-.3.7l-.3-.1c0-.3 0-.5.3-.7h.3Zm-2-.2v.5c0 .2-.2.3-.4.3-.4 0 0-.7 0-.9h.3c0-.1.2 0 .2 0ZM28.9 51c.3-.2.6-.5 1-.4.2 0 .3 0 .4.2l.3.3c.1.1.3 0 .4-.1.3-.2.6-.5 1-.4l.5.2c.1.1.2.3.4.2l.2-.2c.2-.2.4-.3.7-.3.2 0 .3.2.4.3l.3.2.2-.2c.3-.2.5-.4.8-.4.3 0 .6.2.8.4.2.1.4.2.7.1.2 0 .3-.2.5-.3.2-.1.5-.2.8 0 .4 0 .7.5 1.1.5.4 0 .7-.3 1-.4l1 .1s0 .2.2.2c.1.2.3.1.4 0l.6-.2c.3-.1.7-.1 1 .1.1 0 .2.2.3.1l.2-.1.3-.3c.3-.1.5 0 .8 0 .1.2.2.4.4.3l.4-.3c.2-.1.4-.2.7-.1l.3.3c.1 0 .2.2.3 0l.1-.2c0-.2.5-.2.4 0-.1.3-.3.6-.7.6a.8.8 0 0 1-.4-.3l-.2-.2-.3.1c-.3.2-.5.5-.8.4-.2 0-.3-.1-.4-.3-.1 0-.2-.2-.3-.1l-.3.2-.6.3-.5-.2c-.3-.2-.6-.1-.9 0-.2.2-.5.4-.9.3L41 51h-.6c-.3.1-.6.3-1 .3-.3 0-.6 0-.9-.3-.2-.1-.4-.4-.7-.3l-.4.3c-.3.2-.6.3-1 .2-.2-.1-.5-.6-.9-.6-.3 0-.5.5-.9.6-.2 0-.5 0-.7-.3 0 0-.1-.2-.2-.1l-.3.1-.3.3a1 1 0 0 1-.8-.1c-.2-.2-.4-.4-.7-.2l-.5.4c-.2.1-.6.2-.8 0-.2-.2-.2-.4-.5-.5l-.7.4s-.4 0-.2-.2Zm26 8s-.2.3-.3.2a2 2 0 0 0-.7-.4c-.2 0-.5 0-.7.2-.3 0-.5.1-.8 0-.4-.1-.7-.4-1 0-.3 0-.4.3-.6.4-.6.3-1-.2-1.5-.3-.4 0-.6.3-.9.3-.5.1-.8-.5-1.3-.1-.2.1-.3 0 0 0 .2-.3.5-.4.9-.3.3 0 .5.3.8.1l.4-.2c.2-.1.5 0 .8.1l.5.2c.3.1.4 0 .5-.1.2-.3.4-.5.7-.5.3-.1.6 0 .8.1.3.2.5.2.7.1l.5-.2c.5-.1.9.1 1.2.4Zm-8-1v.1s-.1.1 0 .2h-.5c0-.3.4-.4.7-.3h.2l.4.2.2-.2v-.2c.2-.2.6-.3.8-.2.3 0 .4.2.6.3.3.1.3-.1.5-.3.2-.2.4-.3.7-.3l.5.2.5.2c.2 0 .3-.3.5-.4l.4-.1c.5 0 .9.1 1.3.4h-.4l-.7-.4c-.4 0-.4.4-.7.5a1 1 0 0 1-.6 0l-.8-.2H50l-.4.5a1 1 0 0 1-.7 0l-.6-.3c-.2-.1-.2.2-.3.4-.1.2-.3.2-.6.2H47V58Zm4.6-2.4c.3 0 .7.3 1 .6.1 0-.2.2-.3.1l-.6-.4h-.1c-.1-.1-.2-.1-.2 0v.2c-.2.2-.3.3-.5.3l-.8-.1-.2-.2c-.2 0-.3 0-.4.2 0 .1 0 .2-.2.3-.1.2-.3.2-.5.2l-.5-.2H48c-.3-.1-.2 0-.3.2l-.5.2-.3-.1c-.1 0-.5-.4-.4-.1 0 .1-.4.2-.4 0s.3-.4.5-.4l.3.1.3.3c.2 0 .2-.2.3-.3 0-.2.4-.2.6-.2.2 0 .3.2.5.3.3 0 .4-.1.5-.4.1-.2.4-.4.7-.3.2 0 .3 0 .5.2l.3.1.3-.1c.1-.3.2-.5.6-.5ZM50 54.3c.4 0 .7.2 1 .4l-.4.2-.5-.4c-.2 0-.3 0-.4.2l-.4.4c-.4.3-.6.1-1 0 0-.1-.3-.3-.4-.2l-.2.2a1 1 0 0 1-.3.4l-.6-.1c-.3-.2-1-.7-.9 0l-.3.2c0-.3.1-.5.4-.6.2-.2.5-.2.7 0l.6.3c.2 0 .2-.2.3-.3.1-.1.3-.3.5-.3.3 0 .5 0 .7.2l.4.2.3-.4.5-.4Zm-1.4-1.1c.4-.3 1 0 1.2.2.2.2-.1.1-.2 0-.2-.1-.5-.2-.7 0l-.1.4c0 .1-.1.2-.3.2l-.4-.2-.5-.2c-.2.1-.2.3-.3.4-.2.2-.6 0-.8 0-.1-.2-.2-.2-.4-.3-.2 0-.2 0-.3.3 0 .2-.1.3-.3.2 0 0-.4-.2-.2-.2s.2-.3.3-.4l.2-.1h.5l.3.3h.3l.2-.1c0-.3.2-.3.4-.3.3 0 .4.2.6.3.5.1.3-.3.5-.5Zm-19.2 6.2a1 1 0 0 0-.7-.2l-.6.2c-.4.1-.6-.2-1-.3-.5-.2-1 .5-1.6.4-.4 0-.5-.4-.7-.6-.4-.3-.8 0-1.1 0-.3.2-.6.3-1 .1l-.5-.2a2 2 0 0 0-1 .3c0 .1-.3.2 0 0s.6-.5 1-.5c.4-.1.7.2 1.2.3.4 0 .7-.3 1.1-.4.4 0 .6.2.9.5.6.7 1.3-.3 2-.1.1 0 .3 0 .4.2.3.1.5.1.8 0 .4-.2.8-.2 1.1 0l-.3.3Zm-7-1.8c.4-.2.7-.4 1.2-.4h.5c.2 0 .3.4.6.5l.6-.2.5-.1.8.1c.1.2.3.5.5.4l.6-.3c.3 0 .7-.1.8.1.2.2.2.6.5.5l.5-.2c.2 0 .7 0 .7.3h-.4s0-.3-.2-.3l-.2.2-.4.1c-.3 0-.5 0-.7-.2 0-.1 0-.4-.3-.4-.1-.1-.4.2-.6.3h-.7c-.4 0-.5-.6-.9-.6l-.5.3h-1.1c-.2-.2-.3-.4-.6-.5-.3 0-.6.3-.8.4h-.4Zm1.3-1.4 1-.6c.4 0 .5 0 .7.3l.1.3c.2.2.5 0 .6-.1l.5-.2c.3-.1.6 0 .8.3.1.3.2.5.5.4l.5-.3c.3 0 .6 0 .7.2 0 0 0 .3.2.3l.4-.2.3-.2c.3 0 .6.1.6.4 0 .1-.4.2-.4 0 0-.4-.4 0-.5 0a1 1 0 0 1-.3.2c-.3 0-.5 0-.6-.2l-.1-.3-.5.1-.4.2c-.2 0-.5 0-.6-.2l-.2-.4c-.2-.3-.5-.1-.7 0-.3.2-.5.3-.8.2-.3 0-.4-.1-.5-.4-.1-.2-.2-.2-.5 0-.2 0-.4.1-.5.3h-.3Zm1.5-1.4c.4-.3 1-.8 1.5-.3.2.3.3.6.7.6.3 0 .5-.3.8-.4.2 0 .4 0 .6.2l.2.3c.3.2.5 0 .7-.1l.7-.3c.3 0 .5.3.5.6l-.3.2c0-.2 0-.3-.2-.5-.2-.1-.5 0-.7.1l-.6.3c-.5.2-.5-.6-1-.6-.4 0-.7.5-1.2.4-.2 0-.3-.3-.4-.4-.3-.5-.7-.5-1-.1-.2 0-.5.2-.3 0Zm1-1.5c.5-.2 1-.4 1.4 0l.2.3v.1h.2c.3-.2.5-.3.8-.3.2 0 .4.2.5.3v.2h.3l.5-.4a.7.7 0 0 1 .8.2s.2.3 0 .3c.2 0 .5.2.4.3-.2 0-.4 0-.5-.2l-.1-.3c-.2-.2-.4 0-.5 0-.4.3-.8.5-1.1.1l-.1-.2h-.6c-.2.2-.3.3-.6.3a.6.6 0 0 1-.3-.3c-.1-.2 0-.5-.4-.4l-.5.2s-.4-.1-.3-.2Zm1.1-1.2c.4-.3 1-.5 1.2 0 0 .2 0 .4.3.4l.3-.3.8-.2c.2 0 .4 0 .5.3 0 0 0 .3.3.3l.3-.3c.5-.3.8 0 1 .4.1.2-.2.2-.3 0-.2-.4-.5 0-.7.1l-.5.2c-.2 0-.3-.2-.3-.3l-.1-.3h-.5c-.4.2-.7.7-1.1.4-.2 0-.2-.2-.3-.4 0-.2-.1-.3-.3-.2l-.4.2c-.2.1-.4-.2-.2-.3Zm8.4.5v.4h-.3c-.2 0-.1-.5 0-.7h.1v.2h.1Zm6-.2v.5s-.4.1-.4 0a.6.6 0 0 1 0-.5h.4Zm-.9.1v.5c-.2 0-.4-.2-.4-.3v-.5h.1c.2 0 .3.2.3.3Zm-1-.3v.4l-.2.2h-.2l-.1-.2v-.3l.3-.1h.2Zm-1.5 0Zm.2 0-.1-.1h-.1v.4c0 .1.2.4.3.3v-.6Zm-.8.1v.3c0 .2-.2.2-.3.2a.3.3 0 0 1-.2-.2v-.4h.3l.2.1Zm-1 .2c0 .1 0 .3-.2.4 0 .2-.3 0-.3-.2v-.5c.1-.1.4.2.4.3Zm7.5 1 .2.5c0 .2-.3.3-.4.3a.5.5 0 0 1-.5-.3v-.4c.1-.1.4 0 .3.1v.3c.3 0 .3-.2.2-.4l-.1-.2-.2-.1-.7.1c-.4 0-.9-.2-.8-.7 0-.2.1-.4.3-.4h.6l.2.3s.1.2 0 .2c-.1.2-.4 0-.5 0l.2-.1v-.2c-.2-.1-.4 0-.4.3l.1.4h1.1c.2 0 .4.1.5.3ZM33 54Zm1.4-1.7Zm-.4-.1c-.2 0-.4.2-.4.4l.3.2h.3l-.3-.2.2-.2h.3c.3.4 0 .8-.4.8l-.6-.2c-.2 0-.4 0-.5.2-.2.1-.3.3-.3.5s.2.3.4.4h.5v-.6h-.3v.5H33v-.2c0-.2 0-.4.3-.4h1.2c.2 0 .3-.3.3-.4.1-.5-.4-.8-.8-.7ZM45.8 57l.8 3.2c0 .2-.3.2-.4 0l-.4-1.8-.7-3.3-.7-3.1a199 199 0 0 0-10.6-.2h-.7v.2l-.3.5a108.3 108.3 0 0 0-2.7 7.8c0 .1-.4 0-.4 0l.1-.3a41 41 0 0 1 2.2-6.3l.6-1.5.2-.5H34a76235.1 76235.1 0 0 1 10.7.1l.1.4c.2-.2.5-.2.8 0 .2.2.3.5.5 0l.1-.2.5-.1a1.3 1.3 0 0 1 .7.4c.1 0 .3.1.4 0l.2-.3c.2-.5.7-.3 1 0 .2.1 0 .4-.1.3-.2-.1-.4-.4-.6-.2l-.1.3c0 .2-.1.3-.3.4-.4.1-.7-.4-1-.5-.1 0-.3-.1-.4 0l-.1.3-.3.3c-.2 0-.4 0-.5-.2l-.2-.1c-.2-.2-.3-.1-.4.1 0 .4 0 .7.2 1l.6 3.3Zm-8.2-39.4h.3l.2.4.1-.4.4-.1c.4 0 .6.2.7.6 0 0-.4.1-.4 0s0-.4-.3-.4l-.2.4c0 .1 0 .2-.2.2l-.4-.1-.2-.4-.1.4H37c0-.4.2-.6.5-.6Zm-.5 2.2c0-.4 0-.7.4-.9h.3l.1.4.4-.5c.2-.1.3 0 .4.2l.3-.2c.4-.1.4.5.4.8l-.3.1-.1-.4c-.1.3-.3.4-.5.4l-.2-.6-.1.5-.3.2c-.3 0-.3-.4-.4-.6v.5l-.4.1Zm-.1 1.5c0-.3 0-.8.4-.9.2 0 .3.1.4.3v.2l.1-.4.3-.2c.2 0 .3 0 .4.2v.1c0-.1.2-.3.4-.3.4 0 .4.7.5 1 0 .2-.4.2-.4 0l-.1-.5-.1.6c-.1.1-.3 0-.4 0l-.1-.3V21l-.1-.2c-.2.3 0 .6-.3.8-.2.1-.3 0-.4-.2v-.2l-.1-.2-.1.5c0 .2-.4.1-.4 0Zm-.1 1.7c0-.3 0-.8.4-.9 0 0 .2 0 .3.2l.1-.1c.1-.2.2-.2.4-.2s.3.1.4.3c0-.1.1-.3.3-.3.1 0 .2 0 .3.2v.3-.3c0-.2.4-.3.5 0 0 .2 0 1-.5 1-.2-.1-.2-.3-.3-.5v-.1l-.1.4c0 .1-.3.2-.4 0a1 1 0 0 1-.2-.3v-.2c0-.2 0-.1 0 0-.2.2-.2.5-.4.6h-.2l-.2-.4v.3c0 .2-.5.2-.4 0Zm2.3 1.6v-.4.2l-.2.5h-.1l-.2-.3-.1-.4c-.1.2 0 .8-.4.6-.2 0-.2-.3-.3-.6 0 .2 0 .9-.3.8-.2 0-.2-.3-.3-.5l-.1.6-.3-.3c0-.2 0-.9.3-.7l.3.3v.2c0-.3 0-.9.4-.7l.2.3v.2c.2-.2.1-.8.4-.5.2.1.3.3.3.5 0-.3 0-.7.4-.5.3.1.3.7.3 1l-.3-.3Zm-2 1.3.2.3v.2c.2-.2.1-.9.5-.7l.3.3v.2c.1-.2 0-.7.4-.6l.3.3v.2c.1-.3 0-.7.4-.5.3.2.4.6.4 1l-.3-.3V26c-.2.1 0 .8-.3.7l-.3-.3-.1-.4v.2l-.1.4h-.3c-.2 0-.3-.3-.3-.5-.2.1-.1.9-.4.7l-.3-.2v-.2c-.2 0-.2.4-.2.5 0 0-.3-.1-.3-.3 0-.2 0-.8.4-.6Zm-.5 2.4c0-.3 0-.9.4-.7l.2.2.1.2.3-.6h.2l.3.4c0-.2 0-.5.3-.4.1 0 .2 0 .3.2l.1.3c.1-.2 0-.8.4-.6.5.2.5.6.6 1l-.4-.2v-.6l-.2.2c0 .2 0 .5-.2.5l-.3-.2-.2-.4c0 .2 0 .7-.3.7l-.3-.2v-.4c-.2.2-.1.8-.5.6 0 0-.2 0-.2-.2l-.1-.2-.1.6-.4-.2Zm0 1.5c0-.3 0-.8.4-.8l.3.1V29l.4-.1c.3 0 .3.2.4.4 0-.3.1-.5.5-.5.2 0 .3.1.4.3 0-.2.1-.3.3-.2.5 0 .5.5.5.9h-.4v-.6l-.2.5h-.4a1 1 0 0 1-.2-.4v-.2l-.1.3c0 .1 0 .2-.2.3H38c-.2-.1-.1-.4-.2-.6-.1.2 0 .6-.4.6h-.3v-.2.3c0 .1-.4 0-.4 0Zm-.2 1.7c0-.3 0-1 .3-1l.3.3v.2c.2-.2 0-.8.5-.7l.2.3v.2c.1-.3.3-.7.5-.6.2 0 .2 0 .3.2v.2l.1.2c.1-.2 0-.7.4-.6.2 0 .2.1.3.3l.2-.2h.1c.3.4.3.7.3 1.1 0 .2-.3 0-.3-.2v-.5c0 .2 0 .4-.2.6l-.2-.2-.2-.6c0 .3-.1 1-.5.6-.2-.2-.1-.4-.2-.6v.1l-.2.3-.1.4h-.2l-.2-.2v-.3c-.2-.1-.2.5-.4.6-.1.1-.2 0-.3-.2V31l-.2.7c0 .2-.2 0-.3-.1Zm.8-15c0-.2 0-.8.4-.8l.3.3v.4l.1-.2c0-.3.2-.7.6-.5.3.2.4.7.4 1 0 .3-.4.3-.4 0v-.6c-.2-.1-.2.3-.3.4 0 .1-.1.3-.3.3-.2 0-.3-.2-.4-.3v-.2.3c0 .3-.5.1-.4-.1Zm0-1.9c0-.3 0-.8.5-.7.1 0 .2 0 .3.2v.4c.2-.3.2-.7.5-.7.5 0 .5.5.5.8 0 .2-.3 0-.3 0 0-.2 0-.7-.2-.4l-.1.4c0 .2-.1.3-.3.3-.2 0-.3-.2-.3-.4l-.1-.3-.1.5c0 .2-.3 0-.3-.1Zm1.8-1.8-.3-.2c0 .2-.1.6-.4.5a.9.9 0 0 1-.3-.2l-.1-.3-.2.5-.4-.2c.2-.2.1-.7.5-.6l.3.3.1.1c.1-.2.1-.5.4-.4.2 0 .4.2.4.5Zm-.3-1.3v-.4l-.2.3s0 .2-.2.2-.3-.2-.3-.3l-.2-.2-.2.5c0 .2-.4-.2-.3-.3 0-.2.1-.8.5-.6l.2.2.1.3h.1V11c.1-.2.3-.5.5-.2.2.2.3.5.3.8 0 .3-.3 0-.3-.1Zm.4-1.6-.4-.1v-.2c-.1.2-.1.5-.4.5-.2 0-.3 0-.4-.2l-.1-.4c-.2.2-.2.5-.2.7l-.4-.1c0-.4.1-.8.6-.7l.3.1.1.2.1-.4h.3c.4 0 .4.2.5.6Zm-.5-2c0 .4-.2.8-.5.7a.5.5 0 0 1-.3-.5l-.1-.2-.1.4c0 .3-.4.2-.4 0 0-.4 0-1 .5-.9l.3.3V8l.1.1c0 .1 0 .1 0 0l.2-.3v-.2c.2-.1.3-.2.4-.1.3.1.3.8.3 1.1 0 .3-.4.2-.4 0V8Zm.5-1.2c0 .2-.4.2-.4 0v-.3l-.2.4H38c-.2 0-.2-.3-.3-.6v-.1.5c0 .2-.4.2-.5 0 0-.3 0-.9.5-.9l.3.2.1.3v.2h.1l.2-.5.3-.2c.5 0 .4.7.4 1Zm5 38.2h.2l.2.2c0 .1-.1 0-.2 0l-.5-.1c-.1-.2-.3-.3-.5 0l-.1.2c-.3.3-.5 0-.7-.2-.3-.3-.3.1-.4.3l-.4.2-.4-.2-.1-.2c-.2 0-.2.2-.2.3 0 .2-.4 0-.5-.1 0-.3.2-.5.5-.5l.4.1.1.2c.1.1.1 0 .1 0 .1-.3.3-.6.6-.6l.4.2.2.2.2-.3.4-.1h.4l.3.4Zm-.4-1.1c.1.1.1.1 0 0-.3-.2-.2.5-.6.2l-.5-.3c-.1 0-.3 0-.4.2-.2.3-.3.5-.6.3l-.4-.2c-.2 0-.3.2-.4.3l-.2-.4c.1-.1.2-.3.4-.3l.4.2c.4.3.5-.4.8-.5l.6.2.2.2.2-.2c.2-.3.4 0 .5.3Zm-.7-1.2h.2c0 .2-.2.3-.4.3l-.2-.1c-.2-.2-.3-.1-.4 0-.2.1-.3.3-.5.3h-.4s-.4-.2-.4 0l-.5.1c0-.2.3-.4.5-.5h.3l.5.1c.2 0 .3-.2.4-.3l.3-.1h.3l.3.2Zm-.4-.6c-.2 0-.3 0-.5-.2-.3-.2-.4-.1-.4 0l-.1.2-.5.1c-.1 0-.4-.4-.5 0 0 .1-.5.3-.4 0 0-.2.2-.4.4-.5h.4l.3.1s0 .1 0 0h.1l.1-.2.4-.2h.4l.4.4c.3 0 .1.3 0 .3Zm-2.5-1c0-.2.2-.5.5-.4.3 0 .5.3.7.1.2-.1.3-.4.6-.4.2 0 .3.2.4.3.3.2 0 .1-.2 0l-.2.2-.2.2-.3.1-.4-.1c-.3-.2-.4 0-.6.3 0 0-.4-.2-.3-.3Zm1.3-1.7.6.1c.2.2-.2.5-.3.3-.2-.1-.3.1-.3.2l-.3.2-.4-.1c-.1-.1-.4-.3-.5 0 0 .2-.5.2-.4 0 0-.3.2-.5.5-.5h.4l.3.1.2-.1.2-.2Zm-1.6-.8h.7c.2-.2.3-.3.6-.3.2 0 .4.2.5.3.2.3-.3.3-.4.1-.1-.2-.2.1-.3.2l-.2.1h-.3c-.1 0-.5-.2-.5 0s-.5 0-.4 0c0-.3.1-.4.3-.4Zm-3 .4c-.2-.3-.8.2-1 .1-.2 0-.3 0-.4-.2l-.6.2c-.2.2-.5-.2-.3-.4.3 0 .5-.3.8-.3l.2.1c.2.1.3.2.5 0 .4 0 .9-.1 1.2.3.1.3-.3.5-.4.2Zm-.4 1.1-.2-.3-.3.2-.4.2c-.1 0-.3 0-.4-.2l-.2-.2c-.2 0-.2.2-.3.3-.1.2-.6 0-.4-.2.1-.3.3-.5.7-.6l.3.1.3.3.4-.3h.5c.3 0 .3.3.5.6 0 .3-.4.4-.5.1Zm.2 1.3c-.2.2-.4.1-.6 0L36 41c-.1-.2-.2 0-.4.1-.2.2-.4.2-.6 0l-.1-.2h-.2c-.2 0-.3.2-.4.3-.1.1-.5-.1-.4-.3.2-.2.4-.5.8-.4 0 0 .2 0 .3.2.1 0 .1.3.3.1.2-.2.3-.4.6-.3.2 0 .3.2.4.3v.2c.2 0 .6.2.5.3Zm-3.5 1c.2-.2.4-.5.7-.5a.6.6 0 0 1 .5.3c.2 0 .4-.2.5-.3h.4s.2 0 .2.2l.1.2c0 .2 0 .2.2 0 0-.2.4-.2.4 0 0 .4-.1.7-.4.6l-.4-.1-.1-.2-.1-.3-.2.1-.2.2s-.2.2-.4.1l-.3-.3s0-.1-.2 0l-.3.3c0 .2-.5 0-.4-.3Zm-.4 1.4c.1-.3.4-.5.8-.6l.4.1.1.2.1.2.4-.3.4-.2c.2 0 .3 0 .4.2l.1.4v-.2l.5-.1c0 .3-.3.5-.6.6-.2 0-.3 0-.3-.2 0-.1-.1-.5-.3-.4l-.3.3a1 1 0 0 1-.5.1l-.3-.1-.1-.3c-.2-.2-.3 0-.4.2l-.3.1h-.1Zm-.5 1c.2-.4.6-.6 1-.4l.3.3c0 .1 0 .2.2.1l.2-.2c.2-.3.5-.3.8 0l.2.4c0 .1 0 .1 0 0l.3-.1c-.1-.3.3-.2.3 0 .2.3-.2.6-.5.5a.6.6 0 0 1-.3-.2l-.1-.3c0-.1 0-.2-.2 0-.2 0-.3.3-.5.3-.2.1-.3 0-.5-.1l-.1-.2-.1-.2-.5.1a1 1 0 0 0-.2.3c-.1 0-.5-.2-.4-.4ZM44.5 46l.2.4c0 .1-.1.3-.3.3 0 .1-.2.2-.3 0v-.5l.1-.1h.4Zm-1.4 0c.1.2 0 .6-.2.7h-.3V46l.2-.1h.2Zm-2 .2h.1l.3-.2.2.4c0 .1 0 .2-.2.3-.1 0-.3.1-.4 0v-.4Zm-1.5 0 .2-.2.2.1c.1.3.1.8-.3.8s-.3-.5-.1-.8Zm-1.9.3c0-.2 0-.3.2-.4h.3l.1.1v.3c0 .1 0 .3-.3.3-.1 0-.3-.1-.3-.3Zm-1.2-.1c0 .1 0 .2-.2.3l-.2.1-.3-.1v-.3l.1-.3h.1c.3-.1.5 0 .5.3Zm-1.9-.2v.4l-.5.2c-.1 0-.3-.1-.2-.3l.2-.4s.1-.1.2 0h.3Zm-2.5.1.4-.3h.2l.2.2c0 .4-.4.7-.7.5-.2 0-.3-.2-.1-.4Zm8.3-9.4c.2.3.4 1 0 1l-.6-.2V37l.1-.2.5.1Zm-1 0v.7c-.1.2-.3.3-.5.3s-.3 0-.4-.3l.1-.7c0-.1.4-.2.5-.1h.2Zm-2.4.8v-.4l.2-.5.3.1.3.3c0 .2 0 .6-.2.7-.1.1-.5 0-.6-.2Zm-.7-.6v.7l-.4.2-.3-.2v-.2l.1-.6h.2c0-.2.4 0 .4.1Zm-7.3 10 .1-.1h18.5l-.7 1.7v.3h-8.5a5.8 5.8 0 0 0-.4 0h-8l-.2-.3-.6-1.5Zm9-13h.1-.1Zm-4 2.2Zm-.5-1.4v1.6h.1v.1l.2.1c1-.4 2.2-.5 3.4-.6h3.5l1 .3c.2.2.5.3.9.3l.2-.2v-.1a14.7 14.7 0 0 1 0-1.6v-.1l-.8-.3c-.9-.4-1.8-.6-2.8-.7-1.2 0-2.5 0-3.7.3l-1.9.6h-.1v.4"/>
  <g clip-path="url(#b)">
    <path fill="#fff" d="M27.8 58Zm0-.8Zm0 1.4Zm-.5 3.3v.1-.1Zm-.1-8.5H27Zm0 14.9Zm-.3-14.5-.1-.1Zm-.4 14.5h.1ZM28 57.6v.1h.2c0-.1-.1-.1-.2 0Zm.3-1c-.1 0-.2 0-.1.2l.1-.2Zm-.3 11v-.1l-.2-.1.1.2Zm1-17Zm.2 5.5Zm.2-3.1Zm-2.8 9.8Zm3.2.3Zm-.2 3.1v-.1.1Zm-.7-2.3v-.2.1Zm-1.2-8.4Zm1 2h-.2v.1h.2Zm-1 10.5Zm1-7.8h.1Zm0 8.7h-.1Zm.3-12.8Zm-5.3 3.1v.1-.1Zm.3 6.2Zm-.1-15.3Zm9 1.3v.1-.1Zm-8.6 5v-.1Zm.4 9Zm-1-5.9Zm-.3-1.7h-.1Zm0 2Zm.3-2.2Zm1.3 9.5Zm-1.4 1.6Zm2.3-1.7Zm.1-1.6v-.1h-.1v.1h.1Zm0-12.7h-.1Zm-.8 14Zm.6-1.8v-.1Zm0-7v-.1Zm.7 10.7Zm-1-18.7v.1c-.1 0 0 0 0 0Zm-.2 16.3v.1Zm.2-6.3Zm.6-2.5H26l.1.2v-.2Zm-.5-.2Zm.4 10.5Zm12-54.1Zm2.9 47-.2-.2v.1c0 .1 0 .1.2 0Zm-1-29.2Zm1.1 3.3h-.1.1Zm-.5 2Zm3.4 12.6Zm-3.2 3v.1-.1Zm-1.5-25Zm.2-6.5Zm0 2.6Zm.2 7.1Zm0-9ZM42 46.9c.1 0 .1 0 0 0Zm.6-4v.1Zm.2 4h.1Zm0 .4Zm.7-3.4Zm0 3Zm-1.6 4Zm.5-1.6ZM39 48h.2-.2Zm-.4.4Zm.3-27.8Zm-.3 26.8Zm1.3.3Zm-5.1-.7ZM23.2 58.9ZM38.2 2ZM38 20.5c0-.1 0-.1-.1 0Zm0-8h.1Zm0 .9h.2-.2Zm5.6 38v-.1ZM33.5 46Zm1.3 6.7Zm.1-18.3Zm4-13.9h-.1Zm-4.3 14.8Zm-1.3 10.2v-.1Zm2-10.3h-.1Zm2.1-15Zm0 6.2Zm1.1 4.8Zm.3-18.3Zm-.3.4h.1-.1Zm-.1 1.5Zm-.9.4h-.1.1Zm.7 15.9Zm0-27.2h.1Zm-.5 8.1Zm-.3.7h.1-.1Zm.1-5.4Zm-2.2 35.2Zm-21.9 16Zm-.2 3Zm.6-4.6Zm0-4.1v-.1h-.1Zm-.1 4.5Zm9.3-2v.1Zm-9.8 4Zm0 0Zm0 0Zm0 2.2Zm0 .7Zm.8-2.7.1.1-.1-.1Zm.7.6Zm0 2.5Zm0 0Zm0 0Zm.7 0v-.1Zm0-7.2Zm-2.9.8Zm1.8-.6ZM15 58h-.2v.1h.2Zm-.2-2.4Zm-.1 2.4Zm0 4.4Zm-.4-1.7Zm-4.9-2.3h.1Zm1 4.3Zm-1.2-1v.1Zm2.8-1.6Zm-3.6-.5Zm1.8-1v.1ZM66.5 63Zm-56.3-1.4v-.3l-.1.2s0 .1.1 0ZM38.1 69ZM7.4 61.4Zm2.7-2.8H10Zm1.7 1.2Zm-4.3 1Zm4.2-1.5Zm.6.8V60Zm0-3.8h.1Zm-.7 3h.1Zm.3 0h-.2.1Zm-1-.3v.1s0 .1.2 0H11Zm.2 3.2Zm.5-3.7Zm-.4.4Zm.3 2.8Zm0-.4c.1 0 .1 0 0 0v-.1.1Zm1.9-5.5Zm3.9 11.5-.1-.2-.2.1h.3Zm.2 1Zm.2-2Zm1.4.2v.1h.1-.1Zm-.3 2.2h.1Zm.7-16.1Zm0 9.7Zm-.3 3.9Zm.4-5.5h-.2.2Zm.6.7Zm-3 5.3H17ZM23 56.6Zm-1.7 10h.1s0-.1 0 0Zm1-.5Zm.5-13.2Zm.2 6.3h-.2.2Zm-3.6-7.7.1.2v-.2Zm.7 14ZM20 68Zm-.1.5Zm-.3-2.3h.1Zm1.3.6v-.1Zm.3-.8v.1h.2l-.2-.1ZM20 67.5Zm-4-9.2Zm5.6 0c0-.1 0-.1 0 0Zm1-2.1Zm-.2 5.7Zm0-4.7Zm.5 6.4Zm-1.3-6.1Zm-5.4 1.2Zm.2 1.6Zm2.8-1.7h.1c0-.1 0 0 0 0ZM17.6 52Zm-.3 4.3Zm-.4 6.6v-.1Zm5.9.9v-.1Zm-4-11.5h-.1v.1ZM19 57v-.1Zm.4 5.6h-.1Zm-1.6-4Zm1.5 3.5Zm0-5H19h.2ZM18 57Zm-.2.1Zm.9-4.5ZM18.4 63Zm-.3-11Zm0 2.7h.1Zm9.3-.7Zm19.9 12.5Zm-.5 1Zm.9-13.4Zm-1.3 4.2Zm1.2 3.9Zm0-4.4ZM46 62.3h.1-.1Zm-.8 4.8Zm.3-15.1-.1.1v.2l.2-.1V52Zm.5 8.2Zm-.3 4.4Zm5-8.7h-.1v.1Zm-5.9-9.7Zm6 5.2v-.1h-.1Zm.2-2.5Zm-.3 15h.1-.1Zm0-15Zm-.6 7v.1Zm-.3-2.7Zm1.5-4.2Zm-.8.1Zm0 9Zm-.2-8.6Zm-2.1 16v.1Zm1.1-3.7.2-.1h-.2ZM38 60Zm1.8 2.5Zm-.3 2.2h.1c0-.1 0 0-.1 0Zm.1-2Zm-.5-4.1h.1Zm.1 8.5Zm-.2-5.7Zm-.6 6.8Zm0-4.6h.1Zm.3-6.7Zm0 5.2h-.1Zm5-10.1v-.2c-.2.1-.3 0-.4 0v.1l.3.3s.2-.1.1-.2Zm-.9 8Zm1.3-8Zm-.5 8.4Zm.4-1Zm.1-10.2ZM40 67.5Zm0 1h.1v-.1Zm-.2-7.6Zm2-3.6v.1h.2l-.2-.1Zm.7 11Zm.4-3.1h-.1Zm-1.6-7.6Zm-2 10.8h-.1Zm21.7-10v-.1Zm.3-1.6Zm-.1-3.2Zm-.7 7h.2c-.1-.1-.2 0-.2 0Zm.7-2.5v-.2.2Zm-.9 4Zm.5-9Zm-1-.6Zm0 0Zm0 0h-.2.1Zm1.6 11ZM63 62Zm3.1.8Zm-1-1.7Zm-2.8-3.3Zm4.1 1.7v.1h.1-.1Zm.7.6Zm-2 3.9ZM63 55Zm-.7 8.6h.1Zm.8.5Zm-3.5-8.8Zm4.3 1.9Zm0 1.1ZM58.8 55Zm.5-.6ZM55 60Zm3.1-8.5Zm-4-1.5Zm4.3 13.7h-.2l.2.2v-.2Zm-.1-3.3v-.1H58c.1.1.1 0 .2 0Zm-6.3 3s0-.1 0 0Zm0-12.1V51l-.1.1Zm2 11.5Zm-.8-9.3c.2 0 .2 0 .1-.2 0 0-.1 0 0 .2Zm-.6 8.3Zm0 3Zm2-6.1Zm3.4-.8v-.1c.1-.1.1-.2 0-.2v.3Zm-.1-3.8Zm-.1-5.9ZM59 64.7Zm-7.6 2.2h.1Zm5.6-4Zm0-7.4Zm-1.5 3h.1-.1Zm0-3.8Zm.9 3.4Zm-.3-10.5Zm0 10ZM37.5 66Zm-6.5.5Zm-1-5.9Zm0-6.9Zm0-4c0-.1 0 0 0 0Zm2.2-1.3Zm.3 6.5Zm-.6 6.5V61v.1Zm0-12.1V49l-.1.2v.1Zm.6 2.6h-.2s.1.1.2 0Zm-.7-5.4Zm-1.7 14.8V61Zm.1 5Zm.3-16.5Zm-.2 16.1Zm.3-.5Zm0-8.2Zm-.3 9.3Zm1.7-7.3Zm-1.6-11.7Zm-.1 16.2Zm.1-5.7v.1-.1Zm0 8.7Zm0-3.7h-.1Zm0-6.7-.2-.1s0 .2.2.1Zm6.5-5.4h.1-.1ZM36.5 35Zm.2-5.6Zm-.2 7v.1Zm.1-7Zm-.5 4.7Zm1-10v.1Zm-.4 5.3ZM38 52.8Zm5.6-5Zm-7.8-7.3v.1-.1Zm-.3-5.8v.1ZM37 22.4ZM43.7 46Zm-13 15-.1.1Zm6.7-13Zm.4-1Zm0 1.8Zm0 .4Zm-1.4-3Zm-.7 7Zm1.5-27.5ZM35.4 43Zm.8 4.2h.2-.2Zm-.3 3.8Zm-.1-2.5Zm1.4 20Zm-1.8.3ZM35.3 57Zm0 7h.1Zm.3.5Zm0-2.4Zm-1.2 4.3Zm.6-.8h.2-.2Zm-1-6.4h.3-.2Zm2 2.3v.1l.1-.1h-.2Zm-1.2.6Zm-.2-3.7Zm2.5 9.5v.1l.2-.1H37Zm0-2.6H37Zm-2.9-2.9Zm2.3 3.9Zm1.1.9h.1Zm6-21v.1Zm-5.7 16.4Zm-1.6-.9.2.1s-.1-.1-.2 0Zm0 0Zm.5 4.9Zm.2-9.2Zm-.3 5Zm0-2Zm-6-7.8Zm.8 8.5V61Zm0 2.7c-.1 0 0 0 0 0Zm.5 2Zm-.4-7h-.1c0 .1 0 .1.1 0Zm.5 3Zm-.9-11Zm3 13.1Zm-3.6 4.2Zm1.7-11Zm-1.8 8h.1s0-.1 0 0Zm.8 1.3Zm0-10.2Zm-.6 11.4v-.1h-.1Zm2.2-8.2h.1-.1Zm.6 5.1Zm0 3.5Zm.4.6Zm0-8.6Zm-1.2 4.2Zm0-6.5v.2-.1Zm-.3-.4Zm.4 1Zm-.5 1.8Zm.5-2h-.1"/>
  </g>
  <path fill="none" stroke="#fff" stroke-width="3.6" d="M3.2 67.7v2.7H8V72H1.3v-9.8h6.5v1.6H3.2V66h4v1.6Zm7.3-4c-.4 0-.6-.1-.8-.3a1 1 0 0 1-.4-.8c0-.3.2-.6.4-.8.2-.2.4-.3.8-.3l.6.1.4.4.1.6-.1.6-.4.3-.6.2Zm-1 8.3v-7.4h2V72Zm4.3 0v-6h-1v-1.4h1l-.1-1c0-.4 0-.8.3-1.1a2 2 0 0 1 1-.8c.3-.2.8-.2 1.4-.2.8 0 1.4 0 1.8.4l-.4 1.3h-.2l-1-.2c-.4 0-.6 0-.8.2a1 1 0 0 0-.3.7 2.2 2.2 0 0 0 .1.7h2.2V66h-2.2v6Zm11.4-3.3h-4.8c0 .7.2 1.1.6 1.4.3.3.7.5 1.2.5s.8-.1 1-.3c.3-.1.5-.4.7-.7h.2l1.2.8a3 3 0 0 1-1.1 1.3c-.5.3-1.1.4-2 .4-.7 0-1.4-.1-2-.4a3 3 0 0 1-1.2-1.3 4.6 4.6 0 0 1 0-4.2c.3-.6.7-1 1.3-1.3.5-.3 1.1-.5 1.8-.5 1 0 1.9.3 2.4.9.6.5.9 1.3.9 2.4v1Zm-1.6-1.2c0-.6-.2-1-.4-1.2-.3-.3-.6-.4-1.1-.4-1 0-1.5.5-1.7 1.6Zm5.4 4.6c-.7 0-1.2-.1-1.5-.5-.4-.4-.6-1-.6-1.7v-8.3h1.9v8.3c0 .4.2.7.6.7l.3-.1.3 1.5h-.4l-.6.1Zm12.3-10v1.7h-2.8V72h-2v-8.2h-2.8v-1.6Zm4.6 10a4 4 0 0 1-2-.4 3 3 0 0 1-1.2-1.3 4.6 4.6 0 0 1 0-4.2c.3-.6.7-1 1.3-1.3a4 4 0 0 1 1.9-.5 4 4 0 0 1 1.9.5c.6.3 1 .7 1.3 1.3.3.6.4 1.3.4 2 0 1-.1 1.6-.4 2.2-.3.6-.7 1-1.3 1.3a4 4 0 0 1-2 .4Zm0-1.5c1.1 0 1.7-.8 1.7-2.3 0-.8-.1-1.4-.4-1.7-.3-.4-.8-.6-1.3-.6-1.2 0-1.7.8-1.7 2.3 0 1.5.5 2.3 1.7 2.3Zm8.3 1.4h-2l-1.7-7.4h1.7l1 5h.2l1.4-5h1.7l1.4 5h.2l1-5h1.7L59 72h-2l-1.3-5h-.2Zm14.2-3.3h-4.8c0 .7.3 1.1.6 1.4.3.3.7.5 1.3.5.4 0 .7-.1 1-.3.3-.1.5-.4.6-.7h.2l1.2.8a3 3 0 0 1-1 1.3c-.6.3-1.2.4-2 .4s-1.5-.1-2-.4a3 3 0 0 1-1.3-1.3 4.6 4.6 0 0 1 0-4.2c.3-.6.7-1 1.3-1.3.5-.3 1.1-.5 1.8-.5 1 0 1.9.3 2.4.9.6.5.9 1.3.9 2.4v1Zm-1.6-1.2c0-.6-.2-1-.4-1.2-.3-.3-.6-.4-1-.4-1 0-1.6.5-1.7 1.6Zm3.4 4.5v-7.4H72v1l.1.1.7-.9a2 2 0 0 1 1.1-.3c.4 0 .8 0 1 .2l-.3 1.6H74a2 2 0 0 0-.4 0c-.6 0-1 .1-1.2.5-.3.3-.4 1-.4 1.7V72Zm0 0"/>
  <path d="M3.2 67.7v2.7H8V72H1.3v-9.8h6.5v1.6H3.2V66h4v1.6Zm7.3-4c-.4 0-.6-.1-.8-.3a1 1 0 0 1-.4-.8c0-.3.1-.6.4-.8.2-.2.4-.3.8-.3l.6.1.4.4.1.6-.1.6-.4.3-.6.2Zm-1 8.3v-7.4h2V72Zm4.3 0v-6h-1v-1.4h1a4 4 0 0 1-.1-1c0-.4 0-.8.3-1.1.2-.4.5-.6 1-.8.3-.2.8-.3 1.4-.3a3 3 0 0 1 1.8.5l-.4 1.3h-.2l-1-.2c-.4 0-.6 0-.8.2a1 1 0 0 0-.3.7v.3l.1.4h2.2V66h-2.2v6Zm11.4-3.3h-4.8c0 .6.2 1.1.5 1.4.4.3.8.5 1.3.5s.8-.1 1-.3c.3-.1.5-.4.7-.7h.2l1.2.8a3 3 0 0 1-1.1 1.3c-.5.3-1.1.4-2 .4-.7 0-1.4-.1-2-.4a3 3 0 0 1-1.2-1.3 4.6 4.6 0 0 1 0-4.2c.3-.6.7-1 1.3-1.3.5-.3 1.1-.5 1.8-.5 1 0 1.9.3 2.4.9.6.5.9 1.3.9 2.4v1Zm-1.6-1.2c0-.6-.2-1-.4-1.2-.3-.3-.6-.4-1.1-.4-1 0-1.5.5-1.7 1.6Zm5.4 4.6c-.7 0-1.2-.1-1.5-.5-.4-.4-.6-1-.6-1.7v-8.3h1.9v8.3c0 .4.2.7.6.7l.3-.1h.1L30 72h-.5a3 3 0 0 1-.5.1Zm12.3-9.9v1.6h-2.8V72h-2v-8.2h-2.8v-1.6Zm4.6 9.9a4 4 0 0 1-2-.4 3 3 0 0 1-1.2-1.3 4.6 4.6 0 0 1 0-4.2c.3-.6.7-1 1.3-1.3a4 4 0 0 1 1.9-.5c.7 0 1.4.2 1.9.5s1 .7 1.3 1.3c.3.6.4 1.3.4 2 0 1-.1 1.6-.4 2.2-.3.6-.8 1-1.3 1.3a4 4 0 0 1-2 .4Zm0-1.5c1.1 0 1.7-.8 1.7-2.3 0-.8-.1-1.4-.4-1.7-.3-.4-.8-.6-1.3-.6-1.2 0-1.7.8-1.7 2.3 0 1.5.5 2.3 1.7 2.3Zm8.3 1.4h-2l-1.7-7.4h1.7l1 5h.2l1.4-5h1.7l1.4 5h.2l1-5h1.7L59 72h-2l-1.3-5h-.2Zm14.2-3.3h-4.8c0 .6.2 1.1.6 1.4.3.3.7.5 1.3.5.4 0 .7-.1 1-.3.2-.1.5-.4.6-.7h.2l1.2.8a3 3 0 0 1-1 1.3c-.6.3-1.2.4-2 .4s-1.5-.1-2-.4a3 3 0 0 1-1.3-1.3 4.6 4.6 0 0 1 0-4.2c.3-.6.7-1 1.3-1.3.5-.3 1.1-.5 1.8-.5 1 0 1.9.3 2.4.9.6.5.9 1.3.9 2.4v1Zm-1.6-1.2c0-.6-.2-1-.4-1.2-.3-.3-.6-.4-1-.4-1 0-1.6.5-1.7 1.6Zm3.4 4.5v-7.4H72v1l.1.1c.2-.4.5-.7.8-.9.2-.2.6-.3 1-.3s.8 0 1 .2l-.3 1.6h-.2a2 2 0 0 0-.3 0h-.4c-.6 0-1 .1-1.2.5-.3.3-.4 1-.4 1.7V72Zm0 0"/>
</svg>
