<svg xmlns="http://www.w3.org/2000/svg" version="1.0" viewBox="0 0 75 75">
  <defs>
    <clipPath id="a">
      <path d="M21.6 27H32v32.3H21.6Zm0 0"/>
    </clipPath>
    <clipPath id="b">
      <path d="M24 27h4v32.3h-4Zm0 0"/>
    </clipPath>
    <clipPath id="c">
      <path d="M26 27h3v32.3h-3Zm0 0"/>
    </clipPath>
    <clipPath id="d">
      <path d="M42 27h11.1v32.3H42Zm0 0"/>
    </clipPath>
    <clipPath id="e">
      <path d="M45 27h4v32.3h-4Zm0 0"/>
    </clipPath>
    <clipPath id="f">
      <path d="M47 27h3v32.3h-3Zm0 0"/>
    </clipPath>
  </defs>
  <path fill="#bfbab9" d="m31.9 41.6 5.6-8.2 5.7 8.3h.3v-.2L37.6 33h-.2l-5.8 8.3v.2h.3"/>
  <path fill="#bfbab9" d="m31.8 42.5 5.6-8.3 5.8 8 .1-.2-5.8-8h-.1l-5.7 8.4v.2"/>
  <path fill="#d3cecc" d="M43 33.4H32v-1.8h11.2v1.8M26.9 4.3h-.2V0h.2v4.3m2.1 6s-1.5-5.6-2.3-5.6c-.6 0-2 5.6-2 5.6H29"/>
  <path fill="#d3cecc" d="M27.4 4.4c0 .3-.3.6-.6.6a.6.6 0 0 1-.6-.6c0-.3.3-.6.6-.6s.6.3.6.6M30 15.9v-3.4s-1-.5-3.3-.5c-2.1 0-3.1.6-3.1.6V16H30"/>
  <path fill="#d3cecc" d="M29.2 12.5V10s-.8-.5-2.5-.5c-1.6 0-2.4.5-2.4.5v2.5h5"/>
  <g clip-path="url(#a)">
    <path fill="#d3cecc" d="M32 59.2H21.6V28.6s1.6-.7 5.1-.7c3.4 0 5.3.7 5.3.7v30.6"/>
  </g>
  <path fill="#d3cecc" d="M31 21v-5s-1.4-.7-4.3-.7c-2.8 0-4.1.6-4.1.6v5.2H31"/>
  <path fill="#d3cecc" d="M31.5 28.6V21s-1.6-.7-4.8-.7c-3.1 0-4.6.7-4.6.7v7.6h9.4"/>
  <path fill="#1a4582" d="M27.4 9.6s-.4-1.2-.7-1.2l-.6 1.2h1.3"/>
  <path fill="#1a4582" d="M27.4 8.8s-.4-1-.6-1c-.2 0-.6 1-.6 1h1.2"/>
  <path fill="#1a4582" d="M27.3 8s-.3-1-.5-1-.6 1-.6 1h1.1"/>
  <path fill="#1a4582" d="m27.3 7-.5-.8c-.2 0-.5.9-.5.9h1"/>
  <path fill="#1a4582" d="m27.2 6.3-.4-.9c-.2 0-.5.9-.5.9h1"/>
  <path fill="#0c2444" d="m26.3 9.3-.2.3h1.3l-.1-.3h-1m0-.8v.3h1v-.3h-1m0-.8v.2h1v-.2h-1m.1-.8-.1.2h1l-.1-.2h-.8m0-.9v.3h.8V6h-.8"/>
  <path fill="#bfbab9" d="M27.3 12a9.4 9.4 0 0 0-3 .2V16h3v-4"/>
  <path fill="#bfbab9" d="M27.3 9.5h-.6c-1.4 0-2.1.3-2.3.5v2.5h3v-3"/>
  <g clip-path="url(#b)">
    <path fill="#bfbab9" d="M27.3 28h-2.9v31.2h3V28"/>
  </g>
  <path fill="#bfbab9" d="M27.3 15.3a15.2 15.2 0 0 0-3 .2V21h3v-5.8"/>
  <path fill="#bfbab9" d="M27.3 20.4a31 31 0 0 0-3 0v8.2h3v-8.2"/>
  <path fill="#a29e9d" d="m28.3 12-1.6-.1v4h1.6V12"/>
  <path fill="#a29e9d" d="M28.3 9.7a7 7 0 0 0-1.6-.2v3h1.6V9.7"/>
  <g clip-path="url(#c)">
    <path fill="#a29e9d" d="M28.3 28h-1.6v31.2h1.6V28"/>
  </g>
  <path fill="#a29e9d" d="m28.3 15.4-1.6-.1V21h1.6v-5.7"/>
  <path fill="#a29e9d" d="M28.3 20.4h-1.6v8.2h1.6v-8.2"/>
  <path fill="#1a4582" d="M23.6 29.7h-1.3V29h1.3v.7m2-.2h-1.4v-.7h1.4v.7m1.9-.2h-1.3v-.8h1.3v.8m2 .2H28v-.7h1.4v.7m2 .3H30V29h1.4v.8"/>
  <path fill="#0c2444" d="M22.3 29.7h1.3v-.2h-1.3v.2m1.9-.2h1.4v-.3h-1.4v.3m2-.2h1.3V29h-1.3v.3m1.8.2h1.5v-.3H28v.3m2 .3h1.4v-.3H30v.3"/>
  <path fill="#1a4582" d="M23.6 31h-1.3v-.6h1.3v.7m2-.2h-1.4V30h1.4v.8m1.9-.2h-1.3V30h1.3v.7m2 .2H28V30h1.4v.8m2 .3H30v-.7h1.4v.7"/>
  <path fill="#0c2444" d="M22.3 31h1.3v-.2h-1.3v.3m1.9-.2h1.4v-.3h-1.4v.3m2-.3h1.3v-.2h-1.3v.2m1.8.3h1.5v-.3H28v.3m2 .2h1.4V31H30v.2"/>
  <path fill="#1a4582" d="M23.6 32.5h-1.3v-.8h1.3v.8m2-.3h-1.4v-.7h1.4v.7m1.9-.2h-1.3v-.7h1.3v.7m2 .2H28v-.7h1.4v.7m2 .3H30v-.7h1.4v.7"/>
  <path fill="#0c2444" d="M22.3 32.5h1.3v-.3h-1.3v.3m1.9-.3h1.4V32h-1.4v.2m2-.2h1.3v-.2h-1.3v.2m1.8.2h1.5V32H28v.2m2 .3h1.4v-.2H30v.2"/>
  <path fill="#1a4582" d="M23.6 33.8h-1.3v-.7h1.3v.7m2-.2h-1.4V33h1.4v.7m1.9-.3h-1.3v-.7h1.3v.7m2 .2H28V33h1.4v.7m2 .2H30v-.7h1.4v.7"/>
  <path fill="#0c2444" d="M22.3 33.8h1.3v-.2h-1.3v.2m1.9-.2h1.4v-.2h-1.4v.2m2-.2h1.3V33h-1.3v.3m1.8.3h1.5v-.2H28v.2m2 .3h1.4v-.3H30v.3"/>
  <path fill="#1a4582" d="M23.6 35.2h-1.3v-.7h1.3v.7m2-.2h-1.4v-.7h1.4v.7m1.9-.2h-1.3V34h1.3v.8m2 .2H28v-.7h1.4v.7m2 .3H30v-.8h1.4v.8"/>
  <path fill="#0c2444" d="M22.3 35.2h1.3V35h-1.3v.2m1.9-.2h1.4v-.3h-1.4v.3m2-.2h1.3v-.3h-1.3v.3m1.8.2h1.5v-.3H28v.3m2 .3h1.4V35H30v.3"/>
  <path fill="#1a4582" d="M23.6 36.6h-1.3v-.7h1.3v.7m2-.2h-1.4v-.8h1.4v.8m1.9-.3h-1.3v-.7h1.3v.7m2 .3H28v-.8h1.4v.8m2 .2H30V36h1.4v.7"/>
  <path fill="#0c2444" d="M22.3 36.6h1.3v-.3h-1.3v.3m1.9-.2h1.4V36h-1.4v.3m2-.2h1.3V36h-1.3v.2m1.8.2h1.5V36H28v.3m2 .3h1.4v-.2H30v.2"/>
  <path fill="#1a4582" d="M23.6 38h-1.3v-.8h1.3v.8m2-.3h-1.4V37h1.4v.7m1.9-.2h-1.3v-.7h1.3v.7m2 .2H28V37h1.4v.7m2 .3H30v-.7h1.4v.7"/>
  <path fill="#0c2444" d="M22.3 38h1.3v-.3h-1.3v.3m1.9-.3h1.4v-.2h-1.4v.2m2-.2h1.3v-.2h-1.3v.2m1.8.2h1.5v-.2H28v.2m2 .3h1.4v-.2H30v.2"/>
  <path fill="#1a4582" d="M23.6 39.3h-1.3v-.7h1.3v.7m2-.2h-1.4v-.7h1.4v.7m1.9-.2h-1.3v-.7h1.3v.7m2 .2H28v-.7h1.4v.7m2 .3H30v-.7h1.4v.7"/>
  <path fill="#0c2444" d="M22.3 39.3h1.3v-.2h-1.3v.2m1.9-.2h1.4V39h-1.4v.2m2-.3h1.3v-.3h-1.3v.3m1.8.2h1.5V39H28v.2m2 .2h1.4V39H30v.3"/>
  <path fill="#1a4582" d="M23.6 40.7h-1.3V40h1.3v.7m2-.2h-1.4v-.7h1.4v.7m1.9-.2h-1.3v-.8h1.3v.8m2 .2H28v-.7h1.4v.7m2 .3H30V40h1.4v.8"/>
  <path fill="#0c2444" d="M22.3 40.7h1.3v-.2h-1.3v.2m1.9-.2h1.4v-.3h-1.4v.3m2-.2h1.3V40h-1.3v.3m1.8.2h1.5v-.3H28v.3m2 .3h1.4v-.3H30v.3"/>
  <path fill="#1a4582" d="M23.6 42h-1.3v-.6h1.3v.7m2-.2h-1.4V41h1.4v.8m1.9-.2h-1.3V41h1.3v.7m2 .2H28V41h1.4v.8m2 .3H30v-.7h1.4v.7"/>
  <path fill="#0c2444" d="M22.3 42h1.3v-.2h-1.3v.3m1.9-.2h1.4v-.3h-1.4v.3m2-.3h1.3v-.2h-1.3v.2m1.8.3h1.5v-.3H28v.3m2 .2h1.4V42H30v.2"/>
  <path fill="#1a4582" d="M23.6 43.5h-1.3v-.8h1.3v.8m2-.3h-1.4v-.7h1.4v.7m1.9-.2h-1.3v-.7h1.3v.7m2 .2H28v-.7h1.4v.7m2 .3H30v-.7h1.4v.7"/>
  <path fill="#0c2444" d="M22.3 43.5h1.3v-.3h-1.3v.3m1.9-.3h1.4V43h-1.4v.2m2-.2h1.3v-.2h-1.3v.2m1.8.2h1.5V43H28v.2m2 .3h1.4v-.2H30v.2"/>
  <path fill="#1a4582" d="M23.6 44.8h-1.3v-.7h1.3v.7m2-.2h-1.4V44h1.4v.7m1.9-.3h-1.3v-.7h1.3v.7m2 .2H28V44h1.4v.7m2 .2H30v-.7h1.4v.7"/>
  <path fill="#0c2444" d="M22.3 44.8h1.3v-.2h-1.3v.2m1.9-.2h1.4v-.2h-1.4v.2m2-.2h1.3V44h-1.3v.3m1.8.3h1.5v-.2H28v.2m2 .3h1.4v-.3H30v.3"/>
  <path fill="#1a4582" d="M23.6 46.2h-1.3v-.7h1.3v.7m2-.2h-1.4v-.7h1.4v.7m1.9-.2h-1.3V45h1.3v.8m2 .2H28v-.7h1.4v.7m2 .3H30v-.8h1.4v.8"/>
  <path fill="#0c2444" d="M22.3 46.2h1.3V46h-1.3v.2m1.9-.2h1.4v-.3h-1.4v.3m2-.2h1.3v-.3h-1.3v.3m1.8.2h1.5v-.3H28v.3m2 .3h1.4V46H30v.3"/>
  <path fill="#1a4582" d="M23.6 47.6h-1.3v-.7h1.3v.7m2-.2h-1.4v-.8h1.4v.8m1.9-.3h-1.3v-.7h1.3v.7m2 .3H28v-.8h1.4v.8m2 .2H30V47h1.4v.7"/>
  <path fill="#0c2444" d="M22.3 47.6h1.3v-.3h-1.3v.3m1.9-.2h1.4V47h-1.4v.3m2-.2h1.3V47h-1.3v.2m1.8.2h1.5V47H28v.3m2 .3h1.4v-.2H30v.2"/>
  <path fill="#1a4582" d="M23.6 49h-1.3v-.8h1.3v.8m2-.3h-1.4V48h1.4v.7m1.9-.2h-1.3v-.7h1.3v.7m2 .2H28V48h1.4v.7m2 .3H30v-.7h1.4v.7"/>
  <path fill="#0c2444" d="M22.3 49h1.3v-.3h-1.3v.3m1.9-.3h1.4v-.2h-1.4v.2m2-.2h1.3v-.2h-1.3v.2m1.8.2h1.5v-.2H28v.2m2 .3h1.4v-.2H30v.2"/>
  <path fill="#1a4582" d="M23.6 50.3h-1.3v-.7h1.3v.7m2-.2h-1.4v-.7h1.4v.7m1.9-.2h-1.3v-.7h1.3v.7m2 .2H28v-.7h1.4v.7m2 .3H30v-.7h1.4v.7"/>
  <path fill="#0c2444" d="M22.3 50.3h1.3v-.2h-1.3v.2m1.9-.2h1.4V50h-1.4v.2m2-.3h1.3v-.3h-1.3v.3m1.8.2h1.5V50H28v.2m2 .2h1.4V50H30v.3"/>
  <path fill="#1a4582" d="M23.6 51.7h-1.3V51h1.3v.7m2-.2h-1.4v-.7h1.4v.7m1.9-.2h-1.3v-.8h1.3v.8m2 .2H28v-.7h1.4v.7m2 .3H30V51h1.4v.8"/>
  <path fill="#0c2444" d="M22.3 51.7h1.3v-.2h-1.3v.2m1.9-.2h1.4v-.3h-1.4v.3m2-.2h1.3V51h-1.3v.3m1.8.2h1.5v-.3H28v.3m2 .3h1.4v-.3H30v.3"/>
  <path fill="#1a4582" d="M23.6 53h-1.3v-.6h1.3v.7m2-.2h-1.4V52h1.4v.8m1.9-.2h-1.3V52h1.3v.7m2 .2H28V52h1.4v.8m2 .3H30v-.7h1.4v.7"/>
  <path fill="#0c2444" d="M22.3 53h1.3v-.2h-1.3v.3m1.9-.2h1.4v-.3h-1.4v.3m2-.3h1.3v-.2h-1.3v.2m1.8.3h1.5v-.3H28v.3m2 .2h1.4V53H30v.2"/>
  <path fill="#1a4582" d="M23.6 54.5h-1.3v-.8h1.3v.8m2-.3h-1.4v-.7h1.4v.7m1.9-.2h-1.3v-.7h1.3v.7m2 .2H28v-.7h1.4v.7m2 .3H30v-.7h1.4v.7"/>
  <path fill="#0c2444" d="M22.3 54.5h1.3v-.3h-1.3v.3m1.9-.3h1.4V54h-1.4v.2m2-.2h1.3v-.2h-1.3v.2m1.8.2h1.5V54H28v.2m2 .3h1.4v-.2H30v.2"/>
  <path fill="#1a4582" d="M23.6 55.8h-1.3v-.7h1.3v.7m2-.2h-1.4V55h1.4v.7m1.9-.3h-1.3v-.7h1.3v.7m2 .2H28V55h1.4v.7m2 .2H30v-.7h1.4v.7"/>
  <path fill="#0c2444" d="M22.3 55.8h1.3v-.2h-1.3v.2m1.9-.2h1.4v-.2h-1.4v.2m2-.2h1.3V55h-1.3v.3m1.8.3h1.5v-.2H28v.2m2 .3h1.4v-.3H30v.3"/>
  <path fill="#1a4582" d="M23.6 57.2h-1.3v-.7h1.3v.7m2-.2h-1.4v-.7h1.4v.7m1.9-.2h-1.3V56h1.3v.8m2 .2H28v-.7h1.4v.7m2 .3H30v-.8h1.4v.8"/>
  <path fill="#0c2444" d="M22.3 57.2h1.3V57h-1.3v.2m1.9-.2h1.4v-.3h-1.4v.3m2-.2h1.3v-.3h-1.3v.3m1.8.2h1.5v-.3H28v.3m2 .3h1.4V57H30v.3"/>
  <path fill="#1a4582" d="M23.6 58.6h-1.3v-.7h1.3v.7m2-.2h-1.4v-.8h1.4v.8m1.9-.3h-1.3v-.7h1.3v.7m2 .3H28v-.8h1.4v.8m2 .2H30V58h1.4v.7"/>
  <path fill="#0c2444" d="M22.3 58.6h1.3v-.3h-1.3v.3m1.9-.2h1.4V58h-1.4v.3m2-.2h1.3V58h-1.3v.2m1.8.2h1.5V58H28v.3m2 .3h1.4v-.2H30v.2"/>
  <path fill="#1a4582" d="M24 22h-1.4v-.6H24v.7m1.7-.2h-1.2v-.7h1.2v.7m1.8-.3h-1.2V21h1.2v.6m1.8.3h-1.2v-.7h1.2v.7m1.8.2H30v-.7h1v.7"/>
  <path fill="#0c2444" d="M22.6 22H24h-1.3v.2m1.8-.3h1.2v-.3h-1.2v.3m1.8-.3h1.2v-.2h-1.2v.2m1.7.3h1.3v-.3h-1.2v.3m1.8.2H31V22h-1v.2"/>
  <path fill="#1a4582" d="M24 17h-1v-.7h1v.6m1.8-.2h-1.2V16h1.2v.7m1.6-.2h-1.1v-.7h1.1v.7m1.6.2h-1V16h1v.7m1.7.3h-1.1v-.7h1.1v.7"/>
  <path fill="#0c2444" d="M23 17h1v-.3h-1v.2m1.6-.2h1.2v-.2h-1.2v.2m1.7-.2h1.1v-.2h-1.1v.2m1.7.2h1v-.2h-1v.2m1.6.3h1.1v-.3h-1.1v.3"/>
  <path fill="#1a4582" d="M24 18h-1v-.6h1v.6m1.8-.2h-1.2v-.6h1.2v.6m1.6-.2h-1.1V17h1.1v.7m1.6.1h-1v-.6h1v.6m1.7.2h-1.1v-.6h1.1v.7"/>
  <path fill="#0c2444" d="M23 18h1v-.2h-1v.2m1.6-.2h1.2v-.2h-1.2v.2m1.7-.2h1.1v-.2h-1.1v.2m1.7.2h1v-.2h-1v.2m1.6.2h1.1-1.1v.2"/>
  <path fill="#1a4582" d="M24 19.2h-1v-.7h1v.7m1.8-.2h-1.2v-.7h1.2v.7m1.6-.3h-1.1v-.6h1.1v.6m1.6.3h-1v-.7h1v.7m1.7.2h-1.1v-.7h1.1v.7"/>
  <path fill="#0c2444" d="M23 19.2h1v-.3h-1v.3m1.6-.2h1.2v-.3h-1.2v.3m1.7-.3h1.1v-.2h-1.1v.2m1.7.3h1v-.3h-1v.3m1.6.2h1.1V19h-1.1v.2"/>
  <path fill="#1a4582" d="M24 20.3h-1v-.7h1v.7m1.8-.3h-1.2v-.6h1.2v.7m1.6-.2h-1.1v-.7h1.1v.7m1.6.1h-1v-.6h1v.7m1.7.2h-1.1v-.6h1.1v.6"/>
  <path fill="#0c2444" d="M23 20.3h1V20h-1v.2m1.6-.2h1.2v-.2h-1.2v.3m1.7-.2h1.1v-.3h-1.1v.3m1.7.1h1v-.2h-1v.3m1.6.2h1.1v-.2h-1.1v.2"/>
  <path fill="#1a4582" d="M24 23.4h-1.4v-.6H24v.6m1.7-.2h-1.2v-.6h1.2v.6m1.8-.2h-1.2v-.7h1.2v.7m1.8.2h-1.2v-.6h1.2v.6m1.8.3H30v-.7h1v.7"/>
  <path fill="#0c2444" d="M22.6 23.4H24v-.2h-1.3v.2m1.8-.2h1.2V23h-1.2v.2m1.8-.2h1.2v-.2h-1.2v.2m1.7.2h1.3V23h-1.2v.2m1.8.3H31v-.3h-1v.3"/>
  <path fill="#1a4582" d="M24 24.8h-1.4V24H24v.7m1.7-.1h-1.2v-.7h1.2v.7m1.8-.2h-1.2v-.7h1.2v.7m1.8.2h-1.2v-.7h1.2v.7m1.8.2H30v-.6h1v.6"/>
  <path fill="#0c2444" d="M22.6 24.8H24v-.2h-1.3v.2m1.8-.2h1.2v-.2h-1.2v.2m1.8-.2h1.2V24h-1.2v.3m1.7.3h1.3v-.2h-1.2v.2m1.8.2H31v-.2h-1v.2"/>
  <path fill="#1a4582" d="M24 26.2h-1.4v-.7H24v.7m1.7-.2h-1.2v-.7h1.2v.6m1.8-.2h-1.2V25h1.2v.7m1.8.3h-1.2v-.7h1.2v.6m1.8.3H30v-.7h1v.7"/>
  <path fill="#0c2444" d="M22.6 26.2H24v-.3h-1.3v.3m1.8-.2h1.2v-.3h-1.2v.2m1.8-.2h1.2v-.2h-1.2v.2m1.7.3h1.3v-.3h-1.2v.2m1.8.3H31V26h-1v.2"/>
  <path fill="#1a4582" d="M24 27.5h-1.4v-.7H24v.7m1.7-.2h-1.2v-.7h1.2v.7m1.8-.3h-1.2v-.6h1.2v.7m1.8.2h-1.2v-.7h1.2v.7m1.8.2H30V27h1v.6"/>
  <path fill="#0c2444" d="M22.6 27.5H24v-.2h-1.3v.2m1.8-.2h1.2V27h-1.2v.2m1.8-.2h1.2-1.2v.2m1.7.1h1.3V27h-1.2v.2m1.8.3H31v-.2h-1v.2"/>
  <path fill="#1a4582" d="M24.8 13.1h-.9v-.5h.9v.5M26 13h-.8v-.5h.8v.5m1.3-.2h-.9v-.5h.9v.5m1.2.2h-.9v-.5h.9v.5m1.2.2H29v-.5h.8v.5"/>
  <path fill="#0c2444" d="M24 13.1h.8V13h-.9v.1m1.3-.1h.8v-.2h-.8v.2m1.2-.2h.9v-.1h-.9v.1m1.2.2h.9v-.2h-.9v.2m1.3.2h.8V13H29v.2"/>
  <path fill="#1a4582" d="M25.3 10.5h-.7v-.4h.7v.4m.9-.1h-.6V10h.6v.4m.9-.1h-.6v-.4h.6v.4m.9.1h-.6V10h.7v.4m.9.1h-.7v-.4h.7v.4"/>
  <path fill="#0c2444" d="M24.6 10.5h.7v-.1h-.7v.1m1-.1h.6v-.1h-.6m.9 0h.6V10h-.6v.2m.9.2h.7v-.1h-.7m.9.2h.7-.7"/>
  <path fill="#1a4582" d="M25.3 11.1h-.7v-.4h.7v.4m.9-.1h-.6v-.4h.6v.4m.9-.1h-.6v-.4h.6v.4m.9.1h-.6v-.4h.7v.4m.9.2h-.7v-.4h.7v.4"/>
  <path fill="#0c2444" d="M24.6 11.1h.7-.7m1-.1h.6-.6v.1m.9-.2h.6v-.2h-.6v.2m.9.1h.7-.7v.1m.9.1h.7V11h-.7v.2"/>
  <path fill="#1a4582" d="M25.3 11.8h-.7v-.4h.7v.4m.9-.2h-.6v-.4h.6v.4m.9-.1h-.6v-.4h.6v.4m.9.1h-.6v-.4h.7v.4m.9.2h-.7v-.4h.7v.4"/>
  <path fill="#0c2444" d="M24.6 11.8h.7v-.2h-.7v.2m1-.2h.6v-.1h-.6v.1m.9-.1h.6v-.1h-.6v.1m.9.1h.7v-.1h-.7v.1m.9.2h.7v-.1h-.7"/>
  <path fill="#1a4582" d="M24.8 14h-.9v-.4h.9v.5M26 14h-.8v-.6h.8v.5m1.3-.1h-.9v-.5h.9v.5m1.2.2h-.9v-.6h.9v.5m1.2.2H29v-.5h.8v.5"/>
  <path fill="#0c2444" d="M24 14h.8-.9m1.3 0h.8v-.2h-.8v.1m1.2-.1h.9v-.2h-.9v.2m1.2.2h.9v-.2h-.9v.1m1.3.2h.8V14H29v.1"/>
  <path fill="#1a4582" d="M24.8 15h-.9v-.5h.9v.5m1.2-.1h-.8v-.5h.8v.5m1.3-.2h-.9v-.5h.9v.5m1.2.2h-.9v-.5h.9v.5m1.2.1H29v-.4h.8v.5"/>
  <path fill="#0c2444" d="M24 15h.8-.9v.1m1.3-.2h.8v-.2h-.8v.2m1.2-.2h.9v-.1h-.9v.1m1.2.2h.9v-.2h-.9v.2m1.3.1h.8-.7v.2"/>
  <path fill="#d3cecc" d="M48 4.3h-.2V0h.3v4.3m1.9 6s-1.2-5.6-2-5.6c-.6 0-2 5.6-2 5.6h4.2"/>
  <path fill="#d3cecc" d="M48.5 4.4c0 .3-.2.6-.5.6a.6.6 0 0 1 0-1.2c.3 0 .5.3.5.6m2.7 11.5v-3.4S50.1 12 48 12s-3.2.6-3.2.6V16h6.5"/>
  <path fill="#d3cecc" d="M50.4 12.5V10s-.8-.5-2.5-.5c-1.6 0-2.4.5-2.4.5v2.5h5"/>
  <g clip-path="url(#d)">
    <path fill="#d3cecc" d="M53.1 59.2H42.8V28.6s1.6-.7 5-.7c3.5 0 5.3.7 5.3.7v30.6"/>
  </g>
  <path fill="#d3cecc" d="M52.2 21v-5s-1.5-.7-4.3-.7-4.2.6-4.2.6v5.2h8.5"/>
  <path fill="#d3cecc" d="M52.7 28.6V21s-1.7-.7-4.8-.7c-3.2 0-4.6.7-4.6.7v7.6h9.4"/>
  <path fill="#1a4582" d="M48.6 9.6s-.4-1.2-.7-1.2c-.2 0-.6 1.2-.6 1.2h1.3"/>
  <path fill="#1a4582" d="M48.5 8.8s-.3-1-.6-1l-.5 1h1.1"/>
  <path fill="#1a4582" d="M48.5 8s-.4-1-.6-1l-.5 1h1.1"/>
  <path fill="#1a4582" d="M48.4 7s-.3-.8-.5-.8l-.4.9h1"/>
  <path fill="#1a4582" d="M48.4 6.3s-.3-.9-.5-.9l-.4.9h1"/>
  <path fill="#0c2444" d="M47.4 9.3v.3h1.2l-.1-.3h-1m0-.8-.1.3h1.1v-.3h-1m0-.8v.2h1v-.2h-1m.1-.8-.1.2h1l-.1-.2h-.8m0-.9v.3h.8V6h-.8"/>
  <path fill="#bfbab9" d="M48.5 12a9.2 9.2 0 0 0-3 .2V16h3v-4"/>
  <path fill="#bfbab9" d="M48.5 9.5a7 7 0 0 0-.6 0c-1.4 0-2.1.3-2.4.5v2.5h3v-3"/>
  <g clip-path="url(#e)">
    <path fill="#bfbab9" d="M48.5 28h-3v31.2h3V28"/>
  </g>
  <path fill="#bfbab9" d="M48.5 15.3a14.9 14.9 0 0 0-3 .2V21h3v-5.8"/>
  <path fill="#bfbab9" d="M48.5 20.4a30.5 30.5 0 0 0-3 0v8.2h3v-8.2"/>
  <path fill="#a29e9d" d="M49.5 12h-1.6v4h1.7v-4"/>
  <path fill="#a29e9d" d="M49.5 9.7a7 7 0 0 0-1.6-.2h-.1v3h1.7V9.7"/>
  <g clip-path="url(#f)">
    <path fill="#a29e9d" d="M49.5 28h-1.7v31.2h1.7V28"/>
  </g>
  <path fill="#a29e9d" d="m49.5 15.4-1.6-.1h-.1V21h1.7v-5.7"/>
  <path fill="#a29e9d" d="M49.5 20.4h-1.7v8.2h1.7v-8.2"/>
  <path fill="#1a4582" d="M44.8 29.7h-1.4V29h1.4v.7m2-.2h-1.4v-.7h1.4v.7m1.9-.2h-1.4v-.8h1.4v.8m1.9.2h-1.3v-.7h1.3v.7m2 .3h-1.4V29h1.4v.8"/>
  <path fill="#0c2444" d="M43.4 29.7h1.4v-.2h-1.4v.2m2-.2h1.4v-.3h-1.4v.3m1.9-.2h1.4V29h-1.4v.3m2 .2h1.3v-.3h-1.3v.3m1.9.3h1.4v-.3h-1.4v.3"/>
  <path fill="#1a4582" d="M44.8 31h-1.4v-.6h1.4v.7m2-.2h-1.4V30h1.4v.8m1.9-.2h-1.4V30h1.4v.7m1.9.2h-1.3V30h1.3v.8m2 .3h-1.4v-.7h1.4v.7"/>
  <path fill="#0c2444" d="M43.4 31h1.4v-.2h-1.4v.3m2-.2h1.4v-.3h-1.4v.3m1.9-.3h1.4v-.2h-1.4v.2m2 .3h1.3v-.3h-1.3v.3m1.9.2h1.4V31h-1.4v.2"/>
  <path fill="#1a4582" d="M44.8 32.5h-1.4v-.8h1.4v.8m2-.3h-1.4v-.7h1.4v.7m1.9-.2h-1.4v-.7h1.4v.7m1.9.2h-1.3v-.7h1.3v.7m2 .3h-1.4v-.7h1.4v.7"/>
  <path fill="#0c2444" d="M43.4 32.5h1.4v-.3h-1.4v.3m2-.3h1.4V32h-1.4v.2m1.9-.2h1.4v-.2h-1.4v.2m2 .2h1.3V32h-1.3v.2m1.9.3h1.4v-.2h-1.4v.2"/>
  <path fill="#1a4582" d="M44.8 33.8h-1.4v-.7h1.4v.7m2-.2h-1.4V33h1.4v.7m1.9-.3h-1.4v-.7h1.4v.7m1.9.2h-1.3V33h1.3v.7m2 .2h-1.4v-.7h1.4v.7"/>
  <path fill="#0c2444" d="M43.4 33.8h1.4v-.2h-1.4v.2m2-.2h1.4v-.2h-1.4v.2m1.9-.2h1.4V33h-1.4v.3m2 .3h1.3v-.2h-1.3v.2m1.9.3h1.4v-.3h-1.4v.3"/>
  <path fill="#1a4582" d="M44.8 35.2h-1.4v-.7h1.4v.7m2-.2h-1.4v-.7h1.4v.7m1.9-.2h-1.4V34h1.4v.8m1.9.2h-1.3v-.7h1.3v.7m2 .3h-1.4v-.8h1.4v.8"/>
  <path fill="#0c2444" d="M43.4 35.2h1.4V35h-1.4v.2m2-.2h1.4v-.3h-1.4v.3m1.9-.2h1.4v-.3h-1.4v.3m2 .2h1.3v-.3h-1.3v.3m1.9.3h1.4V35h-1.4v.3"/>
  <path fill="#1a4582" d="M44.8 36.6h-1.4v-.7h1.4v.7m2-.2h-1.4v-.8h1.4v.8m1.9-.3h-1.4v-.7h1.4v.7m1.9.3h-1.3v-.8h1.3v.8m2 .2h-1.4V36h1.4v.7"/>
  <path fill="#0c2444" d="M43.4 36.6h1.4v-.3h-1.4v.3m2-.2h1.4V36h-1.4v.3m1.9-.2h1.4V36h-1.4v.2m2 .2h1.3V36h-1.3v.3m1.9.3h1.4v-.2h-1.4v.2"/>
  <path fill="#1a4582" d="M44.8 38h-1.4v-.8h1.4v.8m2-.3h-1.4V37h1.4v.7m1.9-.2h-1.4v-.7h1.4v.7m1.9.2h-1.3V37h1.3v.7m2 .3h-1.4v-.7h1.4v.7"/>
  <path fill="#0c2444" d="M43.4 38h1.4v-.3h-1.4v.3m2-.3h1.4v-.2h-1.4v.2m1.9-.2h1.4v-.2h-1.4v.2m2 .2h1.3v-.2h-1.3v.2m1.9.3h1.4v-.2h-1.4v.2"/>
  <path fill="#1a4582" d="M44.8 39.3h-1.4v-.7h1.4v.7m2-.2h-1.4v-.7h1.4v.7m1.9-.2h-1.4v-.7h1.4v.7m1.9.2h-1.3v-.7h1.3v.7m2 .3h-1.4v-.7h1.4v.7"/>
  <path fill="#0c2444" d="M43.4 39.3h1.4v-.2h-1.4v.2m2-.2h1.4V39h-1.4v.2m1.9-.3h1.4v-.3h-1.4v.3m2 .2h1.3V39h-1.3v.2m1.9.2h1.4V39h-1.4v.3"/>
  <path fill="#1a4582" d="M44.8 40.7h-1.4V40h1.4v.7m2-.2h-1.4v-.7h1.4v.7m1.9-.2h-1.4v-.8h1.4v.8m1.9.2h-1.3v-.7h1.3v.7m2 .3h-1.4V40h1.4v.8"/>
  <path fill="#0c2444" d="M43.4 40.7h1.4v-.2h-1.4v.2m2-.2h1.4v-.3h-1.4v.3m1.9-.2h1.4V40h-1.4v.3m2 .2h1.3v-.3h-1.3v.3m1.9.3h1.4v-.3h-1.4v.3"/>
  <path fill="#1a4582" d="M44.8 42h-1.4v-.6h1.4v.7m2-.2h-1.4V41h1.4v.8m1.9-.2h-1.4V41h1.4v.7m1.9.2h-1.3V41h1.3v.8m2 .3h-1.4v-.7h1.4v.7"/>
  <path fill="#0c2444" d="M43.4 42h1.4v-.2h-1.4v.3m2-.2h1.4v-.3h-1.4v.3m1.9-.3h1.4v-.2h-1.4v.2m2 .3h1.3v-.3h-1.3v.3m1.9.2h1.4V42h-1.4v.2"/>
  <path fill="#1a4582" d="M44.8 43.5h-1.4v-.8h1.4v.8m2-.3h-1.4v-.7h1.4v.7m1.9-.2h-1.4v-.7h1.4v.7m1.9.2h-1.3v-.7h1.3v.7m2 .3h-1.4v-.7h1.4v.7"/>
  <path fill="#0c2444" d="M43.4 43.5h1.4v-.3h-1.4v.3m2-.3h1.4V43h-1.4v.2m1.9-.2h1.4v-.2h-1.4v.2m2 .2h1.3V43h-1.3v.2m1.9.3h1.4v-.2h-1.4v.2"/>
  <path fill="#1a4582" d="M44.8 44.8h-1.4v-.7h1.4v.7m2-.2h-1.4V44h1.4v.7m1.9-.3h-1.4v-.7h1.4v.7m1.9.2h-1.3V44h1.3v.7m2 .2h-1.4v-.7h1.4v.7"/>
  <path fill="#0c2444" d="M43.4 44.8h1.4v-.2h-1.4v.2m2-.2h1.4v-.2h-1.4v.2m1.9-.2h1.4V44h-1.4v.3m2 .3h1.3v-.2h-1.3v.2m1.9.3h1.4v-.3h-1.4v.3"/>
  <path fill="#1a4582" d="M44.8 46.2h-1.4v-.7h1.4v.7m2-.2h-1.4v-.7h1.4v.7m1.9-.2h-1.4V45h1.4v.8m1.9.2h-1.3v-.7h1.3v.7m2 .3h-1.4v-.8h1.4v.8"/>
  <path fill="#0c2444" d="M43.4 46.2h1.4V46h-1.4v.2m2-.2h1.4v-.3h-1.4v.3m1.9-.2h1.4v-.3h-1.4v.3m2 .2h1.3v-.3h-1.3v.3m1.9.3h1.4V46h-1.4v.3"/>
  <path fill="#1a4582" d="M44.8 47.6h-1.4v-.7h1.4v.7m2-.2h-1.4v-.8h1.4v.8m1.9-.3h-1.4v-.7h1.4v.7m1.9.3h-1.3v-.8h1.3v.8m2 .2h-1.4V47h1.4v.7"/>
  <path fill="#0c2444" d="M43.4 47.6h1.4v-.3h-1.4v.3m2-.2h1.4V47h-1.4v.3m1.9-.2h1.4V47h-1.4v.2m2 .2h1.3V47h-1.3v.3m1.9.3h1.4v-.2h-1.4v.2"/>
  <path fill="#1a4582" d="M44.8 49h-1.4v-.8h1.4v.8m2-.3h-1.4V48h1.4v.7m1.9-.2h-1.4v-.7h1.4v.7m1.9.2h-1.3V48h1.3v.7m2 .3h-1.4v-.7h1.4v.7"/>
  <path fill="#0c2444" d="M43.4 49h1.4v-.3h-1.4v.3m2-.3h1.4v-.2h-1.4v.2m1.9-.2h1.4v-.2h-1.4v.2m2 .2h1.3v-.2h-1.3v.2m1.9.3h1.4v-.2h-1.4v.2"/>
  <path fill="#1a4582" d="M44.8 50.3h-1.4v-.7h1.4v.7m2-.2h-1.4v-.7h1.4v.7m1.9-.2h-1.4v-.7h1.4v.7m1.9.2h-1.3v-.7h1.3v.7m2 .3h-1.4v-.7h1.4v.7"/>
  <path fill="#0c2444" d="M43.4 50.3h1.4v-.2h-1.4v.2m2-.2h1.4V50h-1.4v.2m1.9-.3h1.4v-.3h-1.4v.3m2 .2h1.3V50h-1.3v.2m1.9.2h1.4V50h-1.4v.3"/>
  <path fill="#1a4582" d="M44.8 51.7h-1.4V51h1.4v.7m2-.2h-1.4v-.7h1.4v.7m1.9-.2h-1.4v-.8h1.4v.8m1.9.2h-1.3v-.7h1.3v.7m2 .3h-1.4V51h1.4v.8"/>
  <path fill="#0c2444" d="M43.4 51.7h1.4v-.2h-1.4v.2m2-.2h1.4v-.3h-1.4v.3m1.9-.2h1.4V51h-1.4v.3m2 .2h1.3v-.3h-1.3v.3m1.9.3h1.4v-.3h-1.4v.3"/>
  <path fill="#1a4582" d="M44.8 53h-1.4v-.6h1.4v.7m2-.2h-1.4V52h1.4v.8m1.9-.2h-1.4V52h1.4v.7m1.9.2h-1.3V52h1.3v.8m2 .3h-1.4v-.7h1.4v.7"/>
  <path fill="#0c2444" d="M43.4 53h1.4v-.2h-1.4v.3m2-.2h1.4v-.3h-1.4v.3m1.9-.3h1.4v-.2h-1.4v.2m2 .3h1.3v-.3h-1.3v.3m1.9.2h1.4V53h-1.4v.2"/>
  <path fill="#1a4582" d="M44.8 54.5h-1.4v-.8h1.4v.8m2-.3h-1.4v-.7h1.4v.7m1.9-.2h-1.4v-.7h1.4v.7m1.9.2h-1.3v-.7h1.3v.7m2 .3h-1.4v-.7h1.4v.7"/>
  <path fill="#0c2444" d="M43.4 54.5h1.4v-.3h-1.4v.3m2-.3h1.4V54h-1.4v.2m1.9-.2h1.4v-.2h-1.4v.2m2 .2h1.3V54h-1.3v.2m1.9.3h1.4v-.2h-1.4v.2"/>
  <path fill="#1a4582" d="M44.8 55.8h-1.4v-.7h1.4v.7m2-.2h-1.4V55h1.4v.7m1.9-.3h-1.4v-.7h1.4v.7m1.9.2h-1.3V55h1.3v.7m2 .2h-1.4v-.7h1.4v.7"/>
  <path fill="#0c2444" d="M43.4 55.8h1.4v-.2h-1.4v.2m2-.2h1.4v-.2h-1.4v.2m1.9-.2h1.4V55h-1.4v.3m2 .3h1.3v-.2h-1.3v.2m1.9.3h1.4v-.3h-1.4v.3"/>
  <path fill="#1a4582" d="M44.8 57.2h-1.4v-.7h1.4v.7m2-.2h-1.4v-.7h1.4v.7m1.9-.2h-1.4V56h1.4v.8m1.9.2h-1.3v-.7h1.3v.7m2 .3h-1.4v-.8h1.4v.8"/>
  <path fill="#0c2444" d="M43.4 57.2h1.4V57h-1.4v.2m2-.2h1.4v-.3h-1.4v.3m1.9-.2h1.4v-.3h-1.4v.3m2 .2h1.3v-.3h-1.3v.3m1.9.3h1.4V57h-1.4v.3"/>
  <path fill="#1a4582" d="M44.8 58.6h-1.4v-.7h1.4v.7m2-.2h-1.4v-.8h1.4v.8m1.9-.3h-1.4v-.7h1.4v.7m1.9.3h-1.3v-.8h1.3v.8m2 .2h-1.4V58h1.4v.7"/>
  <path fill="#0c2444" d="M43.4 58.6h1.4v-.3h-1.4v.3m2-.2h1.4V58h-1.4v.3m1.9-.2h1.4V58h-1.4v.2m2 .2h1.3V58h-1.3v.3m1.9.3h1.4v-.2h-1.4v.2"/>
  <path fill="#1a4582" d="M45.1 22h-1.3v-.6h1.3v.7m1.9-.2h-1.3v-.7h1.2v.7m1.8-.3h-1.2V21h1.2v.6m1.8.3h-1.3v-.7h1.3v.7m1.8.2h-1.2v-.7h1.2v.7"/>
  <path fill="#0c2444" d="M43.8 22h1.3-1.3v.2m1.9-.3h1.2v-.3h-1.2v.3m1.8-.3h1.2v-.2h-1.2v.2m1.8.3h1.2v-.3h-1.3v.3m1.8.2h1.3V22h-1.2v.2"/>
  <path fill="#1a4582" d="M45.3 17H44v-.7h1.2v.6m1.8-.2h-1.2V16H47v.7m1.6-.2h-1.2v-.7h1.2v.7m1.7.2H49V16h1.2v.7m1.8.3h-1.3v-.7H52v.7"/>
  <path fill="#0c2444" d="M44.1 17h1.2v-.3H44v.2m1.8-.2H47v-.2h-1.2v.2m1.6-.2h1.2v-.2h-1.2v.2m1.6.2h1.3v-.2H49v.2m1.7.3H52v-.3h-1.2v.3"/>
  <path fill="#1a4582" d="M45.3 18H44v-.6h1.2v.6m1.8-.2h-1.2v-.6H47v.6m1.6-.2h-1.2V17h1.2v.7m1.7.1H49v-.6h1.2v.6m1.8.2h-1.3v-.6H52v.7"/>
  <path fill="#0c2444" d="M44.1 18h1.2v-.2H44v.2m1.8-.2H47v-.2h-1.2v.2m1.6-.2h1.2v-.2h-1.2v.2m1.6.2h1.3v-.2H49v.2m1.7.2H52h-1.2v.2"/>
  <path fill="#1a4582" d="M45.3 19.2H44v-.7h1.2v.7M47 19h-1.2v-.7H47v.7m1.6-.3h-1.2v-.6h1.2v.6m1.7.3H49v-.7h1.2v.7m1.8.2h-1.3v-.7H52v.7"/>
  <path fill="#0c2444" d="M44.1 19.2h1.2v-.3H44v.3m1.8-.2H47v-.3h-1.2v.3m1.6-.3h1.2v-.2h-1.2v.2m1.6.3h1.3v-.3H49v.3m1.7.2H52V19h-1.2v.2"/>
  <path fill="#1a4582" d="M45.3 20.3H44v-.7h1.2v.7M47 20h-1.2v-.6H47v.7m1.6-.2h-1.2v-.7h1.2v.7m1.7.1H49v-.6h1.2v.7m1.8.2h-1.3v-.6H52v.6"/>
  <path fill="#0c2444" d="M44.1 20.3h1.2V20H44v.2m1.8-.2H47v-.2h-1.2v.3m1.6-.2h1.2v-.3h-1.2v.3m1.6.1h1.3v-.2H49v.3m1.7.2H52v-.2h-1.2v.2"/>
  <path fill="#1a4582" d="M45.1 23.4h-1.3v-.6h1.3v.6m1.9-.2h-1.3v-.6h1.2v.6m1.8-.2h-1.2v-.7h1.2v.7m1.8.2h-1.3v-.6h1.3v.6m1.8.3h-1.2v-.7h1.2v.7"/>
  <path fill="#0c2444" d="M43.8 23.4h1.3v-.2h-1.3v.2m1.9-.2h1.2V23h-1.2v.2m1.8-.2h1.2v-.2h-1.2v.2m1.8.2h1.2V23h-1.3v.2m1.8.3h1.3v-.3h-1.2v.3"/>
  <path fill="#1a4582" d="M45.1 24.8h-1.3V24h1.3v.7m1.9-.1h-1.3v-.7h1.2v.7m1.8-.2h-1.2v-.7h1.2v.7m1.8.2h-1.3v-.7h1.3v.7m1.8.2h-1.2v-.6h1.2v.6"/>
  <path fill="#0c2444" d="M43.8 24.8h1.3v-.2h-1.3v.2m1.9-.2h1.2v-.2h-1.2v.2m1.8-.2h1.2V24h-1.2v.3m1.8.3h1.2v-.2h-1.3v.2m1.8.2h1.3v-.2h-1.2v.2"/>
  <path fill="#1a4582" d="M45.1 26.2h-1.3v-.7h1.3v.7M47 26h-1.3v-.7h1.2v.6m1.8-.2h-1.2V25h1.2v.7m1.8.3h-1.3v-.7h1.3v.6m1.8.3h-1.2v-.7h1.2v.7"/>
  <path fill="#0c2444" d="M43.8 26.2h1.3v-.3h-1.3v.3m1.9-.2h1.2v-.3h-1.2v.2m1.8-.2h1.2v-.2h-1.2v.2m1.8.3h1.2v-.3h-1.3v.2m1.8.3h1.3V26h-1.2v.2"/>
  <path fill="#1a4582" d="M45.1 27.5h-1.3v-.7h1.3v.7m1.9-.2h-1.3v-.7h1.2v.7m1.8-.3h-1.2v-.6h1.2v.7m1.8.2h-1.3v-.7h1.3v.7m1.8.2h-1.2V27h1.2v.6"/>
  <path fill="#0c2444" d="M43.8 27.5h1.3v-.2h-1.3v.2m1.9-.2h1.2V27h-1.2v.2m1.8-.2h1.2-1.2v.2m1.8.1h1.2V27h-1.3v.2m1.8.3h1.3v-.2h-1.2v.2"/>
  <path fill="#1a4582" d="M46 13.1h-1v-.5h.9v.5m1.3-.1h-.8v-.5h.8v.5m1.3-.2h-1v-.5h1v.5m1.2.2h-.9v-.5h.9v.5m1.3.2h-1v-.5h1v.5"/>
  <path fill="#0c2444" d="M45.1 13.1h.9V13h-1v.1m1.4-.1h.8v-.2h-.8v.2m1.2-.2h.9v-.1h-1v.1m1.3.2h.9v-.2h-.9v.2m1.2.2h1V13h-1v.2"/>
  <path fill="#1a4582" d="M46.5 10.5h-.7v-.4h.7v.4m.9-.1h-.6V10h.6v.4m.9-.1h-.6v-.4h.6v.4m.9.1h-.6V10h.6v.4m1 .1h-.7v-.4h.7v.4"/>
  <path fill="#0c2444" d="M45.8 10.5h.7v-.1h-.7v.1m1-.1h.6v-.1h-.6m.9 0h.6V10h-.6v.2m.9.2h.6v-.1h-.6m.9.2h.7-.7"/>
  <path fill="#1a4582" d="M46.5 11.1h-.7v-.4h.7v.4m.9-.1h-.6v-.4h.6v.4m.9-.1h-.6v-.4h.6v.4m.9.1h-.6v-.4h.6v.4m1 .2h-.7v-.4h.7v.4"/>
  <path fill="#0c2444" d="M45.8 11.1h.7-.7m1-.1h.6-.6v.1m.9-.2h.6v-.2h-.6v.2m.9.1h.6-.6v.1m.9.1h.7V11h-.7v.2"/>
  <path fill="#1a4582" d="M46.5 11.8h-.7v-.4h.7v.4m.9-.2h-.6v-.4h.6v.4m.9-.1h-.6v-.4h.6v.4m.9.1h-.6v-.4h.6v.4m1 .2h-.7v-.4h.7v.4"/>
  <path fill="#0c2444" d="M45.8 11.8h.7v-.2h-.7v.2m1-.2h.6v-.1h-.6v.1m.9-.1h.6v-.1h-.6v.1m.9.1h.6v-.1h-.6v.1m.9.2h.7v-.1h-.7"/>
  <path fill="#1a4582" d="M46 14h-1v-.4h.9v.5m1.3-.1h-.8v-.6h.8v.5m1.3-.1h-1v-.5h1v.5m1.2.2h-.9v-.6h.9v.5m1.3.2h-1v-.5h1v.5"/>
  <path fill="#0c2444" d="M45.1 14h.9-.9m1.3 0h.8v-.2h-.8v.1m1.2-.1h.9v-.2h-1v.2m1.3.2h.9v-.2h-.9v.1m1.2.2h1V14h-1v.1"/>
  <path fill="#1a4582" d="M46 15h-1v-.5h.9v.5m1.3-.1h-.8v-.5h.8v.5m1.3-.2h-1v-.5h1v.5m1.2.2h-.9v-.5h.9v.5m1.3.1h-1v-.4h1v.5"/>
  <path fill="#0c2444" d="M45.1 15h.9-1v.1m1.4-.2h.8v-.2h-.8v.2m1.2-.2h.9v-.1h-1v.1m1.3.2h.9v-.2h-.9v.2m1.2.1h1-1v.2"/>
  <path fill="#bfbab9" d="M43 33.4H32v-.8h11.2v.8"/>
  <path fill="#a29e9d" d="M43 32.7H32v-.4h11.2v.4"/>
  <path fill="none" stroke="#fff" stroke-width="4.1" d="M9 51.2c.8 0 1.4.1 2 .4.6.3 1 .7 1.3 1.2.3.5.4 1.2.4 1.8 0 .7-.1 1.4-.4 1.9a3 3 0 0 1-1.3 1.2c-.6.3-1.2.4-2 .4H6.9v4.2H4.7V51.2Zm-.3 5.2c1.2 0 1.8-.6 1.8-1.8 0-1.1-.6-1.7-1.8-1.7H6.9v3.5Zm13 2.2h-5.4c0 .7.2 1.2.6 1.6.4.3.8.5 1.5.5a2 2 0 0 0 1.1-.3c.3-.2.6-.5.7-.8h.2l1.4.9a4 4 0 0 1-1.2 1.4 4 4 0 0 1-2.2.5c-1 0-1.7-.1-2.3-.5a4 4 0 0 1-1.5-1.4 5 5 0 0 1-.5-2.4c0-1 .2-1.8.6-2.4a3 3 0 0 1 1.4-1.5c.6-.3 1.3-.5 2.1-.5 1.2 0 2.1.3 2.7 1 .7.6 1 1.5 1 2.7v1Zm-1.8-1.4a2 2 0 0 0-.5-1.4c-.3-.3-.7-.4-1.2-.4-1 0-1.7.6-1.9 1.8Zm8.4 3 .5 1.6-.8.5a4 4 0 0 1-1.2.1c-.9 0-1.6-.2-2-.7a3 3 0 0 1-.8-2.2v-4h-1.3V54H24v-1.7l2.1-.3v2h2.4v1.7h-2.4v3.8c0 .4.1.7.3.9.2.2.4.3.7.3.4 0 .8-.1 1-.3Zm2 2V54h2v1h.1l.8-1 1.2-.3c.5 0 .9 0 1.1.3l-.3 1.8H35a2 2 0 0 0-.9-.2c-.5 0-1 .3-1.3.7-.3.4-.5 1-.5 2v3.9Zm10.2.2a4 4 0 0 1-2.2-.5c-.6-.3-1-.8-1.4-1.5a5 5 0 0 1-.5-2.3c0-1 .1-1.7.5-2.4a4 4 0 0 1 1.4-1.5 5 5 0 0 1 2.2-.5c.8 0 1.5.2 2.1.5.7.4 1.1.9 1.5 1.5.3.7.5 1.5.5 2.4a5 5 0 0 1-.5 2.3c-.4.7-.8 1.2-1.5 1.5-.6.4-1.3.5-2.1.5Zm0-1.7c1.3 0 2-.9 2-2.6a3 3 0 0 0-.6-2c-.3-.4-.8-.6-1.4-.6-1.3 0-2 .9-2 2.6 0 1.7.7 2.6 2 2.6Zm6 1.6v-8.4h2V55h.2c.6-.9 1.4-1.4 2.6-1.4 1 0 1.7.3 2.1.8.5.5.7 1.3.7 2.3v5.5H52V57c0-.6-.1-1-.3-1.2-.3-.3-.6-.4-1.1-.4-.6 0-1 .2-1.4.6-.4.4-.5 1-.5 1.8v4.4Zm12 .1a3 3 0 0 1-1.4-.3 2 2 0 0 1-1-.8c-.2-.4-.3-.9-.3-1.4 0-.5.1-1 .3-1.3l1-.8c.5-.2 1-.4 1.8-.5A7 7 0 0 0 60 57c.3 0 .5-.2.6-.3v-.4c0-.3 0-.5-.2-.7l-1-.2a3 3 0 0 0-1.3.3c-.4.2-.7.5-1 .9h-.2l-.9-1.4c.4-.4 1-.8 1.6-1a5 5 0 0 1 2-.5c1 0 1.9.3 2.4.7.5.5.7 1.2.7 2v3.7c0 .4.2.6.5.6l.4-.1h.1l.2 1.5-.5.2a3 3 0 0 1-.7 0 2 2 0 0 1-1.2-.2c-.3-.2-.5-.5-.6-1h-.2c-.4.9-1.1 1.3-2.3 1.3ZM59 61c.5 0 .9-.2 1.2-.5.3-.4.4-.8.4-1.4v-.8h-.1l-.5.2a6 6 0 0 1-.9.2 2 2 0 0 0-1 .4 1 1 0 0 0-.3.8c0 .3.1.6.3.8.2.2.5.3 1 .3Zm8.9 1.5c-.6 0-1.1 0-1.6-.2-.5-.1-1-.3-1.2-.5l-.8-.8 1.2-1.3h.1a2.7 2.7 0 0 0 2.3 1.1c.4 0 .7 0 .9-.2.2-.1.3-.3.3-.6 0-.2 0-.4-.2-.6l-.7-.3-1.2-.3c-.8-.2-1.4-.5-1.8-.9a2 2 0 0 1-.6-1.5c0-.5.2-1 .4-1.4.3-.4.7-.7 1.2-.9.5-.2 1-.3 1.7-.3s1.3.1 1.8.4c.5.2 1 .5 1.2.8l-.9 1.1h-.2l-.8-.5c-.2-.2-.6-.2-1-.2-.8 0-1.2.2-1.2.8 0 .2.1.4.3.5l.8.3 1 .3a3 3 0 0 1 1.9.8c.4.4.6 1 .6 1.7 0 .5-.2 1-.4 1.4a4 4 0 0 1-1.2 1l-1.7.2ZM7.1 65.3v1.5H4.5v7.4H2.8v-7.4H.2v-1.5Zm3.8 8.9H9.2l-1.6-6.7H9l1 4.5h.1l1.3-4.5H13l1.3 4.5h.1l1-4.5h1.5l-1.6 6.7h-1.8l-1.2-4.6H12Zm8-7.5a1 1 0 0 1-.7-.3 1 1 0 0 1-.3-.7c0-.3 0-.5.3-.7.2-.2.4-.3.7-.3.2 0 .4 0 .5.2.2 0 .3.2.4.3l.1.5a1 1 0 0 1-.5.9l-.5.1Zm-.8 7.5v-6.7h1.6v6.7Zm3.6 0v-6.7h1.6v1h.1c.4-.7 1.1-1.1 2-1.1.8 0 1.4.2 1.7.6.4.4.6 1 .6 1.9v4.3H26v-4.1c0-.5-.1-.8-.3-1-.2-.2-.4-.3-.8-.3-.5 0-.9.2-1.2.5-.2.3-.4.8-.4 1.4v3.5Zm16.9-8.9v1.5H36v7.4h-1.8v-7.4h-2.5v-1.5Zm4 9c-.6 0-1.2-.1-1.7-.4-.4-.2-.8-.6-1.1-1.2a4 4 0 0 1-.4-1.8c0-.8.1-1.4.4-2l1.1-1.1c.5-.3 1.1-.4 1.8-.4.6 0 1.2.1 1.7.4.5.3.9.7 1.2 1.2.2.5.4 1.1.4 1.9a4 4 0 0 1-.4 1.8c-.3.6-.7 1-1.2 1.2a3 3 0 0 1-1.7.4Zm0-1.4c1.1 0 1.6-.7 1.6-2 0-.7-.1-1.3-.4-1.6-.2-.3-.6-.5-1.1-.5-1 0-1.6.7-1.6 2 0 1.4.5 2.1 1.6 2.1Zm7.5 1.3h-1.7l-1.6-6.7h1.6l1 4.5 1.3-4.5h1.5l1.3 4.5h.1l1-4.5H56l-1.6 6.7h-1.7l-1.3-4.6h-.1Zm12.8-3h-4.3c0 .6.2 1 .5 1.3.3.3.7.4 1.2.4.4 0 .7 0 1-.2l.5-.7h.1l1.1.7c-.2.5-.5.9-1 1.2-.4.3-1 .4-1.7.4s-1.3-.1-1.8-.4c-.5-.2-.9-.6-1.2-1.1a4 4 0 0 1-.4-2c0-.7.2-1.3.5-1.9a2 2 0 0 1 1.1-1.1 3 3 0 0 1 1.7-.4c1 0 1.6.2 2.1.7.5.5.8 1.3.8 2.2v.9Zm-1.4-1c0-.6-.2-1-.4-1.2-.2-.2-.5-.3-1-.3-.8 0-1.3.5-1.4 1.5Zm3 4v-6.7h1.7v1h.1l.6-.8c.3-.2.6-.2 1-.2s.7 0 .9.2l-.3 1.4H68a2 2 0 0 0-.3-.1c-.5 0-.9.2-1.1.5-.3.3-.4.8-.4 1.6v3.1Zm7.4.1-1.2-.1-1-.5-.6-.6 1-1a2.2 2.2 0 0 0 1.9.9c.3 0 .5 0 .7-.2.2-.1.2-.3.2-.5l-.1-.4-.6-.3-.9-.2a3 3 0 0 1-1.4-.7c-.4-.4-.5-.8-.5-1.3 0-.4.1-.8.3-1 .2-.4.5-.6 1-.8l1.3-.2c.6 0 1 0 1.5.3l.9.6-1 1a1.7 1.7 0 0 0-1.4-.6c-.7 0-1 .2-1 .6l.1.5.7.2.8.2c.7.1 1.2.4 1.5.7.3.3.5.8.5 1.3 0 .4-.1.8-.3 1.1a2 2 0 0 1-1 .8l-1.4.2Zm0 0"/>
  <path d="M9 51.2c.8 0 1.4.1 2 .4.6.3 1 .7 1.3 1.2.3.5.4 1.2.4 1.9 0 .6-.1 1.3-.4 1.8-.3.5-.7 1-1.3 1.2-.6.3-1.2.4-2 .4H6.9v4.2H4.7V51.2Zm-.3 5.2c1.2 0 1.8-.6 1.8-1.7 0-1.2-.6-1.8-1.8-1.8H6.9v3.5Zm13 2.2h-5.4c0 .7.2 1.2.6 1.6.3.3.8.5 1.4.5.5 0 1-.1 1.2-.3l.8-.8h.1l1.4.9a4 4 0 0 1-1.2 1.4 4 4 0 0 1-2.3.5 5 5 0 0 1-2.2-.4c-.6-.4-1.1-.9-1.5-1.5a6 6 0 0 1-.5-2.4c0-1 .2-1.8.6-2.4a3 3 0 0 1 1.4-1.5c.6-.3 1.3-.5 2.1-.5 1.2 0 2.1.4 2.7 1 .7.6 1 1.5 1 2.7v1Zm-1.8-1.4a2 2 0 0 0-.5-1.4c-.3-.3-.7-.4-1.2-.4-1 0-1.7.6-1.9 1.8Zm8.4 3.1.5 1.5-.8.5a4 4 0 0 1-1.2.1c-1 0-1.6-.2-2-.7a3 3 0 0 1-.8-2.2v-4h-1.3V54H24v-1.7l2.1-.3v2h2.4v1.7h-2.4v3.8c0 .4.1.7.3.9.2.2.4.3.7.3.4 0 .7-.1 1-.3Zm1.9 2v-8.4h2V55h.2l.8-1 1.2-.3c.5 0 .9.1 1.1.3l-.3 1.8H35a2.4 2.4 0 0 0-.9-.2c-.5 0-1 .3-1.3.7-.3.4-.5 1-.5 2v3.9Zm10.3.1a3.8 3.8 0 0 1-3.6-1.9 5 5 0 0 1-.6-2.4 4.5 4.5 0 0 1 2-3.9 4.8 4.8 0 0 1 4.3 0c.7.4 1.1.9 1.5 1.5.3.7.5 1.5.5 2.4a5 5 0 0 1-.5 2.4 4 4 0 0 1-1.5 1.4c-.6.4-1.3.5-2.1.5Zm0-1.7c1.3 0 2-.9 2-2.6a3 3 0 0 0-.6-2c-.3-.4-.8-.6-1.4-.6-1.3 0-2 .9-2 2.6 0 1.7.7 2.6 2 2.6Zm6.1 1.6v-8.4h2V55h.1c.6-.9 1.4-1.4 2.6-1.4 1 0 1.7.3 2.1.8.5.6.7 1.3.7 2.3v5.5H52V57c0-.6-.1-1-.4-1.2-.2-.3-.5-.4-1-.4-.6 0-1 .2-1.4.6-.4.4-.5 1-.5 1.8v4.4Zm11.8.1c-.5 0-1 0-1.3-.3-.4-.2-.7-.4-1-.8-.2-.4-.3-.9-.3-1.4 0-.5.1-1 .3-1.3l1-.8c.5-.2 1-.4 1.8-.5.5 0 .9-.2 1.1-.3.3 0 .5-.2.5-.3l.2-.5-.3-.6-1-.2a3 3 0 0 0-1.3.3c-.4.2-.7.5-1 .9h-.2l-.9-1.4c.4-.4 1-.8 1.6-1 .6-.3 1.3-.5 2-.5 1 0 1.9.3 2.4.7.5.5.7 1.2.7 2v3.7c0 .4.2.6.5.6l.4-.1h.1l.2 1.5-.5.2h-.7c-.5 0-1 0-1.2-.2-.3-.2-.5-.5-.6-1h-.2c-.4.9-1.1 1.3-2.3 1.3Zm.7-1.5c.5 0 .9-.2 1.2-.5.3-.3.4-.8.4-1.4v-.8h-.1l-.5.2-.9.2a2 2 0 0 0-1 .4c-.2.2-.3.4-.3.8 0 .3.1.6.3.8.2.2.5.3 1 .3Zm8.9 1.5c-.6 0-1.2 0-1.6-.2l-1.2-.5-.8-.8 1.2-1.3h.1a2.6 2.6 0 0 0 2.3 1.1c.4 0 .7 0 .9-.2.2-.1.3-.3.3-.6 0-.2 0-.4-.2-.6l-.7-.3-1.1-.3a3 3 0 0 1-1.9-.9 2 2 0 0 1-.6-1.5c0-.5.2-1 .4-1.4.3-.4.7-.7 1.2-.9.4-.2 1-.3 1.7-.3s1.3.1 1.8.4c.5.2 1 .5 1.2.8l-1 1.3h-.2a2 2 0 0 0-.8-.6l-1-.2c-.8 0-1.2.3-1.2.8 0 .2 0 .4.2.5l.9.3 1 .3a3 3 0 0 1 1.9.8c.4.4.6 1 .6 1.7a2.5 2.5 0 0 1-1.6 2.3c-.5.2-1 .3-1.8.3ZM7 65.3v1.5H4.6v7.4H2.8v-7.4H.3v-1.5Zm4 8.9H9.1l-1.6-6.7H9l1 4.5h.1l1.3-4.5H13l1.3 4.5h.1l1-4.5h1.5l-1.6 6.7h-1.8l-1.2-4.6h-.1Zm7.9-7.5a1 1 0 0 1-.7-.3 1 1 0 0 1-.3-.7c0-.3 0-.5.3-.7.2-.2.4-.3.7-.3.2 0 .4 0 .6.2l.3.3.1.5v.5l-.4.4-.6.1Zm-.8 7.5v-6.7h1.6v6.7Zm3.6 0v-6.7h1.6v1h.1c.4-.7 1-1.1 2-1.1.8 0 1.4.2 1.7.6.4.4.6 1 .6 1.9v4.3H26v-4.1c0-.5-.1-.8-.3-1-.2-.2-.4-.3-.8-.3-.5 0-.9.2-1.1.5a2 2 0 0 0-.5 1.4v3.5Zm16.8-8.9v1.5H36v7.4h-1.8v-7.4h-2.5v-1.5Zm4.2 9c-.7 0-1.3-.1-1.8-.4-.4-.2-.8-.6-1.1-1.2a4 4 0 0 1-.4-1.8c0-.8.1-1.4.4-2l1.1-1.1c.5-.3 1.1-.4 1.8-.4.6 0 1.2.1 1.7.4.5.3.9.7 1.1 1.2.3.5.5 1.1.5 1.9a4 4 0 0 1-.5 1.8c-.2.6-.6 1-1.1 1.2a3 3 0 0 1-1.7.4Zm0-1.4c1 0 1.5-.7 1.5-2 0-.7-.1-1.3-.4-1.6-.2-.3-.6-.5-1.1-.5-1 0-1.6.7-1.6 2 0 1.4.5 2.1 1.6 2.1Zm7.4 1.3h-1.7l-1.6-6.7h1.6l1 4.5 1.3-4.5h1.5l1.3 4.5h.1l1-4.5H56l-1.6 6.7h-1.7l-1.3-4.6h-.1Zm12.9-3h-4.4c0 .6.2 1 .5 1.3.3.3.7.4 1.2.4.4 0 .7 0 1-.2.2-.1.3-.4.5-.7h.1l1.1.7c-.2.5-.5.9-1 1.2-.4.3-1 .4-1.7.4s-1.3-.1-1.8-.4c-.5-.2-.9-.6-1.2-1.1a4 4 0 0 1-.4-2c0-.7.2-1.3.4-1.9.3-.5.7-.9 1.2-1.1a3 3 0 0 1 1.7-.4c1 0 1.6.2 2.1.7.5.5.8 1.3.8 2.2v.9Zm-1.5-1c0-.6-.1-1-.4-1.2-.2-.2-.5-.3-1-.3-.8 0-1.3.5-1.4 1.4Zm3.1 4v-6.7h1.6v1h.1l.6-.8c.3-.2.6-.3 1-.3l.9.2-.3 1.5H68a2 2 0 0 0-.3-.1c-.5 0-.9.2-1.1.5-.3.3-.4.8-.4 1.6v3.1Zm7.4.1a5 5 0 0 1-1.3-.1l-1-.5a2 2 0 0 1-.6-.6l1-1a2.1 2.1 0 0 0 1.9.9c.3 0 .5 0 .7-.2.2-.1.2-.3.2-.5l-.1-.4c-.2-.2-.3-.3-.6-.3l-.9-.2a3 3 0 0 1-1.4-.7c-.4-.4-.5-.8-.5-1.3 0-.4.1-.8.3-1a2 2 0 0 1 1-.8l1.3-.2c.6 0 1 0 1.5.2l.9.7-1 1c-.2-.2-.4-.4-.7-.4a2 2 0 0 0-.7-.2c-.7 0-1 .2-1 .6l.1.5.7.2.8.2a3 3 0 0 1 1.5.7c.3.3.5.8.5 1.3 0 .4-.1.8-.3 1.1a2 2 0 0 1-1 .8l-1.4.2Zm0 0"/>
</svg>
