<svg xmlns="http://www.w3.org/2000/svg" version="1.0" viewBox="0 0 75 75">
  <defs>
    <clipPath id="a">
      <path d="M31.3 3H44v57.8H31.3Zm0 0"/>
    </clipPath>
    <clipPath id="b">
      <path d="M36 59h3v1.8h-3Zm0 0"/>
    </clipPath>
    <clipPath id="c">
      <path d="M33 19h9v41.8h-9Zm0 0"/>
    </clipPath>
    <clipPath id="d">
      <path d="M31.3 0H44v60.8H31.3Zm0 0"/>
    </clipPath>
  </defs>
  <g clip-path="url(#a)">
    <path fill="#8db4d4" d="M44 58.3v2.4H31.4v-2.4h.6v-.6h1.7v-8.3h.8v-8h.8v-9.6h.5V20h1.6v-.8h-.5v-5.6h.5V9.2h.3V5.4l.2-.2v-2h.4v4.6l.3.3v6.8h.4v9.4h.8V35h.7v9h.6v7.5h.7v6.2h1.5v.6Zm0 0"/>
  </g>
  <g clip-path="url(#b)">
    <path fill="#316b8b" d="M36 60h3v.7h-3Zm0 0"/>
  </g>
  <g clip-path="url(#c)">
    <path fill="#d9d9d9" d="M41.8 53.8v.8h-8.1v-.8Zm-.7-7.3h-6.6v.7H41Zm-.6-8.3h-5.2v.8h5.2Zm-.7-10.4h-4v.8h4Zm-.8-8.6h-3.2v.8H39ZM36 60v.7h.3V60h1.1v.7h.3V60h1v.7h.2v-2.5h-2.8Zm0 0"/>
  </g>
  <g clip-path="url(#d)">
    <path d="M34 50v-.1h.9-.9Zm0 .5h.9v-.1H34Zm0 .5h.9v-.1H34Zm0 .5h.9v-.2H34v.1Zm0 .5h.9v-.2H34v.1Zm0 .5h.9v-.1H34Zm0 .5h.9v-.1H34Zm0 .4h.9-.9Zm1 1.6h-1 .9Zm0 .4h-1v.1h.9Zm0 .5h-1v.1h.9Zm0 .5h-1v.1h.9Zm0 .5h-1v.2h.9V57Zm5.6-5h.9-.9Zm.9.4h-.8l-.1.1h.9Zm0 .5h-.9v.2h.9v-.1Zm0 .5h-.9v.1h.9Zm0 1.7h-.9.9Zm0 .4h-.8l-.1.1h.9Zm0 .5h-.8l-.1.1h.9Zm0 .5h-.8l-.1.1h.9Zm0 .5h-.9v.2h.9V57Zm-.7-9.3h-.9v.1h.9Zm0 .6h-.9v.1h.9v-.1Zm0 .5h-.9v.2h.9v-.1Zm0 .6h-.9v.1h.9v-.1Zm0 .5h-.9v.1h.9Zm0 .6h-.9.9ZM34.9 42h.8-.9Zm0 .5h.8-.9Zm0 .6h.8V43h-.9Zm0 .5h.8-.9Zm0 .6h.8v-.1h-.9v.1Zm0 .6h.8v-.1h-.9Zm0 .5h.8v-.1h-.9v.1Zm0 .6h.8v-.1h-.9Zm0 1.8h.8v-.2h-.8l-.1.1Zm0 .5h.8v-.1h-.9v.1Zm.9.5h-1 .9Zm4-4h.9-.9Zm.9.5h-.9v.1h.9v-.1Zm0 .6h-.9.9Zm-5-13.3h.8v-.1h-.9Zm0 .5h.8-.9v.1Zm0 .6h.8v-.1h-.9Zm0 .5h.8-.9Zm0 .6h.8v-.1h-.9v.1Zm0 .6h.8v-.1h-.9Zm0 .5h.8v-.1h-.9v.1Zm0 .6h.8v-.2h-.8l-.1.1Zm0 .6h.8-.9v.1Zm0 .6h.8v-.1h-.9Zm4.4 1.8h-.9.9Zm0 .5h-.9v.1h.9Zm0 .6h-.9v.1h.9v-.1Zm0 .5h-.9v.1h.9Zm0 .6h-.9v.1h.9v-.1Zm0 .5h-.9v.1h.9Zm0 .6h-.9v.1h.9Zm0 .6h-.9.9Zm-1-7.5h1v-.1h-.9Zm1 .4h-.9v.1h.9Zm0 .6h-.9v.1h.9Zm0 .6h-.9.9Zm-4.4 2h.8-.9Zm0 .6h.8-.9Zm.8.5h-.9v.1h.9Zm3-11.6h-1v.1h1Zm0 .6h-1v.1h1v-.1Zm0 .5h-1v.1h1Zm0 .6h-1v.1h1v-.1Zm0 .6h-1 1Zm0 .5h-1v.1h1Zm0 .6h-1 1Zm0 .5h-1v.2h1Zm0 .7h-1 1Zm0 .5h-1v.1h1Zm-3.3-13.6h.8v-.1h-.8v.1Zm0 .6h.8v-.2h-.8v.1Zm0 .5h.8-.8Zm0 .6h.8V22h-.8v.1Zm0 .6h.8v-.1h-.8v.1Zm0 .6h.8v-.1h-.8Zm0 .6h.8v-.1h-.8Zm0 .5h.8-.8Zm0 .6h.8-.8v.1Zm0 .6h.8v-.1h-.8Zm0 .6h.8v-.1h-.8Zm0 .5h.8-.8Zm0 .6h.8v-.1h-.8v.1Zm0 1.7h.8-.8Zm0 .6h.8v-.1h-.8v.1Zm0 .6h.8v-.1h-.8Zm0 .5h.8v-.1h-.8v.1Zm.9.5h-1 1Zm1.5-11h-.8v.2h.8v-.1Zm0 .6h-.8v.1h.8Zm0 .6h-.8v.1h.8Zm0 .6h-.8v.1h.8V22Zm0 .6h-.8v.1h.8v-.1Zm0 .6h-.8.8Zm0 .5h-.8v.2h.8v-.1Zm0 1.3h.8-.8Zm.8.5h-.8.8Zm0 .5h-.8v.1h.8Zm0 .6h-.8v.1h.8Zm0 .6h-.8v.1h.8v-.1Zm-1.6-9.7h.8v-.1h-.8v.1Zm0 .6h.8V18h-.8Zm0 .6h.8v-.1h-.8Zm-.3-3.5h.9v-.1h-.9v.1Zm0 .6h.9v-.1h-.9Zm0 .6h.9v-.2h-.9v.1Zm.2-3h.6v-.1h-.6Zm0 .5h.6-.6Zm0-1.7h.6v-.1h-.6Zm0 .6h.6v-.1h-.6Zm0-1.8h.6-.6v.1Zm0 .6h.6v-.1h-.6v.1Zm0-1.7h.6v-.1h-.6Zm0 .5h.6-.6Zm-.2 4.2h.8l.1-.1h-.9ZM44 58.3v2.4H31.3v-2.4h.7v-.6h1.6v-8.3h.8v-8.1h.8v-9.6h.5V19.2h1.1v-5.6h.5V9.2h.4V5.3l.2-.2v-2h.2V0h.1v3.2h.1v4.6l.3.2v7h.4v9.4h.8V35h.7v9h.6v7.5h.7v6.2h1.5v.7h.7Zm-3.9-.7v-3h-.6v3Zm-.7 0v-3h-.5v3Zm-.6 0v-3h-.5v3Zm-.7 0v-3h-.6v3Zm-.8 0v-3H37v3Zm-.5 0v-3h-.7v3Zm-.8 0v-3h-.7v3ZM39 17h-1.5v2.3h1.4Zm-1.5 2.7h1.4v-.3h-1.4Zm0 0v.3h1.4v-.2Zm-.2.5H36v7.7h1.4Zm2.4 8.2h-1.4v.2h1.4Zm0-.4h-1.4v.2h1.4Zm-1.6 0h-.6v.2h.6Zm-.8 0H36v.2h1.4Zm0-8.2H36v.2h1.4ZM36 28.5h1.4v-.2H36Zm1.6 0h.6v-.2h-.6Zm0 .1v9.6h.6v-9.6Zm0 9.7v.2h.6v-.2ZM37 54.5h.4v-.2H37Zm-.1-.2h-.7v.2h.7Zm.7-15.3v7.4h.6V39Zm.6 0v-.3h-.6v.2Zm-.6 7.5v.3h.6v-.3Zm0 .4v.3h.6v-.3Zm0 7v.2h.6V54Zm.6-.1v-6.5h-.6v6.5Zm.2.3h.5V54h-.5Zm.5-.3v-6.5h-.5v6.5Zm0-6.6v-.3h-.5v.3Zm-1.5-.3H37v.3h.4Zm-.4.4v6.5h.4v-6.5Zm0 6.6v.2h.4V54Zm.6.6h.6v-.2h-.6Zm.8 0h.5v-.2h-.5Zm.6 0h.5v-.2H39Zm.6 0h.6v-.2h-.6Zm.8 0h1.4v-.2h-1.5Zm1.4-.6h-1.5v.2h1.5Zm-1.6 0h-.6v.2h.6Zm-.7 0H39v.2h.5Zm0-.1v-6.5H39v6.5Zm0-6.6v-.3H39v.3Zm.1 0H41v-.3h-1.5Zm1.5-.7h-1.5v.3H41Zm-1.6 0H39v.3h.5Zm-.6 0h-.5v.3h.5Zm0-.1V39h-.5v7.4Zm0-7.5v-.2h-.5v.2Zm.1 0h1.5v-.2H39Zm1.5-.6H39v.2h1.5Zm-1.6 0h-.5v.2h.5Zm-1.5 0H37v.2h.4Zm-.5 0h-1.5v.2h1.5Zm-1.5.6h1.5v-.2h-1.5Zm1.6 0h.4v-.2H37Zm0 .1v7.4h.4V39Zm0 7.5v.3h.4v-.3Zm-.1 0h-.7v.3h.7Zm-.8 0h-1.5v.3H36Zm-1.5.7H36v-.3h-1.5Zm1.6 0h.7v-.3h-.7Zm0 0v6.6h.7v-6.5Zm0 6.7v.2h.7V54Zm-.1 0h-.7v.2h.7Zm-.8 0h-1.5v.2h1.5Zm-1.5.6h1.5v-.2h-1.5Zm1.6 0h.7v-.2h-.7Zm5 3.1h1.4v-3h-1.5Zm1.4-6h-1.5v2.2h1.5Zm-.7-.2v-4.1h-1.5v6.5h.6v-2.4Zm0-7.3h-1.5v2.3H41Zm-.6-.1v-5H39v7.4h.5V44Zm0-9H39v3.2h1.5Zm-.7-.1v-6.3h-1.4v9.6h.5v-3.3Zm0-10.5h-1.4v3.4h1.4Zm-.8-.1V20h-1.4v7.7h.6v-3.5h.1ZM37.8 9h.7V8l-.2-.3V3.3H38v2l-.2.1Zm-.9 10h.4v-2H39v-2h-.3V9.3h-1.1v4.3H37Zm-1 .2v.3h1.4v-.3Zm0 12.4h1v6.5h.4v-9.6H36Zm-.6.1v6.4h1.5v-6.4Zm0 9.5h.8v5.1h.7V39h-1.5Zm-.8 0v5.1H36v-5Zm0 8h.8v4.5h.7v-6.5h-1.5Zm-.8.2v4.3h1.5v-4.3Zm0 8.1h1.5v-3h-1.5Zm-1.6.7H36v-.1h7.2v-.4H32.1Zm5.6 1.7v.6h.9V60Zm1 0h.2v-1.8H36V60Zm-2.3 0v.6h1V60Zm-5 .6H36v-2.2h-4.6Zm4.9 0V60H36v.6Zm1.3 0V60h-.1v.6Zm1.3 0V60h-.2v.6Zm5-2.2h-5v2.2h5Zm-12.1.5h3.8v-.1h-3.8Zm3.8.3h-3.8v.1h3.8Zm0 .5h-3.8v.1h3.8v-.1Zm3.9-1v.1h3.8Zm3.8.5h-3.8v.1h3.8Zm0 .5h-3.8v.1h3.8v-.1Zm0 0"/>
  </g>
  <path d="M1.2 72.4V63h4c.6 0 1.1.1 1.5.3l1 .8.2 1.2c0 .4 0 .8-.3 1-.2.4-.4.7-.8.8v.2c.6.1 1 .4 1.3.8.4.4.5 1 .5 1.5 0 1-.3 1.6-.8 2.1s-1.3.7-2.4.7ZM5 66.8c.8 0 1.3-.4 1.3-1.2 0-.4-.1-.7-.4-.9-.2-.2-.5-.3-1-.3H3.2v2.4Zm.3 4.2c1 0 1.5-.5 1.5-1.4 0-1-.5-1.4-1.5-1.4H3.1V71Zm7.2 1.6c-.8 0-1.4-.2-1.8-.7-.4-.4-.6-1-.6-1.8v-4.8H12v4.5c0 .5.1.8.3 1 .2.2.5.3.9.3.5 0 .8-.2 1.1-.5.3-.3.4-.8.4-1.5v-3.8h1.8v7.1h-1.7v-1h-.1c-.3.4-.5.7-.9.9-.3.2-.7.3-1.2.3Zm6-.2v-7h1.7v1h.1c.2-.4.4-.7.7-.8.3-.2.6-.3 1-.3s.7 0 1 .2l-.4 1.5h-.8c-.5 0-.9 0-1.2.4-.2.4-.4 1-.4 1.7v3.3Zm6.5-7.9a1 1 0 0 1-.9-.3 1 1 0 0 1-.3-.8c0-.3.1-.5.3-.7.2-.2.5-.3.8-.3l.6.1.4.4.1.5-.1.6-.4.4h-.6Zm-1.4 11-1.3-.2.2-1.4.1-.1.6.1c.6 0 .8-.3.8-.9v-7.7h1.8V73c0 .8-.2 1.4-.6 1.8-.3.4-1 .7-1.6.7Zm7.6-3.1V63H33v4h.2l3.2-3.9h1.9v.2l-3.5 4.3 3.8 4.8v.1h-2l-3.4-4H33v4Zm8.5 0v-10h1.7v3.9h.2c.2-.4.5-.6.8-.8.4-.2.8-.3 1.3-.3 1.6 0 2.3.9 2.3 2.7v4.5h-1.7v-4.3c0-.5-.1-.8-.3-1-.2-.3-.5-.4-1-.4-.4 0-.8.2-1.1.5-.3.3-.5.9-.5 1.6v3.6Zm10 .2-1.2-.3c-.3-.1-.6-.4-.7-.7-.2-.3-.3-.7-.3-1.2 0-.4 0-.8.3-1 .1-.3.4-.6.8-.7l1.5-.5 1-.2c.2 0 .3-.2.4-.3l.1-.3c0-.3 0-.4-.2-.6l-.8-.2a2 2 0 0 0-1.1.3l-1 .7-.8-1.1c.3-.4.8-.7 1.3-1 .5-.2 1-.3 1.7-.3 1 0 1.6.2 2 .6.4.4.6 1 .6 1.7v3c0 .4.2.6.5.6h.3l.2 1.2-.4.1h-.6l-1-.1-.5-.8h-.1c-.4.7-1 1-2 1Zm.6-1.4c.4 0 .7 0 1-.4.2-.2.3-.6.3-1.1V69l-.5.1-.7.2c-.4 0-.7.2-.9.3-.2.2-.2.4-.2.7 0 .3 0 .6.2.7.2.2.5.2.8.2Zm7.1 1.4c-.7 0-1.1-.2-1.5-.5-.3-.4-.5-1-.5-1.6v-8h1.8v8c0 .4.2.6.5.6h.4l.2 1.3-.4.1h-.5Zm3-8.1a1 1 0 0 1-.8-.3 1 1 0 0 1-.2-.8c0-.3 0-.5.2-.7.2-.2.5-.3.8-.3l.6.1.4.4.1.5-.1.6-.4.4h-.6Zm-.8 8v-7.2h1.7v7.1Zm4-.1v-5.6h-1v-1.5h1l-.1-.8c0-.5 0-.8.3-1.2.2-.3.5-.5.9-.7.4-.2.8-.2 1.4-.2.7 0 1.3 0 1.7.4l-.4 1.3h-.1c-.3-.2-.6-.3-1-.3s-.6.1-.8.3c-.2.1-.2.3-.2.6v.6h2.1v1.5h-2v5.6Zm6.6.2a2 2 0 0 1-1.1-.3c-.4-.1-.6-.4-.8-.7-.2-.3-.3-.7-.3-1.2 0-.4.1-.8.3-1 .2-.3.4-.6.8-.7l1.5-.5 1-.2c.2 0 .3-.2.4-.3l.1-.3c0-.3 0-.4-.2-.6l-.8-.2a2 2 0 0 0-1.1.3l-1 .7-.8-1.1c.3-.4.8-.7 1.3-1 .5-.2 1-.3 1.7-.3 1 0 1.6.2 2 .6.4.4.7 1 .7 1.7v3c0 .4.1.6.4.6h.3l.2 1.2-.4.1h-.6l-1-.1-.5-.8h-.1c-.4.7-1 1-2 1Zm.6-1.4c.4 0 .7 0 1-.4.2-.2.4-.6.4-1.1V69H72l-.5.1-.7.2c-.4 0-.7.2-.9.3l-.2.7c0 .3 0 .6.3.7.1.2.4.2.7.2Zm0 0"/>
</svg>
