<svg xmlns="http://www.w3.org/2000/svg" xmlns:xlink="http://www.w3.org/1999/xlink" version="1.0" viewBox="0 0 75 75">
  <defs>
    <path id="a" d="M26.4 0h25.5v69H26.4Zm0 0"/>
  </defs>
  <defs>
    <clipPath id="b">
      <use xlink:href="#a"/>
    </clipPath>
    <clipPath id="c">
      <use xlink:href="#a"/>
    </clipPath>
    <clipPath id="d">
      <path d="M26.4 10h25.5v59H26.4Zm0 0"/>
    </clipPath>
  </defs>
  <g clip-path="url(#b)">
    <path fill="#d2ecff" d="M47.6 59.6Zm-.1-48.7v-.2.2ZM51.8 26v.4l-.2.1-1.8.6H49l-1.2-.6h-.3v33.1l2 .5 2 .5-.1.1v-.1h.1v1l-1.4 1-4.5 3.5-3.4 2.7s-.2 0-.2.2h-.3l-.2-.1-2.2-.6-5-1.4-6.2-1.8-1.1-.3a.4.4 0 0 1-.3-.3l-.3-.6v-.2l4-2h.1v-.3A40.3 40.3 0 0 1 28.3 43a50.7 50.7 0 0 1 17.1-32.6h.3V.1c0-.1 0 0 .1 0l.6 1.2v9.2h.9l.1.2v14l2.4.7 1.7.4h.2v.2Zm-10-2.8h.4V23a1820.9 1820.9 0 0 0 1.6-7v-2.7l-.3.3a56 56 0 0 0-7.2 10.3c0 .1 0 .1 0 0l1.6-.2 2.2-.3 1.7-.2Zm5.7 1.5Zm0 0"/>
  </g>
  <path fill="#d2ecff" d="M46.6 10.5h.8l.1.2v.2l-.1.1-.9 3.1-2 7.5-.4 1.2v.1l-.5 2.3-.1.4a5 5 0 0 0-.2 1l-.3 1v.4l-.3 1v.2l-.2 1.1v.2l-.2 1v.7c-.2.2-.2.5-.2.8v.1a7 7 0 0 0-.2 1.4l-.2 1v.2a7.7 7.7 0 0 0-.2 1.3 6.1 6.1 0 0 0 0 1.3c-.2.4-.2.7-.2 1.1v.2a6.7 6.7 0 0 0 0 1.3l-.1.1v1s-.1.2 0 .2l-.1.8v3a7.6 7.6 0 0 0 0 1.2 5.3 5.3 0 0 0 0 1.3 5.9 5.9 0 0 0 0 1.2 9.3 9.3 0 0 0 .1 1.6 6.9 6.9 0 0 0 .1 1l.1 1v.1l.1.7v.2l.1 1a3.6 3.6 0 0 0 .2 1.2l.1.6.1.5v.2a6.8 6.8 0 0 0 .3 1.2 5.1 5.1 0 0 0 .2 1.2 7 7 0 0 0 .2 1.1c0 .4.2.7.3 1v.2l.2.7.3 1.1.2.8v.2l-.8.4-.4.2h-.1l-.2-.6V65l-.6-1.7V63l-.4-1.1v-.2a9.6 9.6 0 0 0-.3-1 8.7 8.7 0 0 0-.3-1.3 6.7 6.7 0 0 0-.2-1.2l-.1-.8-.1-.4a9 9 0 0 0-.2-1.1l-.1-1v-.2l-.1-.8v-.1l-.1-.8v-.2l-.1-.9v-.1l-.1-1.4V48l-.1-.2v-2.5a7.4 7.4 0 0 0 0-1.3 7 7 0 0 0 0-1.3 6.7 6.7 0 0 0 .1-1.3 6.5 6.5 0 0 0 .1-1.4v-1l.1-.2v-1.1l.1-.2.1-1.1v-.1a11 11 0 0 0 .2-1.3v-.3l.1-.8v-.2a8.4 8.4 0 0 0 .2-1.3 7.8 7.8 0 0 0 .2-1.3l.2-1.1v-.1l.2-1.2s.1-.1 0-.2c.2-.3.2-.7.3-1v-.2l.2-1V26l.1-.1.5-2.2V23l.1-.1a1820.9 1820.9 0 0 0 1.6-7l.1-.2.6-2.2.3-1.2h-.1l-.9.9-.3.3A56 56 0 0 0 36 24.3h-.2c-.4 0-.7.2-1.1.3-.2 0-.3 0-.5.2-.1 0-.2.2-.1.4v.2l.3.2.8.2v.2l-.4.7v.1a5.4 5.4 0 0 0-.5 1.1l-.5 1a5.7 5.7 0 0 0-.5 1.2l-.5 1.3v.1a10.7 10.7 0 0 0-.6 1.5 6.8 6.8 0 0 0-.4 1.3l-.3 1v.2l-.4 1.3v.2a7.1 7.1 0 0 0-.4 1.2 7 7 0 0 0-.2 1v.2a3 3 0 0 0-.3 1.3v.1L30 42l-.1.5-.1 1-.1.5-.1 1v.2l-.1 1.2-.1 1.2v.1a5.7 5.7 0 0 0 0 1.1v3.8l.1 1.3v.1l.2 1.3v.3l.3 2.2a30.6 30.6 0 0 0 1.1 5.2l-.2-.3c0-.3-.2-.5-.3-.7l-.1-.3v-.3A40.3 40.3 0 0 1 28.3 43a50.7 50.7 0 0 1 17.1-32.6h1.1ZM36.4 62.4c-.9 0-1.8 0-2.7-.2a4 4 0 0 1-.9-.3 1 1 0 0 1-.6-.6h-1.1l-.1.2v.1l.2.1v.1h.2c.7.7 1.6 1 2.6 1.2l2.7.1c.1 0 .2 0 .3-.2l.2-.3v.4c-.2.2-.3.3-.5.3-.9 0-1.7 0-2.5-.2-.8 0-1.6-.3-2.3-.7-.2 0-.4-.2-.6-.4v-.2h-.1l-.2-.1c0 .1 0 .3.2.4l.4.5.9.4.3.2 1.1.2 2 .2H37l.2-.1.2-.5v-.8a3 3 0 0 1-1 .2Zm1 .1h-.1Zm-5.6-2.8h-.2c0 .2-.3.2-.4.3v.3l.6.3c.5.3 1 .5 1.6.6a8 8 0 0 0 2.3.1h1.1l.3-.3v-.2c.1.2 0 .3 0 .4l-.2.1-.8.1h-1.5c-.8 0-1.6 0-2.4-.4l-.4-.2h-.1l.1.1v.1l.3.1.1.1.3.1c.5.2 1.1.4 1.7.4a10 10 0 0 0 2.8 0l.4-.3v-.9H37l-1.3.1c-.8 0-1.6 0-2.4-.2-.5-.1-1-.3-1.5-.7Zm5.5 1Zm-5.8 0h.2-.2Zm0-.1Zm-.1-.1Zm0 0"/>
  <g clip-path="url(#c)">
    <path fill="#3a3a5f" d="m30.5 61.7.1.3.3.7.2.3h.2c.4.3.8.6 1.3.7a58.6 58.6 0 0 0 7.4 2c.6.2.6.2 1.1 0l1-.5.3.5c0 .1 0 .2.1.1l.4-.2.7-.4c.2 0 .2 0 .1-.2l-.2-.8h.3l2.1-1c.3 0 .5-.2.8-.3l.1-.2v-3.2l-.1-.1a99.2 99.2 0 0 0 0-1.2V56l-.1-.3V52l-.2-.1-2.4 1-2 .8c-.2 0-.3 0-.3.2h-.2v-.7l.7-.2a13.1 13.1 0 0 0 1.9-.8l1.9-.8.4-.1c.1 0 .2-.2.1-.3v-3.5l-.1-1.3v-3.5l-.1-.2v-.7c0-.3 0-.3-.3-.2l-2 .8-3 1.2v-.7h.3l4.5-1.8c.6-.3.5-.1.5-.8l-.1-1.3v-5l-.1-.2v-2.4l-.1-.9c-.3 0-.4.2-.6.3l-2.3 1-.9.3.1-.7.4-.1.6-.3 2.5-1h.1l.1-.3v-4.2l-.1-.7V24l-.1-.3-1.4-.9h-.3c0-.5.2-.9.3-1.3a218.4 218.4 0 0 1 3-10.6v.1h.1v14c0 .1 0 .2-.2.3-.2 0-.5.2-.6.4l-.2.2.1.2.4.2c.2 0 .3 0 .5.2v33.1l2 .5 2 .5-.3.2-2.2 1.8a4124 4124 0 0 0-7 5.4c-.2.2-.2.2-.6 0l-12.6-3.5-2-.6c-.1 0-.3 0-.3-.2l3.9-2Zm16-51.6V1.3L45.9 0s0-.1-.1 0v10.4h.8V10Zm5.3 16c-.1-.2-.3-.2-.5-.1a3 3 0 0 0-1.5.5l-.4.2v.2h.5a6.7 6.7 0 0 0 1.9-.7V26Zm-17.7-.7.3.2.8.2h.2l.7.1h1c.2 0 .3.2.4.4l1.2 1.2.3.3.1-.5v-.2l.2-1v-.3c0-.1-.1-.2-.3-.2l-.2-.1.1-.4-.7.4-.8.1H35l-.8-.4v.2Zm9.8-9.6.6-2.2.3-1.2h-.1l-.9.9V16l.1-.2Zm-7 41c-.4.2-.8.4-1.2.4-1.1.2-2.2.1-3.2-.3a3 3 0 0 1-1-.6v1.4l.1.4.6.4a5 5 0 0 0 1.7.6l1.2.1c.7 0 1.3 0 2-.4h.1v-2.3Zm-2.5 2.7c-.5 0-.9-.1-1.3-.3a4 4 0 0 1-1.4-.9v.6l.2.8c.4.4 1 .6 1.5.7.8.2 1.6.3 2.4.2l1.3-.1h.2v-1.3l-.1-.3c-.8.6-1.8.8-2.8.6Zm-1.6 3.8c.2.6 0 .5.6.7l2.9.8 1.2.3c.1 0 .2 0 .2-.2v-.5l-.2-1.2V63l-.2.5-.2.1h-1.2c-.7 0-1.3 0-2-.2l-1.1-.2v.1Zm-.6-2 .6.6.9.3c1 .2 1.8.2 2.7.2l1-.2v-.8c-.1.2-.2.2-.4.2a17.6 17.6 0 0 1-2.8.1c-.6 0-1.2-.2-1.7-.4h-.3Zm-.8-.8.2.1v.2h.2l.4.2c.8.3 1.6.4 2.4.5h1.5l.8-.2h.2v-.5.2l-.3.2h-.2l-.9.1a8 8 0 0 1-2.3 0l-1.6-.7-.5-.3v.2Zm-.2 1.3c0-.1 0-.2-.2-.2l.2.2Zm0-1.5Zm1.5-3.6a8 8 0 0 0 3.1.2l1-.2.3-.1v-2.3a6.6 6.6 0 0 1-4.9.1c-.4-.2-.7-.4-1-.8V55l.2 1.1v.1l.2.2 1.1.4Zm1.2-24.6a57.6 57.6 0 0 0-.8 2.5v.3l-.3.8v.5l-.3.7-.1.5c0 .5-.2 1-.3 1.4l-.2 1v.4l-.2 1.5-.1.8.6.2 3.2.7 1.5.2h.2l-.3.1H35l-3-.9-.4-.2h-.1v1l-.2.9v1.4l-.2 1.2v1.1l1.2.6 1.7.3h3c-.2.2-.4.2-.6.2a7 7 0 0 1-3.5 0c-.4 0-.7-.2-1-.4-.4-.1-.6-.3-.8-.6v2.3l.2.4c.1.2.4.3.6.4a8.6 8.6 0 0 0 5.2.1v-5.1l-1.1.2c-1 0-2 0-3-.3a4 4 0 0 1-1.1-.4l-.4-.4-.1-.2c.3.3.6.4 1 .5a21.6 21.6 0 0 0 4.7.5l.1-1.3.1-1.2V42l.1-1v-.3h-.1c-1.9 0-4.4-.7-5-1.1a44.1 44.1 0 0 1 5.2 1v-.1a3.3 3.3 0 0 1 0-.7l.1-1.2v-.5h-.1a18.2 18.2 0 0 1-4.4-1s-.2 0-.3-.2a20.7 20.7 0 0 1 4.9 1v-1l.2-.9v-.8l-1-.1a17.7 17.7 0 0 1-3.2-1h.3a17.7 17.7 0 0 1 4 1v-.5a49.4 49.4 0 0 1 .2-1v-1.2a12.6 12.6 0 0 1-3.6-.9l-.1-.1h.4a13.8 13.8 0 0 1 3.3.9h.1c0-.5 0-.9.2-1.3a9.4 9.4 0 0 1 .2-1.3v-.9h-.3l-2.3-.7h-.2c0-.2.2-.2.3-.2l.8-.3h.9v-.2a172.7 172.7 0 0 0-1.3-1.4c0 .1 0 .3-.2.4v.1l-.4.8v.2l-.1.1-.4.7-.1.2-.4.9-.5 1-.5 1.4v.1l-.1.2Zm-2.7 21.3c.2.3.5.5 1 .7l1.4.3c1.2.1 2.3 0 3.5-.2v-.5a5.3 5.3 0 0 1 0-.9v-1.2L36 52a7 7 0 0 1-3.5 0l-.7-.4a1 1 0 0 1-.6-.5l-.1-.1v2.3Zm0 8.4.1.2.6.4c.7.4 1.5.6 2.3.7.8.2 1.6.2 2.5.2.2 0 .3 0 .4-.3l.1-.3-.2.2c0 .2-.2.2-.3.2L34 63c-1-.2-1.9-.5-2.6-1.1h-.2Zm0 0Zm6 .7h.1Zm0-1.8Zm0 0"/>
  </g>
  <g clip-path="url(#d)">
    <path fill="#64adc4" d="M51.5 60.6v1l-1.4 1-4.5 3.5-3.4 2.7s-.2 0-.2.2h-.3l-.2-.1-2.2-.6-5-1.4-6.2-1.8-1.1-.3a.4.4 0 0 1-.3-.3l-.3-.6v-.2c.1.2.3.1.4.2l2 .6L41.4 68c.4.1.4.1.7-.1l6.9-5.4 2.2-1.8c.1 0 .2 0 .3-.2Zm-3.7-34c.4 0 .8.2 1.2.4.3.1.6.1.8 0a9.2 9.2 0 0 0 2-.6v-.2c-.2.1-.4.3-.7.3L50 27h-.4s-.1 0 0-.1c0-.2.1-.3.3-.3a3 3 0 0 1 1.5-.5h.5s.1 0 0-.1h-.2l-1.7-.5-2.4-.7v.3c0 .1 0 .2-.2.3-.2 0-.4.2-.6.4l-.2.2.1.2.4.2c.2 0 .3 0 .5.2h.3Zm-.3-15.7v-.2.2Zm0 48.7Zm-5.3 5.6-1.1.4c-.5.3-.5.3-1.1.2a62.9 62.9 0 0 1-7.4-2l-1.3-.7a31 31 0 0 1-1.3-5.3l-.3-2.2v-.2l.3.2 1.2.5h.2v.7l.1.8a14.4 14.4 0 0 1-1.5-.5v.1c.5.3 1 .4 1.5.5l.1.4v.7h-.1l-1-.5h-.2c-.1 0 0 0 0 0v.1l1 .4h.4v.1l.2.8-1.4-.4v.1l.2.1c.3.2.6.2 1 .3l-.5.2v.3l.2.2.2.1v.2l.2.1s.1 0 0 .1a14.8 14.8 0 0 1-1-.5l.1.2a2.5 2.5 0 0 0 1.4.6H31l-.1.2v.1c0 .2 0 .4.2.5l.4.5.9.4.3.2v.1c.2.6 0 .5.6.7l2.9.8 1.2.3c.1 0 .2 0 .2-.2v-.5l-.2-1.2v-1l.7.1a67.6 67.6 0 0 1 1.7.2l1.3-.6.3 1.1h-.2l-1.4.8h-.5l-.8-.1c-.3-.2-.6-.2-1-.3l.1.1.9.2.8.3h.5l1.6-.8.1.1a208.8 208.8 0 0 1 .6 1.9Zm4-30.1V39h-.1l-2.8 1c-.7.1-1.4.4-2 .6v-1.1l4-1.5.6-.3-.5.2-2.2.7-1.9.7.1-1 .2-.1 4.4-1.8-.5.1-.6.2-3.5 1.4c0-.4 0-.8.2-1.2l.2-.1 3.7-1.5c.2 0 .4 0 .5-.2Zm-6 22v.3l.2.8-.8.4h-.3a29.3 29.3 0 0 0 .3.1c.3 0 .5-.2.8-.3l.2 1-.9.4h-1l-1.4-.2c.3.2.7.2 1.2.3l.8.1h.4l1-.4.2 1-1 .5h-1.7c-.2-.2-.5-.2-.8-.2v-.8l-.1-.9-.1-.3v-.1c.2 0 .2 0 .2-.2l-.2.1V56l1 .1.6.1 1-.1h.2l.2.9c-.3 0-.5.2-.7.3H39a53 53 0 0 0-.9 0l.9.2h.5l.7-.4Zm6.3-3.7.1 1.9v.3l-2.1.9-2.5 1-.1-.5v-.7l4.2-1.7.4-.2a4203.1 4203.1 0 0 0-4.7 1.8l-.1-1h.2l4.1-1.6Zm-7-3.1v1.4l-.8.1h-1.6v-4.2h.3a177.7 177.7 0 0 1 2 .3v1h-1.2l-1-.1.9.1 1 .1h.3v1.1l-.3.1h-1L38 50h-.8.2l.3.1h.2a52.2 52.2 0 0 1 1.6 0Zm-3.2-26.4 1.6-.2 2.2-.3 1.7-.2h.4l-.1.4-.5 2.2a1 1 0 0 1-.9.1h-.9l-.4-.2H39l-.2-.2.1-.4c0-.2 0-.3-.2-.4a2 2 0 0 0-.5-.2 6 6 0 0 0-1.5-.2H36l.3-.4Zm10.1 23.7c0 .6.1 1.1 0 1.6l-.6.3-4.6 1.6v-1.5h.1l4.1-1.6 1-.4Zm.3 13v1.9l.1.2-.1.2-.8.3-2.1 1h-.3l-.3-1a4 4 0 0 1-.2-.8l3.2-1.5.5-.2ZM29.6 45v-1c0-.1 0-.3.2-.5.5.5 1 .7 1.4.7L31 44l-.7-.4c-.2 0-.4-.2-.5-.3v-.9c.1-.1 0-.3.2-.4l.8.4c.3.1.5.2.7.1v1l-.2.9v1.4l-.2 1.2-1.2-.6-.4-.1v-1.2h.3c.3.3.7.4 1 .5h.3l-.2-.1-.9-.4-.4-.2Zm16.7 0 .1.2v1l-1.8.7-3.5 1.3v-1.1l.2-.1a207 207 0 0 0 4.7-2h.3Zm0-2.4v1.1l-.4.2-3.3 1.2-1.6.6v-1.1l.3-.1 2.1-.8 2.9-1.1Zm0 3.7.1 1.2-.2.1-5 1.9-.1-1.1h.2l3.9-1.6 1.2-.5Zm0-7.3v1.2c-.2 0-.4 0-.5.2h-.2l-2 .7-2.5.8v-1l.1-.1 4.3-1.5Zm0 4.8a12.8 12.8 0 0 1 0 1.1l-2.2.8-3 1.2v-1h.2c1.2-.6 2.5-1 3.7-1.5l1.3-.6Zm-6.5 10v.8c-.4.2-.7.2-1 .2h-.4l-.9-.1h-.2l1 .2h1.4l.2-.1v1l-.4.2h-1.1l-1.2-.1-.1-1.4v-.8h.2l.9.2h1.5Zm6.8 1.9v1.2h-.2l-1.9.8-2.3 1-.2-1 .3-.1 4-1.8.3-.1Zm-7-15.6v1.2H39l-1.6-.1h.4l.4.1 1.2.1v1.2l-2.1-.2v-1.3l-.1-.3.2-.2v-.7c.2 0 .3.1.4 0l1.3.2h.4Zm7 16.9v1.2a19.5 19.5 0 0 0-1 .3l-3 1.5-.2-1 3.3-1.5 1-.4Zm-.1-6.6v.7l-.1.3-.4.1-2 .8-.8.3-1.8.5v-.8l4.2-1.6.9-.3ZM46 33.9V35l-1.1.4-3.4 1.3.1-1 .2-.2 3.4-1.3.3-.1.5-.2Zm-6.3 3.7-.1 1.1H38l-.3-.1v-.4s.1 0 0 0V37l.2-.9h.8l1.2.2-.1 1.1h-2 .5l1.5.2Zm6.7 11.7v1l-2 .7-3.2 1.1v-.9h.1l3.8-1.4 1.3-.5ZM41 43.6l3-1.2 1.9-.8c.3-.1.3-.1.3.2v.7l-.4.1-4.9 1.8v-.8Zm5-12.1v1.2c-.4 0-.7.2-1 .3l-3.2 1.2c0-.4 0-.8.2-1.2h.1l2.3-1 1.5-.5Zm.6 27.9v1.2c-.1 0-.3 0-.5.2l-.3.1-2.9 1.4-.3-1.1.3-.1 3.2-1.5.5-.2ZM41 28.6c0 .4 0 .8-.2 1.1h-2.1v-.9h-.3l-2.3-.7h-.2c0-.2.2-.2.3-.2l.8-.3h1l.6.8c.1.1.2.2.3 0h.1l1.4.2h.6Zm5 4.1v1l-.3.2-.5.2-1.8.7-1.7.6c0-.3 0-.7.2-1l.2-.1 2.9-1.1 1-.5Zm.7 25.5v1.1l-.6.3H46l-3.2 1.5-.2-1 .4-.2 3.3-1.5Zm-5.8 2.6.3 1-1.4.6h-.4l-1.2-.1-.4-.1h-.3l-.1-.8V61l.8.2 1 .2h.6l1.1-.5Zm5.6-8.2v.7a1 1 0 0 0-.5.2l-.6.2-3.8 1.4v-.9h.2l4.4-1.5h.3ZM30.2 40.7l.2-1.3c.5.3 1 .6 1.5.7v.1l-.2 1.5-.1.8-.1.1h-.2l-1-.5-.3-.1c0-.4 0-.8.2-1.2l.8.5h.6-.3l-.6-.4-.5-.2Zm16-.4c.1.6.2.5-.4.7a1098.5 1098.5 0 0 1-4.7 2v-1h.3a201.3 201.3 0 0 0 4.9-1.8ZM31.9 34l.4-1 .8.2h.3l-1-.4.5-1.4c.3.2.7.4 1.1.4v.2a64.3 64.3 0 0 0-1 2.5l-1-.5Zm-2.4 13.5v-1.1c.5.2.9.5 1.4.6h.3v2.4l-1.5-.6h-.2v-1c.5.2 1 .5 1.5.5l-.2-.1-1-.5-.3-.1ZM46 27.9V29h-.2a126.2 126.2 0 0 0-3.3 1.2l.2-1 .3-.2Zm0-1.2v1l-1 .4-2.2.9c0-.4 0-.7.2-1v-.2l1.3-.5 1.6-.6Zm0 2.3v1h-.2l-2.5 1-.6.3h-.4l.2-1c.5 0 1-.3 1.4-.5l2-.8Zm-3.8 3 1-.3 2.2-1 .6-.2v.9a1 1 0 0 0-.3.1l-2.6 1-1 .4.1-.8Zm2-9.2.2.1a158.7 158.7 0 0 0 1.5 1.2v.3l-.5.2-1.8.6.5-2.3Zm1.7 2.7v1l-.3.1-2.3 1H43l.2-1h.2Zm-6.5 21v1c-.2.1-.4.2-.6.1h-1.6v-1.3h.6l.5.1 1 .1ZM39 27.7l.1-.4v-.2h.1l1.8.3h.3l-.2 1-.8.1h-.7l-.7-.1v-.7Zm.4 17.5v1.2h-.5l-1.1-.1h-.6V45h.5l.2.1h.6l.9.1Zm0-2.5v1.2l-1.1-.1h-1v-1.3h.2l2 .2Zm1.4-12.8c0 .4 0 .7-.2 1l-.4.2-1.7-.2c0-.4 0-.8.2-1.2.1 0 .2.1.4 0l1.1.2h.6Zm-1.2 22v.8l-.3.2a1 1 0 0 1-.4 0H37v-1.2h.4l1.2.2h.9Zm1-20.8c0 .4 0 .8-.2 1.1l-.6.1h-1.5c0-.5 0-.9.2-1.3l1.7.2h.4Zm-.2 1.3c0 .4 0 .8-.2 1.2H39c-.3-.1-.5-.1-.8 0v-.2l.2-1v-.1h.2l1.4.2.5-.1Zm-.7 6.5-.1 1a53.4 53.4 0 0 0-1.5 0h-.6l.1-1.2v-.1h.1l.6.1Zm-.3 5.1v1.1H38l-.2-.1h-.6v-1.2h.4l1.8.2Zm.8-10.2v.8l-.1.3h-1.4l-.1-.1H38v-.2l.2-1h1.1l1 .2Zm-.1 1.2-.2 1.2h-.3l-1.4-.1h-.3v-.8h.2-.1v-.5h.6ZM29.5 54v-1.4l.7.5 1 .2v1.3c-.2 0-.4 0-.6-.2l-1-.5Zm0-1.5-.1-.3v-.9c.5.3 1 .5 1.7.6v1.4a13 13 0 0 1-1.7-.8Zm-.1-1.3V50l.2.1c.5.3 1 .4 1.5.5l.2.4H31v.8l-1-.3-.7-.3Zm9.8-24 .1-1 1.7.1h.5l-.2 1a1 1 0 0 1-.4 0l-1.7-.2Zm.5 25.7v.8h-.3l-.2.1h-1.6a2 2 0 0 0-.5-.1v-.8h.5l1 .1 1-.1Zm-10 2.4-.2-1.3.3.2 1 .5h.4v.2l.2 1.1H31a12.7 12.7 0 0 1-1.4-.7ZM31 36.8l.3-1.3.7.3c.2.1.4.2.6.1v.3l-.2.7-.1.5a7 7 0 0 1-1.3-.6Zm14.8-12v.6l-.7.3-2 .7.3-.8.4-.2a467 467 0 0 0 2-.6ZM30.7 38l.3-1 1 .4h.4l-.3 1.4-.2-.1-1.2-.6Zm2.1-6.7.5-1.3.8.4h.4l-.5 1.3h-.2l-1-.4Zm-3.5 18.5v-1l1.4.5h.4v1.1l-1.3-.5-.5-.1Zm1.2-10.6.2-1h.3c.3.3.7.5 1.1.5l-.2 1v.2l-.3-.1a7 7 0 0 1-1.1-.6Zm1-4 .3-1 .5.2.8.2v.2l-.3.8v.2h-.3l-1-.5Zm2.8-7.5.5-1c.3.3.6.5 1 .6h.1v.3l-.4.7-.9-.4-.3-.2Zm-1 2.2.5-1 1.1.5c0 .3-.2.6-.4 1h-.2l-1-.5Zm.5-1.1.5-1 .9.5h.2l-.4 1-1.2-.5Zm1-2.2.4-.7 1.2.5-.4.8-1.2-.6ZM41.7 54h-.2.2Zm-6.3-28.1h-.2.2Zm11.1 26.7-.7.2-3.8 1.1-.3.1.2-.2 2-.8 2.4-1h.2v.6ZM36.6 26c0 .2 0 .3-.2.4l-.9-.4-.1-.1h1.2v.1ZM32 61.1h.1Zm.2.1Zm0 0"/>
  </g>
  <path fill="#d5e3e9" d="M45.9 24.8h-.3c-.6.3-1.1.5-1.7.6l-.4.2v-.4l1.9-.6.5-.2v.4Zm-4.3 1a1 1 0 0 1-.9.1h-.9l-.4-.2h-.1v.4l1.7.2h.5v-.4Zm-4.9 31-.9.1a7.6 7.6 0 0 1-4.2-.6h-.1c.3.3.6.5 1 .6 1 .4 2.1.5 3.2.3.4 0 .8-.2 1.2-.4h-.1Zm2.7-8v.2h-1.3l-.9-.1v-.1h1l1 .1h.2Zm.1-7.5h-.4l-1.6-.1h.4l.4.1 1.2.1v-.1Zm-.7 6.3h-1.6.2a103.7 103.7 0 0 1 2 .1v-.1h-.6Zm-1.4-5.1h.1l2 .2v-.1l-2.1-.2Zm-.3 9.2.4.1 1.2.1h.9v-.2l-.8.1H37Zm.2-8h.4a25.9 25.9 0 0 0 1.7.2l-1.1-.1h-1Zm1.8 6.5h-1L38 50h-.8.2l.3.1h.2l1.1.1h.5V50l-.4.1Zm-1.4-11.6.6.1 1.4.2v-.2H38l-.3-.1Zm1-5h.6l1 .2v-.2h-2.1.5Zm-6.5 20.8c.7.2 1.3.4 2 .4 1 0 1.9-.1 2.8-.5.1 0 0 0 0-.1a11 11 0 0 1-3.4.2l-1.5-.3a2 2 0 0 1-1-.7v.2l1.1.8Zm7.6-16.8v-.2h-2 .5l1.5.2Zm-8 11.3 1 .4c1.2.3 2.4.3 3.6 0l.6-.1h-.4L34 49a5 5 0 0 1-1.7-.3c-.4-.1-.8-.3-1.1-.6-.1 0 0 0 0 0v.1c0 .3.3.5.6.6Zm5.7-9c.2 0 .3.1.4 0l1.3.2h.4v-.2l-.5.1h-1c-.2-.2-.4-.1-.6-.1Zm.5-5h.6l1.5.1h-1.4l-.1-.1H38Zm-.8 6 .1-.2-5-1c.6.4 3.1 1.1 5 1.1Zm-4-3.7a17.8 17.8 0 0 0 4.5 1s.1 0 0 0V38h-.2c-1.5-.6-3-.9-4.7-1l.3.1Zm4.8-2h-.2a17.8 17.8 0 0 0-4.1-1l.3.2 3 .8 1 .1Zm-6.6 10.1v.2l.5.4 1 .4c1 .3 2 .3 3 .3l1.1-.2h.1-.2a21.6 21.6 0 0 1-4.6-.6c-.3 0-.7-.2-1-.5Zm8.5-9.1h-.3l-1.4-.1h-.3.2l.6.1 1.2.1v-.1Zm-8.3 6.3.4.3a10.4 10.4 0 0 0 4.8 1s.2 0 .3-.2H37l-1.5-.2-3.2-.7-.6-.2Zm5.6 2.5h.5l.2.1h.6l.9.1L38 45h-.8Zm-.1 6.5a8.6 8.6 0 0 1-5.2-.1c-.2 0-.5-.2-.6-.4h-.1c.1.3.3.5.6.6l.7.4a6 6 0 0 0 3.5 0l1-.4h.1v-.1Zm0-5.2h.7l.5.1 1 .1v-.1H39l-.9-.1s-.8-.1-.8 0Zm.3 6.6h.2l1 .1 1-.1c.1 0 .1-.1 0-.2l-.3.2h-2.2.3Zm1.4 2h.9l.2-.1v-.2h-.1c-.4.2-.7.2-1 .2h-.4l-.9-.1h-.2l1 .2h.5Zm0 1.2 1-.1h.2v-.2a10.8 10.8 0 0 1-.8.2h-.8l-1.2-.1 1 .1.6.1Zm2.5-4v.2l4.3-1.6.9-.3c-.7.1-1.3.3-2 .6l-3.1 1Zm1.3-7-1.6.6v.2h.3c1.2-.6 2.4-1 3.7-1.5l1.3-.6-.4.1-3.3 1.2Zm1.5.6-3 1.2v.2l.2-.1 4.7-2h.3v-.2l-2.2.8Zm-3-1.3v.2l.2-.1 2.1-.8 2.9-1.1v-.1l-.4.1-4.9 1.8Zm0 3.8v.2h.2l3.9-1.6 1.2-.5-1.8.6-3.5 1.3Zm2.2-8.3-2 .7a137.2 137.2 0 0 0 4.3-1.4l.6-.2h-.1l-2.8 1Zm2.3.5-2 .7-2.5.8v.2h.3a209.2 209.2 0 0 0 4.9-1.9c-.2 0-.4 0-.5.2h-.2Zm-3.8 13.8 4.4-1.5h.3v-.1A1403.7 1403.7 0 0 0 42 54h-.4v.2h.3ZM46 35h.1Zm-4.9 14.4v.1h.2l4.1-1.6 1-.4h-.2l-5 1.9Zm2.8 2.9a23.2 23.2 0 0 0-2.5.7v.2l.8-.2 1.7-.7ZM41.7 54Zm-.5-3v.2h.2l3.8-1.4 1.3-.5c-.3 0-.5 0-.7.2L41.2 51ZM39 57.5h.5l.7-.4V57c-.3 0-.5.2-.7.3h-1.3a2 2 0 0 0-1-.1l1 .1.8.2Zm4.4-30.9 2.5-1-.7.2-2 .7v.2h.2Zm-1.8 11.7a109.4 109.4 0 0 0-.2 0h.2Zm.3-2.7 3.3-1.3.4-.1.5-.2v-.1l-.4.1-.5.2-1.8.7a307.8 307.8 0 0 0-1.7.8h.2Zm0 1.3 4.1-1.7-4.4 1.6v.2l.2-.1Zm-.6 2.7a128.8 128.8 0 0 0 1.9-.9l-1.9.7v.2ZM41 27.4h.3v-.2a1 1 0 0 1-.4 0h-1.7Zm-3.5-1.1-.4-.4h-.5v.1l.2.1 1 1.3.1.2h.1l.6.8c.1.1.2.2.3 0h.1l1.4.2h.6v-.2l-.7.1h-.7l-.7-.1v-.6c0-.1 0-.2-.2-.3l-1.2-1.2ZM43 29l3-1.1v-.1l-1 .3-2.2.9v.1h.2Zm1.3-1.7 1.6-.6v-.1h-.3l-2.3 1H43v.2l1.3-.5ZM37 56.5l-.4.2h.4v-.1c.1 0 .1 0 0 0ZM42.2 33l2.3-1 1.5-.5v-.1a1 1 0 0 0-.3.1l-2.6 1-1 .4v.1h.1Zm0 1.3 2.8-1.1 1-.5-1 .3-3.1 1.2v.2l.2-.1Zm1.7-4.5 2-.8h.1-.2l-1.3.5-2 .7v.2l1.4-.6Zm-6.6 24h.9l.5.1h1v-.2h-.3l-.2.1h-1.6a2 2 0 0 0-.5-.1h.2Zm-5.5 5.9-1.3-.4v.1l.2.1c.3.2.6.2 1 .3Zm-.3-2.1a14.4 14.4 0 0 1-1.5-.5v.1c.5.3 1 .4 1.5.5v-.1Zm-.3-4.3H31a13.8 13.8 0 0 1-1.6-.8l.8.6 1 .2Zm5.8 5.5c-.6.3-1.2.4-2 .4a6.2 6.2 0 0 1-2.8-.7l-.6-.4v.2l1.5 1 1.3.2c1 .2 2 0 2.8-.6v-.1h-.1ZM32 61Zm.2.1h-.4a18 18 0 0 1-.6-.4l-.3-.2.1.2c.4.3.8.5 1.3.6V61Zm-.4-2.3h-.2l-1-.5h-.2c-.1 0 0 0 0 0v.1l1 .4h.4Zm-.3-2.7Zm-.5-1.4h.3l-.6-.3-1-.5v.1l.2.2 1 .5Zm.5 1.4L31 56a12.6 12.6 0 0 1-1.4-.7v.1l.3.2 1.2.5h.2Zm0 .2h.2l-.2-.2v.2Zm0-.2Zm.8 5.1Zm14.5-3c-.2 0-.4 0-.5.2l.5-.2Zm0-1.2h-.2l-2 .8-2.3 1 3.4-1.4 1-.4Zm-.3-1.2.2-.1-2.1.8-2.5 1v.2l.3-.1 4-1.8Zm-.2 2.6-.5.1-3.2 1.4v.2l.4-.2 3.3-1.5Zm0 2.4-.3.1a671 671 0 0 0-2.9 1.5l3.2-1.5.5-.2v-.1c-.1 0-.3 0-.5.2Zm-9-2c.2 0 .2 0 .2-.2Zm9 .8.5-.2c-.2 0-.4 0-.6.2H46l-3.2 1.5v.1l.3-.1 3.2-1.5Zm-7 1.7h.6l1.1-.5v-.2l-1 .5a41.4 41.4 0 0 0-2.4-.2h-.1l.8.2 1 .2Zm0-1.3h.5l1-.4v-.2l-1 .4a13.2 13.2 0 0 0-1 0l-1.3-.2c.2.2.6.2 1.1.3l.8.1Zm-1 2.3a57 57 0 0 1 1.7.2l1.3-.6v-.1l-1.4.6h-.4l-1.2-.1-.5-.1h-.2l.7.1Zm7.8-8.7.5-.2a1 1 0 0 0-.5.1l-.6.3-3.8 1.3v.2h.3l4.1-1.7ZM41.3 63l-1.4.7h-.5l-.8-.1c-.3-.2-.6-.2-1-.3l.1.1.9.2.8.3h.5l1.6-.8V63h-.2Zm-2-4.3h.3l.8-.4v-.2l-.8.4h-.3l-2-.2h.2l1.8.4Zm7.2-4.4-.7.2-4 1.6v.2l.2-.1 4.1-1.7.4-.2ZM32.3 34.5l.8.2-.2-.1a11 11 0 0 1-1-.5l-.1.2.5.2Zm8.5-4.7h-1.7c-.1-.2-.3-.1-.4-.1.1 0 .2.1.4 0l1.1.2h.6v-.1Zm-6.3.7h-.2l-1-.5v.1l.8.4h.4Zm.4-5a7.7 7.7 0 0 0 3.3 0c.3 0 .5-.2.7-.4 0-.2 0-.3-.2-.4a2 2 0 0 0-.5-.1l-1.5-.3H36a43 43 0 0 1-1.3.3c-.2 0-.3 0-.5.2-.1 0-.2.2 0 .4.1.2.4.3.7.3Zm-2 7.8h.4l-1-.4s-.1 0 0 .1c.2.2.4.3.7.3Zm1-1.4h-.1l-1-.5v.1c.3.2.7.4 1.1.4Zm1-2.5c-.3-.2-.7-.3-1-.6l-.1.2 1.1.5v-.1Zm.3-3.4 1.2.5-.9-.5-.1-.1h-.2Zm.2-.1Zm5 6.4h-2.2l-1-.4a14 14 0 0 0-2.3-.5h-.4l.2.1a12.7 12.7 0 0 0 3.6.9v-.1h.2l1.4.2.5-.1v-.1Zm-9.3 19.5-1-.3-.7-.3v.1c.5.3 1 .5 1.7.6Zm3.2-24v.1l.9.5h.2l-.8-.4-.3-.2Zm6.3 3.2h-2.1a122.8 122.8 0 0 1 2.1.1V31Zm-5.8-4.2c.3.3.6.5 1 .6h.2l-1.2-.7v.1Zm-3.9 21.5-.2-.1-1-.5-.3-.1v.1c.5.3 1 .6 1.5.6Zm.2-1.2a9 9 0 0 1-1.2-.6l-.4-.1c.4.3.8.6 1.3.7h.3Zm-.2-1.4h.2l-.2-.1-.9-.4-.4-.2v.2h.2c.3.3.7.4 1 .5Zm.2 4.9a14 14 0 0 1-1.3-.6l-.5-.1.3.2c.5.3 1 .4 1.5.5Zm.1-6.4L31 44l-.7-.4c-.2 0-.4-.2-.5-.3v.1c.5.5 1 .7 1.4.7Zm-.5 5.2h.4a14.7 14.7 0 0 1-1.7-.7v.1c.4.3.8.5 1.3.6Zm.8-6.8h-.2l-1-.5-.3-.1c.2.3.5.4.8.6h.7Zm-.5-4.2c.3.2.7.4 1.1.4l-.2-.1-1.2-.6v.1l.3.2Zm1.1-2.6c.2.1.4.2.6.1h-.2l-1-.5v.1l.6.3Zm0 1.6h.3a7 7 0 0 1-1.3-.6v.2c.2.2.6.3 1 .4Zm-.5 4-.3-.2-.6-.3-.5-.2v.1l.8.5h.6Zm.3-1.4-.3-.1-1.1-.6v.1c.4.3.8.6 1.4.7V40Zm0 0"/>
  <path fill="none" stroke="#fff" stroke-width="3.3" d="M1.6 72.5v-9h3.8c.6 0 1 0 1.5.2.3.2.6.4.8.8.2.3.3.7.3 1.1a2 2 0 0 1-1 1.8v.2c.5.1 1 .4 1.2.8.3.4.5.8.5 1.4 0 .9-.3 1.6-.8 2-.5.5-1.3.7-2.3.7ZM5 67.1c.8 0 1.2-.4 1.2-1.2 0-.3 0-.6-.3-.8-.2-.2-.5-.3-1-.3H3.5v2.3Zm.3 4c1 0 1.5-.4 1.5-1.3 0-1-.5-1.4-1.5-1.4h-2v2.7Zm7 1.6c-.8 0-1.3-.2-1.7-.7-.4-.4-.6-1-.6-1.8v-4.5h2V70c0 .4 0 .7.2 1l.9.2c.4 0 .8-.1 1-.5.3-.3.5-.8.5-1.4v-3.6h1.7v6.8h-1.7v-1l-.9.9c-.3.2-.7.3-1.2.3Zm5.8-.2v-6.8h1.6v1h.2c.1-.4.3-.6.6-.8.3-.2.6-.3 1-.3s.7 0 .9.2l-.3 1.5H22a1.6 1.6 0 0 0-.7-.1c-.5 0-.9.2-1.1.5-.3.3-.4.9-.4 1.6v3.2Zm6.2-7.6a1 1 0 0 1-.8-.3 1 1 0 0 1-.3-.7c0-.3.1-.6.3-.8.2-.2.5-.2.8-.2h.5l.4.4.1.6v.5l-.5.3-.5.2ZM23 75.4c-.5 0-1 0-1.2-.2L22 74h.7c.5 0 .7-.2.7-.8v-7.4h1.7V73c0 .8-.1 1.4-.5 1.8-.4.4-1 .6-1.6.6Zm14.8-2.9H36l-.6-2h-3.5l-.7 2h-1.8l3-9h2.4Zm-4.4-7.1-1.1 3.5h2.5l-1.2-3.5Zm7.4 7.3c-.6 0-1-.2-1.4-.5-.3-.4-.5-.9-.5-1.6V63h1.7v7.7c0 .4.2.6.5.6h.4l.2 1.3-.4.1a3 3 0 0 1-.5 0Zm12.8-.2h-1.9l-.7-2h-3.5l-.6 2H45l3.2-9h2.3Zm-4.4-7.1L48 68.9h2.5l-1.1-3.5Zm5.5 7.1v-6.8h1.7v1h.1c.2-.4.4-.6.7-.8.2-.2.6-.3 1-.3.3 0 .6 0 .8.2l-.3 1.5a1.6 1.6 0 0 0-.8-.1c-.5 0-.8.2-1 .5-.3.3-.5.9-.5 1.6v3.2Zm7 .2c-.4 0-.8-.1-1-.3-.4-.1-.7-.4-.8-.7a2 2 0 0 1-.3-1.1c0-.4.1-.8.3-1 .1-.3.4-.5.8-.7a4 4 0 0 1 1.4-.4l1-.2.4-.3v-.4l-.1-.5-.8-.2a2 2 0 0 0-1.1.3 3 3 0 0 0-.9.7h-.1l-.7-1.1a4 4 0 0 1 1.2-1l1.7-.2c.9 0 1.5.2 2 .5.3.4.6 1 .6 1.7v3c0 .3 0 .4.4.4h.3l.2 1.2-.4.1h-.6c-.4 0-.7 0-1-.2-.2-.1-.3-.4-.4-.7h-.2c-.3.7-1 1-1.8 1Zm.6-1.3c.4 0 .7-.2 1-.4.2-.3.3-.7.3-1.1v-.7h-.1l-.4.2-.7.1c-.4 0-.7.2-.8.3a1 1 0 0 0-.3.7c0 .3.1.5.3.6.2.2.4.3.7.3Zm8.8 1.3c-.9 0-1.5-.4-2-1v.8h-1.8V63H69v3.6h.1c.3-.3.6-.6.9-.7.3-.2.7-.2 1.1-.2.6 0 1 0 1.5.3.4.3.7.7 1 1.2.2.6.3 1.2.3 2s-.1 1.4-.4 2c-.2.5-.5 1-1 1.2-.4.2-.9.4-1.4.4Zm-.5-1.5c.5 0 .9-.2 1.1-.5.3-.3.4-.9.4-1.6 0-.7-.1-1.2-.4-1.6-.2-.3-.6-.5-1.1-.5-.5 0-.9.2-1.2.5-.3.4-.4 1-.4 1.6 0 .7.1 1.2.4 1.6.3.3.7.5 1.2.5Zm0 0"/>
  <path d="M1.6 72.5v-9h3.8c.6 0 1 0 1.5.2a2.2 2.2 0 0 1 1.2 2c0 .3-.2.7-.4 1-.2.3-.4.5-.8.7v.1c.6.2 1 .5 1.3.9.3.4.5.8.5 1.4 0 .9-.3 1.6-.8 2-.5.5-1.3.7-2.3.7ZM5 67.1c.8 0 1.2-.4 1.2-1.2 0-.3 0-.6-.3-.8-.2-.2-.5-.3-1-.3H3.5v2.3Zm.3 4c1 0 1.5-.4 1.5-1.3 0-1-.5-1.4-1.5-1.4h-2v2.7Zm7.1 1.6c-.8 0-1.3-.2-1.7-.7-.4-.4-.6-1-.6-1.8v-4.5H12V70c0 .4 0 .7.2 1l.9.2c.4 0 .8-.2 1-.5.3-.3.5-.8.5-1.4v-3.6h1.7v6.8h-1.7v-1l-.9.9c-.3.2-.7.3-1.2.3Zm5.8-.2v-6.8h1.6v1h.2c.1-.4.3-.6.6-.8.3-.2.6-.3 1-.3s.7 0 .9.2l-.3 1.5h-.5a2 2 0 0 0-.3 0c-.5 0-.9 0-1.2.4-.2.3-.3.9-.3 1.6v3.2Zm6.2-7.6a1 1 0 0 1-.8-.3 1 1 0 0 1-.3-.8c0-.2.1-.5.3-.7.2-.2.5-.3.8-.3.2 0 .4 0 .5.2.2 0 .3.2.4.3l.1.5-.1.6-.4.3-.5.2ZM23 75.4c-.5 0-1 0-1.3-.2l.3-1.3h.7c.5 0 .7-.2.7-.8v-7.4h1.7V73c0 .8-.1 1.4-.5 1.8-.4.4-1 .6-1.6.6Zm15-2.9h-2l-.6-2h-3.5l-.7 2h-1.8l3-9h2.4Zm-4.5-7.2L32.4 69h2.5l-1.2-3.6Zm7.4 7.4c-.6 0-1-.2-1.4-.5-.3-.4-.5-.9-.5-1.6V63h1.7v7.7c0 .4.2.6.5.6h.4l.2 1.3-.4.1H41Zm12.8-.2h-1.9l-.7-2h-3.4l-.7 2h-2l3.1-9h2.4Zm-4.4-7.2L48.1 69h2.5l-1.1-3.6Zm5.5 7.2v-6.8h1.7v1h.1c.2-.4.4-.6.7-.8.2-.2.6-.3 1-.3.3 0 .6 0 .8.2l-.3 1.5h-.4a2 2 0 0 0-.4 0c-.5 0-.8 0-1.1.4-.2.3-.4.9-.4 1.6v3.2Zm7.1.2c-.5 0-.9-.1-1.2-.3-.3-.1-.6-.4-.7-.7a2 2 0 0 1-.3-1.1c0-.4 0-.8.3-1 .1-.3.4-.5.8-.7a4 4 0 0 1 1.4-.4l1-.2.4-.3v-.4l-.1-.5-.8-.2c-.4 0-.7.1-1 .3a3 3 0 0 0-1 .7h-.1l-.7-1.1a4 4 0 0 1 1.2-1 4 4 0 0 1 1.7-.3 3 3 0 0 1 2 .6c.4.4.6 1 .6 1.7v3c0 .3 0 .4.4.4h.3l.2 1.2-.4.1a3 3 0 0 1-.6 0c-.4 0-.7 0-1-.2-.2-.1-.3-.4-.4-.7h-.2c-.3.7-1 1-1.8 1Zm.5-1.3c.4 0 .7-.2 1-.4.2-.3.3-.7.3-1.1v-.7h-.1l-.4.2-.7.1c-.4 0-.7.2-.8.3a1 1 0 0 0-.3.7c0 .3.1.5.3.7l.7.2Zm8.8 1.3c-.9 0-1.5-.4-2-1v.8h-1.8V63H69v3.6h.1c.3-.3.5-.6.9-.7a2 2 0 0 1 1.1-.3c.6 0 1 .2 1.5.4.4.3.7.7 1 1.2.2.6.3 1.2.3 2s-.1 1.4-.4 2c-.2.5-.5 1-1 1.2-.4.2-.9.4-1.4.4Zm-.5-1.5c.5 0 .9-.2 1.1-.5.3-.3.4-.9.4-1.6 0-.7-.1-1.2-.4-1.6-.2-.3-.6-.5-1.1-.5-.5 0-.9.2-1.2.5-.3.4-.4.9-.4 1.6 0 .7.1 1.2.4 1.6.3.3.7.5 1.2.5Zm0 0"/>
</svg>
