<svg xmlns="http://www.w3.org/2000/svg" version="1.0" viewBox="0 0 75 75">
  <defs>
    <clipPath id="a">
      <path d="M28.6 54h18v13.5h-18Zm0 0"/>
    </clipPath>
    <clipPath id="b">
      <path d="M34 66h7v1.5h-7Zm0 0"/>
    </clipPath>
    <clipPath id="c">
      <path d="M29 66h4v1.5h-4Zm0 0"/>
    </clipPath>
    <clipPath id="d">
      <path d="M42 66h4v1.5h-4Zm0 0"/>
    </clipPath>
  </defs>
  <g clip-path="url(#a)">
    <path fill="#81b2b7" d="M46.6 67.3h-18L31.2 54H44l2.7 13.2"/>
  </g>
  <path fill="#81b2b7" d="M31.2 49.2H44L41.8 55h-8.1l-2.5-5.8"/>
  <path fill="#81b2b7" d="M31.2 44.3H44L41.8 50h-8.1l-2.5-5.8"/>
  <path fill="#81b2b7" d="M31.2 39.3H44l-2.2 5.8h-8.1l-2.5-5.8"/>
  <path fill="#81b2b7" d="M31.2 34.4H44l-2.2 5.8h-8.1l-2.5-5.8"/>
  <path fill="#81b2b7" d="M31.2 29.4H44l-2.2 5.8h-8.1l-2.5-5.8"/>
  <path fill="#81b2b7" d="M31.2 24.5H44l-2.2 5.8h-8.1l-2.5-5.8"/>
  <path fill="#81b2b7" d="M31.2 19.6H44l-2.2 5.8h-8.1l-2.5-5.8"/>
  <path fill="#81b2b7" d="M31.2 14.6H44l-2.2 5.8h-8.1l-2.5-5.8"/>
  <path fill="#81b2b7" d="M41.6 15.3h-8v-2h8v2"/>
  <path fill="#81b2b7" d="M38.6 14h-2V7.3h2V14"/>
  <path fill="#81b2b7" d="M40.4 11.2h-5.6l-.6-1.8H41l-.6 1.8"/>
  <path fill="#1b6379" d="M40.4 7.4c0 .3-.5.5-1 .5h-3.6c-.5 0-1-.2-1-.5s.5-.5 1-.5h3.6c.5 0 1 .2 1 .5"/>
  <path fill="#1b6379" d="M38 7.3c0 .2-.1.3-.4.3-.3 0-.5-.1-.5-.3V.5c0-.1.2-.3.5-.3s.5.2.5.3v6.8"/>
  <path fill="#dfdee1" d="M34.5 60.7h6.2v-.5h-6.2Zm9.5-6.1H31l.2-.5h12.9v.5m.1.9H30.9l.2-.5h13v.5m-9.6 6.1h6.2v-.4h-6.2Zm0 .9h6.2v-.4h-6.2Zm0 1h6.2V63h-6.2Zm0 .9h6.2V64h-6.2Zm0 .9h6.2V65h-6.2Zm0 1h6.2v-.5h-6.2Zm0 0"/>
  <g clip-path="url(#b)">
    <path fill="#dfdee1" d="M34.5 67.2h6.2v-.4h-6.2Zm0 0"/>
  </g>
  <path fill="#dfdee1" d="M40.9 55.4c0 1-1.5 1.7-3.3 1.7-1.8 0-3.3-.8-3.3-1.7 0-1 1.5-1.8 3.3-1.8 1.8 0 3.3.8 3.3 1.8"/>
  <path fill="#81b2b7" d="M40.1 55.4c0 .7-1.1 1.3-2.5 1.3s-2.5-.6-2.5-1.3c0-.8 1.1-1.4 2.5-1.4s2.5.6 2.5 1.4"/>
  <path fill="#dfdee1" d="m36.4 49.1.7-.1a5.2 5.2 0 0 1 1.8 0c.2.1.2.3 0 .4l-.7-.1h-1.6c-.2 0-.3 0-.2-.2m0-5 .7-.1H39c.2.2.2.3 0 .4h-.7c-.3-.1-.6-.2-.9-.1h-.7c-.2 0-.3 0-.2-.2m-.1-4.8.7-.1H39c.2.2.2.3 0 .4h-.7c-.3-.1-.6-.2-.9-.1h-.7c-.2 0-.3 0-.2-.2m-.1-4.8.7-.2h1.3l.5.1c.2.1.2.3 0 .3h-2.3c-.2 0-.3-.1-.2-.2m0-4.9.7-.2a5.2 5.2 0 0 1 1.8.2c.2 0 .2.2 0 .2h-2.3c-.2 0-.3-.1-.2-.2m0-4.9.7-.2h1.3c.1 0 .4 0 .5.2.2 0 .2.2 0 .2h-2.3c-.2 0-.3-.1-.2-.2m0-5.1.7-.2h1.3c.1 0 .4 0 .5.2.2 0 .2.2 0 .2h-2.3c-.2 0-.3-.1-.2-.2"/>
  <path fill="#1b6379" d="M32.8 15.4h1.5v-.3h-1.5Zm2.1 0h1.4v-.3H35Zm2.1 0h1.4v-.3H37Zm2 0h1.5v-.3h-1.4Zm2.1 0h1.5v-.3h-1.5Zm-8.3 1.2h1.5v-.4h-1.5Zm2.1 0h1.4v-.4H35Zm2.1 0h1.4v-.4H37Zm2 0h1.5v-.4h-1.4Zm2.1 0h1.5v-.4h-1.5Zm-8.3 1h1.5v-.4h-1.5Zm2.1 0h1.4v-.4H35Zm2.1 0h1.4v-.4H37Zm2 0h1.5v-.4h-1.4Zm2.1 0h1.5v-.4h-1.5Zm-7.8 1.1h1v-.4h-1Zm1.6 0h1.4v-.4H35Zm2.1 0h1.4v-.4H37Zm2 0h1.5v-.4h-1.4Zm2.1 0h1v-.4h-1Zm-8.3 2.1h1.5v-.4h-1.5Zm2.1 0h1.4v-.4H35Zm2.1 0h1.4v-.4H37Zm2 0h1.5v-.4h-1.4Zm2.1 0h1.5v-.4h-1.5Zm-8.3 1.1h1.5v-.4h-1.5Zm2.1 0h1.4v-.4H35Zm2.1 0h1.4v-.4H37Zm2 0h1.5v-.4h-1.4Zm2.1 0h1.5v-.4h-1.5ZM33 23h1.4v-.4H33Zm2 0h1.4v-.4H35Zm2 0h1.4v-.4H37Zm2 0h1.4v-.4H39Zm2 0h1.4v-.4H41Zm-7.7 1h1v-.3h-1Zm1.6 0h1.4v-.3H35Zm2.1 0h1.4v-.3H37Zm2 0h1.5v-.3h-1.4Zm2.1 0h1v-.3h-1Zm-8.3 1.4h1.5v-.3h-1.5Zm2.1 0h1.4v-.3H35Zm2.1 0h1.4v-.3H37Zm2 0h1.5v-.3h-1.4Zm2.1 0h1.5v-.3h-1.5Zm-8.3 1.2h1.5v-.4h-1.5Zm2.1 0h1.4v-.4H35Zm2.1 0h1.4v-.4H37Zm2 0h1.5v-.4h-1.4Zm2.1 0h1.5v-.4h-1.5Zm-8.1 1h1.4v-.4H33Zm2 0h1.4v-.4H35Zm2 0h1.4v-.4H37Zm2 0h1.4v-.4H39Zm2 0h1.4v-.4H41Zm-7.7 1.1h1v-.4h-1Zm1.6 0h1.4v-.4H35Zm2.1 0h1.4v-.4H37Zm2 0h1.5v-.4h-1.4Zm2.1 0h1v-.4h-1Zm-6.8 1.9h-1.5v-.3h1.5v.3m.6 0h1.4v-.3H35Zm2.1 0h1.4v-.3H37Zm2 0h1.5v-.3h-1.4Zm3.6 0h-1.5v-.3h1.5v.3m-9.8 1.2h1.5v-.4h-1.5Zm2.1 0h1.4v-.4H35Zm2.1 0h1.4v-.4H37Zm2 0h1.5v-.4h-1.4Zm3.6 0h-1.5v-.4h1.5v.4m-8.2 1H33v-.4h1.4v.4m2 0H35v-.4h1.4v.4m.6 0h1.4v-.4H37Zm2 0h1.4v-.4H39Zm2 0h1.4v-.4H41Zm-7.7 1.1h1v-.4h-1Zm1.6 0h1.4v-.4H35Zm2.1 0h1.4v-.4H37Zm2 0h1.5v-.4h-1.4Zm3 0h-.9v-.4h1v.4m-7.8 1.5h-1.5V35h1.5v.4m2 0H35V35h1.4v.4m2 0H37V35h1.4v.4m2.1 0h-1.4V35h1.4v.4m2.1 0h-1.5V35h1.5v.4m-8.3 1.1h-1.5v-.4h1.5v.4m.6 0h1.4v-.4H35Zm2.1 0h1.4v-.4H37Zm2 0h1.5v-.4h-1.4Zm2.1 0h1.5v-.4h-1.5Zm-6.7 1H33v-.3h1.4v.3m.6 0h1.4v-.3H35Zm2 0h1.4v-.3H37Zm2 0h1.4v-.3H39Zm3.4 0H41v-.3h1.4v.3m-9.1 1.1h1v-.3h-1Zm3 0H35v-.3h1.4v.3m.6 0h1.4v-.3H37Zm2 0h1.5v-.3h-1.4Zm3 0h-.9v-.3h1v.3m-7.8 1.6h-1.5v-.4h1.5v.4m2 0H35v-.4h1.4v.4m2 0H37v-.4h1.4v.4m2.1 0h-1.4v-.4h1.4v.4m2.1 0h-1.5v-.4h1.5v.4m-9.8 1.1h1.5v-.4h-1.5Zm3.5 0H35v-.4h1.4v.4m.6 0h1.4v-.4H37Zm2 0h1.5v-.4h-1.4Zm3.6 0h-1.5v-.4h1.5v.4m-9.6 1h1.4V42H33Zm3.4 0H35V42h1.4v.3m.6 0h1.4V42H37Zm2 0h1.4V42H39Zm3.4 0H41V42h1.4v.3m-8.1 1.1h-1v-.3h1v.3m2 0H35v-.3h1.4v.3m.6 0h1.4v-.3H37Zm2 0h1.5v-.3h-1.4Zm3 0h-.9v-.3h1v.3m-7.8 1.9h-1.5v-.4h1.5v.4m2 0H35v-.4h1.4v.4m2 0H37v-.4h1.4v.4m2.1 0h-1.4v-.4h1.4v.4m2.1 0h-1.5v-.4h1.5v.4m-8.3 1.1h-1.5v-.3h1.5v.3m.6 0h1.4v-.3H35Zm2.1 0h1.4v-.3H37Zm2 0h1.5v-.3h-1.4Zm0 0"/>
  <path fill="#1f4865" d="M42.6 46.4h-1.5v-.3h1.5v.3"/>
  <path fill="#1b6379" d="M34.4 47.4H33v-.3h1.4v.3m2 0H35v-.3h1.4v.3m.6 0h1.4v-.3H37Zm2 0h1.4v-.3H39Zm3.4 0H41v-.3h1.4v.3m-8.1 1.1h-1v-.3h1v.3m.6 0h1.4v-.3H35Zm2.1 0h1.4v-.3H37Zm2 0h1.5v-.3h-1.4Zm2.1 0h1v-.3h-1Zm-6.8 1.7h-1.5v-.4h1.5v.4m2 0H35v-.4h1.4v.4m2 0H37v-.4h1.4v.4m2.1 0h-1.4v-.4h1.4v.4m2.1 0h-1.5v-.4h1.5v.4m-9.8 1.1h1.5V51h-1.5Zm3.5 0H35V51h1.4v.4m.6-.1h1.4V51H37Zm2 0h1.5V51h-1.4Zm3.6 0h-1.5V51h1.5v.4m-8.2.9H33V52h1.4v.3m2 0H35V52h1.4v.3m.6 0h1.4V52H37Zm2 0h1.4V52H39Zm3.4 0H41V52h1.4v.3m-8.1 1.1h-1v-.3h1v.3m2 0H35v-.3h1.4v.3m.6 0h1.4v-.3H37Zm2 0h1.5v-.3h-1.4Zm3 0h-.9v-.3h1v.3"/>
  <g clip-path="url(#c)">
    <path fill="#1b6379" d="M29.6 67.3H33v-.5h-3.3Zm0 0"/>
  </g>
  <path fill="#1b6379" d="M29.6 66.6H33v-.4h-3.3Zm0-.6H33v-.5h-3.3Zm0-.7H33v-.5h-3.3Zm0-.7H33v-.4h-3.3Zm0-.6H33v-.5h-3.3Zm0-.7H33V63h-3.3Zm.2-.7h3.1v-.4h-3.1Zm.3-.6H33v-.4h-2.8Zm.3-.7h2.5V61h-2.5Zm.2-.6H33v-.5h-2.3Zm.4-.7h1.9v-.4h-2Zm0 0"/>
  <g clip-path="url(#d)">
    <path fill="#1b6379" d="M42.2 67.3h3.3v-.5h-3.3Zm0 0"/>
  </g>
  <path fill="#1b6379" d="M42.2 66.6h3.3v-.4h-3.3Zm0-.6h3.3v-.5h-3.3Zm0-.7h3.3v-.5h-3.3Zm0-.7h3.3v-.4h-3.3Zm0-.6h3.3v-.5h-3.3Zm0-.7h3.3V63h-3.3Zm0-.7h3v-.4h-3Zm0-.6h2.7v-.4h-2.7Zm0-.7h2.5V61h-2.5Zm0-.6h2.2v-.5h-2.2Zm0-.7h2v-.4h-2Zm0 0"/>
  <path fill="#1f4865" d="M33.5 60h8-8Zm-.3-.5h8.2v-.1h-8.2Zm.9-45h7.2v-.1H34Zm0 0"/>
  <path fill="none" stroke="#fff" stroke-width="2.8" d="M17.1 64.4v1.3h-2.2V72h-1.5v-6.4h-2.2v-1.3Zm2.5 7.8c-.4 0-.7 0-1-.2l-.6-.6c-.2-.3-.3-.6-.3-1 0-.3.1-.6.3-.8.1-.3.3-.5.6-.6l1.2-.4.8-.1.4-.3V68l-.1-.4-.6-.1a2 2 0 0 0-1 .2l-.7.5h-.1l-.6-.9a3 3 0 0 1 1-.7l1.4-.3c.8 0 1.3.1 1.7.5.3.3.5.8.5 1.4v2.5c0 .2.1.3.3.3h.3l.2 1-.4.2a2 2 0 0 1-.4 0c-.4 0-.7 0-.8-.2a1 1 0 0 1-.5-.6c-.4.6-.9.9-1.6.9ZM20 71c.3 0 .6-.1.8-.3.2-.3.3-.6.3-1v-.6l-.4.2-.6.1c-.4 0-.6.2-.7.3-.2.1-.2.3-.2.5 0 .3 0 .5.2.6l.6.2Zm5-5.5c-.3 0-.5 0-.7-.2a.8.8 0 0 1-.3-.6c0-.3.1-.5.3-.7l.6-.2.5.1.3.3.1.5v.4l-.4.3a1 1 0 0 1-.5.1Zm-.8 6.5v-5.8h1.5V72Zm3.1 2.3v-8.1h1.5v.8l.8-.7 1-.2 1.2.3c.3.2.6.6.8 1 .2.5.3 1 .3 1.7a4 4 0 0 1-.3 1.6 2.2 2.2 0 0 1-2.1 1.4c-.4 0-.7 0-1-.2l-.6-.6h-.1v3Zm2.8-3.5c.4 0 .7-.1 1-.4.2-.3.3-.7.3-1.3 0-.6-.1-1-.4-1.4-.2-.2-.5-.4-1-.4-.3 0-.7.2-.9.5-.2.2-.4.7-.4 1.3 0 .6.2 1 .4 1.3.2.3.6.4 1 .4Zm9-1.4h-3.7c0 .5.2.9.4 1.1.2.2.6.3 1 .3l.8-.1.5-.6h.1l1 .6c-.2.4-.5.7-.9 1a3.3 3.3 0 0 1-3 0c-.5-.2-.8-.5-1-1-.3-.4-.4-1-.4-1.6 0-.7.1-1.2.4-1.7.2-.4.6-.8 1-1a3 3 0 0 1 1.4-.3c.8 0 1.4.2 1.9.6.4.5.6 1.1.6 2v.6Zm-1.3-1c0-.4 0-.7-.3-.9-.2-.2-.4-.3-.8-.3-.7 0-1.2.4-1.3 1.3Zm3.4-2.9c-.3 0-.5 0-.6-.2a.8.8 0 0 1-.3-.6c0-.3 0-.5.3-.7l.6-.2.5.1.3.3v.9l-.3.3a1 1 0 0 1-.5.1Zm-.7 6.5v-5.8h1.4V72Zm5.2 0v-1.3h1.8V66h-.1a4.7 4.7 0 0 1-1.6.4v-1.3a6 6 0 0 0 2-.8H49v6.4h1.7V72Zm9 0c-.7 0-1.2 0-1.7-.3-.4-.3-.8-.7-1-1.3-.3-.6-.4-1.4-.4-2.3 0-.9 0-1.6.3-2.2.3-.6.7-1 1.1-1.3a3 3 0 0 1 1.6-.4 3 3 0 0 1 1.7.4c.4.3.8.7 1 1.3.3.6.4 1.3.4 2.2 0 1 0 1.7-.3 2.3-.3.6-.7 1-1.1 1.3-.5.2-1 .4-1.7.4Zm0-1.2c.3 0 .6 0 .8-.3.2-.1.4-.4.5-.8.2-.4.2-.9.2-1.6 0-.6 0-1.1-.2-1.5 0-.4-.3-.7-.5-.9l-.9-.2c-.3 0-.6 0-.8.2a2 2 0 0 0-.5.9c-.2.4-.2.9-.2 1.5 0 .7 0 1.2.2 1.6 0 .4.3.7.5.8.2.2.5.3.8.3Zm4 1.2v-1.3h2V66h-.2a4.6 4.6 0 0 1-1.6.4v-1.3a6 6 0 0 0 2-.8h1.2v6.4h1.7V72Zm0 0"/>
  <path d="M17 64.4v1.3h-2V72h-1.5v-6.4h-2.2v-1.3Zm2.6 7.8-1-.2-.6-.6a2 2 0 0 1-.3-1c0-.3.1-.6.3-.8.1-.3.3-.5.6-.6.3-.2.7-.3 1.2-.3l.8-.2.4-.2v-.4l-.1-.4-.6-.1a2.4 2.4 0 0 0-1.7.8h-.1l-.6-1c.3-.3.6-.6 1-.7l1.4-.3c.8 0 1.3.2 1.7.5.3.3.5.8.5 1.3v2.6c0 .2.1.3.3.3h.3l.2 1-.4.2h-.4c-.4 0-.7 0-.9-.2l-.4-.6c-.4.6-.9.9-1.6.9ZM20 71c.3 0 .6-.1.8-.3.2-.3.3-.6.3-1v-.6H21l-.3.2-.6.1c-.4 0-.6.2-.7.3-.2.1-.2.3-.2.5 0 .3 0 .5.2.6l.6.2Zm5-5.4c-.3 0-.6 0-.7-.2a.9.9 0 0 1-.3-.6c0-.3.1-.5.3-.6.1-.2.4-.3.6-.3l.5.1.3.3.1.5a.8.8 0 0 1-.9.8Zm-.8 6.5v-5.8h1.5v5.8Zm3.1 2.3v-8.1h1.5v.7l.7-.6 1-.2c.5 0 1 .1 1.3.3.3.2.6.6.8 1 .2.5.3 1 .3 1.7a4 4 0 0 1-.3 1.6 2.1 2.1 0 0 1-2.1 1.4c-.4 0-.7 0-1-.2-.2-.1-.5-.3-.6-.6h-.1v3Zm2.8-3.5c.4 0 .7-.1 1-.4.2-.3.3-.7.3-1.3 0-.6-.1-1-.4-1.4-.2-.2-.5-.4-1-.4-.3 0-.7.2-1 .5-.1.3-.3.7-.3 1.3 0 .6.2 1 .4 1.3.2.3.6.4 1 .4Zm8.9-1.4h-3.6c0 .5.1.9.4 1.1.2.2.6.3 1 .3l.8-.1c.2-.2.4-.3.5-.6h.1l1 .6c-.2.4-.5.7-.9 1a3.4 3.4 0 0 1-3 0c-.5-.2-.8-.5-1-1-.3-.4-.4-1-.4-1.6 0-.7.1-1.2.4-1.7.2-.4.6-.7 1-1a3 3 0 0 1 1.4-.3c.8 0 1.4.2 1.9.6.4.5.6 1.1.6 2v.6Zm-1.2-1c0-.4 0-.7-.3-.9-.2-.2-.4-.3-.8-.3-.7 0-1.2.4-1.3 1.3Zm3.4-2.9c-.3 0-.5 0-.6-.2a.9.9 0 0 1-.3-.6c0-.3 0-.5.3-.6.1-.2.3-.3.6-.3l.5.1.3.3.1.5a.8.8 0 0 1-1 .8Zm-.7 6.5v-5.8h1.4v5.8Zm5.2-.1v-1.2h1.8v-4.7h-.1a4.8 4.8 0 0 1-1.6.4v-1.3a6 6 0 0 0 2-.8H49v6.4h1.7v1.3Zm8.9.2c-.6 0-1.1-.2-1.6-.4-.5-.3-.8-.7-1-1.3a5.7 5.7 0 0 1 0-4.4c.2-.7.5-1 1-1.4.5-.2 1-.4 1.6-.4a3 3 0 0 1 1.7.4c.4.3.8.7 1 1.3.3.6.4 1.4.4 2.3a5 5 0 0 1-.4 2.2c-.2.6-.6 1-1 1.3-.5.2-1 .4-1.7.4Zm0-1.3c.4 0 .7 0 .9-.3.2-.1.4-.4.5-.8l.2-1.5c0-.7 0-1.2-.2-1.6a2 2 0 0 0-.5-.9l-.9-.2c-.3 0-.6 0-.8.2a2 2 0 0 0-.5.9c-.2.4-.2.9-.2 1.6 0 .6 0 1.1.2 1.5 0 .4.3.7.5.8.2.2.5.3.8.3Zm4.2 1.1v-1.2h1.8v-4.7h-.1a4.8 4.8 0 0 1-1.6.4v-1.3a6 6 0 0 0 2-.8h1.2v6.4h1.7v1.3Zm0 0"/>
</svg>
