<svg width="100" height="100" viewBox="0 0 100 100" fill="none" xmlns="http://www.w3.org/2000/svg">
<g clip-path="url(#clip0_499_2865)">
<path d="M60.6589 96.2741H33.5719L32.3859 92.2424C32.7317 91.2939 32.5282 90.2367 31.8642 89.4846L31.4373 89.0037L31.5727 88.5563C32.0403 87.0657 31.6675 85.4461 30.6036 84.3079C31.3897 82.8714 31.2136 81.0958 30.1564 79.8425L30.0684 79.7339C31.0034 78.4398 31.0645 76.7118 30.2242 75.3499L30.0684 75.0992C30.9561 73.9542 31.1863 72.4294 30.6849 71.0742L30.4952 70.5728C31.3965 69.3465 31.5186 67.7134 30.807 66.3717L30.7459 66.2566L30.9424 66.0194C31.9657 64.7861 32.1759 63.0651 31.4778 61.6219C32.5485 60.7884 33.0705 59.4265 32.84 58.0916L32.6774 57.1428C33.8226 56.2823 34.3716 54.8458 34.0936 53.4431L33.9852 52.8876C35.0832 51.9931 35.6727 50.6177 35.5644 49.2082L35.5303 48.7271L35.7948 48.4493C36.7977 47.4127 37.3059 46.0032 37.1908 44.5667C38.4717 43.8011 39.1627 42.3373 38.9323 40.8671L38.912 40.7247L41.8328 34.1926L43.5678 33.9759L51.8625 34.9855L55.3393 35.0193L55.6646 20.092L58.1582 16.8867L58.7885 35.0601L59.6831 35.0668L60.6589 96.2741Z" fill="#EAEAEA"/>
<path d="M47.3161 96.2744H37.1373L36.9814 95.6782L36.9611 95.5968C36.7577 94.8042 36.568 94.0045 36.3919 93.205L36.2495 92.6155H36.263C36.0936 91.8158 35.931 91.0164 35.7886 90.21C35.6532 89.4578 35.5244 88.6989 35.4093 87.9333C35.3007 87.2284 35.1991 86.5238 35.111 85.8124C35.0162 85.0738 34.9349 84.3352 34.8603 83.5898C34.7925 82.9257 34.7314 82.2616 34.6841 81.5976C34.6163 80.7168 34.562 79.8358 34.5215 78.9551C34.4875 78.2367 34.4604 77.5186 34.4469 76.8002C34.4267 76.0143 34.4199 75.2216 34.4199 74.4354C34.4199 73.7646 34.4334 73.1005 34.4469 72.4297C34.4672 71.7048 34.4875 70.9797 34.5283 70.2546C34.562 69.4957 34.6096 68.7435 34.6639 67.9846C34.7247 67.1444 34.7925 66.3042 34.8806 65.4707C34.9484 64.7931 35.0229 64.1156 35.1043 63.438C35.1856 62.7401 35.2804 62.049 35.3752 61.358C35.4838 60.5853 35.6057 59.8129 35.7346 59.0472C35.8632 58.2951 35.992 57.5497 36.1344 56.7975C36.2768 56.0589 36.4256 55.3138 36.5883 54.5819C36.7442 53.85 36.9136 53.1181 37.09 52.3932C37.2594 51.6884 37.4355 50.9838 37.6252 50.2792C37.8219 49.5338 38.025 48.7952 38.242 48.0565L37.8759 48.1378L38.242 48.0498C38.4384 47.3654 38.6486 46.6811 38.8655 46.0035C39.0957 45.2851 39.3262 44.567 39.5701 43.8554L39.4142 43.8827L40.2004 41.7076L40.3428 41.6803C40.5935 41.0095 40.8442 40.3386 41.1085 39.6748L41.0136 39.6951L41.949 37.5335L41.9962 37.5267C42.5047 36.3342 43.0399 35.1552 43.5956 33.9897L46.293 33.2578L55.5433 34.4166L58.1863 34.7146V34.7486L47.3161 96.2744Z" fill="#5F9FB4"/>
<path d="M65.0308 37.4858C64.306 37.6349 63.5198 37.6892 62.4286 37.6892C61.812 37.6892 61.2223 37.6622 60.7006 37.6079L61.5748 96.2742H45.7168L54.2152 34.2402L57.4137 34.5858L57.4545 53.6872L58.4031 36.8963C58.3963 36.876 58.3896 36.849 58.3896 36.8287C58.3896 36.7812 58.4101 36.7339 58.4439 36.6863L58.7962 34.884C59.5486 34.9651 60.1718 35.426 60.4836 36.0698C61.0596 36.002 61.7307 35.9612 62.4353 35.9612C63.4384 35.9612 64.3532 36.0358 65.0581 36.1646C65.0784 36.5983 64.97 37.0589 65.0308 37.4858Z" fill="#065E75"/>
<path d="M43.0735 34.7744L43.0803 34.7609C43.053 34.8152 43.0462 34.8287 43.0735 34.7744ZM39.3393 34.4831C41.5146 34.4831 43.2834 34.1238 43.2834 33.6834C43.2834 33.243 41.5146 32.884 39.3393 32.884C37.1639 32.884 35.3954 33.243 35.3954 33.6834C35.3954 34.1238 37.1639 34.4831 39.3393 34.4831ZM48.3934 33.3989C48.1562 33.9476 47.9325 34.5034 47.7088 35.0591L57.4405 36.2719L57.4065 36.6445L47.5732 35.4047C47.3767 35.8993 47.1871 36.3937 46.9972 36.8952L57.2573 38.1285L57.2168 38.4808L46.8686 37.234C46.6449 37.8305 46.4347 38.4335 46.2248 39.0365L57.5623 40.6492L57.5148 41.0015L46.1026 39.3753C45.8995 39.9648 45.7095 40.5543 45.5199 41.1506L57.4472 42.77L57.3997 43.1225L45.4183 41.4961C45.2351 42.0721 45.059 42.6549 44.8896 43.2376L57.3454 44.8638L57.2981 45.2161L44.788 43.5832C44.6186 44.1592 44.4627 44.7419 44.3068 45.3247L57.5623 46.9984L57.5148 47.3507L44.212 45.6702C44.0561 46.253 43.9137 46.8357 43.7714 47.4185L57.2573 49.0854L57.2168 49.4377L43.69 47.7708C43.5547 48.3468 43.4191 48.9295 43.2902 49.5123L57.1965 51.2943L57.149 51.6466L43.2089 49.8578C43.0668 50.5219 42.9244 51.1927 42.7955 51.8565L57.1082 53.327L56.9661 53.6523L42.7345 52.2091C42.6261 52.7851 42.5178 53.3608 42.4162 53.9368L57.1895 55.3665L57.1557 55.7188L42.3551 54.2891C42.2536 54.8991 42.1517 55.5022 42.0569 56.1119L56.9661 57.4876V57.9077L42.0026 56.478C41.901 57.1351 41.8062 57.7991 41.7248 58.4564L56.9253 59.6557L56.844 60.0556L41.684 58.8155C41.6097 59.3915 41.5419 59.9607 41.4741 60.5367L56.844 61.763L56.9253 62.1561L41.4333 60.8958C41.3658 61.4853 41.3047 62.0748 41.2504 62.6711L56.844 64.033L56.8102 64.3855L41.2167 63.0166C41.1624 63.6061 41.108 64.1956 41.0675 64.7784L56.5797 66.2013L56.5457 66.5536L41.0402 65.1377C40.9862 65.8355 40.9454 66.5401 40.9049 67.2382L56.5457 68.4308L56.5187 68.7831L40.8846 67.5973C40.8506 68.1868 40.8236 68.7831 40.7963 69.3726L56.5797 70.5718L56.5527 70.9241L40.776 69.7249C40.749 70.3279 40.7287 70.9312 40.715 71.5274C40.715 71.6223 40.7082 71.7103 40.7082 71.8052L56.4374 72.9977L56.4103 73.35L40.7014 72.1642C40.6879 72.6792 40.6812 73.1941 40.6744 73.7023L56.4441 74.9018L56.4171 75.2541L40.6677 74.0616C40.6609 74.7119 40.6609 75.3625 40.6609 76.0198L56.4374 77.219L56.4103 77.5716L40.6609 76.3788C40.6677 77.0361 40.6744 77.6935 40.6879 78.3575L56.1934 79.5365L56.1664 79.8888L40.7014 78.7098C40.715 79.4282 40.7422 80.1463 40.7625 80.8647L56.0716 81.4407L56.0578 81.7997L40.776 81.2237C40.7963 81.7997 40.8236 82.3825 40.8506 82.9585L56.1934 83.575L56.1799 83.9341L40.8708 83.3175C40.8914 83.7512 40.9116 84.1915 40.9387 84.6254C40.9522 84.8421 40.9659 85.059 40.9794 85.2757L56.1934 85.8382V86.2583L41.0065 85.6418C41.0402 86.1973 41.081 86.753 41.1286 87.3017L55.9359 87.8709L55.9224 88.23L41.1556 87.661C41.2167 88.3791 41.2774 89.0908 41.3385 89.8089L55.9292 90.1071L55.9224 90.4662L41.3725 90.1679C41.4063 90.5 41.4333 90.832 41.4674 91.164C41.5079 91.5774 41.5487 91.9772 41.5892 92.3771L55.8138 92.6683L55.8071 93.0276L41.63 92.7361C41.7586 93.9151 42.3619 95.1009 42.5245 96.3342C42.145 96.314 41.2912 96.3002 40.9116 96.2867C40.6812 95.0604 40.4848 93.9016 40.2948 92.7024L39.1496 92.6818C39.2107 93.0344 39.2717 93.3867 39.3325 93.739L39.8137 96.3477L39.4614 96.4155L38.9802 93.8068C38.9124 93.4272 38.8446 93.0547 38.7838 92.6751L38.2143 92.6616C37.8485 92.6143 37.4894 92.6413 37.1301 92.7294L37.1098 92.7361L34.5957 93.0206L34.5549 92.6683L37.0555 92.3838C37.4486 92.289 37.8485 92.2617 38.2483 92.3093L38.716 92.316C38.5871 91.5706 38.4653 90.8387 38.3499 90.1004H38.3296C37.9636 90.0528 37.6045 90.0798 37.2455 90.1682L37.2182 90.1749L34.5821 90.4594L34.5414 90.1071L37.1641 89.8224C37.5299 89.7275 37.9095 89.7073 38.2821 89.7411C38.167 89.0027 38.0654 88.264 37.9636 87.5322C37.6315 87.5051 37.313 87.5322 37.0012 87.6067L34.3652 88.2708L34.2771 87.9253L36.9132 87.2612C37.2455 87.1799 37.5775 87.1461 37.9163 87.1664C37.8417 86.6039 37.7739 86.0484 37.7061 85.4994C37.4689 85.4994 37.2317 85.5264 37.0012 85.5875L34.3652 86.2516L34.2771 85.906L36.9132 85.242C37.1641 85.1809 37.4149 85.1471 37.6656 85.1471C37.591 84.4898 37.5164 83.8325 37.4554 83.1752C37.2114 83.1752 36.9742 83.2025 36.737 83.2632L34.101 83.9273L34.0126 83.5818L36.6489 82.9177C36.8996 82.8569 37.1571 82.8229 37.4216 82.8229C37.3673 82.2469 37.313 81.6709 37.2725 81.1019C37.0896 81.1154 36.9132 81.1424 36.7438 81.1832L34.1077 81.8473L34.0197 81.5015L36.6557 80.8377C36.8524 80.7901 37.0488 80.7564 37.2455 80.7426C37.1912 79.9904 37.1369 79.2453 37.0963 78.4999C36.9742 78.5134 36.8591 78.5337 36.737 78.5675L34.101 79.2315L34.0126 78.886L36.6489 78.2219C36.7913 78.1881 36.9337 78.1611 37.0758 78.1476C37.042 77.5106 37.015 76.8803 36.9945 76.2502C36.9877 76.2502 36.981 76.2502 36.9742 76.257L34.2026 76.9481L34.155 76.616L36.8929 75.9114C36.9269 75.9047 36.9607 75.8979 36.9877 75.8912C36.9675 75.2406 36.9539 74.5968 36.9472 73.9533L34.0197 74.7054L34.0737 74.3123L36.8929 73.6007C36.9132 73.5939 36.9269 73.5939 36.9472 73.5872C36.9472 73.0722 36.9472 72.5641 36.9539 72.0491L34.0534 72.8013L33.9043 72.4827L36.8929 71.6968C36.9132 71.6901 36.9337 71.6901 36.9539 71.6833C36.9607 70.9987 36.981 70.3211 37.0012 69.6435L34.1483 70.4635L34.0467 70.118L37.0083 69.2642C37.0285 68.6612 37.0623 68.065 37.0963 67.4684L34.3244 68.2003L34.3517 67.7937L37.0285 67.1229C37.0623 67.1161 37.0963 67.1094 37.1301 67.1026C37.1709 66.4048 37.2249 65.7137 37.286 65.0223L34.2228 65.761L34.1415 65.4154L37.3198 64.6498C37.3741 64.0805 37.4284 63.518 37.4894 62.9558L34.487 63.8028L34.3922 63.4572L37.5367 62.5695C37.557 62.4068 37.5707 62.2442 37.591 62.0816C37.6383 61.682 37.6926 61.2754 37.7469 60.8755L34.7988 61.6209L34.7107 61.2754L37.8009 60.4959C37.8822 59.8929 37.9773 59.2967 38.0722 58.6937L34.9817 59.4796L34.8937 59.134L38.0111 58.3414C38.0516 58.3278 38.0924 58.3211 38.14 58.3143C38.2483 57.6773 38.3567 57.0402 38.4788 56.4102L35.4629 57.1488L35.3748 56.8033L38.5466 56.0306C38.6617 55.4411 38.7838 54.8448 38.9056 54.2553L36.1813 54.9262L36.0932 54.5806L38.9802 53.8693C38.9802 53.8693 38.9802 53.8693 38.987 53.8693C39.1158 53.2865 39.2512 52.7038 39.3868 52.121L36.6219 52.7173L36.5473 52.3717L39.4816 51.7414C39.4816 51.7414 39.4816 51.7414 39.4884 51.7414C39.6443 51.1182 39.8002 50.4946 39.9696 49.8713L37.1776 50.6302L37.0825 50.2847L40.0782 49.4445C40.2408 48.855 40.4102 48.2587 40.5796 47.6692L37.5978 48.4008L37.5097 48.0553L40.6947 47.2693C40.8641 46.7001 41.0402 46.1376 41.2234 45.5686L38.3975 46.307L38.6955 45.8464L41.3317 45.1823C41.3385 45.1823 41.3385 45.1823 41.3453 45.1823C41.5352 44.6063 41.7248 44.0303 41.928 43.4546L39.1564 44.1592L39.2785 43.7526L41.9145 43.0885C41.962 43.075 42.0164 43.0682 42.0636 43.0547C42.2671 42.4787 42.4702 41.9095 42.6872 41.3335C42.6804 41.3335 42.6669 41.3335 42.6602 41.3402L40.0239 42.0043L39.9358 41.6588L42.5718 40.9947C42.6602 40.9744 42.7482 40.9542 42.8363 40.9407C43.0462 40.3849 43.2564 39.8359 43.4801 39.2805L40.8573 39.9446L40.8981 39.565L43.5342 38.9009C43.5682 38.8941 43.6087 38.8874 43.6428 38.8806C43.8662 38.3249 44.0966 37.7627 44.3338 37.207L41.63 37.898L41.8197 37.4779L44.456 36.8141C44.4762 36.8071 44.4897 36.8071 44.51 36.8003C44.7269 36.2854 44.9506 35.7705 45.1811 35.2488C45.12 35.2623 45.0522 35.269 44.9912 35.2893L42.3551 35.9534L42.2671 35.6078L44.9031 34.9438C45.0522 34.9032 45.2014 34.883 45.3505 34.8692C45.5537 34.4221 45.7571 33.9749 45.9603 33.5208L43.5004 33.9884C43.7849 33.46 44.0764 32.938 44.3746 32.4231C44.9709 31.3865 45.5809 30.3633 46.218 29.3605C47.4918 27.348 48.8473 25.3898 50.3178 23.5127C51.0497 22.5709 51.8156 21.6629 52.6153 20.7821C53.4082 19.8943 54.2417 19.0474 55.116 18.2409C55.4818 17.8954 57.5218 15.8694 58.1586 15.2393L58.2537 0L59.3244 1.87037V14.582C59.453 14.4464 59.5886 14.3111 59.7175 14.1754C59.7445 14.3448 59.7512 14.5277 59.758 14.7106C59.7107 14.7649 59.6699 14.8192 59.6226 14.8733C59.6699 14.8463 59.7107 14.8192 59.758 14.7919C59.758 14.853 59.7647 14.9073 59.7647 14.9681C59.5683 15.1105 59.3717 15.2529 59.182 15.402C57.508 17.4753 55.9292 19.6301 54.5059 21.873L54.0588 22.5574C53.9097 22.7878 53.774 23.0248 53.6317 23.2552L52.7847 24.6512C52.2492 25.5997 51.7002 26.5415 51.2056 27.5106C50.6906 28.4659 50.2162 29.4485 49.7283 30.4241C49.2812 31.4135 48.8067 32.3893 48.3934 33.3989ZM38.9191 55.929C39.2309 55.8747 39.5494 55.868 39.868 55.9088L39.9358 55.9155C40.0306 55.3193 40.1254 54.7162 40.2341 54.1197C39.7664 54.1062 39.5019 54.1197 39.2852 54.1538C39.1564 54.7433 39.0345 55.3395 38.9191 55.929ZM38.5058 58.2465C38.743 58.226 38.9802 58.226 39.2242 58.2533L39.597 58.2803C39.597 58.2668 39.6038 58.2465 39.6038 58.2327C39.6918 57.5757 39.7867 56.9184 39.8882 56.2678L39.8342 56.2611C39.5019 56.2203 39.1766 56.234 38.8513 56.3083C38.7295 56.9522 38.6141 57.6027 38.5058 58.2465ZM38.1738 60.3944C38.5193 60.3265 38.8719 60.3063 39.2242 60.3538L39.353 60.3606C39.4138 59.7846 39.4816 59.2086 39.5562 58.6326L39.1904 58.6056C38.9394 58.5715 38.6955 58.5783 38.4515 58.6056C38.3499 59.2086 38.2551 59.7981 38.1738 60.3944ZM37.9095 62.4747C38.2281 62.4203 38.5466 62.4136 38.8651 62.4544L39.1361 62.4814C39.1904 61.8919 39.2512 61.3091 39.3122 60.7196L39.1836 60.7061C38.8243 60.6586 38.4653 60.6859 38.1195 60.7672C38.0587 61.2143 37.9976 61.6614 37.9433 62.1088C37.9298 62.2307 37.923 62.3525 37.9095 62.4747ZM37.6926 64.5617C37.9773 64.5209 38.2686 64.5141 38.5601 64.5549L38.9599 64.5887C39.0005 63.9992 39.048 63.4165 39.1021 62.8337L38.8243 62.8067C38.499 62.7659 38.1805 62.7794 37.8687 62.8472C37.8009 63.4165 37.7469 63.9925 37.6926 64.5617ZM37.4962 67.0348C37.7469 67.0078 37.9976 67.0078 38.2483 67.0416L38.8176 67.0824C38.8513 66.3707 38.8921 65.6594 38.9327 64.9478L38.5193 64.9072C38.2281 64.8732 37.9365 64.88 37.6521 64.9275C37.5978 65.6253 37.5435 66.3302 37.4962 67.0348ZM37.3876 69.1829C37.6723 69.1421 37.9636 69.1354 38.2551 69.1762L38.7362 69.2099C38.7565 68.6204 38.7768 68.0242 38.8041 67.4347L38.2213 67.3871C37.9703 67.3533 37.7264 67.3601 37.4824 67.3871C37.4419 67.9904 37.4081 68.5867 37.3876 69.1829ZM37.3198 71.6087C37.5843 71.5747 37.8485 71.5747 38.1195 71.6087L38.6887 71.6493C38.6887 71.595 38.6887 71.5409 38.6887 71.4934C38.6955 70.8498 38.7092 70.2128 38.7227 69.569L38.2143 69.5285C37.9298 69.4944 37.645 69.5012 37.3673 69.542C37.347 70.2331 37.3268 70.9174 37.3198 71.6087ZM37.313 73.5126C37.5775 73.4789 37.8485 73.4789 38.1195 73.5126L38.6887 73.5534C38.6887 73.0385 38.6887 72.5233 38.6887 72.0083L38.0857 71.961C37.8282 71.927 37.5707 71.9338 37.3198 71.9678C37.313 72.4827 37.3062 72.9977 37.313 73.5126ZM37.3538 75.8234C37.6045 75.7961 37.862 75.7961 38.1195 75.8234L38.7227 75.8706C38.7092 75.2204 38.6955 74.563 38.6887 73.9125L38.0789 73.8649C37.8215 73.8311 37.5637 73.8379 37.313 73.8717C37.3198 74.5155 37.3335 75.166 37.3538 75.8234ZM37.4486 78.1136C37.591 78.1136 37.7334 78.1203 37.8822 78.1338L38.8108 78.2017C38.8108 78.1746 38.8108 78.1541 38.8041 78.1271C38.77 77.4903 38.7498 76.86 38.7295 76.2232L38.0789 76.1757C37.835 76.1486 37.5978 76.1486 37.3606 76.1757C37.3876 76.8195 37.4149 77.463 37.4486 78.1136ZM37.618 80.7291C37.7061 80.7358 37.7942 80.7358 37.8822 80.7493L38.9532 80.7901C38.9056 80.0447 38.8651 79.3061 38.8243 78.5607L37.8417 78.4861C37.7129 78.4726 37.591 78.4659 37.4621 78.4659C37.5097 79.218 37.557 79.9702 37.618 80.7291ZM37.7942 82.8229C37.8215 82.8229 37.8485 82.8229 37.8822 82.8296L39.1091 82.8772C39.0683 82.396 39.0278 81.9216 38.9937 81.4407C38.987 81.3456 38.9802 81.244 38.9735 81.1492L37.8485 81.1087C37.7807 81.1019 37.7061 81.0949 37.6383 81.0949C37.6858 81.6641 37.7401 82.2469 37.7942 82.8229ZM38.0381 85.1471C38.0722 85.1471 38.1059 85.1539 38.14 85.1539L39.3258 85.2012C39.3122 85.0523 39.292 84.8964 39.2785 84.7473C39.2309 84.2458 39.1836 83.7444 39.1361 83.243L37.8485 83.1887C37.8417 83.1887 37.835 83.1887 37.8282 83.1887C37.889 83.8325 37.9636 84.4898 38.0381 85.1471ZM39.5427 87.2342C39.4816 86.6784 39.4206 86.1227 39.3598 85.5672L38.1059 85.5197C38.0992 85.5197 38.0857 85.5197 38.0789 85.5197C38.1467 86.0754 38.2143 86.6309 38.2888 87.1934L39.5427 87.2342ZM38.6617 89.7411L39.8612 89.7683C39.7664 89.0432 39.6716 88.3181 39.5902 87.5932L38.3432 87.5457C38.438 88.2708 38.5466 89.0027 38.6617 89.7411ZM40.2341 92.3363C40.1798 92.0042 40.1322 91.6655 40.0782 91.3267C40.0171 90.9268 39.9628 90.5272 39.9085 90.1274L38.716 90.1004C38.8311 90.832 38.9532 91.5706 39.0818 92.316L40.2341 92.3363ZM40.6269 51.9989C40.3424 51.9651 40.0576 51.9719 39.7799 52.0262C39.6375 52.6157 39.5019 53.1982 39.3733 53.7877C39.5902 53.7674 39.8747 53.7607 40.3016 53.7742C40.4035 53.1779 40.5118 52.5884 40.6269 51.9989ZM41.1286 49.6274C40.8981 49.6274 40.6677 49.6544 40.444 49.7154L40.3627 49.7357C40.1933 50.3728 40.0239 51.0095 39.868 51.6466C40.139 51.6128 40.4102 51.6061 40.6879 51.6466H40.6947C40.8303 50.969 40.9794 50.2982 41.1286 49.6274ZM41.6233 47.5471C41.3385 47.5336 41.1488 47.5471 40.9727 47.5811C40.7963 48.1706 40.6269 48.7601 40.471 49.3429C40.715 49.2886 40.9659 49.2616 41.2099 49.2683C41.3385 48.6923 41.4809 48.1231 41.6233 47.5471ZM42.179 45.4398C41.9958 45.4398 41.8062 45.4533 41.6233 45.4873C41.4401 46.0633 41.2572 46.6323 41.0878 47.2083C41.2572 47.188 41.4539 47.188 41.7113 47.2015C41.8605 46.6053 42.0164 46.0225 42.179 45.4398ZM42.7888 43.3392C42.6396 43.3325 42.4837 43.346 42.3349 43.3662C42.1314 43.9422 41.935 44.525 41.7451 45.101C41.9213 45.0807 42.0977 45.074 42.2738 45.0807C42.4365 44.498 42.6126 43.922 42.7888 43.3392ZM43.4528 41.2454C43.331 41.2454 43.2156 41.2522 43.0938 41.2589C42.8768 41.8349 42.6669 42.4177 42.4635 42.9937C42.6059 42.9802 42.7482 42.9802 42.8971 42.9869C42.999 42.6549 43.1005 42.3296 43.2021 41.9976C43.2834 41.7536 43.3715 41.4961 43.4528 41.2454ZM44.1847 39.1584C44.0899 39.1651 43.9951 39.1721 43.8935 39.1857C43.663 39.7546 43.4461 40.3239 43.2294 40.8931C43.3445 40.8864 43.4528 40.8864 43.5682 40.8931C43.7714 40.3171 43.968 39.7344 44.1847 39.1584ZM44.9844 37.0716C44.9098 37.0784 44.8285 37.0851 44.754 37.0986C44.51 37.6679 44.2798 38.2368 44.0494 38.8061C44.1374 38.7993 44.2323 38.7926 44.3203 38.7926C44.5032 38.2911 44.6864 37.7897 44.8896 37.2883C44.8963 37.268 44.9304 37.1934 44.9844 37.0716ZM45.7841 35.1945C45.7163 35.1945 45.6488 35.1945 45.5809 35.1945C45.3505 35.7027 45.1335 36.2108 44.9166 36.719C44.9912 36.7123 45.0657 36.7055 45.1403 36.7055C45.3164 36.2989 45.5537 35.7367 45.7841 35.1945ZM46.55 33.3989L46.3874 33.4327C46.1704 33.9004 45.9535 34.3745 45.7436 34.8422C45.8044 34.8422 45.8722 34.8489 45.9332 34.8489C46.245 34.117 46.516 33.487 46.55 33.3989ZM43.0803 34.7609L43.5004 33.9749C43.6087 33.7445 43.1886 34.5577 43.0803 34.7609Z" fill="#EAEAEA"/>
<path d="M59.3254 14.434L58.4781 15.369L58.5257 0.46875L59.3254 1.87146V14.434ZM39.2454 36.6118L40.1467 39.3629L40.4247 38.6718L39.5572 36.3273C39.6318 36.2595 39.7131 36.1849 39.7944 36.1036L41.1431 37.8721L41.4276 37.2961L40.1062 35.8124C40.8178 35.1277 41.6378 34.3013 41.6378 34.1589C41.6378 33.9015 40.479 34.3621 39.2117 34.3621C37.9443 34.3621 37.0498 33.9015 37.0498 34.1589C37.0498 34.4164 39.0963 36.7609 39.0963 36.7609C39.0963 36.7609 39.1506 36.6999 39.2454 36.6118ZM78.0364 96.2743C78.0364 96.2743 74.6004 99.5606 47.92 99.5741C-3.14386 99.5946 17.5256 96.2743 17.5256 96.2743H42.234C41.9155 94.6414 41.6716 93.1979 41.4073 91.5515C41.0618 89.3898 40.7973 87.2215 40.5604 85.0464C40.4993 84.5044 40.445 83.9557 40.3977 83.4135C40.3434 82.8715 40.2959 82.3225 40.2486 81.7806C40.201 81.2383 40.1605 80.6896 40.1265 80.1406C40.0927 79.5919 40.0519 79.0497 40.0249 78.501C39.896 76.3124 39.842 74.1237 39.8352 71.9349C39.8352 69.7462 39.896 67.5508 40.0046 65.3622C40.1265 63.1736 40.3231 60.985 40.5671 58.8031C40.8178 56.6212 41.1499 54.4461 41.543 52.2915C41.7326 51.2073 41.9698 50.1366 42.1935 49.0592C42.4442 47.9888 42.6814 46.9181 42.9659 45.8542C43.1016 45.319 43.2372 44.7903 43.3931 44.2618C43.5419 43.7334 43.6911 43.205 43.8469 42.6762L44.3349 41.1044C44.4975 40.5757 44.6874 40.0607 44.8568 39.539L45.1211 38.7599C45.2091 38.5024 45.3107 38.2449 45.4058 37.9872C45.6022 37.4723 45.7784 36.9573 45.9886 36.4424L46.6118 34.9178C46.8153 34.4096 47.0457 33.9082 47.2627 33.4068L47.5947 32.6546C47.703 32.4039 47.8249 32.16 47.947 31.9092C48.1842 31.4146 48.4147 30.9131 48.6519 30.4185C49.1533 29.4429 49.6345 28.4535 50.1835 27.505C50.7052 26.5359 51.2811 25.6076 51.8369 24.659L52.7179 23.2698C52.867 23.0396 53.0094 22.8092 53.1653 22.5787L53.6327 21.9011C55.4693 19.2111 57.5091 16.6634 59.7185 14.2916C59.7252 14.3459 59.8336 23.6899 59.9692 36.0493C60.6943 35.9342 61.5618 35.8731 62.4088 35.8731C63.6897 35.8731 65.0178 36.0088 65.8175 36.273C65.7635 36.3138 65.7159 36.3678 65.6822 36.4154C65.0111 36.2119 63.8861 36.0493 62.4156 36.0493C61.7245 36.0493 61.1077 36.0833 60.579 36.1444C60.2334 36.1849 59.976 36.4832 59.9827 36.8287V36.8422C59.9895 37.181 60.2402 37.4723 60.579 37.5131C61.1077 37.5741 61.7245 37.6079 62.4156 37.6079C63.7642 37.6079 64.8282 37.4723 65.5057 37.2961C65.5125 37.3572 65.5195 37.4182 65.533 37.4723C65.3704 37.5131 65.1942 37.5468 65.0043 37.5809H65.0178L60.7146 39.4034L60.6876 37.7027C60.4436 37.6757 60.2132 37.6484 59.9895 37.6146C60.2604 61.8525 60.6468 96.2878 60.6468 96.2878H78.0364V96.2743ZM56.1742 79.1243L41.8885 77.4573C41.9428 79.9442 42.0579 82.4241 42.2205 84.9043C42.3629 87.0588 42.5728 89.2137 42.7965 91.3685C42.9794 93.0963 43.1559 94.5533 43.3931 96.2743H55.72L56.1742 79.1243ZM56.7366 57.868L43.1694 55.51C42.9932 56.689 42.8373 57.868 42.7017 59.0538C42.0444 64.6441 41.8004 70.2884 41.8682 75.9328L56.2147 77.9183L56.7366 57.868ZM57.8073 17.4358C56.6418 19.0687 55.5438 20.7424 54.5272 22.4636L54.1071 23.1547C53.9647 23.3852 53.8429 23.6221 53.7073 23.8593L52.9143 25.2688C52.4129 26.2241 51.8979 27.1729 51.437 28.1485C50.9559 29.1108 50.5155 30.0932 50.0613 31.069C49.8444 31.5637 49.6345 32.0584 49.4243 32.5531C49.3227 32.8038 49.2076 33.0477 49.1125 33.2984L48.8145 34.0506C46.2258 40.5757 44.457 47.3923 43.3523 54.3242L56.7704 56.5672L57.8073 17.4358Z" fill="#C7C9C9"/>
</g>
<mask id="path-6-outside-1_499_2865" maskUnits="userSpaceOnUse" x="5" y="86" width="90" height="13" fill="black">
<rect fill="white" x="5" y="86" width="90" height="13"/>
<path d="M7.03746 97V88.2727H10.6767C11.3301 88.2727 11.877 88.3651 12.3173 88.5497C12.7605 88.7344 13.0929 88.9929 13.3145 89.3253C13.5389 89.6577 13.6511 90.0426 13.6511 90.4801C13.6511 90.8125 13.5815 91.1094 13.4423 91.3707C13.3031 91.6293 13.1113 91.8437 12.867 92.0142C12.6227 92.1847 12.34 92.304 12.019 92.3722V92.4574C12.3713 92.4744 12.6966 92.5696 12.9949 92.7429C13.296 92.9162 13.5375 93.1577 13.7193 93.4673C13.9011 93.7741 13.992 94.1378 13.992 94.5582C13.992 95.027 13.8727 95.446 13.6341 95.8153C13.3954 96.1818 13.0502 96.4716 12.5985 96.6847C12.1468 96.8949 11.5985 97 10.9537 97H7.03746ZM9.14684 95.2997H10.4508C10.9082 95.2997 11.2449 95.2131 11.4608 95.0398C11.6795 94.8665 11.7889 94.625 11.7889 94.3153C11.7889 94.0909 11.7363 93.8977 11.6312 93.7358C11.5261 93.571 11.377 93.4446 11.1838 93.3565C10.9906 93.2656 10.7591 93.2202 10.4892 93.2202H9.14684V95.2997ZM9.14684 91.8608H10.3145C10.5446 91.8608 10.7491 91.8224 10.9281 91.7457C11.1071 91.669 11.2463 91.5582 11.3457 91.4134C11.448 91.2685 11.4991 91.0937 11.4991 90.8892C11.4991 90.5966 11.3954 90.3665 11.188 90.1989C10.9806 90.0312 10.7008 89.9474 10.3485 89.9474H9.14684V91.8608ZM20.286 88.2727H22.3912V93.902C22.3912 94.5526 22.2363 95.1193 21.9267 95.6023C21.617 96.0824 21.1852 96.4545 20.6312 96.7188C20.0772 96.9801 19.4338 97.1108 18.7008 97.1108C17.9593 97.1108 17.3116 96.9801 16.7576 96.7188C16.2037 96.4545 15.7733 96.0824 15.4664 95.6023C15.1596 95.1193 15.0062 94.5526 15.0062 93.902V88.2727H17.1156V93.7188C17.1156 94.0199 17.1809 94.2884 17.3116 94.5241C17.4451 94.7599 17.6312 94.9446 17.8699 95.0781C18.1085 95.2116 18.3855 95.2784 18.7008 95.2784C19.0162 95.2784 19.2917 95.2116 19.5275 95.0781C19.7662 94.9446 19.9522 94.7599 20.0858 94.5241C20.2193 94.2884 20.286 94.0199 20.286 93.7188V88.2727ZM23.7132 97V88.2727H27.3184C27.9718 88.2727 28.5357 88.3906 29.0101 88.6264C29.4874 88.8594 29.8553 89.1946 30.1138 89.6321C30.3723 90.0668 30.5016 90.5824 30.5016 91.179C30.5016 91.7841 30.3695 92.2983 30.1053 92.7216C29.8411 93.142 29.4661 93.4631 28.9803 93.6847C28.4945 93.9034 27.9192 94.0128 27.2544 94.0128H24.9746V92.3509H26.8624C27.1806 92.3509 27.4462 92.3097 27.6593 92.2273C27.8752 92.142 28.0385 92.0142 28.1493 91.8438C28.2601 91.6705 28.3155 91.4489 28.3155 91.179C28.3155 90.9091 28.2601 90.6861 28.1493 90.5099C28.0385 90.331 27.8752 90.1974 27.6593 90.1094C27.4434 90.0185 27.1777 89.973 26.8624 89.973H25.8226V97H23.7132ZM28.6266 93.0114L30.7999 97H28.4988L26.3681 93.0114H28.6266ZM35.204 88.2727H37.2836V94.3068C37.2807 94.8722 37.1458 95.3665 36.8787 95.7898C36.6117 96.2102 36.2424 96.5369 35.7708 96.7699C35.302 97.0028 34.7594 97.1193 34.1429 97.1193C33.5975 97.1193 33.1017 97.0241 32.6557 96.8338C32.2125 96.6435 31.8588 96.348 31.5946 95.9474C31.3333 95.5469 31.204 95.0341 31.2069 94.4091H33.3077C33.3162 94.6335 33.3588 94.8253 33.4355 94.9844C33.5151 95.1406 33.6245 95.2585 33.7637 95.3381C33.9029 95.4176 34.0691 95.4574 34.2623 95.4574C34.464 95.4574 34.6344 95.4148 34.7736 95.3295C34.9128 95.2415 35.0179 95.1122 35.089 94.9418C35.1628 94.7713 35.2012 94.5597 35.204 94.3068V88.2727ZM43.0737 97H40.8066L43.7512 88.2727H46.5595L49.5041 97H47.237L45.1873 90.4716H45.1191L43.0737 97ZM42.7711 93.5653H47.5098V95.1676H42.7711V93.5653ZM50.4437 97V88.2727H52.5531V95.2869H56.1838V97H50.4437ZM61.7417 97H59.4746L62.4192 88.2727H65.2275L68.1721 97H65.905L63.8553 90.4716H63.7871L61.7417 97ZM61.4391 93.5653H66.1777V95.1676H61.4391V93.5653ZM69.1117 97V88.2727H72.7168C73.3702 88.2727 73.9341 88.3906 74.4086 88.6264C74.8858 88.8594 75.2537 89.1946 75.5123 89.6321C75.7708 90.0668 75.9 90.5824 75.9 91.179C75.9 91.7841 75.7679 92.2983 75.5037 92.7216C75.2395 93.142 74.8645 93.4631 74.3787 93.6847C73.8929 93.9034 73.3176 94.0128 72.6529 94.0128H70.373V92.3509H72.2608C72.579 92.3509 72.8446 92.3097 73.0577 92.2273C73.2736 92.142 73.437 92.0142 73.5478 91.8438C73.6586 91.6705 73.714 91.4489 73.714 91.179C73.714 90.9091 73.6586 90.6861 73.5478 90.5099C73.437 90.331 73.2736 90.1974 73.0577 90.1094C72.8418 90.0185 72.5762 89.973 72.2608 89.973H71.2211V97H69.1117ZM74.025 93.0114L76.1983 97H73.8972L71.7665 93.0114H74.025ZM78.9448 97H76.6777L79.6223 88.2727H82.4306L85.3752 97H83.1081L81.0584 90.4716H80.9902L78.9448 97ZM78.6422 93.5653H83.3809V95.1676H78.6422V93.5653ZM86.3148 97V88.2727H89.954C90.6074 88.2727 91.1543 88.3651 91.5946 88.5497C92.0378 88.7344 92.3702 88.9929 92.5918 89.3253C92.8162 89.6577 92.9284 90.0426 92.9284 90.4801C92.9284 90.8125 92.8588 91.1094 92.7196 91.3707C92.5804 91.6293 92.3887 91.8437 92.1444 92.0142C91.9 92.1847 91.6174 92.304 91.2963 92.3722V92.4574C91.6486 92.4744 91.9739 92.5696 92.2722 92.7429C92.5733 92.9162 92.8148 93.1577 92.9966 93.4673C93.1784 93.7741 93.2694 94.1378 93.2694 94.5582C93.2694 95.027 93.15 95.446 92.9114 95.8153C92.6728 96.1818 92.3276 96.4716 91.8759 96.6847C91.4242 96.8949 90.8759 97 90.231 97H86.3148ZM88.4242 95.2997H89.7282C90.1855 95.2997 90.5222 95.2131 90.7381 95.0398C90.9569 94.8665 91.0662 94.625 91.0662 94.3153C91.0662 94.0909 91.0137 93.8977 90.9086 93.7358C90.8034 93.571 90.6543 93.4446 90.4611 93.3565C90.2679 93.2656 90.0364 93.2202 89.7665 93.2202H88.4242V95.2997ZM88.4242 91.8608H89.5918C89.8219 91.8608 90.0265 91.8224 90.2054 91.7457C90.3844 91.669 90.5236 91.5582 90.623 91.4134C90.7253 91.2685 90.7765 91.0937 90.7765 90.8892C90.7765 90.5966 90.6728 90.3665 90.4654 90.1989C90.258 90.0312 89.9782 89.9474 89.6259 89.9474H88.4242V91.8608Z"/>
</mask>
<path d="M7.03746 97V88.2727H10.6767C11.3301 88.2727 11.877 88.3651 12.3173 88.5497C12.7605 88.7344 13.0929 88.9929 13.3145 89.3253C13.5389 89.6577 13.6511 90.0426 13.6511 90.4801C13.6511 90.8125 13.5815 91.1094 13.4423 91.3707C13.3031 91.6293 13.1113 91.8437 12.867 92.0142C12.6227 92.1847 12.34 92.304 12.019 92.3722V92.4574C12.3713 92.4744 12.6966 92.5696 12.9949 92.7429C13.296 92.9162 13.5375 93.1577 13.7193 93.4673C13.9011 93.7741 13.992 94.1378 13.992 94.5582C13.992 95.027 13.8727 95.446 13.6341 95.8153C13.3954 96.1818 13.0502 96.4716 12.5985 96.6847C12.1468 96.8949 11.5985 97 10.9537 97H7.03746ZM9.14684 95.2997H10.4508C10.9082 95.2997 11.2449 95.2131 11.4608 95.0398C11.6795 94.8665 11.7889 94.625 11.7889 94.3153C11.7889 94.0909 11.7363 93.8977 11.6312 93.7358C11.5261 93.571 11.377 93.4446 11.1838 93.3565C10.9906 93.2656 10.7591 93.2202 10.4892 93.2202H9.14684V95.2997ZM9.14684 91.8608H10.3145C10.5446 91.8608 10.7491 91.8224 10.9281 91.7457C11.1071 91.669 11.2463 91.5582 11.3457 91.4134C11.448 91.2685 11.4991 91.0937 11.4991 90.8892C11.4991 90.5966 11.3954 90.3665 11.188 90.1989C10.9806 90.0312 10.7008 89.9474 10.3485 89.9474H9.14684V91.8608ZM20.286 88.2727H22.3912V93.902C22.3912 94.5526 22.2363 95.1193 21.9267 95.6023C21.617 96.0824 21.1852 96.4545 20.6312 96.7188C20.0772 96.9801 19.4338 97.1108 18.7008 97.1108C17.9593 97.1108 17.3116 96.9801 16.7576 96.7188C16.2037 96.4545 15.7733 96.0824 15.4664 95.6023C15.1596 95.1193 15.0062 94.5526 15.0062 93.902V88.2727H17.1156V93.7188C17.1156 94.0199 17.1809 94.2884 17.3116 94.5241C17.4451 94.7599 17.6312 94.9446 17.8699 95.0781C18.1085 95.2116 18.3855 95.2784 18.7008 95.2784C19.0162 95.2784 19.2917 95.2116 19.5275 95.0781C19.7662 94.9446 19.9522 94.7599 20.0858 94.5241C20.2193 94.2884 20.286 94.0199 20.286 93.7188V88.2727ZM23.7132 97V88.2727H27.3184C27.9718 88.2727 28.5357 88.3906 29.0101 88.6264C29.4874 88.8594 29.8553 89.1946 30.1138 89.6321C30.3723 90.0668 30.5016 90.5824 30.5016 91.179C30.5016 91.7841 30.3695 92.2983 30.1053 92.7216C29.8411 93.142 29.4661 93.4631 28.9803 93.6847C28.4945 93.9034 27.9192 94.0128 27.2544 94.0128H24.9746V92.3509H26.8624C27.1806 92.3509 27.4462 92.3097 27.6593 92.2273C27.8752 92.142 28.0385 92.0142 28.1493 91.8438C28.2601 91.6705 28.3155 91.4489 28.3155 91.179C28.3155 90.9091 28.2601 90.6861 28.1493 90.5099C28.0385 90.331 27.8752 90.1974 27.6593 90.1094C27.4434 90.0185 27.1777 89.973 26.8624 89.973H25.8226V97H23.7132ZM28.6266 93.0114L30.7999 97H28.4988L26.3681 93.0114H28.6266ZM35.204 88.2727H37.2836V94.3068C37.2807 94.8722 37.1458 95.3665 36.8787 95.7898C36.6117 96.2102 36.2424 96.5369 35.7708 96.7699C35.302 97.0028 34.7594 97.1193 34.1429 97.1193C33.5975 97.1193 33.1017 97.0241 32.6557 96.8338C32.2125 96.6435 31.8588 96.348 31.5946 95.9474C31.3333 95.5469 31.204 95.0341 31.2069 94.4091H33.3077C33.3162 94.6335 33.3588 94.8253 33.4355 94.9844C33.5151 95.1406 33.6245 95.2585 33.7637 95.3381C33.9029 95.4176 34.0691 95.4574 34.2623 95.4574C34.464 95.4574 34.6344 95.4148 34.7736 95.3295C34.9128 95.2415 35.0179 95.1122 35.089 94.9418C35.1628 94.7713 35.2012 94.5597 35.204 94.3068V88.2727ZM43.0737 97H40.8066L43.7512 88.2727H46.5595L49.5041 97H47.237L45.1873 90.4716H45.1191L43.0737 97ZM42.7711 93.5653H47.5098V95.1676H42.7711V93.5653ZM50.4437 97V88.2727H52.5531V95.2869H56.1838V97H50.4437ZM61.7417 97H59.4746L62.4192 88.2727H65.2275L68.1721 97H65.905L63.8553 90.4716H63.7871L61.7417 97ZM61.4391 93.5653H66.1777V95.1676H61.4391V93.5653ZM69.1117 97V88.2727H72.7168C73.3702 88.2727 73.9341 88.3906 74.4086 88.6264C74.8858 88.8594 75.2537 89.1946 75.5123 89.6321C75.7708 90.0668 75.9 90.5824 75.9 91.179C75.9 91.7841 75.7679 92.2983 75.5037 92.7216C75.2395 93.142 74.8645 93.4631 74.3787 93.6847C73.8929 93.9034 73.3176 94.0128 72.6529 94.0128H70.373V92.3509H72.2608C72.579 92.3509 72.8446 92.3097 73.0577 92.2273C73.2736 92.142 73.437 92.0142 73.5478 91.8438C73.6586 91.6705 73.714 91.4489 73.714 91.179C73.714 90.9091 73.6586 90.6861 73.5478 90.5099C73.437 90.331 73.2736 90.1974 73.0577 90.1094C72.8418 90.0185 72.5762 89.973 72.2608 89.973H71.2211V97H69.1117ZM74.025 93.0114L76.1983 97H73.8972L71.7665 93.0114H74.025ZM78.9448 97H76.6777L79.6223 88.2727H82.4306L85.3752 97H83.1081L81.0584 90.4716H80.9902L78.9448 97ZM78.6422 93.5653H83.3809V95.1676H78.6422V93.5653ZM86.3148 97V88.2727H89.954C90.6074 88.2727 91.1543 88.3651 91.5946 88.5497C92.0378 88.7344 92.3702 88.9929 92.5918 89.3253C92.8162 89.6577 92.9284 90.0426 92.9284 90.4801C92.9284 90.8125 92.8588 91.1094 92.7196 91.3707C92.5804 91.6293 92.3887 91.8437 92.1444 92.0142C91.9 92.1847 91.6174 92.304 91.2963 92.3722V92.4574C91.6486 92.4744 91.9739 92.5696 92.2722 92.7429C92.5733 92.9162 92.8148 93.1577 92.9966 93.4673C93.1784 93.7741 93.2694 94.1378 93.2694 94.5582C93.2694 95.027 93.15 95.446 92.9114 95.8153C92.6728 96.1818 92.3276 96.4716 91.8759 96.6847C91.4242 96.8949 90.8759 97 90.231 97H86.3148ZM88.4242 95.2997H89.7282C90.1855 95.2997 90.5222 95.2131 90.7381 95.0398C90.9569 94.8665 91.0662 94.625 91.0662 94.3153C91.0662 94.0909 91.0137 93.8977 90.9086 93.7358C90.8034 93.571 90.6543 93.4446 90.4611 93.3565C90.2679 93.2656 90.0364 93.2202 89.7665 93.2202H88.4242V95.2997ZM88.4242 91.8608H89.5918C89.8219 91.8608 90.0265 91.8224 90.2054 91.7457C90.3844 91.669 90.5236 91.5582 90.623 91.4134C90.7253 91.2685 90.7765 91.0937 90.7765 90.8892C90.7765 90.5966 90.6728 90.3665 90.4654 90.1989C90.258 90.0312 89.9782 89.9474 89.6259 89.9474H88.4242V91.8608Z" fill="black"/>
<path d="M7.03746 97H5.53746V98.5H7.03746V97ZM7.03746 88.2727V86.7727H5.53746V88.2727H7.03746ZM12.3173 88.5497L11.7372 89.933L11.7404 89.9343L12.3173 88.5497ZM13.3145 89.3253L12.0664 90.1573L12.0713 90.1647L13.3145 89.3253ZM13.4423 91.3707L14.763 92.0819L14.7662 92.0759L13.4423 91.3707ZM12.867 92.0142L12.0087 90.784L12.0087 90.784L12.867 92.0142ZM12.019 92.3722L11.7074 90.9049L10.519 91.1573V92.3722H12.019ZM12.019 92.4574H10.519V93.8866L11.9465 93.9556L12.019 92.4574ZM12.9949 92.7429L12.2413 94.0399L12.2467 94.043L12.9949 92.7429ZM13.7193 93.4673L12.4258 94.2268L12.4288 94.232L13.7193 93.4673ZM13.6341 95.8153L14.8911 96.6339L14.8939 96.6294L13.6341 95.8153ZM12.5985 96.6847L13.2315 98.0446L13.2385 98.0413L12.5985 96.6847ZM9.14684 95.2997H7.64684V96.7997H9.14684V95.2997ZM11.4608 95.0398L10.5293 93.864L10.5218 93.87L11.4608 95.0398ZM11.6312 93.7358L10.3666 94.5425L10.373 94.5525L11.6312 93.7358ZM11.1838 93.3565L10.5451 94.7138L10.5533 94.7176L10.5616 94.7214L11.1838 93.3565ZM9.14684 93.2202V91.7202H7.64684V93.2202H9.14684ZM9.14684 91.8608H7.64684V93.3608H9.14684V91.8608ZM11.3457 91.4134L10.1203 90.5483L10.1145 90.5564L10.1089 90.5646L11.3457 91.4134ZM11.188 90.1989L12.1309 89.0323L12.1309 89.0323L11.188 90.1989ZM9.14684 89.9474V88.4474H7.64684V89.9474H9.14684ZM8.53746 97V88.2727H5.53746V97H8.53746ZM7.03746 89.7727H10.6767V86.7727H7.03746V89.7727ZM10.6767 89.7727C11.1997 89.7727 11.5348 89.8481 11.7372 89.933L12.8974 87.1664C12.2191 86.882 11.4605 86.7727 10.6767 86.7727V89.7727ZM11.7404 89.9343C11.9662 90.0284 12.0397 90.1174 12.0664 90.1573L14.5625 88.4932C14.146 87.8684 13.5548 87.4403 12.8942 87.1651L11.7404 89.9343ZM12.0713 90.1647C12.1131 90.2266 12.1511 90.3134 12.1511 90.4801H15.1511C15.1511 89.7719 14.9647 89.0887 14.5576 88.4859L12.0713 90.1647ZM12.1511 90.4801C12.1511 90.5971 12.1284 90.6468 12.1184 90.6656L14.7662 92.0759C15.0346 91.572 15.1511 91.0279 15.1511 90.4801H12.1511ZM12.1216 90.6596C12.0954 90.7082 12.0633 90.7459 12.0087 90.784L13.7253 93.2444C14.1593 92.9416 14.5107 92.5504 14.763 92.0819L12.1216 90.6596ZM12.0087 90.784C11.945 90.8285 11.8522 90.8741 11.7074 90.9049L12.3306 93.8394C12.8279 93.7338 13.3004 93.5408 13.7253 93.2444L12.0087 90.784ZM10.519 92.3722V92.4574H13.519V92.3722H10.519ZM11.9465 93.9556C12.0645 93.9613 12.1554 93.99 12.2413 94.0399L13.7484 91.4459C13.2377 91.1492 12.678 90.9875 12.0915 90.9591L11.9465 93.9556ZM12.2467 94.043C12.3144 94.082 12.3711 94.1338 12.4258 94.2268L15.0128 92.7078C14.7038 92.1816 14.2775 91.7504 13.743 91.4428L12.2467 94.043ZM12.4288 94.232C12.4507 94.2689 12.492 94.3583 12.492 94.5582H15.492C15.492 93.9173 15.3515 93.2794 15.0097 92.7026L12.4288 94.232ZM12.492 94.5582C12.492 94.7581 12.4456 94.8908 12.3742 95.0013L14.8939 96.6294C15.2998 96.0013 15.492 95.2958 15.492 94.5582H12.492ZM12.3771 94.9968C12.3109 95.0985 12.1952 95.2164 11.9586 95.328L13.2385 98.0413C13.9053 97.7268 14.48 97.2651 14.8911 96.6339L12.3771 94.9968ZM11.9656 95.3247C11.7615 95.4197 11.4417 95.5 10.9537 95.5V98.5C11.7553 98.5 12.5322 98.37 13.2315 98.0446L11.9656 95.3247ZM10.9537 95.5H7.03746V98.5H10.9537V95.5ZM9.14684 96.7997H10.4508V93.7997H9.14684V96.7997ZM10.4508 96.7997C11.0446 96.7997 11.7925 96.6969 12.3997 96.2096L10.5218 93.87C10.6167 93.7938 10.6856 93.7787 10.6725 93.7821C10.667 93.7835 10.6468 93.7881 10.6085 93.7923C10.5704 93.7965 10.5184 93.7997 10.4508 93.7997V96.7997ZM12.3922 96.2155C13.0127 95.724 13.2889 95.0259 13.2889 94.3153H10.2889C10.2889 94.2923 10.2935 94.2135 10.3405 94.1098C10.3896 94.0014 10.4616 93.9176 10.5293 93.864L12.3922 96.2155ZM13.2889 94.3153C13.2889 93.8492 13.1766 93.3616 12.8894 92.9191L10.373 94.5525C10.3379 94.4984 10.3151 94.4436 10.3021 94.3959C10.2895 94.3497 10.2889 94.3203 10.2889 94.3153H13.2889ZM12.8958 92.9291C12.6215 92.4991 12.239 92.1891 11.806 91.9917L10.5616 94.7214C10.5434 94.7131 10.5099 94.6949 10.4706 94.6617C10.4307 94.6278 10.3949 94.5868 10.3666 94.5425L12.8958 92.9291ZM11.8225 91.9993C11.384 91.793 10.9233 91.7202 10.4892 91.7202V94.7202C10.5948 94.7202 10.5972 94.7383 10.5451 94.7138L11.8225 91.9993ZM10.4892 91.7202H9.14684V94.7202H10.4892V91.7202ZM7.64684 93.2202V95.2997H10.6468V93.2202H7.64684ZM9.14684 93.3608H10.3145V90.3608H9.14684V93.3608ZM10.3145 93.3608C10.7113 93.3608 11.1225 93.2944 11.519 93.1245L10.3372 90.367C10.3554 90.3592 10.3657 90.3574 10.364 90.3577C10.3619 90.3581 10.3464 90.3608 10.3145 90.3608V93.3608ZM11.519 93.1245C11.9299 92.9483 12.3052 92.6661 12.5825 92.2621L10.1089 90.5646C10.1445 90.5128 10.1872 90.4676 10.2326 90.4315C10.2771 90.3961 10.3152 90.3765 10.3372 90.367L11.519 93.1245ZM12.5712 92.2784C12.8784 91.8431 12.9991 91.3544 12.9991 90.8892H9.99911C9.99911 90.8662 10.0021 90.8175 10.0212 90.7523C10.0408 90.6852 10.0735 90.6145 10.1203 90.5483L12.5712 92.2784ZM12.9991 90.8892C12.9991 90.1938 12.728 89.5148 12.1309 89.0323L10.2452 91.3655C10.1767 91.3102 10.1039 91.2246 10.0538 91.1134C10.0055 91.0063 9.99911 90.9217 9.99911 90.8892H12.9991ZM12.1309 89.0323C11.5816 88.5883 10.9332 88.4474 10.3485 88.4474V91.4474C10.4079 91.4474 10.4172 91.4547 10.3923 91.4472C10.3633 91.4386 10.307 91.4155 10.2452 91.3655L12.1309 89.0323ZM10.3485 88.4474H9.14684V91.4474H10.3485V88.4474ZM7.64684 89.9474V91.8608H10.6468V89.9474H7.64684ZM20.286 88.2727V86.7727H18.786V88.2727H20.286ZM22.3912 88.2727H23.8912V86.7727H22.3912V88.2727ZM21.9267 95.6023L23.1872 96.4153L23.1894 96.4119L21.9267 95.6023ZM20.6312 96.7188L21.2713 98.0754L21.2769 98.0727L20.6312 96.7188ZM16.7576 96.7188L16.1119 98.0727L16.1176 98.0753L16.7576 96.7188ZM15.4664 95.6023L14.2003 96.4066L14.2025 96.41L15.4664 95.6023ZM15.0062 88.2727V86.7727H13.5062V88.2727H15.0062ZM17.1156 88.2727H18.6156V86.7727H17.1156V88.2727ZM17.3116 94.5241L15.9996 95.2513L16.0064 95.2633L17.3116 94.5241ZM17.8699 95.0781L18.6023 93.7691L18.6023 93.7691L17.8699 95.0781ZM19.5275 95.0781L18.7951 93.7691L18.7884 93.7729L19.5275 95.0781ZM20.286 89.7727H22.3912V86.7727H20.286V89.7727ZM20.8912 88.2727V93.902H23.8912V88.2727H20.8912ZM20.8912 93.902C20.8912 94.3051 20.7986 94.5826 20.6639 94.7926L23.1894 96.4119C23.674 95.6561 23.8912 94.8 23.8912 93.902H20.8912ZM20.6661 94.7893C20.5185 95.0181 20.3077 95.2112 19.9855 95.3648L21.2769 98.0727C22.0626 97.6979 22.7155 97.1467 23.1872 96.4153L20.6661 94.7893ZM19.9912 95.3622C19.6729 95.5123 19.2554 95.6108 18.7008 95.6108V98.6108C19.6122 98.6108 20.4816 98.4479 21.2713 98.0753L19.9912 95.3622ZM18.7008 95.6108C18.1348 95.6108 17.7138 95.5113 17.3977 95.3622L16.1176 98.0753C16.9094 98.4489 17.7838 98.6108 18.7008 98.6108V95.6108ZM17.4033 95.3648C17.0821 95.2116 16.8745 95.0201 16.7304 94.7945L14.2025 96.41C14.672 97.1447 15.3252 97.6974 16.1119 98.0727L17.4033 95.3648ZM16.7325 94.7979C16.5986 94.5872 16.5062 94.3077 16.5062 93.902H13.5062C13.5062 94.7974 13.7206 95.6515 14.2003 96.4066L16.7325 94.7979ZM16.5062 93.902V88.2727H13.5062V93.902H16.5062ZM15.0062 89.7727H17.1156V86.7727H15.0062V89.7727ZM15.6156 88.2727V93.7188H18.6156V88.2727H15.6156ZM15.6156 93.7188C15.6156 94.2439 15.7317 94.7679 15.9996 95.2513L18.6236 93.797C18.6248 93.7991 18.6239 93.7987 18.622 93.7912C18.62 93.783 18.6156 93.7604 18.6156 93.7188H15.6156ZM16.0064 95.2633C16.2764 95.7401 16.6616 96.1209 17.1374 96.3871L18.6023 93.7691C18.5988 93.7672 18.5984 93.7667 18.6001 93.7679C18.6018 93.7692 18.6046 93.7715 18.6079 93.7748C18.6112 93.778 18.6139 93.7812 18.6158 93.7837C18.6176 93.7861 18.6179 93.7869 18.6169 93.785L16.0064 95.2633ZM17.1374 96.3871C17.6321 96.6639 18.1687 96.7784 18.7008 96.7784V93.7784C18.6491 93.7784 18.6199 93.773 18.608 93.7701C18.5971 93.7675 18.5971 93.7662 18.6023 93.7691L17.1374 96.3871ZM18.7008 96.7784C19.2324 96.7784 19.7709 96.6641 20.2666 96.3834L18.7884 93.7729C18.797 93.768 18.7998 93.7683 18.7908 93.7705C18.7808 93.7729 18.7526 93.7784 18.7008 93.7784V96.7784ZM20.26 96.3871C20.7358 96.1209 21.121 95.7401 21.391 95.2633L18.7805 93.785C18.7795 93.7869 18.7797 93.7861 18.7816 93.7837C18.7835 93.7812 18.7862 93.778 18.7895 93.7748C18.7928 93.7715 18.7956 93.7692 18.7973 93.7679C18.799 93.7667 18.7985 93.7672 18.7951 93.7691L20.26 96.3871ZM21.391 95.2633C21.666 94.7777 21.786 94.2495 21.786 93.7188H18.786C18.786 93.758 18.7818 93.7781 18.7803 93.784C18.779 93.789 18.7789 93.7879 18.7805 93.785L21.391 95.2633ZM21.786 93.7188V88.2727H18.786V93.7188H21.786ZM23.7132 97H22.2132V98.5H23.7132V97ZM23.7132 88.2727V86.7727H22.2132V88.2727H23.7132ZM29.0101 88.6264L28.3425 89.9697L28.3522 89.9744L29.0101 88.6264ZM30.1138 89.6321L28.8224 90.3952L28.8246 90.3989L30.1138 89.6321ZM30.1053 92.7216L31.3754 93.5197L31.3778 93.5158L30.1053 92.7216ZM28.9803 93.6847L29.5962 95.0524L29.6028 95.0494L28.9803 93.6847ZM24.9746 94.0128H23.4746V95.5128H24.9746V94.0128ZM24.9746 92.3509V90.8509H23.4746V92.3509H24.9746ZM27.6593 92.2273L28.2002 93.6264L28.21 93.6225L27.6593 92.2273ZM28.1493 91.8438L29.407 92.6613L29.4131 92.6517L28.1493 91.8438ZM28.1493 90.5099L26.8739 91.2995L26.8796 91.3086L28.1493 90.5099ZM27.6593 90.1094L27.0772 91.4918L27.0849 91.4951L27.0927 91.4983L27.6593 90.1094ZM25.8226 89.973V88.473H24.3226V89.973H25.8226ZM25.8226 97V98.5H27.3226V97H25.8226ZM28.6266 93.0114L29.9438 92.2937L29.5175 91.5114H28.6266V93.0114ZM30.7999 97V98.5H33.3254L32.1171 96.2823L30.7999 97ZM28.4988 97L27.1757 97.7068L27.5994 98.5H28.4988V97ZM26.3681 93.0114V91.5114H23.8662L25.045 93.7181L26.3681 93.0114ZM25.2132 97V88.2727H22.2132V97H25.2132ZM23.7132 89.7727H27.3184V86.7727H23.7132V89.7727ZM27.3184 89.7727C27.7931 89.7727 28.1183 89.8582 28.3425 89.9697L29.6777 87.2832C28.9531 86.923 28.1504 86.7727 27.3184 86.7727V89.7727ZM28.3522 89.9744C28.5782 90.0847 28.7202 90.2222 28.8224 90.3952L31.4052 88.869C30.9904 88.167 30.3966 87.634 29.6681 87.2784L28.3522 89.9744ZM28.8246 90.3989C28.9221 90.5628 29.0016 90.8034 29.0016 91.179H32.0016C32.0016 90.3614 31.8225 89.5707 31.403 88.8653L28.8246 90.3989ZM29.0016 91.179C29.0016 91.5633 28.9195 91.7885 28.8328 91.9274L31.3778 93.5158C31.8195 92.8081 32.0016 92.0049 32.0016 91.179H29.0016ZM28.8352 91.9235C28.7387 92.077 28.598 92.2104 28.3578 92.3199L29.6028 95.0494C30.3342 94.7158 30.9434 94.207 31.3754 93.5197L28.8352 91.9235ZM28.3644 92.3169C28.1139 92.4297 27.7579 92.5128 27.2544 92.5128V95.5128C28.0805 95.5128 28.875 95.3771 29.5962 95.0524L28.3644 92.3169ZM27.2544 92.5128H24.9746V95.5128H27.2544V92.5128ZM26.4746 94.0128V92.3509H23.4746V94.0128H26.4746ZM24.9746 93.8509H26.8624V90.8509H24.9746V93.8509ZM26.8624 93.8509C27.2982 93.8509 27.7613 93.7961 28.2002 93.6263L27.1183 90.8282C27.128 90.8245 27.1149 90.8308 27.0704 90.8377C27.0259 90.8446 26.9581 90.8509 26.8624 90.8509V93.8509ZM28.21 93.6225C28.6732 93.4397 29.1029 93.129 29.407 92.6612L26.8917 91.0263C26.9283 90.9698 26.9732 90.9222 27.0193 90.8862C27.0638 90.8513 27.098 90.8362 27.1085 90.832L28.21 93.6225ZM29.4131 92.6517C29.7194 92.1726 29.8155 91.6475 29.8155 91.179H26.8155C26.8155 91.2502 26.8008 91.1683 26.8855 91.0358L29.4131 92.6517ZM29.8155 91.179C29.8155 90.7091 29.7189 90.188 29.419 89.7113L26.8796 91.3086C26.8013 91.1841 26.8155 91.1091 26.8155 91.179H29.8155ZM29.4247 89.7204C29.129 89.2427 28.7022 88.9148 28.2258 88.7205L27.0927 91.4983C27.0769 91.4918 27.0397 91.474 26.9944 91.437C26.9479 91.3989 26.9061 91.3515 26.8739 91.2995L29.4247 89.7204ZM28.2414 88.7269C27.7893 88.5366 27.3124 88.473 26.8624 88.473V91.473C27.043 91.473 27.0974 91.5003 27.0772 91.4918L28.2414 88.7269ZM26.8624 88.473H25.8226V91.473H26.8624V88.473ZM24.3226 89.973V97H27.3226V89.973H24.3226ZM25.8226 95.5H23.7132V98.5H25.8226V95.5ZM27.3094 93.7291L29.4827 97.7177L32.1171 96.2823L29.9438 92.2937L27.3094 93.7291ZM30.7999 95.5H28.4988V98.5H30.7999V95.5ZM29.8218 96.2932L27.6911 92.3046L25.045 93.7181L27.1757 97.7068L29.8218 96.2932ZM26.3681 94.5114H28.6266V91.5114H26.3681V94.5114ZM35.204 88.2727V86.7727H33.704V88.2727H35.204ZM37.2836 88.2727H38.7836V86.7727H37.2836V88.2727ZM37.2836 94.3068L38.7836 94.3144V94.3068H37.2836ZM36.8787 95.7898L38.1449 96.594L38.1474 96.5901L36.8787 95.7898ZM35.7708 96.7699L35.1064 95.425L35.1032 95.4266L35.7708 96.7699ZM32.6557 96.8338L32.0638 98.2121L32.067 98.2134L32.6557 96.8338ZM31.5946 95.9474L30.3384 96.7671L30.3425 96.7733L31.5946 95.9474ZM31.2069 94.4091V92.9091H29.7137L29.7069 94.4023L31.2069 94.4091ZM33.3077 94.4091L34.8066 94.3522L34.7518 92.9091H33.3077V94.4091ZM33.4355 94.9844L32.0844 95.6358L32.0914 95.6504L32.0988 95.6649L33.4355 94.9844ZM33.7637 95.3381L34.5079 94.0357L34.5079 94.0357L33.7637 95.3381ZM34.7736 95.3295L35.5568 96.6088L35.5663 96.6031L35.5756 96.5972L34.7736 95.3295ZM35.089 94.9418L33.7126 94.3453L33.7084 94.3551L33.7043 94.3648L35.089 94.9418ZM35.204 94.3068L36.7039 94.3237L36.704 94.3152V94.3068H35.204ZM35.204 89.7727H37.2836V86.7727H35.204V89.7727ZM35.7836 88.2727V94.3068H38.7836V88.2727H35.7836ZM35.7836 94.2993C35.782 94.6213 35.7086 94.8333 35.6101 94.9894L38.1474 96.5901C38.5829 95.8997 38.7795 95.1231 38.7835 94.3144L35.7836 94.2993ZM35.6125 94.9856C35.5012 95.1609 35.3461 95.3066 35.1064 95.425L36.4351 98.1148C37.1387 97.7672 37.7222 97.2596 38.1449 96.594L35.6125 94.9856ZM35.1032 95.4266C34.8757 95.5397 34.5687 95.6193 34.1429 95.6193V98.6193C34.9501 98.6193 35.7283 98.466 36.4383 98.1132L35.1032 95.4266ZM34.1429 95.6193C33.7746 95.6193 33.4825 95.5558 33.2445 95.4542L32.067 98.2134C32.721 98.4925 33.4203 98.6193 34.1429 98.6193V95.6193ZM33.2477 95.4555C33.0723 95.3802 32.9487 95.2761 32.8468 95.1216L30.3425 96.7733C30.7689 97.4199 31.3528 97.9067 32.0638 98.2121L33.2477 95.4555ZM32.8509 95.1278C32.7923 95.038 32.7049 94.8362 32.7068 94.4159L29.7069 94.4023C29.7031 95.232 29.8743 96.0558 30.3384 96.7671L32.8509 95.1278ZM31.2069 95.9091H33.3077V92.9091H31.2069V95.9091ZM31.8088 94.466C31.8231 94.8427 31.8973 95.2477 32.0844 95.6358L34.7867 94.3329C34.8037 94.3682 34.8094 94.3915 34.8103 94.3958C34.8112 94.3997 34.8079 94.3866 34.8066 94.3522L31.8088 94.466ZM32.0988 95.6649C32.2981 96.0564 32.6027 96.4023 33.0195 96.6404L34.5079 94.0357C34.5708 94.0717 34.6284 94.1176 34.6769 94.1698C34.7247 94.2213 34.7548 94.2694 34.7723 94.3039L32.0988 95.6649ZM33.0195 96.6404C33.4276 96.8736 33.8615 96.9574 34.2623 96.9574V93.9574C34.2767 93.9574 34.3782 93.9616 34.5079 94.0357L33.0195 96.6404ZM34.2623 96.9574C34.6754 96.9574 35.132 96.8689 35.5568 96.6088L33.9904 94.0503C34.1368 93.9606 34.2525 93.9574 34.2623 93.9574V96.9574ZM35.5756 96.5972C36.0064 96.3246 36.2989 95.9379 36.4736 95.5187L33.7043 94.3648C33.7184 94.3312 33.7454 94.2788 33.7931 94.2202C33.8418 94.1603 33.9025 94.1057 33.9717 94.0619L35.5756 96.5972ZM36.4653 95.5382C36.6416 95.1314 36.6996 94.7083 36.7039 94.3237L33.7041 94.29C33.7035 94.3465 33.699 94.3775 33.6972 94.3877C33.6953 94.3978 33.6973 94.3806 33.7126 94.3453L36.4653 95.5382ZM36.704 94.3068V88.2727H33.704V94.3068H36.704ZM43.0737 97V98.5H44.1756L44.5051 97.4485L43.0737 97ZM40.8066 97L39.3854 96.5205L38.7175 98.5H40.8066V97ZM43.7512 88.2727V86.7727H42.6743L42.33 87.7932L43.7512 88.2727ZM46.5595 88.2727L47.9808 87.7932L47.6365 86.7727H46.5595V88.2727ZM49.5041 97V98.5H51.5933L50.9254 96.5205L49.5041 97ZM47.237 97L45.8059 97.4493L46.1358 98.5H47.237V97ZM45.1873 90.4716L46.6184 90.0223L46.2886 88.9716H45.1873V90.4716ZM45.1191 90.4716V88.9716H44.0172L43.6878 90.0231L45.1191 90.4716ZM42.7711 93.5653V92.0653H41.2711V93.5653H42.7711ZM47.5098 93.5653H49.0098V92.0653H47.5098V93.5653ZM47.5098 95.1676V96.6676H49.0098V95.1676H47.5098ZM42.7711 95.1676H41.2711V96.6676H42.7711V95.1676ZM43.0737 95.5H40.8066V98.5H43.0737V95.5ZM42.2279 97.4795L45.1725 88.7523L42.33 87.7932L39.3854 96.5205L42.2279 97.4795ZM43.7512 89.7727H46.5595V86.7727H43.7512V89.7727ZM45.1382 88.7523L48.0828 97.4795L50.9254 96.5205L47.9808 87.7932L45.1382 88.7523ZM49.5041 95.5H47.237V98.5H49.5041V95.5ZM48.6682 96.5507L46.6184 90.0223L43.7562 90.9209L45.8059 97.4493L48.6682 96.5507ZM45.1873 88.9716H45.1191V91.9716H45.1873V88.9716ZM43.6878 90.0231L41.6423 96.5515L44.5051 97.4485L46.5505 90.9201L43.6878 90.0231ZM42.7711 95.0653H47.5098V92.0653H42.7711V95.0653ZM46.0098 93.5653V95.1676H49.0098V93.5653H46.0098ZM47.5098 93.6676H42.7711V96.6676H47.5098V93.6676ZM44.2711 95.1676V93.5653H41.2711V95.1676H44.2711ZM50.4437 97H48.9437V98.5H50.4437V97ZM50.4437 88.2727V86.7727H48.9437V88.2727H50.4437ZM52.5531 88.2727H54.0531V86.7727H52.5531V88.2727ZM52.5531 95.2869H51.0531V96.7869H52.5531V95.2869ZM56.1838 95.2869H57.6838V93.7869H56.1838V95.2869ZM56.1838 97V98.5H57.6838V97H56.1838ZM51.9437 97V88.2727H48.9437V97H51.9437ZM50.4437 89.7727H52.5531V86.7727H50.4437V89.7727ZM51.0531 88.2727V95.2869H54.0531V88.2727H51.0531ZM52.5531 96.7869H56.1838V93.7869H52.5531V96.7869ZM54.6838 95.2869V97H57.6838V95.2869H54.6838ZM56.1838 95.5H50.4437V98.5H56.1838V95.5ZM61.7417 97V98.5H62.8436L63.173 97.4485L61.7417 97ZM59.4746 97L58.0533 96.5205L57.3854 98.5H59.4746V97ZM62.4192 88.2727V86.7727H61.3422L60.9979 87.7932L62.4192 88.2727ZM65.2275 88.2727L66.6487 87.7932L66.3044 86.7727H65.2275V88.2727ZM68.1721 97V98.5H70.2612L69.5933 96.5205L68.1721 97ZM65.905 97L64.4739 97.4493L64.8038 98.5H65.905V97ZM63.8553 90.4716L65.2864 90.0223L64.9565 88.9716H63.8553V90.4716ZM63.7871 90.4716V88.9716H62.6852L62.3557 90.0231L63.7871 90.4716ZM61.4391 93.5653V92.0653H59.9391V93.5653H61.4391ZM66.1777 93.5653H67.6777V92.0653H66.1777V93.5653ZM66.1777 95.1676V96.6676H67.6777V95.1676H66.1777ZM61.4391 95.1676H59.9391V96.6676H61.4391V95.1676ZM61.7417 95.5H59.4746V98.5H61.7417V95.5ZM60.8959 97.4795L63.8405 88.7523L60.9979 87.7932L58.0533 96.5205L60.8959 97.4795ZM62.4192 89.7727H65.2275V86.7727H62.4192V89.7727ZM63.8062 88.7523L66.7508 97.4795L69.5933 96.5205L66.6487 87.7932L63.8062 88.7523ZM68.1721 95.5H65.905V98.5H68.1721V95.5ZM67.3361 96.5507L65.2864 90.0223L62.4242 90.9209L64.4739 97.4493L67.3361 96.5507ZM63.8553 88.9716H63.7871V91.9716H63.8553V88.9716ZM62.3557 90.0231L60.3103 96.5515L63.173 97.4485L65.2185 90.9201L62.3557 90.0231ZM61.4391 95.0653H66.1777V92.0653H61.4391V95.0653ZM64.6777 93.5653V95.1676H67.6777V93.5653H64.6777ZM66.1777 93.6676H61.4391V96.6676H66.1777V93.6676ZM62.9391 95.1676V93.5653H59.9391V95.1676H62.9391ZM69.1117 97H67.6117V98.5H69.1117V97ZM69.1117 88.2727V86.7727H67.6117V88.2727H69.1117ZM74.4086 88.6264L73.7409 89.9697L73.7506 89.9744L74.4086 88.6264ZM75.5123 89.6321L74.2209 90.3952L74.223 90.3989L75.5123 89.6321ZM75.5037 92.7216L76.7738 93.5197L76.7762 93.5158L75.5037 92.7216ZM74.3787 93.6847L74.9946 95.0524L75.0012 95.0494L74.3787 93.6847ZM70.373 94.0128H68.873V95.5128H70.373V94.0128ZM70.373 92.3509V90.8509H68.873V92.3509H70.373ZM73.0577 92.2273L73.5987 93.6264L73.6085 93.6225L73.0577 92.2273ZM73.5478 91.8438L74.8055 92.6613L74.8115 92.6517L73.5478 91.8438ZM73.5478 90.5099L72.2723 91.2995L72.2781 91.3086L73.5478 90.5099ZM73.0577 90.1094L72.4756 91.4918L72.4834 91.4951L72.4912 91.4983L73.0577 90.1094ZM71.2211 89.973V88.473H69.7211V89.973H71.2211ZM71.2211 97V98.5H72.7211V97H71.2211ZM74.025 93.0114L75.3422 92.2937L74.9159 91.5114H74.025V93.0114ZM76.1983 97V98.5H78.7239L77.5155 96.2823L76.1983 97ZM73.8972 97L72.5741 97.7068L72.9979 98.5H73.8972V97ZM71.7665 93.0114V91.5114H69.2646L70.4435 93.7181L71.7665 93.0114ZM70.6117 97V88.2727H67.6117V97H70.6117ZM69.1117 89.7727H72.7168V86.7727H69.1117V89.7727ZM72.7168 89.7727C73.1916 89.7727 73.5167 89.8582 73.741 89.9697L75.0762 87.2832C74.3515 86.923 73.5488 86.7727 72.7168 86.7727V89.7727ZM73.7506 89.9744C73.9766 90.0847 74.1186 90.2222 74.2209 90.3952L76.8036 88.869C76.3888 88.167 75.7951 87.634 75.0665 87.2784L73.7506 89.9744ZM74.223 90.3989C74.3206 90.5628 74.4 90.8034 74.4 91.179H77.4C77.4 90.3614 77.221 89.5707 76.8015 88.8653L74.223 90.3989ZM74.4 91.179C74.4 91.5633 74.3179 91.7885 74.2313 91.9274L76.7762 93.5158C77.218 92.8081 77.4 92.0049 77.4 91.179H74.4ZM74.2337 91.9235C74.1372 92.077 73.9965 92.2104 73.7562 92.3199L75.0012 95.0494C75.7326 94.7158 76.3419 94.207 76.7738 93.5197L74.2337 91.9235ZM73.7628 92.3169C73.5124 92.4297 73.1564 92.5128 72.6529 92.5128V95.5128C73.4789 95.5128 74.2735 95.3771 74.9946 95.0524L73.7628 92.3169ZM72.6529 92.5128H70.373V95.5128H72.6529V92.5128ZM71.873 94.0128V92.3509H68.873V94.0128H71.873ZM70.373 93.8509H72.2608V90.8509H70.373V93.8509ZM72.2608 93.8509C72.6966 93.8509 73.1597 93.7961 73.5987 93.6263L72.5167 90.8282C72.5264 90.8245 72.5134 90.8308 72.4688 90.8377C72.4244 90.8446 72.3565 90.8509 72.2608 90.8509V93.8509ZM73.6085 93.6225C74.0717 93.4397 74.5014 93.129 74.8054 92.6612L72.2901 91.0263C72.3268 90.9698 72.3717 90.9222 72.4177 90.8862C72.4622 90.8513 72.4964 90.8362 72.507 90.832L73.6085 93.6225ZM74.8115 92.6517C75.1179 92.1726 75.214 91.6475 75.214 91.179H72.214C72.214 91.2502 72.1992 91.1683 72.284 91.0358L74.8115 92.6517ZM75.214 91.179C75.214 90.7091 75.1173 90.188 74.8175 89.7113L72.2781 91.3086C72.1998 91.1841 72.214 91.1091 72.214 91.179H75.214ZM74.8232 89.7204C74.5275 89.2427 74.1006 88.9148 73.6242 88.7205L72.4912 91.4983C72.4753 91.4918 72.4382 91.474 72.3928 91.437C72.3463 91.3989 72.3045 91.3515 72.2724 91.2995L74.8232 89.7204ZM73.6398 88.7269C73.1878 88.5366 72.7109 88.473 72.2608 88.473V91.473C72.4415 91.473 72.4958 91.5003 72.4756 91.4918L73.6398 88.7269ZM72.2608 88.473H71.2211V91.473H72.2608V88.473ZM69.7211 89.973V97H72.7211V89.973H69.7211ZM71.2211 95.5H69.1117V98.5H71.2211V95.5ZM72.7079 93.7291L74.8812 97.7177L77.5155 96.2823L75.3422 92.2937L72.7079 93.7291ZM76.1983 95.5H73.8972V98.5H76.1983V95.5ZM75.2203 96.2932L73.0896 92.3046L70.4435 93.7181L72.5741 97.7068L75.2203 96.2932ZM71.7665 94.5114H74.025V91.5114H71.7665V94.5114ZM78.9448 97V98.5H80.0467L80.3762 97.4485L78.9448 97ZM76.6777 97L75.2565 96.5205L74.5886 98.5H76.6777V97ZM79.6223 88.2727V86.7727H78.5454L78.2011 87.7932L79.6223 88.2727ZM82.4306 88.2727L83.8519 87.7932L83.5076 86.7727H82.4306V88.2727ZM85.3752 97V98.5H87.4644L86.7965 96.5205L85.3752 97ZM83.1081 97L81.677 97.4493L82.0069 98.5H83.1081V97ZM81.0584 90.4716L82.4895 90.0223L82.1597 88.9716H81.0584V90.4716ZM80.9902 90.4716V88.9716H79.8883L79.5588 90.0231L80.9902 90.4716ZM78.6422 93.5653V92.0653H77.1422V93.5653H78.6422ZM83.3809 93.5653H84.8809V92.0653H83.3809V93.5653ZM83.3809 95.1676V96.6676H84.8809V95.1676H83.3809ZM78.6422 95.1676H77.1422V96.6676H78.6422V95.1676ZM78.9448 95.5H76.6777V98.5H78.9448V95.5ZM78.099 97.4795L81.0436 88.7523L78.2011 87.7932L75.2565 96.5205L78.099 97.4795ZM79.6223 89.7727H82.4306V86.7727H79.6223V89.7727ZM81.0093 88.7523L83.9539 97.4795L86.7965 96.5205L83.8519 87.7932L81.0093 88.7523ZM85.3752 95.5H83.1081V98.5H85.3752V95.5ZM84.5393 96.5507L82.4895 90.0223L79.6273 90.9209L81.677 97.4493L84.5393 96.5507ZM81.0584 88.9716H80.9902V91.9716H81.0584V88.9716ZM79.5588 90.0231L77.5134 96.5515L80.3762 97.4485L82.4216 90.9201L79.5588 90.0231ZM78.6422 95.0653H83.3809V92.0653H78.6422V95.0653ZM81.8809 93.5653V95.1676H84.8809V93.5653H81.8809ZM83.3809 93.6676H78.6422V96.6676H83.3809V93.6676ZM80.1422 95.1676V93.5653H77.1422V95.1676H80.1422ZM86.3148 97H84.8148V98.5H86.3148V97ZM86.3148 88.2727V86.7727H84.8148V88.2727H86.3148ZM91.5946 88.5497L91.0145 89.933L91.0177 89.9343L91.5946 88.5497ZM92.5918 89.3253L91.3437 90.1573L91.3486 90.1647L92.5918 89.3253ZM92.7196 91.3707L94.0404 92.0819L94.0436 92.0759L92.7196 91.3707ZM92.1444 92.0142L91.2861 90.784L91.2861 90.784L92.1444 92.0142ZM91.2963 92.3722L90.9847 90.9049L89.7963 91.1573V92.3722H91.2963ZM91.2963 92.4574H89.7963V93.8866L91.2238 93.9556L91.2963 92.4574ZM92.2722 92.7429L91.5187 94.0399L91.524 94.043L92.2722 92.7429ZM92.9966 93.4673L91.7031 94.2268L91.7062 94.232L92.9966 93.4673ZM92.9114 95.8153L94.1684 96.6339L94.1713 96.6294L92.9114 95.8153ZM91.8759 96.6847L92.5088 98.0446L92.5158 98.0413L91.8759 96.6847ZM88.4242 95.2997H86.9242V96.7997H88.4242V95.2997ZM90.7381 95.0398L89.8066 93.864L89.7992 93.87L90.7381 95.0398ZM90.9086 93.7358L89.6439 94.5425L89.6504 94.5525L90.9086 93.7358ZM90.4611 93.3565L89.8224 94.7138L89.8306 94.7176L89.8389 94.7214L90.4611 93.3565ZM88.4242 93.2202V91.7202H86.9242V93.2202H88.4242ZM88.4242 91.8608H86.9242V93.3608H88.4242V91.8608ZM90.623 91.4134L89.3976 90.5483L89.3919 90.5564L89.3863 90.5646L90.623 91.4134ZM90.4654 90.1989L91.4083 89.0323L91.4083 89.0323L90.4654 90.1989ZM88.4242 89.9474V88.4474H86.9242V89.9474H88.4242ZM87.8148 97V88.2727H84.8148V97H87.8148ZM86.3148 89.7727H89.954V86.7727H86.3148V89.7727ZM89.954 89.7727C90.477 89.7727 90.8122 89.8481 91.0145 89.933L92.1747 87.1664C91.4964 86.882 90.7378 86.7727 89.954 86.7727V89.7727ZM91.0177 89.9343C91.2435 90.0284 91.3171 90.1174 91.3437 90.1573L93.8399 88.4932C93.4233 87.8684 92.8321 87.4403 92.1716 87.1651L91.0177 89.9343ZM91.3486 90.1647C91.3905 90.2266 91.4284 90.3134 91.4284 90.4801H94.4284C94.4284 89.7719 94.242 89.0887 93.8349 88.4859L91.3486 90.1647ZM91.4284 90.4801C91.4284 90.5971 91.4058 90.6468 91.3957 90.6656L94.0436 92.0759C94.3119 91.572 94.4284 91.0279 94.4284 90.4801H91.4284ZM91.3989 90.6596C91.3728 90.7082 91.3407 90.7459 91.2861 90.784L93.0026 93.2444C93.4367 92.9416 93.7881 92.5504 94.0403 92.0819L91.3989 90.6596ZM91.2861 90.784C91.2223 90.8285 91.1295 90.8741 90.9847 90.9049L91.608 93.8394C92.1052 93.7338 92.5778 93.5408 93.0026 93.2444L91.2861 90.784ZM89.7963 92.3722V92.4574H92.7963V92.3722H89.7963ZM91.2238 93.9556C91.3418 93.9613 91.4328 93.99 91.5187 94.0399L93.0257 91.4459C92.515 91.1492 91.9554 90.9875 91.3688 90.9591L91.2238 93.9556ZM91.524 94.043C91.5918 94.082 91.6485 94.1338 91.7031 94.2268L94.2901 92.7078C93.9811 92.1816 93.5549 91.7504 93.0204 91.4428L91.524 94.043ZM91.7062 94.232C91.728 94.2689 91.7694 94.3583 91.7694 94.5582H94.7694C94.7694 93.9173 94.6289 93.2794 94.2871 92.7026L91.7062 94.232ZM91.7694 94.5582C91.7694 94.7581 91.7229 94.8908 91.6515 95.0013L94.1713 96.6294C94.5772 96.0013 94.7694 95.2958 94.7694 94.5582H91.7694ZM91.6544 94.9968C91.5882 95.0985 91.4726 95.2164 91.236 95.328L92.5158 98.0413C93.1826 97.7268 93.7573 97.2651 94.1684 96.6339L91.6544 94.9968ZM91.243 95.3247C91.0388 95.4197 90.7191 95.5 90.231 95.5V98.5C91.0327 98.5 91.8095 98.37 92.5088 98.0446L91.243 95.3247ZM90.231 95.5H86.3148V98.5H90.231V95.5ZM88.4242 96.7997H89.7282V93.7997H88.4242V96.7997ZM89.7282 96.7997C90.3219 96.7997 91.0699 96.6969 91.677 96.2096L89.7992 93.87C89.8941 93.7938 89.9629 93.7787 89.9498 93.7821C89.9443 93.7835 89.9241 93.7881 89.8858 93.7923C89.8477 93.7965 89.7958 93.7997 89.7282 93.7997V96.7997ZM91.6695 96.2155C92.29 95.724 92.5662 95.0259 92.5662 94.3153H89.5662C89.5662 94.2923 89.5709 94.2135 89.6178 94.1098C89.6669 94.0014 89.739 93.9176 89.8067 93.864L91.6695 96.2155ZM92.5662 94.3153C92.5662 93.8492 92.454 93.3616 92.1667 92.9191L89.6504 94.5525C89.6152 94.4984 89.5924 94.4436 89.5794 94.3959C89.5669 94.3497 89.5662 94.3203 89.5662 94.3153H92.5662ZM92.1732 92.9291C91.8988 92.4991 91.5163 92.1891 91.0833 91.9917L89.8389 94.7214C89.8207 94.7131 89.7872 94.6949 89.748 94.6617C89.708 94.6278 89.6722 94.5868 89.644 94.5425L92.1732 92.9291ZM91.0998 91.9993C90.6613 91.793 90.2007 91.7202 89.7665 91.7202V94.7202C89.8721 94.7202 89.8745 94.7383 89.8224 94.7138L91.0998 91.9993ZM89.7665 91.7202H88.4242V94.7202H89.7665V91.7202ZM86.9242 93.2202V95.2997H89.9242V93.2202H86.9242ZM88.4242 93.3608H89.5918V90.3608H88.4242V93.3608ZM89.5918 93.3608C89.9887 93.3608 90.3999 93.2944 90.7963 93.1245L89.6146 90.367C89.6327 90.3592 89.643 90.3574 89.6414 90.3577C89.6392 90.3581 89.6237 90.3608 89.5918 90.3608V93.3608ZM90.7963 93.1245C91.2072 92.9483 91.5826 92.6661 91.8598 92.2621L89.3863 90.5646C89.4218 90.5128 89.4646 90.4676 89.51 90.4315C89.5545 90.3961 89.5925 90.3765 89.6146 90.367L90.7963 93.1245ZM91.8485 92.2784C92.1558 91.8431 92.2765 91.3544 92.2765 90.8892H89.2765C89.2765 90.8662 89.2794 90.8175 89.2985 90.7523C89.3181 90.6852 89.3509 90.6145 89.3976 90.5483L91.8485 92.2784ZM92.2765 90.8892C92.2765 90.1938 92.0053 89.5148 91.4083 89.0323L89.5225 91.3655C89.4541 91.3102 89.3812 91.2246 89.3311 91.1134C89.2828 91.0063 89.2765 90.9217 89.2765 90.8892H92.2765ZM91.4083 89.0323C90.8589 88.5883 90.2105 88.4474 89.6259 88.4474V91.4474C89.6852 91.4474 89.6946 91.4547 89.6696 91.4472C89.6407 91.4386 89.5843 91.4155 89.5225 91.3655L91.4083 89.0323ZM89.6259 88.4474H88.4242V91.4474H89.6259V88.4474ZM86.9242 89.9474V91.8608H89.9242V89.9474H86.9242Z" fill="white" mask="url(#path-6-outside-1_499_2865)"/>
<defs>
<clipPath id="clip0_499_2865">
<rect width="56.022" height="99.5946" fill="white" transform="translate(22)"/>
</clipPath>
</defs>
</svg>
