<svg width="100" height="100" viewBox="0 0 100 100" fill="none" xmlns="http://www.w3.org/2000/svg">
<g clip-path="url(#clip0_403_401)">
<path d="M49.9702 42.2802L25.7702 49.2802C25.7702 49.2802 16.6702 23.8802 16.0702 22.2802C16.0702 22.2802 9.77022 20.1802 10.5702 15.2802C11.9702 6.68021 20.9702 9.48021 20.9702 9.48021C20.9702 9.48021 21.8702 3.88021 25.9702 2.48021C30.0702 1.08021 33.7702 2.88021 34.1702 6.08021C34.1702 6.08021 40.5702 3.18021 43.4702 5.58021C46.3702 7.98021 46.5702 13.0802 43.0702 16.3802L49.9702 42.2802Z" fill="white" stroke="black" stroke-width="0.99" stroke-linecap="round" stroke-linejoin="round"/>
<path d="M50.7701 74.4803C49.0701 74.5803 47.7701 73.1803 46.0701 72.9803H45.2701C43.6701 72.3803 39.7701 72.5803 37.9701 73.2803C36.1701 73.9803 32.9701 79.9803 33.1701 82.5803C33.1701 83.0803 33.6701 83.6803 33.9701 83.6803C34.7701 83.7803 36.1701 81.1803 37.5701 79.7803C37.6701 80.0803 37.5701 80.3803 37.5701 80.6803C37.5701 81.1803 37.3701 83.1803 37.4701 83.5803C37.4701 83.7803 37.2701 92.7803 38.4701 92.9803C39.0701 93.0803 40.2701 92.9803 40.9701 92.9803C41.5701 92.8803 41.7701 92.9803 41.9701 92.3803C42.1701 91.8803 41.7701 87.4803 41.7701 87.0803C42.0701 86.9803 43.9701 87.0803 43.9701 87.0803V90.2803C44.0701 91.3803 43.8701 92.6803 44.4701 92.8803C44.7701 92.9803 47.1701 92.9803 47.7701 92.7803C48.1701 92.5803 47.7701 85.4803 47.4701 83.9803C47.2701 82.8803 46.9701 80.3803 46.8701 79.2803L46.6701 78.5803H49.1701C49.7701 78.5803 50.4701 78.5803 51.0701 78.4803C51.9701 78.3803 52.9701 78.0803 53.7701 77.6803C54.5701 77.2803 55.2701 76.7803 55.5701 75.9803C56.8701 73.1803 52.4701 74.3803 50.7701 74.4803Z" fill="#CBDB2A" stroke="black" stroke-width="0.99" stroke-linecap="round" stroke-linejoin="round"/>
<path d="M37.4705 84.9793C37.4705 84.9793 37.1705 88.3793 37.3705 91.0793C37.3705 91.0793 40.5705 92.8793 42.3705 90.8793L42.8705 87.5793L43.9705 90.7793C43.9705 90.7793 45.3705 92.1793 48.5705 90.8793C48.5705 90.8793 48.1705 86.7793 47.4705 84.7793L37.4705 84.9793Z" fill="white" stroke="black" stroke-width="0.99" stroke-linecap="round" stroke-linejoin="round"/>
<path d="M37.3707 84.0797L36.4707 88.7797C41.6707 88.9797 44.8707 88.1797 48.6707 88.0797C47.9707 85.7797 46.8707 83.6797 46.8707 83.6797" fill="white"/>
<path d="M37.3707 84.0797L36.4707 88.7797C41.6707 88.9797 44.8707 88.1797 48.6707 88.0797C47.9707 85.7797 46.8707 83.6797 46.8707 83.6797" stroke="black" stroke-width="0.99" stroke-linecap="round" stroke-linejoin="round"/>
<path d="M36.7705 73.8793C36.7705 73.8793 34.7705 75.8793 33.2705 78.8793L35.8705 82.6793L37.4705 79.7793C37.4705 79.7793 36.6705 83.2793 36.5705 85.2793C36.5705 85.2793 43.5705 85.7793 48.0705 84.9793L46.5705 78.6793C46.5705 78.6793 48.8705 79.1793 49.7705 79.1793C49.7705 79.1793 49.3705 75.6793 50.6705 73.7793C50.6705 73.7793 45.1705 72.3793 44.4705 72.2793L36.7705 73.8793Z" fill="white" stroke="black" stroke-width="0.99" stroke-linecap="round" stroke-linejoin="round"/>
<path d="M39.5705 80.8793C40.0123 80.8793 40.3705 80.5211 40.3705 80.0793C40.3705 79.6375 40.0123 79.2793 39.5705 79.2793C39.1287 79.2793 38.7705 79.6375 38.7705 80.0793C38.7705 80.5211 39.1287 80.8793 39.5705 80.8793Z" fill="white" stroke="black" stroke-width="0.99" stroke-linecap="round" stroke-linejoin="round"/>
<path d="M39.6701 83.8793C40.1119 83.8793 40.4701 83.5211 40.4701 83.0793C40.4701 82.6375 40.1119 82.2793 39.6701 82.2793C39.2283 82.2793 38.8701 82.6375 38.8701 83.0793C38.8701 83.5211 39.2283 83.8793 39.6701 83.8793Z" fill="white" stroke="black" stroke-width="0.99" stroke-linecap="round" stroke-linejoin="round"/>
<path d="M45.0705 80.8793C45.5123 80.8793 45.8705 80.5211 45.8705 80.0793C45.8705 79.6375 45.5123 79.2793 45.0705 79.2793C44.6287 79.2793 44.2705 79.6375 44.2705 80.0793C44.2705 80.5211 44.6287 80.8793 45.0705 80.8793Z" fill="white" stroke="black" stroke-width="0.99" stroke-linecap="round" stroke-linejoin="round"/>
<path d="M45.3703 83.8793C45.8121 83.8793 46.1703 83.5211 46.1703 83.0793C46.1703 82.6375 45.8121 82.2793 45.3703 82.2793C44.9285 82.2793 44.5703 82.6375 44.5703 83.0793C44.5703 83.5211 44.9285 83.8793 45.3703 83.8793Z" fill="white" stroke="black" stroke-width="0.99" stroke-linecap="round" stroke-linejoin="round"/>
<path d="M46.7699 71.6797C47.1699 71.8797 47.5699 72.1797 47.6699 72.5797C47.7699 73.0797 47.5699 73.5797 47.2699 74.0797C46.8699 74.8797 46.2699 75.6797 45.4699 76.1797C45.0699 76.3797 44.6699 76.5797 44.2699 76.6797C42.7699 77.1797 40.6699 76.7797 39.3699 76.4797C36.3699 75.7797 36.7699 73.8797 37.1699 73.4797" fill="#066EB7"/>
<path d="M46.7699 71.6797C47.1699 71.8797 47.5699 72.1797 47.6699 72.5797C47.7699 73.0797 47.5699 73.5797 47.2699 74.0797C46.8699 74.8797 46.2699 75.6797 45.4699 76.1797C45.0699 76.3797 44.6699 76.5797 44.2699 76.6797C42.7699 77.1797 40.6699 76.7797 39.3699 76.4797C36.3699 75.7797 36.7699 73.8797 37.1699 73.4797" stroke="black" stroke-width="0.99" stroke-linecap="round" stroke-linejoin="round"/>
<path d="M43.5697 76.2793C44.9697 77.9793 45.1697 80.6793 44.0697 82.5793C43.7697 82.1793 43.3697 81.7793 43.0697 81.3793C42.7697 80.9793 42.4697 80.5793 42.2697 80.1793C42.0697 79.6793 41.9697 79.1793 41.9697 78.6793C41.9697 77.8793 42.0697 77.1793 42.3697 76.4793C42.3697 76.3793 42.4697 76.2793 42.5697 76.2793" fill="#066EB7"/>
<path d="M43.5697 76.2793C44.9697 77.9793 45.1697 80.6793 44.0697 82.5793C43.7697 82.1793 43.3697 81.7793 43.0697 81.3793C42.7697 80.9793 42.4697 80.5793 42.2697 80.1793C42.0697 79.6793 41.9697 79.1793 41.9697 78.6793C41.9697 77.8793 42.0697 77.1793 42.3697 76.4793C42.3697 76.3793 42.4697 76.2793 42.5697 76.2793" stroke="black" stroke-width="0.99" stroke-linecap="round" stroke-linejoin="round"/>
<path d="M44.3697 75.9805C45.8697 75.9805 47.2697 76.7805 48.0697 78.0805C48.5697 78.8805 48.7697 79.7805 49.4697 80.3805C47.2697 80.2805 45.1697 79.0805 43.9697 77.2805" fill="#066EB7"/>
<path d="M44.3697 75.9805C45.8697 75.9805 47.2697 76.7805 48.0697 78.0805C48.5697 78.8805 48.7697 79.7805 49.4697 80.3805C47.2697 80.2805 45.1697 79.0805 43.9697 77.2805" stroke="black" stroke-width="0.99" stroke-linecap="round" stroke-linejoin="round"/>
<path d="M41.8698 76.1789C41.6698 75.8789 42.4698 74.3789 43.3698 74.3789C44.2698 74.3789 44.9698 74.9789 44.9698 75.8789C44.9698 76.1789 44.7698 76.3789 44.5698 76.5789C44.2698 76.8789 43.7698 77.2789 43.2698 77.1789C43.1698 77.2789 42.0698 76.5789 41.8698 76.1789Z" fill="#066EB7" stroke="black" stroke-width="0.99" stroke-linecap="round" stroke-linejoin="round"/>
<path d="M49.6701 31.6805C48.0701 30.1805 44.9701 30.4805 43.0701 31.4805C41.3701 32.3805 40.1701 33.5805 40.2701 35.3805C40.3701 36.3805 40.4701 37.5805 40.4701 38.5805C39.5701 38.5805 32.9701 41.2805 32.1701 41.0805C31.5701 40.9805 29.8701 37.4805 28.7701 36.4805C27.1701 34.9805 25.3701 34.5805 23.2701 34.4805C13.2701 33.9805 17.6701 44.3805 18.0701 45.1805C19.5701 48.2805 17.3701 51.9805 16.0701 54.8805C14.0701 59.4805 13.8701 64.8805 17.1701 68.7805C21.7701 74.0805 32.5701 75.9805 40.6701 74.8805C43.2701 74.5805 47.8701 73.5805 50.3701 72.6805C53.4701 71.5805 56.8701 69.6805 58.9701 67.2805C64.4701 61.0805 64.6701 52.0805 58.5701 47.0805C56.7701 45.4805 51.4701 33.3805 49.6701 31.6805Z" fill="#CBDB2A" stroke="black" stroke-width="0.99" stroke-linecap="round" stroke-linejoin="round"/>
<path d="M51.0707 48.9805C51.0707 48.9805 48.3707 56.9805 42.5707 57.8805C35.4707 58.9805 28.4707 53.3805 28.4707 53.3805C28.4707 53.3805 33.6707 65.6805 42.9707 63.8805C52.2707 62.2805 51.0707 48.9805 51.0707 48.9805Z" fill="white" stroke="black" stroke-width="0.99" stroke-linecap="round" stroke-linejoin="round"/>
<path d="M19.4703 36.9799C20.6703 34.7799 23.2703 33.4799 25.6703 34.5799C28.4703 35.8799 30.4703 31.5799 27.6703 30.2799C22.8703 27.9799 17.5703 30.4799 15.1703 34.9799C13.6703 37.5799 17.9703 39.6799 19.4703 36.9799Z" fill="black"/>
<path d="M30.5703 37.9804C30.7703 40.6804 28.4703 43.0804 25.4703 43.2804C22.4703 43.4804 19.8703 41.4804 19.6703 38.6804C19.4703 35.8804 21.7703 33.5804 24.7703 33.3804C27.7703 33.1804 30.3703 35.2804 30.5703 37.9804Z" fill="white" stroke="black" stroke-width="0.99" stroke-linecap="round" stroke-linejoin="round"/>
<path d="M23.0699 38.0796C22.9699 36.2796 24.2699 34.6796 26.0699 34.5796C27.8699 34.4796 29.4699 35.7796 29.5699 37.5796C29.6699 39.3796 28.3699 40.9796 26.5699 41.0796C24.7699 41.2796 23.1699 39.8796 23.0699 38.0796Z" fill="black" stroke="black" stroke-width="0.99" stroke-linecap="round" stroke-linejoin="round"/>
<path d="M27.3701 36.7801C27.3701 36.4801 27.5701 36.1801 27.9701 36.0801C28.2701 36.0801 28.5701 36.2801 28.6701 36.6801C28.6701 36.9801 28.4701 37.2801 28.0701 37.3801C27.6701 37.3801 27.3701 37.0801 27.3701 36.7801Z" fill="white"/>
<path d="M52.3706 26.9803C48.1706 24.7803 42.7706 25.7803 39.5706 29.3803C37.6706 31.5803 41.0706 34.4803 42.9706 32.2803C44.8706 30.1803 47.9706 29.7803 50.3706 31.0803C52.9706 32.3803 54.9706 28.3803 52.3706 26.9803Z" fill="black"/>
<path d="M53.2705 33.7812C53.4705 36.4812 51.1705 38.8812 48.1705 39.0812C45.1705 39.2812 42.5705 37.2812 42.3705 34.4812C42.1705 31.6812 44.4705 29.3812 47.4705 29.1812C50.4705 28.9812 53.0705 31.0812 53.2705 33.7812Z" fill="white" stroke="black" stroke-width="0.99" stroke-linecap="round" stroke-linejoin="round"/>
<path d="M45.6704 33.8804C45.5704 32.0804 46.8704 30.4804 48.6704 30.3804C50.4704 30.2804 52.0704 31.5804 52.1704 33.3804C52.2704 35.1804 50.9704 36.7804 49.1704 36.8804C47.3704 37.0804 45.8704 35.7804 45.6704 33.8804Z" fill="black" stroke="black" stroke-width="0.99" stroke-linecap="round" stroke-linejoin="round"/>
<path d="M49.6699 32.5809C49.6699 32.2809 49.8699 31.9809 50.2699 31.8809C50.5699 31.8809 50.8699 32.0809 50.9699 32.4809C50.9699 32.7809 50.7699 33.0809 50.3699 33.1809C49.9699 33.1809 49.6699 32.9809 49.6699 32.5809Z" fill="white"/>
<path d="M36.2705 90.7809C35.6705 90.9809 35.2705 91.3809 35.2705 91.9809C35.2705 92.6809 35.6705 93.3809 36.2705 93.7809C36.8705 94.1809 37.6705 94.0809 38.3705 93.9809C39.6705 93.7809 40.8705 93.4809 42.1705 93.4809C43.0705 93.4809 42.5705 91.1809 42.3705 90.9809C40.9705 91.4809 39.8705 90.8809 39.3705 90.6809C38.6705 90.4809 37.1705 90.3809 36.2705 90.7809Z" fill="#594A42" stroke="black" stroke-width="0.99" stroke-linecap="round" stroke-linejoin="round"/>
<path d="M49.6703 89.5793C50.7703 90.0793 51.4703 91.5793 50.3703 92.5793C49.8703 93.0793 49.0703 93.0793 48.3703 93.0793C47.0703 93.0793 45.7703 93.0793 44.5703 93.1793C43.6703 93.2793 43.7703 90.9793 43.9703 90.6793C45.4703 90.9793 46.3703 90.1793 46.8703 89.8793C47.4703 89.5793 48.0703 89.3793 48.6703 89.2793C48.9703 89.2793 49.3703 89.3793 49.6703 89.5793Z" fill="#594A42" stroke="black" stroke-width="0.99" stroke-linecap="round" stroke-linejoin="round"/>
<path d="M74.1805 69.5241L57.6357 72.4414L58.1393 75.2974L74.6841 72.3801L74.1805 69.5241Z" fill="#58595B" stroke="black" stroke-width="0.99" stroke-linecap="round" stroke-linejoin="round"/>
<path d="M62.3552 71.1479L52.7041 72.8496L53.364 76.5919L63.0151 74.8901L62.3552 71.1479Z" fill="#8B5E3C" stroke="black" stroke-width="0.99" stroke-linecap="round" stroke-linejoin="round"/>
<path d="M77.4855 71.2998C84.5018 70.0626 89.9097 67.4724 89.5644 65.5144C89.2192 63.5564 83.2515 62.972 76.2353 64.2092C69.219 65.4463 63.8111 68.0365 64.1564 69.9945C64.5016 71.9525 70.4693 72.5369 77.4855 71.2998Z" fill="#58595B" stroke="black" stroke-width="0.99" stroke-linecap="round" stroke-linejoin="round"/>
<path d="M77.8224 73.627C82.8806 72.7351 86.7245 70.557 86.408 68.7622C86.0916 66.9673 81.7345 66.2354 76.6763 67.1273C71.6181 68.0192 67.7741 70.1972 68.0906 71.992C68.4071 73.7869 72.7642 74.5189 77.8224 73.627Z" fill="#58595B" stroke="black" stroke-width="0.99" stroke-linecap="round" stroke-linejoin="round"/>
<path d="M89.5699 65.4805C89.8699 67.4805 84.4699 69.9805 77.4699 71.2805C70.4699 72.5805 64.4699 71.9805 64.1699 69.9805C64.1699 69.9805 64.2699 76.0805 77.8699 73.6805C91.5699 71.2805 89.5699 65.4805 89.5699 65.4805Z" fill="#58595B" stroke="black" stroke-width="0.99" stroke-linecap="round" stroke-linejoin="round"/>
<path d="M70.1698 61.9807C71.5698 61.4807 72.8698 60.7807 74.3698 60.6807C76.0698 60.5807 77.6697 59.6807 78.7697 58.4807C79.9697 57.0807 80.2698 55.1807 81.1698 53.6807C81.8698 52.5807 82.6698 50.3807 81.3698 49.4807C80.6698 48.9807 79.7698 49.2807 79.0698 49.6807C78.3698 50.0807 77.9698 50.8807 77.4698 51.5807C75.1698 54.4807 71.5698 56.2807 68.5698 58.1807C67.6698 58.6807 66.6698 60.1807 67.1698 61.2807C67.4698 61.8807 68.0698 62.0807 68.6698 62.1807C69.0698 62.2807 69.6698 62.1807 70.1698 61.9807Z" fill="white" stroke="black" stroke-width="0.99" stroke-linecap="round" stroke-linejoin="round"/>
<path d="M74.6497 56.4048C76.2332 55.2961 77.1059 53.8105 76.5991 53.0866C76.0922 52.3628 74.3977 52.6748 72.8143 53.7835C71.2309 54.8922 70.3581 56.3778 70.865 57.1017C71.3718 57.8255 73.0663 57.5135 74.6497 56.4048Z" fill="#FFCB05" stroke="black" stroke-width="0.99" stroke-linecap="round" stroke-linejoin="round"/>
</g>
<defs>
<clipPath id="clip0_403_401">
<rect width="80.16" height="93.06" fill="white" transform="translate(10 1.5)"/>
</clipPath>
</defs>
</svg>
