<svg width="100" height="100" viewBox="0 0 100 100" fill="none" xmlns="http://www.w3.org/2000/svg">
<g clip-path="url(#clip0_403_396)">
<path d="M59.1501 64.3106C59.1501 64.3106 71.1501 60.6106 73.3501 53.1106C75.5501 45.6106 71.5501 33.3106 59.6501 29.0106C59.6501 29.0106 62.4501 0.310647 51.5501 1.01065C40.6501 1.71065 49.3501 28.3106 49.3501 28.3106C46.0501 28.2106 43.4501 29.0106 41.0501 30.1106C41.0501 30.1106 38.0501 1.31065 27.2501 4.61065C18.6501 7.21065 26.9501 27.8106 31.2501 33.1106C31.2501 33.1106 24.6501 37.1106 24.7501 49.1106C24.9501 65.3106 41.8501 67.1107 51.7501 67.4107" fill="white"/>
<path d="M59.1501 64.3106C59.1501 64.3106 71.1501 60.6106 73.3501 53.1106C75.5501 45.6106 71.5501 33.3106 59.6501 29.0106C59.6501 29.0106 62.4501 0.310647 51.5501 1.01065C40.6501 1.71065 49.3501 28.3106 49.3501 28.3106C46.0501 28.2106 43.4501 29.0106 41.0501 30.1106C41.0501 30.1106 38.0501 1.31065 27.2501 4.61065C18.6501 7.21065 26.9501 27.8106 31.2501 33.1106C31.2501 33.1106 24.6501 37.1106 24.7501 49.1106C24.9501 65.3106 41.8501 67.1107 51.7501 67.4107" stroke="black" stroke-width="0.99" stroke-linecap="round" stroke-linejoin="round"/>
<path d="M58.75 73.5102C58.75 73.5102 62.65 72.4102 65.75 73.2102C68.85 74.0102 66.55 75.8102 65.95 75.8102C65.35 75.8102 60.75 77.1102 59.55 78.2102C59.55 78.2102 60.75 79.5102 60.65 83.4102C60.65 85.1102 58.65 87.6102 58.65 87.6102C56.85 89.7102 51.35 89.3102 51.35 89.3102C51.05 91.5102 50.55 95.7102 47.25 95.0102C44.25 94.3102 48.05 88.7102 48.05 88.7102C43.35 85.7102 44.95 79.2102 44.95 79.2102C40.95 76.0102 39.85 72.2102 40.15 71.2102C40.55 70.2102 41.35 69.2102 42.45 70.7102C45.15 74.1102 47.85 75.6102 47.85 75.6102" fill="white"/>
<path d="M58.75 73.5102C58.75 73.5102 62.65 72.4102 65.75 73.2102C68.85 74.0102 66.55 75.8102 65.95 75.8102C65.35 75.8102 60.75 77.1102 59.55 78.2102C59.55 78.2102 60.75 79.5102 60.65 83.4102C60.65 85.1102 58.65 87.6102 58.65 87.6102C56.85 89.7102 51.35 89.3102 51.35 89.3102C51.05 91.5102 50.55 95.7102 47.25 95.0102C44.25 94.3102 48.05 88.7102 48.05 88.7102C43.35 85.7102 44.95 79.2102 44.95 79.2102C40.95 76.0102 39.85 72.2102 40.15 71.2102C40.55 70.2102 41.35 69.2102 42.45 70.7102C45.15 74.1102 47.85 75.6102 47.85 75.6102" stroke="black" stroke-width="0.99" stroke-linecap="round" stroke-linejoin="round"/>
<path d="M59.1502 83.2115C59.1502 83.2115 60.4502 79.4115 62.6502 80.0115C64.8502 80.6115 63.3502 84.6115 62.4502 86.0115C61.5502 87.4115 59.8502 91.0115 58.0502 89.6115C56.9502 88.8115 57.6502 87.0115 57.6502 87.0115" fill="white"/>
<path d="M59.1502 83.2115C59.1502 83.2115 60.4502 79.4115 62.6502 80.0115C64.8502 80.6115 63.3502 84.6115 62.4502 86.0115C61.5502 87.4115 59.8502 91.0115 58.0502 89.6115C56.9502 88.8115 57.6502 87.0115 57.6502 87.0115" stroke="black" stroke-width="0.99" stroke-linecap="round" stroke-linejoin="round"/>
<path d="M50.0498 79.8105C50.0498 78.2105 51.3498 76.8105 53.0498 76.8105C54.7498 76.8105 56.0498 78.1105 56.0498 79.8105C56.0498 81.4105 54.7498 82.8105 53.0498 82.8105C51.3498 82.8105 50.0498 81.4105 50.0498 79.8105Z" fill="#ED1C24"/>
<path d="M52.95 83.0113C51.15 83.0113 49.75 81.5113 49.75 79.8113C49.75 78.0113 51.25 76.6113 52.95 76.6113C54.75 76.6113 56.15 78.1113 56.15 79.8113C56.25 81.6113 54.75 83.0113 52.95 83.0113ZM52.95 77.1113C51.45 77.1113 50.25 78.3113 50.25 79.8113C50.25 81.3113 51.45 82.5113 52.95 82.5113C54.45 82.5113 55.65 81.3113 55.65 79.8113C55.75 78.3113 54.45 77.1113 52.95 77.1113Z" fill="#F7941D"/>
<path d="M54.4501 78.3109C54.4501 78.5109 54.4501 78.6109 54.3501 78.7109C54.2501 78.8109 54.1501 78.8109 54.0501 78.8109H52.7501C52.6834 78.8109 52.6501 78.8443 52.6501 78.9109V79.4109H53.8501C53.9501 79.4109 54.0501 79.4109 54.1501 79.6109C54.2501 79.7109 54.2501 79.8109 54.2501 80.0109C54.2501 80.2109 54.2501 80.3109 54.1501 80.4109C54.0501 80.5109 53.9501 80.5109 53.8501 80.5109H52.6501V81.2109C52.6501 81.4109 52.6501 81.6109 52.5501 81.7109C52.4501 81.8109 52.3501 81.9109 52.2501 81.9109C52.1501 81.9109 51.9501 81.8109 51.9501 81.7109C51.9501 81.6109 51.8501 81.4109 51.8501 81.2109V78.4109C51.8501 77.9109 52.0501 77.7109 52.3501 77.7109H54.0501C54.1501 77.7109 54.2501 77.7109 54.3501 77.8109C54.4501 78.0109 54.4501 78.1109 54.4501 78.3109Z" fill="white"/>
<path d="M63.6502 32.0101C62.1502 30.3101 58.9502 30.4101 56.9502 31.3101C55.1502 32.1101 53.8502 33.2101 53.8502 35.1101C53.8502 36.2101 53.9502 37.3101 53.8502 38.4101C52.9502 38.4101 46.0502 40.6101 45.2502 40.4101C44.6502 40.2101 43.1502 36.5101 42.1502 35.5101C40.6502 33.9101 38.8502 33.3101 36.6502 33.0101C26.4502 31.8101 30.1502 42.7101 30.5502 43.5101C31.8502 46.8101 29.3502 50.4101 27.8502 53.2101C25.4502 57.7101 24.8502 63.2101 27.9502 67.4101C32.2502 73.1101 43.1502 75.8101 51.4502 75.3101C54.1502 75.1101 58.9502 74.5101 61.4502 73.8101C64.7502 72.8101 68.3502 71.2101 70.6502 68.9101C76.6502 62.9101 77.5502 53.7101 71.6502 48.2101C69.8502 46.7101 65.3502 33.9101 63.6502 32.0101Z" fill="#CBDB2A" stroke="black" stroke-width="0.99" stroke-linecap="round" stroke-linejoin="round"/>
<path d="M63.7501 49.8105C63.7501 49.8105 60.4501 57.8105 54.4501 58.3105C47.0501 58.9105 40.3501 52.7105 40.3501 52.7105C40.3501 52.7105 44.8501 65.7105 54.4501 64.5105C64.1501 63.4105 63.7501 49.8105 63.7501 49.8105Z" fill="white" stroke="black" stroke-width="0.99" stroke-linecap="round" stroke-linejoin="round"/>
<path d="M32.4499 35.31C33.2499 34.11 34.3499 33.21 35.6499 32.81C36.8499 32.51 37.9499 32.61 38.8499 33.21C41.5499 34.81 44.0499 30.61 41.3499 29.01C36.7499 26.21 30.9499 28.51 28.2499 32.81C26.5499 35.51 30.7499 38.01 32.4499 35.31Z" fill="black"/>
<path d="M32.3501 37.1098C32.3501 39.9098 34.8501 42.2098 37.9501 42.2098C41.0501 42.2098 43.5501 39.9098 43.5501 37.1098C43.5501 34.3098 41.0501 32.0098 37.9501 32.0098C34.9501 32.1098 32.3501 34.3098 32.3501 37.1098Z" fill="white" stroke="black" stroke-width="0.99" stroke-linecap="round" stroke-linejoin="round"/>
<path d="M42.4501 37.1105C42.4501 35.2105 40.9501 33.8105 39.1501 33.8105C37.3501 33.8105 35.8501 35.3105 35.8501 37.1105C35.8501 38.9105 37.3501 40.4105 39.1501 40.4105C40.9501 40.5105 42.4501 39.0105 42.4501 37.1105Z" fill="black" stroke="black" stroke-width="0.99" stroke-linecap="round" stroke-linejoin="round"/>
<path d="M41.3499 36.8109C41.3499 36.4109 41.0499 36.2109 40.7499 36.2109C40.4499 36.2109 40.1499 36.5109 40.1499 36.8109C40.1499 37.1109 40.4499 37.4109 40.7499 37.4109C41.0499 37.4109 41.3499 37.2109 41.3499 36.8109Z" fill="white"/>
<path d="M66.7502 27.5113C62.7502 24.9113 56.9502 25.5113 53.5502 29.0113C51.4502 31.1113 54.7502 34.4113 56.7502 32.2113C58.7502 30.2113 62.0502 30.0113 64.3502 31.5113C66.9502 33.1113 69.2502 29.1113 66.7502 27.5113Z" fill="black"/>
<path d="M55.8501 34.5102C55.8501 37.3102 58.3501 39.6102 61.4501 39.6102C64.5501 39.6102 67.0501 37.3102 67.0501 34.5102C67.0501 31.7102 64.5501 29.4102 61.4501 29.4102C58.3501 29.4102 55.8501 31.7102 55.8501 34.5102Z" fill="white" stroke="black" stroke-width="0.99" stroke-linecap="round" stroke-linejoin="round"/>
<path d="M65.9501 34.5109C65.9501 32.6109 64.4501 31.2109 62.6501 31.2109C60.8501 31.2109 59.3501 32.7109 59.3501 34.5109C59.3501 36.3109 60.8501 37.8109 62.6501 37.8109C64.4501 37.8109 65.9501 36.3109 65.9501 34.5109Z" fill="black" stroke="black" stroke-width="0.99" stroke-linecap="round" stroke-linejoin="round"/>
<path d="M65.2503 34.2113C65.2503 33.8113 64.9503 33.6113 64.6503 33.6113C64.3503 33.6113 64.0503 33.9113 64.0503 34.2113C64.0503 34.6113 64.3503 34.8113 64.6503 34.8113C64.9503 34.8113 65.2503 34.5113 65.2503 34.2113Z" fill="white"/>
<path d="M44.7503 79.2102C40.7503 76.0102 39.6503 72.2102 39.9503 71.2102C40.3503 70.2102 41.1503 69.2102 42.2503 70.7102C44.9503 74.1102 47.6503 75.6102 47.6503 75.6102" fill="white"/>
<path d="M44.7503 79.2102C40.7503 76.0102 39.6503 72.2102 39.9503 71.2102C40.3503 70.2102 41.1503 69.2102 42.2503 70.7102C44.9503 74.1102 47.6503 75.6102 47.6503 75.6102" stroke="black" stroke-width="0.99" stroke-linecap="round" stroke-linejoin="round"/>
<path d="M58.7499 76.3102C58.7499 75.2102 58.7499 72.9102 57.1499 72.9102C55.8499 72.9102 54.4499 73.5102 53.5499 74.4102C53.1499 74.2102 52.5499 74.2102 52.2499 74.2102C52.0499 74.2102 51.8499 74.3102 51.7499 74.3102C51.6499 74.3102 51.5499 74.4102 51.5499 74.5102C50.5499 73.6102 49.1499 73.2102 47.7499 73.3102C46.2499 73.5102 46.4499 75.7102 46.5499 76.8102C46.5499 77.4102 46.7499 78.1102 47.2499 78.5102C47.8499 78.9102 48.6499 78.8102 49.2499 78.6102C50.2499 78.2102 51.1499 77.6102 51.9499 76.8102C52.4499 77.1102 53.0499 77.1102 53.4499 76.8102C54.2499 77.5102 55.1499 77.9102 56.1499 78.2102C56.8499 78.4102 57.6499 78.4102 58.1499 77.9102C58.7499 77.6102 58.7499 76.9102 58.7499 76.3102Z" fill="#73D0EE" stroke="black" stroke-width="0.99" stroke-linecap="round" stroke-linejoin="round"/>
<path d="M51.7503 74.4102C50.9503 74.8102 51.1503 76.3102 51.7503 76.8102C52.2503 77.2102 52.9503 77.2102 53.4503 76.9102C54.2503 76.5102 54.5503 75.5102 54.0503 74.8102C53.6503 74.3102 52.8503 74.2102 52.2503 74.3102C52.0503 74.3102 51.9503 74.3102 51.7503 74.4102Z" stroke="black" stroke-width="0.99" stroke-linecap="round" stroke-linejoin="round"/>
</g>
<defs>
<clipPath id="clip0_403_396">
<rect width="53.13" height="95.08" fill="white" transform="translate(23 0.5)"/>
</clipPath>
</defs>
</svg>
