<svg width="100" height="100" viewBox="0 0 100 100" fill="none" xmlns="http://www.w3.org/2000/svg">
<g clip-path="url(#clip0_403_398)">
<path d="M14.0996 76.7013C14.0996 76.7013 14.5996 81.3013 15.5996 83.0013C16.0996 83.8013 16.8996 84.3013 17.7996 84.3013C18.4996 84.3013 19.1996 84.0013 19.6996 83.5013C20.3996 82.9013 20.4996 82.0013 20.9996 81.3013C21.4996 80.6013 22.2996 80.4013 22.4996 79.4013C22.8996 77.5013 21.0996 76.4013 19.4996 76.7013C16.9996 77.2013 14.0996 76.7013 14.0996 76.7013Z" fill="#FFF200" stroke="black" stroke-width="0.99" stroke-linecap="round" stroke-linejoin="round"/>
<path d="M41 73.8008C40.8 75.3008 39.5 76.4008 38.2 77.3008C33.5 80.3008 27.8 81.4008 22.3 80.9008C20.8 80.8008 19.3 80.5008 18 79.8008C23.1 83.8008 29.8 85.7008 36.2 84.8008C37 84.7008 37.8 84.6008 38.5 84.2008C39.9 83.5008 40.7 82.1008 41.5 80.8008" fill="#CBDB2A"/>
<mask id="mask0_403_398" style="mask-type:luminance" maskUnits="userSpaceOnUse" x="18" y="73" width="24" height="13">
<path d="M41 73.8008C40.8 75.3008 39.5 76.4008 38.2 77.3008C33.5 80.3008 27.8 81.4008 22.3 80.9008C20.8 80.8008 19.3 80.5008 18 79.8008C23.1 83.8008 29.8 85.7008 36.2 84.8008C37 84.7008 37.8 84.6008 38.5 84.2008C39.9 83.5008 40.7 82.1008 41.5 80.8008" fill="white"/>
</mask>
<g mask="url(#mask0_403_398)">
<path d="M27.5996 79.8008C26.5996 79.8008 25.3996 80.1008 24.6996 80.8008C23.9996 81.5008 23.5996 82.5008 23.8996 83.4008C24.3996 84.9008 26.0996 85.4008 27.5996 85.7008" fill="#CBDB2A"/>
<path d="M27.5996 79.8008C26.5996 79.8008 25.3996 80.1008 24.6996 80.8008C23.9996 81.5008 23.5996 82.5008 23.8996 83.4008C24.3996 84.9008 26.0996 85.4008 27.5996 85.7008" stroke="black" stroke-width="0.99" stroke-linecap="round" stroke-linejoin="round"/>
<path d="M30.8995 82.1016C30.1995 82.7016 29.5995 83.6016 29.4995 84.5016C29.3995 85.4016 29.7995 86.5016 30.5995 87.0016" fill="#CBDB2A"/>
<path d="M30.8995 82.1016C30.1995 82.7016 29.5995 83.6016 29.4995 84.5016C29.3995 85.4016 29.7995 86.5016 30.5995 87.0016" stroke="black" stroke-width="0.99" stroke-linecap="round" stroke-linejoin="round"/>
<path d="M33.1994 76.9023C32.2994 77.4023 31.0994 78.1023 30.7994 79.3023C30.4994 80.4023 30.6994 81.8023 31.4994 82.6023C32.6994 83.9023 34.6994 83.5023 36.2994 83.0023" fill="#CBDB2A"/>
<path d="M33.1994 76.9023C32.2994 77.4023 31.0994 78.1023 30.7994 79.3023C30.4994 80.4023 30.6994 81.8023 31.4994 82.6023C32.6994 83.9023 34.6994 83.5023 36.2994 83.0023" stroke="black" stroke-width="0.99" stroke-linecap="round" stroke-linejoin="round"/>
<path d="M37.9991 80.2012C37.1991 80.7012 36.3991 81.4012 36.0991 82.4012C35.7991 83.4012 36.0991 84.5012 36.6991 85.4012C38.1991 87.4012 42.1991 85.7012 42.1991 85.7012" fill="#CBDB2A"/>
<path d="M37.9991 80.2012C37.1991 80.7012 36.3991 81.4012 36.0991 82.4012C35.7991 83.4012 36.0991 84.5012 36.6991 85.4012C38.1991 87.4012 42.1991 85.7012 42.1991 85.7012" stroke="black" stroke-width="0.99" stroke-linecap="round" stroke-linejoin="round"/>
<path d="M37.3995 74.9023C36.6995 75.5023 36.0995 76.4023 35.9995 77.3023C35.8995 78.2023 36.2995 79.3023 37.0995 79.8023C38.3995 80.6023 40.0995 79.8023 41.3995 79.1023" fill="#CBDB2A"/>
<path d="M37.3995 74.9023C36.6995 75.5023 36.0995 76.4023 35.9995 77.3023C35.8995 78.2023 36.2995 79.3023 37.0995 79.8023C38.3995 80.6023 40.0995 79.8023 41.3995 79.1023" stroke="black" stroke-width="0.99" stroke-linecap="round" stroke-linejoin="round"/>
<path d="M40.8996 73.1016C39.3996 77.2016 43.3996 79.1016 44.7996 78.6016Z" fill="#CBDB2A"/>
<path d="M40.8996 73.1016C39.3996 77.2016 43.3996 79.1016 44.7996 78.6016" stroke="black" stroke-width="0.99" stroke-linecap="round" stroke-linejoin="round"/>
</g>
<path d="M41 73.8008C40.8 75.3008 39.5 76.4008 38.2 77.3008C33.5 80.3008 27.8 81.4008 22.3 80.9008C20.8 80.8008 19.3 80.5008 18 79.8008C23.1 83.8008 29.8 85.7008 36.2 84.8008C37 84.7008 37.8 84.6008 38.5 84.2008C39.9 83.5008 40.7 82.1008 41.5 80.8008" stroke="black" stroke-width="0.99" stroke-linecap="round" stroke-linejoin="round"/>
<path d="M12.3998 20.9996C10.8998 19.4996 9.7998 17.5996 8.9998 15.5996C8.7998 18.2996 8.6998 21.0996 9.1998 23.6996C10.0998 22.5996 11.1998 21.6996 12.3998 20.9996Z" fill="#FBB040" stroke="black" stroke-width="0.99" stroke-linecap="round" stroke-linejoin="round"/>
<path d="M15.2002 23.2C14.2002 22.6 13.3002 21.8 12.4002 21C11.2002 21.7 10.1002 22.7 9.2002 23.8C9.4002 24.6 9.6002 25.4 9.9002 26.2C10.4002 27.4 11.0002 28.5 11.7002 29.5C12.0002 28.3 12.5002 27.1 13.1002 26C13.7002 24.9 14.4002 24 15.2002 23.2Z" fill="#FBB040" stroke="black" stroke-width="0.99" stroke-linecap="round" stroke-linejoin="round"/>
<path d="M18.2002 24.4992C17.2002 24.1992 16.2002 23.7992 15.3002 23.2992C15.2002 23.2992 15.2002 23.1992 15.1002 23.1992C14.4002 24.0992 13.7002 24.9992 13.1002 25.8992C12.5002 26.9992 11.9002 28.0992 11.7002 29.3992C13.0002 31.0992 14.8002 32.4992 16.8002 33.3992C16.8669 33.3992 16.9335 33.4326 17.0002 33.4992C16.8002 30.3992 17.2002 27.3992 18.2002 24.4992Z" fill="#FBB040" stroke="black" stroke-width="0.99" stroke-linecap="round" stroke-linejoin="round"/>
<path d="M26.8996 33.7992L24.9996 24.1992C22.8996 25.0992 20.4996 25.1992 18.1996 24.5992C17.1996 27.3992 16.6996 30.4992 16.9996 33.4992C20.0996 34.6992 23.6996 34.7992 26.8996 33.7992Z" fill="#FBB040" stroke="black" stroke-width="0.99" stroke-linecap="round" stroke-linejoin="round"/>
<path d="M69.2998 13.9C70.3998 12.1 71.0998 10 71.4998 8C72.1998 10.6 72.9998 13.3 72.9998 16C71.8998 15.1 70.6998 14.4 69.2998 13.9Z" fill="#FBB040" stroke="black" stroke-width="0.99" stroke-linecap="round" stroke-linejoin="round"/>
<path d="M67.1006 16.7004C68.0006 15.9004 68.7006 15.0004 69.3006 13.9004C70.6006 14.4004 71.9006 15.0004 73.0006 15.9004C73.0006 16.7004 73.0006 17.6004 72.8006 18.4004C72.6006 19.6004 72.2006 20.9004 71.7006 22.0004C71.2006 20.9004 70.4006 19.8004 69.6006 18.9004C68.9006 18.1004 68.0006 17.4004 67.1006 16.7004Z" fill="#FBB040" stroke="black" stroke-width="0.99" stroke-linecap="round" stroke-linejoin="round"/>
<path d="M64.2998 18.5992C65.2998 18.0992 66.0998 17.4992 66.8998 16.7992L66.9998 16.6992C67.8998 17.3992 68.7998 18.0992 69.4998 18.9992C70.2998 19.8992 71.0998 20.9992 71.5998 22.0992C70.5998 24.0992 69.1998 25.7992 67.3998 26.9992C67.2998 26.9992 67.2998 27.0992 67.1998 27.0992C66.9998 24.0992 65.8998 21.1992 64.2998 18.5992Z" fill="#FBB040" stroke="black" stroke-width="0.99" stroke-linecap="round" stroke-linejoin="round"/>
<path d="M57.8002 29.3996L57.7002 19.5996C60.0002 20.0996 62.3002 19.6996 64.4002 18.5996C66.0002 21.1996 67.0002 24.0996 67.4002 27.0996C64.6002 28.9996 61.1002 29.7996 57.8002 29.3996Z" fill="#FBB040" stroke="black" stroke-width="0.99" stroke-linecap="round" stroke-linejoin="round"/>
<path d="M42.2 66.4006C42.2 66.4006 29.8 58.3006 25.4 58.1006C25.4 58.1006 11.8 54.5006 1.5 61.3006C1.5 61.3006 8.8 60.7006 8.7 67.5006C8.7 67.5006 18.4 65.7006 20.3 73.8006C20.3 73.8006 26 70.3006 30.4 75.8006C30.4 75.8006 36.5 69.7006 41.7 77.3006L42.2 66.4006Z" fill="#FFF200" stroke="black" stroke-width="0.99" stroke-linecap="round" stroke-linejoin="round"/>
<path d="M42.2 66.4006C42.2 66.4006 29.8 58.3006 25.4 58.1006C25.4 58.1006 11.8 54.5006 1.5 61.3006C1.5 61.3006 9.9 58.5006 15.2 59.1006C15.2 59.1006 10.9 63.8006 9.9 66.1006C9.9 66.1006 14.7 61.6006 17.8 59.2006L24.5 60.0006C24.5 60.0006 21.2 66.0006 21 71.6006C21 71.6006 26.5 58.8006 30.3 62.1006C30.3 62.1006 29.5 68.9006 30.3 73.8006C30.3 73.8006 32.1 63.2006 41.3 67.4006L42.2 66.4006Z" fill="#CBDB2A" stroke="black" stroke-width="0.99" stroke-linecap="round" stroke-linejoin="round"/>
<path d="M49.3002 67.7008C49.3002 67.7008 62.1002 60.3008 66.5002 60.3008C66.5002 60.3008 80.3002 57.5008 90.2002 64.9008C90.2002 64.9008 83.0002 63.9008 82.7002 70.7008C82.7002 70.7008 73.1002 68.4008 70.8002 76.3008C70.8002 76.3008 65.3002 72.5008 60.6002 77.7008C60.6002 77.7008 54.8002 71.2008 49.2002 78.5008L49.3002 67.7008Z" fill="#FFF200" stroke="black" stroke-width="0.99" stroke-linecap="round" stroke-linejoin="round"/>
<path d="M49.2998 67.7008C49.2998 67.7008 62.0998 60.3008 66.4998 60.3008C66.4998 60.3008 80.2998 57.5008 90.1998 64.9008C90.1998 64.9008 81.9998 61.6008 76.6998 61.9008C76.6998 61.9008 80.7998 66.9008 81.5998 69.2008C81.5998 69.2008 77.0998 64.4008 74.0998 61.9008L67.2998 62.3008C67.2998 62.3008 70.1998 68.5008 70.0998 74.0008C70.0998 74.0008 65.3998 60.9008 61.3998 64.0008C61.3998 64.0008 61.8998 70.9008 60.6998 75.7008C60.6998 75.7008 59.4998 65.1008 50.0998 68.7008L49.2998 67.7008Z" fill="#CBDB2A" stroke="black" stroke-width="0.99" stroke-linecap="round" stroke-linejoin="round"/>
<path d="M40.5995 67.6987C40.5995 67.6987 36.9995 67.4987 35.3995 66.5987C33.7995 65.6987 29.0995 67.7987 33.1995 70.4987C36.2995 72.4987 40.3995 72.3987 40.3995 72.3987C40.4995 72.6987 40.3995 73.7987 40.2995 74.1987C40.1995 74.6987 39.8995 76.7987 39.8995 77.3987C39.8995 77.6987 37.1995 87.2987 38.4995 87.5987C39.1995 87.7987 40.4995 87.7987 41.0995 87.7987C41.6995 87.7987 41.8995 87.8987 42.1995 87.2987C42.3995 86.7987 44.4995 81.9987 44.4995 81.4987C44.7995 81.3987 46.8995 81.6987 46.8995 81.6987C46.8995 82.0987 49.0995 87.6987 49.5995 87.9987C49.8995 88.0987 52.6995 88.6987 53.0995 88.1987C53.6995 87.4987 51.3995 80.3987 51.2995 78.6987C51.1995 77.4987 51.1995 73.5987 51.1995 72.3987C51.1995 72.3987 53.5995 71.8987 55.9995 70.9987C57.9995 70.1987 60.1995 68.6987 59.1995 67.3987C57.9995 65.5987 56.9995 66.4987 51.9995 67.1987" fill="#CBDB2A"/>
<path d="M40.5995 67.6987C40.5995 67.6987 36.9995 67.4987 35.3995 66.5987C33.7995 65.6987 29.0995 67.7987 33.1995 70.4987C36.2995 72.4987 40.3995 72.3987 40.3995 72.3987C40.4995 72.6987 40.3995 73.7987 40.2995 74.1987C40.1995 74.6987 39.8995 76.7987 39.8995 77.3987C39.8995 77.6987 37.1995 87.2987 38.4995 87.5987C39.1995 87.7987 40.4995 87.7987 41.0995 87.7987C41.6995 87.7987 41.8995 87.8987 42.1995 87.2987C42.3995 86.7987 44.4995 81.9987 44.4995 81.4987C44.7995 81.3987 46.8995 81.6987 46.8995 81.6987C46.8995 82.0987 49.0995 87.6987 49.5995 87.9987C49.8995 88.0987 52.6995 88.6987 53.0995 88.1987C53.6995 87.4987 51.3995 80.3987 51.2995 78.6987C51.1995 77.4987 51.1995 73.5987 51.1995 72.3987C51.1995 72.3987 53.5995 71.8987 55.9995 70.9987C57.9995 70.1987 60.1995 68.6987 59.1995 67.3987C57.9995 65.5987 56.9995 66.4987 51.9995 67.1987" stroke="black" stroke-width="0.99" stroke-linecap="round" stroke-linejoin="round"/>
<path d="M48.0996 79.1994C46.6996 80.0994 44.3996 79.3994 43.1996 78.2994C40.9996 76.2994 41.8996 72.9994 42.1996 70.2994C42.3996 68.8994 42.9996 66.1994 44.0996 65.4994C46.7996 63.6994 48.5996 65.2994 49.3996 67.8994C50.2996 70.5994 50.1996 75.8994 48.8996 78.2994C48.6996 78.6994 48.3996 78.9994 48.0996 79.1994Z" fill="#FFD6A1" stroke="black" stroke-width="0.99" stroke-linecap="round" stroke-linejoin="round"/>
<path d="M42.5996 72.698C42.5996 70.898 43.9996 69.498 45.7996 69.498C47.5996 69.498 48.9996 70.898 48.9996 72.698C48.9996 74.498 47.5996 75.898 45.7996 75.898C43.9996 75.898 42.5996 74.498 42.5996 72.698Z" fill="#ED1C24"/>
<path d="M45.7994 76.0988C43.8994 76.0988 42.3994 74.5988 42.3994 72.6988C42.3994 70.7988 43.8994 69.2988 45.7994 69.2988C47.6994 69.2988 49.1994 70.7988 49.1994 72.6988C49.1994 74.5988 47.6994 76.0988 45.7994 76.0988ZM45.7994 69.7988C44.1994 69.7988 42.8994 71.0988 42.8994 72.6988C42.8994 74.2988 44.1994 75.5988 45.7994 75.5988C47.3994 75.5988 48.6994 74.2988 48.6994 72.6988C48.6994 71.0988 47.3994 69.7988 45.7994 69.7988Z" fill="#F7941D"/>
<path d="M47.4 71.1C47.4 71.3 47.4 71.5 47.3 71.6C47.2 71.7 47.1 71.7 47 71.7H45.6C45.5333 71.7 45.5 71.7333 45.5 71.8V72.3H46.8C46.9 72.3 47 72.4 47.1 72.5C47.2 72.6 47.2 72.8 47.2 72.9C47.2 73.1 47.2 73.2 47.1 73.4C47 73.5 46.9 73.5 46.8 73.5H45.5V74.3C45.5 74.5 45.5 74.7 45.4 74.8C45.3 74.9 45.2 75 45 75C44.8 75 44.7 74.9 44.6 74.8C44.5 74.7 44.5 74.5 44.5 74.3V71.3C44.5 70.8 44.7 70.5 45.1 70.5H46.9C47 70.5 47.1 70.5 47.2 70.7C47.3 70.8 47.4 70.9 47.4 71.1Z" fill="white"/>
<path d="M58.5997 22.0997C56.9997 20.2997 53.5997 20.3997 51.3997 21.3997C49.4997 22.2997 48.0997 23.3997 48.0997 25.3997C48.0997 26.4997 48.1997 27.7997 48.0997 28.8997C47.0997 28.7997 39.6997 31.2997 38.8997 30.9997C38.2997 30.7997 36.5997 26.8997 35.5997 25.6997C33.9997 23.9997 32.0997 23.3997 29.6997 23.0997C18.8997 21.7997 22.7997 33.3997 23.1997 34.2997C24.5997 37.7997 21.8997 41.6997 20.2997 44.6997C17.7997 49.4997 17.0997 55.3997 20.3997 59.7997C24.9997 65.8997 36.5997 68.7997 45.4997 68.2997C48.3997 68.0997 53.3997 67.4997 56.1997 66.6997C59.6997 65.6997 63.4997 63.8997 65.9997 61.4997C72.3997 55.0997 73.2997 45.2997 67.0997 39.4997C65.1997 37.6997 60.4997 24.0997 58.5997 22.0997Z" fill="#CBDB2A" stroke="black" stroke-width="0.99" stroke-linecap="round" stroke-linejoin="round"/>
<path d="M58.7994 41C58.7994 41 55.2994 49.5 48.8994 50.1C40.9994 50.8 33.8994 44.2 33.8994 44.2C33.8994 44.2 38.6994 58 48.8994 56.8C59.0994 55.5 58.7994 41 58.7994 41Z" fill="white" stroke="black" stroke-width="0.99" stroke-linecap="round" stroke-linejoin="round"/>
<path d="M25.3993 25.5998C26.8993 23.2998 29.7993 21.9998 32.2993 23.3998C35.1993 25.0998 37.7993 20.5998 34.8993 18.8998C29.8993 15.9998 23.8993 18.2998 20.8993 22.8998C19.0993 25.7998 23.4993 28.3998 25.3993 25.5998Z" fill="black"/>
<path d="M25.2998 27.4996C25.2998 30.4996 27.9998 32.8996 31.2998 32.8996C34.5998 32.8996 37.2998 30.4996 37.2998 27.4996C37.2998 24.4996 34.5998 22.0996 31.2998 22.0996C27.9998 22.0996 25.2998 24.4996 25.2998 27.4996Z" fill="white" stroke="black" stroke-width="0.99" stroke-linecap="round" stroke-linejoin="round"/>
<path d="M35.9998 27.4984C35.9998 25.4984 34.3998 23.8984 32.3998 23.8984C30.3998 23.8984 28.7998 25.4984 28.7998 27.4984C28.7998 29.4984 30.3998 31.0984 32.3998 31.0984C34.3998 31.0984 35.9998 29.4984 35.9998 27.4984Z" fill="black" stroke="black" stroke-width="0.99" stroke-linecap="round" stroke-linejoin="round"/>
<path d="M34.7994 27.2C34.7994 26.8 34.4994 26.5 34.0994 26.5C33.6994 26.5 33.3994 26.8 33.3994 27.2C33.3994 27.6 33.6994 27.9 34.0994 27.9C34.4994 27.8 34.7994 27.5 34.7994 27.2Z" fill="white"/>
<path d="M61.8998 17.299C57.4998 14.599 51.4998 15.199 47.7998 18.799C45.5998 20.999 48.9998 24.499 51.2998 22.299C53.4998 20.099 56.8998 19.899 59.3998 21.499C62.1998 23.099 64.5998 18.899 61.8998 17.299Z" fill="black"/>
<path d="M50.2998 24.6988C50.2998 27.6988 52.9998 30.0988 56.2998 30.0988C59.5998 30.0988 62.2998 27.6988 62.2998 24.6988C62.2998 21.6988 59.5998 19.2988 56.2998 19.2988C52.9998 19.2988 50.2998 21.6988 50.2998 24.6988Z" fill="white" stroke="black" stroke-width="0.99" stroke-linecap="round" stroke-linejoin="round"/>
<path d="M61.0994 24.6996C61.0994 22.6996 59.4994 21.0996 57.4994 21.0996C55.4994 21.0996 53.8994 22.6996 53.8994 24.6996C53.8994 26.6996 55.4994 28.2996 57.4994 28.2996C59.4994 28.2996 61.0994 26.5996 61.0994 24.6996Z" fill="black" stroke="black" stroke-width="0.99" stroke-linecap="round" stroke-linejoin="round"/>
<path d="M60.4 24.3992C60.4 23.9992 60.1 23.6992 59.7 23.6992C59.3 23.6992 59 23.9992 59 24.3992C59 24.7992 59.3 25.0992 59.7 25.0992C60 24.9992 60.4 24.6992 60.4 24.3992Z" fill="white"/>
<path d="M43.0002 42.4004C43.9943 42.4004 44.8002 41.7288 44.8002 40.9004C44.8002 40.072 43.9943 39.4004 43.0002 39.4004C42.0061 39.4004 41.2002 40.072 41.2002 40.9004C41.2002 41.7288 42.0061 42.4004 43.0002 42.4004Z" fill="#58595B" stroke="black" stroke-width="0.99" stroke-linecap="round" stroke-linejoin="round"/>
<path d="M49.5998 41.4004C50.5939 41.4004 51.3998 40.7288 51.3998 39.9004C51.3998 39.072 50.5939 38.4004 49.5998 38.4004C48.6057 38.4004 47.7998 39.072 47.7998 39.9004C47.7998 40.7288 48.6057 41.4004 49.5998 41.4004Z" fill="#58595B" stroke="black" stroke-width="0.99" stroke-linecap="round" stroke-linejoin="round"/>
<path d="M64.8996 42.1992C65.9996 41.2992 68.0996 40.0992 69.4996 39.5992C70.1996 39.3992 71.3996 38.8992 71.3996 38.8992C71.3996 38.8992 69.9996 40.7992 69.3996 41.7992C69.6996 41.3992 72.6996 41.1992 73.2996 41.0992C74.4996 40.8992 75.8996 40.8992 77.0996 40.3992C79.0996 39.5992 82.1996 38.1992 83.1996 36.1992C82.8996 38.3992 82.8996 40.6992 81.1996 42.8992C86.6996 41.6992 92.4996 40.3992 97.7996 41.7992C94.9996 41.8992 92.0996 43.1992 90.1996 45.3992C91.6996 45.8992 94.2996 44.9992 95.8996 44.8992C94.7996 45.5992 92.7996 46.9992 91.5996 47.6992C89.7996 48.7992 87.4996 49.5992 85.4996 49.1992C88.6996 50.2992 92.5996 49.5992 95.1996 51.5992C92.0996 50.9992 88.9996 53.5992 85.7996 53.7992C84.4996 53.8992 83.2996 53.5992 81.9996 53.2992C83.4996 54.3992 85.7996 55.9992 86.6996 57.6992C83.5996 55.8992 78.6996 55.0992 75.0996 55.6992C76.5996 56.7992 78.8996 57.4992 80.3996 58.5992C77.8996 57.7992 74.4996 57.4992 71.8996 58.3992C70.8996 58.7992 70.0996 59.3992 69.0996 59.6992C67.0996 60.4992 64.8996 60.0992 62.8996 59.6992C60.8996 59.2992 58.8996 58.9992 57.0996 57.9992C55.7996 57.2992 54.5996 56.3992 53.2996 55.5992C51.9996 54.8992 49.5996 53.4992 48.0996 53.8992C49.9996 53.3992 51.9996 53.2992 53.8996 52.6992C56.4996 51.7992 58.0996 49.4992 59.6996 47.3992C61.2996 45.2992 62.6996 43.9992 64.8996 42.1992Z" fill="#F15A29" stroke="black" stroke-width="0.99" stroke-linecap="round" stroke-linejoin="round"/>
<path d="M61.1996 50.1C62.6996 49.4 64.7996 49.2 65.9996 48C65.4996 48.5 65.1996 50 64.7996 50.6C66.5996 50.5 67.4996 49.8 68.8996 48.9C69.5996 48.4 70.1996 47.9 70.9996 47.5C71.4996 47.3 72.9996 47.2 73.1996 47C72.2996 47.8 71.4996 48.6 70.8996 49.5C73.2996 48.8 75.7996 49.7 80.1996 50.3C78.0996 50.3 73.4996 52.2 71.3996 52.7C69.6996 53.2 68.5996 53 66.8996 53.2C68.3996 53.6 69.8996 54.3 71.0996 55.4C69.6996 55.1 66.1996 55.5 64.7996 55.8C63.0996 56.2 61.4996 56.8 59.8996 56.2C58.8996 55.9 57.9996 55.6 56.9996 55.3C55.7996 55 54.7996 54.2 53.5996 54C54.7996 54 56.7996 53.1 57.8996 52.6C58.9996 52.1 59.7996 50.7 61.1996 50.1Z" fill="#F7941D" stroke="black" stroke-width="0.99" stroke-linecap="round" stroke-linejoin="round"/>
<path d="M30.0996 61.3016C30.2996 62.0016 30.5996 62.7016 31.0996 63.2016C31.5996 63.7016 32.4996 63.9016 33.0996 63.5016C33.3996 63.3016 33.5996 63.0016 33.7996 62.7016C34.0996 62.2016 34.3996 61.7016 34.4996 61.1016" fill="#CBDB2A"/>
<path d="M30.0996 61.3016C30.2996 62.0016 30.5996 62.7016 31.0996 63.2016C31.5996 63.7016 32.4996 63.9016 33.0996 63.5016C33.3996 63.3016 33.5996 63.0016 33.7996 62.7016C34.0996 62.2016 34.3996 61.7016 34.4996 61.1016" stroke="black" stroke-width="0.99" stroke-linecap="round" stroke-linejoin="round"/>
<path d="M24.5 57.3008C24.6 58.1008 25.1 59.4008 26 59.8008C28.3 60.8008 29.2 57.9008 29.2 57.9008" fill="#CBDB2A"/>
<path d="M24.5 57.3008C24.6 58.1008 25.1 59.4008 26 59.8008C28.3 60.8008 29.2 57.9008 29.2 57.9008" stroke="black" stroke-width="0.99" stroke-linecap="round" stroke-linejoin="round"/>
<path d="M27.1004 44.0996C26.9004 46.4996 30.7004 47.4996 31.3004 44.9996Z" fill="#CBDB2A"/>
<path d="M27.1004 44.0996C26.9004 46.4996 30.7004 47.4996 31.3004 44.9996" stroke="black" stroke-width="0.99" stroke-linecap="round" stroke-linejoin="round"/>
<path d="M24.0999 47.6992C23.6999 48.7992 24.3999 50.3992 25.7999 50.5992C28.2999 50.9992 29.1999 48.9992 29.1999 48.9992" fill="#CBDB2A"/>
<path d="M24.0999 47.6992C23.6999 48.7992 24.3999 50.3992 25.7999 50.5992C28.2999 50.9992 29.1999 48.9992 29.1999 48.9992" stroke="black" stroke-width="0.99" stroke-linecap="round" stroke-linejoin="round"/>
<path d="M22.3999 45C22.0999 45.8 22.3999 46.7 22.9999 47.3C23.1999 47.5 23.4999 47.6 23.6999 47.7C24.5999 47.9 25.5999 47.3 25.8999 46.5" fill="#CBDB2A"/>
<path d="M22.3999 45C22.0999 45.8 22.3999 46.7 22.9999 47.3C23.1999 47.5 23.4999 47.6 23.6999 47.7C24.5999 47.9 25.5999 47.3 25.8999 46.5" stroke="black" stroke-width="0.99" stroke-linecap="round" stroke-linejoin="round"/>
</g>
<defs>
<clipPath id="clip0_403_398">
<rect width="97.29" height="81.39" fill="white" transform="translate(1 7.5)"/>
</clipPath>
</defs>
</svg>
