<svg xmlns="http://www.w3.org/2000/svg" xmlns:xlink="http://www.w3.org/1999/xlink" fill="none" viewBox="0 0 100 100">
  <defs>
    <path id="a" fill="#fff" d="M4.1 0H96v100H4.1V0Z"/>
  </defs>
  <mask id="b" width="92" height="100" x="4" y="0" maskUnits="userSpaceOnUse" style="mask-type:luminance">
    <use xlink:href="#a"/>
  </mask>
  <g mask="url(#b)">
    <path fill="#5A3B00" d="M95.2 72.4a8 8 0 0 0-2.5-4.1 9.3 9.3 0 0 0-4.6-2c-1.5-.2-3-.2-4.5.1l-3.5.8c-2.6.7-5.4 1-8.2 2.4v-.7c.8-4 .1-7.7-1.9-11.3 1.3-1.9 2.4-4 3-6.4 1 1 2 1 3.3.7 1.3-.3 1.8-1.4 1.6-2.6l-.3-.6h1.5c1.3-.3 2-1.1 1.7-2.4 0-.7-.4-1.4-1-1.9a7 7 0 0 0-1.8-1.6l-.8-.4c.3 0 .7-.1 1-.4.5-.1.5-.7.2-1.2l-1-1a7 7 0 0 0-3.1-.9c-1.4-.1-2.7.3-3.5 1.4a5 5 0 0 0-1.2 3.3l.4 3c.1.6.1 1-.1 1.5-.7 1.2-1.4 2.4-1.8 3.6l-1.3 2.4a13.2 13.2 0 0 0-10.4-4l.1-2.4h.2c1-.4 1.9-1 2.6-1.8 3.1-2.7 4.4-6.3 4.3-10.4v-.8h.1c1.6.6 3.3.6 4.8 0a14.7 14.7 0 0 0 9-8 4 4 0 0 0 .4-2.4 9.3 9.3 0 0 0-3.2-6.2 11.7 11.7 0 0 0-8.8-2.6c-2.3.2-4 1.3-5.4 3.2h-.2L57.6 16c.7-.5.7-1.3 1-2h.2c.8.7 1.7.7 2.4 0 .5-.3.8-.8 1.2-1.2l.5-1c.3-.3.7-.9.8-1.4.4-2-.2-3.6-1.3-5A5.9 5.9 0 0 0 57.1 3c-.8 0-1.8.2-2.6.8-.5.4-1.2.8-1.6 1.3-1.2 1-1.7 2.1-1.3 3.6l1 2.8v.4l-.2.7c-3-1.7-6.5-2.5-10-2.3 0-.7-.3-1.2-.4-1.7l1-.7c.6-.7 1-1.3 1.1-2.3.2-1.6-.4-3-1.7-4.1-.8-.7-1.9-.8-2.8-1-2.3-.6-4.3.9-5.3 2.5l-.2.5-.4 2c0 1.3.4 2.5 1.1 3.6.4.4.8.7 1.3.7h.3l.4 2.1a8 8 0 0 0-3 1.9L31 16a4.8 4.8 0 0 0-2.6-4 11 11 0 0 0-6.6-1.6c-2.3.3-3.5 1.4-4 3.5l-.4 3.2a8 8 0 0 0 1.6 6c2 3 5.1 5 8.6 5.9l-.1 2.4c0 1.6 0 3.3.5 5l-.1.2-1.3 1.3c-.8.7-1.8 1.3-2 2.5l-.4 1c-.3 1.5 0 3.1.5 4.6.3 1.1.8 1.9 1.3 2.7a7.5 7.5 0 0 0 4.2 3.5c1 .3 2 .4 3.2.2h.5l-.3 3.8a13 13 0 0 1-1.7 5.3c0 .4-.3.7-.5 1-.9.7-1.6 1.6-2.2 2.6l-.1.4a9.6 9.6 0 0 0-4-2c-.7 0-1.3-.3-1.9 0-.8.2-1.6.6-2.2 1.2a8 8 0 0 0-2.2 3.3c-.4 1-.5 2-.5 3v2.5l-1-.3a8 8 0 0 0-4-.8A8 8 0 0 0 9 73.6 10 10 0 0 0 4.7 80c-.5 1.8-.6 3.7-.3 5.6 0 1.6.5 3 1.5 4.5.9 1.2 2 2.3 3.2 3.2 2.4 2 4.9 2.7 8 2l5-1.3 7.8-2.1 2.6-.8h.3l1.3.6c3.5 1.2 7.2 1.3 10.7.4h.7c.6 1 1.3 1.9 2.2 2.7.6.5 1.4 1 2.2 1.2l.4.1c1.4 1.4 3 2.4 4.9 3 2.1.6 4.4.8 6.7.5a7 7 0 0 0 3.6-1.3c2.4-1.8 4.5-3.8 5.7-6.7a9 9 0 0 0 .8-5l.3.2 5.3.5c2.5.3 5.2.6 7.7.4 2.2 0 4-.6 5.9-1.7l1.3-1c1-1 1.6-2 2-3.3 1.4-2.9 1.6-6 .7-9.2v-.1Z"/>
  </g>
  <path fill="#CC7229" d="M34.5 38.8c1.6 0 3.4.1 5 .7 1.7.4 3.3 1 4.6 2a8.3 8.3 0 0 1 3.8 5.8c.2 1.1.2 2.2 0 3.2l-.2.6c-.6.5-1.6.9-2.5.8l-4-.3-2.3-.3h-3.3l-4.4-.4a6 6 0 0 1-4-2.6l-1-1.2a7.7 7.7 0 0 1-.9-3.6v-1.8c0-.5.3-.8.6-1a6 6 0 0 1 4.2-1.4l4.4-.5Zm-3.3 5.9v-.2a6.3 6.3 0 0 0-3-3.2c-.2 0-.5-.2-.6 0v.6l3 3.2c.3 0 .6 0 .6-.4Zm11-2.7h-.6c-1.6 0-2.7 1.2-3.5 2.4v.5h.7l1-.6 2-1.9c0-.1 0-.3.3-.4Zm-14.3-3.5v-.1c1.3-1.3 2.8-2.4 4.4-3.3 2-1 4-1.4 6.1-1.2 2 .2 3.7.8 5.3 1.7 2 1 3.8 2.5 5.2 4.3 1 1.2 1.4 2.6 1.8 4a7 7 0 0 1-.7 4.6l-1.6 2v-.8a8 8 0 0 0-3.7-8.6 17.7 17.7 0 0 0-5.9-2.3c-1.6-.3-3-.7-4.8-.8-2-.1-4.1 0-6.1.5Zm9.7-4v.3l.4.1 5.3 1.4-.4-.4c-1.3-.6-2.8-1.1-4.4-1.2h-.9v-.2Zm-.3 1.4v.1l.3.1 4 1.4.3-.2-.2-.2c-1.3-.6-2.4-1-3.7-1.2h-.7Zm.3 1-.4.3.3.1.9.3 1.3.3h.3l-.1-.3-.3-.1-2-.6Z"/>
  <path fill="#AA705E" d="M59.9 98.5 57 98l-1.4-2.1c-.7-1.5-1.2-3.2-1.3-4.8v-1.5a11 11 0 0 1 3-5.7l1.4-1.2a4 4 0 0 1 3-.8c2.2.1 3.8 1.2 5.4 2.4a6.4 6.4 0 0 1 2.5 4.8l-.1 3.3c0 .8-.5 1.3-1 1.9a24 24 0 0 1-3.5 3 8 8 0 0 1-3.6 1.1H60l-.1.1Zm1.3-12.4h-.3l.3.4 3.9 5.4.2.8.2.2h.4l.1-.2v-.4a22.2 22.2 0 0 0-4.5-6L61 86h.1Zm3 8V94l-1-2.4-1.2-1.8-.4-.1v.4l1.5 3 .6 1.3h.6V94Zm-2 1.1c-.3-1-.5-1.9-1-2.7l-.5-.2v.4c0 .9.2 1.8.6 2.6l.6.2.2-.3Zm-46.7-8.4-.4 4.3a9 9 0 0 1-1 2.6c-.2.6-.2.6-.8.4a6 6 0 0 1-2.2-.9 12.1 12.1 0 0 1-5.2-7.3c-.2-1.6-.3-3.4 0-5a9 9 0 0 1 4.8-6.8h.9c1 .6 1.3 1.4 1.9 2.2a9.4 9.4 0 0 1 1.3 4.2c.4 2.2.5 4.3.5 6.4l.2-.1Zm-7.2-3.9c0 .4.1.7.4 1.1.5 1.3 1.4 2.4 2.4 3.5h.2v-.6l-2.1-3.4-.5-.7h-.3l-.1.1Zm.6-3.3-.2.3.2.6c.7 1.8 1.6 3.2 2.7 4.7l.4.3V85l-3-5v-.4Zm1.8 9.3-.2-.2c-.4-1-1-2-1.8-2.7l-.4-.1v.2c.1.8.5 1.5.9 2.2l.8.9.4.1.3-.2v-.2Zm5.3 5.4 3-.8c.3 0 .7 0 .6-.4l.1-.3 1.9-2.5c.4-.4.7-1.1.8-1.6.3-1.6.4-3.2.3-4.8a15 15 0 0 0-3.2-8.2l-1.1-1-2.3-1a9.2 9.2 0 0 0-4.2 0l1 1 1.4 1.6c.6 1.3.9 2.6 1.3 4 .6 3.8.8 7.6.5 11.4l-.5 2.7.5-.1H16Zm68.1-8.6a13 13 0 0 0 5.2-1l.3-.3.8-2.1a19 19 0 0 0 .7-9.9c-.2-1.3-.4-2.7-1.1-4-.4-.7-1-1-1.7-1-1.5-.3-3 0-4.4 0l-1.4.5A33.6 33.6 0 0 1 84.8 79c0 1.5.1 3.1-.3 4.7 0 .7-.2 1.4-.5 2h.1Zm-12.9 4c.4-1.6.3-3.2-.7-4.6a16 16 0 0 0-6.8-6.3c-1-.5-2.2-.6-3.3-.5-2.7.3-5.3 1.5-7.3 3.3-1.1 1-2.2 2-3 3.3l-.1.8c0 1 0 1.9-.3 2.7a12 12 0 0 0 0 3.7c.2 1.3.7 2.4 1.6 3.2a14 14 0 0 0 3.4 2.2l.2.1v-.1a11.3 11.3 0 0 1-1.3-7.2c.1-1.7.7-3.2 1.6-4.6l1.7-2.1.7-.8c1.6-1.9 3.6-2.3 5.9-1.9a11 11 0 0 1 5.8 3.5c.8.8 1.4 1.7 1.5 3l.4 2.6v-.3Zm-43.5-13c-.4-3.3-.1-6.7 1-9.9v-.4c-1.4-.8-2.7-1.5-4.2-1.7h-1.3a5.3 5.3 0 0 0-2.7 3c-.8 2-1.1 4-.8 6.2 0 .4.3.5.7.6l5.9 2.4 1.7.7-.3-1Zm49.6-35.9c-.9-.5-1.8-1-2.9-1-1.6 0-2.7.6-3.2 2-.4.7-.6 1.6-.5 2.5l.1 1.3c0 .4.3.7.4 1 .8.9 1.6 2 2.1 3 .7 1.3 1.8 1.5 3 1.2.5-.1.8-.7.6-1.3 0-.6-.5-1.1-.9-1.4-.3-.2-.4-.4-.3-.6.2-.3.4-.4.6-.3h.8c.8.3 1.3.4 2.1.1.4 0 .7-.2.5-.8V46c-.5-1-1.3-1.8-2.2-2.3l-1.4-1-.2-.5.4-.2c.5-.2 1-.3 1.6-.7-.3 0-.4-.3-.6-.4Zm15 41.9c1.2-1.7 2-3.6 2.2-5.6.3-2.7-.1-5.2-1.7-7.4a5.3 5.3 0 0 0-2.5-1.8l1 2.2a23 23 0 0 1 .7 9.8l-.7 3.8 1-1Z"/>
  <path fill="#FFDE83" d="m41.7 7.6-.2-.5h-.2c-.2 1 0 2.2.3 3.3h-.4l-.7.3c-.5 0-.8.4-.6.6 0 .4.2.6.8.7H42c3.8-.4 7.7.2 11.2 1.7h.3v-.4h-.2L54 12l.4-1.6v-.3l-.3.2-.4.4c-.7-.7-1.3-1.4-1-2.4 0-.6.3-1 .5-1.5.1-.5.5-1 1-1.5l1.2-1a2.7 2.7 0 0 1 2.6-.6c1.3.6 2.6 1.4 3.7 2.4l.8.8a3 3 0 0 1 1 3.2l-.9 1.6c-.4.7-1 1.1-1.7 1.1l-2.1.3v-.8L57 15.5h-.6l1.2 1-1.4.7a5.3 5.3 0 0 0-2 6.3c.3.9 1 1.4 1.9 1.7a4 4 0 0 0 4.1-1.3c.4-.3.6-.7.8-1.1.2.1.4.3.7.1.3 0 .3-.2.3-.5 0-1-.4-1.7-.8-2.5l-.2-.3 1.4-1a8.8 8.8 0 0 1 7.2-1.7 10 10 0 0 1 5.2 2.4 8.8 8.8 0 0 1 2.5 4.8c0 .7 0 1.4-.3 2a12.7 12.7 0 0 1-9.3 7.2h-3l.3-.2c1.1-.2 2.1-.6 3.1-1.1 1.3-.4 2.4-1 3.6-1.6a11 11 0 0 0 2.7-2.1 4 4 0 0 0 .8-2.4v-2.3a3 3 0 0 0-1.1-1.7 5.3 5.3 0 0 0-2.3-1.8 9 9 0 0 0-4.6-.6 5 5 0 0 0-3.2 1.8l-1.8 2c-.2.2-.2.4-.1.7v1.3c.2 1.7.2 3.4 0 5.1l.4.4c.1 0 .4 0 .4-.3.3-.2.4-.6.4-1 .3-1.4 0-2.7-.1-4l-.3-1.1v-.7l1.9-2.1c.8-.8 1.7-1.3 2.6-1.3a9 9 0 0 1 6.2 2.4c1 .9 1.3 2.1 1 3.3-.1.6-.5 1.2-1 1.6-1 .8-2 1.5-3.2 2l-3.6 1.6-3.4 1.7-.5.6v.6c.3 0 .3.3.3.4V36l-2-.7a4.6 4.6 0 0 0-5.1 3.2 6.7 6.7 0 0 0-.1 3.7 3 3 0 0 0 1.3 2c.1.3.5.3.8.4l.3.2v.4L56 46.7c-.3.1-.4.4-.3.6v.4a30 30 0 0 0-1 9.8 9 9 0 0 0 1 3.6c0 .2.3.4.6.2.2 0 .2-.2.2-.5l-.2-1.7L56 56v-.4l.5.4a7 7 0 0 0 6.1.1l.9-.6a2 2 0 0 0 .4-1.9l-.2-.5.6.4c1.1.8 2.2 1.7 3.2 2.8v.1l.5 3.7v1.2a6 6 0 0 0 2 5.8l.8.4c.3 0 .3.1.3.4l-.4 2.5c0 .3-.2.7.2 1l-1.3 6 .4.5.4-.2.3-.4a10 10 0 0 0 .9-4.8V71h.1l.4 1.8.3 4.5c0 .1 0 .5.4.5.3 0 .5-.1.5-.5a11 11 0 0 0-.8-6.7v-.1L82 68l.9 2.7c.5 1.8.8 3.7 1 5.7v5c0 1.3-.3 2.6-1 4-.1.2-.3.3-.5.3l-8.6-.2-2 .1c-.2-1-.8-1.9-1.3-2.8a19.7 19.7 0 0 0-4.6-4.6V78c-.2-1-.5-2-.9-2.8a4 4 0 0 0-3.2-2.1c-2.1-.4-3.6.4-4.5 2.4l-.3 1c0 .4-.1.6-.5.7-2 .4-4 .7-5.9 1.3a13 13 0 0 0-3.8 2.8c-.2.2-.3.4 0 .7 0 .3.2.3.5.3l1.3-.7c1.1-.7 2.3-1.3 3.5-1.7l1.9-.7v.1l-.3.3-2.4 2.3a9 9 0 0 0-2.5 6l-.2 2.9c0 1.3.2 2.7.7 3.7v.3c-1.8-2-3.4-4.3-5-6.5 0-.2 0-.3-.2-.4 0 0-.4-.2-.5 0l-.2.4.3.8 1 1.7v.3c-4 .5-7.7.4-11.4-1.1 1.3-1.3 1.3-3 1-4.5-.2-1-.5-1.8-1-2.6l-.4-.2v.5l.5 2.7-.2 2.1-.2.3c0-1.2-.2-2.3-.6-3.4a6.4 6.4 0 0 0-1.8-3l.7 2c.4 1 .5 2.1.7 3.2-.1 1-.4 2.2-.8 3.2l-.3.1c-2.7 1-5.3 1.6-8 2.3l-1.5.4.2-.3c.5-.8 1.3-1.6 1.7-2.4.4-.5.5-1.2.7-1.7.5-3.1.2-6-.8-9l-1.8-3.2-.1-.2 1.2.5a36 36 0 0 0 6.7 2.4l1.3.1h.3c-.3-.5-.8-.6-1.2-.9V74c.6.4 1.3.3 2 0 1.4 0 2.5-1 3-2.3a6.4 6.4 0 0 0-1-7l-1-1 .7-.5c1.3.7 2.4.5 3.6-.3a5.3 5.3 0 0 0 2.7-3.3 4 4 0 0 0-1.4-4L36 53.5l-1.2-.8v-.3l2.7-.5c1.3-.2 2.4.2 3.6.5l3.6.7a5 5 0 0 0 4.4-1.6 8 8 0 0 0 2.2-4.3V44c0-2.1-.6-4-1.8-5.6a11 11 0 0 0-2.3-2l-.3-.3c.8-1.3.8-2.9.7-4.4l-.3-1.3-.6-1.2c-.3-.4-.8-.4-1.1.1a4 4 0 0 0-.4 1.4v4l.1.4-4.8-1.6a12 12 0 0 0-5-.4c.4-.8.5-1.6.4-2.4a8 8 0 0 0-1-3.5l-.2-.5c-.3-.4-.8-.3-1.1.2l-.1.7c0 1.6 0 3 .2 4.5l.6 1.4c-1.8.5-3.5 1.3-5 2.5l-.2-1.7v-3.6c0-1.9.2-3.8.4-5.5l.2-2.5v-.4l-.1-.3-.3.1-.1.4-.8 2.7-.8-.3a6.7 6.7 0 0 1-3.7-2.6L22.5 20a4 4 0 0 1 .4-4.5c0-.3.4-.4.7-.3.4 0 1 .3 1.3.5 1.4.7 2.2 1.8 2.4 3.2l1 2.4.2.4h.2v-.6c0-1-.2-1.9-.4-2.7a5.3 5.3 0 0 0-4-3.9c-.8 0-1.5 0-1.9.8l-1 1.6a3.5 3.5 0 0 0-.2 3.4c1 2.2 2.6 4.1 4.8 5.3a4 4 0 0 0 2.1.7v1.3h-.6c-3-.7-5.8-2.5-7.6-5-1.2-1.5-1.4-3.3-1.4-5.1l.8-4a2.7 2.7 0 0 1 2.2-1.5c2.4-.3 4.6.3 6.6 1.5 1.5.8 2.2 2.1 2.4 3.6l-.1.4-1.2 2.2v1l.5-.2a38 38 0 0 1 7-7.6l.5-.1c.3 0 .4-.1.4-.4v-1.2l-.8-3h-.3v.7c-.6-.1-1.2-.4-1.3-1-.4-.7-.8-1.4-.8-2.3 0-.7.4-1.3.8-1.9 1-.9 2-1.8 3.3-2h2.2c1.7.3 2.9 2 2.6 3.8a2.7 2.7 0 0 1-1.6 2.2v-.1Zm-2.2 73 2.1-.3c1 0 1.7-.6 2.4-1.4.7-.6 1-1.4 1-2.5-.2-1-.7-1.9-1.8-2.5l-1.3-1.1a9 9 0 0 0-2.6-1.3c-1.3-.3-2.9.2-3.4 1.3l-1.1 1.6c-.8 1-.8 2.7 0 3.9 1 1.6 2.7 2.1 4.7 2.4Zm5.7-13.8c0-1-.4-2.1-.8-3a4 4 0 0 0-1.5-1.8c-.2-.3-.5-.3-.8 0H42a3 3 0 0 0-2.6.8c-.9.7-1.4 1.7-2 2.7l-.1 1a4 4 0 0 0 1 2.7c.3.7 1 1 1.8 1 1.5-.2 3-.6 4.3-1.4.6-.5.9-1.2.9-2Zm6.4.4-2 .3a2.7 2.7 0 0 0-1.7 1.3c-1.1 1.6-.3 4.1 2 5.2h.4l2.1-.1c1.5-.4 2.7-1.9 2.4-3.2a7.5 7.5 0 0 0-1.3-2.7c-.6-.5-1.1-1-1.9-.8Zm-7-8.1v1.8a3.9 3.9 0 0 0 4.5 2.3c1.6-.4 2.5-1.3 2.6-3v-1.8a3 3 0 0 0-3.4-2.8 6 6 0 0 0-2.7.7c-.5.4-1 .9-1 1.6V59ZM46 19.6l1.3-.3c1.1-.2 1.8-.9 1.9-1.8 0-.7 0-1.4-.3-1.9l-.2-.3-.6-.4a4 4 0 0 0-4-.5c-1 .4-1.3 1-1.3 2 0 1.9 1.3 3.2 3.3 3.2H46Zm18.7 43.2c1 0 1.7-1 1.4-2a4.4 4.4 0 0 0-2.4-2.7c-.8-.4-1.6-.1-2 .4-.5.6-.5 1.4-.2 1.9.4.8.9 1.3 1.7 1.9l1.3.5h.2ZM60 30.7v-.4l-.7-2c0-.7-1-1.4-1.6-1.1-.8.4-1.3 1-1.3 1.7a3 3 0 0 0 .8 3c.5.5 1 .8 1.7.5.7-.3 1-.8 1.1-1.6v-.1Zm7 38c0-1-.2-1.8-.9-2.4-.2-.2-.5-.4-.8 0h-.2c-.7-.2-1 0-1.2.8a2.7 2.7 0 0 0 1.3 2.9c.8.5 1.6.1 1.9-.8v-.5Zm-25.7-49 .3-.4-.4-.4-2.3.2c-.5 0-.9.5-.8 1l.4 1.4c.6.8 1.6 1 2.4.5.8-.5 1-1.3.4-2.3Zm14.7 45v.2a2.7 2.7 0 0 0 2 1.9c.8 0 1.5-.4 1.5-1 0-1.4-.6-2.3-1.9-2.5a1.3 1.3 0 0 0-1.6 1.4ZM64.8 26c-.3 0-.4 0-.3.3.6.9 1.2 1.7 1.9 2.4l.5.1v-.4c-.4-1-1-1.7-1.8-2.3l-.3-.2v.1Zm.7-1v.5l1.3 1 1.2 1.2h.3v-.2c-.6-1-1.5-1.8-2.4-2.3l-.4-.1Zm-2 2h-.3v.5l1.3 1.4.4.2v-.4l-1-1.5-.4-.3Zm5.8 29.7 1.4-2 1.7-3.8c.1-.4 0-.6-.1-1l-.3-.6-1-1.6h-.3l-1.4 3.4a7.6 7.6 0 0 1-1.8 3.3l1.8 2.1v.2Z"/>
  <mask id="c" width="92" height="100" x="4" y="0" maskUnits="userSpaceOnUse" style="mask-type:luminance">
    <use xlink:href="#a"/>
  </mask>
  <g mask="url(#c)">
    <path fill="#5A3B00" d="M72 86.7v.4a8 8 0 0 1-.7 4.6c-1.3 3-3.3 5-5.8 6.7a7 7 0 0 1-3.6 1.3 13 13 0 0 1-11.5-3.5h-.5c-.8-.2-1.5-.7-2.2-1.4l-2.2-2.4c-.2-.3-.3-.3-.6-.1-1.3.4-2.6.4-4 .5a18 18 0 0 1-6.6-1l-1.4-.6h-.2L30 92l-7.9 2c-1.6.5-3.3 1-5 1.3-3 1-5.6 0-8-1.8A16 16 0 0 1 5.9 90a9 9 0 0 1-1.4-4.5c-.2-1.9-.2-3.8.2-5.6a9.8 9.8 0 0 1 4.4-6.3 8 8 0 0 1 4.6-1 7 7 0 0 1 3.8.7l.9.3v-2.5c0-2.4 1-4.6 2.7-6.3.6-.7 1.4-1 2.2-1.3l1.9.1c1.5.4 2.8 1 4 2l.3-.3c.5-1 1.2-2 2.1-2.8l.5-.9c1-1.6 1.4-3.3 1.6-5.3l.4-3.8h-.5c-1 0-2.1 0-3.2-.2a7.9 7.9 0 0 1-4.1-3.4 10.1 10.1 0 0 1-1.9-7.5l.3-.7v-.2c.4-1.2 1.2-1.8 2-2.6l1.3-1.2.1-.2c-.3-1.6-.5-3.3-.5-5l.3-2.4c-2.2-.4-3.9-1.4-5.5-2.7-1.3-.8-2.4-1.9-3.3-3.2a8.3 8.3 0 0 1-1.6-6L18 14c.4-2.1 1.6-3.2 3.9-3.5 2.4-.2 4.6.3 6.6 1.5a5 5 0 0 1 2.7 4v.1l2.7-2.2a8 8 0 0 1 2.9-1.9l-.3-2.1H36c-.5 0-1-.3-1.3-.7-.7-1-1.1-2.3-1-3.6l.6-2.7c.9-1.4 2.9-2.9 5.3-2.4 1 .3 1.9.4 2.7 1.1 1.3 1 2 2.5 1.7 4.1A4 4 0 0 1 43 8l-1 .7.4 1.7c3.5 0 6.8.5 9.9 2.3.1-.3.4-.4.4-.7v-.4c-.4-1-1-1.7-1.2-2.7a4 4 0 0 1 1.3-3.7l1.7-1.3c.7-.6 1.6-.7 2.6-.8 2.1 0 3.8.5 5.2 2.2a5.7 5.7 0 0 1 1.3 5.1c0 .5-.4 1-.7 1.5l-.6.9-1.1 1.3a2 2 0 0 1-2.5 0l-.3-.1c-.3.7-.3 1.5-.8 2l2.7 2.7a7 7 0 0 1 5.4-3.1c3.4-.3 6.4.4 9 2.7a9 9 0 0 1 3 6 5 5 0 0 1-.2 2.4 15 15 0 0 1-9.1 8 7 7 0 0 1-4.7 0h-.2v.8a12.6 12.6 0 0 1-7 12.1v.1l-.2 2.4a15 15 0 0 1 10.5 4l1.2-2.4 1.7-3.6c.3-.5.3-.9.3-1.6-.3-.9-.4-2-.4-2.9 0-1.3.4-2.4 1-3.3a4 4 0 0 1 3.5-1.4 8 8 0 0 1 3.2 1c.4.1.8.5 1.1.9.3.5.1 1-.4 1.3l-1 .3.9.4c.8.4 1.3 1 2 1.6.5.5.8 1.2.9 1.9.1 1.3-.5 2.1-1.7 2.4h-1.6l.2.6c.4 1.4-.2 2.3-1.6 2.7-1 .1-2.2.1-3.2-.8-.5 2.4-1.6 4.5-3 6.4 2.1 3.6 2.6 7.3 1.8 11.3l.2.7c2.6-1.3 5.3-1.7 8.1-2.4l3.6-.8c1.5-.1 3-.4 4.5 0 1.6.2 3.2.9 4.4 1.9a8 8 0 0 1 2.7 4.1 14 14 0 0 1-.8 9.3 7.3 7.3 0 0 1-3.2 4.2c-1.8 1-3.8 1.6-5.9 1.7-2.6 0-5.3 0-7.8-.4l-5.2-.5H72ZM41.7 7.5c1.1-.6 1.4-1.4 1.6-2.4.3-1.8-.9-3.4-2.6-3.8h-2.2a7 7 0 0 0-3.3 2c-.4.6-.8 1.2-.8 1.9 0 1 .4 1.6.7 2.4.2.5.6.8 1.3 1V8h.1l.3.3.8 2.9v.8c0 .3-.1.4-.4.4h-.5l-.7.5c-.8.8-1.6 1.4-2.3 2.3a24 24 0 0 0-4 5c-.1 0-.2.2-.4 0l-.2-.2v-.7l1.3-2.2v-.3c-.3-1.6-.8-3-2.3-3.7a11 11 0 0 0-6.6-1.4 2.7 2.7 0 0 0-2.3 1.6l-.3 1c-.2 1-.4 2-.4 3-.2 1.8 0 3.6 1.2 5.1 1.9 2.7 4.6 4.1 7.6 5h.6L28 26a4 4 0 0 1-2.1-.7c-2.2-1.1-4-3-4.8-5.3-.6-1-.6-2.3 0-3.3l1.2-1.6c.4-.7 1-.8 1.7-.8a5.3 5.3 0 0 1 4.1 3.8c.3 1 .4 1.8.4 2.7v.7c-.2 0-.2-.2-.4-.3l-.9-2.4a5 5 0 0 0-2.4-3.3l-1.3-.6c-.4 0-.6 0-.8.3-1 1.3-1.1 3-.4 4.5l1.3 2.3c1 1.4 2.4 2.3 4 2.7l.7.1.8-2.7V22h.5v.5l-.3 2.5-.2 5.5V34l.2 1.7c1.5-1.1 3.2-2 5-2.5l-.6-1.3a12 12 0 0 1-.2-4.4l.1-.8c.3-.6.7-.7 1-.2.3.2.5.4.5.6a11 11 0 0 1 .9 3.6c0 .8 0 1.4-.4 2.2 1.7-.2 3.5 0 5 .4l4.9 1.8v-4.4c0-.4 0-1 .2-1.4.2-.6.7-.6 1.1-.2l.7 1.3.2 1.3a8 8 0 0 1-.6 4.3l.2.3a12 12 0 0 1 2.3 2 8 8 0 0 1 1.9 5.6V47a7.9 7.9 0 0 1-2.4 4.2 4.7 4.7 0 0 1-4.3 1.8l-3.6-.8c-1.2-.3-2.3-.7-3.5-.6l-2.8.6v.4l1.2.6 2 1.8a4.2 4.2 0 0 1 1.4 4.1 5.3 5.3 0 0 1-2.7 3.5c-1.3.6-2.4.9-3.7 0l-.6.8 1 .8c.6.8 1.2 1.7 1.4 2.6a7 7 0 0 1-.4 4.4 3.8 3.8 0 0 1-3 2.4c-.7 0-1.4.3-2 0V78c.4.3.9.4 1.3 1h-1.9c-2.3-.7-4.5-1.6-6.6-2.6l-1.1-.5.1.4c.6.9 1.4 2 1.8 3 1 3 1.3 5.9.8 9-.2.5-.3 1.3-.7 1.7l-1.9 2.5-.1.3c.5 0 1-.3 1.5-.4 2.6-.7 5.3-1.2 8-2.1l.2-.3c.4-1 .8-2 .8-3.2 0-1-.3-2.2-.6-3.2l-.7-1.9a7 7 0 0 1 1.7 3c.4 1 .7 2.2.7 3.3v-.3c.1-.6.4-1.3.4-2.1l-.5-2.7v-.4l.4.2c.5.8.8 1.6 1 2.5.3 1.7.2 3.3-1 4.7 3.7 1.3 7.4 1.6 11.4 1l-.1-.4-1-1.6-.2-.9.1-.4h.6l.2.4c1.4 2.1 3.1 4.1 4.7 6.1l.3.4v-.1a9.3 9.3 0 0 1-.7-3.9l.1-2.9c0-1 .3-2.1.7-3.2.5-1 1-2 1.9-2.8l2.6-2.5-1.8.6c-1.4.4-2.4 1-3.6 1.6l-1.4.7c-.1 0-.4 0-.5-.3v-.6l.5-.4c1.2-.9 2.4-1.6 3.8-2a42 42 0 0 1 5.8-1.5c.4 0 .4-.1.6-.7 0-.2 0-.6.2-1 1-2 2.4-2.7 4.6-2.4a4 4 0 0 1 3.2 2.1c.4.8.6 1.9.8 2.8 0 .3 0 .4.2.4 1.6 1.3 3.1 2.7 4.4 4.4.6 1 1.1 1.9 1.4 3 .6-.5 1.3-.3 1.8-.3l8.7.2c.3 0 .4 0 .5-.4a11 11 0 0 0 1-4v-5c-.2-2-.4-3.9-1-5.8l-.8-2.6-9.4 2.4v.2a11 11 0 0 1 .8 6.7c0 .3-.3.5-.6.5-.4 0-.4-.4-.4-.6l-.2-4.4c0-.7-.3-1.4-.4-1.9v1.6c0 1.7-.4 3.3-1.1 4.8l-.3.4h-.4c-.1 0-.2 0-.2-.3v-.5l1.2-5.3v-.3c-.4-.3-.3-.7-.3-1l.4-2.5c0-.2 0-.2-.3-.4l-.8-.2a6.5 6.5 0 0 1-2.1-5.9l.1-1.2-.4-3.6-.1-.3c-1-.9-2-2-3.2-2.8l-.7-.4.3.6c.3.8 0 1.3-.4 2l-.8.5c-1 .5-2.1.8-3.3.8-1 0-2-.4-2.8-1l-.6-.3v.4l.3 3 .3 1.8c0 .2 0 .5-.3.5-.3.1-.4 0-.5-.1l-.4-.7c-.4-1-.7-2-.7-3a25 25 0 0 1 1-9.8v-.3c0-.4 0-.6.3-.8l.8-.6 1.1-1v-.2l-.1-.2-1-.5a4 4 0 0 1-1.3-2c-.3-1.3 0-2.4.3-3.7.4-1.9 2.6-3.6 5-3.2l1.9.5V34c-.3-.1-.4-.4-.1-.7l.5-.5 3.3-1.7 3.8-1.6c1.3-.4 2.2-1.2 3.2-2 .5-.4.9-1 .9-1.5.3-1.3 0-2.5-1-3.5a8.5 8.5 0 0 0-6-2.2c-1 0-2 .4-2.6 1.3l-1.9 2.1c-.2.2-.2.4-.1.6l.1 1.2c.3 1.3.6 2.6.3 4l-.4 1-.4.2-.3-.3v-5L62 24c-.3-.4 0-.5 0-.8l1.9-2c.8-1 1.8-1.6 3-1.7 1.8-.3 3.4 0 4.8.6 1 .3 1.6.8 2.3 1.6.5.6 1 1.1 1 1.9v2.1c0 1-.2 1.8-.7 2.4-.8.8-1.6 1.8-2.7 2.3L68 32l-3 1h-.5c1.1.5 2 .5 3.1.3 1.9-.2 3.6-1.3 5.2-2.2 1.9-1.4 3-3.1 4-5.1.4-.7.4-1.3.3-2a8.3 8.3 0 0 0-2.6-4.8 9.3 9.3 0 0 0-5-2.4c-2.7-.4-5.1 0-7.2 1.6l-1.4 1v.3c.6.8.8 1.6 1 2.7 0 0 0 .4-.3.5-.3 0-.5 0-.7-.2l-.8 1.2c-1 1.3-2.5 1.6-4.1 1.3a2.7 2.7 0 0 1-1.9-1.7 5.3 5.3 0 0 1 2-6.3l1.4-.8-1.2-1h.6c.6-1.1 1-2.2 1.8-3.3v1l2-.3c.8-.1 1.3-.5 1.7-1.2l.8-1.6a3 3 0 0 0-.8-3.2l-.8-.8a13 13 0 0 0-3.7-2.4c-1-.3-1.9-.1-2.7.5L54 5.2a5 5 0 0 0-1 1.5L52.8 8c-.4 1.1.2 1.8.9 2.6l.3-.6h.2v.2c0 .5 0 1-.2 1.6l-.7 1.3h.1l.2.4h-.2l-1.3-.3A22.7 22.7 0 0 0 41.9 12h-1.4a.9.9 0 0 1-.9-.7c0-.3.3-.5.7-.7l.8-.1h.4c-.2-1.3-.6-2.3-.4-3.5h.2l.3.7.1-.1Zm-7 31.2-4.4.4c-1.5.1-3 .4-4.3 1.3a1.3 1.3 0 0 0-.5 1.2v1.7a6 6 0 0 0 .9 3.6l.8 1.4c1 1.3 2.4 2.2 4 2.5 1.6.3 3 .3 4.5.3h3.4l2.4.4 4 .2c.9 0 1.7-.2 2.4-.8l.2-.5v-3.2a8.5 8.5 0 0 0-3.8-5.9 16 16 0 0 0-9.6-2.6ZM60 98.4h1.3c1.4-.3 2.6-.5 3.6-1.3 1.4-.8 2.4-1.8 3.5-2.8.5-.6 1-1.1 1-2v-3.4c0-2-.7-3.4-2.3-4.8a10.1 10.1 0 0 0-5.4-2.4 4 4 0 0 0-3 .8L57.3 84a10.3 10.3 0 0 0-2.9 5.6l-.1 1.4c.1 1.7.6 3.3 1.3 4.8l1.3 2.2c0 .2.3.2.4.2l2.4.3h.3ZM15.5 86.7h-.2c0-2.2-.1-4.2-.5-6.3a12 12 0 0 0-1.3-4.3 6.4 6.4 0 0 0-1.9-2.1 1.2 1.2 0 0 0-1 0c-.9.3-1.5.8-2.2 1.5a9 9 0 0 0-2.7 5.3l.2 4.8a10 10 0 0 0 1 3.2c1.1 1.9 2.4 3.2 4 4.5l2.4 1c.6 0 .6.1.8-.4.4-1 .8-1.8 1-2.7l.4-4.3v-.2Zm0 7.4h.6l3-.8c.2 0 .6 0 .5-.4l.1-.2 1.9-2.6c.4-.4.7-1 .8-1.6.3-1.6.4-3.2.3-4.8a15 15 0 0 0-3.2-8.1l-1.1-1-2.3-1a8.7 8.7 0 0 0-4.1 0l1 1 1.1 1.5c.8 1.4 1.1 2.7 1.4 4 .6 3.8.8 7.7.6 11.5 0 .8-.4 1.6-.5 2.7l-.1-.2ZM84 85.7h.1c1.8 0 3.5-.4 5.2-1l.3-.3.8-2.1c1-3.2 1.3-6.7.7-9.9-.2-1.3-.4-2.7-1.1-4-.4-.7-1-1-1.7-1-1.5-.3-3 0-4.4 0-.6 0-1 .3-1.4.5 1.4 3.5 2.2 7.2 2.3 11 0 1.6.1 3.2-.3 4.8 0 .7-.2 1.4-.5 2Zm-12.8 4.4v-.4c.4-1.6.3-3.2-.7-4.6a16 16 0 0 0-6.8-6.3c-1-.5-2.2-.6-3.3-.5-2.7.3-5.3 1.5-7.3 3.3-1.1 1-2.2 2-3 3.3l-.1.8c0 1 0 1.9-.3 2.7a12 12 0 0 0 0 3.7c.2 1.3.7 2.4 1.6 3.2a14 14 0 0 0 3.4 2.2l.2.1v-.1a11.3 11.3 0 0 1-1.3-7.2c.1-1.7.7-3.2 1.6-4.6l1.7-2.1.7-.8c1.6-1.9 3.6-2.3 5.9-1.9a11 11 0 0 1 5.8 3.5c.8.8 1.4 1.7 1.5 3l.4 2.6v.1ZM27.9 38.5h.1c2-.5 4-.6 6-.5l4.8.8c2 .5 4 1.2 5.9 2.3a8 8 0 0 1 3.8 8.6l-.1.8c.7-.5 1.2-1.3 1.6-2 .7-1.3 1.2-2.9.7-4.5a9.7 9.7 0 0 0-1.8-4 19.7 19.7 0 0 0-5-4.4 13 13 0 0 0-5.4-1.6 9 9 0 0 0-6.2 1.2c-1.6.8-3 2-4.3 3.2h-.1v.1Zm0 39.1v-1c-.5-3.2-.3-6.6.8-9.8v-.4c-1.4-.8-2.7-1.5-4.2-1.7h-1.3a5.3 5.3 0 0 0-2.7 3c-.8 2-1.1 4-.8 6.2 0 .4.3.5.7.6l7.6 3.1h-.1ZM78 41.3l-.5-.5c-1-.5-1.9-1-3-1-1.6 0-2.6.6-3.3 2a5 5 0 0 0-.4 2.5l.1 1.3c0 .4.2.7.4 1l2.2 3c.6 1.3 1.6 1.5 2.8 1.2.6-.1.8-.7.8-1.3 0-.6-.6-1.1-1.1-1.4-.1-.2-.3-.4-.1-.6 0-.3.4-.4.5-.3h.8a3 3 0 0 0 2.1.1c.4 0 .6-.2.6-.8l-.2-.6a4.3 4.3 0 0 0-2.1-2.3l-1.3-1c-.3 0-.3-.2-.3-.5l.4-.2c.6 0 1.1-.2 1.6-.6Zm-21.5-.5c0 1 .4 1.9 1.2 2.7l.8.6c.3.2.4.2.6 0a13 13 0 0 0 3.6-6.9l-.2-.4c-.6-.4-1.3-.4-2-.5-1.6 0-3 .9-3.6 2.4l-.4 2.1Zm1.1-16.4c1.3-.1 2.4-.8 3-2.1V22c-.5-1.6-1.3-3-2.3-4.4l-.6-.1c-2.1.4-3.3 2.9-2.9 4.6.3 1.6 1 2.2 2.8 2.3Zm33.9 59.3.9-1a13 13 0 0 0 2.3-5.6c.2-2.7-.2-5.2-1.8-7.4a5.3 5.3 0 0 0-2.5-1.8l1 2.2a23 23 0 0 1 .7 9.8l-.6 3.8ZM31.7 64.5l-.2.6a17.9 17.9 0 0 0-2.2 7.3l.3.3c.7.2 1.3.1 2 0 .7 0 1.3-.4 1.6-1.1.4-1 .7-2 .5-3.2a8 8 0 0 0-1.4-3.3l-.6-.6Zm26.7-13h-1.5c-.6.1-.6.1-.6.9v.4a2 2 0 0 0 .4 1.7c.5.4.9.8 1.6 1a6 6 0 0 0 3.7-.3c1-.5 1.3-1.2.8-2.3l-.1-.2-.7-.6c-1.2-.4-2.4-.6-3.7-.6h.1Zm-23.5 2.2v3.5c0 1.6-.3 3.1-1 4.5v.4c.5.4 1 .4 1.6 0 1-.2 1.7-.9 2.2-1.7 1-1.3.8-3.2-.5-4.4l-1.9-2c-.1 0-.2 0-.4-.3Zm32.6.8 1.8 2.2 1.4-2 1.7-3.8c.1-.4 0-.6-.1-1l-.3-.6-1-1.6h-.3l-1.4 3.4c-.4 1.2-1 2.3-1.8 3.3v.1Zm-9.8 22.6 3.8-.3a8 8 0 0 1 3.4 1l-.5-1.5c-.4-.8-.8-1.4-1.6-1.8l-1.9-.5c-.8 0-1.4.3-1.8 1l-1.4 2Zm13.4-10.3c0-3-.6-5.9-2-8.4a8 8 0 0 1 0 3.2v1.2c0 1.3.6 2.5 1.4 3.6l.4.4h.2ZM39.3 80.7c-2-.3-3.6-.8-4.6-2.4-.8-1.1-.8-3 0-3.9.5-.4.8-1 1-1.5.6-1 2.2-1.7 3.5-1.3 1 .1 1.7.7 2.4 1.3l1.5 1c1 .6 1.6 1.3 1.7 2.6a3 3 0 0 1-1 2.6c-.6.6-1.4 1-2.3 1.3l-2.2.3Zm.3-1.2h1c1-.2 1.9-.5 2.6-1.1.4-.4.7-.7.7-1.2.2-1-.3-1.9-1.4-2.4l-1.6-1-1.7-.7c-1-.4-2-.2-2.8.6l-.4.6-.5.9-.3.7c0 .9.3 1.7 1 2.4 1 .8 2 1.3 3.4 1.3v-.1Zm5.5-12.7c0 .8-.3 1.5-1 2a8 8 0 0 1-4.2 1.3c-.8 0-1.4-.2-1.9-.9a4 4 0 0 1-1-2.7l.2-.9c.5-1 1-2.1 2-2.8.8-.5 1.6-1 2.5-.8h.3c.3-.3.5-.3.8 0 .7.4 1 1 1.3 1.7.6 1 1 2 1 3.1Zm-2.4-4.1-1.1.2a2.7 2.7 0 0 0-2 1.1l-.8 1c-.8 1.4-.5 2.5.3 3.7.2.4.6.6 1.3.5 1.2-.2 2.3-.7 3.3-1.3.4-.3.7-.8.6-1.4 0-1-.4-2-1-2.9l-.6-1Zm9 4.5c.8-.1 1.4.3 1.9.8.7.8 1 1.6 1.3 2.7.2 1.3-.9 2.8-2.4 3.2l-2.1.1H50c-2.3-1-3-3.6-2-5.3a2.7 2.7 0 0 1 1.7-1.2l2-.3Zm-.6 5.7 1.6-.4c.9-.2 1.3-1 1-1.8 0-1-.5-1.6-1.2-2.3H52l-2 .1c-.8.2-1.3.8-1.3 1.6l.1 1.1a2.7 2.7 0 0 0 2.1 1.7h.2Zm-6.3-13.8v-1.2c0-.7.4-1.2 1-1.6.7-.6 1.7-.7 2.6-.8 1.9 0 3.3 1 3.6 2.9l-.1 1.3v.6a3.4 3.4 0 0 1-2.7 2.9c-1.7.4-3.7-.5-4.3-2.3l-.1-2v.2Zm3.6-2.7a4 4 0 0 0-2.1.4c-.4.3-.7.7-.6 1v2c.2.6.4 1.3 1.1 1.5l.8.6c1.3.5 2.7 0 3.2-1.4.4-.9.5-2-.1-2.9-.6-.8-1.1-1.3-2-1.2h-.3Zm-2.1-36.8c-2 0-3.4-1.3-3.4-3.2 0-1 .3-1.6 1.4-1.9 1.3-.6 2.6-.4 4 .6l.5.2.3.3c.2.5.4 1.3.2 1.9-.1.9-.8 1.6-1.7 1.8l-1.3.3Zm-.3-4.8c-.8 0-1.5.3-2 .7l-.3.6c0 1.1.6 2 1.5 2.3.8.3 1.7.3 2.7-.1a2 2 0 0 0 .6-2.2V16c-.8-.7-1.6-1.2-2.6-1.2h.1Zm18.7 48-1.4-.5a4.2 4.2 0 0 1-1.7-1.8c-.3-.6-.3-1.3.3-2 .4-.5 1.3-.6 1.8-.4a4 4 0 0 1 2.6 2.7c.2 1.2-.4 2-1.5 2h-.1Zm.9-1.6a4.4 4.4 0 0 0-2-1.9c-.4-.1-.7-.2-1 0-.2.3 0 .6 0 1 .3.5.7 1 1.4 1.3l1 .3c.3 0 .6-.3.6-.7Zm-5.3-30.7v.3c-.2.8-.4 1.3-1.1 1.6-.7.3-1.3 0-1.6-.5-1-.8-1.2-1.9-1-3 0-.8.6-1.3 1.3-1.7.8-.3 1.6.4 1.8 1l.3 2.5.3-.2Zm-.8 0-.6-2.1a.7.7 0 0 0-.8-.4c-.4.3-.8.7-.8 1.2 0 .7.2 1.5.7 2 .3.4.5.7 1 .5.3-.2.3-.6.5-1v-.2Zm8 38.2-.2.5c-.2 1-1 1.3-2 .8a2.7 2.7 0 0 1-1.2-3c.3-.7.6-.9 1.4-.9.4-.4.6 0 .9.2a3 3 0 0 1 1 2.4Zm-.8.1-.3-1-.3-.3-.5-.2c-.4-.1-.5 0-.7.3 0 .7.2 1.2.7 1.6.1 0 .5.4.7.3l.4-.7Zm-25.4-49c.6.7.4 1.7-.4 2.2-.8.5-1.8.3-2.4-.7a4 4 0 0 1-.4-1.3c0-.4.3-.8.8-1h2.3l.4.3-.3.4Zm-.4.7c0-.4-.2-.8-.5-.8-.4 0-.8 0-1.3.3v.3l.4.8c.1.2.5.4.9.2.3-.1.5-.5.5-.8Zm15.4 44.2c0-.8.8-1.4 1.4-1.4 1.5.2 2 1.1 2 2.4 0 .7-.6 1.2-1.3 1.1a2.7 2.7 0 0 1-2.1-1.9v-.2Zm1.6-.4c-.6 0-.8.4-.6.8.3.4.7.6 1.1.8.3.1.5 0 .7-.3 0-.7-.4-1.3-1.2-1.3Zm6.9-38c.5.9 1.2 1.7 1.9 2.4l.5.1v-.4c-.4-1-1-1.7-1.9-2.3l-.2-.2c-.3 0-.4.1-.3.4Zm.8-1.1.1.3 1.4 1 1.2 1.2h.2v-.2c-.6-1-1.4-1.8-2.4-2.3l-.4-.1-.1.1Zm-2.1 1.9v.4l1.3 1.4.4.2v-.4l-1-1.5-.5-.3-.2.2ZM31.2 44.4c-.5-1.3-1.3-2.5-3-3 0-.2-.3-.3-.5 0v.5l3.1 3.2c.3 0 .5 0 .5-.4v-.3h-.1ZM41.9 42c-1.8 0-2.7 1.2-3.6 2.4v.5h.6l1-.6 2.1-1.9c0-.1 0-.3.3-.4h-.6.2ZM61 86.3l.2.2 3.9 5.4.3.8.1.2.4.2.1-.3v-.5a19.8 19.8 0 0 0-4.5-5.9l-.4-.3-.1.2Zm3.2 7.6-1-2.4-1.2-1.8-.4-.1v.4l1.5 3 .7 1.3h.5v-.4h-.1Zm-3-1.4-.5-.2v.4c0 .9.3 1.8.7 2.6 0 0 .4.3.5.2l.3-.3c-.3-1-.4-1.9-1-2.7ZM8.7 84c.5 1.3 1.4 2.4 2.4 3.5h.2v-.6l-2.1-3.4-.5-.7h-.3l-.1.3c0 .2.1.6.4.9Zm0-4.1.2.6c.7 1.8 1.6 3.2 2.7 4.7l.4.3V85l-3-5v-.4l-.3.3Zm2 8.8a9 9 0 0 0-2-2.7l-.3-.1v.2c.1.8.5 1.5 1 2.2l.7.9.4.1.2-.2v-.4Zm27-53.9h.4l5.4 1.5c0-.3-.2-.3-.4-.4a12 12 0 0 0-4.4-1.2h-1v.1Zm-.4 1.3h.4l4 1.4.3-.2-.1-.2a14 14 0 0 0-3.8-1.2h-.8v.2Zm.4 1h-.4l.3.2 1 .3 1.3.3h.2l-.1-.3-.3-.1-2-.6v.2Z"/>
  </g>
  <path fill="#CC8C2F" d="m56.4 40.8.4-2.1a3.6 3.6 0 0 1 3.6-2.4c.7 0 1.3.1 2 .5.1 0 .3.1.1.4-.5 2.7-1.6 5-3.6 7h-.5l-.8-.9a3.7 3.7 0 0 1-1.3-2.6l.1.1Zm4-18.5V22a11 11 0 0 0-2.3-4.4c-.1-.1-.2-.3-.5-.1-2.1.4-3.3 2.9-3 4.6.3 1.5 1.1 2.2 2.9 2.2 1.2 0 2.4-.7 3-2h-.1ZM31.6 65a17.9 17.9 0 0 0-2.1 7.3l.2.3c.7.2 1.4.1 2 0 .7 0 1.4-.4 1.6-1.1.4-1 .7-2 .6-3.2a8 8 0 0 0-1.5-3.3l-.5-.6-.3.6Zm25.7-13.6H57c-.6.1-.6.1-.6.9v.4a2 2 0 0 0 .4 1.7c.5.4.9.8 1.6 1a6 6 0 0 0 3.7-.3c1-.5 1.3-1.2.8-2.3l-.1-.2-.7-.6c-1.2-.4-2.4-.6-3.7-.6h-1ZM35 54v3.2c0 1.6-.3 3.2-1 4.6v.4c.5.4 1 .4 1.6 0a4 4 0 0 0 2.2-1.8c1-1.3.8-3.2-.5-4.4l-1.9-2-.4-.2v.4-.2Zm26.6 22.7c1.2 0 2.2.4 3.4 1l-.5-1.5a4 4 0 0 0-1.6-1.8l-1.9-.5c-.8 0-1.4.3-2 1l-1.2 2 3.8-.2Zm9.6-10c.1-3-.6-5.7-2-8.4a8 8 0 0 1 0 3.2v1.2c0 1.3.6 2.5 1.6 3.6l.4.4ZM40.8 79.5c1-.2 1.9-.4 2.5-1.1.4-.4.7-.7.7-1.2.3-1-.3-1.9-1.3-2.4l-1.6-1-1.8-.7c-1-.4-2 0-2.8.6l-.9 1.5-.3.7c0 .9.3 1.7 1 2.4 1 .8 2.2 1.3 3.4 1.3l1.1-.1Zm.5-16.6a2.7 2.7 0 0 0-1.8 1.1l-.8 1c-.8 1.4-.6 2.5.2 3.7.3.4.7.6 1.4.5 1.1-.2 2.2-.7 3.2-1.3.5-.3.8-.8.6-1.4 0-1-.4-2-.9-2.9-.1-.4-.5-.7-.8-1l-1 .3Zm11.2 9.6c1-.2 1.4-1 1.1-1.8 0-1-.5-1.6-1.2-2.3l-.4-.1-2 .2c-.8.2-1.3.8-1.3 1.6l.1 1.1c.3 1 1.3 1.6 2.1 1.6.7 0 1.2 0 1.6-.3Zm-6.4-15.7c-.4.3-.6.7-.5 1v2c.1.6.4 1.3 1 1.5l.9.6c1.3.5 2.6 0 3.2-1.4.4-.9.5-2-.2-2.9-.5-.8-1-1.3-2-1.2h-.2c-.8 0-1.5 0-2.2.4ZM44 15.5l-.3.6c0 1.1.5 2 1.5 2.3.8.3 1.7.3 2.6-.1a2 2 0 0 0 .7-2.2V16c-.8-.5-1.6-1.2-2.7-1-.6 0-1.3 0-1.8.5Zm21.3 45.3c0-.3-.1-.3-.3-.4-.4-.5-.9-1-1.4-1-.3-.2-.7-.3-1 0-.2.2-.1.5 0 .9.3.5.7 1 1.4 1.3l1 .3c.3 0 .6-.3.6-.7l-.3-.5v.1Zm-6.5-32.5c-.2-.3-.6-.6-.8-.4-.4.2-.8.6-.8 1.2s.1 1.4.6 2c.3.4.6.6 1 .5.4-.3.4-.7.5-1l-.5-2.3ZM66.3 68l-.3-.4-.5-.1c-.4-.2-.6 0-.7.2 0 .7.1 1.2.7 1.6.1 0 .5.4.6.3l.4-.7c0-.4 0-.6-.2-.9Zm-26-48.3c-.4 0-.8 0-1.4.3v.3l.4.8c.2.2.6.4 1 .2.2-.1.5-.5.5-.8 0-.4-.3-.8-.5-.8Zm16.9 45.4c.3.4.7.6 1 .8.3.1.6 0 .7-.3 0-.7-.4-1.3-1.2-1.3-.5 0-.8.4-.5.8Z"/>
  <mask id="d" width="58" height="31" x="21" y="71" fill="#000" maskUnits="userSpaceOnUse">
    <path fill="#fff" d="M21 71h58v31H21z"/>
    <path d="M30 77.3c-.2-.6-.4-1-1-1.4-.4-.3-1-.4-1.7-.4-.5 0-1 0-1.4.2l-.9.7a1.6 1.6 0 0 0 0 1.8l.5.5.8.4.7.2 1.2.3 1 .4 1 .5c.4.3.7.6.9 1 .2.3.3.8.3 1.3a3 3 0 0 1-.5 1.7 3 3 0 0 1-1.4 1.3c-.6.3-1.4.4-2.3.4a4.6 4.6 0 0 1-3.6-1.5c-.3-.5-.5-1-.6-1.7h1.5c0 .4.2.8.4 1 .3.4.6.6 1 .7.4.2.9.2 1.3.2.6 0 1 0 1.5-.2l1-.8c.2-.3.4-.7.4-1 0-.5-.1-.8-.4-1-.2-.3-.5-.5-.8-.6a9 9 0 0 0-1.2-.4l-1.4-.4c-.9-.3-1.6-.7-2.1-1.1-.6-.5-.8-1.2-.8-2 0-.6.1-1.2.5-1.7a3 3 0 0 1 1.4-1c.6-.4 1.3-.5 2-.5a4 4 0 0 1 2 .4c.6.3 1 .6 1.4 1.1.4.5.6 1 .6 1.6h-1.4Zm7.4 0v1.1h-4.6v-1.1h4.6Zm-3.2-2.1h1.3v8.3c0 .4 0 .7.2.9 0 .1.2.3.4.3l.6.1h.5l.3 1.2a2.7 2.7 0 0 1-1 .1c-.4 0-.7 0-1.1-.2-.4-.2-.7-.4-.9-.8-.2-.3-.3-.7-.3-1.2v-8.7Zm10.7 7.2v-5.1h1.3V86H45v-1.5h-.1c-.2.5-.5.8-1 1.2-.4.3-1 .4-1.6.4a3 3 0 0 1-1.5-.3l-1-1.1a5 5 0 0 1-.3-1.9v-5.5h1.3v5.4c0 .7.2 1.2.6 1.5.3.4.8.6 1.3.6a2.3 2.3 0 0 0 2.3-2.4Zm7.7-5.1v1.1h-4.7v-1.1h4.7ZM49.3 86V76c0-.4 0-.8.3-1.2.3-.3.6-.6 1-.7a2 2 0 0 1 1.1-.3 3.4 3.4 0 0 1 1.3.2l-.4 1.2h-.3L52 75c-.5 0-.8 0-1 .3-.2.2-.3.6-.3 1V86h-1.3Zm9-8.7v1.1h-4.7v-1.1h4.7ZM55 86V76c0-.4.1-.8.4-1.2.2-.3.5-.6.9-.7l1.2-.3a3.4 3.4 0 0 1 1.3.2l-.4 1.2H58l-.5-.1c-.4 0-.7 0-1 .3l-.2 1V86H55Zm8.5.2a4 4 0 0 1-2.2-.6 4 4 0 0 1-1.4-1.5 6 6 0 0 1 0-4.8c.4-.6.8-1.2 1.4-1.6a4.1 4.1 0 0 1 3.4-.4 3.3 3.3 0 0 1 2 2.2c.3.5.4 1.2.4 2v.6h-6.7v-1.2h5.4c0-.5-.1-.9-.3-1.3a2.2 2.2 0 0 0-2.1-1.2c-.6 0-1 .1-1.4.4-.4.2-.7.6-1 1a3 3 0 0 0-.2 1.3v.8c0 .7 0 1.2.3 1.7.2.4.6.8 1 1 .4.3.9.4 1.4.4.4 0 .7 0 1-.2l.7-.4.5-.8 1.3.4-.7 1.1c-.3.4-.7.6-1.2.8-.5.2-1 .3-1.6.3Zm9 0a3.4 3.4 0 0 1-3.3-2.1 6 6 0 0 1 0-4.8c.3-.7.8-1.2 1.3-1.6.6-.4 1.2-.5 2-.5.5 0 1 0 1.3.2.4.2.6.4.8.7l.4.6h.1v-4.3h1.4V86h-1.3v-1.3H75l-.4.6-.8.6c-.3.2-.8.3-1.3.3Zm.1-1.2c.6 0 1-.2 1.4-.4.4-.3.7-.7.8-1.2.2-.5.3-1.1.3-1.8 0-.6 0-1.2-.2-1.7s-.5-.8-.9-1.1c-.4-.3-.8-.4-1.4-.4-.5 0-1 .1-1.4.4-.4.3-.6.7-.8 1.2a4.8 4.8 0 0 0 0 3.4l.8 1.1c.4.3.9.5 1.4.5ZM29.4 99.2c-.6 0-1.1-.1-1.6-.3a2 2 0 0 1-1-1c-.3-.3-.4-.8-.4-1.4 0-.5 0-.9.3-1.2.2-.3.4-.6.8-.7l1-.4a13.3 13.3 0 0 1 2.5-.4l.8-.2.2-.4c0-.6-.1-1-.5-1.4-.3-.3-.7-.5-1.3-.5-.7 0-1.2.2-1.5.5-.4.2-.7.5-.8.9l-1.3-.5a3 3 0 0 1 2.2-1.9 5.2 5.2 0 0 1 2.3 0c.4 0 .7.2 1 .4.4.2.7.5 1 .9.1.4.3 1 .3 1.7V99H32v-1.2l-.5.6-.9.6-1.2.2Zm.2-1.2c.5 0 1-.1 1.3-.3a2.1 2.1 0 0 0 1.1-1.9v-1.2l-.4.2a6.3 6.3 0 0 1-1.3.2 36 36 0 0 0-1.6.3l-.7.5c-.2.2-.3.5-.3.8 0 .5.2.8.5 1 .4.3.8.4 1.4.4Zm7.5-4.3V99h-1.3v-8.7h1.3v1.3h.1a2 2 0 0 1 1-1c.4-.3.9-.4 1.6-.4.5 0 1 0 1.5.3.4.3.8.6 1 1.1.3.5.4 1.1.4 1.9V99h-1.3v-5.5c0-.6-.2-1.2-.6-1.6a2 2 0 0 0-1.4-.5c-.5 0-.8 0-1.2.2a2 2 0 0 0-.8.9c-.2.3-.3.7-.3 1.3Zm8 5.3v-8.7h1.4V99h-1.3Zm.7-10.2a1 1 0 0 1-.6-.2.9.9 0 0 1-.3-.7c0-.2 0-.5.3-.6l.6-.3c.3 0 .5 0 .7.3.2.1.3.4.3.6 0 .3-.1.5-.3.7a1 1 0 0 1-.7.2ZM49 99v-8.7h1.2v1.3h.2c.1-.4.4-.8.8-1 .4-.3 1-.4 1.5-.4.6 0 1 0 1.4.4.4.2.7.6 1 1 .3-.4.6-.8 1-1a3 3 0 0 1 1.6-.4c.8 0 1.5.2 2 .7.5.5.7 1.2.7 2.3V99h-1.3v-5.8c0-.7-.2-1.1-.6-1.4a2 2 0 0 0-1.2-.4c-.6 0-1 .1-1.4.5a2 2 0 0 0-.5 1.4V99H54v-6c0-.5-.2-.9-.5-1.2-.3-.3-.7-.4-1.2-.4-.4 0-.7 0-1 .2l-.7.8a2 2 0 0 0-.3 1.1V99H49Zm16.4.2-1.5-.3a2 2 0 0 1-1-1c-.3-.3-.4-.8-.4-1.4 0-.5 0-.9.2-1.2.2-.3.5-.6.8-.7l1.1-.4a13.3 13.3 0 0 1 2.5-.4l.8-.2.2-.4c0-.6-.2-1-.5-1.4-.3-.3-.7-.5-1.4-.5-.6 0-1.1.2-1.5.5-.3.2-.6.5-.7.9l-1.3-.5a3 3 0 0 1 2.2-1.9 5.2 5.2 0 0 1 2.3 0c.3 0 .7.2 1 .4.4.2.7.5.9.9.2.4.3 1 .3 1.7V99h-1.3v-1.2l-.5.6-.9.6-1.3.2Zm.2-1.2c.6 0 1-.1 1.4-.3a2.1 2.1 0 0 0 1-1.9v-1.2l-.3.2a6.3 6.3 0 0 1-1.4.2 36 36 0 0 0-1.5.3l-.7.5c-.2.2-.3.5-.3.8 0 .5.2.8.5 1 .4.3.8.4 1.3.4Zm7.6-10.6V99H72V87.4h1.3Z"/>
  </mask>
  <path fill="#000" d="M30 77.3c-.2-.6-.4-1-1-1.4-.4-.3-1-.4-1.7-.4-.5 0-1 0-1.4.2l-.9.7a1.6 1.6 0 0 0 0 1.8l.5.5.8.4.7.2 1.2.3 1 .4 1 .5c.4.3.7.6.9 1 .2.3.3.8.3 1.3a3 3 0 0 1-.5 1.7 3 3 0 0 1-1.4 1.3c-.6.3-1.4.4-2.3.4a4.6 4.6 0 0 1-3.6-1.5c-.3-.5-.5-1-.6-1.7h1.5c0 .4.2.8.4 1 .3.4.6.6 1 .7.4.2.9.2 1.3.2.6 0 1 0 1.5-.2l1-.8c.2-.3.4-.7.4-1 0-.5-.1-.8-.4-1-.2-.3-.5-.5-.8-.6a9 9 0 0 0-1.2-.4l-1.4-.4c-.9-.3-1.6-.7-2.1-1.1-.6-.5-.8-1.2-.8-2 0-.6.1-1.2.5-1.7a3 3 0 0 1 1.4-1c.6-.4 1.3-.5 2-.5a4 4 0 0 1 2 .4c.6.3 1 .6 1.4 1.1.4.5.6 1 .6 1.6h-1.4Zm7.4 0v1.1h-4.6v-1.1h4.6Zm-3.2-2.1h1.3v8.3c0 .4 0 .7.2.9 0 .1.2.3.4.3l.6.1h.5l.3 1.2a2.7 2.7 0 0 1-1 .1c-.4 0-.7 0-1.1-.2-.4-.2-.7-.4-.9-.8-.2-.3-.3-.7-.3-1.2v-8.7Zm10.7 7.2v-5.1h1.3V86H45v-1.5h-.1c-.2.5-.5.8-1 1.2-.4.3-1 .4-1.6.4a3 3 0 0 1-1.5-.3l-1-1.1a5 5 0 0 1-.3-1.9v-5.5h1.3v5.4c0 .7.2 1.2.6 1.5.3.4.8.6 1.3.6a2.3 2.3 0 0 0 2.3-2.4Zm7.7-5.1v1.1h-4.7v-1.1h4.7ZM49.3 86V76c0-.4 0-.8.3-1.2.3-.3.6-.6 1-.7a2 2 0 0 1 1.1-.3 3.4 3.4 0 0 1 1.3.2l-.4 1.2h-.3L52 75c-.5 0-.8 0-1 .3-.2.2-.3.6-.3 1V86h-1.3Zm9-8.7v1.1h-4.7v-1.1h4.7ZM55 86V76c0-.4.1-.8.4-1.2.2-.3.5-.6.9-.7l1.2-.3a3.4 3.4 0 0 1 1.3.2l-.4 1.2H58l-.5-.1c-.4 0-.7 0-1 .3l-.2 1V86H55Zm8.5.2a4 4 0 0 1-2.2-.6 4 4 0 0 1-1.4-1.5 6 6 0 0 1 0-4.8c.4-.6.8-1.2 1.4-1.6a4.1 4.1 0 0 1 3.4-.4 3.3 3.3 0 0 1 2 2.2c.3.5.4 1.2.4 2v.6h-6.7v-1.2h5.4c0-.5-.1-.9-.3-1.3a2.2 2.2 0 0 0-2.1-1.2c-.6 0-1 .1-1.4.4-.4.2-.7.6-1 1a3 3 0 0 0-.2 1.3v.8c0 .7 0 1.2.3 1.7.2.4.6.8 1 1 .4.3.9.4 1.4.4.4 0 .7 0 1-.2l.7-.4.5-.8 1.3.4-.7 1.1c-.3.4-.7.6-1.2.8-.5.2-1 .3-1.6.3Zm9 0a3.4 3.4 0 0 1-3.3-2.1 6 6 0 0 1 0-4.8c.3-.7.8-1.2 1.3-1.6.6-.4 1.2-.5 2-.5.5 0 1 0 1.3.2.4.2.6.4.8.7l.4.6h.1v-4.3h1.4V86h-1.3v-1.3H75l-.4.6-.8.6c-.3.2-.8.3-1.3.3Zm.1-1.2c.6 0 1-.2 1.4-.4.4-.3.7-.7.8-1.2.2-.5.3-1.1.3-1.8 0-.6 0-1.2-.2-1.7s-.5-.8-.9-1.1c-.4-.3-.8-.4-1.4-.4-.5 0-1 .1-1.4.4-.4.3-.6.7-.8 1.2a4.8 4.8 0 0 0 0 3.4l.8 1.1c.4.3.9.5 1.4.5ZM29.4 99.2c-.6 0-1.1-.1-1.6-.3a2 2 0 0 1-1-1c-.3-.3-.4-.8-.4-1.4 0-.5 0-.9.3-1.2.2-.3.4-.6.8-.7l1-.4a13.3 13.3 0 0 1 2.5-.4l.8-.2.2-.4c0-.6-.1-1-.5-1.4-.3-.3-.7-.5-1.3-.5-.7 0-1.2.2-1.5.5-.4.2-.7.5-.8.9l-1.3-.5a3 3 0 0 1 2.2-1.9 5.2 5.2 0 0 1 2.3 0c.4 0 .7.2 1 .4.4.2.7.5 1 .9.1.4.3 1 .3 1.7V99H32v-1.2l-.5.6-.9.6-1.2.2Zm.2-1.2c.5 0 1-.1 1.3-.3a2.1 2.1 0 0 0 1.1-1.9v-1.2l-.4.2a6.3 6.3 0 0 1-1.3.2 36 36 0 0 0-1.6.3l-.7.5c-.2.2-.3.5-.3.8 0 .5.2.8.5 1 .4.3.8.4 1.4.4Zm7.5-4.3V99h-1.3v-8.7h1.3v1.3h.1a2 2 0 0 1 1-1c.4-.3.9-.4 1.6-.4.5 0 1 0 1.5.3.4.3.8.6 1 1.1.3.5.4 1.1.4 1.9V99h-1.3v-5.5c0-.6-.2-1.2-.6-1.6a2 2 0 0 0-1.4-.5c-.5 0-.8 0-1.2.2a2 2 0 0 0-.8.9c-.2.3-.3.7-.3 1.3Zm8 5.3v-8.7h1.4V99h-1.3Zm.7-10.2a1 1 0 0 1-.6-.2.9.9 0 0 1-.3-.7c0-.2 0-.5.3-.6l.6-.3c.3 0 .5 0 .7.3.2.1.3.4.3.6 0 .3-.1.5-.3.7a1 1 0 0 1-.7.2ZM49 99v-8.7h1.2v1.3h.2c.1-.4.4-.8.8-1 .4-.3 1-.4 1.5-.4.6 0 1 0 1.4.4.4.2.7.6 1 1 .3-.4.6-.8 1-1a3 3 0 0 1 1.6-.4c.8 0 1.5.2 2 .7.5.5.7 1.2.7 2.3V99h-1.3v-5.8c0-.7-.2-1.1-.6-1.4a2 2 0 0 0-1.2-.4c-.6 0-1 .1-1.4.5a2 2 0 0 0-.5 1.4V99H54v-6c0-.5-.2-.9-.5-1.2-.3-.3-.7-.4-1.2-.4-.4 0-.7 0-1 .2l-.7.8a2 2 0 0 0-.3 1.1V99H49Zm16.4.2-1.5-.3a2 2 0 0 1-1-1c-.3-.3-.4-.8-.4-1.4 0-.5 0-.9.2-1.2.2-.3.5-.6.8-.7l1.1-.4a13.3 13.3 0 0 1 2.5-.4l.8-.2.2-.4c0-.6-.2-1-.5-1.4-.3-.3-.7-.5-1.4-.5-.6 0-1.1.2-1.5.5-.3.2-.6.5-.7.9l-1.3-.5a3 3 0 0 1 2.2-1.9 5.2 5.2 0 0 1 2.3 0c.3 0 .7.2 1 .4.4.2.7.5.9.9.2.4.3 1 .3 1.7V99h-1.3v-1.2l-.5.6-.9.6-1.3.2Zm.2-1.2c.6 0 1-.1 1.4-.3a2.1 2.1 0 0 0 1-1.9v-1.2l-.3.2a6.3 6.3 0 0 1-1.4.2 36 36 0 0 0-1.5.3l-.7.5c-.2.2-.3.5-.3.8 0 .5.2.8.5 1 .4.3.8.4 1.3.4Zm7.6-10.6V99H72V87.4h1.3Z"/>
  <path fill="#fff" d="m30 77.3-2 .2a2 2 0 0 0 2 1.8v-2Zm-1-1.4-1 1.7 1-1.7Zm-3-.2-.9-1.8.8 1.8Zm-1 .7-1.6-1.2 1.6 1.2Zm0 1.8-1.7 1v.1l1.6-1.1Zm.5.5-1 1.7 1-1.7Zm.8.4-.7 1.9.7-1.9Zm.7.2.5-2-.5 2Zm1.2.3-.6 2 .6-2Zm1 .4-.7 1.8.7-1.8Zm1 .5-1.1 1.7 1.1-1.7Zm.9 1 1.7-1-1.7 1Zm-.2 3-1.6-1 1.6 1Zm-1.4 1.3-.9-1.9.9 1.9Zm-4.4 0-.9 1.8.9-1.8Zm-1.5-1.1L22 85.8l1.6-1.1ZM23 83v-2a2 2 0 0 0-2 2.1l2-.1Zm1.5 0 2-.2a2 2 0 0 0-2-1.8v2Zm.4 1-1.5 1.4 1.5-1.3Zm1 .7-.6 2 .6-2Zm2.8 0 .7 1.8-.7-1.8Zm1-.8 1.6 1.3-1.6-1.3Zm0-2 1.5-1.4-1.5 1.4Zm-.8-.6L28 83l.8-1.8Zm-1.2-.4-.5 2 .5-2Zm-1.4-.4-.5 1.9.5-2Zm-2.1-1.1-1.4 1.4 1.4-1.4Zm-.3-3.7-1.6-1.1 1.6 1.2Zm1.4-1 .8 1.7-.8-1.8Zm4 0-.8 1.7.8-1.8Zm1.4 1-1.6 1.2 1.6-1.2Zm.6 1.6v2a2 2 0 0 0 2-2h-2Zm.6-.3a3.8 3.8 0 0 0-1.7-2.7L28 77.6a.3.3 0 0 1 0-.1l3.9-.5Zm-1.7-2.7c-.9-.6-1.9-.8-3-.8v4l.8.1 2.2-3.3Zm-3-.8c-.6 0-1.4 0-2 .4l1.5 3.6h.6v-4Zm-2 .4c-.7.3-1.3.7-1.8 1.3l3.2 2.4h.1l-1.6-3.7Zm-1.8 1.3c-.4.7-.7 1.4-.7 2.2h4v.2l-3.3-2.4Zm-.7 2.2c0 .6.2 1.3.6 1.9l3.3-2.2.1.2h-4Zm.6 2c.3.4.7.7 1.2 1l2-3.4-3.2 2.3Zm1.2 1c.3.3.7.4 1 .6l1.5-3.8c-.2 0-.3 0-.4-.2l-2.1 3.4Zm1.1.6.9.3 1-4h-.6L25.6 81Zm.9.2 1.1.4 1-3.9-1.1-.3-1 3.8Zm1.1.4.9.2 1.4-3.7-1.2-.4-1 3.9Zm.9.2.6.4 2.3-3.3-1.5-.8-1.4 3.7Zm.6.4.3.3 3.4-2a5 5 0 0 0-1.4-1.6L29 82.2Zm.3.3v.3h4c0-.8-.1-1.6-.6-2.4l-3.4 2Zm0 .3-.1.7 3.3 2.1a5 5 0 0 0 .8-2.8h-4Zm-.1.7c-.1.1-.3.3-.7.4l1.8 3.7c.9-.5 1.7-1.1 2.2-2l-3.3-2.1Zm-.7.5-1.4.2v4c1.1 0 2.2-.2 3.2-.6L28.6 84Zm-1.4.2L26 84l-1.6 3.6c.9.4 1.9.6 3 .6v-4ZM26 84l-.7-.5-3.2 2.3c.6.8 1.4 1.4 2.2 1.8L26 84Zm-.6-.5c-.2-.1-.2-.3-.3-.6l-4 .2c.1 1 .4 2 1 2.7l3.3-2.3ZM23 85h1.5v-4H23v4Zm-.5-1.8c0 .8.4 1.6 1 2.2l3-2.6-4 .4Zm1 2.2c.5.6 1 1 1.8 1.2l1.3-3.8h-.2l-3 2.6Zm1.8 1.2a6 6 0 0 0 2 .3v-4a2 2 0 0 1-.7 0l-1.3 3.7Zm2 .3c.7 0 1.4 0 2.1-.4L28 82.8l-.7.1v4Zm2.1-.4a5 5 0 0 0 1.9-1.3L28 82.7l-.2.1 1.5 3.7Zm1.9-1.3a4 4 0 0 0 .8-2.4h-4v-.1l3.2 2.5Zm.8-2.4c0-.8-.3-1.6-.9-2.3l-3 2.7-.1-.3h4Zm-.9-2.3c-.4-.5-1-.8-1.5-1L28 83l.1.1 3-2.7Zm-1.5-1-1.4-.5-1 3.8.8.3 1.6-3.7Zm-1.4-.5-1.4-.4-1.1 3.8 1.4.4 1.1-3.8Zm-1.4-.4c-.7-.2-1.2-.5-1.4-.7l-2.7 3a7 7 0 0 0 3 1.5l1-3.8Zm-1.4-.7-.1-.4h-4c0 1.2.4 2.4 1.4 3.3l2.7-3Zm-.1-.4.1-.6-3.2-2.3c-.7.8-1 1.8-1 2.9h4Zm.1-.6.6-.5-1.6-3.6c-.9.4-1.6 1-2.2 1.8l3.2 2.3Zm.6-.5 1.2-.2v-4c-1 0-2 .2-2.8.6l1.6 3.6Zm1.2-.2c.5 0 1 0 1.2.2l1.7-3.6c-1-.4-1.9-.6-2.9-.6v4Zm1.2.2.6.5 3.2-2.4a5.5 5.5 0 0 0-2.1-1.7l-1.7 3.6Zm.6.5.2.4h4c0-1-.4-2-1-2.8l-3.2 2.4Zm2.2-1.6h-1.4v4h1.4v-4Zm6 2h2a2 2 0 0 0-2-2v2Zm0 1.1v2a2 2 0 0 0 2-2h-2Zm-4.5 0h-2c0 1.1 1 2 2 2v-2Zm0-1.1v-2a2 2 0 0 0-2 2h2Zm1.4-2.1v-2a2 2 0 0 0-2 2h2Zm1.3 0h2a2 2 0 0 0-2-2v2Zm.2 9.2-1.8 1 1.8-1Zm.4.3-.7 1.9.7-1.9Zm1 .1.2 2h.1l-.4-2Zm.1 0 2-.5a2 2 0 0 0-2.3-1.5l.3 2Zm.3 1.2.7 1.8a2 2 0 0 0 1.3-2.3l-2 .5Zm-.4 0-.4-1.9.4 2Zm-1.7-.1-.8 1.8.8-1.8Zm-.9-.8L33 86.3l1.6-1.2Zm.9-7.8v1.1h4v-1.1h-4Zm2-.9h-4.6v4h4.6v-4Zm-2.6 2v-1.1h-4v1.1h4Zm-2 .9h4.6v-4h-4.6v4Zm1.4-2.1h1.3v-4h-1.3v4Zm-.7-2v8.3h4v-8.3h-4Zm0 8.3c0 .5 0 1.2.4 1.9l3.5-2a1 1 0 0 1 .1.2v-.1h-4Zm.5 1.9c.3.5.7 1 1.4 1.2l1.4-3.7c.1 0 .3 0 .4.2l.2.2-3.4 2.1Zm1.4 1.2c.4.2.8.2 1.3.2v-4l-1.3 3.8Zm1.3.2h.6l-.6-4v4Zm.7 0h.2l-.7-4h-.3l.8 4Zm-2.1-1.6.3 1.2 3.9-.9-.3-1.2-4 .9Zm1.5-1.1.7 4 .7-.3-1.4-3.7Zm-.1 0h-.2v4l1-.1-.8-3.9Zm-.2 0h-.3l-1.6 3.6c.6.3 1.2.4 2 .4v-4Zm-.3 0V84l-3.3 2.3c.4.6 1 1 1.7 1.4l1.6-3.7Zm0-.1h-4c0 .8.1 1.6.7 2.4L36 84Zm0-.1v-8.7h-4v8.7h4Zm8.7-6.6v-2a2 2 0 0 0-2 2h2Zm1.3 0h2a2 2 0 0 0-2-2v2Zm0 8.7v2a2 2 0 0 0 2-2h-2ZM45 86h-2c0 1.1.9 2 2 2v-2Zm0-1.5h2a2 2 0 0 0-2-2v2Zm-.1 0v-2a2 2 0 0 0-1.8 1.2l1.8.8Zm-1 1.2 1.2 1.6-1.2-1.6Zm-3 0-1 1.8 1-1.7Zm-1-1-1.9.9 1.8-1Zm-.4-7.4v-2a2 2 0 0 0-2 2h2Zm1.3 0h2a2 2 0 0 0-2-2v2Zm.6 7-1.5 1.3 1.5-1.3Zm2.3.3-.8-1.8.8 1.8Zm1-.8L43 82.7l1.6 1Zm2.3-1.4v-5.1h-4v5.1h4Zm-2-3.1h1.3v-4H45v4Zm-.7-2V86h4v-8.7h-4Zm2 6.7H45v4h1.3v-4Zm.7 2v-1.5h-4V86h4Zm-2-3.5h-.1v4-4Zm-2 1.2s0 .2-.2.3l2.3 3.3c.7-.5 1.2-1.2 1.6-2L43 83.8Zm-.2.3-.5.1v4c1 0 2-.2 2.8-.8L42.7 84Zm-.5.1a1 1 0 0 1-.5 0l-2 3.4a5 5 0 0 0 2.5.6v-4Zm-.5 0c0-.1 0-.2-.2-.3L38 85.6c.3.8 1 1.4 1.7 1.9l2-3.5Zm-.2-.3-.1-1h-4c0 1 .1 2 .5 2.8l3.6-1.8Zm-.1-1v-5.5h-4v5.5h4Zm-2-3.5h1.3v-4h-1.3v4Zm-.7-2v5.4h4v-5.4h-4Zm0 5.4c0 1 .3 2 1 3l3-2.8v-.2h-4Zm1.1 3c.8.7 1.8 1.1 2.8 1.1v-4h.1l-2.9 2.8Zm2.8 1.1c.7 0 1.4-.2 2-.4l-1.8-3.6h-.2v4Zm2-.4c.6-.4 1.2-.9 1.6-1.5L43 82.7h-.1l1.7 3.7Zm1.6-1.5c.5-.8.7-1.6.7-2.5h-4v.3l3.3 2.2Zm6.4-7.6h2a2 2 0 0 0-2-2v2Zm0 1.1v2a2 2 0 0 0 2-2h-2Zm-4.7 0h-2c0 1.1.8 2 2 2v-2Zm0-1.1v-2a2 2 0 0 0-2 2h2Zm1.4 8.7h-2c0 1.1.9 2 2 2v-2Zm.3-11.2L48 73.7l1.6 1.1Zm1-.7-.9-1.9.8 1.9Zm2-.2-.6 2 .5-2Zm.4.1 1.9.7c.3-1-.2-2-1.1-2.5L53 74Zm-.4 1.2-.6 1.9a2 2 0 0 0 2.5-1.3l-1.9-.6Zm-.3 0-.5 1.8.5-1.9Zm-1.4.2-1.5-1.3 1.5 1.3ZM50.6 86v2a2 2 0 0 0 2-2h-2Zm0-8.7v1.1h4v-1.1h-4Zm2-.9h-4.7v4h4.7v-4Zm-2.7 2v-1.1h-4v1.1h4Zm-2 .9h4.7v-4h-4.7v4Zm3.4 6.7V76h-4v10h4Zm0-10L48 73.7c-.5.7-.7 1.6-.7 2.4h4Zm0 0v-.1l-1.6-3.7c-.7.4-1.3.8-1.7 1.5l3.3 2.3Zm0-.1h.4v-4c-.7 0-1.3 0-2 .3l1.6 3.7Zm.4 0h.3l1-4h-1.3v4Zm.3 0h.2l1.6-3.7a5 5 0 0 0-.8-.2l-1 3.8Zm-1-2.5-.3 1.2 3.8 1.2.4-1.1-3.8-1.3Zm2.2 0-.3-.2-1.1 3.8.2.1 1.2-3.8Zm-.3-.2-1-.1v4h-.1l1-3.9Zm-1-.1c-.8 0-1.8.2-2.5 1l3 2.6c-.2.2-.3.3-.5.3 0 0-.1 0 0 0v-4Zm-2.5 1c-.6.7-.8 1.6-.8 2.3h4s0 .2-.2.3l-3-2.6Zm-.8 2.3V86h4v-9.6h-4Zm2 7.6h-1.3v4h1.3v-4Zm7.7-6.7h2a2 2 0 0 0-2-2v2Zm0 1.1v2a2 2 0 0 0 2-2h-2Zm-4.7 0h-2c0 1.1 1 2 2 2v-2Zm0-1.1v-2a2 2 0 0 0-2 2h2ZM55 86h-2c0 1.1 1 2 2 2v-2Zm.4-11.2-1.7-1.1 1.7 1.1Zm.9-.7-.8-1.9.8 1.9Zm2-.2-.5 2 .5-2Zm.5.1 1.9.7c.3-1-.2-2-1.1-2.5l-.8 1.8Zm-.4 1.2-.7 1.9a2 2 0 0 0 2.6-1.3l-2-.6Zm-.3 0-.6 1.8.6-1.9Zm-1.4.2-1.5-1.3 1.5 1.3ZM56.4 86v2a2 2 0 0 0 2-2h-2Zm0-8.7v1.1h4v-1.1h-4Zm2-.9h-4.8v4h4.7v-4Zm-2.8 2v-1.1h-4v1.1h4Zm-2 .9h4.7v-4h-4.7v4ZM57 86V76h-4v10h4Zm0-10-3.3-2.3c-.5.7-.7 1.6-.7 2.4h4Zm0 0 .1-.1-1.6-3.7c-.7.4-1.3.8-1.8 1.5L57 76Zm.1-.1h.4v-4c-.7 0-1.4 0-2 .3L57 76Zm.4 0h.3l1-4h-1.3v4Zm.3 0h.2l1.6-3.7a5 5 0 0 0-.8-.2l-1 3.8Zm-1-2.5-.3 1.2 3.8 1.2.4-1.1-3.8-1.3Zm2.2 0-.4-.2-1 3.8.1.1 1.3-3.8Zm-.4-.2-1-.1v4l1-3.9Zm-1-.1c-.7 0-1.7.2-2.4 1l3 2.6-.5.3c-.1 0-.1 0 0 0v-4Zm-2.5 1c-.6.7-.7 1.6-.7 2.3h4l-.2.3-3-2.6Zm-.7 2.3V86h4v-9.6h-4Zm2 7.6H55v4h1.4v-4Zm5 1.6-1.1 1.7 1-1.7Zm-1.5-1.5-1.8.8 1.8-.8Zm0-4.8-1.8-.8 1.8.8Zm1.4-1.6 1 1.7-1-1.7Zm3.4-.3.7-2-.7 2Zm1.2.7-1.3 1.5 1.3-1.5Zm.9 1.4 1.9-.8-2 .8ZM67 82v2a2 2 0 0 0 2-2h-2Zm-6.7 0h-2c0 1.1.9 2 2 2v-2Zm0-1.2v-2a2 2 0 0 0-2 2h2Zm5.4 0v2a2 2 0 0 0 2-2h-2Zm-.3-1.3-1.8 1 1.8-1Zm-.9-.9-1 1.7 1-1.7Zm-2.6 0 1.1 1.7-1.1-1.6Zm-1 1-1.7-.8 1.8.9Zm.1 3.9-1.8.9 1.8-1Zm1 1-1 1.8 1-1.8Zm2.4.2.6 2-.6-2Zm.7-.4 1.4 1.4-1.4-1.4Zm.5-.8.5-2a2 2 0 0 0-2.4 1.3l1.9.7Zm1.3.4 1.9.6a2 2 0 0 0-1.4-2.5l-.4 2Zm-.7 1.1 1.4 1.4-1.4-1.4ZM65 86l.7 1.9L65 86Zm-1.6-1.7c-.5 0-.9-.1-1.1-.3l-2.1 3.4c1 .6 2 .9 3.2.9v-4Zm-1.1-.3c-.3-.1-.5-.4-.7-.7L58 85c.5 1 1.2 1.8 2.2 2.4l2-3.4Zm-.7-.7c-.1-.4-.3-.8-.3-1.5h-4c0 1.1.2 2.2.7 3.2l3.6-1.7Zm-.3-1.5c0-.6.2-1.1.3-1.5L58 78.6c-.5 1-.7 2-.7 3.2h4Zm.3-1.5c.2-.4.4-.6.7-.8l-2.2-3.3c-1 .6-1.6 1.4-2 2.4l3.5 1.7Zm.7-.8 1-.2v-4c-1.2 0-2.2.2-3.2.9l2.2 3.3Zm1-.2h.7l1.3-3.7-2-.3v4Zm.7 0 .5.4 2.7-3c-.6-.5-1.2-.9-2-1.1L64 79.4Zm.5.4.3.6 3.8-1.5c-.3-.7-.8-1.5-1.4-2l-2.7 2.9Zm.3.6.2 1.3h4c0-1-.1-1.9-.4-2.8l-3.8 1.5Zm.2 1.3v.6h4v-.6h-4Zm2-1.4h-6.7v4H67v-4Zm-4.7 2V81h-4v1.2h4Zm-2 .8h5.4v-4h-5.4v4Zm7.4-2c0-.7-.2-1.5-.6-2.2l-3.5 1.8v.4h4Zm-.6-2.2c-.3-.7-.8-1.3-1.5-1.7l-2.1 3.4v.1l3.6-1.8ZM65.7 77c-.7-.4-1.5-.6-2.3-.6v4h.1l2.2-3.4Zm-2.3-.6a4 4 0 0 0-2.5.7l2.2 3.3h.3v-4Zm-2.5.7c-.7.5-1.2 1-1.6 1.8l3.6 1.8.2-.3-2.2-3.3Zm-1.6 1.8a5 5 0 0 0-.5 2.2h4v-.4l-3.5-1.8Zm-.5 2.2v.8h4v-.8h-4Zm0 .8c0 .9.1 1.8.5 2.6l3.6-1.8-.1-.8h-4Zm.5 2.6c.4.8 1 1.4 1.8 1.9l2-3.5-.2-.2-3.6 1.8Zm1.8 1.9a5 5 0 0 0 2.4.6v-4l-.4-.1-2 3.5Zm2.4.6 1.6-.3-1.3-3.8h-.3v4Zm1.6-.3a4 4 0 0 0 1.5-.9L63.8 83l1.3 3.8Zm1.5-.9c.4-.4.8-1 1-1.5L63.8 83l2.8 2.9Zm-1.5-.3 1.3.4 1.1-3.8-1.3-.4-1 3.8Zm0-2.1-.2.3 2.8 2.8c.6-.5 1-1.2 1.2-2l-3.9-1Zm-.2.3c-.1.1-.3.3-.5.3l1.4 3.8c.7-.3 1.4-.7 2-1.3l-3-2.8Zm-.5.3-.9.2v4c.8 0 1.6-.1 2.3-.4L64.4 84Zm6.1 1.6-1 1.7 1-1.7Zm-1.3-1.5-1.8.8 1.8-.8Zm0-4.8-1.8-.9 1.8.9Zm1.3-1.6-1-1.7 1 1.7Zm3.3-.3-1 1.8 1-1.8Zm.8.7L73 79.3l1.6-1.2Zm.4.6-1.7 1c.4.6 1 1 1.7 1v-2Zm.1 0v2a2 2 0 0 0 2-2h-2Zm0-4.3v-2a2 2 0 0 0-2 2h2Zm1.4 0h2a2 2 0 0 0-2-2v2Zm0 11.6v2a2 2 0 0 0 2-2h-2Zm-1.3 0h-2c0 1.1.9 2 2 2v-2Zm0-1.3h2a2 2 0 0 0-2-2v2Zm-.2 0v-2a2 2 0 0 0-1.7 1l1.7 1Zm-.4.6 1.6 1.2-1.6-1.2Zm-.8.6 1 1.8-1-1.8Zm.2-1.3 1.2 1.6-1.2-1.6Zm.8-1.2 2 .7-2-.7Zm0-3.5-1.8.7 1.9-.7Zm-.8-1.1-1.2 1.6 1.2-1.6Zm-2.8 0 1.2 1.6-1.2-1.6Zm-.8 1.2-1.9-.7 1.9.7Zm0 3.3-1.9.7 1.9-.7Zm.8 1.2L70 86.1l1.2-1.6Zm1.3-.3-.9-.2-2.2 3.3c1 .6 2 .9 3 .9v-4Zm-.9-.2-.6-.8-3.6 1.7c.5 1 1.1 1.8 2 2.4l2.2-3.3Zm-.6-.8c-.1-.3-.3-.8-.3-1.5h-4c0 1.1.2 2.2.7 3.2l3.6-1.7Zm-.3-1.5c0-.7.2-1.2.3-1.6l-3.6-1.7c-.5 1-.7 2.1-.7 3.3h4ZM71 80c.2-.4.4-.6.6-.7L69.4 76c-.9.6-1.5 1.5-2 2.4l3.6 1.7Zm.6-.7c.2-.2.5-.2.9-.2v-4c-1.1 0-2.1.2-3 .8l2.1 3.4Zm.9-.2h.3l2-3.5c-.7-.4-1.6-.5-2.3-.5v4Zm.3 0c.2 0 .2.1.2 0l3.2-2.3a4 4 0 0 0-1.4-1.2l-2 3.5Zm.2 0 .3.5 3.4-2.1-.5-.7-3.2 2.4Zm2 1.5h.1v-4H75v4Zm2.1-2v-4.3h-4v4.3h4Zm-2-2.3h1.4v-4H75v4Zm-.6-2V86h4V74.4h-4Zm2 9.6h-1.3v4h1.3v-4Zm.7 2v-1.3h-4V86h4Zm-2-3.3H75v4h.2v-4Zm-1.9 1s-.2.1-.3.4l3.2 2.4.5-.8-3.4-2Zm-.3.3-.2.2 2 3.4c.5-.2 1-.6 1.4-1.1L73 84Zm-.2.2h-.3v4a5 5 0 0 0 2.3-.5l-2-3.5Zm-.2 2.8c1 0 1.8-.3 2.6-.8L72.8 83h-.2v4Zm2.6-.9c.7-.5 1.2-1.2 1.5-2L73 82.7l-.2.3 2.4 3.1Zm1.5-2c.3-.8.4-1.6.4-2.5h-4l-.1 1 3.7 1.5Zm.4-2.5c0-.8 0-1.6-.4-2.4L73 80.6l.1 1h4Zm-.4-2.4c-.3-.8-.8-1.5-1.5-2l-2.4 3.2.2.2 3.7-1.4Zm-1.5-2c-.8-.6-1.7-.8-2.6-.8v4h.2l2.4-3.2Zm-2.6-.8c-.9 0-1.8.2-2.6.8l2.4 3.2h.2v-4Zm-2.6.8c-.7.6-1.2 1.3-1.5 2l3.7 1.5.2-.3-2.4-3.2Zm-1.5 2c-.3.8-.4 1.6-.4 2.4h4l.1-1-3.7-1.3Zm-.4 2.4c0 .9.1 1.7.4 2.4l3.7-1.4-.1-1h-4Zm.4 2.4c.3.8.8 1.5 1.5 2.1l2.5-3.1-.3-.4-3.7 1.4ZM70 86c.8.6 1.7.9 2.6.9v-4h-.1L70 86ZM27.8 99l-.8 1.8.8-1.8Zm-1-1L25 99.2l1.7-1.1Zm-.1-2.6 1.7 1-1.7-1Zm1.8-1.1.5 2-.5-2Zm1.3-.2-.3-2 .3 2Zm1.2-.2.3 2-.3-2Zm.8-.2-1-1.7 1 1.7Zm-.3-1.8-1.4 1.4 1.4-1.4Zm-2.8 0 1.2 1.5-1.2-1.5Zm-.8.9-.7 1.8c1 .4 2 0 2.5-1l-1.8-.8Zm-1.3-.5-1.8-.8a2 2 0 0 0 1.2 2.7l.6-1.9Zm1-1.2 1.2 1.5-1.3-1.5Zm1.2-.7.5 2-.5-2Zm2.3 0-.4 2 .4-2Zm1 .4-1 1.7 1-1.7Zm1 .9-1.8 1 1.7-1Zm.3 7.4v2a2 2 0 0 0 2-2h-2ZM32 99h-2c0 1.1.9 2 2 2v-2Zm0-1.2h2a2 2 0 0 0-2-2v2Zm0 0v-2a2 2 0 0 0-2 1.2l1.8.8Zm-.5.6 1.4 1.4-1.4-1.4Zm-.9.6-.8-1.9.8 1.9Zm.3-1.3-1-1.8 1 1.8Zm.8-.8-1.7-1 1.7 1Zm.3-2.3h2a2 2 0 0 0-3.5-1.3l1.5 1.3Zm-.4.2.6 2-.6-2Zm-.6.1.3 2-.3-2Zm-.7.1.2 2-.2-2Zm-.6.1.2 2-.2-2Zm-1 .2.6 2-.6-2Zm-.7.5-1.5-1.4 1.5 1.4Zm.2 1.8-1.1 1.7 1.1-1.7Zm1.2-.4-.7-.1-1.7 3.6c.7.4 1.5.5 2.4.5v-4Zm-.7-.1a.6.6 0 0 1-.3-.2L25.1 99a5 5 0 0 0 1.9 1.6l1.7-3.6Zm-.3-.2v-.4h-4c0 1 .2 1.8.7 2.6l3.3-2.2Zm0-.4v-.2l-3.4-2c-.5.7-.6 1.5-.6 2.2h4Zm0-.1-1.9-3.6a4 4 0 0 0-1.5 1.4l3.4 2.2Zm0 0 .6-.3-.9-3.9-1.6.6 2 3.5Zm.6-.3 1-.2-.5-4-1.4.3.9 4Zm1-.2 1.3-.1-.5-4-1.3.2.5 4Zm1.3-.1c.4 0 1-.2 1.5-.5l-2-3.4.1-.1.4 4Zm1.5-.4c.9-.6 1.2-1.5 1.2-2.2h-4c0-.2 0-.4.2-.7.1-.3.3-.5.6-.6l2 3.5Zm1.2-2.2h-4 4Zm0 0c0-1-.3-2-1-2.8l-3 2.8a.6.6 0 0 1 0-.2c-.1 0 0 0 0 .1h4Zm-1-2.8a4 4 0 0 0-2.8-1v4h.1l-.2-.2 2.9-2.8Zm-2.8-1c-1 0-2 .1-2.8.8l2.5 3.1h.3v-4Zm-2.8.8c-.5.4-1 1-1.3 1.6l3.6 1.7.2-.2-2.5-3.1Zm1.2.6-1.3-.5-1.3 3.8 1.2.4 1.4-3.7Zm-.1 2.2c0-.3.2-.4.3-.5l-2.5-3.1a5 5 0 0 0-1.5 2l3.7 1.6Zm.3-.5.5-.2-1-3.9c-.7.2-1.4.5-2 1l2.5 3.1Zm.5-.2.8-.1v-4c-.6 0-1.2 0-1.8.2l1 3.9Zm.8-.1h.6l.8-3.9-1.4-.1v4Zm.6 0c.2 0 .3 0 .4.2l2-3.5a5 5 0 0 0-1.7-.6l-.7 4Zm.4.2.2.2 3.5-2c-.4-.6-1-1.2-1.6-1.7l-2 3.5Zm.2.2v.6h4c0-.8 0-1.8-.5-2.6l-3.5 2Zm0 .7V99h4v-5.8h-4Zm2 3.7H32v4h1.4v-4Zm.7 2v-1.2h-4V99h4Zm-2-3.2v4-4ZM30.1 97s0-.1 0 0l2.8 2.8.8-1.1-3.6-1.7Zm0 0-.3.1 1.6 3.7c.6-.2 1-.5 1.5-1L30.1 97Zm-.3.1-.4.1v4c.6 0 1.4-.1 2-.4l-1.6-3.7Zm-.2 2.9a5 5 0 0 0 2.3-.6l-2-3.4h-.3v4Zm2.3-.6c.6-.3 1.2-.9 1.6-1.5l-3.5-2 1.9 3.5Zm1.6-1.5a4 4 0 0 0 .5-2h-4l3.5 2Zm.5-2v-1.3h-4v1.2h4Zm-3.5-2.6a1.7 1.7 0 0 1 .5-.4s.1 0 0 0l1.2 3.8.6-.2c.2 0 .5-.3.7-.6l-3-2.6Zm.6-.4h-.5l.7 4 .9-.2L31 93Zm-.4 0-.7.2.5 4 .8-.2-.6-4Zm-.7.2h-.6l.6 4h.5l-.5-4Zm-.6 0-1.3.3 1.3 3.8.5-.1-.5-4Zm-1.3.3a4 4 0 0 0-1.6 1l3 2.7-.1.1-1.3-3.8Zm-1.6 1c-.6.7-.8 1.5-.8 2.2h4v.2l-.2.3-3-2.7Zm-.8 2.2c0 1 .4 2 1.4 2.7l2.3-3.3a.9.9 0 0 1 .3.6h-4Zm1.4 2.7c.8.5 1.6.7 2.5.7v-4h-.3l-2.2 3.3Zm10-.3v2a2 2 0 0 0 2-2h-2Zm-1.3 0h-2c0 1.1.9 2 2 2v-2Zm0-8.7v-2a2 2 0 0 0-2 2h2Zm1.3 0h2a2 2 0 0 0-2-2v2Zm0 1.3h-2c0 1.1.9 2 2 2v-2Zm.1 0v2a2 2 0 0 0 1.8-1.1l-1.8-.9Zm1-1 1 1.6-1-1.6Zm3.1 0-1 1.7 1-1.8Zm1 1-1.7 1 1.7-1Zm.4 7.4v2a2 2 0 0 0 2-2h-2Zm-1.3 0h-2c0 1.1.9 2 2 2v-2Zm-.6-7-1.4 1.3 1.4-1.4Zm-2.6-.4-1-1.7 1 1.7Zm-.8.9-1.7-1 1.7 1Zm-2.3 1.3V99h4v-5.3h-4Zm2 3.2h-1.3v4h1.3v-4Zm.7 2v-8.7h-4V99h4Zm-2-6.7h1.3v-4h-1.3v4Zm-.7-2v1.3h4v-1.3h-4Zm2 3.3h.1v-4h-.1v4Zm2-1.1.1-.3-2.1-3.3c-.8.5-1.3 1.1-1.7 1.9l3.6 1.7Zm.1-.3h.6v-4c-1 0-2 .2-2.8.7l2.2 3.3Zm.6 0h.5l2-3.4c-.8-.5-1.7-.6-2.5-.6v4Zm.6 0c0 .1 0 .2.2.3l3.5-1.8a5 5 0 0 0-1.8-2l-2 3.6Zm.2.3.1 1h4a6 6 0 0 0-.6-2.8l-3.5 1.8Zm.1 1V99h4v-5.5h-4Zm2 3.5h-1.3v4h1.3v-4Zm.7 2v-5.5h-4V99h4Zm0-5.5c0-1-.3-2-1.1-3l-3 2.8v.2h4Zm-1.1-3a3.9 3.9 0 0 0-3-1.1v4h.2a.3.3 0 0 1-.1-.1l2.9-2.7Zm-3-1.1c-.7 0-1.4.1-2 .5l1.9 3.5h.2v-4Zm-2 .5a4 4 0 0 0-1.6 1.6l3.5 2v-.1l-2-3.5Zm-1.6 1.6c-.4.7-.6 1.5-.6 2.3h4v-.3l-3.4-2Zm9.5 7.5h-2c0 1.1.9 2 2 2v-2Zm0-8.7v-2a2 2 0 0 0-2 2h2Zm1.3 0h2a2 2 0 0 0-2-2v2Zm0 8.7v2a2 2 0 0 0 2-2h-2Zm-1.3-10.4L43.8 90l1.4-1.4Zm0-1.3-1.4-1.5 1.4 1.5Zm1.3 0-1.4 1.4 1.4-1.4Zm0 1.3L45.1 87l1.4 1.5Zm.7 10.4v-8.7h-4V99h4Zm-2-6.7h1.3v-4h-1.3v4Zm-.7-2V99h4v-8.7h-4Zm2 6.7h-1.3v4h1.3v-4Zm-.7-10.2a1 1 0 0 1 .7.3l-2.7 3a3 3 0 0 0 2 .7v-4Zm.7.3.3.4v.4h-4c0 .8.4 1.6 1 2l2.7-2.8Zm.4.8a1.1 1.1 0 0 1-.4.8l-2.7-2.9a3 3 0 0 0-1 2.1h4Zm-.4.8a1 1 0 0 1-.7.3v-4a3 3 0 0 0-2 .8l2.7 3Zm-.7.3a1 1 0 0 1-.7-.3l2.8-2.9a3 3 0 0 0-2-.8v4Zm-.7-.3-.2-.3-.1-.5h4c0-.8-.3-1.6-1-2l-2.7 2.8Zm-.3-.8a1.2 1.2 0 0 1 .3-.8l2.8 3c.6-.6.9-1.4.9-2.2h-4Zm.3-.8a1 1 0 0 1 .7-.3v4a3 3 0 0 0 2-.8l-2.6-3ZM49 99h-2c0 1.1.8 2 2 2v-2Zm0-8.7v-2a2 2 0 0 0-2 2h2Zm1.2 0h2a2 2 0 0 0-2-2v2Zm0 1.3h-2c0 1.1 1 2 2 2v-2Zm.2 0v2a2 2 0 0 0 1.8-1.2l-1.8-.8Zm.8-1 1.1 1.6-1-1.6Zm3 0L53 92.2l1.1-1.6Zm.8 1-1.8.9a2 2 0 0 0 1.8 1.1v-2Zm.1 0v2a2 2 0 0 0 1.8-1l-1.8-1Zm1-1 1 1.7-1-1.7Zm3.6.3-1.4 1.4 1.4-1.4Zm.7 8.1v2a2 2 0 0 0 2-2h-2Zm-1.3 0h-2c0 1.1.9 2 2 2v-2Zm-.6-7.2-1.2 1.6 1.2-1.6Zm-2.6.1 1.4 1.4-1.4-1.4Zm-.5 7.1v2a2 2 0 0 0 2-2h-2ZM54 99h-2c0 1.1.9 2 2 2v-2Zm-.5-7.2-1.4 1.5 1.4-1.5Zm-2.2-.2-1-1.7 1 1.7Zm-.7.8-1.8-1 1.8 1Zm-.3 6.6v2a2 2 0 0 0 2-2h-2Zm.7 0v-8.7h-4V99h4Zm-2-6.7h1.2v-4H49v4Zm-.8-2v1.3h4v-1.3h-4Zm2 3.3h.2v-4h-.2v4Zm2-1.2.1-.2-2.1-3.3c-.8.5-1.4 1.2-1.7 2l3.7 1.5Zm.1-.2h.4v-4c-.9 0-1.8.2-2.5.7l2.1 3.3Zm.4 0h.3l2.3-3.3c-.8-.5-1.7-.7-2.6-.7v4Zm.3 0s.2.1.2.3l3.7-1.7c-.4-.8-1-1.4-1.6-2L53 92.3Zm2 1.4h.1v-4 4Zm2-1c0-.2 0-.2.2-.3l-2-3.5c-.8.5-1.5 1.1-1.9 2l3.6 1.7Zm.2-.3.5-.1v-4a5 5 0 0 0-2.6.6l2 3.5Zm.5-.1.6.1 2.8-2.8c-1-1-2.1-1.3-3.4-1.3v4Zm.6.1.1.9h4a5 5 0 0 0-1.3-3.7l-2.8 2.8Zm.1.9V99h4v-5.8h-4Zm2 3.8h-1.3v4h1.3v-4Zm.7 2v-5.8h-4V99h4Zm0-5.8c0-1-.3-2.2-1.3-3l-2.5 3.2a.8.8 0 0 1-.2-.4v.2h4Zm-1.3-3a4 4 0 0 0-2.5-.8v4l2.5-3.2Zm-2.5-.8c-1 0-2.1.3-3 1.2l3 2.7c-.1 0-.1 0 0 0v-4Zm-3 1.2a4 4 0 0 0-1 2.7h4l-3-2.7Zm-1 2.7V99h4v-5.7h-4Zm2 3.7H54v4h1.4v-4Zm.7 2v-6h-4v6h4Zm0-6c0-1-.3-1.9-1.1-2.6L52 93.3V93c-.1 0-.1-.1-.1 0h4Zm-1.1-2.6c-.8-.7-1.7-1-2.6-1v4a.4.4 0 0 1-.2-.1l2.8-3Zm-2.6-1c-.8 0-1.4.2-2 .5l2 3.4v-4Zm-2 .5c-.7.4-1.1 1-1.5 1.5l3.5 2-2-3.5Zm-1.5 1.5a4 4 0 0 0-.5 2.1h4a.6.6 0 0 1 0-.1l-3.5-2Zm-.5 2.1V99h4v-5.5h-4Zm2 3.5H49v4h1.3v-4Zm13.6 1.9-.8 1.8.8-1.8Zm-1-1-1.7 1.2 1.6-1.1Zm-.2-2.6 1.7 1-1.7-1Zm2-1.1.4 2-.5-2Zm1.1-.2-.2-2 .2 2Zm1.3-.2.2 2-.2-2Zm.8-.2-1-1.7 1 1.7Zm-.3-1.8-1.4 1.4 1.4-1.4Zm-2.9 0 1.3 1.5-1.3-1.5Zm-.7.9-.7 1.8c1 .4 2 0 2.5-1l-1.8-.8Zm-1.3-.5-1.8-.8a2 2 0 0 0 1.1 2.7l.7-1.9Zm1-1.2 1.1 1.5-1.2-1.5Zm1.2-.7.5 2-.5-2Zm2.3 0-.4 2 .4-2Zm1 .4-1 1.7 1-1.7Zm.9.9-1.8 1 1.8-1Zm.3 7.4v2a2 2 0 0 0 2-2h-2Zm-1.3 0h-2c0 1.1.9 2 2 2v-2Zm0-1.2h2a2 2 0 0 0-2-2v2Zm0 0v-2a2 2 0 0 0-1.9 1.2l1.8.8Zm-.5.6 1.4 1.4-1.4-1.4Zm-.9.6-.7-2 .8 1.9Zm.3-1.3-1-1.8 1 1.8Zm.8-.8-1.7-1 1.7 1Zm.3-2.3h2a2 2 0 0 0-3.5-1.3l1.5 1.3Zm-.4.2.6 2-.6-2Zm-.6.1.3 2-.3-2Zm-.8.1.3 2-.3-2Zm-.5.1.2 2-.2-2Zm-1 .2.6 2-.6-2Zm-.7.5-1.5-1.4 1.5 1.4Zm.2 1.8-1.1 1.7 1.1-1.7Zm1.1-.4-.6-.1-1.7 3.6c.7.4 1.5.5 2.3.5v-4Zm-.6-.1a.6.6 0 0 1-.3-.2L61.2 99a5 5 0 0 0 1.9 1.6l1.7-3.6Zm-.3-.2v-.4h-4c0 1 .2 1.8.7 2.6l3.3-2.2Zm0-.4v-.2l-3.4-2c-.5.7-.6 1.5-.6 2.2h4Zm0-.1-2-3.6a4 4 0 0 0-1.4 1.4l3.3 2.2Zm0 0c.1-.2.3-.2.6-.3l-.9-3.9c-.6.1-1.1.3-1.6.6l1.9 3.5Zm.6-.3 1-.2-.5-4-1.4.3.9 4Zm1-.2 1.2-.1-.4-4-1.3.2.5 4Zm1.3-.1c.4 0 1-.2 1.5-.5l-2-3.4.1-.1.5 4Zm1.4-.4c1-.6 1.3-1.5 1.3-2.2h-4l.1-.7c.2-.3.4-.5.7-.6l2 3.5Zm1.3-2.2h-4 4Zm0 0c0-1-.3-2-1-2.8l-2.9 2.8a.6.6 0 0 1-.1-.2v.1h4Zm-1-2.8c-.9-.8-2-1-2.9-1v4h.2l-.2-.2 2.9-2.8Zm-2.9-1c-.9 0-1.9.1-2.7.8l2.5 3.1c-.1.1-.1 0 .2 0v-4Zm-2.7.8c-.5.4-1 1-1.3 1.6l3.6 1.7.2-.2-2.5-3.1Zm1.1.6-1.2-.5-1.4 3.8 1.3.4 1.3-3.7Zm0 2.2c0-.3.2-.4.2-.5l-2.4-3.1a5 5 0 0 0-1.5 2l3.6 1.6Zm.2-.5.6-.2-1-3.9c-.8.2-1.4.5-2 1l2.4 3.1Zm.6-.2.8-.1v-4c-.6 0-1.2 0-1.9.2l1 3.9Zm.8-.1h.6l.7-3.9-1.3-.1v4Zm.6 0c.1 0 .3 0 .4.2l2-3.5a5 5 0 0 0-1.7-.6l-.7 4Zm.4.2.1.2 3.5-2c-.3-.6-.8-1.2-1.5-1.7l-2 3.5Zm.1.2v.1l.1.5h4a5 5 0 0 0-.6-2.6l-3.5 2Zm.1.7V99h4v-5.8h-4Zm2 3.7h-1.3v4h1.3v-4Zm.7 2v-1.2h-4V99h4Zm-2-3.2v4-4ZM66.2 97s0-.1 0 0l2.8 2.8.8-1.1-3.6-1.7Zm0 0-.3.1 1.6 3.7c.5-.2 1-.5 1.5-1L66 97Zm-.3.1-.5.1v4c.7 0 1.4-.1 2.1-.4L66 97.1Zm-.3 2.9c.8 0 1.6-.2 2.4-.6L66 96h-.4v4Zm2.4-.6c.6-.3 1.2-.9 1.5-1.5l-3.4-2H66l2 3.5Zm1.5-1.5a4 4 0 0 0 .6-2h-4l3.4 2Zm.6-2v-1.3h-4v1.2h4Zm-3.5-2.6a1.7 1.7 0 0 1 .5-.4l1.2 3.8.5-.2c.2 0 .5-.3.8-.6l-3-2.6Zm.6-.4h-.5l.7 4 .9-.2-1.1-3.8Zm-.5 0-.6.2.5 4 .8-.2-.7-4Zm-.6.2h-.6l.5 4h.6l-.5-4Zm-.6 0c-.5 0-1 .2-1.3.3l1.2 3.8.6-.1-.5-4Zm-1.3.3c-.6.2-1.2.5-1.6 1l3 2.7-.2.1-1.2-3.8Zm-1.6 1c-.6.7-.8 1.5-.8 2.2h4v.2l-.3.3-3-2.7Zm-.8 2.2c0 1 .4 2 1.4 2.7l2.2-3.3a.9.9 0 0 1 .4.6h-4Zm1.4 2.7c.7.5 1.6.7 2.4.7v-4h-.2l-2.2 3.3Zm10-12h2a2 2 0 0 0-2-2v2Zm0 11.7v2a2 2 0 0 0 2-2h-2ZM72 99h-2c0 1.1.9 2 2 2v-2Zm0-11.6v-2a2 2 0 0 0-2 2h2Zm-.7 0V99h4V87.4h-4Zm2 9.6H72v4h1.3v-4Zm.7 2V87.4h-4V99h4Zm-2-9.6h1.3v-4H72v4Z" mask="url(#d)"/>
</svg>
