<svg xmlns="http://www.w3.org/2000/svg" fill="none" viewBox="0 0 100 100">
  <mask id="a" width="63" height="66" x="24" y="34" maskUnits="userSpaceOnUse" style="mask-type:luminance">
    <path fill="#fff" d="M24 34.7h62.7v64.6H24V34.7Z"/>
  </mask>
  <g mask="url(#a)">
    <path fill="#F288CA" d="M86.2 95.3 76 58.2a1 1 0 0 0-2-.2 1 1 0 0 0 0 .8l10.1 37a1 1 0 0 0 2.1-.5ZM34.8 53.5h-.1l-8.1.2c-.4 0-.7.1-1 .4-.5.6-.7 1.7-.5 3.5a1 1 0 0 0 2 .5l.2-.8v-1.5l7.5-.2c.3 0 .5-.1.7-.3a1 1 0 0 0-.7-1.8Zm25.6-.1-4.5-.1a1 1 0 0 0-1 1c-.1.6.4 1 1 1l4.5.2c.6 0 1-.5 1-1 0-.6-.4-1.1-1-1.1ZM49.7 79.2c-5.5-1.1-9.7 1.5-10.6 4a94 94 0 0 0-.4 15.8v.2h16.9s.5-3 .1-9.6c-.3-6.6-.4-9.2-6-10.4ZM73 37.7a68 68 0 0 1-.6 14.7c-1 1.9-17.6 0-21.2 0-3.7 0-25.2.8-26.5.3-1-.4-.5-9.3-.2-14 0-1.4 1.4-2.6 2.9-2.6 5.7 0 18.7 0 24-.2l20 .2c1 0 1.6.7 1.6 1.6Z"/>
  </g>
  <mask id="b" width="77" height="100" x="23" y="0" maskUnits="userSpaceOnUse" style="mask-type:luminance">
    <path fill="#fff" d="M23.5.3H100v99H23.5V.3Z"/>
  </mask>
  <g mask="url(#b)">
    <path fill="#EF3220" d="m70.5 70.8-42-.6c-6.2 0-4.8 4-4.8 8.2l.4 16.8c0 4 4 3.7 4 3.7h10.6c0-1.6-.4-13.4.4-15.7 1-2.5 5-5.1 10.6-4 5.6 1.2 5.7 3.8 6 10.4.4 6.6-.1 9.6-.1 9.6h-4.7c7 .1 20 .2 20.9-.8 1-1.4.4-9.4.4-17.8 0-8.3-.8-9.7-1.7-9.8Zm15.2 24.6-10.2-37a.6.6 0 1 0-1.1.2l10.2 37.1a.6.6 0 0 0 .7.4c.3 0 .5-.4.4-.7Zm13.4-1.1L85.2 98c-.9.3-2-1.3-2.6-3.4L73.4 61c-.6-2.2-.3-4.1.6-4.4L87.8 53c1-.3 2 1.3 2.7 3.4A747 747 0 0 1 99.6 90c.6 2.1.4 4-.5 4.3ZM45.3 22.8a1 1 0 1 0 0-2.2c-7.3 0-7.8.6-8.1.9-.4.3-.9.8-.5 9.9 0 .6.4 1 1 1s1.1-.5 1-1l.1-8.3c1-.2 3.7-.3 6.5-.3Zm-8.9-3.9C35 16.5 43 4.1 47.1.9 50-1.3 52.3 2.5 53.7 5c1.3 2.5 5.7 12.6 4.8 14.3-.9 1.7-20.5 2-22-.4Z"/>
  </g>
  <path fill="#F8E505" d="M45.9 21.7c0-.3-.3-.6-.6-.6-7.1 0-7.6.5-7.8.7-.2.2-.7.7-.4 9.6 0 .3.3.6.6.6.4 0 .6-.3.6-.7v-8.6c.9-.3 4.2-.4 7-.4.3 0 .6-.3.6-.6Zm13 14.3c-.7.3-13.2.6-15 .6-1.8 0-7.7.5-8.2-.8-.5-1.2 0-10.4 0-11.6 0-1.2-.3-4 .8-4.5 0 0 21.3 0 22 .4.7.4 1 15.6.3 16ZM17.6 81.4c.6 7.9 0 14.2 0 14.2 0 1-.7 1.7-1.6 1.7H1.7c-1 0-1.7-.7-1.7-1.7V81.4c0-1 .8-1.6 1.7-1.7 7.5-.5 14.4 0 14.4 0 .9 0 1.6.7 1.6 1.7Z"/>
  <path fill="#2B3786" d="M35.4 54.5c0-.3-.3-.6-.6-.6l-8.2.2a1 1 0 0 0-.7.3c-.5.6-.4 2.2-.3 3.1 0 .3.3.6.6.6.4 0 .6-.4.6-.7v-2l8-.3c.3 0 .6-.3.6-.6Zm6.3 15.8c-1.2.4-15 .2-15 .2-2.3-.2-2.2-2.4-2.2-3.4 0-1.1-.5-12.3.2-13.5.8-1.2 10.4-1.5 14.2-1.3 3.7.3 3.6 1.5 3.8 5.2.2 3.6.1 12.3-1 12.8ZM26.5 45.2c.4-.1.6-.4.6-.7-.4-2.9-.2-5.7.4-5.9 1.3-.3 8.1-.2 10.7-.2a.6.6 0 1 0 0-1.1c-1 0-9.3-.3-11 .2-2 .5-1.6 5.2-1.3 7.1 0 .3.3.6.6.6Z"/>
  <path fill="#51B59F" d="M13.7 81.4c0 .3-.3.6-.6.5a32 32 0 0 0-10.7.3c-.3 1.4-.4 7.3-.4 9.5a.6.6 0 1 1-1.2 0c0-.3 0-8.1.4-9.8.2-.8 1.1-1.5 6.4-1.4l5.6.2c.3 0 .5.4.5.7ZM60.4 55h-4.5a.6.6 0 0 1-.6-.7c0-.3.3-.6.6-.6l4.5.1c.3 0 .6.3.6.6 0 .4-.3.6-.6.6Zm11.5-1.7c-1.2-.7-13.3-.6-14.4-.6-1 0-3.3-.3-3.5 2 0 0-.1 13.7.3 14.8.4 1.2 9.2 1.5 12.8 1.3 3.7-.2 5-.3 5.2-4 .2-3.8.8-12.7-.4-13.5Z"/>
  <mask id="c" width="53" height="17" x="24" y="85" fill="#000" maskUnits="userSpaceOnUse">
    <path fill="#fff" d="M24 85h53v17H24z"/>
    <path d="M26.5 99V87.4h4.1a4 4 0 0 1 2 .4c.5.3 1 .6 1.2 1.1.2.5.4 1 .4 1.6 0 .5-.1.9-.3 1.2a2 2 0 0 1-.7.8l-1 .4v.1c.4 0 .8.1 1.2.4.3.2.6.5.9 1 .2.4.3.9.3 1.5s-.1 1.1-.4 1.6c-.2.4-.7.8-1.2 1-.6.4-1.3.5-2.3.5h-4.2Zm1.4-1.3h2.8c1 0 1.6-.1 2-.5.4-.3.6-.8.6-1.3a2 2 0 0 0-.3-1 2 2 0 0 0-.9-.9c-.3-.2-.8-.3-1.3-.3H28v4Zm0-5.2h2.7a2 2 0 0 0 1.1-.3c.3-.1.6-.4.8-.7.2-.3.3-.6.3-1 0-.6-.1-1-.5-1.3-.4-.4-1-.6-1.7-.6h-2.7v3.9Zm10.2-5.1V99h-1.3V87.4H38Zm6 11.8c-.8 0-1.5-.2-2-.6-.7-.4-1.1-.9-1.5-1.6a5.7 5.7 0 0 1 0-4.7c.4-.7.8-1.2 1.4-1.6.6-.4 1.3-.5 2.1-.5s1.5.1 2 .5c.7.4 1.1 1 1.5 1.6.3.7.5 1.5.5 2.4 0 .9-.2 1.7-.5 2.3-.4.7-.8 1.2-1.4 1.6-.6.4-1.3.6-2.1.6Zm0-1.2c.6 0 1-.2 1.5-.5.4-.3.7-.7.8-1.2a4.7 4.7 0 0 0 0-3.3 2 2 0 0 0-.8-1.2c-.4-.3-.9-.4-1.5-.4s-1 .1-1.5.4c-.4.3-.6.7-.8 1.3a4.6 4.6 0 0 0 0 3.3c.2.4.4.8.8 1.1.4.3.9.5 1.5.5Zm9.5 1.2c-.8 0-1.5-.2-2-.6-.7-.4-1.1-1-1.4-1.6-.3-.7-.5-1.4-.5-2.3 0-.9.2-1.7.5-2.4a3.7 3.7 0 0 1 3.4-2.2 4 4 0 0 1 1.7.4c.5.2.9.5 1.2 1 .3.4.5.8.6 1.4h-1.4a2 2 0 0 0-2-1.5c-.6 0-1 .1-1.4.4-.4.2-.7.6-1 1.1-.2.5-.3 1-.3 1.7s.1 1.3.4 1.8c.2.5.5.9.9 1.2.4.2.8.4 1.3.4.4 0 .7 0 1-.2a2 2 0 0 0 1.1-1.3h1.4a3.1 3.1 0 0 1-1.8 2.3c-.4.3-1 .4-1.7.4Zm6.7-3.4v-1.6h.2l3.9-4H66l-4 4.2h-.2l-1.5 1.4ZM59 99V87.4h1.4V99H59Zm5.6 0-3.4-4.3 1-1 4 5.3h-1.6Zm9.3-6.8-1.2.4-.3-.6-.6-.5-1-.2c-.5 0-1 .1-1.3.4-.4.2-.5.5-.5 1 0 .2 0 .5.3.7l1.2.5 1.3.3a4 4 0 0 1 1.7.9c.4.4.6.9.6 1.5 0 .5-.2 1-.4 1.3a4 4 0 0 1-1.2 1c-.6.2-1.1.3-1.8.3a4 4 0 0 1-2.2-.6c-.6-.4-1-1-1.1-1.7l1.2-.3c.2.5.4.8.7 1 .4.3.8.4 1.4.4.6 0 1-.1 1.4-.4.4-.3.6-.6.6-1a1 1 0 0 0-.3-.7 2 2 0 0 0-1-.5l-1.5-.3c-.8-.2-1.3-.5-1.7-1-.4-.3-.6-.8-.6-1.4 0-.5.2-1 .4-1.3a4 4 0 0 1 1.2-1 4 4 0 0 1 1.6-.2c.9 0 1.6.1 2 .5.6.4 1 1 1.1 1.5Z"/>
  </mask>
  <path fill="#000" d="M26.5 99V87.4h4.1a4 4 0 0 1 2 .4c.5.3 1 .6 1.2 1.1.2.5.4 1 .4 1.6 0 .5-.1.9-.3 1.2a2 2 0 0 1-.7.8l-1 .4v.1c.4 0 .8.1 1.2.4.3.2.6.5.9 1 .2.4.3.9.3 1.5s-.1 1.1-.4 1.6c-.2.4-.7.8-1.2 1-.6.4-1.3.5-2.3.5h-4.2Zm1.4-1.3h2.8c1 0 1.6-.1 2-.5.4-.3.6-.8.6-1.3a2 2 0 0 0-.3-1 2 2 0 0 0-.9-.9c-.3-.2-.8-.3-1.3-.3H28v4Zm0-5.2h2.7a2 2 0 0 0 1.1-.3c.3-.1.6-.4.8-.7.2-.3.3-.6.3-1 0-.6-.1-1-.5-1.3-.4-.4-1-.6-1.7-.6h-2.7v3.9Zm10.2-5.1V99h-1.3V87.4H38Zm6 11.8c-.8 0-1.5-.2-2-.6-.7-.4-1.1-.9-1.5-1.6a5.7 5.7 0 0 1 0-4.7c.4-.7.8-1.2 1.4-1.6.6-.4 1.3-.5 2.1-.5s1.5.1 2 .5c.7.4 1.1 1 1.5 1.6.3.7.5 1.5.5 2.4 0 .9-.2 1.7-.5 2.3-.4.7-.8 1.2-1.4 1.6-.6.4-1.3.6-2.1.6Zm0-1.2c.6 0 1-.2 1.5-.5.4-.3.7-.7.8-1.2a4.7 4.7 0 0 0 0-3.3 2 2 0 0 0-.8-1.2c-.4-.3-.9-.4-1.5-.4s-1 .1-1.5.4c-.4.3-.6.7-.8 1.3a4.6 4.6 0 0 0 0 3.3c.2.4.4.8.8 1.1.4.3.9.5 1.5.5Zm9.5 1.2c-.8 0-1.5-.2-2-.6-.7-.4-1.1-1-1.4-1.6-.3-.7-.5-1.4-.5-2.3 0-.9.2-1.7.5-2.4a3.7 3.7 0 0 1 3.4-2.2 4 4 0 0 1 1.7.4c.5.2.9.5 1.2 1 .3.4.5.8.6 1.4h-1.4a2 2 0 0 0-2-1.5c-.6 0-1 .1-1.4.4-.4.2-.7.6-1 1.1-.2.5-.3 1-.3 1.7s.1 1.3.4 1.8c.2.5.5.9.9 1.2.4.2.8.4 1.3.4.4 0 .7 0 1-.2a2 2 0 0 0 1.1-1.3h1.4a3.1 3.1 0 0 1-1.8 2.3c-.4.3-1 .4-1.7.4Zm6.7-3.4v-1.6h.2l3.9-4H66l-4 4.2h-.2l-1.5 1.4ZM59 99V87.4h1.4V99H59Zm5.6 0-3.4-4.3 1-1 4 5.3h-1.6Zm9.3-6.8-1.2.4-.3-.6-.6-.5-1-.2c-.5 0-1 .1-1.3.4-.4.2-.5.5-.5 1 0 .2 0 .5.3.7l1.2.5 1.3.3a4 4 0 0 1 1.7.9c.4.4.6.9.6 1.5 0 .5-.2 1-.4 1.3a4 4 0 0 1-1.2 1c-.6.2-1.1.3-1.8.3a4 4 0 0 1-2.2-.6c-.6-.4-1-1-1.1-1.7l1.2-.3c.2.5.4.8.7 1 .4.3.8.4 1.4.4.6 0 1-.1 1.4-.4.4-.3.6-.6.6-1a1 1 0 0 0-.3-.7 2 2 0 0 0-1-.5l-1.5-.3c-.8-.2-1.3-.5-1.7-1-.4-.3-.6-.8-.6-1.4 0-.5.2-1 .4-1.3a4 4 0 0 1 1.2-1 4 4 0 0 1 1.6-.2c.9 0 1.6.1 2 .5.6.4 1 1 1.1 1.5Z"/>
  <path fill="#fff" d="M26.5 99h-2c0 1.1 1 2 2 2v-2Zm0-11.6v-2a2 2 0 0 0-2 2h2Zm6.1.4-1 1.7 1-1.7Zm1.2 1.1-1.8 1 1.8-1Zm.1 2.8-1.8-1 1.8 1Zm-.7.8-1-1.7H32l1.1 1.7Zm-1 .4-.4-2a2 2 0 0 0-1.5 2h2Zm0 .1h-2c0 1 .9 2 2 2v-2Zm1.2.4L32.3 95l1-1.7Zm.8 4 1.8 1-1.8-1ZM33 98.7l-.9-1.8.9 1.8Zm-5-.8h-2c0 1 .8 2 2 2v-2Zm4.7-.6 1.4 1.5-1.4-1.5Zm.3-2.4-1.7 1 1.7-1Zm-1-.9-1 1.8 1-1.8Zm-4.2-.3v-2a2 2 0 0 0-2 2h2Zm0-1.2h-2c0 1 1 2 2 2v-2Zm3.8-.3-.9-1.8.9 1.8Zm.8-.7L31 90.4l1.6 1.1Zm-.2-2.3-1.4 1.4 1.4-1.4Zm-4.4-.6v-2a2 2 0 0 0-2 2h2Zm.6 10.4V87.4h-4V99h4Zm-2-9.6h4.1v-4h-4v4Zm4.1 0 1 .1 2-3.5c-1-.5-2-.6-3-.6v4Zm1 .2c.3 0 .4.2.4.3l3.5-2a4.8 4.8 0 0 0-2-1.9l-1.8 3.6Zm.4.3.2.6h4c0-1-.2-1.8-.7-2.6L32 90Zm.2.6v.2l3.5 2c.3-.8.5-1.5.5-2.2h-4Zm0 .2v.1l2.1 3.3a4 4 0 0 0 1.4-1.5L32 90.7Zm-.1.1-.3.2 1 3.8c.5-.1 1-.4 1.5-.7L32 90.8Zm-1.8 2v.2h4v-.1h-4Zm1.9 2.2 2.2-3.3c-.6-.4-1.2-.6-2-.7l-.2 4Zm0 0 .3.3 3.5-2c-.4-.6-.9-1.2-1.6-1.6l-2 3.3Zm.3.3.1.6h4a5 5 0 0 0-.6-2.5l-3.5 2Zm.1.6-.1.6 3.5 2c.4-.8.6-1.7.6-2.6h-4Zm-.1.6s-.1.2-.4.3l1.7 3.6c.9-.4 1.7-1 2.2-2l-3.5-2Zm-.4.3c-.2 0-.6.2-1.4.2v4c1.1 0 2.2-.2 3.1-.6L32 96.8Zm-1.4.2h-4.2v4h4.2v-4ZM28 99.8h2.8v-4H28v4Zm2.8 0a5 5 0 0 0 3.4-1.1l-2.8-3c.1 0 .2 0 0 0h-.6v4Zm3.4-1.1a4 4 0 0 0 1.2-2.8h-4v-.1l2.8 2.9Zm1.2-2.8a4 4 0 0 0-.6-2.1l-3.4 2v.1h4Zm-.6-2.1c-.4-.7-1-1.2-1.6-1.5l-2 3.5h.2l3.4-2Zm-1.6-1.5c-.7-.4-1.5-.6-2.3-.6v4h.4l1.9-3.4Zm-2.3-.6H28v4h3v-4Zm-4.9 2v4h4v-4h-4Zm2 .8h2.7v-4H28v4Zm2.7 0c.6 0 1.3-.2 2-.5l-1.8-3.6h-.2v4Zm2-.5a4 4 0 0 0 1.6-1.4L31 90.4l1.7 3.6Zm1.6-1.4a4 4 0 0 0 .6-2.1h-4a.2.2 0 0 1 0-.1l3.4 2.2Zm.6-2.1c0-1-.4-2-1-2.8l-3 2.9a.3.3 0 0 1 0-.1h4Zm-1-2.8c-1-.9-2.2-1-3.2-1v4h.4l-.1-.1 2.8-2.9Zm-3.2-1H28v4h2.7v-4Zm-4.7 2v3.8h4v-3.9h-4Zm12.2-1.3h2a2 2 0 0 0-2-2v2Zm0 11.6v2a2 2 0 0 0 2-2h-2Zm-1.3 0h-2c0 1.1.9 2 2 2v-2Zm0-11.6v-2a2 2 0 0 0-2 2h2Zm-.7 0V99h4V87.4h-4Zm2 9.6h-1.3v4H38v-4Zm.7 2V87.4h-4V99h4Zm-2-9.6H38v-4h-1.3v4Zm5.2 9.2-1 1.7 1-1.7ZM40.6 97l-1.8 1 1.8-1Zm0-4.7-1.8-.9 1.8.9Zm1.4-1.6L41 89l1 1.7Zm4.2 0L45 92.4l1-1.7Zm1.4 1.6-1.8.9 1.8-.9Zm0 4.7-1.8-.8 1.8.8Zm-1.4 1.6L45 97l1 1.7Zm-.6-1L44.3 96l1.3 1.5Zm.8-1.3 2 .7-2-.7Zm0-3.2 2-.7-2 .7Zm-.8-1.3 1.2-1.5-1.2 1.5Zm-3 0-1.2-1.5 1.2 1.5Zm-.8 1.3-2-.7 2 .7Zm0 3.2-2 .7 2-.7Zm.8 1.2L44 96l-1.3 1.5Zm1.5-.3c-.5 0-.8-.1-1-.3l-2.1 3.4c1 .6 2 .9 3.1.9v-4Zm-1-.3c-.3-.1-.5-.4-.7-.7l-3.6 1.7c.5 1 1.2 1.8 2.2 2.4l2-3.3Zm-.7-.7c-.1-.4-.3-.9-.3-1.5h-4c0 1.1.3 2.2.7 3.2l3.6-1.7Zm-.3-1.5c0-.7.2-1.2.3-1.5l-3.6-1.8c-.4 1-.7 2.1-.7 3.3h4Zm.3-1.5c.2-.4.4-.6.7-.8L41 89c-1 .6-1.7 1.4-2.2 2.4l3.6 1.8Zm.7-.8 1-.2v-4c-1.1 0-2.2.2-3.1.8l2 3.4Zm1-.2c.5 0 .8 0 1 .2l2.1-3.4c-1-.6-2-.8-3.1-.8v4Zm1 .2c.3.2.5.4.7.8l3.6-1.8c-.5-1-1.2-1.8-2.2-2.4l-2.1 3.4Zm.7.8c.1.3.3.8.3 1.5h4c0-1.2-.3-2.3-.7-3.3l-3.6 1.8Zm.3 1.5c0 .6-.2 1.1-.3 1.5l3.5 1.7c.5-1 .8-2 .8-3.2h-4Zm-.3 1.5c-.2.3-.4.6-.7.7l2.1 3.4c1-.6 1.7-1.4 2.2-2.4l-3.6-1.7Zm-.7.7c-.2.2-.5.3-1 .3v4c1.1 0 2.2-.3 3.1-.9L45.1 97Zm-1 3c1 0 2-.2 2.7-.8L44.3 96h-.2v4Zm2.7-.8c.7-.6 1.2-1.3 1.5-2.1l-3.7-1.4-.3.4 2.5 3Zm1.5-2.1c.3-.7.4-1.5.4-2.3h-4l-.1 1 3.7 1.3Zm.4-2.3c0-.8-.1-1.6-.4-2.3l-3.7 1.3.1 1h4Zm-.4-2.3a4 4 0 0 0-1.5-2.1l-2.5 3 .3.4 3.7-1.3Zm-1.5-2.1a4 4 0 0 0-2.7-1v4h.2s0 .1 0 0l2.5-3Zm-2.7-1c-1 0-2 .3-2.7 1l2.5 3c0 .1 0 0 0 0h.2v-4Zm-2.7 1c-.7.5-1.2 1.2-1.5 2l3.7 1.4.3-.3-2.5-3.1Zm-1.5 2c-.3.8-.4 1.6-.4 2.4h4l.1-1-3.7-1.3Zm-.4 2.4c0 .8.1 1.6.4 2.3l3.7-1.4-.1-1h-4Zm.4 2.3c.3.8.8 1.5 1.5 2l2.5-3-.3-.4L40 97Zm1.5 2c.8.7 1.8 1 2.7 1v-4h-.2l-2.5 3Zm10.1-.4-1 1.7 1-1.7Zm-1.3-6.3-1.8-.8 1.8.8Zm1.4-1.6 1 1.7-1-1.7Zm4.9.8 1.6-1.3-1.6 1.3Zm.6 1.4v2a2 2 0 0 0 2-2.3l-2 .3Zm-1.4 0-1.9.5a2 2 0 0 0 2 1.5v-2Zm-.6-1-1.4 1.4 1.4-1.5Zm-2.8-.1 1.1 1.6-1.1-1.6Zm-1 1.1-1.8-.8 1.9.8Zm0 3.5-1.8.8 1.9-.8Zm1 1.2L51 99.2l1.2-1.6Zm2.3.2-.8-1.8.8 1.8Zm.7-.5 1.5 1.3-1.5-1.3Zm.4-.8v-2a2 2 0 0 0-1.9 1.4l2 .6Zm1.4 0 2 .2a2 2 0 0 0-2-2.2v2Zm-.6 1.3L55 96.7l1.6 1.1Zm-1.2 1 1 1.8-1-1.8Zm-1.7-1.6c-.4 0-.8-.1-1-.3l-2.2 3.4c1 .6 2.1.9 3.2.9v-4Zm-1-.3-.6-.7-3.6 1.7c.4 1 1.1 1.8 2 2.4l2.2-3.4Zm-.6-.7c-.2-.4-.3-.9-.3-1.5h-4c0 1.1.2 2.2.7 3.2l3.6-1.7Zm-.3-1.5c0-.7.1-1.1.3-1.5l-3.6-1.7c-.5 1-.7 2-.7 3.2h4Zm.3-1.5.6-.8-2.1-3.3c-1 .6-1.6 1.4-2.1 2.4l3.6 1.7Zm.7-.8 1-.2v-4a5 5 0 0 0-3.2.9l2.2 3.3Zm1-.2.7.1 1.7-3.6a6 6 0 0 0-2.5-.5v4Zm.7.1c.3.1.4.2.5.4l3.2-2.5a5.2 5.2 0 0 0-2-1.5l-1.7 3.6Zm.5.4c.1 0 .2.2.2.5l4-.6a5 5 0 0 0-1-2.4l-3.2 2.5Zm2.2-1.8h-1.4v4h1.4v-4Zm.6 1.5a4 4 0 0 0-1.3-2l-2.7 3h.1l3.9-1Zm-1.3-2a4 4 0 0 0-2.8-1v4h.2l2.6-3Zm-2.8-1c-.8 0-1.7.2-2.5.7l2.3 3.3h.2v-4Zm-2.5.7c-.7.5-1.2 1.2-1.6 2l3.7 1.6c0-.2.2-.2.2-.3l-2.3-3.3Zm-1.6 2c-.3.8-.5 1.7-.5 2.5h4l.2-.9-3.7-1.6Zm-.5 2.5c0 1 .2 1.8.5 2.6l3.7-1.6-.2-1h-4Zm.5 2.6c.4.8.9 1.5 1.6 2l2.3-3.3-.2-.3-3.7 1.6Zm1.6 2c.8.5 1.6.8 2.5.8v-4h-.2l-2.3 3.2Zm2.5.8a4 4 0 0 0 1.8-.4L53.8 96h-.2v4Zm1.8-.4a4 4 0 0 0 1.4-1l-3-2.6 1.6 3.6Zm1.4-1c.4-.5.7-1 .9-1.6l-3.9-1 3 2.6Zm-1-.1H57v-4h-1.4v4Zm-.7-2.3-.2.5 3.2 2.3a6 6 0 0 0 1-2.3l-4-.5Zm-.2.5-.4.3 1.7 3.6c.8-.4 1.4-.9 2-1.6l-3.3-2.3Zm-.4.3-.9.2v4c1 0 1.8-.2 2.6-.6L54.5 97Zm5.8-1.2h-2a2 2 0 0 0 3.3 1.5l-1.3-1.5Zm0-1.6v-2a2 2 0 0 0-2 2h2Zm.2 0v2c.6 0 1-.3 1.5-.6l-1.5-1.4Zm3.9-4v-2a2 2 0 0 0-1.5.7l1.5 1.4Zm1.6 0 1.4 1.5a2 2 0 0 0-1.4-3.4v2Zm-4 4.2v2c.5 0 1-.2 1.4-.6l-1.5-1.4Zm-.2 0v-2a2 2 0 0 0-1.3.5l1.3 1.5ZM59 99h-2c0 1.1 1 2 2 2v-2Zm0-11.6v-2a2 2 0 0 0-2 2h2Zm1.4 0h2a2 2 0 0 0-2-2v2Zm0 11.6v2a2 2 0 0 0 2-2h-2Zm4.2 0-1.6 1.2c.4.5 1 .8 1.6.8v-2Zm-3.4-4.3-1.4-1.4a2 2 0 0 0-.2 2.6l1.6-1.2Zm1-1 1.5-1.2a2 2 0 0 0-3-.2l1.4 1.5Zm4 5.3v2a2 2 0 0 0 1.7-3.2L66.3 99Zm-4-3.2V94h-4v1.7h4Zm-2 .4h.3v-4h-.2v4Zm1.8-.6 3.8-4-2.9-2.7-3.8 3.9 2.9 2.8Zm2.4-3.3H66v-4h-1.6v4Zm.2-3.4-4 4 2.8 2.9 4-4.1-2.8-2.8Zm-2.7 3.5v4-4Zm-1.4.5-1.6 1.5 2.7 2.9 1.6-1.4-2.7-3ZM61 99V87.4h-4V99h4Zm-2-9.6h1.4v-4H59v4Zm-.6-2V99h4V87.4h-4Zm2 9.6H59v4h1.4v-4Zm5.8.8-3.5-4.4-3 2.5 3.3 4.3 3.2-2.4ZM62.6 96l1-1-2.9-2.8-1 1 2.9 2.8Zm-2-1.1 4.1 5.2 3.2-2.4-4.2-5.3-3.1 2.5Zm5.7 2h-1.7v4h1.7v-4Zm7.6-4.8.6 2a2 2 0 0 0 1.3-2.6l-1.9.6Zm-1.2.4-1.9.7a2 2 0 0 0 2.5 1.2l-.6-2Zm-.3-.6-1.6 1.2 1.6-1.2Zm-.6-.5.9-1.8-1 1.8Zm-2.3.2 1.1 1.6-1.1-1.6Zm-.2 1.7L68.1 95l1.2-1.6Zm1.2.5-.5 2 .5-2Zm1.3.3-.5 2 .5-2Zm1.7.9-1.4 1.4 1.4-1.4Zm.2 2.8L72 96.7l1.7 1.2Zm-5.2.7 1-1.7-1 1.7Zm-1.1-1.7-.5-2a2 2 0 0 0-1.5 2.4l2-.4Zm1.2-.3 2-.5a2 2 0 0 0-2.5-1.4l.5 1.9Zm.7 1-1.1 1.7 1.1-1.7Zm2.8 0 1.2 1.6-1.2-1.6Zm.3-1.7L71 97.3l1.4-1.4Zm-1-.5-.5 2 .5-2Zm-1.5-.3-.4 2 .4-2Zm-1.7-1-1.5 1.4 1.5-1.3Zm-.2-2.7-1.6-1.2 1.6 1.2Zm1.2-1-.8-1.7.8 1.8Zm3.7.3-1.3 1.6 1.3-1.6Zm.5-.4-1.2.3 1 3.9 1.3-.3-1.1-3.9Zm1.2 1.6-.6-1.1-3.2 2.4 3.8-1.3Zm-.6-1.1a3 3 0 0 0-1.3-1l-1.8 3.5-.1-.1 3.2-2.4Zm-1.3-1c-.6-.4-1.3-.5-1.9-.5v4h.2-.1l1.8-3.6Zm-1.9-.5c-.8 0-1.7.2-2.4.7l2.2 3.3h.2v-4Zm-2.4.7a3 3 0 0 0-1.4 2.6h4c0 .2 0 .3-.2.5l-.2.2-2.2-3.3ZM67 92.6a3 3 0 0 0 1 2.4l2.6-3.2a1 1 0 0 1 .4.8h-4Zm1 2.4a5 5 0 0 0 2 .8l1-3.9h-.4c0-.1 0-.1 0 0l-2.5 3Zm2 .8 1.3.3 1-3.8-1.4-.4-1 4Zm1.3.3.8.4 2.8-2.8a5.5 5.5 0 0 0-2.7-1.4l-1 3.8Zm.8.4h4c0-1-.4-2-1.2-2.8l-2.8 2.8Zm0 0v.2l3.2 2.4c.5-.8.8-1.6.8-2.5h-4Zm0 .2-.5.3 1.7 3.7c.8-.4 1.5-.9 2-1.6L72 96.7Zm-.5.3-1 .2v4c1 0 1.9-.2 2.7-.5L71.6 97Zm-1 .2a2 2 0 0 1-1-.3l-2.2 3.4a6 6 0 0 0 3.3.9v-4Zm-1-.3c-.1 0-.2-.1-.3-.4l-3.9.8c.3 1.2.9 2.3 2 3l2.2-3.4Zm-1.8 2 1.3-.4-1-3.8-1.2.3 1 3.8ZM66.7 97a4 4 0 0 0 1.5 2.2l2.3-3.3a.4.4 0 0 1 0 .1l-3.8 1Zm1.5 2.2c.8.5 1.6.7 2.5.7v-4h-.2l-2.3 3.3Zm2.5.7c.8 0 1.8-.2 2.6-.8L71 96h-.3v4Zm2.6-.8a3 3 0 0 0 1.4-2.6h-4l.1-.4.2-.2 2.3 3.2Zm1.4-2.6a3 3 0 0 0-1-2.2l-2.7 3a1 1 0 0 1-.3-.8h4Zm-1-2.2a4 4 0 0 0-1.8-1l-1 4h.2l-.1-.1 2.8-2.9Zm-1.8-1-1.5-.3-1 4 1.5.3 1-4Zm-1.5-.3-.6-.2h-.2l-2.9 2.7c.8.8 1.8 1.2 2.8 1.4l1-3.9Zm-.7-.3v-.1h-4c0 1 .3 2 1 2.8l3-2.7Zm0-.1v-.1l-3.3-2.4c-.5.7-.8 1.6-.8 2.5h4Zm0-.1.3-.3-1.6-3.6c-.8.3-1.5.8-2 1.5l3.3 2.4Zm.3-.3.8-.1v-4a6 6 0 0 0-2.4.5l1.6 3.6Zm.8-.1.8.1 2.5-3.2c-1-.7-2.1-1-3.3-1v4Zm.9.1.3.6 3.8-1.3a5 5 0 0 0-1.7-2.5l-2.4 3.2Z" mask="url(#c)"/>
</svg>
