<svg xmlns="http://www.w3.org/2000/svg" fill="none" viewBox="0 0 100 102">
  <path fill="#EF3220" d="M99 42.5c-.5-.8-1.6-1-2.5-1-1.6-.2-3.2-.2-4.7.1-.3 0-.5.2-.5.5-1 1-.8 3-.9 4.4 0 1.1 0 2.6 1 3.3 1 .6 2.7.4 3.8.4 1.1 0 2.7.2 3.5-.6.8-.8.8-2.4.9-3.4 0-1.1.2-2.7-.5-3.7ZM51.4 59.2c.1 1.7 0 3.3-.1 5 0 .2-.3.5-.6.5h-2.1c-.4 0-.7-.2-.7-.7v-.9c-1.5 0-3.3.8-4.7.5-.3-.1-.4-.3-.5-.6-.2-.6 0-1.3.1-2l.3-.4h.4l4.3-.2c0-.5 0-1.1.4-1.5.6-.5 2-.2 2.6-.2.2 0 .5.2.6.5Z"/>
  <path fill="#F8E505" d="M95.3 32c-2.5 1.9-6 1.7-9 2.1-2.9.4-5.7.8-8.5 1-7 .6-13.7 1.3-20.7 1.3-6.5 0-13-.2-19.5-1.1-5-.7-9.6-2.8-12.3-7.3-2.7-3.3 3.1-9 5.6-11 5.4-4.3 11.4-4.7 18.1-5 6.9-.3 13.7-.4 20.6-.4h10.7c2.8 0 5.5-.2 8.3.2 4.8.7 9 3.4 10.3 8.3 1.1 4 0 9.4-3.6 12Z"/>
  <mask id="a" width="94" height="71" x="1" y="20" maskUnits="userSpaceOnUse" style="mask-type:luminance">
    <path fill="#fff" d="M1.5 20.4H94V91H1.5V20.4Z"/>
  </mask>
  <g mask="url(#a)">
    <path fill="#397DC9" d="M55.5 61.7c-1.2 2.9-6.2 4-9 3.6-2.2-.4-2.4-2.4-1.7-4.1-.1-2.6 4.6-3 6.3-3.2 1.2-.1 3.5-.5 4.4.5.6.8.4 2.3 0 3.2Zm37.6-19.8c-1.4-2-4.9-1.7-7-1.8h-8.6c-6 0-12-.8-17.9-1.2-5.8-.4-11.7-.3-17.5-.4h-8.6c-2 0-4-.1-6 .5-.7.3-1.5.7-2.1 1.3-.4.5-.5.7-1.1.8h-1.9c-2.3-.3-2-2.3-2.1-4.3v-3c.1-.3.2-.4.4-.5.7-.5 1.3-.5 1.8-1.3 1-1.4 1-3.2 1.1-4.9 0-1.5.5-3.6-.4-5-.8-1.2-2.3-1.5-3.7-1.6-1.6-.1-3.1 0-4.7.1-2.6 0-5.3-.3-7.9.3-2 .6-2.5 2.3-2.6 4.2-.2 2-.5 4.3.4 6 .5 1 1.3 1.4 2.3 1.6.9.1.8 0 .9 1l.1 2.5.1 4.5c0 .8.5 2.5-.3 3.1-.4.4-1.1.1-1.6.2A4 4 0 0 0 3 45.6c-1.4 1.5-1.5 3.7-1.3 5.7.1 1.8.6 4 2.5 4.8 1.8.8 4 .5 6 .4a97 97 0 0 1 13.2-.3c1.3 0 3 .1 4.1.8 1.6.9 1 2.4.5 3.7-1 2.4-2.6 4.6-3.8 7a228.3 228.3 0 0 0-7.4 15.5c-.8 1.8-1.7 4.2.1 5.7 1.6 1.3 4 1.1 5.8 1.2 2.5.2 5 1 7.5.9 2.2 0 3.7-.8 4.3-3 .7-2.6 1.1-5.4 2-8 .9-2.5 2-4.9 3.3-7.2.6-1 1.1-2 2-2.8 1-.7 2.2-.9 3.3-1l7.5-1c1.8-.2 4-.4 5.2-1.8 1.9-2 1.6-7 1.6-7s17.7 1 26.4.4c3.4-.2 6.7-1.2 7.4-5 .4-2.2.4-4.5.5-6.6.1-2 .6-4.4-.6-6Z"/>
  </g>
  <path fill="#45B83A" d="M94.7 45.8c0-5.6-3.4-6-8.3-6.3-5.3-.4-10.6-.7-16-.8l-4.2-.4c.9-.2 1.6-.7 1.8-1.7.3-1.7 0-3.6 0-5.2l-.1-6.1c-.1-4 0-7.9-.3-11.7-.1-2.7-1.7-3.9-4.3-4-1.5-.2-3.8.6-3.1 2.4l.2 11c.1 3.7 0 7.5.4 11.1.2 2 1 3.5 2.8 4-2.7 0-5.3.2-5.7 1.5 0-.2.4 2 .3 2.6a86.2 86.2 0 0 0 0 12.1c0 1.7-.2 4 1.2 5.3 1.6 1.5 5.2.7 7.2.7l15.6-.5c3.5-.1 9.7 1 11.6-2.8.8-1.4.7-3 .7-4.6-.1-2.3.3-4.3.2-6.6ZM37.7 59c-2.2-.4-5.1 0-5.7 2.5A75.4 75.4 0 0 0 21.5 80c-.4 1-.8 2.3-.6 3.4.2 1.2 1 1.4 2 1.7l4 1c1 0 2.1.5 3-.3.6-.7.8-1.8 1.2-2.7l1.4-4c1-2.8 2-5.4 3.2-8 1-2.6 2.5-4.9 3.7-7.4.4-.9 1-2.2.7-3.3-.2-1-1.5-1.2-2.4-1.4ZM7.5 45.6c0-1 0-2.2-1.1-2.2H3.5c-.7.2-1.6.2-2.3.5-.3 0-.4.2-.6.4-.1 0-.3.1-.3.3a58.2 58.2 0 0 0 .3 10c.2 1 .5 2 1.6 2.2 1.4.4 3 .3 4.3.2 1 0 1.7-.4 1.7-1.5.1-1.6-.2-3.3-.3-5l-.4-5ZM46 37.7c-1.6-1-4.2-.6-6-.5-2 0-4.7-.5-6.6.4-1.7.8-1.5 2.7-1.5 4.6.2 4.8.1 9.1 6.2 8.8 2-.2 5 0 6.8-.8 2.5-1.3 2.2-4.4 2.2-6.7 0-1.9.6-4.5-1.1-5.8Zm-23.5-5.6h.1c1-1.5 1-3.4 1.1-5 0-1.5.5-3.6-.4-5l-.5-.6c1.9-.4 4.8-1 5.3 1.4.4 2 0 4-.3 6-.1 1 0 2.5-.8 3.3-.7.8-2.2.7-3.2.5a2 2 0 0 1-1.3-.6Z"/>
  <mask id="b" width="77" height="51" x="18" y="9" maskUnits="userSpaceOnUse" style="mask-type:luminance">
    <path fill="#fff" d="M18.7 9h76v51h-76V9Z"/>
  </mask>
  <g mask="url(#b)">
    <path fill="#110F0D" d="M20.9 41.3c0-.3-.3-.4-.6-.4-.2 0-.4.2-.4.5l.2 3.9.1 9.3c0 .3.3.5.5.5.3 0 .5-.2.5-.5l-.1-9.3-.2-4Zm4.2-.2c-.3 0-.5.3-.6.5v14c0 .3.3.5.5.5.3 0 .5-.2.5-.5v-14c0-.2-.2-.5-.4-.5Zm39.3-2.9c0 .3.3.5.5.5.3 0 .6-.3.5-.5l-.8-14.4-.8-14.3c0-.3-.2-.5-.5-.5s-.5.3-.5.6l.8 14.3.8 14.3ZM20 32.3c.3 0 .5-.2.5-.5V21.5c0-.3-.2-.5-.4-.5-.3 0-.5.2-.5.5-.2 3.4-.2 6.9 0 10.3 0 .3.2.5.4.5Zm73.6 17.3c-8.5-.1-17-.4-25.6-.8 0-3.1.2-6.3.4-9.5 0-.2-.1-.5-.4-.5-.3 0-.5.2-.6.5l-.4 9.5-7.7-.3c-.3 0-.5.2-.5.4 0 .3.2.5.5.5l7.7.4.1 8.9c0 .3.2.5.5.5s.5-.3.5-.5l-.1-8.9c8.5.4 17 .7 25.6.8.3 0 .5-.2.5-.5 0-.2-.2-.5-.5-.5Zm-46.1-6.1c0 .3-.2.5-.5.5l-2.2.1c-3.8.2-8.7.5-12.1.5h-.8a.5.5 0 0 1-.5-.6c0-.2.2-.5.5-.5 3.3.1 8.8-.2 12.8-.4L47 43c.2 0 .5.2.5.5Z"/>
  </g>
  <mask id="c" width="81" height="20" x="9" y="84" fill="#000" maskUnits="userSpaceOnUse">
    <path fill="#fff" d="M9 84h81v20H9z"/>
    <path d="m14.9 98-3.2-11.6h1.4l2.5 9.4 2.6-9.4h1.5l2.5 9.4h.1l2.5-9.4h1.4L23 98h-1.4L19 88.7h-.1L16.3 98H15Zm14.6.2-1.5-.3a2 2 0 0 1-1-1c-.3-.3-.4-.8-.4-1.4 0-.5 0-.9.2-1.2.2-.3.5-.6.8-.7l1.1-.4a13.3 13.3 0 0 1 2.5-.4l.8-.2.2-.4c0-.6-.2-1-.5-1.4-.3-.3-.7-.5-1.4-.5-.6 0-1 .2-1.5.5-.3.2-.6.5-.7.9l-1.3-.5a3 3 0 0 1 2.2-1.9 5.2 5.2 0 0 1 2.3 0c.3 0 .7.2 1 .4.4.2.7.5.9.9.2.4.3 1 .3 1.7V98h-1.3v-1.2l-.5.6-.9.6-1.3.2Zm.2-1.2c.6 0 1-.1 1.4-.3a2.1 2.1 0 0 0 1-1.9v-1.2l-.3.2a6.3 6.3 0 0 1-1.4.2 36.3 36.3 0 0 0-1.5.3l-.7.5c-.2.2-.3.5-.3.8 0 .5.2.8.5 1 .4.3.8.4 1.3.4Zm10-7.7v1.1h-4.5v-1.1h4.6Zm-3.1-2.1h1.3v8.3c0 .4 0 .7.2.9 0 .1.2.3.4.3l.6.1h.6l.2 1.2a2.7 2.7 0 0 1-1 .1c-.3 0-.7 0-1-.2-.4-.2-.7-.4-1-.8-.2-.3-.3-.7-.3-1.2v-8.7Zm8.8 11c-.9 0-1.6-.2-2.2-.6a4 4 0 0 1-1.4-1.5c-.4-.7-.5-1.5-.5-2.4 0-.9.1-1.7.5-2.4a3.7 3.7 0 0 1 3.4-2.2c.5 0 1 .1 1.4.3a3.3 3.3 0 0 1 2 2c.3.6.4 1.3.4 2.1v.6h-6.8v-1.2h5.4c0-.5 0-.9-.3-1.3a2.2 2.2 0 0 0-2-1.2c-.6 0-1 .1-1.5.4-.4.2-.7.6-.9 1a3 3 0 0 0-.3 1.3v.8c0 .7.1 1.2.4 1.7.2.4.5.8 1 1 .3.3.8.4 1.4.4.3 0 .6 0 1-.2l.7-.4.4-.8 1.3.4c-.1.4-.3.8-.7 1.1-.3.4-.7.6-1.1.8-.5.2-1 .3-1.6.3ZM51 98v-8.7h1.3v1.3c.3-.4.5-.8 1-1 .4-.3.8-.5 1.4-.5a15.2 15.2 0 0 1 .7 0v1.4a4 4 0 0 0-.8 0c-.5 0-.8 0-1.2.2a2 2 0 0 0-1 1.8V98H51Zm14 3.5a5 5 0 0 1-1.7-.3 3.5 3.5 0 0 1-1.9-1.5l1-.7.5.5.8.5c.3.2.8.3 1.3.3.7 0 1.3-.2 1.7-.5.5-.4.7-1 .7-1.6v-1.8h-.1l-.4.6-.8.6c-.3.2-.8.3-1.3.3-.7 0-1.4-.2-2-.5-.5-.4-1-.9-1.3-1.5a5 5 0 0 1-.4-2.3c0-.9.1-1.7.4-2.3.3-.7.8-1.2 1.3-1.6.6-.4 1.2-.5 2-.5.5 0 1 0 1.3.2.4.2.6.4.8.7l.4.6h.2v-1.4h1.3v9a3 3 0 0 1-.6 1.8 3 3 0 0 1-1.3 1 6 6 0 0 1-2 .4Zm0-4.8a2.3 2.3 0 0 0 2.2-1.4l.2-1.7c0-.7 0-1.2-.2-1.7s-.5-.9-.9-1.1c-.4-.3-.8-.4-1.4-.4a2.3 2.3 0 0 0-2.2 1.6c-.2.4-.3 1-.3 1.6 0 .6 0 1.1.3 1.6.2.4.5.8.8 1 .4.3.9.5 1.4.5Zm11.7-2.3v-5.1h1.4V98h-1.4v-1.5l-1 1.2a3 3 0 0 1-1.7.4 3 3 0 0 1-1.4-.3c-.4-.3-.8-.7-1-1.1-.3-.5-.4-1.1-.4-1.9v-5.5h1.4v5.4c0 .7.1 1.2.5 1.5.3.4.8.6 1.4.6a2.3 2.3 0 0 0 2.2-2.4Zm5.1-1.7V98h-1.3v-8.7h1.3v1.3h.1a2 2 0 0 1 1-1c.4-.3.9-.4 1.6-.4.6 0 1 0 1.5.3s.8.6 1 1.1c.3.5.4 1.1.4 1.9V98h-1.3v-5.5c0-.6-.2-1.2-.6-1.6a2 2 0 0 0-1.4-.5c-.5 0-.8 0-1.2.2a2 2 0 0 0-.8.9c-.2.3-.3.7-.3 1.3Z"/>
  </mask>
  <path fill="#000" d="m14.9 98-3.2-11.6h1.4l2.5 9.4 2.6-9.4h1.5l2.5 9.4h.1l2.5-9.4h1.4L23 98h-1.4L19 88.7h-.1L16.3 98H15Zm14.6.2-1.5-.3a2 2 0 0 1-1-1c-.3-.3-.4-.8-.4-1.4 0-.5 0-.9.2-1.2.2-.3.5-.6.8-.7l1.1-.4a13.3 13.3 0 0 1 2.5-.4l.8-.2.2-.4c0-.6-.2-1-.5-1.4-.3-.3-.7-.5-1.4-.5-.6 0-1 .2-1.5.5-.3.2-.6.5-.7.9l-1.3-.5a3 3 0 0 1 2.2-1.9 5.2 5.2 0 0 1 2.3 0c.3 0 .7.2 1 .4.4.2.7.5.9.9.2.4.3 1 .3 1.7V98h-1.3v-1.2l-.5.6-.9.6-1.3.2Zm.2-1.2c.6 0 1-.1 1.4-.3a2.1 2.1 0 0 0 1-1.9v-1.2l-.3.2a6.3 6.3 0 0 1-1.4.2 36.3 36.3 0 0 0-1.5.3l-.7.5c-.2.2-.3.5-.3.8 0 .5.2.8.5 1 .4.3.8.4 1.3.4Zm10-7.7v1.1h-4.5v-1.1h4.6Zm-3.1-2.1h1.3v8.3c0 .4 0 .7.2.9 0 .1.2.3.4.3l.6.1h.6l.2 1.2a2.7 2.7 0 0 1-1 .1c-.3 0-.7 0-1-.2-.4-.2-.7-.4-1-.8-.2-.3-.3-.7-.3-1.2v-8.7Zm8.8 11c-.9 0-1.6-.2-2.2-.6a4 4 0 0 1-1.4-1.5c-.4-.7-.5-1.5-.5-2.4 0-.9.1-1.7.5-2.4a3.7 3.7 0 0 1 3.4-2.2c.5 0 1 .1 1.4.3a3.3 3.3 0 0 1 2 2c.3.6.4 1.3.4 2.1v.6h-6.8v-1.2h5.4c0-.5 0-.9-.3-1.3a2.2 2.2 0 0 0-2-1.2c-.6 0-1 .1-1.5.4-.4.2-.7.6-.9 1a3 3 0 0 0-.3 1.3v.8c0 .7.1 1.2.4 1.7.2.4.5.8 1 1 .3.3.8.4 1.4.4.3 0 .6 0 1-.2l.7-.4.4-.8 1.3.4c-.1.4-.3.8-.7 1.1-.3.4-.7.6-1.1.8-.5.2-1 .3-1.6.3ZM51 98v-8.7h1.3v1.3c.3-.4.5-.8 1-1 .4-.3.8-.5 1.4-.5a15.2 15.2 0 0 1 .7 0v1.4a4 4 0 0 0-.8 0c-.5 0-.8 0-1.2.2a2 2 0 0 0-1 1.8V98H51Zm14 3.5a5 5 0 0 1-1.7-.3 3.5 3.5 0 0 1-1.9-1.5l1-.7.5.5.8.5c.3.2.8.3 1.3.3.7 0 1.3-.2 1.7-.5.5-.4.7-1 .7-1.6v-1.8h-.1l-.4.6-.8.6c-.3.2-.8.3-1.3.3-.7 0-1.4-.2-2-.5-.5-.4-1-.9-1.3-1.5a5 5 0 0 1-.4-2.3c0-.9.1-1.7.4-2.3.3-.7.8-1.2 1.3-1.6.6-.4 1.2-.5 2-.5.5 0 1 0 1.3.2.4.2.6.4.8.7l.4.6h.2v-1.4h1.3v9a3 3 0 0 1-.6 1.8 3 3 0 0 1-1.3 1 6 6 0 0 1-2 .4Zm0-4.8a2.3 2.3 0 0 0 2.2-1.4l.2-1.7c0-.7 0-1.2-.2-1.7s-.5-.9-.9-1.1c-.4-.3-.8-.4-1.4-.4a2.3 2.3 0 0 0-2.2 1.6c-.2.4-.3 1-.3 1.6 0 .6 0 1.1.3 1.6.2.4.5.8.8 1 .4.3.9.5 1.4.5Zm11.7-2.3v-5.1h1.4V98h-1.4v-1.5l-1 1.2a3 3 0 0 1-1.7.4 3 3 0 0 1-1.4-.3c-.4-.3-.8-.7-1-1.1-.3-.5-.4-1.1-.4-1.9v-5.5h1.4v5.4c0 .7.1 1.2.5 1.5.3.4.8.6 1.4.6a2.3 2.3 0 0 0 2.2-2.4Zm5.1-1.7V98h-1.3v-8.7h1.3v1.3h.1a2 2 0 0 1 1-1c.4-.3.9-.4 1.6-.4.6 0 1 0 1.5.3s.8.6 1 1.1c.3.5.4 1.1.4 1.9V98h-1.3v-5.5c0-.6-.2-1.2-.6-1.6a2 2 0 0 0-1.4-.5c-.5 0-.8 0-1.2.2a2 2 0 0 0-.8.9c-.2.3-.3.7-.3 1.3Z"/>
  <path fill="#fff" d="m14.9 98-2 .5a2 2 0 0 0 2 1.5v-2Zm-3.2-11.6v-2a2 2 0 0 0-2 2.5l2-.5Zm1.4 0 2-.5a2 2 0 0 0-2-1.5v2Zm2.5 9.4-2 .5a2 2 0 0 0 2 1.5v-2Zm0 0v2a2 2 0 0 0 2-1.5l-2-.5Zm2.6-9.4v-2a2 2 0 0 0-2 1.5l2 .5Zm1.5 0 2-.5a2 2 0 0 0-2-1.5v2Zm2.5 9.4-2 .5a2 2 0 0 0 2 1.5v-2Zm.1 0v2a2 2 0 0 0 2-1.5l-2-.5Zm2.5-9.4v-2a2 2 0 0 0-2 1.5l2 .5Zm1.4 0 2 .5a2 2 0 0 0-2-2.5v2ZM23 98v2a2 2 0 0 0 2-1.5l-2-.5Zm-1.4 0-2 .5a2 2 0 0 0 2 1.5v-2ZM19 88.7l2-.5a2 2 0 0 0-2-1.5v2Zm-.1 0v-2a2 2 0 0 0-2 1.5l2 .5ZM16.3 98v2a2 2 0 0 0 2-1.5l-2-.5Zm.5-.5-3.2-11.7-3.8 1L13 98.6l3.8-1Zm-5.1-9.1h1.4v-4h-1.4v4Zm-.5-1.5 2.4 9.4 3.9-1-2.4-9.4-4 1Zm4.4 11v-4 4Zm2-1.6 2.5-9.4-3.9-1-2.5 9.4 4 1Zm.6-8h1.5v-4h-1.5v4Zm-.4-1.4 2.5 9.4 3.9-1-2.5-9.4-3.9 1Zm4.4 11h.1v-4 4Zm2-1.6 2.5-9.4-3.9-1-2.4 9.4 3.9 1Zm.6-8h1.4v-4h-1.4v4Zm-.5-2.5L21 97.5l3.8 1L28.1 87l-3.8-1ZM23 96h-1.4v4H23v-4Zm.5 1.5-2.6-9.3-3.8 1 2.5 9.3 3.9-1ZM19 86.7h-.1v4h.1v-4Zm-2 1.5-2.6 9.3 3.9 1 2.5-9.2-3.8-1.1Zm-.7 7.8H15v4h1.4v-4ZM28 97.9l-.8 1.8.8-1.8Zm-1-1-1.7 1.2L27 97Zm-.2-2.6 1.7 1-1.7-1Zm2-1.1.4 2-.5-2Zm1.1-.2-.2-2 .2 2Zm1.3-.2.2 2-.2-2Zm.8-.2L31 91l1 1.7Zm-.3-1.8-1.4 1.4 1.4-1.4Zm-2.9 0 1.3 1.5-1.3-1.5Zm-.7.9-.7 1.8c1 .4 2 0 2.5-1l-1.8-.8Zm-1.3-.5-1.8-.8a2 2 0 0 0 1.1 2.7l.7-1.9Zm1-1.2 1.1 1.5-1.2-1.5Zm1.2-.7.5 2-.5-2Zm2.3 0-.4 2 .4-2Zm1 .4-1 1.7 1-1.7Zm.9.9-1.8 1 1.8-1Zm.3 7.4v2a2 2 0 0 0 2-2h-2Zm-1.3 0h-2c0 1.1.9 2 2 2v-2Zm0-1.2h2a2 2 0 0 0-2-2v2Zm0 0v-2a2 2 0 0 0-1.9 1.2l1.8.8Zm-.5.6 1.4 1.4-1.4-1.4Zm-.9.6-.8-2 .8 1.9Zm.3-1.3-1-1.8 1 1.8Zm.8-.8-1.7-1 1.7 1Zm.3-2.3h2a2 2 0 0 0-3.5-1.3l1.5 1.3Zm-.4.2.6 2-.6-2Zm-.6.1.3 2-.3-2Zm-.8.1.3 2-.3-2Zm-.5.1.2 2-.2-2Zm-1 .2.6 2-.6-2Zm-.7.5-1.5-1.4 1.5 1.4Zm.2 1.8-1.1 1.7 1.1-1.7Zm1.1-.4-.6-.1-1.7 3.6c.7.4 1.5.5 2.3.5v-4Zm-.6-.1a.6.6 0 0 1-.3-.2L25.3 98a5 5 0 0 0 1.9 1.6l1.7-3.6Zm-.3-.2v-.4h-4c0 1 .2 1.8.7 2.6l3.3-2.2Zm0-.4v-.2l-3.4-2c-.5.7-.6 1.5-.6 2.2h4Zm0-.1-2-3.6a4 4 0 0 0-1.4 1.4l3.3 2.2Zm0 0c.1-.2.3-.2.6-.3l-.9-3.9c-.6.1-1.1.3-1.6.6l1.9 3.5Zm.6-.3 1-.2-.5-4-1.4.3.9 4Zm1-.2 1.2-.1-.4-4-1.3.2.5 4Zm1.3-.1c.4 0 1-.2 1.5-.5L31 91l.1-.1H31l.5 4Zm1.4-.4c1-.6 1.3-1.5 1.3-2.2h-4c0-.2 0-.4.2-.7.1-.3.3-.5.6-.6l2 3.5Zm1.3-2.2h-4 4Zm0 0c0-1-.3-2-1-2.8l-2.9 2.8a.6.6 0 0 1-.1-.2v.1h4Zm-1-2.8c-.9-.8-2-1-2.9-1v4h.2l-.2-.2 2.9-2.8Zm-2.9-1c-.9 0-1.9.1-2.7.8l2.5 3.1c-.1.1-.1 0 .2 0v-4Zm-2.7.8c-.5.4-1 1-1.3 1.6l3.6 1.7.2-.2-2.5-3.1Zm1.1.6-1.2-.5-1.4 3.8 1.3.4 1.3-3.7Zm0 2.2c0-.3.2-.4.2-.5l-2.4-3.1a5 5 0 0 0-1.5 2l3.6 1.6Zm.2-.5.6-.2-1-3.9c-.8.2-1.4.5-2 1l2.4 3.1Zm.6-.2.8-.1v-4c-.6 0-1.2 0-1.9.2l1 3.9Zm.8-.1h.6l.7-3.9-1.3-.1v4Zm.6 0c.1 0 .3 0 .4.2l2-3.5a5 5 0 0 0-1.7-.6l-.7 4Zm.4.2.1.2 3.5-2c-.3-.6-.8-1.2-1.5-1.7l-2 3.5Zm.1.2v.1l.1.5h4a5 5 0 0 0-.6-2.6l-3.5 2Zm.1.7V98h4v-5.8h-4Zm2 3.7h-1.3v4h1.3v-4Zm.7 2v-1.2h-4V98h4Zm-2-3.2v4-4ZM30.3 96s0-.1 0 0l2.8 2.8.8-1.1-3.6-1.7Zm0 0-.3.1 1.6 3.7c.5-.2 1-.5 1.5-1L30.2 96Zm-.3.1-.5.1v4c.7 0 1.4-.1 2.1-.4L30 96.1Zm-.3 2.9c.8 0 1.6-.2 2.4-.6L30 95h-.4v4Zm2.4-.6c.6-.3 1.2-.9 1.5-1.5l-3.4-2H30l2 3.5Zm1.5-1.5a4 4 0 0 0 .6-2h-4l3.4 2Zm.6-2v-1.3h-4v1.2h4Zm-3.5-2.6a1.7 1.7 0 0 1 .5-.4l1.2 3.8.5-.2c.2 0 .5-.3.8-.6l-3-2.6Zm.6-.4h-.5l.7 4 .9-.2-1.1-3.8Zm-.4 0-.7.2.5 4 .8-.2-.6-4Zm-.7.2h-.6l.5 4h.6l-.5-4Zm-.6 0c-.5 0-1 .2-1.3.3l1.2 3.8.6-.1-.5-4Zm-1.3.3c-.6.2-1.2.5-1.6 1l3 2.7-.2.1-1.2-3.8Zm-1.6 1c-.6.7-.8 1.5-.8 2.2h4v.2l-.3.3-2.9-2.7Zm-.8 2.2c0 1 .4 2 1.4 2.7l2.2-3.3a.9.9 0 0 1 .4.6h-4Zm1.4 2.7c.8.5 1.6.7 2.4.7v-4h-.2l-2.2 3.3Zm12.5-9h2a2 2 0 0 0-2-2v2Zm0 1.1v2a2 2 0 0 0 2-2h-2Zm-4.5 0h-2c0 1.1.8 2 2 2v-2Zm0-1.1v-2a2 2 0 0 0-2 2h2Zm1.3-2.1v-2a2 2 0 0 0-2 2h2Zm1.3 0h2a2 2 0 0 0-2-2v2Zm.2 9.2-1.8 1 1.8-1Zm.4.3-.7 1.9.7-1.9Zm1 .1.2 2h.1l-.4-2Zm.2 0 2-.5a2 2 0 0 0-2.4-1.5l.4 2Zm.2 1.2.7 1.8a2 2 0 0 0 1.3-2.3l-2 .5Zm-.3 0-.5-1.9.5 2Zm-1.8-.1-.8 1.8.8-1.8ZM37 97l-1.6 1.2L37 97Zm.9-7.8v1.1h4v-1.1h-4Zm2-.9h-4.5v4h4.5v-4Zm-2.5 2v-1.1h-4v1.1h4Zm-2 .9h4.5v-4h-4.5v4Zm1.3-2.1H38v-4h-1.3v4Zm-.7-2v8.3h4v-8.3h-4Zm0 8.3c0 .5 0 1.2.4 1.9l3.5-2a1 1 0 0 1 .1.2v-.1h-4Zm.5 1.9c.3.5.7 1 1.4 1.2l1.4-3.7a1.2 1.2 0 0 1 .6.4l-3.4 2.1Zm1.5 1.2c.4.2.8.2 1.2.2v-4L38 98.6Zm1.2.2h.6l-.6-4v4Zm.7 0h.3l-.8-4H39l.8 4Zm-2-1.6.2 1.2 3.9-.9-.3-1.2-3.9.9Zm1.4-1.1.8 4 .6-.3-1.4-3.7Zm-.1 0H39v4h1l-.9-4Zm-.2 0h-.3L37 99.6c.6.3 1.3.4 2 .4v-4Zm-.3 0-3.3 2.3c.4.6 1 1 1.7 1.4l1.6-3.7Zm0-.1v.1h-4c0 .8.2 1.6.7 2.4l3.3-2.3Zm0-.1v-8.7h-4v8.7h4Zm4.6 1.7-1 1.7 1-1.7ZM41.9 96l-1.8.8 1.8-.8Zm0-4.8-1.8-.8 1.8.8Zm1.4-1.6 1 1.7-1-1.7Zm3.4-.3.6-2-.6 2Zm1.2.7-1.4 1.5 1.4-1.5Zm.8 1.4 2-.8-2 .8ZM49 94v2a2 2 0 0 0 2-2h-2Zm-6.8 0h-2c0 1.1 1 2 2 2v-2Zm0-1.2v-2a2 2 0 0 0-2 2h2Zm5.4 0v2a2 2 0 0 0 2-2h-2Zm-.3-1.3-1.8 1 1.8-1Zm-.8-.9-1 1.7 1-1.7Zm-2.7 0 1.2 1.7-1.2-1.6Zm-.9 1-1.8-.8 1.8.9Zm0 3.9-1.7.9 1.8-1Zm1 1-1 1.8 1-1.8Zm2.4.2.7 2-.7-2Zm.8-.4 1.3 1.4-1.3-1.4Zm.4-.8.6-2a2 2 0 0 0-2.4 1.3l1.8.7Zm1.3.4 2 .6a2 2 0 0 0-1.4-2.5l-.6 1.9Zm-.7 1.1 1.5 1.4-1.5-1.4ZM47 98l.7 1.9L47 98Zm-1.6-1.7c-.6 0-1-.1-1.2-.3l-2 3.4c1 .6 2 .9 3.2.9v-4Zm-1.2-.3c-.2-.1-.5-.4-.6-.7L40 96.9c.5 1 1.2 1.8 2.1 2.4l2.1-3.4Zm-.6-.7a3 3 0 0 1-.3-1.5h-4c0 1.1.2 2.2.7 3.2l3.6-1.7Zm-.3-1.5c0-.6.1-1.1.3-1.5L40 90.5c-.5 1-.7 2-.7 3.2h4Zm.3-1.5.6-.8-2.1-3.3c-1 .6-1.7 1.4-2.1 2.4l3.6 1.7Zm.6-.8 1-.2v-4a5 5 0 0 0-3.1.9l2.1 3.3Zm1-.2h.7l1.3-3.7c-.6-.2-1.3-.3-2-.3v4Zm.7 0 .5.4 2.7-3c-.5-.5-1.2-.9-1.9-1.1L46 91.3Zm.5.4.4.6 3.7-1.5c-.3-.7-.7-1.5-1.4-2l-2.7 2.9Zm.4.6.2 1.3h4c0-1-.2-1.9-.5-2.8l-3.7 1.5Zm.2 1.3v.6h4v-.6h-4Zm2-1.4h-6.8v4H49v-4Zm-4.8 2V93h-4v1.2h4Zm-2 .8h5.4v-4h-5.4v4Zm7.4-2c0-.7-.1-1.5-.5-2.2l-3.6 1.8.1.4h4Zm-.5-2.2c-.4-.7-.9-1.3-1.6-1.7l-2 3.4v.1l3.6-1.8ZM47.5 89c-.7-.4-1.5-.6-2.3-.6v4h.2l2.1-3.4Zm-2.3-.6c-.9 0-1.7.2-2.5.7l2.3 3.3h.2v-4Zm-2.5.7c-.7.5-1.2 1-1.6 1.8l3.6 1.8.3-.3-2.3-3.3Zm-1.6 1.8a5 5 0 0 0-.5 2.2h4l.1-.4-3.6-1.8Zm-.5 2.2v.8h4v-.8h-4Zm0 .8c0 .9.2 1.8.6 2.6l3.6-1.8-.2-.8h-4Zm.6 2.6c.4.8 1 1.4 1.7 1.9l2-3.5-.1-.2-3.6 1.8Zm1.7 1.9c.8.4 1.6.6 2.5.6v-4l-.5-.1-2 3.5Zm2.5.6 1.6-.3-1.3-3.8h-.3v4Zm1.6-.3a4 4 0 0 0 1.4-.9L45.7 95l1.3 3.8Zm1.5-.9c.4-.4.7-1 1-1.5L45.6 95l2.8 2.9Zm-1.5-.3 1.3.4 1-3.8-1.2-.4-1.1 3.8Zm0-2.1-.3.3 2.9 2.8c.5-.5 1-1.2 1.1-2l-3.7-1Zm-.3.3c0 .1-.2.3-.5.3l1.5 3.8c.7-.3 1.3-.7 1.9-1.3l-2.9-2.8Zm-.5.3-.8.2v4c.8 0 1.5-.1 2.3-.4L46.2 96Zm4.8 2h-2c0 1.1.9 2 2 2v-2Zm0-8.7v-2a2 2 0 0 0-2 2h2Zm1.3 0h2a2 2 0 0 0-2-2v2Zm0 1.3h-2c0 1.1.9 2 2 2v-2Zm0 0v2a2 2 0 0 0 2-1.3l-2-.7Zm1-1-1.1-1.7 1 1.6Zm2-.4h2a2 2 0 0 0-1.7-2l-.2 2Zm0 1.3-.4 2a2 2 0 0 0 2.5-2h-2Zm-.2 0-.4 2 .4-2Zm-1.7.2 1 1.8-1-1.8Zm-.8.7-1.7-1 1.7 1Zm-.3 6.6v2a2 2 0 0 0 2-2h-2Zm.7 0v-8.7h-4V98h4Zm-2-6.7h1.3v-4H51v4Zm-.7-2v1.3h4v-1.3h-4Zm2 3.3v-4 4Zm2-1.3-2.1-3.4a4 4 0 0 0-1.7 2l3.8 1.4Zm0 0 .4-.2v-4c-1 0-1.8.3-2.5.8l2.1 3.3Zm.4-.2h.3v-4h-.3v4Zm.3 0h.1l.5-4H55l-.1 4Zm-1.6-2v1.4h4v-1.3h-4Zm2.5-.5-.6-.1-.5 4h.1l1-4Zm-.5-.1a5 5 0 0 0-.8 0v4h.1l.7-4Zm-.8 0c-.8 0-1.5 0-2.1.4l1.9 3.6h.2v-4Zm-2.1.4a4 4 0 0 0-1.6 1.5l3.4 2-1.8-3.5Zm-1.6 1.5a4 4 0 0 0-.6 2h4l-3.4-2Zm-.6 2V98h4v-5.5h-4Zm2 3.6H51v4h1.3v-4Zm11 5.2.7-1.9-.7 2Zm-1.2-.6 1.4-1.6-1.4 1.6Zm-.7-.9-1.1-1.6a2 2 0 0 0-.6 2.6l1.7-1Zm1-.7 1.7-1.3a2 2 0 0 0-2.8-.4l1.2 1.7Zm.5.5 1.5-1.3-1.5 1.3Zm.8.5.9-1.8-.9 1.8Zm3-.2 1.2 1.6-1.2-1.6Zm.7-3.4h2a2 2 0 0 0-2-2v2Zm-.1 0v-2a2 2 0 0 0-1.7 1l1.7 1Zm-.4.6-1.6-1.2 1.6 1.2Zm-.8.6 1 1.8-1-1.8Zm-3.2-.2-1 1.7 1-1.7Zm-1.4-1.5-1.7 1 1.7-1Zm0-4.6 1.8.8-1.8-.8Zm1.3-1.6 1.1 1.7-1-1.7Zm3.3-.3-1 1.8 1-1.8Zm.8.7-1.6 1.2 1.6-1.2Zm.4.6-1.7 1c.4.6 1 1 1.7 1v-2Zm.2 0v2a2 2 0 0 0 2-2h-2Zm0-1.4v-2a2 2 0 0 0-2 2h2Zm1.3 0h2a2 2 0 0 0-2-2v2Zm-.6 10.8-1.6-1.2 1.6 1.2Zm-1.3 1-.7-1.8.7 1.8Zm-.6-4.8-1.1-1.7 1.1 1.7Zm.8-1 1.9.7-1.9-.8Zm0-3.4 2-.7-2 .7Zm-.8-1.1-1.2 1.6 1.2-1.6Zm-2.8 0-1.2-1.6 1.2 1.6Zm-.8 1.2-1.9-.8 1.9.8Zm0 3.2-1.9.7 1.9-.7Zm.8 1L62.4 98l1.1-1.6Zm1.5 3.3a3 3 0 0 1-1-.2l-1.4 3.8a7 7 0 0 0 2.4.4v-4Zm-1-.2c-.3 0-.5-.2-.5-.3l-2.7 3a4 4 0 0 0 1.9 1l1.3-3.7Zm-.5-.3-.4-.3-3.4 2 1.1 1.4 2.7-3Zm-1 2.3 1.1-.7-2.3-3.3-1 .8 2.3 3.2Zm-1.6-1.1.6.6 3-2.6-.4-.5-3.2 2.5Zm.6.6c.4.5.9.8 1.4 1l1.7-3.6h-.2l-3 2.6Zm1.3 1a5 5 0 0 0 2.2.5v-4a2 2 0 0 1-.4 0l-1.8 3.5Zm2.2.5c1 0 2-.3 3-1l-2.5-3.1H65v4Zm3-1a4 4 0 0 0 1.4-3.1h-4v.1l.1-.1 2.4 3.2Zm1.4-3.1v-1.8h-4v1.8h4Zm-2-3.8h-.1v4h.1v-4Zm-1.8 1-.3.4 3.2 2.4.5-.8-3.4-2Zm-.3.4h-.1l1.9 3.6c.5-.3 1-.7 1.4-1.2l-3.2-2.4Zm-.1 0h-.4v4c.7 0 1.5 0 2.3-.4l-2-3.6Zm-.4 0c-.4 0-.7 0-1-.2l-2 3.5c1 .5 2 .8 3 .8v-4Zm-1-.2-.5-.6-3.5 1.8a5 5 0 0 0 2 2.3l2-3.5Zm-.5-.6-.2-1.4h-4a7 7 0 0 0 .7 3.2l3.5-1.8Zm-.2-1.4c0-.7 0-1.1.2-1.5l-3.6-1.7c-.4 1-.6 2-.6 3.2h4Zm.2-1.5c.2-.4.4-.6.6-.7L61.7 88c-.9.6-1.5 1.4-2 2.4l3.6 1.7Zm.6-.7c.2-.2.5-.2.9-.2v-4c-1.1 0-2.1.2-3 .8l2.1 3.4Zm.9-.2h.3c.1 0 0 0 0 0l2-3.5c-.7-.4-1.6-.5-2.3-.5v4Zm.4 0c.1 0 .1.1.1 0l3.2-2.3a4 4 0 0 0-1.4-1.2l-2 3.5Zm.1.1.3.4 3.4-2.1a11 11 0 0 0-.5-.7l-3.2 2.4Zm2 1.4h.2v-4h-.2v4Zm2.2-2v-1.4h-4v1.4h4Zm-2 .6h1.3v-4h-1.3v4Zm-.7-2v9h4v-9h-4Zm0 9c0 .4-.1.6-.2.6l3.3 2.4c.6-1 .9-2 .9-3h-4Zm-.2.6a1 1 0 0 1-.4.4l1.4 3.7a5 5 0 0 0 2.3-1.8L66.6 99Zm-.4.4-1.2.2v4c.9 0 1.8-.2 2.6-.5l-1.4-3.7Zm-1.3-.6c.9 0 1.7-.2 2.5-.7l-2.2-3.4h-.3v4Zm2.5-.7c.7-.5 1.3-1.2 1.6-2l-3.7-1.5-.1.1 2.2 3.4Zm1.6-2c.3-.8.4-1.6.4-2.4h-4l-.1.9L69 96Zm.4-2.4c0-.9 0-1.7-.4-2.4l-3.7 1.4.1 1h4Zm-.4-2.4c-.3-.8-.8-1.5-1.5-2l-2.4 3.2.2.2 3.7-1.4Zm-1.5-2c-.8-.6-1.7-.8-2.6-.8v4h.2l2.4-3.2Zm-2.6-.8c-.9 0-1.8.2-2.6.8l2.4 3.2h.2v-4Zm-2.6.8c-.7.5-1.2 1.2-1.5 2l3.7 1.5.2-.3-2.4-3.2Zm-1.5 2c-.3.8-.4 1.6-.4 2.4h4l.1-1-3.7-1.4Zm-.4 2.4c0 .8.1 1.6.4 2.3l3.7-1.5-.1-.8h-4Zm.4 2.3c.4.8.9 1.5 1.6 2l2.3-3.3-.2-.2-3.7 1.5Zm1.6 2c.8.6 1.7.8 2.5.8v-4a1 1 0 0 1-.2 0l-2.3 3.2Zm14.3-8.6v-2a2 2 0 0 0-2 2h2Zm1.4 0h2a2 2 0 0 0-2-2v2Zm0 8.7v2a2 2 0 0 0 2-2h-2Zm-1.4 0h-2c0 1.1 1 2 2 2v-2Zm0-1.5h2a2 2 0 0 0-2-2v2Zm0 0v-2a2 2 0 0 0-1.9 1.2l1.8.8Zm-1 1.2 1.1 1.6-1.1-1.6Zm-3.1 0-1 1.8 1-1.7Zm-1-1-1.8.9 1.8-1Zm-.4-7.4v-2a2 2 0 0 0-2 2h2Zm1.4 0h2a2 2 0 0 0-2-2v2Zm.5 7-1.5 1.3 1.5-1.3Zm2.4.3-.9-1.8.9 1.8Zm.9-.8-1.7-1.1 1.7 1Zm2.3-1.4v-5.1h-4v5.1h4Zm-2-3.1h1.4v-4h-1.4v4Zm-.6-2V98h4v-8.7h-4Zm2 6.7h-1.4v4h1.4v-4Zm.6 2v-1.5h-4V98h4Zm-2-3.5v4-4Zm-1.9 1.2-.3.3 2.3 3.3c.7-.5 1.3-1.2 1.6-2l-3.6-1.6Zm-.3.3-.5.1v4c1 0 2-.2 2.8-.8L74.5 96Zm-.5.1a1 1 0 0 1-.4 0l-2 3.4a5 5 0 0 0 2.4.6v-4Zm-.4 0-.2-.3-3.6 1.8c.4.8 1 1.4 1.8 1.9l2-3.5Zm-.2-.3c-.1-.2-.2-.4-.2-1h-4c0 1 .2 2 .6 2.8l3.6-1.8Zm-.2-1v-5.5h-4v5.5h4Zm-2-3.5h1.4v-4h-1.4v4Zm-.6-2v5.4h4v-5.4h-4Zm0 5.4c0 1 .3 2 1 3l3-2.8v-.2h-4Zm1 3c.8.7 1.8 1.1 2.9 1.1v-4l-2.9 2.8Zm2.9 1.1c.6 0 1.3-.2 1.9-.4l-1.8-3.6h-.1v4Zm1.9-.4c.7-.4 1.2-.9 1.6-1.5l-3.3-2.2h-.1l1.8 3.7Zm1.6-1.5c.5-.8.7-1.6.7-2.5h-4v.3l3.3 2.2Zm3.8 1.1v2a2 2 0 0 0 2-2h-2Zm-1.3 0h-2c0 1.1.9 2 2 2v-2Zm0-8.7v-2a2 2 0 0 0-2 2h2Zm1.3 0h2a2 2 0 0 0-2-2v2Zm0 1.3h-2c0 1.1.9 2 2 2v-2Zm.1 0v2a2 2 0 0 0 1.8-1.1l-1.8-.9Zm1-1 1 1.6-1-1.6Zm3.1 0-1 1.7 1-1.8Zm1 1-1.7 1 1.7-1Zm.4 7.4v2a2 2 0 0 0 2-2h-2Zm-1.3 0h-2c0 1.1.9 2 2 2v-2Zm-.6-7-1.4 1.3 1.4-1.4Zm-2.6-.4L82 89l1 1.7Zm-.8.9-1.7-1 1.7 1Zm-2.3 1.3V98h4v-5.3h-4Zm2 3.2h-1.3v4h1.3v-4Zm.7 2v-8.7h-4V98h4Zm-2-6.7h1.3v-4h-1.3v4Zm-.7-2v1.3h4v-1.3h-4Zm2 3.3h.1v-4h-.1v4Zm2-1.1.1-.3-2.1-3.3c-.8.5-1.3 1.1-1.7 1.9l3.6 1.7Zm.1-.3h.6v-4c-1 0-2 .2-2.7.7l2.1 3.3Zm.6 0h.6l1.9-3.4c-.8-.5-1.7-.6-2.5-.6v4Zm.6 0c0 .1 0 .2.2.3l3.5-1.8a5 5 0 0 0-1.8-2l-2 3.6Zm.2.3.1 1h4a6 6 0 0 0-.6-2.8l-3.5 1.8Zm.1 1V98h4v-5.5h-4Zm2 3.5h-1.3v4h1.3v-4Zm.7 2v-5.5h-4V98h4Zm0-5.5c0-1-.3-2-1-3l-3 2.8v.2h4Zm-1-3a3.9 3.9 0 0 0-3-1.1v4s.1 0 0 0a.3.3 0 0 1 0-.1l3-2.7Zm-3-1.1c-.8 0-1.5.1-2.1.5l1.9 3.5h.2v-4Zm-2.1.5a4 4 0 0 0-1.6 1.6l3.5 2v-.1l-2-3.5Zm-1.6 1.6c-.4.7-.6 1.5-.6 2.3h4v-.3h.1l-3.5-2Z" mask="url(#c)"/>
</svg>
