<svg xmlns="http://www.w3.org/2000/svg" fill="none" viewBox="0 0 101 101">
  <mask id="a" width="95" height="101" x="3" y="0" maskUnits="userSpaceOnUse" style="mask-type:luminance">
    <path fill="#fff" d="M3.8 0h93.7v101H3.8V0Z"/>
  </mask>
  <g mask="url(#a)">
    <path fill="#EF3220" d="M44.2 88.6H38l-1.4 1.8c-.3-.1-.6 0-1 .1l-10 6.5a1.3 1.3 0 0 0-.7 1.3c0 .8.6 1.4 1.4 1.5L35 101h.7l8-3c.6-.3 1-.9 1-1.4v-2.4l-.5-5.7Zm32 8.4L66 90.5c-.3-.1-.5-.2-.8-.1l-1.4-1.8h-6.3l-.4 5.7v2.1c0 .7.4 1.2 1 1.4l8 3h.7l8.9-1.1c.7 0 1.3-.7 1.3-1.4v-.1a1.3 1.3 0 0 0-.8-1.4v.2ZM19.7 33.4a50.5 50.5 0 0 0-8.7-3.9l-.5.1h-1c-.9-.1-1.3.7-1.6 1.5 0 1 .7 1.9 1.7 2h.2l.2.3c1.3.5 2.7 1.3 4 2.2l.1.2-1.7 2-1.4 1c-.6.4-.6.4-1-.3-1-1.3-1.7-2.7-2-4-.3-.6-.7-1-1.1-1.1l-1-.3c-1.2 0-2.1.8-2.3 2.2A43 43 0 0 0 7 43c.5 1 1.3 1.9 2.7 1.6 1.3-.4 2.4-1.3 3.5-2l3.4-2.4 2-1.8c.8-.7 1.5-1.5 1.6-2.3.3-.4.4-1 .1-1.5 0-.6-.2-1.2-.8-1.3h.2Zm77.8 1.9c0-1.4-1-2.2-2.3-2.2l-1 .3c-.3.1-.7.5-1 1a12 12 0 0 1-2 4.1c-.4.7-.4.7-1.1.3l-1.4-1-1.6-1.8H87l.3-.3a31 31 0 0 1 3.9-2.2l.1-.1h.3c1-.3 1.7-1 1.6-2.2-.1-.8-.7-1.6-1.6-1.6l-1 .2a1.3 1.3 0 0 0-1 0 62 62 0 0 0-7.9 3.6c-.5.3-.8.8-.8 1.3-.2.7-.1 1.3.2 1.7.1.8.8 1.6 1.6 2.2l2 1.8c1 .9 2.2 1.7 3.4 2.4 1 .7 2.3 1.6 3.5 2 1.3.3 2.1-.5 2.7-1.6l2-4c.5-1 1.3-2.7 1.3-4h-.1Zm-32-14.6V4.8c0-5-1.1-4.5-5.2-4.5H44.6c-3.1 0-7.2-1.4-8.2 2.4-1.5 4.3-.3 13 0 17.5 0 4.6 1 4 4.4 3.5 1.4-.3 2.4-.3 3.6-.3 0 1 .3 1.6 1.1 2h10.1c1 0 1.6-.5 1.8-1.7 1.3 0 8.3.8 8-3Zm-28.2 14a5.4 5.4 0 0 0-2.3-8.4c-.7-.3-1.3-.3-1.9-.3h-.4c-3.5.3-6.2 5.1-4.4 8 1.7 3.6 6.7 3.6 9 .7Zm29-8.4c.6-.3 1.3-.3 1.8-.3h.4c3.7.3 6.2 5.1 4.5 8-1.8 3.6-6.7 3.6-9 .7a5.4 5.4 0 0 1 2.3-8.4Z"/>
  </g>
  <path fill="#F8E505" d="M57.5 72.6a6 6 0 0 0 4 0l.9-.1c.9 0 1.8-.7 1.8-1.8 0-2.8 0-5.7-1.3-8.3-1-2.5-2.8-4.6-5.1-6.4l-.7-.4a3 3 0 0 0-2.2 0c-.8.4-1.7.7-2.5 1.2-.7.4-1 1.2-.8 2 .1.5.5.7 1 1 2 2.7 3.4 6 3.7 9.1 0 1.4-.3 2.7 1.2 3.7ZM41.6 46H47c1 0 1.2-.4 1.3-.7 0-.7-1-1.4-1.6-1.5l-1-.1h-3l-2.2-.2c-.8 0-1.3 0-1.7.3-.3.1-1 .7-1 1.3.2.5.7.9 3.8.9Zm-10-13.8c-.2-.2-.5-.2-.9-.2-.5 0-1.3.2-1.3 1.2a15 15 0 0 1-2.5 5.3l-.8 1.4c-.5-.2-1.1-.4-1.7-.4a4 4 0 0 0-1.8.4l-.2-.1a70 70 0 0 1-3.8-1.4l-2 1.6-1.7 1.4 2.6 1.9 2.7 1.3.3 1.2c.4.7 1 1.2 1.5 1.6a3.5 3.5 0 0 0 2.8 1.1c.8 0 1.7-.4 2.3-1l.6-1 .8-1 .3-1.4c.8-.6 1.6-1.4 2.2-2.2 2-2.7 4.8-7.4.6-9.7ZM42 72.7l-3.9.2c-.5 0-1.2.2-1.5.6a1.3 1.3 0 0 0-.5 1.1v15.6h5.2c.6 0 1 .2 1.4.7l1.6 2.6V75a1.3 1.3 0 0 0-.4-1c-.4-.6-1-1.1-1.9-1.1v-.2Zm13.9-27h7.4c.8 0 1-.2 1-.5 0-.5-.5-1.3-.9-1.4h-1l-1.4-.2H50.9c-.3.3-1 .7-.8 1.4 0 .2.3 1 5.1 1h.7v-.2Zm-7 10.9-2.6-1.1a3 3 0 0 0-2.1 0l-.7.4c-2.3 1.7-4 3.9-5.1 6.3C37 65 37 67.7 37 70.6c0 1 1 1.7 2 1.7l.6.3c1 .3 3.2.4 4.2-.1 1.3-.9 1-2.5 1.3-3.7a18 18 0 0 1 3.6-9.1c.5-.3.9-.6 1-1 .3-.8 0-1.6-.8-2v-.1Zm15.7 17.2c-.2-.4-.8-.5-1.3-.7h-4c-.9 0-1.5.4-1.8 1a1.3 1.3 0 0 0-.5 1v18.4l.1.8.3-.4 1.7-2.7a1.3 1.3 0 0 1 1.2-.7h4.9V74.7c0-.4-.2-.8-.4-1l-.2.1Zm20.2-33.4-2-1.8-4 1.7a4 4 0 0 0-1.8-.4c-.6 0-1.2 0-1.7.2l-.8-1c-1.1-1.8-2-3.5-2.3-5.6-.3-1-.8-1.3-1.5-1.2-.4 0-.7 0-1 .3-4.1 2.3-1.3 6.9.7 9.7l2.2 2.3c0 .4 0 .8.3 1.3l.6.8.2.2.6 1c.6.6 1.4 1 2.5 1 1 0 1.8-.4 2.5-1 .8-.5 1.4-1 1.6-1.7l.3-1.2c2-.8 3.8-2 5.4-3.4l-1.8-1.3v.1ZM56.2 19.5v-2c0-.5-.9-.5-.9 0v2c0 .6.9.6.9 0Zm1.6 24h5.5c.8 0 1-.4 1-.7 0-.6-.9-1.3-1.3-1.5h-4.2l-2.1-.2c-.8 0-1.4 0-1.8.2-.2.2-1 .7-.9 1.4.1.4.7.8 3.8.8Zm-4-23.8v-2.3c0-.6-.9-.6-.9 0v2.3c0 .5.8.5.8 0Zm4.5-.2v-2c0-.5-.8-.5-.8 0v2c0 .6.8.6.8 0ZM59 8.8A1.3 1.3 0 1 0 59 6a1.3 1.3 0 0 0 0 2.7ZM44 19.5v-2c0-.5-.8-.5-.8 0v1.9c0 .5.8.5.8 0v.1Zm1.7-2v2c0 .6.8.6.8 0v-2c0-.5-.8-.5-.8 0Zm-2.5 26h8c.8 0 1-.4 1-.7.2-.5-.5-1.3-.8-1.5H38.6c-.2.2-.9.6-.8 1.1.2.4.3 1.1 5.3 1.1h.1Zm2.5-34.9a1.3 1.3 0 1 0 0-2.7 1.3 1.3 0 0 0 0 2.7Zm3.3 11v-2c0-.6-1-.6-1 0v2c0 .5 1 .5 1 0Zm1.8 0v-2c0-.6.8-.6.8 0v2.2c0 .5-.8.5-.8 0"/>
  <path fill="#397DC9" d="M43.9 23.4c0 .6.1 1.2.5 1.6h12.8c.3-.2.4-.8.4-1.3h-.5c-4.3 0-8.9-.5-13.2-.3ZM65.9 5a4 4 0 0 0-.6-.2v10.7c1.2-.3 2.3-1 3.1-1.9 2.3-3 1.2-7.4-2.4-8.6ZM35.7 5c-3.3.7-5.4 5-3.8 8a5 5 0 0 0 4 2.6c-.4-3.6-.7-7.7-.2-10.8V5ZM29 43c-.2-2-1.8-3.1-3.7-3.5-1.2-.3-2.3 0-3.3.4l.2.1c2 .7 2 3 1.1 4.6-.4.6-1 .8-1.5.8l-2.1-.7c0 .5 0 1 .4 1.5.2.8 1 1.3 1.6 1.7l1 .8a4 4 0 0 0 4.6-.6c.3-.4.6-.7.7-1.2l.7-1c.4-1 .5-1.7.3-2.5V43Zm51 2.2c-.3.2-.5.2-.8.2-.6 0-1-.2-1.5-.8-1-1.5-.8-4 1-4.6h.3a4 4 0 0 0-3.3-.5c-1.9.4-3.5 1.4-3.7 3.5v.4c-.2.8 0 1.6.3 2.5l.7 1c.1.5.4.8.7 1.2a4 4 0 0 0 5.6 0c.7-.4 1.4-1.1 1.6-2 .3-.3.4-.9.4-1.4l-1.3.5Zm-35.3-38a1 1 0 1 0 1.8.8 1 1 0 0 0-1.8-.7Zm-5.6 3.2c-.7-2-.5-4.7 1.4-5.4.6-.6 1.1-1 1.8-1 2.1-.5 4.8 1.4 6 3.4 1 2.6-.6 5.3-3 6-2.7.9-5.3-.3-6.2-3Zm19-3.1A1 1 0 1 0 60 8a1 1 0 0 0-1.7-.7Zm-5 1.6-.2-1.4c.2-3 2.9-4.1 5.4-3.6 1 0 1.9.1 2.7.7 2.8 1.7 2.2 5.2.1 7.3a5 5 0 0 1-1.7 1.6c-1.5.5-2.8.2-4-.6A4.7 4.7 0 0 1 53 9Zm9.1 47.8c0-.8-.5-1.4-1.3-1.5-.4-.3-.8-.4-1.4-.4-3-.2-6-.2-9 .1-3.1.3-6.2.7-9.2 0-1.8-.4-3 .9-3 2v.6A12.1 12.1 0 0 0 51 65.2c6.5-.4 11-4.3 11.2-8.5Zm-16.1 16c-.3-2.1-2.3-3.3-4.6-3.8-2.2-.4-4.2 0-5.7 1.5-.4.2-.8.6-1 1.1v.4a5 5 0 0 0 0 4.3c.5.8 1.2 1.4 2.1 2l1.2.6c1.8.8 4.3.7 5.8-.7l.8-1.2 1-1c.5-1 .5-1.8.2-2.8v-.4h.2Zm20.4-.8c.7 1.4.7 3 0 4.3-.5.8-1.3 1.4-2.1 2l-1.2.6c-1.8.8-4.4.7-5.7-.7a3 3 0 0 1-1-1.2l-.9-1a4 4 0 0 1-.3-2.8v-.4c.2-2.1 2.2-3.3 4.5-3.8 2.1-.4 4.2 0 5.6 1.5.5.2.9.6 1 1.1v.4"/>
  <path fill="#EA7E16" d="M39 44.3c1-.5 3.8 0 4.9 0 .8 0 2-.3 2.7 0 .7 0 2 1.4.5 1.4h-5.4c-.5 0-5.3 0-2.8-1.4h.2Zm0-2.7h12.2c.4.3 1.3 1.4 0 1.4h-7.3c-.5 0-7.5.2-4.8-1.4Zm19 2.8c1.3 0 2.9-.2 4.4 0h.8c.4.2 1.3 1.4 0 1.4h-7.3c-.7 0-7.6 0-5-1.4.5-.2 1.8 0 2.3 0h4.7Zm-3-2.7c1-.4 3.8 0 5 0h2.6c.7.3 2 1.4.6 1.4h-5.3c-.5 0-5.4.1-2.8-1.4ZM67.7 49V30.4c0-5.6-1-5.4-5.8-5.4H43.6c-3.6 0-8.3-1.4-9.6 3-1.6 5-.2 15 0 20.3 0 3.2.6 4.2 1.8 4.3V55c0 2 1 2 5.1 2h15.5c3 0 7 .5 8.2-1 .8-1 .8-2.7.5-4 1.7-.5 2.7-1.4 2.7-3"/>
  <path fill="#110F0D" d="M74 10.2c0 .3 0 .4-.3.4h-4v-.9h4c.2 0 .5.1.5.5h-.1Zm-47-.5h4.5v1H27a.5.5 0 0 1-.5-.5c0-.4.3-.5.5-.5h.2Zm38.7 42.8c0 .3-.3.6-.5.6H35.7a.5.5 0 0 1-.6-.6c0-.2.3-.5.6-.5h29.6c.1 0 .4.3.4.5ZM55 5.4l.3-.1c.4-.4.8-.7 1.4-.9h.6c2 0 4 1.7 4.7 3.3.5 1 .5 2 0 3s-1.4 1.8-2.6 2.2c-2.5.7-4.6-.4-5.4-2.7-.7-1.9-.4-4.1 1-4.8Zm2.7 8.7c.7 0 1.4 0 2-.2A5.4 5.4 0 0 0 63 11c.5-1.3.5-2.7 0-3.7C62 5 59 3 56.4 3.5c-.7 0-1.4.4-1.9 1-2 .9-2.4 3.7-1.6 6a5.2 5.2 0 0 0 5 3.6h-.2ZM41 5.4l.2-.1a3 3 0 0 1 1.3-.9h.7c2 0 4 1.7 4.7 3.3.4 1 .4 2 0 3s-1.3 1.8-2.7 2.2c-2.4.7-4.6-.4-5.4-2.7-.5-1.9-.2-4.1 1.2-4.8Zm2.7 8.7c.7 0 1.4 0 2-.2a5.4 5.4 0 0 0 2.9-2.9c.5-1.3.5-2.7 0-3.7C47.5 5 44.7 3 42 3.5c-.7 0-1.3.4-1.9 1-2 .9-2.4 3.7-1.6 6a5.1 5.1 0 0 0 4.9 3.6h.2Zm-4 15.8H63v8.2H39.6V30Zm-1-.5v9.4c0 .1.3.4.6.4h24.2c.3 0 .6-.3.6-.6v-9.4c0-.2-.3-.4-.6-.4H39.1c-.3 0-.6.2-.6.6"/>
  <mask id="b" width="48" height="17" x="27" y="83" fill="#000" maskUnits="userSpaceOnUse">
    <path fill="#fff" d="M27 83h48v17H27z"/>
    <path d="M29.4 97V85.4h4c.9 0 1.6.1 2.2.4a3.3 3.3 0 0 1 1.7 3.1 4 4 0 0 1-.4 1.9 3 3 0 0 1-1.3 1.2c-.6.3-1.3.5-2.2.5h-3.2v-1.3h3.1c.6 0 1.1-.1 1.5-.3.4-.2.7-.4.9-.8l.2-1.2c0-.4 0-.8-.2-1.2-.2-.3-.5-.6-.9-.8-.4-.2-.9-.3-1.5-.3h-2.5V97h-1.4Zm5.5-5.2 2.9 5.2H36l-2.8-5.2h1.6Zm8 5.4c-.8 0-1.5-.2-2-.6-.6-.4-1.1-.9-1.4-1.6-.4-.6-.5-1.4-.5-2.3 0-1 .1-1.7.5-2.4.3-.7.8-1.2 1.3-1.6.6-.4 1.3-.5 2.1-.5s1.5.1 2 .5c.7.4 1.1 1 1.5 1.6.3.7.5 1.5.5 2.4 0 .9-.2 1.7-.5 2.3-.4.7-.8 1.2-1.4 1.6-.6.4-1.3.6-2 .6Zm0-1.2c.6 0 1.1-.2 1.5-.5.4-.3.7-.7.9-1.2l.2-1.6c0-.6 0-1.1-.2-1.6-.2-.6-.5-1-.9-1.3-.4-.3-.9-.4-1.5-.4s-1 .1-1.5.4c-.3.3-.6.7-.8 1.3a4.6 4.6 0 0 0 0 3.3l.8 1.1c.4.3 1 .5 1.5.5Zm6.2 1V85.4h1.3v4.3h.2c0-.2.2-.4.4-.6.1-.3.4-.5.7-.7l1.4-.2a3.5 3.5 0 0 1 3.2 2c.4.7.5 1.5.5 2.5 0 .9-.1 1.7-.5 2.4-.3.6-.7 1.2-1.3 1.5a3 3 0 0 1-1.9.6c-.6 0-1-.1-1.3-.3l-.8-.6-.4-.6h-.2V97h-1.3Zm1.3-4.4c0 .7.1 1.3.3 1.8.2.5.5.9.9 1.2.3.2.8.4 1.3.4.6 0 1-.2 1.4-.5.4-.3.7-.7.9-1.2.2-.5.3-1 .3-1.7 0-.6-.1-1.1-.3-1.6-.2-.5-.5-1-.9-1.2-.3-.3-.8-.4-1.4-.4a2.2 2.2 0 0 0-2.2 1.5c-.2.5-.3 1-.3 1.7Zm12 4.6c-.8 0-1.5-.2-2-.6-.7-.4-1.1-.9-1.5-1.6-.3-.6-.4-1.4-.4-2.3 0-1 .1-1.7.4-2.4.4-.7.8-1.2 1.4-1.6.6-.4 1.3-.5 2.1-.5s1.5.1 2 .5c.7.4 1.1 1 1.5 1.6.3.7.5 1.5.5 2.4 0 .9-.2 1.7-.5 2.3-.4.7-.8 1.2-1.4 1.6-.6.4-1.3.6-2 .6Zm0-1.2c.6 0 1.1-.2 1.5-.5.4-.3.7-.7.8-1.2a4.7 4.7 0 0 0 0-3.3 2 2 0 0 0-.8-1.2c-.4-.3-.9-.4-1.5-.4s-1 .1-1.5.4c-.4.3-.6.7-.8 1.3a4.6 4.6 0 0 0 0 3.3c.2.4.4.8.8 1.1.4.3 1 .5 1.5.5Zm9.8-7.7v1.1h-4.5v-1.1h4.5ZM69 86.2h1.3v8.3c0 .4 0 .7.2.9l.4.3.6.1h.6l.3 1.2a2.7 2.7 0 0 1-1 .1c-.4 0-.8 0-1.2-.2-.3-.2-.6-.4-.8-.8-.3-.3-.4-.7-.4-1.2v-8.7Z"/>
  </mask>
  <path fill="#000" d="M29.4 97V85.4h4c.9 0 1.6.1 2.2.4a3.3 3.3 0 0 1 1.7 3.1 4 4 0 0 1-.4 1.9 3 3 0 0 1-1.3 1.2c-.6.3-1.3.5-2.2.5h-3.2v-1.3h3.1c.6 0 1.1-.1 1.5-.3.4-.2.7-.4.9-.8l.2-1.2c0-.4 0-.8-.2-1.2-.2-.3-.5-.6-.9-.8-.4-.2-.9-.3-1.5-.3h-2.5V97h-1.4Zm5.5-5.2 2.9 5.2H36l-2.8-5.2h1.6Zm8 5.4c-.8 0-1.5-.2-2-.6-.6-.4-1.1-.9-1.4-1.6-.4-.6-.5-1.4-.5-2.3 0-1 .1-1.7.5-2.4.3-.7.8-1.2 1.3-1.6.6-.4 1.3-.5 2.1-.5s1.5.1 2 .5c.7.4 1.1 1 1.5 1.6.3.7.5 1.5.5 2.4 0 .9-.2 1.7-.5 2.3-.4.7-.8 1.2-1.4 1.6-.6.4-1.3.6-2 .6Zm0-1.2c.6 0 1.1-.2 1.5-.5.4-.3.7-.7.9-1.2l.2-1.6c0-.6 0-1.1-.2-1.6-.2-.6-.5-1-.9-1.3-.4-.3-.9-.4-1.5-.4s-1 .1-1.5.4c-.3.3-.6.7-.8 1.3a4.6 4.6 0 0 0 0 3.3l.8 1.1c.4.3 1 .5 1.5.5Zm6.2 1V85.4h1.3v4.3h.2c0-.2.2-.4.4-.6.1-.3.4-.5.7-.7l1.4-.2a3.5 3.5 0 0 1 3.2 2c.4.7.5 1.5.5 2.5 0 .9-.1 1.7-.5 2.4-.3.6-.7 1.2-1.3 1.5a3 3 0 0 1-1.9.6c-.6 0-1-.1-1.3-.3l-.8-.6-.4-.6h-.2V97h-1.3Zm1.3-4.4c0 .7.1 1.3.3 1.8.2.5.5.9.9 1.2.3.2.8.4 1.3.4.6 0 1-.2 1.4-.5.4-.3.7-.7.9-1.2.2-.5.3-1 .3-1.7 0-.6-.1-1.1-.3-1.6-.2-.5-.5-1-.9-1.2-.3-.3-.8-.4-1.4-.4a2.2 2.2 0 0 0-2.2 1.5c-.2.5-.3 1-.3 1.7Zm12 4.6c-.8 0-1.5-.2-2-.6-.7-.4-1.1-.9-1.5-1.6-.3-.6-.4-1.4-.4-2.3 0-1 .1-1.7.4-2.4.4-.7.8-1.2 1.4-1.6.6-.4 1.3-.5 2.1-.5s1.5.1 2 .5c.7.4 1.1 1 1.5 1.6.3.7.5 1.5.5 2.4 0 .9-.2 1.7-.5 2.3-.4.7-.8 1.2-1.4 1.6-.6.4-1.3.6-2 .6Zm0-1.2c.6 0 1.1-.2 1.5-.5.4-.3.7-.7.8-1.2a4.7 4.7 0 0 0 0-3.3 2 2 0 0 0-.8-1.2c-.4-.3-.9-.4-1.5-.4s-1 .1-1.5.4c-.4.3-.6.7-.8 1.3a4.6 4.6 0 0 0 0 3.3c.2.4.4.8.8 1.1.4.3 1 .5 1.5.5Zm9.8-7.7v1.1h-4.5v-1.1h4.5ZM69 86.2h1.3v8.3c0 .4 0 .7.2.9l.4.3.6.1h.6l.3 1.2a2.7 2.7 0 0 1-1 .1c-.4 0-.8 0-1.2-.2-.3-.2-.6-.4-.8-.8-.3-.3-.4-.7-.4-1.2v-8.7Z"/>
  <path fill="#fff" d="M29.4 97h-2c0 1.1 1 2 2 2v-2Zm0-11.6v-2a2 2 0 0 0-2 2h2Zm6.2.4-1 1.8 1-1.8Zm1.3 1.3-1.8 1 1.8-1Zm0 3.7-1.8-1 1.8 1ZM35.6 92l1 1.8-1-1.8Zm-5.4.5h-2c0 1 .9 2 2 2v-2Zm0-1.3v-2a2 2 0 0 0-2 2h2Zm4.6-.3-.8-1.8.8 1.8Zm.9-.8-1.8-.9 1.8 1Zm-.9-3.2-.9 1.8 1-1.8Zm-4-.3v-2a2 2 0 0 0-2 2h2Zm0 10.4v2a2 2 0 0 0 2-2h-2Zm4-5.2 1.8-1a2 2 0 0 0-1.7-1v2Zm3 5.2v2a2 2 0 0 0 1.7-3l-1.7 1ZM36 97l-1.7 1c.3.6 1 1 1.7 1v-2Zm-2.8-5.2v-2a2 2 0 0 0-1.8 3l1.8-1ZM31.4 97V85.4h-4V97h4Zm-2-9.6h4v-4h-4v4Zm4 0c.6 0 1 0 1.2.2l2-3.5c-1-.5-2.1-.7-3.3-.7v4Zm1.3.2.4.4 3.6-1.8a5 5 0 0 0-2.2-2.1l-1.8 3.5Zm.4.4.2 1h4a6 6 0 0 0-.6-2.8L35 88Zm.2 1c0 .3 0 .6-.2.8l3.6 1.9c.4-.9.6-1.8.6-2.8h-4Zm-.2.8c0 .2-.2.3-.4.4l1.8 3.6a5 5 0 0 0 2.2-2.1L35 89.8Zm-.4.4a3 3 0 0 1-1.3.3v4c1 0 2.2-.2 3.1-.7l-1.8-3.6Zm-1.3.3h-3.2v4h3.2v-4Zm-1.2 2v-1.3h-4v1.3h4Zm-2 .7h3.1v-4h-3.1v4Zm3.1 0c.8 0 1.6-.1 2.4-.5L34 89.1h-.7v4Zm2.4-.5c.7-.3 1.3-.9 1.7-1.7L34 89.2c0-.1.1-.1 0-.1l1.8 3.6Zm1.7-1.6c.4-.7.5-1.5.5-2.2h-4v.3l3.5 1.9Zm.5-2.2c0-.7-.1-1.4-.5-2L34 88.5v.3h4Zm-.5-2c-.3-.9-1-1.4-1.7-1.8L34 88.7a.3.3 0 0 1 0-.1l3.5-1.8ZM35.7 85a5 5 0 0 0-2.4-.5v4h.6l1.8-3.5Zm-2.4-.5h-2.5v4h2.5v-4Zm-4.5 2V97h4V86.6h-4Zm2 8.4h-1.4v4h1.4v-4Zm2.3-2.3L36 98l3.5-2-2.9-5.2-3.5 2Zm4.7 2.3H36v4h1.7v-4Zm0 1-2.7-5.2-3.6 2 2.9 5.1 3.5-1.8Zm-4.5-2.2h1.6v-4h-1.6v4Zm7.5 2.8-1 1.7 1-1.7ZM39.5 95l-1.8 1 1.8-1Zm0-4.7-1.8-.9 1.8.9Zm1.3-1.6-1-1.7 1 1.7Zm4.2 0-1 1.7 1-1.7Zm1.4 1.6-1.8.9 1.8-.9Zm0 4.7-1.8-.8 1.8.8ZM45 96.6 44 95l1 1.7Zm-.6-1L43.2 94l1.2 1.5Zm.9-1.3 1.8.7-1.8-.7Zm0-3.2 1.8-.7-1.8.7Zm-.9-1.3 1.3-1.5-1.3 1.5Zm-3 0-1.2-1.5 1.2 1.5Zm-.8 1.3-1.9-.7 1.9.7Zm0 3.2-1.9.7 1.9-.7Zm.8 1.2 1.3-1.5-1.3 1.5Zm1.5-.3c-.4 0-.7-.1-1-.3l-2.1 3.4c1 .6 2 .9 3.1.9v-4Zm-1-.3c-.2-.1-.5-.4-.6-.7l-3.6 1.7c.5 1 1.2 1.8 2 2.4L42 95Zm-.6-.7c-.2-.4-.3-.9-.3-1.5h-4c0 1.1.2 2.2.7 3.2l3.6-1.7Zm-.3-1.5c0-.7 0-1.2.3-1.5l-3.6-1.8c-.5 1-.7 2.1-.7 3.3h4Zm.3-1.5c.1-.4.4-.6.6-.8L39.8 87c-1 .6-1.7 1.4-2.1 2.4l3.6 1.8Zm.6-.8 1-.2v-4c-1.1 0-2.2.2-3.1.8l2.1 3.4Zm1-.2c.5 0 .8 0 1 .2l2.2-3.4c-1-.6-2-.8-3.2-.8v4Zm1 .2c.3.2.5.4.7.8l3.6-1.8c-.5-1-1.2-1.8-2.1-2.4l-2.2 3.4Zm.7.8c.2.3.3.8.3 1.5h4c0-1.2-.2-2.3-.7-3.3l-3.6 1.8Zm.3 1.5c0 .6-.1 1.1-.3 1.5l3.6 1.7c.5-1 .7-2 .7-3.2h-4Zm-.3 1.5c-.2.3-.4.6-.7.7l2.2 3.4c.9-.6 1.6-1.4 2-2.4l-3.5-1.7Zm-.7.7c-.2.2-.5.3-1 .3v4c1.1 0 2.2-.3 3.2-.9L43.9 95Zm-1 3c1 0 2-.2 2.7-.8L43.2 94h-.3v4Zm2.7-.8c.7-.6 1.2-1.3 1.5-2.1l-3.7-1.4-.2.4 2.4 3Zm1.5-2.1c.3-.7.4-1.5.4-2.3h-4l-.1 1L47 95Zm.4-2.3c0-.8 0-1.6-.4-2.3l-3.7 1.3.1 1h4Zm-.4-2.3c-.3-.9-.8-1.6-1.4-2.1l-2.6 3 .3.4 3.7-1.3Zm-1.4-2.1c-.9-.7-1.8-1-2.8-1v4h.2s0 .1 0 0l2.6-3Zm-2.8-1a4 4 0 0 0-2.7 1l2.5 3c0 .1 0 0 0 0h.2v-4Zm-2.7 1c-.7.5-1.2 1.2-1.5 2l3.8 1.4c0-.2.1-.2.2-.3l-2.5-3.1Zm-1.5 2c-.3.8-.4 1.6-.4 2.4h4c0-.4 0-.7.2-1l-3.8-1.3Zm-.4 2.4c0 .8.1 1.6.4 2.3l3.8-1.4-.2-1h-4Zm.4 2.3c.3.8.8 1.5 1.5 2l2.5-3-.2-.4-3.8 1.4Zm1.5 2c.8.7 1.8 1 2.7 1v-4h-.2l-2.5 3Zm8.9 0h-2c0 1.1.9 2 2 2v-2Zm0-11.6v-2a2 2 0 0 0-2 2h2Zm1.3 0h2a2 2 0 0 0-2-2v2Zm0 4.3h-2c0 1 1 2 2 2v-2Zm.2 0v2a2 2 0 0 0 1.6-1l-1.6-1Zm.4-.6-1.6-1.2L51 89Zm.7-.7 1 1.8-1-1.8Zm3.3.3 1.1-1.7-1 1.7Zm1.3 6.4 1.9.8-1.9-.8ZM55 96.6l1.1 1.7-1-1.7Zm-3.2.3-1 1.7 1-1.7Zm-.8-.6-1.6 1.2 1.6-1.2Zm-.4-.6 1.7-1a2 2 0 0 0-1.7-1v2Zm-.2 0v-2a2 2 0 0 0-2 2h2Zm0 1.3v2a2 2 0 0 0 2-2h-2Zm.3-2.6-1.9.7 2-.7Zm.9 1.2L50.3 97l1.3-1.5Zm2.7 0 1.3 1.5-1.3-1.6Zm.9-1.3-1.9-.7 1.9.7Zm0-3.3-1.9.7 1.9-.7Zm-.9-1.2-1.2 1.6 1.2-1.6Zm-2.8 0 1.2 1.6-1.2-1.6Zm-.8 1.1 1.9.7-1.9-.7Zm.4 6.1V85.4h-4V97h4Zm-2-9.6h1.3v-4h-1.3v4Zm-.7-2v4.3h4v-4.3h-4Zm2 6.3h.2v-4h-.2v4Zm1.8-1 .4-.4-3.2-2.4-.5.7 3.3 2.1Zm.4-.4.1-.1-2-3.5c-.5.3-1 .7-1.3 1.2l3.2 2.4Zm.1-.1h.4v-4c-.8 0-1.6 0-2.4.5l2 3.5Zm.4 0c.4 0 .6 0 .8.2l2.2-3.4c-.9-.6-2-.8-3-.8v4Zm.8.2c.2.1.4.3.6.7l3.6-1.7c-.4-1-1-1.8-2-2.4L54 90.4Zm.6.7c.2.4.3.9.3 1.6h4c0-1.2-.2-2.3-.6-3.3l-3.7 1.7Zm.3 1.6c0 .7-.1 1.2-.3 1.5l3.7 1.7c.4-1 .6-2 .6-3.2h-4Zm-.3 1.5-.6.8 2.2 3.3c1-.6 1.6-1.4 2-2.4l-3.6-1.7Zm-.6.8-.8.2v4c1 0 2.1-.3 3-.9L54 95Zm-.8.2h-.3c-.1 0-.1 0 0 0l-2 3.5c.7.4 1.6.5 2.3.5v-4Zm-.4 0-.1-.2-3.2 2.5c.4.5.9.9 1.4 1.1l2-3.4Zm-.1-.1-.3-.5-3.4 2.1.5.8 3.2-2.4Zm-2-1.4h-.2v4h.2v-4Zm-2.2 2V97h4v-1.3h-4Zm2-.7h-1.3v4h1.3v-4Zm-2-2.4c0 .9.1 1.7.4 2.5l3.8-1.4-.2-1h-4Zm.4 2.5a5 5 0 0 0 1.5 2l2.5-3.1-.2-.3-3.8 1.4Zm1.6 2c.7.6 1.6.9 2.5.9v-4h-.1l-2.4 3.2Zm2.5.9c1 0 1.9-.3 2.7-.9L53 94h-.2v4Zm2.7-.9c.7-.5 1.1-1.3 1.5-2l-3.8-1.5-.2.4 2.5 3.1Zm1.4-2a7 7 0 0 0 .5-2.5h-4l-.2 1L57 95Zm.5-2.5c0-.8-.2-1.6-.4-2.3l-3.8 1.4.2 1h4Zm-.4-2.3c-.3-.8-.8-1.5-1.6-2l-2.4 3 .2.4 3.8-1.4Zm-1.5-2c-.8-.7-1.8-1-2.7-1v4h.2l2.5-3Zm-2.7-1c-.9 0-1.8.3-2.5.9l2.3 3.2h.2v-4Zm-2.5.9c-.8.5-1.3 1.2-1.6 2l3.8 1.4.1-.2-2.3-3.2Zm-1.6 2c-.3.8-.4 1.6-.4 2.4h4c0-.4 0-.7.2-1l-3.8-1.4Zm11.5 6.4-1 1.7 1-1.7ZM59 95l-1.8 1 1.8-1Zm0-4.7-1.7-.9 1.7.9Zm1.4-1.6-1-1.7 1 1.7Zm4.2 0-1.1 1.7 1-1.7Zm1.4 1.6-1.8.9 1.8-.9Zm0 4.7-1.8-.8 1.8.8Zm-1.4 1.6-1-1.7h-.1l1 1.7Zm-.6-1L62.6 94l1.3 1.5Zm.8-1.3 2 .7-2-.7Zm0-3.2 2-.7-2 .7Zm-.8-1.3 1.2-1.5-1.2 1.5Zm-3 0-1.2-1.5 1.2 1.5Zm-.8 1.3-2-.7 2 .7Zm0 3.2-1.9.7 1.9-.7Zm.8 1.2 1.3-1.5-1.3 1.5Zm1.5-.3c-.5 0-.8-.1-1-.3l-2.1 3.4c1 .6 2 .9 3.1.9v-4Zm-1-.3c-.3-.1-.5-.4-.7-.7l-3.5 1.7c.4 1 1.1 1.8 2 2.4l2.2-3.4Zm-.7-.7-.2-1.5h-4c0 1.1.2 2.2.6 3.2l3.6-1.7Zm-.2-1.5c0-.7 0-1.2.2-1.5l-3.6-1.8c-.4 1-.6 2.1-.6 3.3h4Zm.2-1.5c.2-.4.4-.6.7-.8L59.3 87c-1 .6-1.7 1.4-2.1 2.4l3.5 1.8Zm.7-.8 1-.2v-4c-1.1 0-2.2.2-3.1.8l2.1 3.4Zm1-.2c.5 0 .8 0 1 .2l2.1-3.4c-1-.6-2-.8-3-.8v4Zm1 .2c.3.2.5.4.7.8l3.6-1.8c-.5-1-1.2-1.8-2.2-2.4l-2 3.4Zm.7.8c.1.3.3.8.3 1.5h4c0-1.2-.3-2.3-.7-3.3L64 91.2Zm.3 1.5c0 .6-.2 1.1-.3 1.5l3.6 1.7c.4-1 .7-2 .7-3.2h-4Zm-.3 1.5c-.2.3-.4.6-.7.7l2.1 3.4c1-.6 1.7-1.4 2.2-2.4L64 94.2Zm-.7.7c-.2.2-.5.3-1 .3v4c1.1 0 2.2-.3 3.1-.9L63.4 95Zm-1 3c1 0 2-.2 2.7-.8L62.6 94h-.2v4Zm2.7-.8c.7-.6 1.2-1.3 1.5-2.1L63 93.6l-.3.4 2.5 3Zm1.5-2.1c.3-.7.4-1.5.4-2.3h-4l-.1 1 3.7 1.3Zm.4-2.3c0-.8-.1-1.6-.4-2.3L63 91.7l.1 1h4Zm-.4-2.3a4 4 0 0 0-1.5-2.1l-2.5 3 .3.4 3.7-1.3Zm-1.5-2.1a4 4 0 0 0-2.7-1v4h.2s0 .1 0 0l2.5-3Zm-2.7-1c-1 0-2 .3-2.7 1l2.5 3c0 .1 0 0 0 0h.2v-4Zm-2.7 1c-.7.5-1.2 1.2-1.5 2l3.7 1.4.3-.3-2.5-3.1Zm-1.5 2c-.3.8-.4 1.6-.4 2.4h4l.1-1-3.7-1.3Zm-.4 2.4c0 .8.1 1.6.4 2.3l3.7-1.4-.1-1h-4Zm.4 2.3c.3.8.8 1.5 1.5 2l2.5-3-.3-.4-3.7 1.4Zm1.5 2c.8.7 1.8 1 2.7 1v-4h-.2l-2.5 3Zm12.5-8.7h2a2 2 0 0 0-2-2v2Zm0 1.1v2a2 2 0 0 0 2-2h-2Zm-4.5 0h-2c0 1.1.9 2 2 2v-2Zm0-1.1v-2a2 2 0 0 0-2 2h2Zm1.3-2.1v-2a2 2 0 0 0-2 2h2Zm1.3 0h2a2 2 0 0 0-2-2v2Zm.2 9.2-1.7 1 1.7-1Zm.4.3-.7 1.9.7-1.9Zm1 .1.3 2-.3-2Zm.2 0 2-.5a2 2 0 0 0-2.4-1.5l.4 2Zm.3 1.2.7 1.8a2 2 0 0 0 1.2-2.3l-2 .5Zm-.4 0-.4-1.9.4 2Zm-1.8-.1-.8 1.8.8-1.8Zm-.8-.8-1.7 1.2 1.7-1.2Zm.8-7.8v1.1h4v-1.1h-4Zm2-.9h-4.5v4h4.5v-4Zm-2.5 2v-1.1h-4v1.1h4Zm-2 .9h4.5v-4h-4.5v4Zm1.3-2.1h1.3v-4H69v4Zm-.7-2v8.3h4v-8.3h-4Zm0 8.3c0 .5.1 1.2.5 1.9l3.4-2a1 1 0 0 1 .1.2v-.1h-4Zm.5 1.9c.3.5.8 1 1.4 1.2l1.4-3.7c.2 0 .3 0 .4.2l.2.2-3.4 2.1Zm1.5 1.2c.4.2.8.2 1.2.2v-4l-1.2 3.8Zm1.2.2h.7l-.7-4v4Zm.8 0h.2l-.8-4h-.2l.8 4ZM70 96.2l.3 1.2 4-.9-.4-1.2-3.9.9Zm1.6-1.1h-.1l.8 4 .7-.3-1.4-3.7Zm-.2 0h-.1v4l1-.1-.9-3.9Zm-.1 0H71l-1.7 3.6c.6.3 1.3.4 2 .4v-4Zm-.3 0V95l-3.3 2.3c.5.6 1 1 1.7 1.4l1.7-3.7Zm0-.1h-4c0 .8.2 1.6.7 2.4L71 95Zm0-.1v-8.7h-4v8.7h4Z" mask="url(#b)"/>
</svg>
