<svg xmlns="http://www.w3.org/2000/svg" fill="none" viewBox="0 0 100 103">
  <path fill="#020401" d="M41 76.8c-.5-1-.9-1.3-1.3-1.6 0 0-.5-.7-2.1-1-1-.2-2.1-.3-2.7 0h-.1a1.3 1.3 0 0 0-1.2.5h-.5c-.3-.4-.8-.4-1.1-.6-4.2-.3-8.5-.3-12.7 0-.4 0-.8.2-1 .4l-.6.2a1.3 1.3 0 0 0-1.2-.6h-.2c-.6-.2-1.8-.1-2.7 0-1.6.4-2 1-2 1.1-.4.1-.8.7-1.3 1.6a36 36 0 0 0-3.5 16c-.1 2.1-.1 5.9 2.5 6.5l1.6.6h.3l.3.1c.1 0 .4 0 .6-.3.3-.2 1-1.6 1.9-4.5l.3-.7c.4-1.3 1-3.3 1.7-4 .4-.4.8-.5 1.3-.5H34l1.2.4c.6.8 1.3 2.8 1.7 4l.1.8c1.1 3 1.8 4.3 2 4.5a1 1 0 0 0 1 .3h.1l1.7-.7c2.7-.6 2.7-4.4 2.7-6.5a36 36 0 0 0-3.6-16h.1Z"/>
  <mask id="a" width="48" height="100" x="46" y="0" maskUnits="userSpaceOnUse" style="mask-type:luminance">
    <path fill="#fff" d="M46.7 0h46.9v100h-47V0Z"/>
  </mask>
  <g mask="url(#a)">
    <path fill="#020401" d="M93.3 4.8v-.1l-.1-.2h-.1l-.2-.1h-.8v.1H92l-.4.3-9.9 4.8-5.6-1a159 159 0 0 0-.6-6.5c0-.9-.2-1.7-.7-2h-.7C72.8.4 61.1 9 58.3 11l-1 .7c-2.4 1.7-5.6 4-5.6 7.5-.4 24.5-1.9 49.1-4.2 73.6 0 .6 0 1.2.8 1.3l2.8.5-.7 3c0 .5.4.8 1.3 1.2l1.5.2a93.4 93.4 0 0 0 29.6-.5c1-.4.8-1 .7-1.3v-.6l3.4 1.1h.8l.3-.1.4-.2 2.7-.8V79l-.6-17.2-.6-10.9 1.3-15.6V34l1.7-23.2V10l.2-.7c.1-1.5.4-3.9.2-4.4Z"/>
  </g>
  <path fill="#565A62" fill-opacity=".3" d="M89.3 61h.3l-.8 29.8-.7.1.7-18.1.5-11.7Zm3.9-56.2v-.1h-.3s0-.2-.1 0h-.3l.3.4V6l-2.5 29.9-1.9 23.4-1.3 38.2h.6v-.8L88 91l1.2-30.2v-1.7l.5-8.4 2.7-35.2.3-2.7v-.2l.1-1.9v-1l.1-.7.3-4.3Z"/>
  <path fill="#32383F" d="M76.3 99c.5 0 5.8-.5 7.2-1.4 0 .3-.3.5-.7.8a112.8 112.8 0 0 1-31 0l-.9-.5c8.4 1.3 17 1.6 25.4 1Zm7.2-1.7-.4-.5a1 1 0 0 0-.6-.4h-1.3v.3c0 .4 0 .8-.5 1v.2h-.2l-.1.1H80l-.1.1H79c-1.5 0-13.4-1.4-13.5-1.4 0 0-3.2-.4-7.6-1.6-2-.6-4-1.5-5.7-2.7l-.4-.3v.3l-.2.5-.1.3-.1.7-.2.4v.1l-.5 3.2c.5.3 1.9.7 5 1 6.3.6 12.6.6 20.5.2 2.2-.3 6.4-.7 7.2-1.3v-.2ZM53 92.8c.8.7 2.4 1.3 4.9 2.1l5.5 1.4.1-.2.1-.1-9-4-1.8-.7h-.1l-.4.6c0 .1 0 .4.3.6l.4.3Zm33.3-18-.5 14.5v6.2l-.4.5h-.8l-1.5.3h-2v-.7c0-4.3-.4-20-1.2-35v-1.9l-.1-.8V56l-.2-.3v-1.4l-.1-.4v-2l-.1-.6v-.2l-.2-1-1.7-22.4-1-12.9v-1.7c-.2-1-.2-2-.3-3.1 0-.4 0-1.2.4-1.2h1l4 .8.8.3.8.1.4.1.2.2c2.4 1.2 3.7 4 4 9 .5 4.4-.8 36.3-1.5 55.4v.1Zm-3.7-23.7v3.6H84v-3.4l-1.3-.2ZM84 90.5c0-.2 0-.4-.3-.5v.5a.4.4 0 1 1-.6-.4c0-.1 0-.1 0 0a.7.7 0 1 0 .9.4Zm-1-5.3.3 3.6s.3 0 .3-.3v-3.2s0-.2-.3-.4c0 0-.2 0-.2.3Zm.2-2.7.1.3s.3 0 .3-.3v-2s0-.2-.3-.2l-.1.2v2Zm.3 8v-.8h-.2v.7l.2.1ZM15.3 74l-1.6.1a4 4 0 0 0-1.8.8c1.3-.4 2.6-.7 4-.9h-.6Zm22.3.1c-1-.1-1.9-.2-2.3 0 1.4 0 3.2.6 4.2.8-.3-.1-.8-.5-1.9-.8ZM23.3 85.3c0 1.9-1.6 3.4-3.4 3.4a3.3 3.3 0 0 1-3.5-3.4c0-1.7 1.5-3.2 3.5-3.2 1.8 0 3.4 1.4 3.4 3.2Zm-1-.5c0-1.3-.8-2.3-2-2.4h-.8a2.3 2.3 0 0 0-2.2 2.4 2.5 2.5 0 0 0 5 0Zm11.3-.3c0 1.1-1 2-2.1 2-1.2 0-2.2-.9-2.2-2a2 2 0 0 1 1.8-2h.8a2 2 0 0 1 1.7 2Zm-.8-.2a1.3 1.3 0 1 0-2.7 0 1.3 1.3 0 0 0 2.7 0Zm-1.3 2.4a2.2 2.2 0 0 1-2.3-2.2v-.2.5a2.3 2.3 0 0 0 4.5-.5v.2c0 1.1-1 2.2-2.2 2.2Zm10 12.5-1.4.4h-.4l-.4-.4v-.3l-.2-.4-1.8-5-.1-.4-.4-.7-.4-.8a4 4 0 0 0-1.2-1.5c-.3-.2-.8-.4-1.3-.4H17.3c-.8 0-1.4.6-2 1.2l-.5.7-.1.4-.2.4-.4.7v.2l-.1.2-2 5-.1.6v.2l-.4.4h-.3l-1.3-.4v-.1h.1v-.1h.1v-.2l.2-.1v-.3l.1-.1v-.3h.3V98l.1-.3v-.4h.1V97l.4-1c.7-2.8 2.2-7.5 5.2-12l1.1-1.4c.5-.5 1.2-1.3 1.3-2 .3.7.8 1.4 1.9 1.5h10c1 0 1.6-.8 1.9-1.5 0 .8.6 1.4 1.3 2.2l1 1.2a40.7 40.7 0 0 1 5.7 13.6v.2h.1v.6l.1.1v.3l.2.1.1.1v.2l.1.1h.2v.1h.1l-.1-.1ZM26 82.5l.3.2.1-.2-.1-.2-.3.2Zm-.3.6.2.2.2-.2-.2-.2-.2.2Zm-.4-.4.3.1.1-.1-.1-.3-.3.3Zm-.2.5a.2.2 0 1 0 .4 0 .2.2 0 0 0-.4 0Zm-.4-.5.2.1.2-.1-.2-.3-.2.3Zm-1.4 2.9c0-1.9-1.4-3.3-3.4-3.3a3.5 3.5 0 0 0-3.6 3.3c0 1.9 1.6 3.5 3.6 3.5s3.6-1.6 3.6-3.5h-.2Zm1.1-3s0-.2-.3-.2l-.1.3.1.1.3-.1Zm.1.9a.2.2 0 1 0 0-.4.2.2 0 0 0 0 .4Zm2 4c0-.3 0-.4-.2-.4h-1.4c-.2 0-.4.1-.4.4 0 0 0 .2.3.2h1.5l.2-.2Zm.3-4.3-.3-.1a.2.2 0 1 0 0 .4l.3-.3Zm.4-.5-.3-.3-.1.3.1.1.3-.1Zm7.9 2.9c0-1.9-1.6-3.3-3.6-3.3a3.5 3.5 0 0 0-3.6 3.3c0 1.9 1.6 3.5 3.6 3.5s3.6-1.6 3.6-3.5Zm-15.2 1.3c-1.4 0-2.3-1-2.3-2.1v-.3.6a2.3 2.3 0 0 0 4.5-.6v.3c0 1-1 2.1-2.2 2.1Zm15-1.3c0 1.9-1.6 3.3-3.4 3.3a3.5 3.5 0 0 1-3.5-3.3c0-1.7 1.6-3.2 3.5-3.2 1.8 0 3.4 1.3 3.4 3.2Zm-1-.5c0-1.4-.8-2.3-2-2.4H31c-1.2.1-2 1.2-2 2.4a2.4 2.4 0 0 0 4.8 0Zm-2.4-1.8a1.3 1.3 0 1 0-.9 2.6 1.3 1.3 0 0 0 .9-2.6ZM22 84.7c0 1.2-1 2.1-2.1 2.1-1.4 0-2.2-1-2.2-2s.7-1.9 1.6-2h.8a2 2 0 0 1 1.9 2v-.1Zm-.8 0a1.3 1.3 0 1 0-2.7 0 1.3 1.3 0 0 0 2.7 0Zm-1.3-1.4A1.3 1.3 0 1 0 19 86a1.3 1.3 0 0 0 .9-2.6ZM18 76l.1.9.3 1 .3 2.2c.1.8.6 1.9 1.8 1.9h10.2c1.3 0 1.7-1.1 1.8-1.9 0-.4 0-1 .3-1.3v-1.1h.1l.3-1.5v-.4l.3-.8h-.2v.2l-.8 3.6-.1 1-.1.6c-.3.5-.7 1-1.9 1.2l-10.3-.3c-.6-.3-.8-.8-.9-1.3l-1-4.8V75H18l.2.8-.1.2Zm8.3 11.3h-1.4c-.2 0-.2 0-.2.3l.1.1h1.5l.1-.1-.1-.3Z"/>
  <path fill="#E3E7EF" d="m88.3 59.3-1.4 38.2-3.6-1.1v-.1l2-.3c.6-.1.6-1.7.6-4.8v-2l.5-14.4c.7-19 2-51 1.6-55.3-.3-4.7-1.3-7.5-3.5-8.8L84 10l8.6-4c-1.3 17.8-2.7 35.5-4.2 53.2ZM90.9 79l-.5-17.2-.4-7.6c0 .6-.3 1-.4 1.4l-.3 3.7V61h.4v.2L89 90.9l-.8.2-.2 4.2c0 .6.2 1.6.5 1.6l1.3-.1 1.4-.3-.3-14.8v-2.6l.1-.2ZM54.7 92l-1.8-.7h-.1l-.4.6c0 .1 0 .4.3.6l.4.3c.8.7 2.4 1.3 4.9 2.1l5.5 1.4.1-.2.1-.1-9-4Zm34.6-31-.5 11.8-.7 18.1h.7l.8-29.7-.3-.1Zm-5.8-9.5h-.3V54h.3v-2.6ZM81 96.3v-.8c0-4.6-.4-20.3-1.2-35v-2l-.2-.8v-1.2l-.1-.6V54l-.1-.4v-1.4l-.2-.3v-1l-.1-.9-1.7-22.4v-1.3l-.2-.3-.9-11.2v-1.6L76 9.7V8.5l-.5-5.3v-1l-.3-.9C72.5 2.7 62.2 10.1 60 12c-2.7 1.9-6.7 4.1-6.7 8-.4 24.7-1.7 49.4-4 74h.6c.5.1 1.2.3 1.3-.3.3-.2.3-.6.4-.9l.4-1 .3-.3.5-.3h.1c.3 0 11 4.8 12.8 5.3h.4L79.2 98c.7 0 1.3 0 1.6-.3l.1-.2v-.2h.2v-.2l.1-.4v-.4h-.1ZM92.7 6l-2.4 29.9-1.9 23.4-1.3 38.2h.6v-.8L88 91l1.2-30.2v-1.7l.5-8.4 2.7-35.2.3-2.7v-.2l.1-1.9v-1l.1-.7.3-3.1h-.5ZM15.3 91.2l-.1.3-.3.4-.1.4-.3.2v.4l-.2.3v.4H14l-1.8 5-.2.6v.1l-.1.2v.1h-.1v.1h.1c.3-.4 1-1.7 1.9-4.5l.2-.8c.3-1 .8-2.7 1.4-3.6l-.2.4Zm24 8.4v-.3l-.1-.1-.3-.5-1.7-5.1-.1-.3-.2-.4-.2-.4v-.2h-.2l-.1-.4-.3-.4-.2-.3-.3-.4 1.3 3.6.3.8c1 2.8 1.6 4.1 2 4.4l.3.3v-.3h-.2Zm-6.4-22 .3-1.5v-.4l.3-.8h-.2v.2l-.8 3.6-.1 1-.1.6c-.3.5-.7 1-1.9 1.2l-10.3-.3c-.6-.3-.8-.8-.9-1.3l-1-4.8v-.2H18l.2.8.2 1 .2.9.2 2.4c.1.8.6 1.9 1.8 1.9h10.2c1.3 0 1.7-1.1 1.8-1.9 0-.4 0-1 .3-1.3v-1.1h.1Zm-6.6 9.5h-1.4c-.2 0-.2 0-.2.2l.1.2h1.5l.1-.2-.1-.2Zm-11.5-5.5v1.3l-.3.2h-1.3a.4.4 0 0 1-.3-.4v-1.1l.2-.3.5-.5h.5l.6.5.1.3Zm-.7.5h-.5l.3.3.2-.3Zm-3-1v-1.6a.4.4 0 0 1 .2-.3h1.1l.3.1.5.6v.5l-.5.5-.3.2h-1.3Zm.5-1 .3.3V80l-.3.1Zm1.3-1.3v-1.5h1.8a.4.4 0 0 1 .4.3l-.2 1.2v.1l-.6.6h-.6l-.5-.6v-.1h-.3Zm.7-.7h.5L14 78l-.3.2Zm3-2.6v1a.4.4 0 0 0 .3.4h.2a.4.4 0 0 0 .4-.5l-.2-.4v-.3l-.4-.2-.4.1v-.1Zm0 3.8.2.3v1.5h-1.7l-.6-.7a.4.4 0 0 1 0-.5l.6-.6h.2l.8-.1h.6v.1Zm-.5.8L16 80v.5l.1-.4Zm1.9-3.3c0 1 .4 2.7.7 3.7-.2.8-.7 1.4-1.4 2l-1 1.2c-3.5 5.4-4.8 10.7-5.5 13.2-.3 1-.7 2.4-1.3 2.3-2.7-.7-2.7-4.7-2.7-6.4l.1-1.3c.6-7 1.8-10.3 3.5-13.8.4-.8.8-1.3 1.2-1.4 1.7-.6 3.4-1 5.2-1.1-.3 0-.5.3-.4.7v.8a.5.5 0 0 0 .5.4h.2c.2 0 .2-.2.4-.3v-1.2l-.2-.1c.4.4.6.8.7 1.3Zm-5.3.8.1 1.2.1.3.7.5a.5.5 0 0 0 .7 0l.5-.5.1-.3v-1.5l-.4-.2h-1.3s-.3 0-.3.2l-.1.3h-.1Zm-1.9 3.2c0 .1 0 .3.3.4h1.4l.3-.1.5-.6V80l-.5-.6-.3-.2H11v.5l-.1 1.2Zm4.3 1.9v-1.1l-.4-.3-.6-.5a.5.5 0 0 0-.6 0l-.7.5v.3l-.1 1v.5l.4.1h1.6v-.1l.2-.4h.2Zm1.8-3.1-.1-.4-.4-.1h-1c-.2 0-.3 0-.5.2l-.5.6v.6l.5.6.4.1h1.5l.1-.4v-1.2Zm19.6 3a1 1 0 1 1 2.2 0 1 1 0 0 1-2.2 0Zm1 0-.4.6.5-.4.5.5c.2 0 .2-.1 0-.1l-.4-.5.6-.6-.7.4-.5-.5v.1l.4.6Zm2.9-2a.7.7 0 1 0 0-1.3.7.7 0 0 0 0 1.4Zm4 12c0 1.8 0 5.8-2.7 6.5-.5 0-.9-1.4-1.2-2.3-.6-2.7-2-8-5.6-13.2l-.9-1.3c-.7-.6-1.3-1.1-1.3-1.9l.6-3.7c0-.6.3-1 .6-1.4v.2l-.2.8c0 .2 0 .5.4.6h.3a.5.5 0 0 0 .4-.4l.1-.8c0-.4 0-.6-.4-.6h.3c1.2 0 4 .8 5 1 .2.2.7.7 1.1 1.5 2.4 4.7 3.6 9.8 3.5 15ZM39.1 80a1.3 1.3 0 1 0 2.6 0 1.3 1.3 0 0 0-2.6 0Zm-2.7-2.7a1.3 1.3 0 1 0 2.5 0 1.3 1.3 0 1 0-2.6 0h.1Zm-.7 3.6a1.3 1.3 0 0 0-.6-2.1h-.4a1.3 1.3 0 1 0 .9 2.1h.1Zm.8 2.4a1.3 1.3 0 1 0-.1-.6l.1.6Zm2.7-3.3c0-.7.5-1.2 1.2-1.2a1 1 0 1 1-1.2 1.2Zm.4 0c0 .4.3.8.8.8.4 0 .8-.4.8-.8a.8.8 0 1 0-1.6 0Zm-3-2.7a1 1 0 1 1 2 0 1 1 0 0 1-2 0Zm.3.4h1.4l-.6-1.3h-.1l-.7 1.3Zm.7-1-.5.9h1l-.5-1ZM36 80a1 1 0 1 1-2.1 0 1 1 0 0 1 2.1 0Zm-.5 0v-.5h-1.2v1h1.2V80ZM34 77h.3l.3-.4v-.8c.1 0 0-.1 0-.2l-.2-.2c-.2 0-.4 0-.5.3v.3l-.1.5c0 .3 0 .4.2.5Zm.3 2.7v1h1v-1h-1Zm-15.2.1c0 .3 0 .6.3.8.2.4.6.7 1.4.8h9.4c1 0 1.3-.5 1.6-.9l.2-.7.8-4.1a77 77 0 0 0-13.6-.4c-.2 0-.6 0-.9.4l.8 4.1Z"/>
  <path fill="#fff" d="m92.4 4.8.3.3V6L84 10.1c-.4 0-.7-.2-1-.4-.6-.1 0-.4.2-.6l1-.4 7.4-3.8.4-.2h.4v.1ZM74.8.3h-.7c-1.3.2-13 8.8-15.7 10.6l-1 .8c-2.5 1.8-5.5 4-5.5 7.4-.5 24.5-2 49.1-4.3 73.6 0 .6 0 1 .8 1.3h.8v-.5c2.3-24.5 3.7-49 4.1-73.5 0-3.7 4-6 6.6-8C62 10.3 72.5 2.8 75 1.3c0-.4-.2-.8-.4-.9l.1-.1Zm18.4 4.5v-.1h-.3s0-.2-.1 0h-.3l.3.4V6h.4V4.8ZM18.7 79.2l-.3-1v-.6l-.1-.5-.3-1.5v-.3l-.1-.1v-.1l-.2-.2a1 1 0 0 0-1-.6h-1.4l-.4.1h-.1l-.3.1H14l-.1.2h-.3l-.4.1-1.7.5a4 4 0 0 0-1.2 1.5 34 34 0 0 0-3.5 14.7c.5-7 1.7-10.3 3.5-13.8.4-.8.8-1.3 1.2-1.4 1.6-.6 3.4-1 5.2-1.1.2 0 .4 0 .5.3.4.4.5.8.7 1.3 0 1 .4 2.7.6 3.7V80l-.1-.8h.3Zm21-3.9-1.3-.4h-.3l-.2-.1-1-.3h-.6l-.2-.1h-.9v-.1h-.5c-.6 0-1 .1-1.1.6l-.1.2v.1l-.2.3v.6l-.1.4-.1.6-.2.5-.4 2.4v.5l.7-3.7c0-.5.3-1 .5-1.3.2-.3.4-.3.7-.3h.3c1.2 0 4 .8 4.9 1 .3.2.8.7 1.2 1.5a31 31 0 0 1 3.3 13.8 33.3 33.3 0 0 0-3.4-14.7c-.4-.8-.8-1.3-1.2-1.5h.2Zm-6.6-.2v-.4c-.3-.3-.7-.3-1-.4-4.2-.4-8.4-.4-12.6 0-.3 0-.8.1-1 .4v.1l-.1.1v.7l1-.4c4.3-.3 8.5-.3 12.7 0 .2 0 .7 0 1 .4v-.5Z"/>
  <mask id="b" width="88" height="100" x="6" y="0" maskUnits="userSpaceOnUse" style="mask-type:luminance">
    <path fill="#fff" d="M6.7 0h86.9v100h-87V0Z"/>
  </mask>
  <g mask="url(#b)">
    <path fill="#020401" d="M93.3 4.8v-.1l-.1-.2h-.1l-.2-.1h-.8v.1H92l-.4.3-9.9 4.8-5.6-1a159 159 0 0 0-.6-6.5c0-.9-.2-1.7-.7-2h-.7C72.8.4 61.1 9 58.3 11l-1 .7c-2.4 1.7-5.6 4-5.6 7.5-.4 24.5-1.9 49.1-4.2 73.6 0 .6 0 1.2.8 1.3l2.8.5-.7 3c0 .5.4.8 1.3 1.2l1.5.2a93.4 93.4 0 0 0 29.6-.5c1-.4.8-1 .7-1.3v-.6l3.4 1.1h.8l.3-.1.4-.2 2.7-.8V79l-.6-17.2-.6-10.9 1.3-15.6V34l1.7-23.2V10l.2-.7c.1-1.5.4-3.9.2-4.4Zm-2.9 57 .4 17.3v2.6l.1 14.7-1 .4c-.6 0-1.1.3-1.4.1-.4 0-.5-1-.6-1.6l.2-4.2h.8v-.2l.8-29.8-.4-.2v-1.7l.3-3.7.4-1.4.4 7.6Zm-7 34.6v-.1l2-.3c.5-.1.5-1.7.5-4.8v-2l.5-14.4c.7-19 2-51 1.6-55.3-.3-4.7-1.3-7.5-3.5-8.8a5 5 0 0 0-1.6-1c-.5-.1 0-.4.3-.6l1-.4 7.4-3.8.4-.2h.4l.3.4V6l-4.4 53.3-1.4 38.2-3.6-1.1Zm-.6 2a112.8 112.8 0 0 1-31 0l-.9-.5c10.8 1.5 21.8 1.5 32.6-.2l-.7.7Zm-31.6-4.1.3-.4.1-.7v-.3l.1-.2v-.3l.2-.1V92l.4.3.5.4c4 2 8.3 3.3 12.8 3.8L79.1 98h1l.3-.1h.1l.2-.3c.4-.3.5-.7.5-1v-.3h1.3l.6.4.4.5v.1c-.8.7-5 1.1-7.2 1.4-6.9.4-13.7.3-20.6-.3-3-.3-4.4-.7-4.9-1v-.9l.4-2.2Zm-2-.3h-.8c-.8-.3-.8-.7-.8-1.3 2.3-24.5 3.8-49 4.3-73.6 0-3.4 3-5.6 5.6-7.4l.9-.6A168 168 0 0 1 74.1.3h.7c.3.1.4.5.4 1l.1.8.2 1.1.5 6.7.4 3.4V15l1 11.2v1.6l1.8 22.4v1.2l.1.7v1.2l.2.5v1.9l.1.3v1.8l.1.8v1.1l.2 1c.8 14.6 1 30.3 1.2 34.9v1.7h-.2v.3l-.2.2c-.4.3-1 .4-1.6.3-1.4 0-11.2-1.3-13.1-1.3l-.4-.2c-1.9-.5-12.5-5.3-12.7-5.3h-.2l-.6.3-.2.2v.2l-.4.9-.3 1c-.3.5-1 .3-1.3.3h-.7V94Zm3.9-1.3-.4-.2a1 1 0 0 1-.3-.6c0-.3.3-.4.4-.6l1.9.7.2.1.4.3 8.3 3.7h-.1a22 22 0 0 1-5.4-1.3c-1.7-.4-3.5-1-5-2v-.1ZM81.6 9.9l1 .2.7.2.4.1.2.1c2.4 1.2 3.7 4 4 9.1.5 4.4-.8 36.3-1.5 55.3l-.5 14.4v6l-.4.7h-.8c-.2-8.8-.7-27-1.8-41v-.3H84v-3.4h-1.2V54l-3.2-41.4v-1.8l-.4-1.4c.8 0 1.6.3 2.3.4l.1.2Zm1.5 44.5v-2.7h.4v2.7H83Zm6.2 6.7.3.2-.8 29.6-.7.2.7-18.2.5-11.8ZM93 10v.7h-.1l-.1 2.4-.3 2.4v.2l-2.7 35.1-.5 8.4v2.3L87.9 91l-.2 5.6v.8H87l1.5-38.2L90.3 36l2.2-31.4h.6v.2h.1V6c0 1.3-.1 2.5-.3 3.8v.1ZM24.4 82.5l-.3.2-.1-.2.1-.2.3.2Zm.3 0c0-.1 0-.2.2-.2l.2.2-.2.2-.2-.2Zm.6 0c0-.1 0-.2.3-.2l.1.2-.1.2-.3-.2Zm.7 0 .3-.2.1.2-.1.2-.3-.2Zm1.2 0-.3.2-.1-.2.1-.2.3.2Zm-2.7.8a.2.2 0 1 1 0-.4.2.2 0 0 1 0 .4Zm.6-.2a.2.2 0 1 1 .4 0 .2.2 0 0 1-.4 0Zm.6 0 .2-.2.2.2s0 .2-.2.2l-.2-.2Zm1.1 0s0 .2-.3.2a.2.2 0 0 1 0-.4l.3.2Zm-11.9-1.5-.1-.3-.5-.5a.5.5 0 0 0-.7 0l-.7.5v.3l-.1 1v.5l.4.1h1.6v-.1l.3-.4-.2-1.1Zm-.1 1.3-.3.2h-1.3a.4.4 0 0 1-.3-.4v-1.1l.2-.3.5-.5h.5l.6.5.1.3v1.3Zm-1.9-3.8.7.5a.5.5 0 0 0 .7 0l.5-.5.1-.3v-1.5l-.4-.2h-1.3s-.3 0-.3.2l-.1.3v1.2l.1.3Zm0-1.8h1.8a.4.4 0 0 1 .4.3l-.2 1.2v.1l-.6.6h-.6l-.5-.6v-.1l-.1-1.2v-.3h-.2Zm-1.6 4h1.2l.3-.2.5-.6V80l-.5-.6-.3-.2H11v2.2h.4Zm-.4-1.7a.4.4 0 0 1 .4-.4h1.1l.3.1.5.6v.5l-.5.5-.3.2h-1.3v-.3l-.2-1.2Zm3.5.3v.6l.5.6.4.1h1.5l.1-.4v-1.3l-.1-.3-.4-.1h-1c-.2 0-.3 0-.5.2l-.5.6Zm1-.7h1.3l.1.4v1.5h-1.7l-.6-.7a.4.4 0 0 1 0-.5l.6-.6h.2v-.1Zm22.2-3a1.3 1.3 0 1 0 0 2.6 1.3 1.3 0 0 0 0-2.7v.2Zm0 2.5a1.1 1.1 0 1 1 0-2.3 1.1 1.1 0 0 1 0 2.3Zm-1.9 2.1a1 1 0 1 1-1.9-1 1 1 0 0 1 2 1Zm1.9.7a1.3 1.3 0 0 0-1.3 1.3l.2.7a1.3 1.3 0 1 0 1.1-2Zm0 2.4a1 1 0 1 1 0-2.2 1 1 0 0 1 0 2.2Zm2.7-5.1a1.3 1.3 0 0 0-.8 2.3 1.3 1.3 0 0 0 2.2-1c0-.6-.6-1.3-1.3-1.3h-.1Zm0 2.4a1 1 0 0 1-1.1-1c0-.7.5-1.3 1.2-1.3a1.1 1.1 0 0 1 0 2.3h-.1Zm-2.7-4.5-.7 1v.2h1.4l-.7-1.2Zm-.5 1 .5-.9.5 1h-1Zm-1.6 1.8h-1.2v1.3h1.2v-1.3Zm-.2 1.2h-.9v-1.1h1v1Zm3 1.6-.6.5.6.5-.7-.4-.5.6v-.2l.4-.5-.4-.5.5.4.5-.6c.2 0 .2 0 0 .2h.2Zm2.1-3c-.5 0-.8.4-.8.8s.3.8.8.8c.4 0 .8-.4.8-.8 0-.5-.4-.8-.8-.8Zm0 1.4a.7.7 0 1 1 0-1.4.7.7 0 0 1 0 1.4ZM34.1 77h.3a.5.5 0 0 0 .4-.4l.1-.8c0-.4 0-.7-.4-.7-.2 0-.5 0-.5.3v.1l-.3.8c0 .3 0 .5.4.7Zm-.2-.7V76l.1-.3a.4.4 0 0 1 .7 0s.1 0 0 .2v.8a.4.4 0 0 1-.3.4h-.3a.4.4 0 0 1-.2-.6v-.1Zm-17.4.3a.5.5 0 0 0 .4.4h.2c.2 0 .2-.2.4-.3v-1.2l-.2-.1c0-.3-.4-.3-.5-.3-.3 0-.5.3-.4.7l.1.8Zm0-1.2.3-.2c.3 0 .4 0 .4.3v.3l.3.5v.4h-.6c-.1 0-.2 0-.2-.3l-.2-.8v-.2ZM13.6 82h.5l-.2.3-.3-.3Zm.5-4h-.5l.3-.2.2.2ZM12 80.4l-.3-.3.3-.2v.5Zm4.3-.3-.3.3V80l.3.1ZM41 76.8c-.4-1-.8-1.3-1.2-1.6 0 0-.6-.7-2.2-1-.9-.2-2.1-.3-2.6 0h-.2a1.3 1.3 0 0 0-1.2.5h-.5c-.3-.4-.8-.4-1-.6-4.3-.3-8.5-.3-12.7 0-.4 0-.8.2-1.1.4l-.5.2a1.3 1.3 0 0 0-1.2-.6h-.3a8 8 0 0 0-2.7 0c-1.6.4-2 1-2 1.1-.4.1-.8.7-1.3 1.6a36 36 0 0 0-3.5 16c-.2 2.1-.2 5.9 2.4 6.5l1.6.6h.3l.3.1c.1 0 .4 0 .6-.3.3-.2 1-1.6 1.9-4.5l.3-.7c.4-1.3 1-3.3 1.7-4 .4-.4.8-.5 1.3-.5H34l1.2.4c.6.8 1.3 2.8 1.7 4l.1.8c1.1 3 1.8 4.3 2 4.5a1 1 0 0 0 1 .3h.1l1.7-.7c2.7-.6 2.7-4.4 2.7-6.5a36 36 0 0 0-3.6-16h.3Zm.5 22.5-1.3.4h-.6l-.4-.4v-.2l-.2-.4-1.8-5.1-.1-.4-.4-.7-.4-.8a8 8 0 0 0-.7-1l-.5-.4c-.3-.3-.8-.4-1.3-.4H17.3a2 2 0 0 0-1.3.4l-.4.4-.3.4-.5.6-.1.4-.2.4-.4.7v.3l-.1.1-2 5-.1.5v.2l-.4.4h-.3l-1.3-.4v-.1h.1v-.1h.1v-.2l.2-.1v-.3l.1-.1v-.3h.3V98l.1-.3v-.4h.1V97l.4-1c.7-2.8 2.2-7.5 5.2-12l1.1-1.4c.5-.5 1.2-1.3 1.3-2 .3.7.8 1.4 1.9 1.5h10c1 0 1.6-.8 1.9-1.5 0 .8.6 1.4 1.3 2.2l1 1.2a40.7 40.7 0 0 1 5.7 13.6v.2h.1v.6l.1.1v.3l.2.1.1.1v.2l.1.1h.2v.1h.1Zm-2 .6-.3-.3c-.4-.3-.9-1.6-2-4.4l-.1-.8c-.3-1.1-.7-2.2-1.2-3.2l.3.3.1.4.3.4.1.2.1.4.3.3v.4c.7 1.3 1.3 3.6 1.9 5l.2.6v.3l.2.1.1.3Zm-25.3-5.4v.7a30.1 30.1 0 0 1-2 4.4l-.4.3v-.2h.1v-.1l.1-.3v-.1l.3-.5 1.9-5.1.1-.3.1-.4.2-.4.2-.2.2-.4.2-.4.2-.3.2-.4-1.3 3.6-.1.1ZM7 92.8v-1.3c0-5.1 1.3-10.1 3.4-14.7.4-.8 1-1.3 1.4-1.5l1.6-.5h.6v-.1h.4l.2-.2h.5l.3-.1h.9l.3-.1c.5 0 .8.1 1 .6v.2l.2.1v.3l.1.4v.5l.1.1v.6l.3.5v.5l.1.6v.5l.2.3v1.2c0 .8-.6 1.3-1.2 2-.4.3-.8.7-1.1 1.2-3.5 5.3-4.8 10.6-5.5 13.2-.2.9-.6 2.4-1.3 2.2-2.7-.6-2.7-4.6-2.7-6.4l.2-.1Zm8.4-18.7h.6a24 24 0 0 0-4.1 1 4 4 0 0 1 1.9-.8l1.6-.2Zm4 .2c4.2-.4 8.4-.4 12.6 0 .3 0 .7.1 1 .4v1l-.8 4.2-.3.6v.3a4 4 0 0 1-1.6.7H21c-.7 0-1.2-.4-1.4-.7l-.1-.1-.3-.8v-.6l-.2-.9V78h-.4v-.7l-.2-.2v-.4l-.1-.3V76l-.1-.5-.2-.6v-.2c.3-.3.8-.3 1-.4h.4Zm-1.2.6v.2l.9 4.6v.2c.1.5.3 1 1 1.3l.9.3h9.3c1 0 1.5-.6 1.7-1v-.2l.3-.6.1-1v-.3l.2-.3.4-1.6v-.2l.1-.7v-.7h.4a3 3 0 0 0-.3 1v.5l-.2 1.2v.5l-.2.3v.1l-.2 1.2v.3c-.2.8-.7 1.9-1.9 1.9h-10c-1.3 0-1.7-1.1-1.9-1.9 0-.8-.2-1.6-.4-2.4l-.2-1v-.9l-.4-.8h.4ZM42 99.2c-.7 0-1-1.3-1.3-2.3-.7-2.6-2-8-5.6-13.2l-1-1.3c-.6-.5-1.3-1-1.3-1.9V80l.4-2.4v-.5l.1-.3v-.3l.2-.4v-.5h.1v-.5h.1v-.3c.3-.5.7-.7 1.2-.7h1v.2h.5l.4.1 1 .3h.5l1.3.5c.4.1.8.7 1.3 1.5a34 34 0 0 1 3.5 16c0 1.7 0 5.7-2.7 6.4l.3.1Zm-4.3-25c1.1.3 1.6.7 1.9.9-1-.3-2.8-.8-4.1-1l2.2.2ZM26.4 87h-1.3c-.3 0-.4.2-.4.4 0 0 0 .3.2.3h1.5l.3-.3c0-.2 0-.4-.3-.4Zm-1.6.4.1-.2h1.5l.1.2-.1.2h-1.3l-.3-.2Zm7.2-4.8h-.8a2.4 2.4 0 1 0 .8 0Zm-.8 0h.8c1 .3 1.7 1.1 1.7 2.2 0 1-.9 2-2.1 2a2 2 0 0 1-2.1-2 2 2 0 0 1 1.7-2v-.2Zm2.7 2.4a2.3 2.3 0 1 1-4.6 0v-.5.3c0 1 1.1 2.1 2.3 2.1a2.3 2.3 0 0 0 2.3-2.4v.5Zm-2.3 1a1.3 1.3 0 1 0 0-2.7 1.3 1.3 0 0 0 0 2.7Zm0-2.7a1.3 1.3 0 1 1 .8 2.5 1.3 1.3 0 0 1-.8-2.5Zm0-1a3.5 3.5 0 0 0-3.6 3.3c0 1.8 1.6 3.4 3.6 3.4s3.6-1.6 3.6-3.4c0-1.9-1.6-3.4-3.6-3.4Zm0 6.6a3.5 3.5 0 0 1-3.5-3.3c0-1.8 1.6-3.2 3.5-3.2s3.5 1.3 3.5 3.2c0 1.8-1.6 3.3-3.5 3.3Zm-11.2-6.3h-.9a2.3 2.3 0 0 0-2.2 2.4 2.4 2.4 0 1 0 3-2.4h.1Zm-.8 0h.7c1 .3 1.8 1.1 1.8 2.2 0 1-1 2-2.1 2a2 2 0 0 1-2.1-2c0-1.1.6-1.9 1.6-2l.1-.2Zm2.7 2.4a2.3 2.3 0 0 1-4.6-.5v.3c0 1 1 2.1 2.3 2.1 1.2 0 2.3-1 2.3-2.1v-.3.5ZM20 86a1.3 1.3 0 1 0 0-2.7 1.3 1.3 0 0 0 0 2.7Zm0-2.7a1.3 1.3 0 1 1 .8 2.5 1.3 1.3 0 0 1-.8-2.5Zm0-1a3.5 3.5 0 0 0-3.6 3.3c0 1.8 1.6 3.4 3.6 3.4s3.6-1.6 3.6-3.4c0-1.9-1.6-3.4-3.6-3.4Zm0 6.6a3.3 3.3 0 0 1-3.5-3.3c0-1.8 1.5-3.2 3.5-3.2 1.9 0 3.5 1.3 3.5 3.2 0 1.8-1.6 3.3-3.5 3.3Z"/>
  </g>
  <path fill="#020401" fill-opacity=".5" d="M57 16.3h-.2v.1l.1-.1Zm-.6.8c0 .1 0 .1 0 0Zm.7-4.6v-.2h-.2v.1l.2.1Zm0 1.6V14v.2ZM62 8.5c-.1 0-.1 0 0 0Zm-8.3 10.2h-.4.4Zm0 5.4c-.1 0-.1 0 0 0 0 .2 0 .2 0 0Zm0-3.6V20v.5ZM52 19.3v.2h.1v-.2H52Zm1-3.7h.2v-.3h.1v.3h-.2Zm-1 6.3v-.2h-.2c0 .2 0 .2 0 0l.2.2Zm.6-3.2c0-.2 0-.2-.1 0h.1Zm.3-2.3V16h-.1v.3l.1.1Zm-.4 6.3c0-.2 0-.2 0 0Zm-.1-1.6v-.2H52v.2h.2Zm-.3 4h.1v-.2l-.1.2Zm.3-8h.1v-.2h-.1v.2Zm3.4-.7c0-.1 0-.1 0 0Zm-.6-2.4v-.1H55v.1h.2Zm.1 1.6v-.1c-.1 0 0 0 0 .1Zm-.4.7h-.1c0 .1 0 0 .1 0ZM56 18c0-.1-.1 0-.1 0h.1Zm-4-.1h.1v-.2H52v.2Zm3.5-4.7h.1v-.1h-.1v.1ZM54 21.7h-.1v.2l.1-.2Zm-.1-7h-.3.3Zm1 0h-.2v.1l.2-.1Zm-.5.9v-.1h-.1l.1.1Zm5.5-4.7c-.2 0-.2 0 0 0Zm21 81.5v.1h.2v-.2l-.2.1Zm.2 2.7v-.4.4Zm-3.5 2.6-.1.2h.1v-.2Zm3.2-10.9v.1h.1v-.2h-.1v.1Zm.3 2.4v-.3c-.2.2 0 .3 0 .3ZM76 97.3h-.1c0 .2.1 0 .1 0Zm.3-.9H76v.3h.1v-.3h.2Zm-.7-.7h-.1v.2l.1-.2Zm1.9-.2c-.2 0 0 0 0 .1v-.1Zm-1 .1h-.1v.1h.1v-.1Zm3.9-12.8H80v.3h.1v-.4l.3.1Zm0 6.7-.4-.2v.2h.4Zm-.3-3.4c.2.2.3 0 .3 0H80h.1Zm.3 2.4c0 .2.1 0 .1 0h-.1Zm.1 2.4c.2.2.3 0 .3 0h-.3Zm-.1 1h.1v-.3l-.2.1.1.2Zm.1 2.4h.3V94h-.3v.3Zm-.6-.7h.1v-.3h-.1v.3Zm.9-9.3v.2-.2Zm-.7 8.5.2-.1v-.2H80l.1.3Zm0-2.5H80c0-.2 0 0-.1 0h.2Zm0-6.4v-.2H80l.1.2Zm-.2 3v.2h.2v-.2H80Zm-2.3 7.8c-.1.1 0 .2 0 .2v-.2Zm3-7v.2-.2Zm-.9 3.5h-.2v.1h.2v-.1Zm-1.6 1.9H78c0 .1.1 0 .1 0Zm-.2 4h-.2v.2h.2v-.2Zm.4-1.8v.3-.3Zm-.4-1.4h-.2v.1h.2v-.1Zm.1 2.4v.1h.1V96l-.1.3Zm2-.4v.2h.3V96H80Zm.4-.7v-.1H80v.1h.4Zm-.7 1.5-.1.1v.1h.3v-.2h-.2Zm.8.6-.2.2.1.2.1-.1v-.3Zm.3-.8h-.3l.2.3h.1v-.3Zm-1.3 1.1h-.2v.3l.3-.2v-.1h-.1ZM79 96h-.2v.3h.2V96Zm.2-.7v-.1h-.1v.3h.1v-.2Zm1.2-13.2h-.1v.2h.1V82Zm-1.8 14.7v.1h.2l-.1-.1h-.1Zm2.2-1.3-.2.1.1.3.1-.2v-.2Zm-.2-14.2c.1 0 0-.1 0-.1v.1Zm0 12c.1.2.2 0 .2 0l-.1-.1h-.1v.3-.2Zm0-3.3v.1h.2V90h-.2Zm-1.5-.4c0-.1-.1 0-.1 0h.1Zm.3 4.8h.1v-.1h-.1v.1Zm-.2-2.4v-.1c-.1 0 0 .1 0 .1Zm0-3.3v.1h.2v-.1h-.2Zm-.4 1.8v-.2h-.2v.2h.2Zm-.5 1.5h-.1v.3h.1V92Zm.1 5.6h-.1v.3h.3l-.2-.3Zm0-8.7v-.1h-.2v.1h.2Zm.3 4.8c.1 0 0-.1 0-.1v.1Zm0-2.4-.1-.1h-.2v.1h.4Zm-1-3.8c.2-.2 0-.2 0-.2v.2Zm0 .8V88h-.2v.1l.1.2Zm2-7.6h.2v-.2l-.1.2ZM49.4 86h.2v-.1l-.2.1Zm-.6 7.7v.3h.1v-.3h-.1Zm0-11.3h-.2v.1l.2-.1Zm.2 9.9v.1h.2l-.2-.1Zm.3.9v.1h.1v-.1h-.1Zm-.5-1.7.1.1v-.1h-.1Zm.8-.7v.1h.1v-.2l-.1.1Zm-1.2-1.7v-.2H48l.2.2Zm-.6 2.1v.1h.2l-.2-.1Zm.7-1.3v-.2h-.1v.2h.1ZM48 92v.2h.1V92l-.1.1Zm2.7-.2v.1h.1l-.1-.1Zm-.6 1.4v.2h.2l-.2-.2Zm42.7-82.8-.1.2h.1v-.2Zm-.7-4.1v-.1H92l.1.1Z"/>
  <path fill="#020401" d="M87 22.7v.1h-.3l.2-.1Zm-2-11v-.1l-.2.1h.1ZM87.2 22v.1h.2c0-.1 0-.1 0 0l-.2-.1Zm0-4-.1.1h.1V18Zm-.2 1.7c.1 0 .1 0 0 0Zm-.4-4.7v-.2h-.2l.2.2Zm.4.8v-.1s0-.1-.2 0l.2.1Zm-1.8-3.2v-.1h-.1l.1.1Zm.8 1.6s.2 0 0-.1c0 .1 0 .1 0 0v.1Zm0 1.4v.2-.1l.1-.1Zm1.4 4.8v.1h.1v-.1h-.1Zm.2-1.6c-.1 0-.1 0 0 0Zm-.2-2.3c0-.1 0-.1 0 0Zm.5 4.7c0 .1 0 .1 0 0ZM86.2 18v.1h.1l-.1-.1Zm-1.6-3c0-.1 0-.1 0 0Zm-.2 1.6c0-.1 0-.1 0 0Zm.6-.9c0 .1 0 .1 0 0Zm-.2-2.4-.1.1h.1v-.1Zm.4.8h-.1v.1h.1V14ZM83 11.6v.1h.2l-.2-.1Zm-2.2.1v.3h.1l-.1-.3Zm2.4-1.6c-.2 0-.2 0 0 0Zm1.4 1v-.4h-.1v.1l.1.3Zm-2.1-.2c.1 0 .1 0 0 0Z"/>
  <path fill="#020401" fill-opacity=".5" d="M20.7 75.5h-.2v-.2l.2.2Zm-1.5-1.1v.1h.1v-.1h-.1Zm5.3.1v.3l.2-.1-.2-.2Zm.6 1h-.2v.1l.2-.1Zm-8.2-.3v.1h.2v-.1h-.2Zm-2.5-.1h-.1v.1h.1v-.1Zm20.8-.2v.3-.3Zm5.2 2v.2h.1l-.1-.2Zm-12.3-2.2v.2-.2Zm-1.8 0v.1h.1v-.1h-.1Zm5.2.1v.1h.1l-.1-.1Zm-1.8 0v.1c.2 0 0-.1 0-.1Z"/>
  <mask id="c" width="47" height="33" x="26" y="72" fill="#000" maskUnits="userSpaceOnUse">
    <path fill="#fff" d="M26 72h47v33H26z"/>
    <path d="m29.5 74.4 3.5 9.8h.1l3.5-9.8H38L33.8 86h-1.5L28 74.4h1.5ZM39.7 86v-8.7H41V86h-1.3Zm.7-10.2a1 1 0 0 1-.7-.2.9.9 0 0 1-.3-.7c0-.2 0-.5.3-.6.2-.2.4-.3.7-.3.2 0 .4 0 .6.3.2.1.3.4.3.6 0 .3 0 .5-.3.7a1 1 0 0 1-.6.2Zm6.4 10.4a3.4 3.4 0 0 1-3.3-2.1 6 6 0 0 1-.4-2.4c0-1 .1-1.8.4-2.4.3-.7.8-1.2 1.3-1.6.6-.4 1.3-.5 2-.5.6 0 1 0 1.3.2.4.2.6.4.8.7l.4.6h.1v-4.3h1.4V86h-1.3v-1.3h-.2l-.4.6-.8.6c-.3.2-.8.3-1.3.3Zm.1-1.2c.6 0 1-.2 1.4-.4.4-.3.7-.7.9-1.2l.2-1.8c0-.6 0-1.2-.2-1.7s-.5-.8-.9-1.1c-.4-.3-.8-.4-1.4-.4-.5 0-1 .1-1.4.4-.4.3-.6.7-.8 1.2a4.8 4.8 0 0 0 0 3.4l.8 1.1c.4.3.9.5 1.4.5Zm10.2 1.2c-.9 0-1.6-.2-2.2-.6a4 4 0 0 1-1.4-1.5 6 6 0 0 1 0-4.8 3.7 3.7 0 0 1 3.4-2.2c.5 0 1 .1 1.4.3a3.3 3.3 0 0 1 2 2c.3.6.4 1.3.4 2.1v.6h-6.8v-1.2h5.4c0-.5 0-.9-.3-1.3a2.2 2.2 0 0 0-2-1.2c-.6 0-1 .1-1.5.4l-.9 1a3 3 0 0 0-.3 1.3v.8c0 .7.1 1.2.4 1.7.2.4.5.8 1 1 .3.3.8.4 1.4.4.3 0 .6 0 1-.2l.7-.4.4-.8 1.3.4c-.1.4-.3.8-.6 1.1-.4.4-.8.6-1.2.8-.5.2-1 .3-1.6.3Zm9.2 0a3.8 3.8 0 0 1-3.5-2.1 6 6 0 0 1 0-4.8 3.5 3.5 0 0 1 3.4-2.1c.9 0 1.5.1 2.1.5.6.4 1 1 1.4 1.6.4.7.5 1.5.5 2.4 0 .9-.1 1.7-.5 2.3-.3.7-.8 1.2-1.4 1.6-.6.4-1.2.6-2 .6Zm0-1.2c.6 0 1-.2 1.4-.5.4-.3.7-.7.9-1.2a4.7 4.7 0 0 0 0-3.3c-.2-.5-.5-.9-.9-1.2-.3-.3-.8-.4-1.4-.4-.6 0-1.1.1-1.5.4-.4.3-.7.7-.9 1.3a4.6 4.6 0 0 0 0 3.3c.2.4.5.8.9 1.1.4.3.9.5 1.5.5ZM33 102.5a5 5 0 0 1-1.7-.3 3.5 3.5 0 0 1-1.9-1.5l1-.7.6.5c.1.2.4.4.7.5.3.2.8.3 1.3.3.7 0 1.3-.2 1.7-.5.5-.4.7-1 .7-1.6v-1.8l-.5.6-.8.6c-.3.2-.8.3-1.3.3-.7 0-1.4-.2-2-.5-.5-.4-1-.9-1.3-1.5a5 5 0 0 1-.4-2.3c0-.9.1-1.7.4-2.3.3-.7.8-1.2 1.3-1.6.6-.4 1.3-.5 2-.5.6 0 1 0 1.3.2.4.2.6.4.8.7l.4.6h.2v-1.4h1.3v9a3 3 0 0 1-.5 1.8 3 3 0 0 1-1.4 1 6 6 0 0 1-2 .4Zm0-4.8a2.3 2.3 0 0 0 2.2-1.4l.2-1.7c0-.7 0-1.2-.2-1.7s-.5-.9-.9-1.1c-.4-.3-.8-.4-1.4-.4a2.3 2.3 0 0 0-2.2 1.6c-.2.4-.3 1-.3 1.6 0 .6 0 1.1.3 1.6.2.4.5.8.8 1 .4.3.9.5 1.4.5Zm8.8 1.5c-.6 0-1-.1-1.5-.3-.5-.2-.8-.5-1-1-.4-.3-.5-.8-.5-1.4 0-.5.1-.9.3-1.2.2-.3.5-.6.8-.7l1-.4a13.3 13.3 0 0 1 2.6-.4l.7-.2c.2 0 .2-.2.2-.4 0-.6-.1-1-.4-1.4a2 2 0 0 0-1.4-.5c-.6 0-1.1.2-1.5.5-.4.2-.6.5-.8.9l-1.2-.5a3 3 0 0 1 2.1-1.9 5.2 5.2 0 0 1 2.3 0c.4 0 .7.2 1 .4.4.2.7.5 1 .9.2.4.3 1 .3 1.7V99h-1.4v-1.2l-.5.6-.8.6-1.3.2ZM42 98c.5 0 1-.1 1.3-.3a2.1 2.1 0 0 0 1.1-1.9v-1.2l-.3.2a6.3 6.3 0 0 1-1.4.2 36 36 0 0 0-1.5.3l-.8.5c-.2.2-.2.5-.2.8 0 .5.1.8.5 1 .3.3.8.4 1.3.4Zm6.2 1v-8.7h1.3v1.3h.1a2 2 0 0 1 1-1c.3-.3.8-.4 1.4-.4.6 0 1 0 1.4.4.4.2.7.6 1 1 .2-.4.6-.8 1-1a3 3 0 0 1 1.6-.4c.8 0 1.4.2 2 .7.4.5.7 1.2.7 2.3V99h-1.4v-5.8c0-.7-.1-1.1-.5-1.4a2 2 0 0 0-1.2-.4c-.6 0-1.1.1-1.5.5a2 2 0 0 0-.5 1.4V99h-1.3v-6c0-.5-.2-.9-.5-1.2-.3-.3-.7-.4-1.2-.4-.4 0-.7 0-1 .2l-.8.8-.2 1.1V99h-1.4Zm17.6.2a4 4 0 0 1-2.2-.6 4 4 0 0 1-1.4-1.5 6 6 0 0 1 0-4.8 3.7 3.7 0 0 1 3.4-2.2c.5 0 1 .1 1.4.3a3.3 3.3 0 0 1 2 2c.3.6.4 1.3.4 2.1v.6h-6.7v-1.2H68c0-.5 0-.9-.2-1.3a2.2 2.2 0 0 0-2.1-1.2c-.6 0-1 .1-1.4.4-.4.2-.7.6-1 1a3 3 0 0 0-.2 1.3v.8c0 .7 0 1.2.3 1.7.2.4.6.8 1 1 .4.3.9.4 1.4.4.4 0 .7 0 1-.2l.7-.4.5-.8 1.3.4-.7 1.1c-.3.4-.7.6-1.2.8-.5.2-1 .3-1.6.3Z"/>
  </mask>
  <path fill="#000" d="m29.5 74.4 3.5 9.8h.1l3.5-9.8H38L33.8 86h-1.5L28 74.4h1.5ZM39.7 86v-8.7H41V86h-1.3Zm.7-10.2a1 1 0 0 1-.7-.2.9.9 0 0 1-.3-.7c0-.2 0-.5.3-.6.2-.2.4-.3.7-.3.2 0 .4 0 .6.3.2.1.3.4.3.6 0 .3 0 .5-.3.7a1 1 0 0 1-.6.2Zm6.4 10.4a3.4 3.4 0 0 1-3.3-2.1 6 6 0 0 1-.4-2.4c0-1 .1-1.8.4-2.4.3-.7.8-1.2 1.3-1.6.6-.4 1.3-.5 2-.5.6 0 1 0 1.3.2.4.2.6.4.8.7l.4.6h.1v-4.3h1.4V86h-1.3v-1.3h-.2l-.4.6-.8.6c-.3.2-.8.3-1.3.3Zm.1-1.2c.6 0 1-.2 1.4-.4.4-.3.7-.7.9-1.2l.2-1.8c0-.6 0-1.2-.2-1.7s-.5-.8-.9-1.1c-.4-.3-.8-.4-1.4-.4-.5 0-1 .1-1.4.4-.4.3-.6.7-.8 1.2a4.8 4.8 0 0 0 0 3.4l.8 1.1c.4.3.9.5 1.4.5Zm10.2 1.2c-.9 0-1.6-.2-2.2-.6a4 4 0 0 1-1.4-1.5 6 6 0 0 1 0-4.8 3.7 3.7 0 0 1 3.4-2.2c.5 0 1 .1 1.4.3a3.3 3.3 0 0 1 2 2c.3.6.4 1.3.4 2.1v.6h-6.8v-1.2h5.4c0-.5 0-.9-.3-1.3a2.2 2.2 0 0 0-2-1.2c-.6 0-1 .1-1.5.4l-.9 1a3 3 0 0 0-.3 1.3v.8c0 .7.1 1.2.4 1.7.2.4.5.8 1 1 .3.3.8.4 1.4.4.3 0 .6 0 1-.2l.7-.4.4-.8 1.3.4c-.1.4-.3.8-.6 1.1-.4.4-.8.6-1.2.8-.5.2-1 .3-1.6.3Zm9.2 0a3.8 3.8 0 0 1-3.5-2.1 6 6 0 0 1 0-4.8 3.5 3.5 0 0 1 3.4-2.1c.9 0 1.5.1 2.1.5.6.4 1 1 1.4 1.6.4.7.5 1.5.5 2.4 0 .9-.1 1.7-.5 2.3-.3.7-.8 1.2-1.4 1.6-.6.4-1.2.6-2 .6Zm0-1.2c.6 0 1-.2 1.4-.5.4-.3.7-.7.9-1.2a4.7 4.7 0 0 0 0-3.3c-.2-.5-.5-.9-.9-1.2-.3-.3-.8-.4-1.4-.4-.6 0-1.1.1-1.5.4-.4.3-.7.7-.9 1.3a4.6 4.6 0 0 0 0 3.3c.2.4.5.8.9 1.1.4.3.9.5 1.5.5ZM33 102.5a5 5 0 0 1-1.7-.3 3.5 3.5 0 0 1-1.9-1.5l1-.7.6.5c.1.2.4.4.7.5.3.2.8.3 1.3.3.7 0 1.3-.2 1.7-.5.5-.4.7-1 .7-1.6v-1.8l-.5.6-.8.6c-.3.2-.8.3-1.3.3-.7 0-1.4-.2-2-.5-.5-.4-1-.9-1.3-1.5a5 5 0 0 1-.4-2.3c0-.9.1-1.7.4-2.3.3-.7.8-1.2 1.3-1.6.6-.4 1.3-.5 2-.5.6 0 1 0 1.3.2.4.2.6.4.8.7l.4.6h.2v-1.4h1.3v9a3 3 0 0 1-.5 1.8 3 3 0 0 1-1.4 1 6 6 0 0 1-2 .4Zm0-4.8a2.3 2.3 0 0 0 2.2-1.4l.2-1.7c0-.7 0-1.2-.2-1.7s-.5-.9-.9-1.1c-.4-.3-.8-.4-1.4-.4a2.3 2.3 0 0 0-2.2 1.6c-.2.4-.3 1-.3 1.6 0 .6 0 1.1.3 1.6.2.4.5.8.8 1 .4.3.9.5 1.4.5Zm8.8 1.5c-.6 0-1-.1-1.5-.3-.5-.2-.8-.5-1-1-.4-.3-.5-.8-.5-1.4 0-.5.1-.9.3-1.2.2-.3.5-.6.8-.7l1-.4a13.3 13.3 0 0 1 2.6-.4l.7-.2c.2 0 .2-.2.2-.4 0-.6-.1-1-.4-1.4a2 2 0 0 0-1.4-.5c-.6 0-1.1.2-1.5.5-.4.2-.6.5-.8.9l-1.2-.5a3 3 0 0 1 2.1-1.9 5.2 5.2 0 0 1 2.3 0c.4 0 .7.2 1 .4.4.2.7.5 1 .9.2.4.3 1 .3 1.7V99h-1.4v-1.2l-.5.6-.8.6-1.3.2ZM42 98c.5 0 1-.1 1.3-.3a2.1 2.1 0 0 0 1.1-1.9v-1.2l-.3.2a6.3 6.3 0 0 1-1.4.2 36 36 0 0 0-1.5.3l-.8.5c-.2.2-.2.5-.2.8 0 .5.1.8.5 1 .3.3.8.4 1.3.4Zm6.2 1v-8.7h1.3v1.3h.1a2 2 0 0 1 1-1c.3-.3.8-.4 1.4-.4.6 0 1 0 1.4.4.4.2.7.6 1 1 .2-.4.6-.8 1-1a3 3 0 0 1 1.6-.4c.8 0 1.4.2 2 .7.4.5.7 1.2.7 2.3V99h-1.4v-5.8c0-.7-.1-1.1-.5-1.4a2 2 0 0 0-1.2-.4c-.6 0-1.1.1-1.5.5a2 2 0 0 0-.5 1.4V99h-1.3v-6c0-.5-.2-.9-.5-1.2-.3-.3-.7-.4-1.2-.4-.4 0-.7 0-1 .2l-.8.8-.2 1.1V99h-1.4Zm17.6.2a4 4 0 0 1-2.2-.6 4 4 0 0 1-1.4-1.5 6 6 0 0 1 0-4.8 3.7 3.7 0 0 1 3.4-2.2c.5 0 1 .1 1.4.3a3.3 3.3 0 0 1 2 2c.3.6.4 1.3.4 2.1v.6h-6.7v-1.2H68c0-.5 0-.9-.2-1.3a2.2 2.2 0 0 0-2.1-1.2c-.6 0-1 .1-1.4.4-.4.2-.7.6-1 1a3 3 0 0 0-.2 1.3v.8c0 .7 0 1.2.3 1.7.2.4.6.8 1 1 .4.3.9.4 1.4.4.4 0 .7 0 1-.2l.7-.4.5-.8 1.3.4-.7 1.1c-.3.4-.7.6-1.2.8-.5.2-1 .3-1.6.3Z"/>
  <path fill="#fff" d="m29.5 74.4 1.9-.7a2 2 0 0 0-1.9-1.3v2Zm3.5 9.8-2 .6a2 2 0 0 0 2 1.4v-2Zm.1 0v2a2 2 0 0 0 1.9-1.4l-1.9-.6Zm3.5-9.8v-2a2 2 0 0 0-2 1.3l2 .7Zm1.4 0 2 .7a2 2 0 0 0-2-2.7v2ZM33.8 86v2a2 2 0 0 0 1.8-1.3l-1.8-.7Zm-1.5 0-1.9.7a2 2 0 0 0 2 1.3v-2ZM28 74.4v-2a2 2 0 0 0-1.8 2.7l1.8-.7Zm-.4.6 3.5 9.8 3.8-1.3-3.5-9.8-3.8 1.3ZM33 86.2h.1v-4H33v4Zm2-1.4 3.4-9.8-3.7-1.3-3.5 9.8 3.8 1.3Zm1.6-8.4H38v-4h-1.4v4Zm-.4-2.7-4.3 11.6 3.7 1.4L40 75l-3.7-1.4ZM33.8 84h-1.5v4h1.5v-4Zm.4 1.3-4.3-11.6-3.7 1.4 4.2 11.6 3.8-1.4Zm-6.2-9h1.5v-4H28v4ZM39.7 86h-2c0 1.1.9 2 2 2v-2Zm0-8.7v-2a2 2 0 0 0-2 2h2Zm1.3 0h2a2 2 0 0 0-2-2v2Zm0 8.7v2a2 2 0 0 0 2-2h-2Zm-1.3-10.4L38.3 77l1.4-1.4Zm0-1.3-1.4-1.5 1.4 1.5Zm1.3 0-1.4 1.4 1.4-1.4Zm0 1.3L39.7 74l1.3 1.5Zm.7 10.4v-8.7h-4V86h4Zm-2-6.7H41v-4h-1.3v4Zm-.7-2V86h4v-8.7h-4Zm2 6.7h-1.3v4H41v-4Zm-.6-10.2a1 1 0 0 1 .6.3l-2.7 3a3 3 0 0 0 2 .7v-4Zm.7.3.2.4.1.4h-4c0 .8.3 1.6.9 2l2.8-2.8Zm.3.8a1.1 1.1 0 0 1-.3.8l-2.8-2.9c-.6.6-.9 1.3-.9 2.1h4Zm-.4.8a1 1 0 0 1-.6.3v-4a3 3 0 0 0-2 .8l2.6 3Zm-.6.3a1 1 0 0 1-.7-.3l2.7-2.9a3 3 0 0 0-2-.8v4Zm-.7-.3-.3-.3v-.5h4c0-.8-.4-1.6-1-2l-2.7 2.8Zm-.4-.8a1.2 1.2 0 0 1 .4-.8l2.7 3c.6-.6 1-1.4 1-2.2h-4Zm.3-.8a1 1 0 0 1 .8-.3v4a3 3 0 0 0 2-.8l-2.8-3Zm5.2 11.5-1 1.7 1-1.7Zm-1.3-1.5-1.8.8 1.8-.8Zm0-4.8-1.8-.9 1.8.9Zm1.3-1.6-1-1.7 1 1.7Zm3.3-.3-1 1.8 1-1.8Zm.8.7-1.6 1.2 1.6-1.2Zm.4.6-1.7 1c.4.6 1 1 1.7 1v-2Zm.1 0v2a2 2 0 0 0 2-2h-2Zm0-4.3v-2a2 2 0 0 0-2 2h2Zm1.4 0h2a2 2 0 0 0-2-2v2Zm0 11.6v2a2 2 0 0 0 2-2h-2Zm-1.3 0h-2c0 1.1.9 2 2 2v-2Zm0-1.3h2a2 2 0 0 0-2-2v2Zm-.2 0v-2a2 2 0 0 0-1.7 1l1.7 1Zm-.4.6 1.6 1.2-1.6-1.2Zm-.8.6 1 1.8-1-1.8Zm.2-1.3 1.2 1.6-1.2-1.6Zm.9-1.2 1.8.7-1.8-.7Zm0-3.5-2 .7h.1l1.9-.7Zm-.9-1.1-1.2 1.6 1.2-1.6Zm-2.8 0 1.2 1.6-1.2-1.6Zm-.8 1.2-1.9-.7 1.9.7Zm0 3.3-1.9.7 1.9-.7Zm.8 1.2-1.2 1.6 1.2-1.6Zm1.3-.3-.9-.2-2.2 3.3c1 .6 2 .9 3 .9v-4Zm-.9-.2-.6-.8-3.6 1.7c.5 1 1.1 1.8 2 2.4L46 84Zm-.6-.8-.2-1.5h-4c0 1.1.2 2.2.6 3.2l3.6-1.7Zm-.2-1.5c0-.7 0-1.2.2-1.6l-3.6-1.7c-.4 1-.6 2.1-.6 3.3h4Zm.2-1.6c.2-.4.4-.6.6-.7L43.7 76c-.9.6-1.5 1.5-2 2.4l3.6 1.7Zm.6-.7c.2-.2.5-.2.9-.2v-4c-1.1 0-2.1.2-3 .8l2.1 3.4Zm.9-.2h.3c.1 0 0 0 0 0l2-3.5c-.7-.4-1.6-.5-2.3-.5v4Zm.4 0c.1 0 .1.1 0 0l3.3-2.3a4 4 0 0 0-1.4-1.2l-2 3.5Zm.1 0 .3.5 3.4-2.1-.5-.7-3.2 2.4Zm2 1.5h.1v-4 4Zm2.1-2v-4.3h-4v4.3h4Zm-2-2.3h1.4v-4h-1.4v4Zm-.6-2V86h4V74.4h-4Zm2 9.6h-1.3v4h1.3v-4Zm.7 2v-1.3h-4V86h4Zm-2-3.3h-.2v4h.2v-4Zm-1.9 1-.3.4 3.2 2.4.5-.8-3.4-2Zm-.3.3-.2.2 2 3.4c.5-.2 1-.6 1.4-1.1L47.3 84Zm-.2.2h-.3v4a5 5 0 0 0 2.3-.5l-2-3.5ZM47 87c1 0 1.8-.3 2.6-.8L47.1 83h-.2v4Zm2.6-.9c.7-.5 1.2-1.2 1.5-2l-3.7-1.4c0 .2-.2.2-.2.3l2.4 3.1Zm1.5-2c.3-.8.4-1.6.4-2.5h-4l-.1 1 3.7 1.5Zm.4-2.5c0-.8 0-1.6-.4-2.4l-3.7 1.4.1 1h4Zm-.4-2.4c-.3-.8-.8-1.5-1.5-2l-2.4 3.2.2.2 3.7-1.4Zm-1.5-2c-.8-.6-1.7-.8-2.6-.8v4h.2l2.4-3.2Zm-2.6-.8c-.9 0-1.8.2-2.6.8l2.4 3.2h.2v-4Zm-2.6.8c-.7.6-1.2 1.3-1.5 2l3.7 1.5.2-.3-2.4-3.2Zm-1.5 2c-.3.8-.4 1.6-.4 2.4h4l.1-1-3.7-1.3Zm-.4 2.4c0 .9.1 1.7.4 2.4l3.8-1.4-.2-1h-4Zm.4 2.4c.3.8.8 1.5 1.5 2.1l2.5-3.1-.2-.4-3.8 1.4Zm1.5 2.1c.8.6 1.7.9 2.6.9v-4h-.1l-2.6 3Zm10.6-.5-1 1.7 1-1.7Zm-1.4-1.5-1.8.8 1.8-.8Zm0-4.8-1.8-.8 1.8.8Zm1.4-1.6 1 1.7-1-1.7Zm3.4-.3.6-2-.6 2Zm1.2.7L58 79.6l1.4-1.5Zm.9 1.4 1.8-.8-1.8.8Zm.3 2.6v2a2 2 0 0 0 2-2h-2Zm-6.8 0h-2c0 1.1 1 2 2 2v-2Zm0-1.2v-2a2 2 0 0 0-2 2h2Zm5.4 0v2a2 2 0 0 0 2-2h-2Zm-.3-1.3-1.8 1 1.8-1Zm-.8-.9-1 1.7 1-1.7Zm-2.7 0 1.2 1.7-1.2-1.6Zm-.9 1L53 79l1.7.9Zm0 3.9-1.7.9 1.8-1Zm1 1-1 1.8 1-1.8Zm2.4.2.7 2-.7-2Zm.8-.4 1.4 1.4-1.4-1.4Zm.4-.8.6-2a2 2 0 0 0-2.4 1.3l1.8.7Zm1.3.4 2 .6A2 2 0 0 0 61 82l-.6 1.9Zm-.6 1 1.4 1.4L60 85Zm-1.2.8.7 1.9-.7-1.9ZM57 84.2c-.6 0-1-.1-1.2-.3l-2 3.4c1 .6 2 .9 3.2.9v-4Zm-1.2-.3-.6-.7-3.6 1.7c.5 1 1.2 1.8 2.1 2.4L56 84Zm-.6-.7a3 3 0 0 1-.3-1.5h-4c0 1.1.2 2.2.7 3.2l3.6-1.7Zm-.3-1.5c0-.6.1-1.1.3-1.5l-3.6-1.7c-.5 1-.7 2-.7 3.2h4Zm.3-1.5c.2-.4.4-.6.7-.8l-2.2-3.3c-1 .6-1.6 1.4-2.1 2.4l3.6 1.7Zm.7-.8 1-.2v-4a5 5 0 0 0-3.2.9l2.2 3.3Zm1-.2h.6l1.3-3.7c-.6-.2-1.3-.3-2-.3v4Zm.6 0 .5.4 2.8-3c-.6-.5-1.3-.9-2-1.1l-1.3 3.8Zm.5.4.4.6 3.7-1.5c-.3-.7-.7-1.5-1.4-2L58 79.6Zm.4.6.2 1.3h4c0-1-.2-1.9-.5-2.8l-3.7 1.5Zm.2 1.3v.6h4v-.6h-4Zm2-1.4h-6.8v4h6.8v-4Zm-4.8 2v-1.2h-4v1.2h4Zm-2 .8h5.4v-4H54v4Zm7.4-2c0-.7-.1-1.5-.5-2.2l-3.6 1.8.1.4h4Zm-.5-2.2c-.3-.7-.9-1.3-1.6-1.7l-2 3.4v.1l3.6-1.8ZM59.3 77c-.8-.4-1.6-.6-2.4-.6v4h.2l2.2-3.4Zm-2.4-.6c-.9 0-1.7.2-2.5.7l2.3 3.3h.2v-4Zm-2.5.7c-.7.5-1.2 1-1.5 1.8l3.5 1.8.3-.3-2.3-3.3ZM53 78.9a5 5 0 0 0-.6 2.2h4l.1-.4-3.5-1.8Zm-.6 2.2v.8h4v-.8h-4Zm0 .8c0 .9.2 1.8.6 2.6l3.6-1.8-.2-.8h-4Zm.6 2.6c.4.8 1 1.4 1.7 1.9l2-3.5-.1-.2-3.6 1.8Zm1.7 1.9c.8.4 1.6.6 2.5.6v-4l-.5-.1-2 3.5Zm2.5.6 1.6-.3-1.3-3.8H57v4Zm1.6-.3a4 4 0 0 0 1.5-.9L57.4 83l1.3 3.8Zm1.5-.9c.4-.4.7-1 1-1.5l-4-1.3 2.8 2.9Zm-1.5-.3 1.3.4 1-3.8-1.2-.4-1.1 3.8Zm0-2.1-.3.3 2.9 2.8c.5-.5 1-1.2 1.2-2l-3.9-1.1Zm-.3.3c0 .1-.2.3-.5.3l1.5 3.8c.7-.3 1.3-.7 1.9-1.3l-2.9-2.8Zm-.5.3-.8.2v4c.8 0 1.5-.1 2.3-.4L57.9 84Zm6.3 1.6-1 1.7 1-1.7ZM62.8 84 61 85l1.8-1Zm0-4.7-1.8-.9 1.8.9Zm1.4-1.6-1-1.7 1 1.7Zm4.1 0-1 1.7 1-1.7Zm1.4 1.6-1.8.9 1.8-.9Zm0 4.7-1.8-.8 1.8.8Zm-1.4 1.6-1-1.7 1 1.7Zm-.6-1L66.5 83l1.2 1.5Zm.9-1.3 1.9.7-1.9-.7Zm0-3.2 1.9-.7-1.9.7Zm-.9-1.3 1.3-1.5-1.3 1.5Zm-3 0-1.2-1.5 1.3 1.5Zm-.8 1.3-1.8-.7 1.8.7Zm0 3.2-1.8.7 1.8-.7Zm.9 1.2L66 83l-1.2 1.5Zm1.5-.3c-.5 0-.8-.1-1-.3L63 87.3c1 .6 2 .9 3.2.9v-4Zm-1-.3c-.3-.1-.5-.4-.7-.7L61 84.9c.5 1 1.2 1.8 2.1 2.4l2.2-3.4Zm-.7-.7c-.2-.4-.3-.9-.3-1.5h-4c0 1.1.2 2.2.7 3.2l3.6-1.7Zm-.3-1.5c0-.7.1-1.2.3-1.5L61 78.4c-.5 1-.7 2.1-.7 3.3h4Zm.3-1.5c.2-.4.4-.6.7-.8L63 76c-1 .6-1.6 1.4-2 2.4l3.5 1.8Zm.7-.8 1-.2v-4c-1.2 0-2.2.2-3.2.8l2.2 3.4Zm1-.2c.4 0 .7 0 1 .2l2.1-3.4c-1-.6-2-.8-3.1-.8v4Zm1 .2.6.8 3.6-1.8c-.5-1-1.2-1.8-2.1-2.4l-2.1 3.4Zm.6.8c.2.3.3.8.3 1.5h4c0-1.2-.2-2.3-.7-3.3L68 80.2Zm.3 1.5c0 .6-.1 1.1-.3 1.5l3.6 1.7c.5-1 .7-2 .7-3.2h-4Zm-.3 1.5-.6.7 2.1 3.4c1-.6 1.6-1.4 2.1-2.4L68 83.2Zm-.6.7c-.3.2-.6.3-1 .3v4c1 0 2.2-.3 3.1-.9L67.3 84Zm-1 3c1 0 1.9-.2 2.7-.8L66.5 83h-.2v4Zm2.7-.8c.7-.6 1.2-1.3 1.5-2.1l-3.8-1.4-.2.4 2.5 3Zm1.5-2.1c.2-.7.4-1.5.4-2.3h-4c0 .3 0 .7-.2 1l3.8 1.3Zm.4-2.3c0-.8-.2-1.6-.4-2.3l-3.8 1.3.2 1h4Zm-.4-2.3a4 4 0 0 0-1.5-2.1l-2.5 3 .2.4 3.8-1.3ZM69 77.3c-.8-.7-1.8-1-2.7-1v4h.2s0 .1 0 0l2.5-3Zm-2.7-1c-1 0-2 .3-2.8 1l2.5 3c0 .1 0 0 0 0h.3v-4Zm-2.8 1a4 4 0 0 0-1.4 2l3.7 1.4c0-.2.2-.2.2-.3l-2.5-3.1Zm-1.4 2c-.3.8-.5 1.6-.5 2.4h4l.2-1-3.7-1.3Zm-.5 2.4c0 .8.2 1.6.5 2.3l3.7-1.4-.2-1h-4Zm.5 2.3a4 4 0 0 0 1.4 2l2.5-3-.2-.4-3.7 1.4Zm1.4 2c.9.7 1.8 1 2.8 1v-4H66l-2.5 3Zm-32 16.2.6-1.9-.7 2Zm-1.2-.6 1.3-1.6-1.3 1.6Zm-.8-.9-1.1-1.6a2 2 0 0 0-.6 2.6l1.7-1Zm1-.7 1.7-1.3a2 2 0 0 0-2.8-.4l1.2 1.7Zm.6.5 1.4-1.3-1.4 1.3Zm.7.5.9-1.8-.9 1.8Zm3-.2 1.2 1.6-1.2-1.6Zm.7-3.4h2a2 2 0 0 0-2-2v2Zm0 0v-2a2 2 0 0 0-1.8 1l1.7 1Zm-.5.6-1.6-1.2L35 98Zm-.8.6 1 1.8-1-1.8Zm-3.2-.2-1 1.7 1-1.7Zm-1.4-1.5L28 98l1.7-1Zm0-4.6 1.8.8-1.8-.8Zm1.3-1.6 1.1 1.7-1-1.7Zm3.3-.3-1 1.8 1-1.8Zm.8.7-1.6 1.2 1.6-1.2Zm.4.6-1.6 1c.3.6 1 1 1.6 1v-2Zm.2 0v2a2 2 0 0 0 2-2h-2Zm0-1.4v-2a2 2 0 0 0-2 2h2Zm1.3 0h2a2 2 0 0 0-2-2v2Zm-.5 10.8-1.7-1.2 1.7 1.2Zm-1.4 1-.7-1.8.7 1.8Zm-.6-4.8-1.1-1.7 1.1 1.7Zm.9-1 1.8.7-1.8-.8Zm0-3.4 1.8-.7-1.8.7Zm-.9-1.1-1.2 1.6 1.2-1.6Zm-2.8 0-1.2-1.6 1.2 1.6Zm-.8 1.2-1.9-.8 1.9.8Zm0 3.2-1.9.7 1.9-.7Zm.8 1L30.5 99l1.1-1.6Zm1.5 3.3a3 3 0 0 1-1-.2l-1.4 3.8a7 7 0 0 0 2.4.4v-4Zm-1-.2c-.3 0-.4-.2-.5-.3l-2.7 3a4 4 0 0 0 1.9 1l1.3-3.7Zm-.5-.3-.4-.3-3.4 2 1.1 1.4 2.7-3Zm-1 2.3 1.1-.7-2.3-3.3-1 .8 2.3 3.2Zm-1.6-1.1.6.6 3-2.6-.4-.5-3.2 2.5Zm.6.6c.4.5.9.8 1.4 1l1.7-3.6h-.2l-3 2.6Zm1.4 1a5 5 0 0 0 2 .5v-4a2 2 0 0 1-.3 0l-1.7 3.5Zm2 .5c1.1 0 2.2-.3 3-1l-2.4-3.1h-.5v4Zm3-1c1.1-.8 1.5-2 1.5-3.1h-4v.1l.1-.1 2.4 3.2Zm1.5-3.1v-1.8h-4v1.8h4Zm-2-3.8v4-4Zm-1.8 1-.3.4 3.2 2.4.5-.8-3.4-2Zm-.3.4h-.1l1.9 3.6c.5-.3 1-.7 1.4-1.2l-3.2-2.4Zm-.1 0h-.4v4c.7 0 1.5 0 2.3-.4l-2-3.6Zm-.4 0c-.4 0-.7 0-1-.2l-2 3.5c1 .5 2 .8 3 .8v-4Zm-1-.2-.5-.6-3.5 1.8a5 5 0 0 0 2 2.3l2-3.5Zm-.5-.6-.2-1.4h-4a7 7 0 0 0 .7 3.2l3.5-1.8Zm-.2-1.4c0-.7 0-1.1.2-1.5l-3.6-1.7c-.4 1-.6 2-.6 3.2h4Zm.2-1.5c.2-.4.4-.6.6-.7L30 89c-1 .6-1.6 1.4-2 2.4l3.5 1.7Zm.6-.7c.2-.2.5-.2.9-.2v-4c-1.1 0-2.1.2-3 .8l2.1 3.4Zm.9-.2h.3c.1 0 .1 0 0 0l2-3.5c-.7-.4-1.6-.5-2.3-.5v4Zm.4 0c.1 0 .1.1.1 0l3.2-2.3a4 4 0 0 0-1.4-1.2l-2 3.5Zm.1.1.4.4 3.3-2.1a11 11 0 0 0-.5-.7l-3.2 2.4Zm2 1.4h.2v-4h-.2v4Zm2.2-2v-1.4h-4v1.4h4Zm-2 .6h1.3v-4h-1.3v4Zm-.7-2v9h4v-9h-4Zm0 9c0 .4-.1.6-.2.6l3.3 2.4c.6-1 .9-2 .9-3h-4Zm-.2.6a1 1 0 0 1-.4.4l1.4 3.7a5 5 0 0 0 2.3-1.8l-3.3-2.3Zm-.4.4-1.2.2v4c.9 0 1.8-.2 2.6-.5l-1.4-3.7Zm-1.3-.6c.9 0 1.8-.2 2.5-.7l-2.2-3.4H33v4Zm2.5-.7c.8-.5 1.3-1.2 1.6-2l-3.7-1.5-.1.1 2.2 3.4Zm1.6-2c.3-.8.4-1.6.4-2.4h-4v.9L37 97Zm.4-2.4c0-.9 0-1.7-.4-2.4l-3.7 1.4.1 1h4Zm-.4-2.4c-.3-.8-.8-1.5-1.5-2l-2.4 3.2.2.2 3.7-1.4Zm-1.5-2c-.8-.6-1.7-.8-2.6-.8v4h.2l2.4-3.2Zm-2.6-.8c-.9 0-1.8.2-2.6.8l2.4 3.2h.2v-4Zm-2.6.8c-.7.5-1.2 1.2-1.5 2l3.7 1.5.2-.3-2.4-3.2Zm-1.5 2c-.3.8-.4 1.6-.4 2.4h4l.1-1-3.7-1.4Zm-.4 2.4c0 .8.1 1.6.4 2.3l3.7-1.5-.1-.8h-4Zm.4 2.3c.4.8.9 1.5 1.6 2l2.3-3.3-.2-.2-3.7 1.5Zm1.6 2c.8.6 1.7.8 2.5.8v-4h-.2l-2.3 3.2Zm9.9 0-.9 1.8.9-1.8Zm-1-1-1.8 1.2 1.7-1.1Zm-.2-2.6 1.7 1-1.7-1Zm1.9-1.1.4 2-.4-2Zm1.2-.2-.3-2 .3 2Zm1.3-.2.2 2-.2-2Zm.7-.2-1-1.7 1 1.7Zm-.2-1.8-1.4 1.4 1.4-1.4Zm-2.9 0 1.2 1.5-1.2-1.5Zm-.8.9-.6 1.8c1 .4 2 0 2.4-1l-1.8-.8Zm-1.2-.5-1.9-.8a2 2 0 0 0 1.2 2.7l.7-1.9ZM40 91l1.2 1.5L40 91Zm1.2-.7.5 2-.5-2Zm2.3 0-.3 2 .3-2Zm1 .4-1 1.7 1-1.7Zm1 .9-1.8 1 1.7-1Zm.3 7.4v2a2 2 0 0 0 2-2h-2Zm-1.4 0h-2c0 1.1 1 2 2 2v-2Zm0-1.2h2a2 2 0 0 0-2-2v2Zm0 0v-2a2 2 0 0 0-1.8 1.2l1.8.8Zm-.5.6 1.4 1.4-1.4-1.4Zm-.8.6-.8-1.9.8 1.9Zm.2-1.3-1-1.8 1 1.8Zm.9-.8-1.8-1 1.8 1Zm.2-2.3h2a2 2 0 0 0-3.5-1.3l1.5 1.3Zm-.3.2.5 2-.5-2Zm-.7.1.3 2-.3-2Zm-.7.1.2 2-.2-2Zm-.6.1.3 2-.3-2Zm-1 .2.7 2-.6-2Zm-.7.5L39 94.4l1.4 1.4Zm.3 1.8-1.2 1.7 1.2-1.7Zm1-.4-.6-.1-1.7 3.6c.8.4 1.6.5 2.4.5v-4Zm-.6-.1a.6.6 0 0 1-.2-.2L37.6 99c.5.7 1.2 1.2 2 1.6l1.6-3.6Zm-.2-.2v-.4h-4c0 1 .1 1.8.6 2.6l3.4-2.2Zm0-.4v-.2h-.1l-3.4-2c-.4.7-.6 1.5-.6 2.2h4Zm-.1-.1L39 92.7a4 4 0 0 0-1.5 1.4l3.4 2.2Zm0 0 .6-.3-.8-3.9c-.6.1-1.1.3-1.7.6l2 3.5Zm.6-.3 1-.2-.5-4-1.4.3 1 4Zm1-.2 1.3-.1-.4-4-1.4.2.6 4Zm1.3-.1c.4 0 1-.2 1.5-.5l-2-3.4.2-.1h-.1l.4 4Zm1.5-.4c1-.6 1.2-1.5 1.2-2.2h-4c0-.2 0-.4.2-.7l.6-.6 2 3.5Zm1.2-2.2h-4 4Zm0 0c0-1-.2-2-1-2.8l-2.8 2.8a.6.6 0 0 1-.2-.2v.1h4Zm-1-2.8c-.8-.8-1.9-1-2.8-1v4h.2-.1l-.1-.2 2.8-2.8Zm-2.8-1c-1 0-1.9.1-2.7.8l2.4 3.1h.3v-4Zm-2.7.8c-.6.4-1 1-1.4 1.6l3.6 1.7.2-.2-2.4-3.1Zm1.1.6-1.3-.5-1.3 3.8 1.3.4 1.3-3.7Zm0 2.2.3-.5-2.5-3.1a5 5 0 0 0-1.5 2L41 93Zm.3-.5.5-.2-1-3.9c-.7.2-1.4.5-2 1l2.5 3.1Zm.5-.2.9-.1v-4c-.7 0-1.3 0-1.9.2l1 3.9Zm.9-.1h.6l.7-3.9-1.3-.1v4Zm.6 0 .4.2 2-3.5a5 5 0 0 0-1.7-.6l-.7 4Zm.4.2v.2l3.6-2c-.4-.6-.9-1.2-1.6-1.7l-2 3.5Zm0 .2.1.1v.5h4c0-.8 0-1.8-.5-2.6l-3.5 2Zm.2.7V99h4v-5.8h-4Zm2 3.7h-1.4v4H46v-4Zm.6 2v-1.2h-4V99h4Zm-2-3.2v4-4ZM42.7 97s0-.1 0 0h-.1l2.8 2.8c.4-.3.7-.7.9-1.1L42.7 97Zm-.1 0-.2.1 1.6 3.7c.5-.2 1-.5 1.4-1L42.6 97Zm-.2.1-.5.1v4c.7 0 1.4-.1 2-.4l-1.5-3.7ZM42 100c.8 0 1.6-.2 2.3-.6l-2-3.4H42v4Zm2.3-.6c.7-.3 1.2-.9 1.6-1.5l-3.5-2 2 3.5ZM46 98a4 4 0 0 0 .5-2h-4l3.5 2Zm.5-2v-1.3h-4v1.2h4ZM43 93.2a1.7 1.7 0 0 1 .5-.4h.1l1.1 3.8.6-.2c.2 0 .5-.3.8-.6l-3-2.6Zm.6-.4h-.4l.6 4 1-.2-1.2-3.8Zm-.4 0-.7.2.5 4 .8-.2-.6-4Zm-.6.2H42l.5 4h.5l-.4-4Zm-.6 0c-.5 0-1 .2-1.4.3l1.3 3.8.6-.1-.5-4Zm-1.4.3c-.5.2-1.1.5-1.5 1L42 97l-.1.1-1.3-3.8Zm-1.5 1c-.7.7-.8 1.5-.8 2.2h4v.2l-.3.3-3-2.7Zm-.8 2.2c0 1 .4 2 1.3 2.7L42 96a.9.9 0 0 1 .4.6h-4Zm1.3 2.7c.8.5 1.7.7 2.5.7v-4h-.2l-2.3 3.3Zm8.7-.3h-2c0 1.1 1 2 2 2v-2Zm0-8.7v-2a2 2 0 0 0-2 2h2Zm1.3 0h2a2 2 0 0 0-2-2v2Zm0 1.3h-2c0 1.1 1 2 2 2v-2Zm.1 0v2a2 2 0 0 0 2-1.2l-2-.8Zm1-1 1 1.6-1-1.6Zm2.8 0-1.1 1.6 1.1-1.6Zm1 1-1.9.9a2 2 0 0 0 1.8 1.1v-2Zm0 0v2a2 2 0 0 0 1.8-1l-1.8-1Zm1-1 1 1.7-1-1.7Zm3.5.3-1.4 1.4L59 91Zm.8 8.1v2a2 2 0 0 0 2-2h-2Zm-1.4 0h-2c0 1.1 1 2 2 2v-2Zm-.5-7.2-1.2 1.6 1.2-1.6Zm-2.7.1 1.5 1.4-1.5-1.4Zm-.5 7.1v2a2 2 0 0 0 2-2h-2Zm-1.3 0h-2c0 1.1.9 2 2 2v-2Zm-.5-7.2-1.4 1.5 1.4-1.5Zm-2.2-.2-1-1.7 1 1.7Zm-.8.8-1.7-1 1.7 1Zm-.2 6.6v2a2 2 0 0 0 2-2h-2Zm.6 0v-8.7h-4V99h4Zm-2-6.7h1.3v-4h-1.3v4Zm-.7-2v1.3h4v-1.3h-4Zm2 3.3h.1v-4 4Zm2-1.2.1-.2-2.1-3.3c-.8.5-1.4 1.2-1.7 2l3.7 1.5Zm.1-.2h.4v-4c-.9 0-1.8.2-2.6.7l2.2 3.3Zm.4 0h.2s.1 0 0 0l2.3-3.3c-.7-.5-1.6-.7-2.5-.7v4Zm.3 0 .2.3 3.6-1.7c-.3-.8-.8-1.4-1.6-2l-2.2 3.4Zm2 1.4h.1v-4 4Zm2-1 .1-.3-2-3.5c-.8.5-1.4 1.1-1.8 2l3.6 1.7Zm.2-.3.5-.1v-4a5 5 0 0 0-2.6.6l2 3.5Zm.5-.1.5.1 2.8-2.8c-.9-1-2-1.3-3.3-1.3v4Zm.5.1s.2.1.2.9h4a5 5 0 0 0-1.4-3.7l-2.8 2.8Zm.2.9V99h4v-5.8h-4Zm2 3.8h-1.4v4h1.4v-4Zm.6 2v-5.8h-4V99h4Zm0-5.8c0-1-.2-2.2-1.2-3l-2.5 3.2a.8.8 0 0 1-.3-.4v.2h4Zm-1.2-3a4 4 0 0 0-2.5-.8v4l2.5-3.2Zm-2.5-.8c-1 0-2.1.3-3 1.2l3 2.7a.4.4 0 0 1-.1 0v-4Zm-3 1.2a4 4 0 0 0-1 2.7h4l-3-2.7Zm-1 2.7V99h4v-5.7h-4Zm2 3.7h-1.3v4h1.3v-4Zm.7 2v-6h-4v6h4Zm0-6c0-1-.4-1.9-1.1-2.6l-2.8 2.9-.1-.2s0-.1 0 0h4Zm-1.1-2.6c-.8-.7-1.7-1-2.6-1v4a.4.4 0 0 1-.2-.1l2.8-3Zm-2.6-1a4 4 0 0 0-2 .5l2 3.4v-4Zm-2 .5c-.7.4-1.2 1-1.5 1.5l3.5 2-2-3.5Zm-1.5 1.5a4 4 0 0 0-.5 2.1h4a.6.6 0 0 1 0-.1l-3.5-2Zm-.5 2.1V99h4v-5.5h-4Zm2 3.5h-1.4v4h1.4v-4Zm14 1.6-1 1.7 1-1.7ZM62.3 97l-1.8.8 1.8-.8Zm0-4.8-1.8-.8 1.8.8Zm1.4-1.6 1 1.7-1-1.7Zm3.4-.3.7-2-.7 2Zm1.2.7L67 92.6l1.3-1.5Zm.9 1.4 1.9-.8-2 .8Zm.3 2.6v2a2 2 0 0 0 2-2h-2Zm-6.7 0h-2c0 1.1.9 2 2 2v-2Zm0-1.2v-2a2 2 0 0 0-2 2h2Zm5.3 0v2a2 2 0 0 0 2-2h-2Zm-.2-1.3-1.8 1 1.8-1Zm-.9-.9-1 1.7 1-1.7Zm-2.6 0 1.1 1.7-1.1-1.6Zm-1 1-1.7-.8 1.8.9Zm.1 3.9-1.8.9 1.8-1Zm1 1-1 1.8 1-1.8Zm2.4.2.6 2-.6-2Zm.7-.4 1.4 1.4-1.4-1.4Zm.5-.8.5-2a2 2 0 0 0-2.4 1.3l1.9.7Zm1.3.4 1.9.6a2 2 0 0 0-1.4-2.5l-.5 1.9Zm-.7 1.1 1.4 1.4-1.4-1.4Zm-1.2.8.7 1.9-.7-1.9Zm-1.6-1.7c-.5 0-.9-.1-1.1-.3l-2.1 3.4c1 .6 2 .9 3.2.9v-4Zm-1.1-.3c-.3-.1-.5-.4-.7-.7l-3.6 1.7c.5 1 1.2 1.8 2.2 2.4l2-3.4Zm-.7-.7a3 3 0 0 1-.3-1.5h-4c0 1.1.2 2.2.7 3.2l3.6-1.7Zm-.3-1.5c0-.6.1-1.1.3-1.5l-3.6-1.7c-.5 1-.7 2-.7 3.2h4Zm.3-1.5c.2-.4.4-.6.7-.8L62.6 89c-1 .6-1.6 1.4-2 2.4l3.5 1.7Zm.7-.8 1-.2v-4c-1.2 0-2.2.2-3.2.9l2.2 3.3Zm1-.2h.7l1.3-3.7-2-.3v4Zm.7 0 .5.4 2.7-3c-.6-.5-1.2-.9-2-1.1l-1.2 3.8Zm.5.4.3.6 3.8-1.5c-.3-.7-.8-1.5-1.4-2l-2.7 3Zm.3.6.2 1.3h4c0-1-.1-1.9-.4-2.8l-3.8 1.5Zm.2 1.3v.6h4v-.6h-4Zm2-1.4h-6.7v4h6.7v-4Zm-4.7 2v-1.2h-4V95h4Zm-2 .8H68v-4h-5.3v4Zm7.3-2c0-.7-.1-1.5-.5-2.2l-3.5 1.8v.4h4Zm-.5-2.2c-.3-.7-.8-1.3-1.5-1.7L66 93.4v.1l3.6-1.8ZM68.1 90c-.7-.4-1.5-.6-2.3-.6v4h.1l2.2-3.4Zm-2.3-.6a4 4 0 0 0-2.5.7l2.2 3.3h.3v-4Zm-2.5.7c-.7.5-1.2 1-1.6 1.8l3.6 1.8.2-.3-2.2-3.3Zm-1.6 1.8a5 5 0 0 0-.5 2.2h4v-.4l-3.5-1.8Zm-.5 2.2v.8h4v-.8h-4Zm0 .8c0 .9.1 1.8.5 2.6l3.6-1.8-.1-.8h-4Zm.5 2.6c.4.8 1 1.4 1.8 1.9l2-3.5-.2-.2-3.6 1.8Zm1.8 1.9a5 5 0 0 0 2.4.6v-4l-.4-.1-2 3.5Zm2.4.6 1.6-.3-1.3-3.8h-.3v4Zm1.6-.3a4 4 0 0 0 1.5-.9L66.2 96l1.3 3.8Zm1.5-.9c.4-.4.7-1 1-1.5L66.2 96l2.8 2.9Zm-1.5-.3 1.3.4 1.1-3.8-1.3-.4-1 3.8Zm0-2.1-.2.3 2.8 2.8c.6-.5 1-1.2 1.2-2l-3.8-1.1Zm-.2.3c-.1.1-.3.3-.5.3l1.4 3.8c.7-.3 1.4-.7 2-1.3l-3-2.8Zm-.5.3-.9.2v4c.8 0 1.6-.1 2.3-.4L66.8 97Z" mask="url(#c)"/>
</svg>
