<svg xmlns="http://www.w3.org/2000/svg" xmlns:xlink="http://www.w3.org/1999/xlink" fill="none" viewBox="0 0 100 103">
  <defs>
    <path id="a" fill="#fff" d="M0 6.3h100v87H0v-87Z"/>
  </defs>
  <mask id="b" width="100" height="88" x="0" y="6" maskUnits="userSpaceOnUse" style="mask-type:luminance">
    <use xlink:href="#a"/>
  </mask>
  <g mask="url(#b)">
    <path fill="#000" d="M100 61.3c-.3-.9-.8-1.6-1.7-1.8C95 58 87.9 60.8 85.9 62c-2.4 0-5.4 0-7.6 1.3-2.4 1.2-4.6 4-3.9 6.8.4 1.4 1.3 2.6 2 3.5.7.7 1.2 1.3 1.5 2.1 1.8 3.4 0 7.8-3.1 9.8a16.4 16.4 0 0 1-11 2.2C60 87.5 56.5 87 53 86c-2.7-.5-5.1-1-7.6-1.3a25.6 25.6 0 0 0-18.3 2.8l-2 1.5c-1.4 1-2.7 2-4.2 2.6a14 14 0 0 1-8.4-.2c-3-.8-6.6-2.4-7.4-5.6C4 81.5 9 78 10.4 77c3.8-2.3 8-3.9 12.4-4.6h1c2.6-.5 5.7-.9 7.4-3.2h1.6c1.3 0 2.5 0 3.7-.4 1.9.3 4 .4 6 .4h7.2c12.6 0 22.7-14.1 22.7-31.4 0-17.4-10.1-31.5-22.7-31.5h-4.5c-3 0-6 0-8.8.4a17 17 0 0 0-4.1-.3h-3.5c-4.8-.1-10.3-.2-13.7 1.9C4.4 14 .4 26.9 0 37.1c0 10.4 3.6 23.8 14.6 30 2.8 2 7.2 2.2 11.3 2.2h3.9c-1.5 1.4-4 1.8-6.3 2.2h-1a33 33 0 0 0-12.6 4.8c-1.7 1-7 4.8-6 9.7 1 3.7 5 5.6 8.3 6.5 1.3.3 3.2.8 5.2.8a11 11 0 0 0 3.7-.6c1.6-.7 3.2-1.7 4.5-2.8l2-1.6c5.4-3 11.6-4 17.6-2.7l7.5 1.3a72 72 0 0 0 11 1.9c4.9.3 8.7-.5 11.7-2.7 3.2-2.1 5.3-7 3.3-10.9-.4-.8-1-1.5-1.6-2.1-.8-1-1.5-2-1.9-3.1-.5-2.4 1.4-4.8 3.4-5.9 2.1-1 4.6-1.2 7-1.2.3.8 1.4 2.3 5.1 2.6h.8c3.2 0 6.4-1 7.7-2.4.7-.7.7-1.4.6-1.8h.1Zm-1.3 1.1c-1.1 1-4.2 2.3-7.8 2-3.3 0-4-1.3-4.2-1.7 2.1-1.4 8.6-3.5 11.2-2.4.6.2.9.6 1 1.3 0 .1 0 .4-.4.8h.2Z"/>
  </g>
  <path fill="#1E7CDE" d="M42.5 68.7c-3.7 0-8.2-.2-11.2-2C20.7 60.5 17.1 47.3 17.2 37c.3-10 4.1-22.7 14.7-28.2C34.5 7.1 38.5 7 42.1 7h3.2l-2.9 1c-3.8 1.9-7 4.8-9.3 8.4A33.9 33.9 0 0 0 30 22v.3l-.1.4-.2.3-.1.4v.1c-2.2 5.8-3 12-2.4 18.3v.4c.5 5.2 2.1 10.3 4.7 14.9a24 24 0 0 0 9.3 9.7 15 15 0 0 0 4.3 1.8h-3Zm-16.5 0c-3.6 0-8.3-.2-11-2C4.2 60.4.6 47.2.7 36.9.9 27 4.9 14.3 15.5 8.8 18 7.1 22 6.9 25.7 6.9H29a21.9 21.9 0 0 0-12.4 9.5 40.8 40.8 0 0 0-1.3 40.7 22.7 22.7 0 0 0 13.9 11.4H26v.2Z"/>
  <path fill="#1E7CDE" d="M15 66.7C4.2 60.4.6 47.2.7 36.9c.3-10 4.1-22.6 14.7-28.1a20 20 0 0 1 10.2-1.9H29a21.9 21.9 0 0 0-12.4 9.5 40.8 40.8 0 0 0-1.3 40.7 22.7 22.7 0 0 0 13.9 11.4c-4.8 0-10.7.3-14.2-2v.2ZM42 7c-3.8 0-7.7.2-10.2 1.8-10.6 5.5-14.4 18.2-14.7 28-.1 10.4 3.5 23.6 14.1 29.6 3.5 2.3 9.4 2.3 14 2.2-1.5-.4-3-1-4.4-1.8-4-2.3-7.2-5.6-9.3-9.7a39 39 0 0 1-4.5-15V42c-.7-6.2 0-12.5 2.2-18.3l.3-.5c0-.3.2-.5.3-.7v-.3l.2-.5c.8-1.7 1.8-3.5 2.8-5A23 23 0 0 1 45.2 7h-3Z"/>
  <path fill="#32B9CC" d="M49.7 68.7c-12.2 0-22.2-13.9-22.2-30.8 0-17 10-30.8 22.2-30.8S72 20.9 72 37.9c0 16.9-10 30.8-22.2 30.8Zm.8-55.8c-10 0-18.1 11.2-18.1 25 0 13.7 8.1 24.9 18.1 24.9 10.2 0 18.3-11.2 18.3-25 0-13.7-8.1-24.9-18.3-24.9ZM33.3 68.7H32l.4-1 2.6 1h-1.6Zm-2.6-.3c-2.2-.4-4.3-1.2-6.2-2.3A27.6 27.6 0 0 1 14.4 54a38 38 0 0 1-3-11.8v-.4A36 36 0 0 1 16 19c2.6-4.6 6-8 9.8-10 2.8-1.3 5.9-2 9-1.8a11 11 0 0 0-3.1 1.3C21 14.1 17 27 16.7 37.2c0 10.4 3.5 23.8 14.5 30l.1.1c0 .4-.3.8-.5 1.3v-.1Z"/>
  <path fill="#32B9CC" d="M34.7 68.7h-3l.4-1 2.7 1h-.1ZM32.7 7c-2.7.1-5 .8-7.1 1.8a24 24 0 0 0-9.7 9.9v.1c-4 7-5.5 15-4.7 22.8v.4a49 49 0 0 0 3 11.8A27 27 0 0 0 24.4 66a19 19 0 0 0 6.3 2.3l.5-1.2h-.1c-11-6.3-14.7-19.7-14.6-30.1.3-10.2 4.3-23.1 15.1-28.7 1-.6 2-1 3-1.3h-2ZM72 37.9c0 16.9-10 30.8-22.1 30.8-12.3 0-22.3-13.9-22.3-30.8 0-17 10-30.8 22.3-30.8C62 7 72 20.9 72 37.9Zm-3 0c0-13.8-8.2-25-18.3-25-10 0-18.2 11.2-18.2 25 0 13.7 8.2 24.9 18.2 24.9 10.1 0 18.2-11.2 18.2-25Z"/>
  <path fill="#E4CC95" d="M50.7 62.3c-9.8 0-17.6-11-17.6-24.4 0-13.4 7.8-24.4 17.4-24.4 9.8 0 17.6 10.9 17.6 24.4 0 13.3-7.8 24.4-17.6 24.4h.2Zm5.7-6h.3c.1 0 .2 0 .2-.3l-.6-11 8-1.7v-.5l-6.7-6.1 4-9.8c.1 0 0-.1 0-.2a.3.3 0 0 0-.3 0l-7.6 3L51 19.6s-.1-.3-.4-.3l-.2.3-2.8 10.1-7.6-3h-.3v.4l4 9.6-6.7 6.1v.5l8 1.8-.6 10.9a.3.3 0 0 0 .2.4l.3-.1 5.7-7.5 5.9 7.5Z"/>
  <path fill="#E4CC95" d="M50.7 13.5C40.9 13.5 33 24.4 33 37.9c0 13.3 7.8 24.4 17.4 24.4 9.8 0 17.6-11 17.6-24.4 0-13.4-7.8-24.4-17.6-24.4h.2Zm10.9 13.3s.1 0 0 .1l-4 9.8 6.7 6.1v.5l-8 1.8.6 10.9c0 .1 0 .3-.2.4l-.3-.1-5.9-7.5-5.7 7.5h-.3c-.1 0-.2 0-.2-.3l.6-11-8-1.7v-.5l6.7-6.1-4-9.8a.3.3 0 0 1 .3-.2l7.6 3 2.8-10.1a.3.3 0 1 1 .6 0l2.8 10.1 7.6-3h.3v.1Z"/>
  <path fill="#ECCB23" d="m50.8 48.3-.1-.3h-.2l-5.3 7 .4-10.3c0-.2 0-.3-.3-.3L38 42.8l6.2-6 .2-.4-3.8-9 7.1 3h.3l.1-.3 2.7-9.4 2.6 9.4a.3.3 0 0 0 .4.3l7.2-3-3.7 9v.4l6.4 6-7.5 1.6c-.1 0-.2 0-.2.3l.5 10.2-5.3-6.8-.3.2Z"/>
  <path fill="#ECCB23" d="m60.8 27.5-3.7 9v.4l6.4 6-7.5 1.6c-.1 0-.3 0-.3.3l.6 10.3-5.4-7h-.5l-5.3 7 .4-10.3c0-.1 0-.3-.3-.3L37.7 43l6.3-6 .1-.4-3.7-9 7 3h.3l.2-.2 2.6-9.5 2.7 9.5.3.1h.2l7.1-3Z"/>
  <mask id="c" width="100" height="88" x="0" y="6" maskUnits="userSpaceOnUse" style="mask-type:luminance">
    <use xlink:href="#a"/>
  </mask>
  <g fill="#000" mask="url(#c)">
    <path d="M17.3 93.3c-1.8 0-3.8-.5-5-.8C8.9 91.6 4.9 90 4 86c-1-5 4.3-8.7 6-9.7 3.7-2.4 8.1-4 12.7-4.7l.8-.1c2.4-.4 4.9-.8 6.4-2.3H26c-4 0-8.4-.1-11.3-2.1C3.7 60.9 0 47.5 0 37 .3 26.9 4.3 14 15 8.4c3.3-1.6 7-2.3 10.6-2h7.5l3.2.4a34 34 0 0 1 5.7-.4h7.9c12.5 0 22.6 14.1 22.6 31.5 0 17.3-10.1 31.4-22.6 31.4h-4.6c-4 .2-8.1.2-12.2 0h-1.9c-1.9 2.3-5 2.7-7.6 3.1l-1 .1c-4.3.7-8.5 2.3-12.2 4.6-1.6 1-6.5 4.4-5.5 8.8.7 3.2 4.4 4.8 7.5 5.6 1.2.4 3 .8 5 .8 1.3 0 2.3-.2 3.4-.6 1.5-.6 2.7-1.6 4.1-2.6l2.2-1.6c3.7-2.3 8-3.5 12.5-3.4 4.5.4 9 1 13.3 1.9 4.2 1 8.4 1.6 12.7 1.9 3.7 0 6.8-.8 9-2.4 3-2 5-6.4 3.1-9.8-.2-.8-.8-1.3-1.3-2.1a7 7 0 0 1-2.1-3.5c-.7-2.8 1.3-5.6 3.8-6.8 2.4-1.3 5.4-1.3 7.6-1.3A24 24 0 0 1 96 59c.9 0 1.7 0 2.2.5 1 .2 1.5.9 1.6 1.8 0 .4 0 1.1-.5 1.8-1.3 1.3-4.5 2.4-7.7 2.4h-.8c-3.8-.3-4.8-1.8-5.1-2.6-2.7 0-5 .2-7 1.4-2 .9-4 3.3-3.4 5.7.3 1 1 2 1.9 3 .5.7 1.2 1.4 1.6 2.2 2 4-.2 8.8-3.4 11a16.8 16.8 0 0 1-9.7 2.7l-2-.1a72 72 0 0 1-11-1.9c-4.3-.8-8.6-1.4-13-1.7-5-.2-10 1.5-14 4.7a14 14 0 0 1-8.3 3.4Zm14-26.6c3 1.8 7.5 2 11.2 2h2.7a24 24 0 0 1-13.5-11.5L30 53.6a39.6 39.6 0 0 1-2.7-11.3l-.1-.4c-.7-6.2 0-12.5 2.2-18.3l.3-.5v-.4l.3-.4V22c.9-2 2-3.8 3-5.6 2.9-4.5 7.2-7.9 12.3-9.5h-3c-3.7 0-7.7.2-10.3 1.9-10.6 5.5-14.4 18.1-14.7 28-.1 10.4 3.5 23.6 14.1 29.6v.3Zm-16.4 0c2.8 1.8 7.5 2 11.1 2h3a22.7 22.7 0 0 1-13.7-11.4 41 41 0 0 1 1.2-40.6c2.3-3.5 6.3-8 12.4-9.5h-3.2c-3.6 0-7.6.1-10.2 1.9C4.9 14.4 1 27 .8 36.9.7 47.5 4.3 60.7 14.9 66.7ZM49.6 7C37.5 7 27.5 20.9 27.5 37.9c0 16.9 10 30.8 22.2 30.8S72 54.8 72 37.9c0-17-10-30.8-22.2-30.8h-.1ZM32.3 67.7l-.4.8 1.4.2h1.4l-2.7-1h.3Zm1-60.6h-.5a19 19 0 0 0-7 1.8 24 24 0 0 0-9.8 9.9v.1c-3.9 7-5.5 15-4.7 22.8v.4c.6 4.2 1.6 8.2 3.1 11.8a27 27 0 0 0 10.1 12.2 19 19 0 0 0 6.3 2.3l.5-1.2h-.1c-11-6.3-14.7-19.7-14.5-30.1.2-10.2 4.2-23.1 15-28.7 1-.6 2-1 3.1-1.3h-1.5ZM96 60a24 24 0 0 0-9.3 2.7c.2.4 1 1.6 4.4 1.7h.6c3.4 0 6-1 7-2 .4-.4.4-.7.4-1 0-.5-.4-.9-1.1-1.1l-2-.3Zm-45.3 2.8c-10 0-18.2-11.2-18.2-25 0-13.7 8.2-24.9 18.2-24.9 10.1 0 18.2 11.2 18.2 25 0 13.7-8.1 24.9-18.2 24.9Zm0-49.3c-9.6 0-17.5 10.9-17.5 24.4 0 13.3 7.9 24.4 17.5 24.4 9.7 0 17.6-11 17.6-24.4 0-13.4-7.9-24.4-17.6-24.4Zm6.1 42.9-.3-.1-5.8-7.5-5.8 7.5h-.2c-.2 0-.3 0-.3-.3l.7-11-8-1.7v-.5l6.6-6.1-4-9.8a.3.3 0 0 1 0-.3h.3l7.6 3.1 2.8-10.1a.3.3 0 1 1 .7 0l2.8 10.1 7.4-3h.3v.4l-4 9.6 6.7 6.1v.5l-8 1.8.6 10.9c0 .1 0 .3-.2.4h.1ZM44 36.5v.4l-6.4 6 7.5 1.6c.2 0 .2 0 .2.3l-.5 10.3 5.3-7a.3.3 0 0 1 .6 0l5.3 7-.4-10.3c0-.1 0-.3.3-.3l7.4-1.6-6.2-6-.2-.4 3.8-9-7.1 3h-.1c-.3 0-.3-.1-.3-.2l-2.7-9.5-2.6 9.5-.3.1a.3.3 0 0 1-.3 0l-7-3 3.7 9.1Z"/>
    <path d="M50.7 13c-10.2 0-18.3 11-18.3 24.8 0 13.7 8.1 24.9 18.1 24.9 10.2 0 18.3-11.2 18.3-25 0-13.7-8.1-24.9-18.3-24.9h.2ZM68 37.8c0 13.3-7.9 24.4-17.6 24.4-9.6 0-17.5-11-17.5-24.4 0-13.4 7.9-24.4 17.5-24.4 9.7 0 17.6 10.9 17.6 24.4Zm-14.4-8-2.8-10.3a.3.3 0 0 0-.7 0l-2.8 10.1-7.6-3h-.2v.4l4 9.6-6.7 6.1v.5l8 1.8-.7 10.9c0 .1 0 .3.3.4l.3-.1 5.7-7.5 5.9 7.5a.3.3 0 0 0 .5-.3l-.7-11 8-1.7a.3.3 0 0 0 0-.5l-6.6-6.1 4-9.8a.3.3 0 0 0-.3-.2l-7.6 3.2Zm3.3 6.6v.4l6.4 6-7.4 1.6c-.2 0-.3 0-.3.3l.5 10.3-5.3-7h-.5l-5.4 7 .4-10.3c0-.1 0-.3-.2-.3L37.6 43l6.3-6 .1-.4-3.7-9 7 3h.3l.1-.2 2.7-9.5 2.7 9.5.2.1h.3l7-3-3.7 9.1Zm43 24.8c0-.9-.7-1.6-1.6-1.8C95 58 87.9 60.8 85.9 62c-2.4 0-5.4 0-7.6 1.3-2.4 1.2-4.6 4-3.9 6.8.4 1.4 1.3 2.6 2 3.5.7.7 1.2 1.3 1.5 2.1 1.8 3.4 0 7.8-3.1 9.8a16.4 16.4 0 0 1-11 2.2C60 87.5 56.5 87 53 86c-2.7-.5-5.1-1-7.6-1.3a25.6 25.6 0 0 0-18.3 2.8l-2 1.5c-1.4 1-2.7 2-4.2 2.6a14 14 0 0 1-8.4-.2c-3-.8-6.6-2.4-7.4-5.6C4 81.5 9 78 10.4 77c3.8-2.3 8-3.9 12.4-4.6h1c2.6-.5 5.7-.9 7.4-3.2h1.6c1.3 0 2.5 0 3.7-.4 1.9.3 4 .4 6 .4h7.2c12.6 0 22.7-14.1 22.7-31.4 0-17.4-10.1-31.5-22.7-31.5h-4.5c-3 0-6 0-8.8.4a17 17 0 0 0-4.1-.3h-3.5c-4.8-.1-10.3-.2-13.7 1.9C4.4 14 .4 26.9 0 37.1c0 10.4 3.6 23.8 14.6 30 2.8 2 7.2 2.2 11.3 2.2h3.9c-1.5 1.4-4 1.8-6.3 2.2h-1a33 33 0 0 0-12.6 4.8c-1.7 1-7 4.8-6 9.7 1 3.7 5 5.6 8.3 6.5 1.3.3 3.2.8 5.2.8a11 11 0 0 0 3.7-.6c1.6-.7 3.2-1.7 4.5-2.8l2-1.6c5.4-3 11.6-4 17.6-2.7l7.5 1.3a72 72 0 0 0 11 1.9c4.9.3 8.7-.5 11.7-2.7 3.2-2.1 5.3-7 3.3-10.9-.4-.8-1-1.5-1.6-2.1-.8-1-1.5-2-1.9-3.1-.5-2.4 1.4-4.8 3.4-5.9 2.1-1 4.6-1.2 7-1.2.3.8 1.4 2.3 5.1 2.6h.8c3.2 0 6.4-1 7.7-2.4.7-.7.7-1.4.6-1.8Zm-85 5.4C4.3 60.4.7 47.2.8 36.9c.3-10 4.1-22.6 14.7-28.1a20 20 0 0 1 10.2-1.9H29a21.9 21.9 0 0 0-12.4 9.5 40.8 40.8 0 0 0-1.3 40.7 22.7 22.7 0 0 0 13.9 11.4c-4.8 0-10.7.3-14.2-2v.2Zm34.7 2c-12.1 0-22.1-13.9-22.1-30.8 0-17 10-30.8 22.2-30.8S72 20.9 72 37.9c0 16.9-10 30.8-22.2 30.8h-.1ZM42.4 8c-4.3 2-7.3 5.4-9.3 8.4A65.3 65.3 0 0 0 30 22v.3l-.1.4-.2.3-.1.4v.1c-2.2 5.8-3 12-2.4 18.3v.4c.5 5.2 2.1 10.3 4.7 14.9a24 24 0 0 0 9.3 9.7 15 15 0 0 0 4.3 1.8c-4.8 0-10.7.1-14-2C20.8 60.5 17.2 47.3 17.3 37c.3-10 4.2-22.7 14.7-28.2C34.5 7.2 38.4 7 42.3 7h3l-2.9 1Zm-9 60.6h-1.5l.4-1 2.6 1h-1.6ZM31.5 8.4c-10.7 5.6-14.7 18.5-15 28.7 0 10.4 3.5 23.8 14.5 30l.1.1c0 .4-.3.8-.5 1.3-2.2-.4-4.4-1.2-6.3-2.4-4.5-3-8-7.2-10.1-12.2a38 38 0 0 1-3-11.8V42c-.7-8 .8-15.9 4.4-23 2.7-4.5 6-8 9.9-10 2.8-1.4 6-2 9-1.8-1.1.4-2.2.8-3 1.3Zm67 54c-1 1-4 2.3-7.7 2-3.3 0-4-1.3-4.2-1.7 2.1-1.4 8.6-3.5 11.2-2.4.6.2.9.6 1 1.3 0 .1 0 .4-.4.8Z"/>
  </g>
  <mask id="d" width="48" height="20" x="25" y="85" fill="#000" maskUnits="userSpaceOnUse">
    <path fill="#fff" d="M25 85h48v20H25z"/>
    <path d="M27.7 87.4h1.6l3.2 5.4h.2l3.2-5.4h1.6l-4.2 6.8V99h-1.4v-4.8l-4.2-6.8Zm13.8 11.8A3.8 3.8 0 0 1 38 97a6 6 0 0 1 0-4.8 3.5 3.5 0 0 1 3.4-2.1c.8 0 1.5.1 2.1.5.6.4 1 1 1.4 1.6.3.7.5 1.5.5 2.4 0 .9-.2 1.7-.5 2.3-.3.7-.8 1.2-1.4 1.6-.6.4-1.3.6-2 .6Zm0-1.2c.6 0 1-.2 1.4-.5.4-.3.7-.7.9-1.2a4.7 4.7 0 0 0 0-3.3c-.2-.5-.5-.9-.9-1.2-.4-.3-.8-.4-1.4-.4-.6 0-1.1.1-1.5.4-.4.3-.7.7-.9 1.3a4.6 4.6 0 0 0 0 3.3c.2.4.5.8.9 1.1.4.3.9.5 1.5.5Zm11-4.6v1.2h-5.1v-1.2h5Zm3.2 8.9a3 3 0 0 1-1-.2l.3-1.2.9.1c.3 0 .5-.1.7-.3l.5-1 .3-.7-3.3-8.7h1.5l2.4 7 2.5-7h1.4l-3.7 10c-.1.4-.3.8-.6 1-.2.4-.5.6-.8.8l-1.1.2ZM67 99.2a3.8 3.8 0 0 1-3.5-2.1 6 6 0 0 1 0-4.8 3.5 3.5 0 0 1 3.4-2.1c.8 0 1.5.1 2.1.5.6.4 1 1 1.4 1.6.3.7.5 1.5.5 2.4 0 .9-.2 1.7-.5 2.3-.3.7-.8 1.2-1.4 1.6-.6.4-1.3.6-2 .6Zm0-1.2c.6 0 1-.2 1.4-.5.4-.3.7-.7.9-1.2a4.7 4.7 0 0 0 0-3.3c-.2-.5-.5-.9-.9-1.2-.4-.3-.8-.4-1.4-.4-.6 0-1.1.1-1.5.4-.4.3-.7.7-.9 1.3a4.6 4.6 0 0 0 0 3.3c.2.4.5.8.9 1.1.4.3.9.5 1.5.5Z"/>
  </mask>
  <path fill="#000" d="M27.7 87.4h1.6l3.2 5.4h.2l3.2-5.4h1.6l-4.2 6.8V99h-1.4v-4.8l-4.2-6.8Zm13.8 11.8A3.8 3.8 0 0 1 38 97a6 6 0 0 1 0-4.8 3.5 3.5 0 0 1 3.4-2.1c.8 0 1.5.1 2.1.5.6.4 1 1 1.4 1.6.3.7.5 1.5.5 2.4 0 .9-.2 1.7-.5 2.3-.3.7-.8 1.2-1.4 1.6-.6.4-1.3.6-2 .6Zm0-1.2c.6 0 1-.2 1.4-.5.4-.3.7-.7.9-1.2a4.7 4.7 0 0 0 0-3.3c-.2-.5-.5-.9-.9-1.2-.4-.3-.8-.4-1.4-.4-.6 0-1.1.1-1.5.4-.4.3-.7.7-.9 1.3a4.6 4.6 0 0 0 0 3.3c.2.4.5.8.9 1.1.4.3.9.5 1.5.5Zm11-4.6v1.2h-5.1v-1.2h5Zm3.2 8.9a3 3 0 0 1-1-.2l.3-1.2.9.1c.3 0 .5-.1.7-.3l.5-1 .3-.7-3.3-8.7h1.5l2.4 7 2.5-7h1.4l-3.7 10c-.1.4-.3.8-.6 1-.2.4-.5.6-.8.8l-1.1.2ZM67 99.2a3.8 3.8 0 0 1-3.5-2.1 6 6 0 0 1 0-4.8 3.5 3.5 0 0 1 3.4-2.1c.8 0 1.5.1 2.1.5.6.4 1 1 1.4 1.6.3.7.5 1.5.5 2.4 0 .9-.2 1.7-.5 2.3-.3.7-.8 1.2-1.4 1.6-.6.4-1.3.6-2 .6Zm0-1.2c.6 0 1-.2 1.4-.5.4-.3.7-.7.9-1.2a4.7 4.7 0 0 0 0-3.3c-.2-.5-.5-.9-.9-1.2-.4-.3-.8-.4-1.4-.4-.6 0-1.1.1-1.5.4-.4.3-.7.7-.9 1.3a4.6 4.6 0 0 0 0 3.3c.2.4.5.8.9 1.1.4.3.9.5 1.5.5Z"/>
  <path fill="#fff" d="M27.7 87.4v-2a2 2 0 0 0-1.7 3l1.7-1Zm1.6 0 1.7-1a2 2 0 0 0-1.7-1v2Zm3.2 5.4-1.7 1c.4.6 1 1 1.7 1v-2Zm.2 0v2a2 2 0 0 0 1.7-1l-1.7-1Zm3.2-5.4v-2a2 2 0 0 0-1.7 1l1.7 1Zm1.6 0 1.7 1a2 2 0 0 0-1.7-3v2Zm-4.2 6.8-1.7-1a2 2 0 0 0-.3 1h2Zm0 4.8v2a2 2 0 0 0 2-2h-2Zm-1.4 0h-2c0 1.1.9 2 2 2v-2Zm0-4.8h2a2 2 0 0 0-.3-1l-1.7 1Zm-4.2-4.8h1.6v-4h-1.6v4Zm-.1-1 3.2 5.4 3.4-2-3.2-5.5-3.4 2Zm5 6.4v-4 4Zm1.8-1 3.2-5.4-3.4-2-3.3 5.4 3.5 2Zm1.5-4.4h1.6v-4h-1.6v4Zm-.1-3-4.2 6.8 3.4 2 4.2-6.8-3.4-2Zm-4.5 7.8V99h4v-4.8h-4Zm2 2.8h-1.4v4h1.4v-4Zm.6 2v-4.8h-4V99h4Zm-.3-5.8-4.2-6.9-3.4 2.1 4.2 6.9 3.4-2.1Zm5.8 5.4-1 1.7 1-1.7ZM38 97l-1.8 1 1.8-1Zm0-4.7-1.8-.9 1.8.9Zm1.4-1.6-1-1.7 1 1.7Zm4.1 0-1 1.7 1-1.7Zm1.4 1.6-1.8.9 1.8-.9Zm0 4.7-1.8-.8 1.8.8Zm-1.4 1.6-1-1.7 1 1.7Zm-.6-1L41.7 96l1.2 1.5Zm.9-1.3 1.9.7-2-.7Zm0-3.2 1.9-.7-2 .7Zm-.9-1.3 1.3-1.5-1.3 1.5Zm-3 0-1.2-1.5 1.3 1.5Zm-.8 1.3-1.9-.7 2 .7Zm0 3.2-1.9.7 2-.7Zm.9 1.2 1.2-1.5-1.2 1.5Zm1.5-.3c-.5 0-.8-.1-1-.3l-2.2 3.4c1 .6 2 .9 3.2.9v-4Zm-1-.3c-.3-.1-.5-.4-.7-.7l-3.6 1.7c.5 1 1.2 1.8 2.1 2.4l2.2-3.4Zm-.7-.7c-.2-.4-.3-.9-.3-1.5h-4c0 1.1.2 2.2.7 3.2l3.6-1.7Zm-.3-1.5c0-.7.1-1.2.3-1.5l-3.6-1.8c-.5 1-.7 2.1-.7 3.3h4Zm.3-1.5c.2-.4.4-.6.7-.8L38.3 89c-1 .6-1.6 1.4-2.1 2.4l3.6 1.8Zm.6-.8 1-.2v-4c-1 0-2.1.2-3 .8l2 3.4Zm1-.2c.5 0 .8 0 1 .2l2.2-3.4c-1-.6-2-.8-3.1-.8v4Zm1 .2c.3.2.5.4.7.8l3.6-1.8c-.5-1-1.2-1.8-2.1-2.4l-2.1 3.4Zm.7.8c.2.3.3.8.3 1.5h4c0-1.2-.2-2.3-.7-3.3l-3.6 1.8Zm.3 1.5c0 .6-.1 1.1-.3 1.5l3.6 1.7c.5-1 .7-2 .7-3.2h-4Zm-.3 1.5-.6.7 2 3.4c1-.6 1.7-1.4 2.2-2.4l-3.6-1.7Zm-.7.7c-.2.2-.5.3-1 .3v4a6 6 0 0 0 3.2-.9L42.4 97Zm-1 3c1 0 2-.2 2.8-.8L41.7 96h-.2v4Zm2.8-.8c.7-.6 1.2-1.3 1.5-2.1l-3.8-1.4-.2.4 2.5 3Zm1.5-2.1c.2-.7.4-1.5.4-2.3h-4c0 .3 0 .7-.2 1l3.8 1.3Zm.4-2.3c0-.8-.2-1.6-.4-2.3l-3.8 1.3.2 1h4Zm-.4-2.3a4 4 0 0 0-1.5-2.1l-2.5 3 .2.4 3.8-1.3Zm-1.5-2.1c-.8-.7-1.8-1-2.7-1v4h.2s0 .1 0 0l2.5-3Zm-2.7-1c-1 0-2 .3-2.8 1l2.5 3c0 .1 0 0 0 0h.3v-4Zm-2.8 1c-.7.5-1.2 1.2-1.5 2l3.8 1.4c0-.2.1-.2.2-.3l-2.5-3.1Zm-1.5 2c-.2.8-.4 1.6-.4 2.4h4l.2-1-3.8-1.3Zm-.4 2.4c0 .8.2 1.6.4 2.3l3.8-1.4-.2-1h-4Zm.4 2.3c.3.8.8 1.5 1.5 2l2.5-3-.2-.4-3.8 1.4Zm1.5 2c.8.7 1.8 1 2.8 1v-4h-.3l-2.5 3Zm13.8-5.6h2a2 2 0 0 0-2-2v2Zm0 1.2v2a2 2 0 0 0 2-2h-2Zm-5.1 0h-2c0 1.1.9 2 2 2v-2Zm0-1.2v-2a2 2 0 0 0-2 2h2Zm3 0v1.2h4v-1.2h-4Zm2-.8h-5v4h5v-4Zm-3 2v-1.2h-4v1.2h4Zm-2 .8h5v-4h-5v4Zm7.7 6.8.4-2-.4 2Zm-.4 0-2-.6a2 2 0 0 0 1.1 2.3l.9-1.8Zm.3-1.3.5-2a2 2 0 0 0-2.4 1.5l2 .5Zm.9.1-.2-2 .2 2Zm.7-.3-1.4-1.4 1.4 1.4Zm.5-1 1.9.7-1.9-.7Zm.3-.7 1.8.7c.2-.4.2-.9 0-1.3l-1.8.6ZM54 90.3v-2a2 2 0 0 0-1.8 2.7l1.8-.7Zm1.5 0 1.9-.7a2 2 0 0 0-2-1.3v2Zm2.4 7-1.9.6a2 2 0 0 0 1.9 1.3v-2Zm0 0v2a2 2 0 0 0 2-1.4l-2-.7Zm2.5-7v-2a2 2 0 0 0-1.9 1.3l1.9.7Zm1.4 0 2 .7a2 2 0 0 0-2-2.7v2Zm-3.7 10-1.8-.7 1.8.7Zm-.6 1-1.5-1.2 1.5 1.3Zm-.8.8-.8-1.9.8 1.9Zm-1.1-1.8h-.2l-.8 3.9h1v-4Zm-.3 0h.2l-1.8 3.6.9.3.7-4Zm1.2 2.4.4-1.2-3.9-1.1-.3 1.2 3.8 1Zm-2 .2c.4 0 1 .2 1.5.1l-.4-4h-.2l-1 3.9Zm1.5.1a3 3 0 0 0 2-1l-3-2.7.3-.2h.3l.4 4Zm1.9-.9c.5-.5.8-1.1 1-1.7L55.2 99v.3c-.1 0-.1 0 0 0L58 102Zm1-1.7.2-.7-3.7-1.3-.3.6 3.8 1.4Zm.2-2L56 89.6 52.3 91l3.2 8.7 3.7-1.3Zm-5-6.1h1.4v-4H54v4Zm-.5-1.4 2.4 7 3.8-1.3-2.4-7-3.8 1.3Zm4.3 8.3v-4 4Zm2-1.3 2.4-7-3.8-1.3-2.4 7 3.8 1.3Zm.5-5.6h1.4v-4h-1.4v4Zm-.4-2.7-3.7 10L60 101l3.7-10-3.7-1.4Zm-3.7 10-.3.5 3 2.6c.5-.5.8-1.1 1-1.7l-3.7-1.4Zm-.3.5-.1.1 1.6 3.7c.6-.3 1.1-.7 1.6-1.2L56 100Zm-.1.1h-.3v4c.6 0 1.3 0 1.9-.3l-1.6-3.7Zm8.9-1.6-1 1.7 1-1.7ZM63.5 97l-1.8 1 1.8-1Zm0-4.7-1.8-.9 1.8.9Zm1.4-1.6-1-1.7 1 1.7Zm4.1 0-1 1.7 1-1.7Zm1.4 1.6-1.8.9 1.8-.9Zm0 4.7-1.8-.8 1.8.8ZM69 98.6 68 97l1 1.7Zm-.6-1L67.2 96l1.2 1.5Zm.9-1.3 1.9.7-2-.7Zm0-3.2 1.9-.7-2 .7Zm-.9-1.3 1.3-1.5-1.3 1.5Zm-3 0-1.2-1.5 1.3 1.5Zm-.8 1.3-1.9-.7 2 .7Zm0 3.2-1.9.7 2-.7Zm.9 1.2 1.2-1.5-1.2 1.5Zm1.5-.3c-.5 0-.8-.1-1-.3l-2.2 3.4c1 .6 2 .9 3.2.9v-4Zm-1-.3c-.3-.1-.5-.4-.7-.7l-3.6 1.7c.5 1 1.2 1.8 2.1 2.4L66 97Zm-.7-.7c-.2-.4-.3-.9-.3-1.5h-4c0 1.1.2 2.2.7 3.2l3.6-1.7Zm-.3-1.5c0-.7.1-1.2.3-1.5l-3.6-1.8c-.5 1-.7 2.1-.7 3.3h4Zm.3-1.5c.2-.4.4-.6.7-.8L63.8 89c-1 .6-1.6 1.4-2.1 2.4l3.6 1.8Zm.6-.8 1-.2v-4c-1 0-2.1.2-3 .8l2 3.4Zm1-.2c.5 0 .8 0 1 .2l2.2-3.4c-1-.6-2-.8-3.1-.8v4Zm1 .2c.3.2.5.4.7.8l3.6-1.8c-.5-1-1.2-1.8-2.1-2.4L68 92.4Zm.7.8c.2.3.3.8.3 1.5h4c0-1.2-.2-2.3-.7-3.3l-3.6 1.8Zm.3 1.5c0 .6-.1 1.1-.3 1.5l3.6 1.7c.5-1 .7-2 .7-3.2h-4Zm-.3 1.5-.6.7 2 3.4c1-.6 1.7-1.4 2.2-2.4l-3.6-1.7Zm-.7.7c-.2.2-.5.3-1 .3v4a6 6 0 0 0 3.2-.9L67.9 97Zm-1 3c1 0 2-.2 2.8-.8L67.2 96H67v4Zm2.8-.8c.7-.6 1.2-1.3 1.5-2.1l-3.8-1.4-.2.4 2.5 3Zm1.5-2.1c.2-.7.4-1.5.4-2.3h-4c0 .3 0 .7-.2 1l3.8 1.3Zm.4-2.3c0-.8-.2-1.6-.4-2.3l-3.8 1.3.2 1h4Zm-.4-2.3a4 4 0 0 0-1.5-2.1l-2.5 3 .2.4 3.8-1.3Zm-1.5-2.1c-.8-.7-1.8-1-2.7-1v4h.2s0 .1 0 0l2.5-3Zm-2.7-1c-1 0-2 .3-2.8 1l2.5 3c0 .1 0 0 0 0h.3v-4Zm-2.8 1c-.7.5-1.2 1.2-1.5 2l3.8 1.4c0-.2.1-.2.2-.3l-2.5-3.1Zm-1.5 2c-.2.8-.4 1.6-.4 2.4h4l.2-1-3.8-1.3Zm-.4 2.4c0 .8.2 1.6.4 2.3l3.8-1.4-.2-1h-4Zm.4 2.3c.3.8.8 1.5 1.5 2l2.5-3-.2-.4-3.8 1.4Zm1.5 2c.8.7 1.8 1 2.8 1v-4h-.3l-2.5 3Z" mask="url(#d)"/>
</svg>
