<svg xmlns="http://www.w3.org/2000/svg" fill="none" viewBox="0 0 100 100">
  <mask id="a" width="84" height="70" x="8" y="28" maskUnits="userSpaceOnUse" style="mask-type:luminance">
    <path fill="#fff" d="M9 29h82.6v68.5H9V29Z"/>
  </mask>
  <g mask="url(#a)">
    <path fill="#EF3220" d="M91.3 52.4a27.8 27.8 0 0 1-12.5 19.7c-3.8 2.6-8.3 4.7-11.6 7.9a20 20 0 0 0-4 5.2c-.9 1.5-1.5 3.2-2.4 4.7-1.6 3-4.9 7.3-6.8 7.5-4.2.5-8.6-7.6-10.7-10.5-2.4-3.4-5.8-6-9.5-8.3-3.9-2.4-7.2-5.3-11.2-7.5-4-2.2-7.2-5.1-9.4-8.8-4-6.6-7.2-17 .6-22.4h.2a39.7 39.7 0 0 1 22.2-10c9.5-1.4 19.3-.6 28.8 1 4.8 1 9.5 2 14.2 3.3 4.2 1.1 8.6 2.7 10.6 6.5 1.8 3.5 2 8 1.5 11.7Z"/>
  </g>
  <path fill="#3A7BC7" d="M57.2 37.8 53 41.3l-9-1.8-.8-8.8 1.8-4.8c-.2-3.7-.5-7.5-.5-11.3 0-3.2 0-7.5 2.3-9.8 2.2-2.3 4.5-.7 5.4 2.3 1 3.3 1 7.2 1.3 10.7a404.4 404.4 0 0 1 .7 8.6l1.6 2.8 1.5 8.6Z"/>
  <path fill="#EA7E16" d="M43.5 17.6c2.9 1.5 7 .5 9.8-.5 1.8-.7 1-3.5-.7-2.9-1.5.6-3 1-4.5 1.2-1.4.2-3 0-4.3.5-.8.2-1 1.3-.3 1.7Zm47.3 23.2c0 3.3-1.8 6.5-4.1 8.5a26 26 0 0 1-9.3 5.3C73.7 56 68 56.3 64 56.7c-8.1.9-13.8 2-23.3 1.7-7.2-.2-15-1-22-3.5-5.5-1.9-12.9-7.8-9.3-15 3-6.2 10.5-9.2 16.5-10.7a117.8 117.8 0 0 1 19-3.3l.1 1.4c.2 3.2 0 7.6 1.8 9.8 2 2.5 7.7.2 7.7-1.7 0-2.3-.2-5.9-.5-9.4a157 157 0 0 1 22.3 2.3c3.5.6 7.1 1.4 10 3.7a11 11 0 0 1 4.5 8.8Z"/>
  <path fill="#F8E505" d="M23.8 43.8c5 2 10.7 1.7 15.9 1.7a53 53 0 0 0 14.6-1.3l3.4-.3c2-.2 3.9-.5 5.8-1 3.7-.6 7.3-1.5 10.2-3.8 2.4-2 4-6.2 0-7.3-1.9-.6-4-.7-6-.8-2 0-4.4 0-6.2.8-.8.4-.5 1.6.3 1.8 1.3.5 3 .4 4.4.5l4.8.3c.4 0 2 0 2.1.5.2.5-.5 1.2-.8 1.5-1 1-2.2 1.7-3.5 2.3A48 48 0 0 1 56.6 42l-14 .2c-4.6 0-9.2.2-13.7-.5-1.8-.2-4-.7-5.7-1.8-2-1.5.2-2.6 1.6-3.3 4.3-2 8.7-3.8 13.2-5.1 1-.3.5-1.5-.4-1.4-3 .5-5.9.9-8.8 1.7-2.3.7-5 1.4-7 2.7-1.8 1-3.2 2.9-2.7 5 .5 2.3 2.7 3.5 4.7 4.3Zm25.2-18c1.8.1 4.6.6 5.6-1.2.2-.2.2-.7 0-1-1.4-1-3.4-.4-5-.5-1.8-.1-3.8-1-5.5-.7-.4.2-.6.7-.4 1 1 1.7 3.6 2.1 5.3 2.3Zm40.4 34.7a28.6 28.6 0 0 1-8 10c-6.8 2-15.9 5.6-28 5.6-14.9 0-25.4-3.7-32.6-5.7A24.6 24.6 0 0 1 11 59.6c-.2-.5.3-1 .7-.7a85 85 0 0 0 40.7 9.2c17.2 0 29-4.3 36.2-8.2.4-.2.9.2.7.6Z"/>
  <path fill="#110F0D" d="M2 56.8h.2c2.5-1 5-1.7 7.6-2.3l-.4-1.4c-2.6.5-5.2 1.3-7.7 2.3-.4.1-.6.5-.4 1 0 .2.4.4.7.4Zm2.4 2.5c2.1-.7 4.3-1.2 6.4-1.7l-.5-1.4c-2.1.5-4.3 1-6.3 1.7-2.3.6-3.8 2-3.8 3.7-.1 1.8 1.6 3.4 5 4.7h.3c.3 0 .5-.2.7-.4.1-.4 0-.9-.5-1-2.6-1-4.1-2.2-4-3.3 0-.9 1.1-1.8 2.7-2.3Zm82.1-.6c.1.2.4.4.7.4l.3-.1c3.4-1.8 6.5-4 9.3-6.6a.7.7 0 0 0-1-1.1 42.5 42.5 0 0 1-9 6.4c-.3.2-.5.6-.3 1Zm13-3.8a.7.7 0 0 0-1 .1 22.8 22.8 0 0 1-9.5 7 67.4 67.4 0 0 1-11.6 3.5.7.7 0 1 0 .4 1.4c4-1 8-1.9 11.8-3.5a24 24 0 0 0 10-7.5c.3-.3.2-.8 0-1ZM42.8 89.2c-3.8.2-7.7 0-11.5-.5 2-1 4.2-1.8 6.4-2.3.4 0 .7-.5.6-.9 0-.4-.5-.6-.9-.5a30 30 0 0 0-6.9 2.4c-.7.3-1 .8-1 1.4 0 .7.6 1.2 1.6 1.3a68.9 68.9 0 0 0 11.8.6.7.7 0 1 0 0-1.5Zm0-52.3c.3.1 3 1.3 6.6 1.3a13 13 0 0 0 8.6-3 .7.7 0 1 0-1-1.1c-6 4.8-13.4 1.5-13.5 1.5a.7.7 0 0 0-1 .3c-.1.4 0 .8.4 1ZM80 48.3a179.2 179.2 0 0 1-38.8 4.3C16 52.6 8.3 46.4 8 46a.7.7 0 0 1 0-1c.2-.3.7-.4 1-.1.1 0 10 7.8 43.4 5.7 28.9-1.8 31.3-4.9 35.3-10 .7-1 1.4-2 2.4-3 .3-.3.7-.3 1 0 .3.2.3.7 0 1l-2.3 2.9c-2 2.6-3.8 4.9-8.8 6.7Z"/>
  <mask id="b" width="32" height="20" x="34" y="82" fill="#000" maskUnits="userSpaceOnUse">
    <path fill="#fff" d="M34 82h32v20H34z"/>
    <path d="M36.8 85.6v-1.2h8.7v1.2h-3.7V96h-1.4V85.6h-3.6Zm13 10.6a3.8 3.8 0 0 1-3.5-2.1 6 6 0 0 1 0-4.8 3.5 3.5 0 0 1 3.4-2.1c.9 0 1.5.1 2.1.5.6.4 1.1 1 1.4 1.6.4.7.5 1.5.5 2.4 0 .9-.1 1.7-.5 2.3-.3.7-.8 1.2-1.4 1.6-.5.4-1.2.6-2 .6Zm0-1.2c.6 0 1-.2 1.5-.5.3-.3.6-.7.8-1.2a4.7 4.7 0 0 0 0-3.3c-.2-.5-.5-.9-.9-1.2-.3-.3-.8-.4-1.4-.4-.6 0-1.1.1-1.5.4-.4.3-.7.7-.9 1.3l-.2 1.6c0 .6 0 1.1.2 1.6s.5 1 .9 1.2c.4.3.9.5 1.5.5Zm6 4.3v-12H57v1.4h.1l.4-.6.8-.7 1.4-.2a3.5 3.5 0 0 1 3.2 2 6.2 6.2 0 0 1 0 4.9c-.3.6-.7 1.2-1.3 1.5-.6.4-1.2.6-2 .6-.5 0-1-.1-1.3-.3l-.8-.6-.4-.6v4.6h-1.4Zm1.3-7.7c0 .7 0 1.3.3 1.8.2.5.5.9.8 1.2.4.2.9.4 1.4.4.6 0 1-.2 1.4-.5.4-.3.7-.7.8-1.2.2-.5.3-1 .3-1.7 0-.6 0-1.1-.2-1.6s-.5-1-.9-1.2c-.4-.3-.8-.4-1.4-.4a2.2 2.2 0 0 0-2.2 1.5c-.2.5-.3 1-.3 1.7Z"/>
  </mask>
  <path fill="#000" d="M36.8 85.6v-1.2h8.7v1.2h-3.7V96h-1.4V85.6h-3.6Zm13 10.6a3.8 3.8 0 0 1-3.5-2.1 6 6 0 0 1 0-4.8 3.5 3.5 0 0 1 3.4-2.1c.9 0 1.5.1 2.1.5.6.4 1.1 1 1.4 1.6.4.7.5 1.5.5 2.4 0 .9-.1 1.7-.5 2.3-.3.7-.8 1.2-1.4 1.6-.5.4-1.2.6-2 .6Zm0-1.2c.6 0 1-.2 1.5-.5.3-.3.6-.7.8-1.2a4.7 4.7 0 0 0 0-3.3c-.2-.5-.5-.9-.9-1.2-.3-.3-.8-.4-1.4-.4-.6 0-1.1.1-1.5.4-.4.3-.7.7-.9 1.3l-.2 1.6c0 .6 0 1.1.2 1.6s.5 1 .9 1.2c.4.3.9.5 1.5.5Zm6 4.3v-12H57v1.4h.1l.4-.6.8-.7 1.4-.2a3.5 3.5 0 0 1 3.2 2 6.2 6.2 0 0 1 0 4.9c-.3.6-.7 1.2-1.3 1.5-.6.4-1.2.6-2 .6-.5 0-1-.1-1.3-.3l-.8-.6-.4-.6v4.6h-1.4Zm1.3-7.7c0 .7 0 1.3.3 1.8.2.5.5.9.8 1.2.4.2.9.4 1.4.4.6 0 1-.2 1.4-.5.4-.3.7-.7.8-1.2.2-.5.3-1 .3-1.7 0-.6 0-1.1-.2-1.6s-.5-1-.9-1.2c-.4-.3-.8-.4-1.4-.4a2.2 2.2 0 0 0-2.2 1.5c-.2.5-.3 1-.3 1.7Z"/>
  <path fill="#fff" d="M36.8 85.6h-2c0 1.1.9 2 2 2v-2Zm0-1.2v-2a2 2 0 0 0-2 2h2Zm8.7 0h2a2 2 0 0 0-2-2v2Zm0 1.2v2a2 2 0 0 0 2-2h-2Zm-3.7 0v-2a2 2 0 0 0-2 2h2Zm0 10.4v2a2 2 0 0 0 2-2h-2Zm-1.4 0h-2c0 1.1 1 2 2 2v-2Zm0-10.4h2a2 2 0 0 0-2-2v2Zm-1.6 0v-1.2h-4v1.2h4Zm-2 .8h8.7v-4h-8.7v4Zm6.7-2v1.2h4v-1.2h-4Zm2-.8h-3.7v4h3.7v-4Zm-5.7 2V96h4V85.6h-4Zm2 8.4h-1.4v4h1.4v-4Zm.6 2V85.6h-4V96h4Zm-2-12.4h-3.6v4h3.6v-4Zm7.3 12-1 1.7 1-1.7ZM46.3 94l-1.8 1 1.8-1Zm0-4.7-1.8-.9 1.8.9Zm1.4-1.6-1-1.7 1 1.7Zm4.1 0-1 1.7 1-1.7Zm1.4 1.6-1.8.9 1.8-.9Zm0 4.7-1.8-.8 1.8.8Zm-1.4 1.6-1-1.7 1 1.7Zm-.5-1L50 93l1.3 1.5Zm.8-1.3 1.9.7-1.9-.7Zm0-3.2 1.9-.7-1.9.7Zm-.9-1.3 1.3-1.5-1.3 1.5Zm-2.9 0L47 87.3l1.3 1.5Zm-.9 1.3-1.8-.7 1.8.7Zm0 3.2-1.8.7 1.8-.7Zm.9 1.2 1.2-1.5-1.2 1.5Zm1.5-.3c-.5 0-.8-.1-1-.3l-2.2 3.4c1 .6 2 .9 3.2.9v-4Zm-1-.3c-.3-.1-.5-.4-.7-.7l-3.6 1.7c.5 1 1.2 1.8 2.1 2.4l2.2-3.4Zm-.7-.7c-.2-.4-.3-.9-.3-1.5h-4c0 1.1.2 2.2.7 3.2l3.6-1.7Zm-.3-1.5c0-.7.1-1.2.3-1.5l-3.6-1.8c-.5 1-.7 2.1-.7 3.3h4Zm.3-1.5c.2-.4.4-.6.7-.8L46.6 86c-.9.6-1.6 1.4-2 2.4l3.5 1.8Zm.7-.8 1-.2v-4a6 6 0 0 0-3.2.8l2.2 3.4Zm1-.2c.4 0 .7 0 1 .2l2.1-3.4c-1-.6-2-.8-3.1-.8v4Zm1 .2.6.8 3.6-1.8c-.5-1-1.2-1.8-2-2.4l-2.2 3.4Zm.6.8c.2.3.3.8.3 1.5h4c0-1.2-.2-2.3-.7-3.3l-3.6 1.8Zm.3 1.5c0 .6 0 1.1-.3 1.5l3.6 1.7c.5-1 .7-2 .7-3.2h-4Zm-.3 1.5c-.1.3-.4.6-.6.7l2.1 3.4c1-.6 1.6-1.4 2.1-2.4l-3.6-1.7Zm-.6.7c-.3.2-.6.3-1 .3v4c1 0 2.2-.3 3.1-.9L50.8 94Zm-1 3c1 0 1.9-.2 2.7-.8L50 93h-.2v4Zm2.7-.8c.7-.6 1.2-1.3 1.5-2.1l-3.8-1.4-.2.4 2.5 3ZM54 94c.3-.7.4-1.5.4-2.3h-4c0 .3 0 .7-.2 1L54 94Zm.4-2.3c0-.8-.1-1.6-.4-2.3l-3.8 1.3.2 1h4Zm-.4-2.3a4 4 0 0 0-1.5-2.1l-2.5 3 .2.4 3.8-1.3Zm-1.5-2.1c-.8-.7-1.8-1-2.7-1v4h.2s0 .1 0 0l2.5-3Zm-2.7-1c-1 0-2 .3-2.8 1l2.5 3c0 .1 0 0 0 0h.3v-4Zm-2.8 1c-.6.5-1.1 1.2-1.4 2l3.7 1.4c0-.2.2-.2.2-.3L47 87.3Zm-1.4 2c-.3.8-.4 1.6-.4 2.4h4l.1-1-3.7-1.3Zm-.4 2.4c0 .8 0 1.6.4 2.3l3.7-1.4-.1-1h-4Zm.4 2.3c.3.8.8 1.5 1.5 2l2.4-3-.2-.4-3.7 1.4Zm1.5 2a4 4 0 0 0 2.7 1v-4h-.3l-2.4 3Zm8.7 3.3h-2c0 1 .9 2 2 2v-2Zm0-12v-2a2 2 0 0 0-2 2h2Zm1.3 0h2a2 2 0 0 0-2-2v2Zm0 1.4h-2c0 1 .9 2 2 2v-2Zm.1 0v2a2 2 0 0 0 1.7-1l-1.7-1Zm.4-.6L56 86.9l1.6 1.2Zm.8-.7 1 1.8-1-1.8Zm3.3.3 1-1.7-1 1.7Zm1.3 1.6 1.8-.9-1.8.9Zm0 4.8 1.8.8-1.8-.8Zm-1.3 1.5 1.1 1.7-1.1-1.7Zm-3.3.3-1 1.7 1-1.7Zm-.8-.6L56 96.5l1.6-1.2Zm-.4-.6 1.7-1a2 2 0 0 0-1.7-1v2Zm0 0v-2a2 2 0 0 0-2 2h2Zm0 4.6v2a2 2 0 0 0 2-2h-2Zm.2-6-1.9.8 1.9-.7Zm.8 1.3L57 96l1.2-1.5Zm2.8 0 1.2 1.5-1.2-1.6Zm.8-1.3-1.8-.7 1.8.7Zm0-3.3-1.8.7 1.9-.7Zm-.8-1.2-1.2 1.6 1.2-1.6Zm-2.8 0 1.2 1.6-1.2-1.6Zm-.8 1.1 1.8.7-1.8-.7Zm.4 9.4v-12h-4v12h4Zm-2-10H57v-4h-1.3v4Zm-.7-2v1.4h4v-1.4h-4Zm2 3.4h.1v-4h-.1v4Zm1.8-1 .3-.4-3.2-2.4-.4.7 3.3 2.1Zm.3-.4.2-.1-2-3.5c-.5.3-1 .7-1.4 1.2l3.2 2.4Zm.2-.1h.4v-4c-.8 0-1.6 0-2.4.5l2 3.5Zm.4 0c.3 0 .6 0 .8.2l2.2-3.4c-1-.6-2-.8-3-.8v4Zm.8.2c.2.1.4.3.6.7l3.6-1.7c-.4-1-1.1-1.8-2-2.4l-2.2 3.4Zm.6.7c.2.4.3.9.3 1.6h4c0-1.2-.2-2.3-.7-3.3l-3.6 1.7Zm.3 1.6c0 .7-.1 1.2-.3 1.5l3.6 1.7c.5-1 .7-2 .7-3.2h-4Zm-.3 1.5-.6.8 2.2 3.3c.9-.6 1.6-1.4 2-2.4l-3.6-1.7Zm-.6.8-.8.2v4c1 0 2-.3 3-.9L60.6 94Zm-.8.2h-.4l-2 3.5c.8.4 1.6.5 2.4.5v-4Zm-.4 0-.2-.2-3.1 2.5c.3.5.8.9 1.3 1.1l2-3.4Zm-.2-.1-.3-.5-3.4 2.1.5.8 3.2-2.4Zm-2-1.4v4-4Zm-2 2v4.6h4v-4.6h-4Zm2 2.6h-1.4v4H57v-4ZM55 91.6c0 .9.1 1.7.4 2.5l3.7-1.4-.1-1h-4Zm.4 2.5c.3.8.8 1.5 1.5 2l2.4-3.1-.2-.3-3.7 1.4Zm1.5 2c.8.6 1.7.9 2.6.9v-4h-.2L57 96.2Zm2.6.9c1 0 1.8-.3 2.6-.9L59.8 93h-.2v4Zm2.6-.9c.7-.5 1.2-1.3 1.5-2L60 92.5l-.2.4 2.4 3.1Zm1.5-2c.3-.8.4-1.6.4-2.5h-4l-.1 1 3.7 1.4Zm.4-2.5c0-.8 0-1.6-.4-2.3L60 90.7l.1 1h4Zm-.4-2.3c-.3-.8-.8-1.5-1.5-2l-2.4 3 .2.4 3.7-1.4Zm-1.5-2c-.8-.7-1.7-1-2.6-1v4h.2l2.4-3Zm-2.6-1c-.9 0-1.8.3-2.6.9l2.4 3.2h.2v-4Zm-2.6.9c-.7.5-1.2 1.2-1.5 2l3.7 1.4.2-.2-2.4-3.2Zm-1.5 2c-.3.8-.4 1.6-.4 2.4h4l.1-1-3.7-1.4Z" mask="url(#b)"/>
</svg>
