<svg xmlns="http://www.w3.org/2000/svg" fill="none" viewBox="0 0 100 100">
  <mask id="a" width="28" height="34" x="0" y="4" maskUnits="userSpaceOnUse" style="mask-type:luminance">
    <path fill="#fff" d="M0 4.3h28v33H0v-33Z"/>
  </mask>
  <g mask="url(#a)">
    <path fill="#ED3552" fill-rule="evenodd" d="m0 36.5 27.9-6-5.6-26.2-11.1 16.1L0 36.5Z" clip-rule="evenodd"/>
  </g>
  <mask id="b" width="35" height="27" x="21" y="4" maskUnits="userSpaceOnUse" style="mask-type:luminance">
    <path fill="#fff" d="M21.3 4.3H56v26.4H21.3V4.3Z"/>
  </mask>
  <g mask="url(#b)">
    <path fill="#91C96F" fill-rule="evenodd" d="M22.3 4.3 28 30.6l27.9-6-16.9-10L22.3 4.3Z" clip-rule="evenodd"/>
  </g>
  <path fill="#42C4E5" fill-rule="evenodd" d="m55.8 24.7-28 5.9L38 78.4l8.9-26.9 8.9-26.8Z" clip-rule="evenodd"/>
  <path fill="#FBD12E" fill-rule="evenodd" d="M38 78.4 27.9 30.6 0 36.6l19 20.9 19 20.9Z" clip-rule="evenodd"/>
  <mask id="c" width="64" height="49" x="36" y="48" maskUnits="userSpaceOnUse" style="mask-type:luminance">
    <path fill="#fff" d="M36 48h64v48.3H36V48Z"/>
  </mask>
  <g mask="url(#c)">
    <path fill="#7F3727" fill-rule="evenodd" d="M51 95a8 8 0 0 1-5-2c-3.2-2.6-6-8-7.7-15.7l-.3 1.1-.9-.9c1.7 8 4.7 13.7 8.2 16.5a9 9 0 0 0 5.7 2.2 9 9 0 0 0 5.7-2.4c3.5-3.2 6.4-9.5 7.6-19.2 1.5-12.2 6.3-20 11.5-23.2 1.9-1.2 3.8-1.7 5.6-1.7 1.9 0 3.6.7 5.1 2 3.4 2.9 5.7 8.8 5.3 18l-.8 6.9c-1.2 7.5-2 13 7.5 16 1.1.3 1.5-.8.3-1.2-8.5-2.6-7.7-7.8-6.7-14.7.4-2.1.7-4.5.8-7 .5-9.6-2-15.8-5.6-19a9.4 9.4 0 0 0-5.8-2.2c-2.1 0-4.3.6-6.4 2-5.4 3.3-10.4 11.4-12 24-1.2 9.4-4 15.4-7.2 18.4a7.5 7.5 0 0 1-4.9 2Z" clip-rule="evenodd"/>
  </g>
  <mask id="d" width="33" height="17" x="34" y="85" fill="#000" maskUnits="userSpaceOnUse">
    <path fill="#fff" d="M34 85h33v17H34z"/>
    <path d="M36.5 99V87.4h1.4V93h.1l5.3-5.7H45l-4.9 5.2 5 6.4h-1.8l-4-5.4-1.5 1.6V99h-1.4Zm10.8 0v-8.7h1.3V99h-1.3Zm.7-10.2a1 1 0 0 1-.7-.2.9.9 0 0 1-.3-.7c0-.2.1-.5.3-.6.2-.2.4-.3.7-.3.2 0 .5 0 .7.3l.2.6c0 .3 0 .5-.2.7a1 1 0 0 1-.7.2Zm6.9 1.5v1.1h-4.5v-1.1h4.5Zm-3.2-2.1H53v8.3c0 .4 0 .7.2.9l.4.3.6.1h.6L55 99a2.7 2.7 0 0 1-1 .1c-.4 0-.8 0-1.2-.2L52 98c-.2-.3-.3-.7-.3-1.2v-8.7Zm8.8 11c-.9 0-1.6-.2-2.2-.6a4 4 0 0 1-1.4-1.5 6 6 0 0 1 0-4.8 3.7 3.7 0 0 1 3.4-2.2c.5 0 1 .1 1.4.3a3.3 3.3 0 0 1 2 2c.3.6.4 1.3.4 2.1v.6h-6.7v-1.2h5.3c0-.5 0-.9-.3-1.3a2.2 2.2 0 0 0-2-1.2c-.6 0-1 .1-1.4.4-.4.2-.7.6-1 1a3 3 0 0 0-.2 1.3v.8c0 .7 0 1.2.3 1.7.2.4.5.8 1 1 .4.3.8.4 1.4.4.3 0 .7 0 1-.2l.7-.4.5-.8 1.3.4-.7 1.1c-.4.4-.7.6-1.2.8-.5.2-1 .3-1.6.3Z"/>
  </mask>
  <path fill="#000" d="M36.5 99V87.4h1.4V93h.1l5.3-5.7H45l-4.9 5.2 5 6.4h-1.8l-4-5.4-1.5 1.6V99h-1.4Zm10.8 0v-8.7h1.3V99h-1.3Zm.7-10.2a1 1 0 0 1-.7-.2.9.9 0 0 1-.3-.7c0-.2.1-.5.3-.6.2-.2.4-.3.7-.3.2 0 .5 0 .7.3l.2.6c0 .3 0 .5-.2.7a1 1 0 0 1-.7.2Zm6.9 1.5v1.1h-4.5v-1.1h4.5Zm-3.2-2.1H53v8.3c0 .4 0 .7.2.9l.4.3.6.1h.6L55 99a2.7 2.7 0 0 1-1 .1c-.4 0-.8 0-1.2-.2L52 98c-.2-.3-.3-.7-.3-1.2v-8.7Zm8.8 11c-.9 0-1.6-.2-2.2-.6a4 4 0 0 1-1.4-1.5 6 6 0 0 1 0-4.8 3.7 3.7 0 0 1 3.4-2.2c.5 0 1 .1 1.4.3a3.3 3.3 0 0 1 2 2c.3.6.4 1.3.4 2.1v.6h-6.7v-1.2h5.3c0-.5 0-.9-.3-1.3a2.2 2.2 0 0 0-2-1.2c-.6 0-1 .1-1.4.4-.4.2-.7.6-1 1a3 3 0 0 0-.2 1.3v.8c0 .7 0 1.2.3 1.7.2.4.5.8 1 1 .4.3.8.4 1.4.4.3 0 .7 0 1-.2l.7-.4.5-.8 1.3.4-.7 1.1c-.4.4-.7.6-1.2.8-.5.2-1 .3-1.6.3Z"/>
  <path fill="#fff" d="M36.5 99h-2c0 1.1.9 2 2 2v-2Zm0-11.6v-2a2 2 0 0 0-2 2h2Zm1.4 0h2a2 2 0 0 0-2-2v2Zm0 5.7h-2c0 1.1 1 2 2 2v-2Zm.1 0v2a2 2 0 0 0 1.5-.6L38 93Zm5.3-5.7v-2a2 2 0 0 0-1.5.6l1.5 1.4Zm1.8 0 1.5 1.3a2 2 0 0 0-1.5-3.3v2Zm-4.9 5.2-1.4-1.3a2 2 0 0 0-.2 2.5l1.6-1.2Zm5 6.4v2a2 2 0 0 0 1.5-3.2L45.1 99Zm-1.8 0-1.6 1.2c.4.5 1 .8 1.6.8v-2Zm-4-5.4 1.6-1.2a2 2 0 0 0-3.1-.1l1.5 1.3Zm-1.5 1.6L36.4 94a2 2 0 0 0-.5 1.3h2Zm0 3.8v2a2 2 0 0 0 2-2h-2Zm.6 0V87.4h-4V99h4Zm-2-9.6h1.4v-4h-1.4v4Zm-.6-2V93h4v-5.7h-4Zm2 7.7h.1v-4 4Zm1.6-.6 5.3-5.8-3-2.7-5.2 5.8 3 2.7Zm3.8-5.1H45v-4h-1.8v4Zm.4-3.4-5 5.3 3 2.7 4.9-5.3-3-2.7Zm-5 7.8 4.8 6.4 3.2-2.4-4.9-6.4-3.2 2.4ZM45 97h-1.7v4H45v-4Zm0 .8-4-5.4-3.2 2.4 4 5.4 3.2-2.4Zm-7.2-5.5-1.5 1.6 3 2.7 1.5-1.7-3-2.6Zm-2 3V99h4v-3.8h-4Zm2 1.7h-1.4v4h1.4v-4Zm9.4 2h-2c0 1.1.9 2 2 2v-2Zm0-8.7v-2a2 2 0 0 0-2 2h2Zm1.3 0h2a2 2 0 0 0-2-2v2Zm0 8.7v2a2 2 0 0 0 2-2h-2Zm-1.3-10.4L46 90l1.4-1.4Zm0-1.3L46 85.8l1.4 1.5Zm1.4 0-1.4 1.4 1.4-1.4Zm0 1.3L47.3 87l1.4 1.5Zm.6 10.4v-8.7h-4V99h4Zm-2-6.7h1.3v-4h-1.3v4Zm-.7-2V99h4v-8.7h-4Zm2 6.7h-1.3v4h1.3v-4ZM48 86.8a1 1 0 0 1 .7.3l-2.8 3a3 3 0 0 0 2 .7v-4Zm.7.3.2.4.1.4h-4c0 .8.4 1.6 1 2l2.7-2.8Zm.3.8a1.1 1.1 0 0 1-.3.8l-2.8-2.9c-.5.6-.9 1.3-.9 2.1h4Zm-.3.8a1 1 0 0 1-.7.3v-4a3 3 0 0 0-2 .8l2.7 3Zm-.7.3a1 1 0 0 1-.7-.3l2.7-2.9a3 3 0 0 0-2-.8v4Zm-.7-.3-.3-.3v-.5h4c0-.8-.4-1.6-1-2l-2.7 2.8Zm-.4-.8a1.2 1.2 0 0 1 .4-.8l2.7 3c.6-.6 1-1.4 1-2.2h-4Zm.4-.8a1 1 0 0 1 .7-.3v4a3 3 0 0 0 2-.8l-2.7-3Zm7.6 3.2h2a2 2 0 0 0-2-2v2Zm0 1.1v2a2 2 0 0 0 2-2h-2Zm-4.5 0h-2c0 1.1.9 2 2 2v-2Zm0-1.1v-2a2 2 0 0 0-2 2h2Zm1.3-2.1v-2a2 2 0 0 0-2 2h2Zm1.3 0h2a2 2 0 0 0-2-2v2Zm.2 9.2-1.7 1 1.7-1Zm.4.3-.7 1.9.7-1.9Zm1 .1.3 2-.3-2Zm.2 0 2-.5a2 2 0 0 0-2.4-1.5l.4 2ZM55 99l.7 1.8a2 2 0 0 0 1.2-2.3l-2 .5Zm-.4 0-.4-1.9.4 2Zm-1.8-.1-.8 1.8.8-1.8ZM52 98l-1.6 1.2L52 98Zm.9-7.8v1.1h4v-1.1h-4Zm2-.9h-4.5v4h4.5v-4Zm-2.5 2v-1.1h-4v1.1h4Zm-2 .9h4.5v-4h-4.5v4Zm1.3-2.1H53v-4h-1.3v4Zm-.7-2v8.3h4v-8.3h-4Zm0 8.3c0 .5.1 1.2.5 1.9l3.4-2a1 1 0 0 1 .1.2v-.1h-4Zm.5 1.9c.3.5.8 1 1.4 1.2l1.4-3.7a1.2 1.2 0 0 1 .6.4l-3.4 2.1Zm1.5 1.2c.4.2.8.2 1.2.2v-4L53 99.6Zm1.2.2h.7l-.7-4v4Zm.7 0h.3l-.8-4h-.2l.7 4Zm-2-1.6.2 1.2 4-.9-.4-1.2-3.9.9Zm1.5-1.1h-.1l.8 4 .7-.3-1.4-3.7Zm-.2 0h-.1v4h1l-.9-4Zm-.1 0h-.3l-1.7 3.6c.6.3 1.3.4 2 .4v-4Zm-.3 0-.1-.1-3.3 2.3c.5.6 1 1 1.7 1.4l1.7-3.7Zm-.1-.1v.1h-4c0 .8.2 1.6.7 2.4l3.3-2.3Zm0-.1v-8.7h-4v8.7h4Zm4.6 1.7-1 1.7 1-1.7ZM56.9 97l-1.8.8 1.8-.8Zm0-4.8-1.8-.8 1.8.8Zm1.4-1.6 1 1.7-1-1.7Zm3.4-.3.6-2-.6 2Zm1.2.7-1.4 1.5L63 91Zm.9 1.4 1.8-.8-1.8.8ZM64 95v2a2 2 0 0 0 2-2h-2Zm-6.7 0h-2c0 1.1.9 2 2 2v-2Zm0-1.2v-2a2 2 0 0 0-2 2h2Zm5.3 0v2a2 2 0 0 0 2-2h-2Zm-.3-1.3-1.8 1 1.8-1Zm-.8-.9-1 1.7 1-1.7Zm-2.6 0 1 1.7-1-1.6Zm-1 1-1.7-.8 1.8.9Zm0 3.9-1.7.9 1.8-1Zm1 1-1 1.8 1-1.8Zm2.4.2.7 2-.7-2Zm.8-.4 1.4 1.4-1.4-1.4Zm.5-.8.5-2a2 2 0 0 0-2.4 1.3l1.9.7Zm1.3.4 1.9.6a2 2 0 0 0-1.4-2.5l-.4 2Zm-.7 1.1 1.4 1.4-1.4-1.4ZM62 99l.7 1.9L62 99Zm-1.6-1.7c-.6 0-1-.1-1.2-.3l-2 3.4c1 .6 2 .9 3.2.9v-4Zm-1.1-.3c-.3-.1-.5-.4-.7-.7L55 98c.5 1 1.2 1.8 2.2 2.4l2-3.4Zm-.7-.7a3 3 0 0 1-.3-1.5h-4c0 1.1.2 2.2.7 3.2l3.6-1.7Zm-.3-1.5c0-.6.1-1.1.3-1.5L55 91.6c-.5 1-.7 2-.7 3.2h4Zm.3-1.5c.2-.4.4-.6.7-.8l-2.2-3.3c-1 .6-1.6 1.4-2.1 2.4l3.6 1.7Zm.7-.8 1-.2v-4a5 5 0 0 0-3.2.9l2.2 3.3Zm1-.2h.6l1.3-3.7c-.6-.2-1.3-.3-2-.3v4Zm.6 0 .5.4 2.8-3c-.6-.5-1.2-.9-2-1.1L61 92.3Zm.5.4.4.6 3.7-1.5c-.3-.7-.7-1.5-1.3-2l-2.8 2.9Zm.4.6.2 1.3h4c0-1-.1-1.9-.5-2.8L62 93.2Zm.2 1.3v.6h4v-.6h-4Zm2-1.4h-6.7v4H64v-4Zm-4.7 2V94h-4v1.2h4Zm-2 .8h5.3v-4h-5.3v4Zm7.3-2c0-.7-.1-1.5-.5-2.2l-3.5 1.8v.4h4Zm-.5-2.2c-.3-.7-.9-1.3-1.5-1.7l-2.2 3.4.1.1 3.6-1.8ZM62.7 90c-.8-.4-1.6-.6-2.4-.6v4h.2l2.2-3.4Zm-2.4-.6c-.8 0-1.7.2-2.5.7l2.3 3.3h.2v-4Zm-2.5.7c-.6.5-1.2 1-1.5 1.8l3.6 1.8c0-.1 0-.2.2-.3l-2.3-3.3Zm-1.5 1.8a5 5 0 0 0-.5 2.2h4v-.4l-3.5-1.8Zm-.5 2.2v.8h4v-.8h-4Zm0 .8c0 .9.1 1.8.5 2.6l3.6-1.8-.1-.8h-4Zm.5 2.6c.4.8 1 1.4 1.7 1.9l2-3.5-.1-.2-3.6 1.8Zm1.8 1.9c.7.4 1.5.6 2.4.6v-4l-.5-.1-2 3.5Zm2.4.6 1.6-.3-1.3-3.8h-.3v4Zm1.6-.3a4 4 0 0 0 1.5-.9L60.8 96l1.3 3.8Zm1.5-.9c.4-.4.7-1 1-1.5L60.7 96l2.8 2.9Zm-1.5-.3 1.3.4 1.1-3.8-1.3-.4-1 3.8Zm0-2.1-.3.3 3 2.8c.4-.5.8-1.2 1-2l-3.8-1Zm-.3.3c0 .1-.2.3-.5.3l1.5 3.8a5 5 0 0 0 1.9-1.3l-2.9-2.8Zm-.4.3-1 .2v4a6 6 0 0 0 2.4-.4L61.4 97Z" mask="url(#d)"/>
</svg>
