<svg xmlns="http://www.w3.org/2000/svg" fill="none" viewBox="0 0 100 106">
  <mask id="a" width="36" height="91" x="19" y="9" maskUnits="userSpaceOnUse" style="mask-type:luminance">
    <path fill="#fff" d="M19.2 9.6h35.5V100H19.2V9.6Z"/>
  </mask>
  <g mask="url(#a)">
    <path fill="#EA7E16" d="M28 10.5c-4-2.7-4.9 4.5-5 10.7-1 1-1.7 3-.4 3.8l.2.3v3.4c-.7 8.7-1.8 17.3-1.9 26-.1 8.5.7 16.8.2 25.2-.2 3.1-3.8 17.2-.2 19.3 6.7 4 5.5-15.6 5.6-18.6.3-8.3.8-16.6 1.3-25l1.5-25.1c.2-4.4 3-17-1.4-20Zm24 89.3c-6.5 1.7-6.2-6.6-6.2-10.9 0-13 .2-26.2 0-39.3a597 597 0 0 0-1-30c-.2-2.6-1.1-6.1.4-8.4 1.3-2 4.5-2.2 5.5.2.6 1.4.5 3 .6 4.5l.4 5c.4 7.5.4 15 .3 22.6a412.6 412.6 0 0 0 2.3 49.3c.1 2.4.7 6.2-2.3 7Z"/>
  </g>
  <path fill="#EF3220" d="M82.2 63.6a401 401 0 0 0-3-18.8l-1.5-7.6a7 7 0 0 0 2.3-10c-7.2-11.4-22.1 7.5-8.3 11l1.4.2v.5l1 8.3a13347 13347 0 0 0 4 32c.4 2.7.1 7 1.5 9.2 1.3 2.1 3.6 2.2 5 .1 1.2-2 .2-4.4-.2-6.4-1-6.1-1.4-12.4-2.2-18.5ZM95.5 12c-6-12.1-22.7 5.2-9.3 10l.4.1v.3l-.3 8.4-.6 19.8-.4 12.5c0 2.6-1 6.8 0 9.3 1 2.3 3.3 2.7 5 .8 1.5-1.8.8-4.3.8-6.3-.1-6.2.5-12.5.6-18.6v-19l-.4-7.3c3.9-1.3 6.4-5.6 4.2-10ZM67 57c2.6 5.3 0 10.5-5.2 11-13.4 1.7-27.8 1-41.3 1.5-4 .2-11.4 2.3-13.6-2.3C5.3 64.3 5.6 56.5 8 54.4c3.8-3.2 14.3-1.6 18.8-1.6H49c5.4 0 15-1.6 17.8 4.1Z"/>
  <path fill="#F288CA" d="M49 58.2c-1.7.2-3 2.3-2 3.8l.2.2c.3.5.7 1 1.2 1.3 1.7.8 3.5-.1 3.7-2 .1-1.7-1.2-3.5-3-3.3Zm-25.6.3c-.8.3-1.4 1.1-1.6 2-.1.4-.2.9-.1 1.4-.2 1.1 1.7 2.2 2.7 2.2 1.8.1 3.3-1.5 3-3.3-.4-1.8-2.3-3-4-2.3Zm40.5-12c-2.2 4.8-10 3.2-14.4 3.3-6.2.1-12.4.1-18.6 0-5.3 0-12.4.9-17.4-.3-5-1.1-4.7-5-4.3-9.7.5-6 3.3-5.6 8.7-5.6l23.6-.2c5.7 0 13.1-1 18.6 1.1 4.5 1.7 5.9 6.7 3.8 11.3Z"/>
  <mask id="b" width="71" height="20" x="1" y="72" maskUnits="userSpaceOnUse" style="mask-type:luminance">
    <path fill="#fff" d="M1.8 72H72v20H1.8V72Z"/>
  </mask>
  <g mask="url(#b)">
    <path fill="#45B83A" d="M69.2 89c-3.8 3.4-13.7 1.5-18.4 1.6l-28.6.2c-3.1 0-14.7 2.2-17.3.5-2.8-1.7-3-13.2-1.1-16.5 1.7-3 20.5-1.1 23.5-1.2l24.9-.3c3.9 0 14.9-2.2 17.8.7 2.2 2.2 1.3 13-.8 15Z"/>
  </g>
  <path fill="#F8E505" d="M52.9 82.3c0 1.8-1.3 3.2-3.2 2.7-.7-.2-1.7-.6-2-1.3l-.1-.1c-.5-.5-.5-1.2-.3-1.9.2-.8 1-1.5 1.8-1.8 1.6-.5 3.9.5 3.8 2.4Zm-26.8-2c1 1.5.2 4.1-1.6 4.6-1.3.3-3.5-.1-4-1.5a3 3 0 0 1 1-3.5c1.3-.8 3.5-.9 4.6.4Zm20.7-36.1c-1.2-.9-1-2.2-.3-3.4.7-1.1 1.8-1.3 3-1 1 0 2 .4 2.5 1.4.5 1 0 2.4-1 3.1-1.2.9-3 .7-4.2-.1Zm-19.4-3.7c.8 1.5-.3 3.7-1.9 4.2-.9.2-2.5-.2-3-1.1l-.4-1c-.2-.8 0-1.8.6-2.5 1-1.2 3.9-1.2 4.7.4Zm22-14.2c-1 0-2.2-.6-2.6-1.5-.9-1-.2-3.4 1.1-3.8 1.5-.4 3.3.5 3.5 2 .2 1.6-.1 3.4-2 3.3Zm-24-.3c-1 .4-2.2-.1-2.8-1-1.3-.8-.5-2.9.3-3.8 1.2-1.2 2.9-1.2 3.8.4.8 1.3.4 3.8-1.2 4.4ZM62 19.5c-1.8-3.5-8.3-2.4-12-2.5H31c-5.7 0-12.1-1-17.7.2-3.1.6-2.7 8-1.6 10.5 1.7 3.7 7.1 2.6 11.6 2.8 6.3.3 12.6.4 19 .2 4.9-.1 11.4.5 16-1 3.9-1.4 5.6-6.2 3.6-10Z"/>
  <mask id="c" width="84" height="20" x="8" y="88" fill="#000" maskUnits="userSpaceOnUse">
    <path fill="#fff" d="M8 88h84v20H8z"/>
    <path d="m12.1 90.4 3 4.8h.1l3-4.8H20l-3.7 5.8L20 102h-1.7l-3-4.8-3 4.8h-1.7l3.7-5.8-3.7-5.8H12Zm10.3 14.9a3 3 0 0 1-1-.2l.4-1.2.8.1c.3 0 .5-.1.7-.3.2-.2.4-.5.5-1l.3-.7-3.3-8.7h1.5l2.4 7h.1l2.4-7h1.5l-3.7 10c-.2.4-.4.8-.7 1-.2.4-.5.6-.8.8l-1.1.2Zm9.4-15V102h-1.4V90.4h1.4Zm6 11.9a3.8 3.8 0 0 1-3.5-2.1 6 6 0 0 1 0-4.8 3.5 3.5 0 0 1 3.4-2.1c.9 0 1.5.1 2.1.5.6.4 1.1 1 1.4 1.6.4.7.5 1.5.5 2.4 0 .9-.1 1.7-.5 2.3-.3.7-.8 1.2-1.4 1.6-.5.4-1.2.6-2 .6Zm0-1.2c.6 0 1-.2 1.5-.5.3-.3.6-.7.8-1.2a4.7 4.7 0 0 0 0-3.3c-.2-.5-.5-.9-.9-1.2-.3-.3-.8-.4-1.4-.4-.6 0-1.1.1-1.5.4-.4.3-.7.7-.9 1.3l-.2 1.6c0 .6 0 1.1.2 1.6s.5 1 .9 1.2c.4.3.9.5 1.5.5Zm6 4.3v-12H45v1.4h.1l.4-.6.8-.7 1.4-.2a3.5 3.5 0 0 1 3.2 2 6.2 6.2 0 0 1 0 4.9c-.3.6-.7 1.2-1.3 1.5-.6.4-1.2.6-2 .6-.5 0-1-.1-1.3-.3l-.8-.6-.4-.6v4.6h-1.4Zm1.3-7.7c0 .7 0 1.3.3 1.8.2.5.5.9.8 1.2.4.2.9.4 1.4.4.6 0 1-.2 1.4-.5.4-.3.7-.7.8-1.2.2-.5.3-1 .3-1.7 0-.6 0-1.1-.2-1.6s-.5-1-.9-1.2c-.4-.3-.8-.4-1.4-.4a2.2 2.2 0 0 0-2.2 1.5c-.2.5-.3 1-.3 1.7Zm9.8-.8v5.2h-1.4V90.4H55v4.2c.3-.4.6-.8 1-1a3 3 0 0 1 1.6-.4c.6 0 1.2 0 1.6.3.5.3.8.6 1 1.1.3.5.4 1.1.4 1.9v5.5h-1.3v-5.5c0-.6-.2-1.2-.6-1.6a2 2 0 0 0-1.4-.5c-.5 0-.9 0-1.2.2a2 2 0 0 0-.8.9c-.2.3-.3.7-.3 1.3Zm11.6 5.4c-.8 0-1.5-.2-2-.6-.6-.4-1.1-.9-1.4-1.6-.4-.6-.5-1.4-.5-2.3 0-1 .1-1.7.5-2.4.3-.7.8-1.2 1.3-1.6.6-.4 1.3-.5 2.1-.5s1.5.1 2 .5c.7.4 1.1 1 1.5 1.6.3.7.5 1.5.5 2.4 0 .9-.2 1.7-.5 2.3-.4.7-.8 1.2-1.4 1.6-.6.4-1.3.6-2 .6Zm0-1.2c.6 0 1.1-.2 1.5-.5.4-.3.7-.7.9-1.2l.2-1.6c0-.6 0-1.1-.2-1.6-.2-.6-.5-1-.9-1.3-.4-.3-.9-.4-1.5-.4s-1 .1-1.5.4c-.3.3-.6.7-.8 1.3a4.6 4.6 0 0 0 0 3.3l.8 1.1c.4.3 1 .5 1.5.5Zm7.4-4.3v5.3h-1.4v-8.7h1.3v1.3h.1a2 2 0 0 1 1-1c.4-.3 1-.4 1.6-.4.6 0 1 0 1.5.3s.8.6 1 1.1c.3.5.4 1.1.4 1.9v5.5h-1.3v-5.5c0-.6-.2-1.2-.5-1.6-.4-.3-.9-.5-1.5-.5-.4 0-.8 0-1.2.2a2 2 0 0 0-.7.9c-.2.3-.3.7-.3 1.3Zm11.6 5.5c-.8 0-1.5-.2-2.1-.6-.6-.3-1.1-.9-1.4-1.5-.4-.7-.5-1.5-.5-2.4a4.7 4.7 0 0 1 1.8-4c.6-.3 1.3-.5 2.1-.5.5 0 1 0 1.4.2a3.3 3.3 0 0 1 2 2c.2.6.4 1.3.4 2.1v.6h-6.8v-1.2h5.4c0-.5-.1-.9-.3-1.3a2.2 2.2 0 0 0-2-1.2c-.6 0-1 .1-1.5.4-.4.2-.7.6-.9 1a3 3 0 0 0-.3 1.3v.8c0 .7.1 1.2.4 1.7.2.4.5.8 1 1 .3.3.8.4 1.3.4.4 0 .7 0 1-.2.3 0 .5-.2.7-.4l.5-.8 1.3.4c-.1.4-.3.8-.7 1.1-.3.4-.7.6-1.2.8-.4.2-1 .3-1.6.3Z"/>
  </mask>
  <path fill="#000" d="m12.1 90.4 3 4.8h.1l3-4.8H20l-3.7 5.8L20 102h-1.7l-3-4.8-3 4.8h-1.7l3.7-5.8-3.7-5.8H12Zm10.3 14.9a3 3 0 0 1-1-.2l.4-1.2.8.1c.3 0 .5-.1.7-.3.2-.2.4-.5.5-1l.3-.7-3.3-8.7h1.5l2.4 7h.1l2.4-7h1.5l-3.7 10c-.2.4-.4.8-.7 1-.2.4-.5.6-.8.8l-1.1.2Zm9.4-15V102h-1.4V90.4h1.4Zm6 11.9a3.8 3.8 0 0 1-3.5-2.1 6 6 0 0 1 0-4.8 3.5 3.5 0 0 1 3.4-2.1c.9 0 1.5.1 2.1.5.6.4 1.1 1 1.4 1.6.4.7.5 1.5.5 2.4 0 .9-.1 1.7-.5 2.3-.3.7-.8 1.2-1.4 1.6-.5.4-1.2.6-2 .6Zm0-1.2c.6 0 1-.2 1.5-.5.3-.3.6-.7.8-1.2a4.7 4.7 0 0 0 0-3.3c-.2-.5-.5-.9-.9-1.2-.3-.3-.8-.4-1.4-.4-.6 0-1.1.1-1.5.4-.4.3-.7.7-.9 1.3l-.2 1.6c0 .6 0 1.1.2 1.6s.5 1 .9 1.2c.4.3.9.5 1.5.5Zm6 4.3v-12H45v1.4h.1l.4-.6.8-.7 1.4-.2a3.5 3.5 0 0 1 3.2 2 6.2 6.2 0 0 1 0 4.9c-.3.6-.7 1.2-1.3 1.5-.6.4-1.2.6-2 .6-.5 0-1-.1-1.3-.3l-.8-.6-.4-.6v4.6h-1.4Zm1.3-7.7c0 .7 0 1.3.3 1.8.2.5.5.9.8 1.2.4.2.9.4 1.4.4.6 0 1-.2 1.4-.5.4-.3.7-.7.8-1.2.2-.5.3-1 .3-1.7 0-.6 0-1.1-.2-1.6s-.5-1-.9-1.2c-.4-.3-.8-.4-1.4-.4a2.2 2.2 0 0 0-2.2 1.5c-.2.5-.3 1-.3 1.7Zm9.8-.8v5.2h-1.4V90.4H55v4.2c.3-.4.6-.8 1-1a3 3 0 0 1 1.6-.4c.6 0 1.2 0 1.6.3.5.3.8.6 1 1.1.3.5.4 1.1.4 1.9v5.5h-1.3v-5.5c0-.6-.2-1.2-.6-1.6a2 2 0 0 0-1.4-.5c-.5 0-.9 0-1.2.2a2 2 0 0 0-.8.9c-.2.3-.3.7-.3 1.3Zm11.6 5.4c-.8 0-1.5-.2-2-.6-.6-.4-1.1-.9-1.4-1.6-.4-.6-.5-1.4-.5-2.3 0-1 .1-1.7.5-2.4.3-.7.8-1.2 1.3-1.6.6-.4 1.3-.5 2.1-.5s1.5.1 2 .5c.7.4 1.1 1 1.5 1.6.3.7.5 1.5.5 2.4 0 .9-.2 1.7-.5 2.3-.4.7-.8 1.2-1.4 1.6-.6.4-1.3.6-2 .6Zm0-1.2c.6 0 1.1-.2 1.5-.5.4-.3.7-.7.9-1.2l.2-1.6c0-.6 0-1.1-.2-1.6-.2-.6-.5-1-.9-1.3-.4-.3-.9-.4-1.5-.4s-1 .1-1.5.4c-.3.3-.6.7-.8 1.3a4.6 4.6 0 0 0 0 3.3l.8 1.1c.4.3 1 .5 1.5.5Zm7.4-4.3v5.3h-1.4v-8.7h1.3v1.3h.1a2 2 0 0 1 1-1c.4-.3 1-.4 1.6-.4.6 0 1 0 1.5.3s.8.6 1 1.1c.3.5.4 1.1.4 1.9v5.5h-1.3v-5.5c0-.6-.2-1.2-.5-1.6-.4-.3-.9-.5-1.5-.5-.4 0-.8 0-1.2.2a2 2 0 0 0-.7.9c-.2.3-.3.7-.3 1.3Zm11.6 5.5c-.8 0-1.5-.2-2.1-.6-.6-.3-1.1-.9-1.4-1.5-.4-.7-.5-1.5-.5-2.4a4.7 4.7 0 0 1 1.8-4c.6-.3 1.3-.5 2.1-.5.5 0 1 0 1.4.2a3.3 3.3 0 0 1 2 2c.2.6.4 1.3.4 2.1v.6h-6.8v-1.2h5.4c0-.5-.1-.9-.3-1.3a2.2 2.2 0 0 0-2-1.2c-.6 0-1 .1-1.5.4-.4.2-.7.6-.9 1a3 3 0 0 0-.3 1.3v.8c0 .7.1 1.2.4 1.7.2.4.5.8 1 1 .3.3.8.4 1.3.4.4 0 .7 0 1-.2.3 0 .5-.2.7-.4l.5-.8 1.3.4c-.1.4-.3.8-.7 1.1-.3.4-.7.6-1.2.8-.4.2-1 .3-1.6.3Z"/>
  <path fill="#fff" d="m12.1 90.4 1.7-1a2 2 0 0 0-1.7-1v2Zm3 4.8-1.7 1c.4.6 1 1 1.7 1v-2Zm.1 0v2a2 2 0 0 0 1.7-1l-1.7-1Zm3-4.8v-2a2 2 0 0 0-1.7 1l1.7 1Zm1.7 0 1.7 1a2 2 0 0 0-1.7-3v2Zm-3.7 5.8-1.7-1a2 2 0 0 0 0 2l1.7-1ZM20 102v2a2 2 0 0 0 1.7-3l-1.7 1Zm-1.7 0-1.7 1c.4.6 1 1 1.7 1v-2Zm-3-4.8 1.7-1a2 2 0 0 0-1.7-1v2Zm0 0v-2a2 2 0 0 0-1.8 1l1.7 1Zm-3 4.8v2a2 2 0 0 0 1.6-1l-1.7-1Zm-1.7 0-1.7-1a2 2 0 0 0 1.7 3v-2Zm3.7-5.8 1.7 1a2 2 0 0 0 0-2.1l-1.7 1Zm-3.7-5.8v-2a2 2 0 0 0-1.7 3l1.7-1Zm0 1 3 4.9 3.3-2.1-3-4.9-3.4 2.1Zm4.6 5.8h.1v-4 4Zm1.8-1 3-4.8-3.4-2-3 4.8 3.4 2Zm1.3-3.8H20v-4h-1.7v4Zm0-3.1-3.7 5.8 3.4 2.1 3.7-5.8-3.4-2.1Zm-3.7 8 3.7 5.8 3.4-2.2-3.7-5.8-3.4 2.1ZM20 100h-1.7v4H20v-4Zm0 1-3-4.8-3.4 2.1 3 4.8 3.4-2.2Zm-4.7-5.8v4-4Zm-1.8 1-3 4.7 3.4 2.2 3-4.8-3.4-2.1Zm-1.3 3.8h-1.6v4H12v-4Zm0 3 3.8-5.7-3.4-2.2-3.7 5.8 3.3 2.2Zm3.8-7.9-4-5.8-3.3 2.1 3.7 5.9L16 95Zm-5.4-2.7H12v-4h-1.6v4Zm11.3 12.8.4-2-.4 2Zm-.4 0-2-.6a2 2 0 0 0 1.1 2.3l1-1.8Zm.4-1.3.4-2a2 2 0 0 0-2.4 1.5l2 .5Zm.8.1-.2-2 .2 2Zm.7-.3-1.4-1.4 1.4 1.4Zm.5-1 1.9.7-1.9-.7Zm.3-.7 1.8.7c.2-.4.2-.9 0-1.3l-1.8.6Zm-3.3-8.7v-2A2 2 0 0 0 19 94l1.8-.7Zm1.5 0 1.9-.7a2 2 0 0 0-1.9-1.3v2Zm2.4 7-1.9.6a2 2 0 0 0 2 1.3v-2Zm.1 0v2a2 2 0 0 0 1.9-1.4l-1.9-.7Zm2.4-7v-2a2 2 0 0 0-1.9 1.3l2 .7Zm1.5 0 1.8.7a2 2 0 0 0-1.8-2.7v2Zm-3.7 10-2-.7 2 .7Zm-.7 1-1.5-1.2 1.5 1.3Zm-.8.8-.8-1.9.8 1.9Zm-1.1-1.8h-.2l-.8 3.9h1v-4Zm-.2 0H22h.2l-1.8 3.6.9.3.8-4Zm1.1 2.4.4-1.2-3.9-1.1-.3 1.2 3.8 1Zm-2 .2c.4 0 1 .2 1.5.1l-.4-4h-.2l-1 3.9Zm1.5.1a3 3 0 0 0 2-1l-3-2.7.3-.2h.3l.4 4Zm1.9-.9c.5-.5.8-1.1 1-1.7L22 102v.3c-.1 0-.1 0 0 0l2.8 2.8Zm1-1.7.2-.7-3.7-1.3-.3.6 3.8 1.4Zm.2-2-3.2-8.8L19 94l3.2 8.7 3.7-1.3Zm-5-6.1h1.4v-4h-1.5v4Zm-.5-1.4 2.4 7 3.8-1.3-2.4-7-3.8 1.3Zm4.3 8.3h.1v-4 4Zm2-1.3 2.4-7-3.8-1.3-2.4 7 3.8 1.3Zm.5-5.6h1.5v-4h-1.5v4Zm-.4-2.7-3.7 10 3.7 1.4 3.7-10-3.7-1.4Zm-3.7 10-.3.5 3 2.6c.5-.5.8-1.1 1-1.7l-3.7-1.4Zm-.3.5-.1.1 1.6 3.7c.6-.3 1.2-.7 1.6-1.2l-3.1-2.6Zm-.1.1h-.3v4c.6 0 1.3 0 1.9-.3l-1.6-3.7Zm9-12.8h2a2 2 0 0 0-2-2v2Zm0 11.6v2a2 2 0 0 0 2-2h-2Zm-1.3 0h-2c0 1.1 1 2 2 2v-2Zm0-11.6v-2a2 2 0 0 0-2 2h2Zm-.6 0V102h4V90.4h-4Zm2 9.6h-1.4v4h1.4v-4Zm.6 2V90.4h-4V102h4Zm-2-9.6h1.4v-4h-1.4v4Zm5.3 9.2-1 1.7 1-1.7Zm-1.4-1.6-1.8 1 1.8-1Zm0-4.7-1.8-.9 1.8.9Zm1.4-1.6-1-1.7 1 1.7Zm4.1 0-1 1.7 1-1.7Zm1.4 1.6-1.8.9 1.8-.9Zm0 4.7-1.8-.8 1.8.8Zm-1.4 1.6-1-1.7 1 1.7Zm-.5-1L38 99l1.3 1.5Zm.8-1.3 1.9.7-1.9-.7Zm0-3.2 1.9-.7-1.9.7Zm-.9-1.3 1.3-1.5-1.3 1.5Zm-2.9 0L35 93.3l1.3 1.5Zm-.9 1.3-1.8-.7 1.8.7Zm0 3.2-1.8.7 1.8-.7Zm.9 1.2 1.2-1.5-1.2 1.5Zm1.5-.3c-.5 0-.8-.1-1-.3l-2.2 3.4c1 .6 2 .9 3.2.9v-4Zm-1-.3c-.3-.1-.5-.4-.7-.7l-3.6 1.7c.5 1 1.2 1.8 2.1 2.4l2.2-3.4Zm-.7-.7c-.2-.4-.3-.9-.3-1.5h-4c0 1.1.2 2.2.7 3.2l3.6-1.7Zm-.3-1.5c0-.7.1-1.2.3-1.5l-3.6-1.8c-.5 1-.7 2.1-.7 3.3h4Zm.3-1.5c.2-.4.4-.6.7-.8L34.6 92c-.9.6-1.6 1.4-2 2.4l3.5 1.8Zm.7-.8 1-.2v-4a6 6 0 0 0-3.2.8l2.2 3.4Zm1-.2c.4 0 .7 0 1 .2L41 92c-1-.6-2-.8-3.1-.8v4Zm1 .2.6.8 3.6-1.8c-.5-1-1.2-1.8-2-2.4l-2.2 3.4Zm.6.8c.2.3.3.8.3 1.5h4c0-1.2-.2-2.3-.7-3.3l-3.6 1.8Zm.3 1.5c0 .6 0 1.1-.3 1.5l3.6 1.7c.5-1 .7-2 .7-3.2h-4Zm-.3 1.5c-.1.3-.4.6-.6.7l2.1 3.4c1-.6 1.6-1.4 2.1-2.4l-3.6-1.7Zm-.6.7c-.3.2-.6.3-1 .3v4c1 0 2.2-.3 3.1-.9l-2.1-3.4Zm-1 3c1 0 1.9-.2 2.7-.8L38 99h-.2v4Zm2.7-.8c.7-.6 1.2-1.3 1.5-2.1l-3.8-1.4-.2.4 2.5 3ZM42 100c.3-.7.4-1.5.4-2.3h-4c0 .3 0 .7-.2 1L42 100Zm.4-2.3c0-.8-.1-1.6-.4-2.3l-3.8 1.3.2 1h4Zm-.4-2.3a4 4 0 0 0-1.5-2.1l-2.5 3 .2.4 3.8-1.3Zm-1.5-2.1c-.8-.7-1.8-1-2.7-1v4h.2s0 .1 0 0l2.5-3Zm-2.7-1c-1 0-2 .3-2.8 1l2.5 3c0 .1 0 0 0 0h.3v-4Zm-2.8 1c-.6.5-1.1 1.2-1.4 2l3.7 1.4c0-.2.2-.2.2-.3L35 93.3Zm-1.4 2c-.3.8-.4 1.6-.4 2.4h4l.1-1-3.7-1.3Zm-.4 2.4c0 .8 0 1.6.4 2.3l3.7-1.4-.1-1h-4Zm.4 2.3c.3.8.8 1.5 1.5 2l2.4-3-.2-.4-3.7 1.4Zm1.5 2a4 4 0 0 0 2.7 1v-4h-.3l-2.4 3Zm8.7 3.3h-2c0 1 .9 2 2 2v-2Zm0-12v-2a2 2 0 0 0-2 2h2Zm1.3 0h2a2 2 0 0 0-2-2v2Zm0 1.4h-2c0 1 .9 2 2 2v-2Zm.1 0v2a2 2 0 0 0 1.7-1l-1.7-1Zm.4-.6L44 92.9l1.6 1.2Zm.8-.7 1 1.8-1-1.8Zm3.3.3 1-1.7-1 1.7Zm1.3 1.6 1.8-.9-1.8.9Zm0 4.8 1.8.8-1.8-.8Zm-1.3 1.5 1.1 1.7-1.1-1.7Zm-3.3.3-1 1.7 1-1.7Zm-.8-.6-1.6 1.2 1.6-1.2Zm-.4-.6 1.7-1a2 2 0 0 0-1.7-1v2Zm0 0v-2a2 2 0 0 0-2 2h2Zm0 4.6v2a2 2 0 0 0 2-2h-2Zm.2-6-1.9.8 1.9-.7Zm.8 1.3L45 102l1.2-1.5Zm2.8 0 1.2 1.5-1.2-1.6Zm.8-1.3-1.8-.7 1.8.7Zm0-3.3-1.8.7 1.9-.7Zm-.8-1.2-1.2 1.6 1.2-1.6Zm-2.8 0 1.2 1.6-1.2-1.6Zm-.8 1.1 1.8.7-1.8-.7Zm.4 9.4v-12h-4v12h4Zm-2-10H45v-4h-1.3v4Zm-.7-2v1.4h4v-1.4h-4Zm2 3.4h.1v-4h-.1v4Zm1.8-1 .3-.4-3.2-2.4-.4.7 3.3 2.1Zm.3-.4.2-.1-2-3.5c-.5.3-1 .7-1.4 1.2l3.2 2.4Zm.2-.1h.4v-4c-.8 0-1.6 0-2.4.5l2 3.5Zm.4 0c.3 0 .6 0 .8.2l2.2-3.4c-1-.6-2-.8-3-.8v4Zm.8.2c.2.1.4.3.6.7l3.6-1.7c-.4-1-1.1-1.8-2-2.4l-2.2 3.4Zm.6.7c.2.4.3.9.3 1.6h4c0-1.2-.2-2.3-.7-3.3l-3.6 1.7Zm.3 1.6c0 .7-.1 1.2-.3 1.5l3.6 1.7c.5-1 .7-2 .7-3.2h-4Zm-.3 1.5-.6.8 2.2 3.3c.9-.6 1.6-1.4 2-2.4l-3.6-1.7Zm-.6.8-.8.2v4c1 0 2-.3 3-.9l-2.2-3.3Zm-.8.2h-.4l-2 3.5c.8.4 1.6.5 2.4.5v-4Zm-.4 0-.2-.2-3.1 2.5c.3.5.8.9 1.3 1.1l2-3.4Zm-.2-.1-.3-.5-3.4 2.1.5.8 3.2-2.4Zm-2-1.4v4-4Zm-2 2v4.6h4v-4.6h-4Zm2 2.6h-1.4v4H45v-4ZM43 97.6c0 .9.1 1.7.4 2.5l3.7-1.4-.1-1h-4Zm.4 2.5c.3.8.8 1.5 1.5 2l2.4-3.1-.2-.3-3.7 1.4Zm1.5 2c.8.6 1.7.9 2.6.9v-4h-.2l-2.4 3.2Zm2.6.9c1 0 1.8-.3 2.6-.9L47.8 99h-.2v4Zm2.6-.9c.7-.5 1.2-1.3 1.5-2L48 98.5l-.2.4 2.4 3.1Zm1.5-2c.3-.8.4-1.6.4-2.5h-4l-.1 1 3.7 1.4Zm.4-2.5c0-.8 0-1.6-.4-2.3L48 96.7l.1 1h4Zm-.4-2.3c-.3-.8-.8-1.5-1.5-2l-2.4 3 .2.4 3.7-1.4Zm-1.5-2c-.8-.7-1.7-1-2.6-1v4h.2l2.4-3Zm-2.6-1c-.9 0-1.8.3-2.6.9l2.4 3.2h.2v-4Zm-2.6.9c-.7.5-1.2 1.2-1.5 2l3.7 1.4.2-.2-2.4-3.2Zm-1.5 2c-.3.8-.4 1.6-.4 2.4h4l.1-1-3.7-1.4ZM55 102v2a2 2 0 0 0 2-2h-2Zm-1.4 0h-2c0 1.1 1 2 2 2v-2Zm0-11.6v-2a2 2 0 0 0-2 2h2Zm1.4 0h2a2 2 0 0 0-2-2v2Zm0 4.2h-2c0 1.1.9 2 2 2v-2Zm0 0v2a2 2 0 0 0 1.9-1.1l-1.8-.9Zm1-1 1 1.6-1-1.6Zm3.2 0-1 1.7 1-1.8Zm1 1-1.7.9 1.7-.9Zm.4 7.4v2a2 2 0 0 0 2-2h-2Zm-1.3 0h-2c0 1.1.9 2 2 2v-2Zm-.6-7-1.4 1.3 1.4-1.4Zm-2.6-.4L55 93l1 1.7Zm-.8.9-1.8-1 1.8 1ZM53 96.8v5.2h4v-5.3h-4Zm2 3.2h-1.4v4H55v-4Zm.6 2V90.4h-4V102h4Zm-2-9.6H55v-4h-1.4v4Zm-.6-2v4.2h4v-4.2h-4Zm2 6.2v-4 4Zm1.9-1.1.2-.3-2.2-3.3a4 4 0 0 0-1.6 2l3.6 1.6Zm.2-.3h.5v-4a5 5 0 0 0-2.7.7l2.2 3.3Zm.5 0h.7l1.9-3.4c-.8-.5-1.7-.6-2.6-.6v4Zm.7 0c0 .1 0 .2.2.3l3.5-1.8c-.4-.8-1-1.5-1.9-2l-1.8 3.6Zm.2.3.1 1h4c0-1-.1-2-.6-2.8l-3.5 1.8Zm.1 1v5.5h4v-5.5h-4Zm2 3.5h-1.3v4h1.3v-4Zm.7 2v-5.5h-4v5.5h4Zm0-5.5c0-1-.3-2-1.1-3l-3 2.8v.2h4Zm-1-3a4 4 0 0 0-3-1.1v4s.1 0 0 0v-.1l3-2.7Zm-3-1.1c-.8 0-1.5.1-2.2.5l2 3.5h.2v-4Zm-2.2.5a4 4 0 0 0-1.6 1.6l3.5 2v-.1l-2-3.5Zm-1.6 1.6c-.4.7-.5 1.5-.5 2.3h4a1.2 1.2 0 0 1 0-.4l-3.5-2Zm11 7.1-1 1.7 1-1.7Zm-1.3-1.6-1.8 1 1.8-1Zm0-4.7-1.8-.9 1.8.9Zm1.3-1.6-1-1.7 1 1.7Zm4.2 0-1 1.7 1-1.7Zm1.4 1.6-1.8.9 1.8-.9Zm0 4.7-1.8-.8 1.8.8Zm-1.4 1.6-1-1.7 1 1.7Zm-.6-1L66.8 99l1.2 1.5Zm.9-1.3 1.8.7-1.8-.7Zm0-3.2 1.8-.7-1.8.7Zm-.9-1.3 1.3-1.5-1.3 1.5Zm-3 0-1.2-1.5 1.2 1.5Zm-.8 1.3-1.9-.7 1.9.7Zm0 3.2-1.9.7 1.9-.7Zm.8 1.2 1.3-1.5-1.3 1.5Zm1.5-.3c-.4 0-.7-.1-1-.3l-2.1 3.4c1 .6 2 .9 3.1.9v-4Zm-1-.3c-.2-.1-.5-.4-.6-.7l-3.6 1.7c.5 1 1.2 1.8 2 2.4l2.2-3.4Zm-.6-.7c-.2-.4-.3-.9-.3-1.5h-4c0 1.1.2 2.2.7 3.2l3.6-1.7Zm-.3-1.5c0-.7 0-1.2.3-1.5l-3.6-1.8c-.5 1-.7 2.1-.7 3.3h4Zm.3-1.5c.1-.4.4-.6.6-.8L63.4 92c-1 .6-1.7 1.4-2.1 2.4l3.6 1.8Zm.6-.8 1-.2v-4c-1.1 0-2.2.2-3.1.8l2.1 3.4Zm1-.2c.5 0 .8 0 1 .2l2.2-3.4c-1-.6-2-.8-3.2-.8v4Zm1 .2c.3.2.5.4.7.8l3.6-1.8c-.5-1-1.2-1.8-2.1-2.4l-2.2 3.4Zm.7.8c.2.3.3.8.3 1.5h4c0-1.2-.2-2.3-.7-3.3l-3.6 1.8Zm.3 1.5c0 .6-.1 1.1-.3 1.5l3.6 1.7c.5-1 .7-2 .7-3.2h-4Zm-.3 1.5c-.2.3-.4.6-.7.7l2.2 3.4c.9-.6 1.6-1.4 2-2.4l-3.5-1.7Zm-.7.7c-.2.2-.5.3-1 .3v4c1.1 0 2.2-.3 3.2-.9l-2.2-3.4Zm-1 3c1 0 2-.2 2.7-.8L66.8 99h-.3v4Zm2.7-.8c.7-.6 1.2-1.3 1.5-2.1L67 98.6l-.2.4 2.4 3Zm1.5-2.1c.3-.7.4-1.5.4-2.3h-4l-.1 1 3.7 1.3Zm.4-2.3c0-.8 0-1.6-.4-2.3L67 96.7l.1 1h4Zm-.4-2.3c-.3-.9-.8-1.6-1.4-2.1l-2.6 3 .3.4 3.7-1.3Zm-1.4-2.1c-.9-.7-1.8-1-2.8-1v4h.2s0 .1 0 0l2.6-3Zm-2.8-1a4 4 0 0 0-2.7 1l2.5 3c0 .1 0 0 0 0h.2v-4Zm-2.7 1c-.7.5-1.2 1.2-1.5 2l3.8 1.4c0-.2.1-.2.2-.3l-2.5-3.1Zm-1.5 2c-.3.8-.4 1.6-.4 2.4h4c0-.4 0-.7.2-1l-3.8-1.3Zm-.4 2.4c0 .8.1 1.6.4 2.3l3.8-1.4-.2-1h-4Zm.4 2.3c.3.8.8 1.5 1.5 2l2.5-3-.2-.4-3.8 1.4Zm1.5 2c.8.7 1.8 1 2.7 1v-4h-.2l-2.5 3Zm10 0v2a2 2 0 0 0 2-2h-2Zm-1.3 0h-2c0 1.1 1 2 2 2v-2Zm0-8.7v-2a2 2 0 0 0-2 2h2Zm1.3 0h2a2 2 0 0 0-2-2v2Zm0 1.3h-2c0 1.1 1 2 2 2v-2Zm.1 0v2a2 2 0 0 0 1.8-1.1l-1.8-.9Zm1-1 1 1.6-1-1.6Zm3.1 0-1 1.7 1-1.8Zm1 1-1.7 1 1.8-1Zm.4 7.4v2a2 2 0 0 0 2-2h-2Zm-1.3 0h-2c0 1.1.9 2 2 2v-2Zm-.5-7L76 96.2l1.5-1.4Zm-2.7-.4L74 93l1 1.7Zm-.7.9-1.8-1 1.8 1ZM72 96.8v5.2h4v-5.3h-4Zm2 3.2h-1.4v4H74v-4Zm.6 2v-8.7h-4v8.7h4Zm-2-6.7h1.3v-4h-1.3v4Zm-.7-2v1.3h4v-1.3h-4Zm2 3.3h.1v-4 4Zm2-1.1.1-.3-2.1-3.3c-.7.5-1.3 1.1-1.7 1.9l3.6 1.7Zm.2-.3h.5v-4a5 5 0 0 0-2.7.7l2.2 3.3Zm.5 0h.6l1.9-3.4c-.8-.5-1.7-.6-2.5-.6v4Zm.6 0 .2.3 3.5-1.8a5 5 0 0 0-1.8-2l-2 3.6Zm.2.3.1 1h4a6 6 0 0 0-.6-2.8l-3.5 1.8Zm.1 1v5.5h4v-5.5h-4Zm2 3.5h-1.3v4h1.3v-4Zm.7 2v-5.5h-4v5.5h4Zm0-5.5c0-1-.3-2-1-3l-3 2.8v.2h4Zm-1-3a3.9 3.9 0 0 0-3-1.1v4c.1 0 .1 0 0 0a.3.3 0 0 1 0-.1l3-2.7Zm-3-1.1c-.7 0-1.5.1-2.1.5l2 3.5v-4Zm-2.1.5a4 4 0 0 0-1.6 1.6l3.5 2v-.1l-2-3.5Zm-1.6 1.6c-.4.7-.5 1.5-.5 2.3h4a1.2 1.2 0 0 1 0-.4l-3.5-1.9Zm11 7.1-1 1.7 1-1.7Zm-1.4-1.5-1.8.8 1.8-.8Zm0-4.8-1.8-.8 1.8.8Zm1.3-1.6 1.1 1.7-1-1.7Zm3.5-.3.6-2-.6 2Zm1.2.7-1.4 1.5L88 94Zm.8 1.4 1.9-.8-1.9.8Zm.4 2.6v2a2 2 0 0 0 2-2h-2Zm-6.8 0h-2c0 1.1 1 2 2 2v-2Zm0-1.2v-2a2 2 0 0 0-2 2h2Zm5.4 0v2a2 2 0 0 0 2-2h-2Zm-.3-1.3-1.8 1 1.8-1Zm-.8-.9-1.1 1.7 1-1.7Zm-2.7 0 1.1 1.7-1-1.6Zm-.9 1-1.8-.8 1.8.9Zm0 3.9-1.7.9 1.8-1Zm1 1-1 1.8 1-1.8Zm2.4.2.7 2-.7-2Zm.7-.4 1.4 1.4-1.4-1.4Zm.5-.8.6-2a2 2 0 0 0-2.4 1.3l1.8.7Zm1.3.4 2 .6a2 2 0 0 0-1.4-2.5L89 100Zm-.7 1.1 1.5 1.4-1.5-1.4Zm-1.2.8.8 1.9-.8-1.9Zm-1.6-1.7c-.5 0-.8-.1-1-.3l-2.2 3.4c1 .6 2.1.9 3.2.9v-4Zm-1-.3c-.4-.1-.6-.4-.7-.7l-3.6 1.7c.5 1 1.2 1.8 2.1 2.4l2.1-3.4Zm-.7-.7a3 3 0 0 1-.3-1.5h-4c0 1.1.2 2.2.7 3.2l3.6-1.7Zm-.3-1.5c0-.6 0-1.1.3-1.5l-3.6-1.7c-.5 1-.7 2-.7 3.2h4Zm.3-1.5.6-.8-2.2-3.3c-.9.6-1.6 1.4-2 2.4l3.6 1.7Zm.6-.8 1-.2v-4c-1.1 0-2.2.2-3.2.9l2.2 3.3Zm1-.2h.7l1.3-3.7c-.6-.2-1.3-.3-2-.3v4Zm.7 0 .5.4 2.7-3c-.5-.5-1.2-.9-1.9-1.1l-1.3 3.8Zm.5.4.4.6 3.7-1.5c-.3-.7-.8-1.5-1.4-2l-2.7 2.9Zm.4.6.2 1.3h4c0-1-.2-1.9-.5-2.8L87 96.2Zm.2 1.3v.6h4v-.6h-4Zm2-1.4h-6.8v4h6.8v-4Zm-4.8 2v-1.2h-4v1.2h4Zm-2 .8h5.4v-4h-5.4v4Zm7.4-2c0-.7-.2-1.5-.5-2.2l-3.6 1.8v.4h4Zm-.5-2.2c-.4-.7-.9-1.3-1.6-1.7l-2 3.4v.1l3.6-1.8ZM87.7 93c-.7-.4-1.5-.6-2.3-.6v4h.2l2.1-3.4Zm-2.3-.6c-.9 0-1.7.2-2.5.7l2.2 3.3h.3v-4ZM83 93c-.7.5-1.2 1-1.6 1.8l3.6 1.8.2-.3L83 93Zm-1.6 1.8a5 5 0 0 0-.5 2.2h4l.1-.4-3.6-1.8Zm-.5 2.2v.8h4V97h-4Zm0 .8c0 .9.2 1.8.6 2.6l3.5-1.8v-.8h-4Zm.6 2.6c.4.8 1 1.4 1.7 1.9l2-3.5-.2-.2-3.5 1.8Zm1.7 1.9c.8.4 1.6.6 2.4.6v-4l-.4-.1-2 3.5Zm2.4.6a5 5 0 0 0 1.7-.3L85.8 99h-.3v4Zm1.7-.3a4 4 0 0 0 1.4-.9L86 99l1.3 3.8Zm1.4-.9c.5-.4.8-1 1-1.5L85.9 99l2.7 2.9Zm-1.4-.3 1.3.4 1-3.8-1.2-.4-1.1 3.8Zm0-2.1-.3.3 2.9 2.8c.5-.5.9-1.2 1.1-2l-3.8-1.1Zm-.3.3c-.1.1-.3.3-.5.3l1.5 3.8c.7-.3 1.3-.7 1.9-1.3L87 99.6Zm-.5.3-.9.2v4c.8 0 1.6-.1 2.4-.4l-1.5-3.8Z" mask="url(#c)"/>
</svg>
