<svg xmlns="http://www.w3.org/2000/svg" fill="none" viewBox="0 0 100 100">
  <path fill="#18B9B1" d="M91.4 85.3c.4-6.2-5.3-21.6-5.4-26-.2-5 5.8-15.7 5.7-17.5l-83.5-.7c-.1 1.8 4 15.6 3.8 20.6C11.8 66 8.2 78.9 8.6 85l82.8.3Z"/>
  <path fill="#FEC80E" d="M48.6 85c-2.1-5.7-8.2-18.9-10-22.7-2.2-4.5-7.3-17.8-8-19.3 12.9-1.4 25.5-1.7 37.8-.8-.8 1.6-5.4 14.2-7.5 18.7A423 423 0 0 0 50 85.3l-1.4-.2Z"/>
  <path fill="#F4AE3D" d="M64.2 23.9c9.6-3.2 25.9-9 29.9-11 6-2.8 3.6-7.1-2.6-4.6a3163 3163 0 0 0-28 11.7m-27.8 3.9c-9.6-3.2-25.8-9-29.8-11C0 10.1 2.3 5.8 8.6 8.3l28 11.7"/>
  <path fill="#FEC80E" d="M8.5 83.4c-.4-5.7 0-19 .1-23 .2-4.6-.5-16.1-.4-17.7l21.4.4c-.8 1.5-5.3 13.3-7.4 17.8-1.9 3.8-8 17-10 22.8l-3.7-.3Zm83.3-40c0 1.6-.7 13.1-.5 17.7.2 4 .6 17.4.2 23l-3.3-.2c-2.1-5.7-8.5-19.2-10.3-23-2.2-4.5-7-17-7.8-18.5 8.2.2 15.7.3 21.7 1Z"/>
  <path fill="#D93627" d="M2.5 91c-.1-2-1.3-8.1 6-7.7 7.4.4 44 2.2 55.3.8 11.2-1.4 32-.8 33 1.2.9 2 2 8.6-1.6 8.6l-78.7-.5c-4.3 0-13.6 1.2-14-2.5Zm95-55.1c.2 2 1.4 8-6 7.6-7.4-.4-44-2.2-55.2-.8-11.3 1.3-32 .8-33-1.2S1.3 33 5 33l78.7.5c4.2 0 13.6-1.2 14 2.5Z"/>
  <path fill="#FEC80E" d="M60.4 18.2c-.8 0-1.7 0-2.6.4-2.7 1-4.2 3.8-3.1 6.5a5.5 5.5 0 0 0 9 1.6c.8-1 2-2.8 1.2-4.8-.7-2-2.5-3.5-4.5-3.7Zm-20.8 0c.8 0 1.7 0 2.6.4 2.7 1 4.2 3.8 3.1 6.5a5.6 5.6 0 0 1-6.8 3c-.7-.2-1.7-.8-2.2-1.4-.8-1-2-2.8-1.2-4.8s2.5-3.5 4.5-3.7Z"/>
  <mask id="a" width="52" height="17" x="24" y="85" fill="#000" maskUnits="userSpaceOnUse">
    <path fill="#fff" d="M24 85h52v17H24z"/>
    <path d="M30.5 99h-3.6V87.4h3.8c1 0 2 .2 2.8.7.9.4 1.5 1 1.9 2 .4.8.6 1.9.6 3a7 7 0 0 1-.6 3.2 4 4 0 0 1-1.9 2 6 6 0 0 1-3 .7Zm-2.2-1.3h2.1c1 0 1.8-.1 2.4-.5.6-.4 1.1-1 1.4-1.6a6.2 6.2 0 0 0 0-4.9c-.3-.6-.8-1.2-1.4-1.5-.6-.4-1.3-.6-2.2-.6h-2.3v9.2Zm10 1.3v-8.7h1.2v1.3h.1c.2-.4.5-.8.9-1 .4-.3.9-.5 1.4-.5a15.3 15.3 0 0 1 .7 0v1.4a4 4 0 0 0-.8 0c-.5 0-.8 0-1.2.2a2 2 0 0 0-1 1.8V99h-1.4Zm11.4-3.6v-5.1H51V99h-1.3v-1.5h-.1c-.2.5-.5.8-1 1.2-.4.3-1 .4-1.6.4a3 3 0 0 1-1.5-.3l-1-1.1a5 5 0 0 1-.3-1.9v-5.5h1.3v5.4c0 .7.2 1.2.5 1.5.4.4.9.6 1.4.6a2.3 2.3 0 0 0 2.3-2.4Zm3.8 3.6v-8.7h1.3v1.3c.3-.4.6-.8 1-1 .4-.3.9-.4 1.4-.4.6 0 1 0 1.5.4l.9 1c.3-.4.6-.8 1-1a3 3 0 0 1 1.7-.4c.7 0 1.4.2 1.9.7.5.5.7 1.2.7 2.3V99h-1.3v-5.8c0-.7-.2-1.1-.5-1.4a2 2 0 0 0-1.3-.4c-.6 0-1 .1-1.4.5a2 2 0 0 0-.5 1.4V99h-1.4v-6c0-.5-.1-.9-.5-1.2-.3-.3-.7-.4-1.2-.4-.4 0-.7 0-1 .2l-.7.8a2 2 0 0 0-.3 1.1V99h-1.3Zm20-6.8-1.1.4-.4-.6a1 1 0 0 0-.6-.5l-1-.2c-.5 0-1 .1-1.3.4-.3.2-.5.5-.5 1 0 .2.1.5.4.7.2.2.6.4 1.1.5l1.3.3c.8.2 1.4.5 1.7.9.4.4.6.9.6 1.5 0 .5-.1 1-.4 1.3a4 4 0 0 1-1.2 1c-.5.2-1.1.3-1.8.3a4 4 0 0 1-2.2-.6c-.6-.4-1-1-1.1-1.7l1.3-.3c0 .5.3.8.6 1 .4.3.8.4 1.4.4.6 0 1.1-.1 1.5-.4.3-.3.5-.6.5-1a1 1 0 0 0-.3-.7 2 2 0 0 0-1-.5l-1.4-.3c-.8-.2-1.4-.5-1.8-1-.4-.3-.5-.8-.5-1.4 0-.5.1-1 .4-1.3.3-.4.6-.7 1.1-1a4 4 0 0 1 1.7-.2c.8 0 1.5.1 2 .5s.8 1 1 1.5Z"/>
  </mask>
  <path fill="#000" d="M30.5 99h-3.6V87.4h3.8c1 0 2 .2 2.8.7.9.4 1.5 1 1.9 2 .4.8.6 1.9.6 3a7 7 0 0 1-.6 3.2 4 4 0 0 1-1.9 2 6 6 0 0 1-3 .7Zm-2.2-1.3h2.1c1 0 1.8-.1 2.4-.5.6-.4 1.1-1 1.4-1.6a6.2 6.2 0 0 0 0-4.9c-.3-.6-.8-1.2-1.4-1.5-.6-.4-1.3-.6-2.2-.6h-2.3v9.2Zm10 1.3v-8.7h1.2v1.3h.1c.2-.4.5-.8.9-1 .4-.3.9-.5 1.4-.5a15.3 15.3 0 0 1 .7 0v1.4a4 4 0 0 0-.8 0c-.5 0-.8 0-1.2.2a2 2 0 0 0-1 1.8V99h-1.4Zm11.4-3.6v-5.1H51V99h-1.3v-1.5h-.1c-.2.5-.5.8-1 1.2-.4.3-1 .4-1.6.4a3 3 0 0 1-1.5-.3l-1-1.1a5 5 0 0 1-.3-1.9v-5.5h1.3v5.4c0 .7.2 1.2.5 1.5.4.4.9.6 1.4.6a2.3 2.3 0 0 0 2.3-2.4Zm3.8 3.6v-8.7h1.3v1.3c.3-.4.6-.8 1-1 .4-.3.9-.4 1.4-.4.6 0 1 0 1.5.4l.9 1c.3-.4.6-.8 1-1a3 3 0 0 1 1.7-.4c.7 0 1.4.2 1.9.7.5.5.7 1.2.7 2.3V99h-1.3v-5.8c0-.7-.2-1.1-.5-1.4a2 2 0 0 0-1.3-.4c-.6 0-1 .1-1.4.5a2 2 0 0 0-.5 1.4V99h-1.4v-6c0-.5-.1-.9-.5-1.2-.3-.3-.7-.4-1.2-.4-.4 0-.7 0-1 .2l-.7.8a2 2 0 0 0-.3 1.1V99h-1.3Zm20-6.8-1.1.4-.4-.6a1 1 0 0 0-.6-.5l-1-.2c-.5 0-1 .1-1.3.4-.3.2-.5.5-.5 1 0 .2.1.5.4.7.2.2.6.4 1.1.5l1.3.3c.8.2 1.4.5 1.7.9.4.4.6.9.6 1.5 0 .5-.1 1-.4 1.3a4 4 0 0 1-1.2 1c-.5.2-1.1.3-1.8.3a4 4 0 0 1-2.2-.6c-.6-.4-1-1-1.1-1.7l1.3-.3c0 .5.3.8.6 1 .4.3.8.4 1.4.4.6 0 1.1-.1 1.5-.4.3-.3.5-.6.5-1a1 1 0 0 0-.3-.7 2 2 0 0 0-1-.5l-1.4-.3c-.8-.2-1.4-.5-1.8-1-.4-.3-.5-.8-.5-1.4 0-.5.1-1 .4-1.3.3-.4.6-.7 1.1-1a4 4 0 0 1 1.7-.2c.8 0 1.5.1 2 .5s.8 1 1 1.5Z"/>
  <path fill="#fff" d="M26.9 99h-2c0 1.1.9 2 2 2v-2Zm0-11.6v-2a2 2 0 0 0-2 2h2Zm6.6.7-1 1.7 1-1.7Zm1.9 2-1.8.8 1.8-.8Zm0 6.2 1.8.9-1.8-1Zm-1.9 2 1 1.7-1-1.7Zm-5.2-.5h-2c0 1 1 2 2 2v-2Zm4.5-.6-1-1.7 1 1.7Zm1.4-6.5-1.8.9 1.8-.9Zm-1.4-1.5-1 1.7 1-1.7Zm-4.5-.6v-2a2 2 0 0 0-2 2h2Zm2.2 8.4h-3.6v4h3.6v-4Zm-1.6 2V87.4h-4V99h4Zm-2-9.6h3.8v-4h-3.8v4Zm3.8 0c.8 0 1.4.1 1.8.4l2-3.5a8 8 0 0 0-3.8-1v4Zm1.9.4c.4.3.7.6 1 1.1l3.6-1.7a6.6 6.6 0 0 0-2.7-2.9l-2 3.5Zm1 1.1c.3.6.4 1.3.4 2.3h4a9 9 0 0 0-.8-4l-3.6 1.7Zm.4 2.3a5 5 0 0 1-.4 2.2l3.6 1.8a9 9 0 0 0 .8-4h-4Zm-.4 2.2a4 4 0 0 1-1 1.2l1.9 3.4c1.2-.6 2-1.6 2.7-2.8l-3.6-1.8Zm-1 1.2a4 4 0 0 1-2.1.4v4a8 8 0 0 0 4-1l-2-3.4Zm-4.3 3.2h2.1v-4h-2v4Zm2.1 0c1.2 0 2.4-.3 3.4-.9l-2-3.4c-.3.1-.7.3-1.4.3v4Zm3.4-.9c1-.6 1.8-1.4 2.2-2.5l-3.6-1.6-.6.7 2 3.4Zm2.2-2.5c.5-1 .7-2 .7-3.2h-4a4 4 0 0 1-.3 1.6l3.6 1.6Zm.7-3.2c0-1.2-.2-2.3-.7-3.3l-3.6 1.7c.2.3.3.8.3 1.6h4Zm-.7-3.3c-.4-1-1.2-1.9-2.1-2.5l-2 3.5c.2.1.3.3.5.7l3.6-1.7Zm-2-2.4c-1-.6-2.2-.9-3.3-.9v4c.6 0 1 .1 1.2.3l2-3.4Zm-3.3-.9h-2.3v4h2.3v-4Zm-4.3 2v9.2h4v-9.2h-4Zm12 10.4h-2c0 1.1.8 2 2 2v-2Zm0-8.7v-2a2 2 0 0 0-2 2h2Zm1.2 0h2a2 2 0 0 0-2-2v2Zm0 1.3h-2c0 1.1 1 2 2 2v-2Zm.1 0v2a2 2 0 0 0 1.9-1.3l-1.9-.7Zm.9-1-1.1-1.7 1 1.6Zm2-.4h2a2 2 0 0 0-1.7-2l-.2 2Zm0 1.3-.4 2a2 2 0 0 0 2.5-2h-2Zm-.2 0-.4 2 .4-2Zm-1.7.2 1 1.8-1-1.8Zm-.8.7-1.7-1 1.7 1Zm-.2 6.6v2a2 2 0 0 0 2-2h-2Zm.6 0v-8.7h-4V99h4Zm-2-6.7h1.3v-4h-1.3v4Zm-.7-2v1.3h4v-1.3h-4Zm2 3.3h.1v-4 4Zm2-1.3-2.1-3.4a4 4 0 0 0-1.7 2l3.8 1.4Zm0 0 .4-.2v-4c-1 0-1.8.3-2.5.8l2.2 3.3Zm.4-.2h.3l.1-4H42v4Zm.3 0h.1l.5-4h-.5l-.1 4Zm-1.6-2v1.4h4v-1.3h-4Zm2.5-.5-.6-.1-.5 4h.1l1-4Zm-.5-.1a5 5 0 0 0-.8 0v4h.1l.7-4Zm-.8 0c-.7 0-1.5 0-2.1.4l1.9 3.6h.2v-4Zm-2.1.4a4 4 0 0 0-1.6 1.5l3.4 2-1.8-3.5ZM38 91.4a4 4 0 0 0-.5 2h4l-3.5-2Zm-.5 2V99h4v-5.5h-4Zm2 3.6h-1.4v4h1.4v-4Zm10-6.7v-2a2 2 0 0 0-2 2h2Zm1.4 0h2a2 2 0 0 0-2-2v2Zm0 8.7v2a2 2 0 0 0 2-2h-2Zm-1.3 0h-2c0 1.1.9 2 2 2v-2Zm0-1.5h2a2 2 0 0 0-2-2v2Zm-.1 0v-2a2 2 0 0 0-1.8 1.2l1.8.8Zm-1 1.2 1.2 1.6-1.2-1.6Zm-3 0-1 1.8 1-1.7Zm-1-1-1.9.9 1.8-1Zm-.4-7.4v-2a2 2 0 0 0-2 2h2Zm1.3 0h2a2 2 0 0 0-2-2v2Zm.5 7-1.4 1.3 1.4-1.3Zm2.4.3-.8-1.8.8 1.8Zm1-.8-1.7-1.1 1.6 1Zm2.3-1.4v-5.1h-4v5.1h4Zm-2-3.1H51v-4h-1.3v4Zm-.7-2V99h4v-8.7h-4Zm2 6.7h-1.3v4H51v-4Zm.7 2v-1.5h-4V99h4Zm-2-3.5h-.1v4-4Zm-2 1.2s0 .2-.2.3l2.3 3.3c.7-.5 1.2-1.2 1.6-2l-3.6-1.6Zm-.2.3-.5.1v4c1 0 2-.2 2.8-.8L47.5 97Zm-.5.1a1 1 0 0 1-.5 0l-2 3.4a5 5 0 0 0 2.5.6v-4Zm-.5 0c0-.1 0-.2-.2-.3l-3.6 1.8c.4.8 1 1.4 1.8 1.9l2-3.5Zm-.2-.3-.1-1h-4c0 1 .1 2 .5 2.8l3.6-1.8Zm-.1-1v-5.5h-4v5.5h4Zm-2-3.5h1.3v-4h-1.3v4Zm-.7-2v5.4h4v-5.4h-4Zm0 5.4c0 1 .3 2 1 3l3-2.8v-.2h-4Zm1.1 3c.8.7 1.8 1.1 2.8 1.1v-4h.1l-2.9 2.8Zm2.8 1.1c.7 0 1.3-.2 2-.4l-1.8-3.6h-.2v4Zm2-.4c.6-.4 1.2-.9 1.6-1.5l-3.3-2.2h-.1l1.7 3.7Zm1.6-1.5c.5-.8.7-1.6.7-2.5h-4v.3l3.3 2.2Zm2.5 1.1h-2c0 1.1.9 2 2 2v-2Zm0-8.7v-2a2 2 0 0 0-2 2h2Zm1.3 0h2a2 2 0 0 0-2-2v2Zm0 1.3h-2c0 1.1.9 2 2 2v-2Zm0 0v2a2 2 0 0 0 2-1.2l-2-.8Zm1-1 1 1.6-1-1.6Zm2.9 0-1.2 1.6 1.2-1.6Zm.9 1-1.9.9a2 2 0 0 0 1.9 1.1v-2Zm0 0v2a2 2 0 0 0 1.8-1l-1.7-1Zm1-1 1 1.7-1-1.7Zm3.6.3-1.4 1.4 1.4-1.4Zm.7 8.1v2a2 2 0 0 0 2-2h-2Zm-1.3 0h-2c0 1.1.9 2 2 2v-2Zm-.5-7.2-1.3 1.6 1.3-1.6Zm-2.7.1 1.5 1.4-1.5-1.4Zm-.5 7.1v2a2 2 0 0 0 2-2h-2Zm-1.4 0h-2c0 1.1 1 2 2 2v-2Zm-.5-7.2-1.3 1.5 1.3-1.5Zm-2.2-.2-1-1.7 1 1.7Zm-.7.8-1.8-1 1.8 1Zm-.3 6.6v2a2 2 0 0 0 2-2h-2Zm.7 0v-8.7h-4V99h4Zm-2-6.7h1.3v-4h-1.3v4Zm-.7-2v1.3h4v-1.3h-4Zm2 3.3v-4 4Zm2-1.2v-.2l-2-3.2c-.8.5-1.4 1.2-1.7 2l3.7 1.5Zm0-.2h.4v-4c-.9 0-1.7.2-2.5.7l2.1 3.3Zm.4 0h.3l2.3-3.3c-.8-.5-1.7-.7-2.6-.7v4Zm.3 0c.1 0 .2.1.2.3l3.7-1.7c-.4-.8-1-1.4-1.6-2l-2.3 3.4Zm2 1.4h.2v-4h-.1v4Zm2-1c0-.2 0-.2.2-.3l-2-3.5c-.8.5-1.4 1.1-1.8 2l3.5 1.7Zm.2-.3.6-.1v-4a5 5 0 0 0-2.7.6l2 3.5Zm.6-.1.5.1 2.8-2.8c-1-1-2.1-1.3-3.3-1.3v4Zm.5.1.1.9h4a5 5 0 0 0-1.3-3.7l-2.8 2.8Zm.1.9V99h4v-5.8h-4Zm2 3.8h-1.3v4h1.3v-4Zm.7 2v-5.8h-4V99h4Zm0-5.8c0-1-.3-2.2-1.3-3l-2.5 3.2a.8.8 0 0 1-.2-.4v.2h4Zm-1.3-3a4 4 0 0 0-2.5-.8v4l2.5-3.2Zm-2.5-.8c-1 0-2.1.3-2.9 1.2l3 2.7a.4.4 0 0 1-.2 0h.1v-4ZM59 90.6a4 4 0 0 0-1 2.7h4l-3-2.7Zm-1 2.7V99h4v-5.7h-4Zm2 3.7h-1.4v4H60v-4Zm.6 2v-6h-4v6h4Zm0-6c0-1-.3-1.9-1.1-2.6l-2.7 2.9-.2-.2s0-.1 0 0h4Zm-1-2.6c-.8-.7-1.8-1-2.7-1v4a.4.4 0 0 1-.1-.1l2.7-3Zm-2.7-1c-.7 0-1.4.2-2 .5l2 3.4v-4Zm-2 .5c-.7.4-1.1 1-1.5 1.5l3.5 2-2-3.5Zm-1.5 1.5c-.3.7-.5 1.4-.5 2.1h4a.6.6 0 0 1 0-.1l-3.5-2Zm-.5 2.1V99h4v-5.5h-4Zm2 3.5h-1.3v4h1.3v-4Zm18.8-4.8.5 2a2 2 0 0 0 1.4-2.6l-2 .6Zm-1.2.4-2 .7a2 2 0 0 0 2.5 1.2l-.5-2ZM72 92l-1.6 1.2L72 92Zm-.6-.5 1-1.8-1 1.8Zm-2.3.2 1.2 1.6-1.2-1.6Zm-.1 1.7L67.7 95l1.3-1.6Zm1.1.5-.5 2 .5-2Zm1.3.3-.5 2 .5-2Zm1.7.9-1.4 1.4 1.4-1.4Zm.2 2.8-1.6-1.2 1.6 1.2Zm-5.2.7 1.1-1.7-1.1 1.7ZM67 96.9l-.5-2a2 2 0 0 0-1.5 2.4l2-.4Zm1.3-.3 1.9-.5a2 2 0 0 0-2.4-1.4l.5 1.9Zm.6 1-1 1.7 1-1.7Zm2.9 0 1.1 1.6-1.1-1.6Zm.2-1.7-1.4 1.4L72 96Zm-1-.5-.4 2 .4-2Zm-1.4-.3-.5 2 .5-2Zm-1.8-1-1.4 1.4 1.4-1.3Zm-.1-2.7L66 90.2l1.6 1.2Zm1.1-1-.8-1.7.8 1.8Zm3.7.3-1.2 1.6 1.2-1.6Zm.5-.4-1.2.3 1.1 3.9 1.2-.3-1-3.9Zm1.2 1.6c-.1-.4-.3-.8-.6-1.1l-3.2 2.4 3.8-1.3Zm-.6-1.1c-.3-.5-.8-.8-1.3-1l-1.8 3.5v-.1l3.1-2.4Zm-1.3-1a3 3 0 0 0-1.8-.5v4h.1l1.7-3.6Zm-1.8-.5c-.9 0-1.7.2-2.5.7l2.3 3.3h.2v-4ZM68 90a3 3 0 0 0-1.4 2.6h4l-.1.5-.2.2L68 90Zm-1.4 2.6a3 3 0 0 0 1.1 2.4l2.5-3.2a1 1 0 0 1 .4.8h-4Zm1.1 2.4a5 5 0 0 0 2 .8l.9-3.9h-.4c0-.1 0-.1 0 0l-2.5 3Zm2 .8 1.2.3 1-3.8-1.3-.4-1 4Zm1.2.3.8.4 2.9-2.8a5.5 5.5 0 0 0-2.7-1.4l-1 3.8Zm.8.4h4c0-1-.3-2-1.1-2.8l-2.9 2.8Zm0 0v.2l3.2 2.4c.5-.8.8-1.6.8-2.5h-4Zm0 .2-.4.3 1.6 3.7c.8-.4 1.5-.9 2-1.6l-3.2-2.4Zm-.4.3-1 .2v4a7 7 0 0 0 2.6-.5L71.3 97Zm-1 .2a2 2 0 0 1-1.1-.3l-2.2 3.4a6 6 0 0 0 3.3.9v-4Zm-1.1-.3c-.1 0-.2-.1-.3-.4l-3.9.8c.3 1.2 1 2.3 2 3l2.2-3.4Zm-1.7 2 1.2-.4-1-3.8-1.2.3 1 3.8ZM66.3 97a4 4 0 0 0 1.5 2.2l2.3-3.3a.4.4 0 0 1 .1.1l-3.9 1Zm1.5 2.2c.8.5 1.7.7 2.5.7v-4H70l-2.3 3.3Zm2.5.7c.9 0 1.8-.2 2.6-.8L70.6 96h-.3v4Zm2.6-.8a3 3 0 0 0 1.4-2.6h-4c0-.1 0-.3.2-.4l.1-.2 2.3 3.2Zm1.4-2.6a3 3 0 0 0-.9-2.2l-2.8 3a1 1 0 0 1-.3-.8h4Zm-.9-2.2a4 4 0 0 0-2-1l-.8 4a1.4 1.4 0 0 1 .1 0v-.1l2.7-2.9Zm-2-1L70 93l-.9 4 1.5.3.9-4ZM70 93l-.6-.2h-.1l-3 2.7c.8.8 1.8 1.2 2.8 1.4l1-3.9Zm-.7-.3v-.1h-4c0 1 .3 2 1 2.8l3-2.7Zm0-.1v-.1L66 90.2c-.6.7-.8 1.6-.8 2.5h4Zm0-.1.3-.3-1.6-3.6c-.8.3-1.4.8-2 1.5l3.3 2.4Zm.3-.3.9-.1v-4a6 6 0 0 0-2.5.5l1.6 3.6Zm.9-.1.8.1 2.4-3.2c-1-.7-2.1-1-3.2-1v4Zm.8.1.4.6 3.8-1.3a5 5 0 0 0-1.8-2.5l-2.4 3.2Z" mask="url(#a)"/>
</svg>
