<svg xmlns="http://www.w3.org/2000/svg" version="1.0" viewBox="0 0 75 75">
  <defs>
    <clipPath id="a">
      <path d="M0 9.4h75v36H0Zm0 0"/>
    </clipPath>
  </defs>
  <g clip-path="url(#a)">
    <path d="m49.8 25.6-.2.1h-.3l3.5 2.1.7-1.6a38 38 0 0 0-3.7-.6Zm-6.2 2.8 1.8.2-1.9-1.7-1.5-1.3c.5 1 1 2 1.6 2.8ZM.4 29.9c0-.2.2-.4.4-.5a10 10 0 0 1 3.7-.2v-.8a52.3 52.3 0 0 0 .6-3.8v-2.9c0-.7.1-2 1.4-2l.8-.1h2.3c0-.4 0-.8.2-1.2l.3-.1c1.3-.2 2.6-.3 4-.2l-.1-.3h-.5a.3.3 0 0 1-.3-.3l-.4-1v-.1a.3.3 0 0 1 .3-.4l.8-.2h1.2l.2.1c.1 0 .5.2.6.6v.5l-.1.1-.2.5c0 .2-.2.2-.3.2h-.6v.3a46.2 46.2 0 0 1 1.3.3c.2.3.2.7.3 1h4.4c-.1-2.7-.2-5.1 0-7.4l-.4-.2a.5.5 0 0 1-.4-.5v-1.1c0-.3.2-.5.5-.5a295.2 295.2 0 0 1 14.1 0l.6 1.1c0 .3 0 .5-.3.6l-.4.2-.2.2c.9 2.2 1.3 4.6 1.6 6.9l.5 2.7.1.8v3.1l-.3 2.4c0 .3-.3.5-.5.4-.7 0-1.6 0-2.4.2H33v.8h.5l.4.1.2.4v.4h1.2c0-.1 0-.3.2-.5.2-.7.7-1 1.3-1h.8l-.2-2.1-.1-1.3A121 121 0 0 0 37 21c0-.2.2-.2.4-.2a68.8 68.8 0 0 1 3 0c.3 0 .5.2.6.5 0 .5 0 1 .2 1.4l.3-.3.6-.7c.1-.2.4-.2.6 0l1 .5 2.7.7 3.4.8c.1 0 .2.1.2.3v.2l4.1.6.1-.2.6-.1c.2 0 .5 0 .8.2.2.2.3.5.3.8v.5l-.1.1c-.1.6 0 1.2.2 1.8l1 1.7v.3l-.7 2.7v.1l1.6 1.7a9 9 0 0 1 3-2.8h.3c2.4.5 4.8 1.3 7.1 2l.5.2c.3 0 .4.3.4.6v.7c.5 1.4 1.4 2.7 2.1 4l1.4 2.4.1.2.7 1c.2.3.6.7.9.8.2 0 .3.2.3.3V45c0 .2-.2.4-.5.4a165.5 165.5 0 0 0-7.8-.1c-.6 0-1.2 0-1.8-.6-1-.8-2-1.4-3.1-2l-.2-.1-2-1.1a3 3 0 0 0-1.6-.4l-.3-.1-1.9-1.7-1.1-1v.3a7 7 0 0 1-1 2.5c-1.1 1.8-3 3-4.9 3.2h-1.7l-.5.1H46a6 6 0 0 1-2.4-.9c-.4-.2-.8-.4-1-.8l-.3-.3-.5-.5a4 4 0 0 1-.9-1.3c-.4-.8-.6-1.7-.7-2.5a60 60 0 0 1-5.2-.4 3 3 0 0 0-.8.9l-.4.2h-4L26 39h-.3a7 7 0 0 1-.8 2.2 7 7 0 0 1-5 3.2h-1.6l-.5.1h-.3a6.2 6.2 0 0 1-3.5-1.7l-.3-.3-.4-.5a4 4 0 0 1-1-1.3c-.4-1-.7-2.1-.7-3.2v-.2c0-.4 0-.8.2-1.3v-.2l.7-1.6h-1l-.5 2.7c0 .2-.2.4-.4.4-2 .3-3.7.4-5.1.4H4c-.5 0-.7-.3-.9-.5L3 37a10 10 0 0 0-2.6-2 .5.5 0 0 1-.2-.5V31l.1-1.1"/>
    <path d="m64 40-.1-.6.2-.6.7-1.6c.6-1 1.5-2 2.3-3l1 .4v.7c.7 1.5 1.5 3 2.4 4.3l1.4 2.4v.1l.8 1.2c.3.4.6.8 1.1 1a177.3 177.3 0 0 0-8.1 0A23 23 0 0 1 64 40Zm-4-2c1-.3 1.8-1 2.2-1.8a6 6 0 0 1 .3.3l-1.1 2a3 3 0 0 1-1.4-.6Zm0-4.5c.3-.4.8-.7 1.2-1l5.4 1.6-1.4 1.7a19 19 0 0 0-5.2-2.3Zm-1.5 1.9 1-1.5c2 .6 3.8 1.2 5.4 2.3a9.7 9.7 0 0 0-1.3 2.4l-.2.7.1.9c.4 1.2.8 2.4 1.4 3.5l-1.4-1a15.4 15.4 0 0 1-1.6-4l1.2-2.1v-.4l-.5-.2a3 3 0 0 0-.4-.3H62a3 3 0 0 1-2 1.7c.2-.7.5-1.3 1-2l-.1-.3-.3-.2-.6-.5h-.2l-.2.1c-.2.4-.6.8-1 .9Zm1 1.8-.8-1.4c.4-.1.9-.4 1.1-.8.2 0 .3.2.4.3l-.8 1.9Zm-5.2-.5v-.3l1.8 1.5.4.3a11 11 0 0 1 2 2 4 4 0 0 0-.6 0l-1.7-1.6-1.8-1.7v-.2Zm-.7-8.4-.2-.1 1.2-3h.5l.1.3v.5c-.2.7 0 1.4.2 2.2a9 9 0 0 0 1 1.7l-.6 2c-.8-.9-1.4-2-2-3.4l-.2-.2ZM49.9 25v-.4l4 .5-.2.5-3.8-.6Zm3 2.7-3.6-2.1h.5c1.2 0 2.5.2 3.7.5l-.7 1.6Zm-5.1-3-2.3-1.5.7.2 3.1.7v.8l-1.5-.3Zm-5.8.8 1.5 1.3 1.9 1.7-1.8-.2-1.6-2.8Zm-.5-1.7a9.2 9.2 0 0 1 1-1.2l5.1 3C49.4 27 51.1 28 53 29c.8 1.8 1.7 3.2 2.7 4.4a41.8 41.8 0 0 0 2.4 2.3 56 56 0 0 0 1.3 2.2l.3.3c.5.5 1.2.7 1.9.8.3 1.1.6 2.2 1.1 3.2l-.6-.4h-.2a40.8 40.8 0 0 0-2.5-1.4 10.2 10.2 0 0 0-3-3c-.7-.5-1.5-1.2-2.2-2a6.9 6.9 0 0 0-1.6-2.8 7.6 7.6 0 0 0-4.1-2.2v-.3l-.2-.3-4-3.6c-.8-.8-1.7-1.6-2.7-2.3Zm-.3 13.5v-1.2l.1-.2.6-1.5a6.1 6.1 0 0 1 4-3l.9-.3h.5l.5.2a6 6 0 0 1 4 1.9 6 6 0 0 1 1.5 2.8v.6l.1.7v1a6 6 0 0 1-5 5h-.7a9 9 0 0 0-.4 0H46a5 5 0 0 1-2-.7l-.8-.6-.2-.3-.6-.7a3 3 0 0 1-.7-1c-.4-.8-.6-1.8-.6-2.7Zm-1-1.9.2-.7a69 69 0 0 1 1-3.5l1.1-.4h2A7.2 7.2 0 0 0 41 34c-.3.5-.5 1-.6 1.6l-.1-.2Zm-.7.4-.3-.1c0-.7.3-1.4.4-2l.4-1.5.3-2 3.5-1 2.5.4h.3l.5.5a2 2 0 0 0-.4 0 32.4 32.4 0 0 1-2.9.2h-1.4a3 3 0 0 0-1.3.5v.1a76 76 0 0 0-1.2 3.6c0 .3-.2.6-.1 1v.3Zm-2.8 1 2.2-4v-.1l.2-.3h.3l-.2 1.1-.5 2.3.1.3.6.2.8.1v.6l-3.5-.2Zm1.3-15h2c0 .7.2 1.4.4 2-.1.3 0 .6.2.7a15 15 0 0 0 2.3 4.6l-3 .8-.1.2-.1.9a4 4 0 0 0-1-.1c.2-.5.2-1.1 0-1.7.1 0 .2-.2.1-.4-.2-.8-.2-1.6-.3-2.5l-.1-1.3-.4-3.2Zm-1.6 9.1v-1c.2-.3.3-.5.5-.5h1.5c0 .6 0 1.2-.2 1.7v.2l.3.1h1.1v.7l-.3-.1c-.4 0-.7-.2-1-.3v-.2l-.3-.3h-1.6V31Zm-.2 5.9h-.4a104.9 104.9 0 0 0 1-4.3c.1-.2 0-.4-.1-.5l-.2-.3h1.2v.3l.2.2.7.1-.1.3-2.3 4.2Zm-2-1.4v-.6h1.1a162.3 162.3 0 0 1-.4.8l-.6-.2Zm0-4.5v-.4h1.2v.4h-1.2Zm0 3.4v-.4h1.3v.4Zm0-2.5v-.4h1.2v.4h-1.3Zm0 1.6V33h1.5v.3Zm0-.8v-.3h1.5l.1.3Zm-1.6-.1v-1.2h.5v1.2h-.5Zm-1 5.3c.2-1.8.3-3.7.3-5.5 0-.9 0-1.5.3-2h1v.5h-.9l-.2.3v1.5c.1.4.5.4.8.4h.2l.1 2.8c0 .2.2.3.4.4h.2l.3.2h.2l.1.2v.3l-.9.9h-1.9Zm.3-10.5V26h3.4l-.1 1h-.9l-2.4.2Zm0-9.7v-2c.2-1.4.1-2.8 0-4.1h1.2v.2c1 2.3 1.4 4.8 1.8 7.2l.4 2.4h-1.5l-.3.2-.5 1-1 1.5v-.2a20.5 20.5 0 0 1 0-3.6v-1.5l-.2-1.1Zm0 7h.7l1-1.8.4-.8h1.4v.7a34 34 0 0 0 0 1.6v1l-.1.3H32l-.2-1Zm-.5 2.7h-.7l.3-2.7h.3Zm-3.8-3.4c-.4-.9-1-1.8-1.7-2.7l4 .1.1 2.6h-2.4Zm-.3 7-.1-.7h4.5a6 6 0 0 0-.3 2v.9c-1.3-.1-2.5-.2-3.8-.1v-.3c0-.6-.2-1.2-.3-1.7Zm-.3-1.7h5v.3l.1.2h-5l-.1-.5Zm4.4 4.8h-4.5l.4-.5h4.1v.5Zm-5 2v-1.5h5l-.3 3.3h-1.3a314.6 314.6 0 0 1-3.3 0V36Zm0-7.4-1-.7a163.8 163.8 0 0 0 6.7 0v.8h-5.7Zm-1.1-1.4v-1c1.6.2 3.3.2 5 .3l-.1.8h-5Zm-1-4a5 5 0 0 1 0-1.4v-.2h1a35.6 35.6 0 0 1 2.1 3h3.1l-.1 1.4-5.2-.2a6.3 6.3 0 0 0-.5-1.6l-.4-1Zm-.1-3.5h3.2a256.7 256.7 0 0 1 2.5 0h.1c.3 0 .4 0 .5-.3V19c0-.8.2-1.9.1-3v-.6l-.1-1.5v-1.5h1v3.7l-.2 1.5.2 1.1v1.7a21 21 0 0 0 0 3.4v.2h-1c-.1-1-.2-2-.1-3 0 0-.1-.2-.3-.2a86 86 0 0 0-6-.3v-.8Zm1.8-.5h-1.8a43.2 43.2 0 0 1 .6-7l5.3.1v.9a11.6 11.6 0 0 0 0 2.8l-.1 3v.3a6.8 6.8 0 0 1-.8 0h-1.8Zm-4 6.4c-.3-1.3-.1-2.6 0-4h1.8v1.8l.4 1 .2.5.2.8-2.6-.1Zm-.5-14.1h10v.3h-7l-.2.1a45.6 45.6 0 0 0-.5 9h-.2L22 21c0-.3-.2-.5-.3-.8V20a78.2 78.2 0 0 1-.2-8.5Zm-.6-.8c4.4-.2 8.6-.3 13-.3v.4H21.2l-.2.1v.1h-.2v-.3ZM19 26.1h-.2c.2-.8.1-1.5 0-2.2v-.7c0-1 .1-1.9.3-2.8h1.7l.3.1.3.9.1.2c-.1 1.4-.3 2.8 0 4.3l.2.2 3 .1v1h-.1l-1-.7c-.2-.1-.5-.2-1-.1h-.1l-.9-.1h-.2l-2.1-.2H19Zm-1.8 1.7c.1-.3.3-.6.6-.8.3-.3.6-.3 1.2-.3h.3l2 .2h.2l1 .1h.7l3.1 2.4.4 1.7.3 1.6v.1l-.7 1c-.5-1.7-1.6-3.2-2.5-4.4l-.5-.8-.6-.8-.2-.1a70.6 70.6 0 0 0-5.3.1Zm-2.5-8.4v-.6h.8l.1.6h-.9Zm-1-2.3-.1-.6H15l.2.1-.1.2v.1l-.1.3Zm-.2 13.7h1.2l-.1.8-1 .1-.1-.8Zm-1 6.4.1-1V36l.7-1.5a6.2 6.2 0 0 1 4-3l.8-.3h.6l.4.2c1.6.1 3 .8 4 1.9a5.9 5.9 0 0 1 1.6 2.8v2.3a6 6 0 0 1-.8 2.2 5.8 5.8 0 0 1-4.1 2.8h-2.3a5 5 0 0 1-2-.7l-.9-.6-.2-.3-.6-.7-.6-1c-.4-.8-.7-1.8-.7-2.7Zm-1-4.1v-3h12a12.4 12.4 0 0 1 2.3 4.1v3.6-1l-.2-.8a6.7 6.7 0 0 0-1.8-3.3 7.6 7.6 0 0 0-4.6-2.2l-.3-.1H18l-1 .2-.5.2c-.4.1-1 .3-1.4.6l.1-.7v-.2h-2c-.1 0-.3.2-.2.6l.2 1c0 .2.1.2.2.2h.4l-.7.8Zm-.7-5.4v-.1l.3-4.3c1.3.2 2.6.2 3.8.1h3.5v.5l-.1 2.2c-.3 0-.6 0-1 .4l-.6.8h-.2c-.1.2-.4.3-.7.4h-5Zm-.5-8.2v-.6c1.3-.2 2.5-.2 3.7-.1v.6l-3.6.1ZM10 36.3h-.4l1.2-6.3h.1v3.1c-.2 0-.3.2-.4.4l-.5 2.8Zm-3-7 .3-4.9.3-3.8 2.8-.1c2.5 0 5.3-.2 8.2-.1a21 21 0 0 0-.2 2.6h-1.7l-1.8-.1a18.2 18.2 0 0 1-4.2 0v.1l-.4 4.5v.4c.2.3.6.3.7.3h5l.5-.2v.3l.3.2h3l2.6-.1.4.6.3.5-14-.2H7Zm-1.5 0v-.7l.3-1.1.3-2.8v-3c0-1 .2-1 .4-1l.6-.1c0 1.3-.2 2.6-.3 3.8l-.3 4.9H6l-.5.1v-.1Zm-.8 7c0-2 .2-4.1.4-6l.3-.2h.2l.5-.1h4.2L9 36.4l-3.7.2h-.5v-.4Zm-3.4-4.1v-1.9l.8-.1h2a5 5 0 0 1 .5 0 38.4 38.4 0 0 0-.3 6.4H4l-.1-.2-.1-.1A10.7 10.7 0 0 0 1.3 34v-2ZM.3 31v3.4c0 .2 0 .4.2.4A10.8 10.8 0 0 1 3.1 37l.1.2c.2.2.4.5.9.5h1.3c1.4 0 3-.1 5.1-.4.2 0 .4-.2.4-.4l.5-2.7h1l-.7 1.6v.2c-.2.5-.2.9-.2 1.3v.2c0 1 .3 2.2.8 3.2.2.4.5 1 .9 1.3l.4.5.3.3c.3.4.7.6 1 .8.8.5 1.6.8 2.5.9h2.5a6.7 6.7 0 0 0 4.9-3.3 7 7 0 0 0 .8-2.2H30a323.5 323.5 0 0 1 4.3-.3l.8-1 .2.1 5 .4c0 .8.3 1.7.7 2.5.2.4.5 1 1 1.3l.4.5.2.3c.3.4.7.6 1 .8a7 7 0 0 0 2.5.9h2.5a6.7 6.7 0 0 0 4.9-3.3 7 7 0 0 0 1-2.5v-.3l1.1 1a89.2 89.2 0 0 0 2.2 1.8c.6 0 1.1.1 1.7.4l2 1v.2c1.2.6 2.3 1.2 3.2 2 .6.6 1.2.6 1.8.6a192 192 0 0 1 7.8 0c.3 0 .5 0 .5-.3v-1.2c0-.1-.1-.3-.3-.3-.3-.1-.7-.5-1-.8l-.6-1v-.2l-1.5-2.4c-.7-1.3-1.6-2.6-2.2-4v-.7c.1-.3 0-.5-.3-.6l-.5-.2a110.4 110.4 0 0 0-7.4-2 9 9 0 0 0-3 2.8l-1.6-1.7.7-2.8v-.3L56 28c-.2-.6-.3-1.2-.2-1.8v-.6a1 1 0 0 0-.2-.8c-.3-.2-.6-.2-.8-.2l-.6.1-.1.2-4.1-.6V24c0-.2 0-.3-.2-.3l-3.4-.8-2.7-.7-1-.6a.5.5 0 0 0-.6.1 11 11 0 0 1-1 1l-.1-1.4c0-.3-.3-.5-.5-.5a101.6 101.6 0 0 1-3.5.2l-.1.4a121 121 0 0 1 .6 5c0 .7 0 1.4.2 2H37c-.6 0-1.1.4-1.3 1l-.2.7h-1.2v-.5c0-.1 0-.3-.2-.4a.5.5 0 0 0-.4 0l-.5-.1v-.8l2.5-.2c.2 0 .5-.1.5-.4l.2-2.4V23l.1-.2v-.6l-.1-.8-.5-2.7c-.3-2.3-.7-4.7-1.6-7h.2l.4-.3c.2-.1.3-.3.3-.6l-.6-1.1c0-.2-.2-.3-.4-.3-4.6 0-9.1.1-13.7.3-.3 0-.5.2-.5.5v1.1c0 .2.2.4.4.5.1 0 .3 0 .4.2-.2 2.3-.1 4.7 0 7.4h-4.4a2 2 0 0 0-.3-1l-.2-.2h-1.1v-.4h.6c.1 0 .3 0 .3-.2l.2-.5.1-.6c0-.4-.5-.5-.6-.6h-.2l-.3-.1H14a9 9 0 0 0-.8.2l-.2.1v.3c0 .4.2.8.3 1.1 0 .2.1.3.3.3h.5v.3c-1.3 0-2.6 0-4 .2l-.2.1a2 2 0 0 0-.2 1.1l-2.3.1h-.8c-1.3 0-1.3 1.4-1.3 2v1.7L5 24.6a22.3 22.3 0 0 1-.5 3.8v.8L3 29c-.8 0-1.5.1-2.2.3-.2 0-.4.3-.4.5v1"/>
  </g>
  <path fill="#4d4d4d" d="M1.3 31v3.2A11 11 0 0 1 4 36.3l.1.2h.2v-.4c-.1-2 0-4 .3-6h-.2a5 5 0 0 0-.3 0H1.4v.9m3.6-.8a38.6 38.6 0 0 0-.2 6.4h.5c1.2 0 2.3 0 3.7-.2l1.3-6.4H5.6l-.2.1-.3.1m.4-1.2v.4h.6l.4-.1.3-4.9.3-3.8h-.6c-.2 0-.3.2-.3 1.1v1.6L6 24.7l-.3 2.8-.2 1.1v.3"/>
  <path fill="#ffbe06" d="M8.8 28.7c-.1-.2-.1-.3 0-.4l.5-.4h.3c.1.2 0 .3 0 .4l-.5.4h-.3Zm-1-6.6.1-.4.9-.4a.2.2 0 1 1 .2.4l-.8.5H8l-.3-.1Zm0 5.3.1-.3 1.3-.9h.4v.4a12 12 0 0 1-1.6 1l-.2-.2Zm0-4.3v-.4l1.7-1.1h.3c.1.2.1.3 0 .4l-1.6 1.1h-.4Zm0 1.8.1-.3c.6-.3 1.1-.7 1.5-1.2h.4v.4A5.2 5.2 0 0 1 8 25l-.2-.1Zm0 1.7v-.3l1.6-1h.3c.1.1 0 .3 0 .4a13 13 0 0 1-1.7 1h-.2Zm0-2.6v-.3l1.5-1h.4l-.1.4a25.7 25.7 0 0 0-1.6 1h-.2Zm-.2 1.6c0-.1.1-.3.3-.3l.7-.3.2-.1c.2-.2.4-.4.8-.5 0 0 .2 0 .3.2 0 .1 0 .2-.2.3l-.7.4c-.4.3-.7.5-1 .5h-.1c-.1 0-.3 0-.3-.2Zm-.1 2.8s0-.2.2-.3c.5-.1 1-.5 1.3-1h.4c.1 0 .1.2 0 .4-.3.5-1 1-1.6 1.1-.2 0-.3 0-.3-.2Zm-.2-4L7 29.3h2l14 .2-.4-.5-.4-.6h-2.7a78.6 78.6 0 0 1-3.2 0V28h-.5a4 4 0 0 1-.8.1h-4c-.1 0-.5 0-.6-.3v-.4l.2-4.5.1-.2h.2c1.3.2 2.7.2 4 .1h3.5c0-.8 0-1.7.2-2.5h-8.2l-2.8.2c0 1.3-.2 2.6-.3 3.8"/>
  <path d="M7.7 28.1c-.2 0-.2.2-.2.3l.2.2h.1a3 3 0 0 0 1.6-1.1c.1-.2.1-.3 0-.4H9c-.3.5-.8.9-1.3 1m.2-2.8c-.2 0-.3.2-.3.3l.3.2c.4 0 .7-.2 1-.4l.1-.1.7-.4.2-.3c0-.2-.2-.2-.3-.2l-.8.5h-.2l-.7.4m-.1-1.6v.3a.3.3 0 0 0 .3.1l1.5-1v-.3c0-.1-.2-.2-.3-.1l-1.5 1m.1 2.6c-.2 0-.2.2-.1.3l.2.1 1.6-1c0-.1.1-.3 0-.4h-.3l-1.5 1m.2-1.7c-.2 0-.3.2-.2.3a.3.3 0 0 0 .3.1c.7-.3 1.2-.7 1.7-1.2v-.4h-.4c-.4.5-1 .9-1.5 1.2m0-1.9c-.1.1-.2.3 0 .4a.3.3 0 0 0 .3 0l1.6-1c.1-.2.1-.3 0-.4 0-.2-.2-.2-.3-.1l-1.6 1.1M8 27c-.2.1-.2.3-.2.4l.2.1h.2l1.3-1c.1 0 .2-.2 0-.3h-.3l-1.3.9m.1-5.4c-.2.1-.2.3-.2.4l.3.1 1-.5v-.4h-.3l-.9.4m.9 6.6c-.1 0-.1.2 0 .4H9l.5-.4V28h-.3l-.5.3"/>
  <path fill="#333" d="M9.6 36.3h.4l.5-2.8c0-.2.2-.3.4-.4V30h-.1l-1.2 6.3m.8-17.4c-.1.2-.2.4-.1.6h.1l3.7-.1v-.6h-3.7"/>
  <path fill="#f49c00" d="M14 27a6 6 0 0 1 0-1v-.2c.2 0 1.4-.2 1.6 0 .4.2.3.8.2 1.2v.2c0 .1 0 .2-.2.2h-1l-.4-.1-.1-.3Zm-3.2.6.2.1h4.8c.3 0 .6-.2.7-.3l.2-.1.7-.8c.3-.3.6-.4.9-.4.2-.7.1-1.4 0-2.2v-.4h-1.6l-1.8-.1h-3.8l-.3 4.2"/>
  <path fill="#333" d="M11.4 30v3H13l.8-.8h-.3c-.2 0-.3 0-.3-.2l-.2-1c0-.4 0-.5.2-.6H15l.1.2v.7c.4-.3.9-.5 1.3-.6l.4-.2c.4 0 .7-.2 1.1-.3l1 .1h.2c1.8.3 3.4 1 4.6 2.3a7 7 0 0 1 1.8 3.3l.1.8v1h.1V34c-.5-1.5-1.4-2.8-2.3-4h-12"/>
  <path fill="#4d4d4d" d="M14.3 37.4c0-.7.2-1.3.6-2a4.3 4.3 0 0 1 2.5-2.1l.2-.1.7-.2h.5l.2.1c1 .1 2 .6 2.8 1.4a4.3 4.3 0 0 1 1 2l.1.4v.4c.1.3 0 .6 0 .8 0 .5-.3 1-.5 1.5a4 4 0 0 1-3 2h-1.1a2.5 2.5 0 0 1-.4 0 3 3 0 0 1-1.5-.5l-.6-.5-.2-.2-.3-.3-.5-.8a5 5 0 0 1-.5-2Zm-1.7-1.2v1.2c0 1 .2 1.9.6 2.7l.6 1 .6.7.2.3.9.6a5 5 0 0 0 2 .7h2.3a5.8 5.8 0 0 0 4.1-2.8 6 6 0 0 0 .8-2.1V36a6.2 6.2 0 0 0-1.6-2.8 7 7 0 0 0-4-2h-1c-.2 0-.5 0-.8.2l-.5.1a6 6 0 0 0-3.5 3c-.3.4-.4.9-.6 1.4v.2"/>
  <path fill="#ff0" d="M13.5 30.8v.1l.1.8h1v-.9h-1.1"/>
  <path fill="#ccc" d="m13.6 16.5.2.6H15v-.2l.2-.2H15l-.2-.1H14a5 5 0 0 0-.4 0"/>
  <path d="M14.5 27v-.8h.8v.7h-.7Zm-.6-1c0 .4 0 .7.2 1v.3l.5.1h1c.1 0 .2 0 .2-.2V27c0-.4.2-1-.2-1.2-.2-.2-1.4 0-1.5 0l-.2.2m.9 11.4c0-.6.1-1.2.5-1.8a4 4 0 0 1 2.5-2l.5-.1h.7c1 .2 1.9.6 2.5 1.3a3.7 3.7 0 0 1 1 1.8V38c0 .5-.2 1-.5 1.4-.5 1-1.5 1.6-2.5 1.7H18c-.4 0-.8-.2-1.2-.4l-.6-.4-.1-.2-.4-.4a2 2 0 0 1-.4-.6c-.3-.6-.4-1.2-.4-1.7Zm0-2a5 5 0 0 0-.5 2 4.3 4.3 0 0 0 1 2.7l.3.3.2.2.6.5a3.6 3.6 0 0 0 1.6.5h1.4a4 4 0 0 0 3-2l.5-1.5c0-.2.1-.5 0-.8v-.8c0-.3-.2-.5-.3-.8l-.8-1.2A4.6 4.6 0 0 0 19 33h-.7l-.7.1h-.2a4.3 4.3 0 0 0-2.5 2.1"/>
  <path fill="#4d4d4d" d="m14.4 26.2.1.7h.9v-.7h-1"/>
  <path fill="#333" d="M14.7 18.8v.6h.9l-.1-.6h-.8"/>
  <path fill="#f49c00" d="M15.2 37.4c0-.6.2-1 .5-1.6a3.3 3.3 0 0 1 2-1.6l.1-.1.5-.1h.6a4 4 0 0 1 2.2 1 3.3 3.3 0 0 1 .9 1.7v1.2a3.4 3.4 0 0 1-2.8 2.7H18a2 2 0 0 1-1.1-.3l-.5-.4-.1-.2-.2-.2-.5-.6c-.2-.6-.4-1-.4-1.5Zm0-1.8a3 3 0 0 0-.4 1.8c0 .5.1 1 .4 1.7l.4.6.4.4.1.2.6.4c.4.2.8.4 1.2.4h1.5c1 0 2-.8 2.5-1.7a3.8 3.8 0 0 0 .6-2v-.8l-.3-.7c-.2-.4-.4-.8-.8-1.1a4.2 4.2 0 0 0-2.5-1.2h-.2l-.4-.1-.5.1-.3.1a3.8 3.8 0 0 0-2.2 1.9"/>
  <path d="M15.7 37.4c0-.5.1-1 .4-1.4a2.9 2.9 0 0 1 1.7-1.4h.2l.4-.2h.5c.7.2 1.4.5 1.9 1a2.8 2.8 0 0 1 .7 1.4v1.1c0 .3-.2.7-.4 1-.4.7-1.2 1.2-2 1.3h-1a2 2 0 0 1-1-.3l-.4-.3v-.2l-.3-.3c-.2 0-.3-.3-.4-.5a3 3 0 0 1-.3-1.2Zm0-1.6a3 3 0 0 0-.5 1.6 3.4 3.4 0 0 0 1 2.3l.2.2.5.4 1.1.4h1.2a3 3 0 0 0 2.3-1.6c.3-.4.4-.7.5-1.2v-1.2a3.3 3.3 0 0 0-1-1.7 3 3 0 0 0-2.2-1l-.1-.1h-1l-.2.2a3.4 3.4 0 0 0-2 1.6"/>
  <path fill="#ffbe06" d="M20.5 38a.2.2 0 0 1-.2-.3v-.3l.3-.2.2.2v.3c0 .2-.1.2-.2.2Zm-.2-1.5v-.3h.3l.2.4-.3.2a.2.2 0 0 1-.2-.2Zm-.7 2.5v-.3l.1-.2h.4v.4l-.2.1h-.3Zm-.3-3.1a.2.2 0 0 1 0-.4s.1-.1.2 0l.3.1c.1 0 .2.2.1.3a.2.2 0 0 1-.3.1Zm-1 3.3c0-.1 0-.3.2-.3h.4c.1 0 .2 0 .3.2l-.2.2h-.5l-.3-.1Zm-.3-3.7s0-.2.2-.2h.5l.2.3-.3.1h-.3c-.1 0-.3 0-.3-.2Zm-.3 2.7a1 1 0 0 1-.4-.9 1.4 1.4 0 0 1 1-1.2h.4a1.4 1.4 0 0 1 1.1.7l.1.3v.5l-.1.4c-.2.3-.6.6-1 .6h-.2c-.2 0-.4 0-.5-.2l-.2-.1-.1-.1Zm-.6.6v-.3h.3l.2.2v.3l-.2.1h-.1Zm-.2-2.7v-.3l.3-.2h.4v.4l-.3.2h-.4Zm-.3 1.1a.2.2 0 0 1-.2-.3v-.2l.3-.2c.2 0 .2.2.2.3v.2l-.3.2Zm-.3.5c0-.2 0-.3.2-.3.1 0 .3 0 .3.2v.2s0 .2-.2.2-.3 0-.3-.2Zm-.2-1.7c-.3.5-.4 1-.4 1.4a3 3 0 0 0 .7 1.7l.2.3.1.2.4.3c.3.2.7.3 1 .3h1.1c.7 0 1.5-.6 2-1.3l.3-1v-1.1c0-.2 0-.4-.2-.5l-.5-1a3.2 3.2 0 0 0-2.1-.9h-.3l-.4.1-.2.1A2.8 2.8 0 0 0 16 36"/>
  <path d="M16.5 37.4c-.1 0-.2.1-.2.3v.1c0 .1.1.2.3.2l.2-.2v-.2l-.3-.2m-.1-.4s0 .2.2.2c.1 0 .2 0 .2-.2v-.5c-.2 0-.3 0-.4.2v.2m.6-1.1v.3l.1.1h.2l.2-.2v-.3c0-.1-.2-.2-.3 0l-.2.1m0 2.7v.3l.3.2.1.1h.2v-.4l-.2-.2H17m1-.7a.6.6 0 0 1-.2-.5c0-.2.1-.5.3-.6l.3-.2h.4l.6.3.1.2v.8l-.6.3h-.8V38H18l-.1-.2Zm-.7-.5c0 .3.1.6.4.9.1.2.2.2.3.2a1.1 1.1 0 0 0 .5.2h.4c.3 0 .7-.3.9-.6a1.2 1.2 0 0 0 .1-.7v-.5l-.3-.4-.8-.4h-.5l-.5.3c-.3.3-.5.6-.5 1"/>
  <path fill="#4d4d4d" d="M17.8 27c-.3.2-.5.5-.6.8a80.5 80.5 0 0 0 5.3-.1l.2.1.6.8.5.8c1 1.2 2 2.7 2.5 4.3l.6-.9-.2-1.7-.4-1.7-3.1-2.4h-1.8l-2.1-.3H19c-.6 0-.9 0-1.2.3"/>
  <path fill="#f49c00" d="M17.8 37.3c0 .2 0 .4.2.5v.1h.1l.1.1.3.1h.4l.6-.3V37l-.1-.2a.9.9 0 0 0-.6-.3h-.5l-.3.2a1 1 0 0 0-.3.6"/>
  <path d="m18.2 35.3-.2.2c0 .2.2.2.3.2h.3l.3-.1c0-.1 0-.3-.2-.3a1 1 0 0 0-.5 0m.3 3.7c-.2 0-.3 0-.3.2l.3.2h.5l.2-.3-.3-.2h-.4"/>
  <path fill="#ffbe06" d="M18.8 26h.5l2.1.3h1.3c.4 0 .7 0 .9.2l1 .7h.2v-1l-3-.1c-.2 0-.3-.1-.3-.2-.3-1.5-.1-3 0-4.3v-.2l-.4-.9h-.5l-1.5-.1c-.2.9-.3 1.8-.2 2.8v.7l-.1 2.2"/>
  <path d="m19.2 35.5.1.4.3.1h.3l-.1-.4-.3-.2-.3.1m.4 3.2v.3h.3l.2-.1v-.4h-.4l-.1.2m.7-2.5v.3c0 .2 0 .3.2.3.1 0 .2 0 .3-.2 0-.1 0-.3-.2-.4h-.3m0 1.5.2.2c.2 0 .3 0 .3-.2v-.3s0-.2-.2-.2c-.1 0-.2 0-.2.2v.3"/>
  <path fill="#ffbe06" d="M20.9 10.7v.2l.1.1.3-.2H34v-.4c-4.4 0-8.6.1-13 .3"/>
  <path fill="#4d4d4d" d="M31.5 11.5h-10l.2.5a78.2 78.2 0 0 0 .3 9h1.8v-.1l-.1-.4a37.1 37.1 0 0 1 .8-8.8l7 .1v-.3"/>
  <path fill="#ffbe06" d="M22 21.7c-.1 1.3-.3 2.6 0 3.9l2.6.1c0-.3 0-.5-.2-.8l-.2-.5-.3-1c-.2-.6-.2-1.3-.1-1.7H22"/>
  <path fill="#bdccd4" d="M24.2 19.2H30V19a21.8 21.8 0 0 0 0-5v-1.6h-5.2a44.7 44.7 0 0 0-.6 7"/>
  <path fill="#4d4d4d" d="M26 19.7h-1.8a25.4 25.4 0 0 0 0 1 86 86 0 0 1 6.2.4l.1 2.9h1v-.2c-.1-1-.2-2.2 0-3.4v-1.7l-.2-1 .1-1.6v-.6c.2-1 .1-2.1 0-3.2h-.8v1l-.1.5v1.5l.1.7-.1 3v.4c0 .2-.2.4-.5.4h-.5a198.6 198.6 0 0 1-2 0H26"/>
  <path fill="#ffbe06" d="M24.3 21.8v1.5l.4.9a10.2 10.2 0 0 1 .5 1.6l5.2.2v-1.4h-3l-.2-.2-1.9-2.8h-1v.1m.9 4.6v1h5l.1-.8-5-.2"/>
  <path fill="#4d4d4d" d="m25.5 28 1 .6H32V28a151.4 151.4 0 0 1-6.6 0m1 6.5V36l.1 1.8v.1H31l.3-3.4h-4.9m.6-.5h4.4v-.4a29 29 0 0 0-4-.1l-.5.5m.1-4.9v.6a81.3 81.3 0 0 1 5-.2v-.3h-5m1 2.8c-.1-.1-.1-.2 0-.4V31l.1-.3c.1-.4.5-.3.6-.3h1.4c.3.2.2.6.1.8 0 .4 0 .7-.2 1l-.2.1a17.2 17.2 0 0 0-1.4 0c-.3 0-.5-.2-.5-.3Zm-.8-1.8.1.8a119.2 119.2 0 0 0 .3 2h3.8v-.7c0-.9 0-1.5.3-2h-4.5"/>
  <path fill="#bdccd4" d="M25.9 21.2c.6 1 1.3 1.8 1.7 2.7H30c-.1-.8-.2-1.7-.1-2.6a94 94 0 0 0-4 0"/>
  <path d="M28.4 31.8v-.3l.1-.2v-.4h1.2v.9h-1.4Zm-.5-.2v.4s.2.3.5.3a5.5 5.5 0 0 0 1 0h.4c.1 0 .2 0 .2-.2l.2-.8v-.1c0-.2.2-.6-.1-.8h-1.3c-.2 0-.6 0-.7.3v.5l-.1.1v.3"/>
  <path fill="#ff0" d="M28.4 31.7v.1a7.5 7.5 0 0 0 1.2 0l.1-.6v-.3h-1.1v.4l-.1.2v.2"/>
  <path fill="#f49c00" d="M30.7 27.3h.7v-2.7H31c0 1-.1 1.8-.3 2.7"/>
  <path fill="#ffbe06" d="M32.3 24.7h-.5c0 .3 0 .6.2 1h3.3v-.4a25.3 25.3 0 0 0 .1-2.6V22H34l-.4.8a63.3 63.3 0 0 1-1.3 1.9"/>
  <path fill="#bdccd4" d="m32 16.1-.2 1.5.2 1v1.9c-.2 1.2-.1 2.4 0 3.4v.2h.1l.9-1.6.5-.9.3-.2h1.5l-.4-2.4c-.4-2.4-.9-5-1.8-7.2v-.2H32V16"/>
  <path fill="#f49c00" d="M31.9 26.1v1.2l2.4-.1h.9v-1H32"/>
  <path fill="#333" d="M31.9 32.3c0 1.8 0 3.7-.3 5.5h2l.8-1v-.4H34l-.3-.2h-.2a.5.5 0 0 1-.4-.5V33h-.3c-.3 0-.6 0-.8-.4v-1.5l.2-.2.9-.1v-.5h-1c-.2.5-.3 1.1-.3 2"/>
  <path fill="#f15a24" d="M32.6 32.1v.4h.5v-1.2h-.5v.8"/>
  <path fill="#4d4d4d" d="M34.1 32.3v.3h1.7l-.1-.3H34m.1.8v.3h1.5l.1-.3h-1.6m0-1.7v.4h1.3v-.4h-1.2m-.1 2.5v.4h1.3l.1-.4h-1.4m.1-3.4v.4h1.2v-.3h-1.2m0 4.2v.6h.1c.2 0 .4 0 .6.2l.2.1.2-.9h-1.1"/>
  <path fill="#333" d="M35.8 36.8h.4l2.3-4.2.1-.3-.7-.1c-.1 0-.2 0-.2-.2v-.2h-1.2l.2.2.2.5a118.3 118.3 0 0 0-1 4.3"/>
  <path fill="#4d4d4d" d="m36.5 29.8-.1 1.1v.3H38l.2.3v.2l1 .3h.3l.1-.5h-1.1c-.1 0-.2 0-.2-.2-.1 0-.1-.1 0-.2 0-.5.1-1 0-1.6H37c-.2 0-.3.1-.4.3"/>
  <path fill="#4d4d4d" d="M39.1 28.7a1 1 0 0 1 0-.8c0-.3.3-.6.6-.6h.1c.3 0 .6.3.7.5.2.3.3.6.2.9-.1.3-.5.5-.8.5a1 1 0 0 1-.8-.5Zm-.2-5c-.2-.1-.5-.6-.4-1 0-.2.2-.4.4-.4.3 0 .5 0 .7.3.2.2.3.5.3.7 0 .2-.2.4-.4.5a.7.7 0 0 1-.6 0Zm0-1.9h-1a150.2 150.2 0 0 1 .6 4.5c0 .9.1 1.7.3 2.5V31h.9l.1-.8c0-.1 0-.2.2-.2l3-.8a15 15 0 0 1-2.4-4.6.5.5 0 0 1-.2-.6l-.4-2-1-.1m0 10.9-2.3 4c1.2.2 2.3.3 3.5.3v-.6l-.8-.1-.6-.2-.1-.3c0-.8.3-1.5.5-2.3l.2-1-.3-.1-.2.3"/>
  <path d="M39 23v-.2l.2.1c.2.1.2.3.2.3v.1h-.2L39 23Zm-.5-.3c0 .4.2.9.4 1a.7.7 0 0 0 .6 0c.2 0 .3-.2.4-.4 0-.2 0-.5-.3-.7a1 1 0 0 0-.7-.3c-.2 0-.4.2-.4.4"/>
  <path fill="#4d4d4d" d="M39 22.8v.2l.2.3h.1c.1-.1 0-.3 0-.4l-.3-.1"/>
  <path d="M39.5 28.5V28c0-.2.2-.3.2-.3l.4.3.1.4-.3.2c-.1 0-.3 0-.4-.2Zm-.5-.6a1 1 0 0 0 .1.8c.2.3.5.5.8.5.3 0 .7-.2.8-.5 0-.3 0-.6-.2-.9 0-.2-.4-.4-.7-.5-.4 0-.7.3-.8.6"/>
  <path fill="#4d4d4d" d="M39.2 35.8h.3l.4.1-.1-.3.1-1a76 76 0 0 1 1.2-3.7 3 3 0 0 1 1.3-.5h1.4a32.4 32.4 0 0 0 3.3-.2l-.5-.5h-.3l-2.5-.3-3.5 1-.3 1.9-.4 1.5-.4 2m.3-7.8v.5l.4.2c.1 0 .3 0 .3-.2V28l-.5-.3-.2.3"/>
  <path fill="#333" d="M40.4 34.8c0 .2-.2.5-.1.7v.3-.1L41 34a7.2 7.2 0 0 1 3.5-3.2h-2c-.4 0-.7.2-1 .4a69 69 0 0 0-1.1 3.5"/>
  <path fill="#4d4d4d" d="M43 37.4a4.3 4.3 0 0 1 3-4.1l.3-.1.6-.2h.5l.2.1c1.1.1 2.1.6 2.8 1.4a4.2 4.2 0 0 1 1.1 2v.8c.1.3.1.6 0 .8 0 .5-.2 1-.5 1.5a4 4 0 0 1-3 2h-1a2.5 2.5 0 0 1-.5 0 3 3 0 0 1-1.5-.5l-.6-.5-.1-.2-.3-.3-.6-.8a5 5 0 0 1-.5-2Zm-1.8-.2v.2c0 1 .2 1.9.6 2.7.2.4.4.8.7 1l.6.7.2.3.8.6a5 5 0 0 0 2 .7h2.3a6 6 0 0 0 5-4.9v-1.8a3.9 3.9 0 0 0-.4-1.6 6 6 0 0 0-1.3-1.8 7 7 0 0 0-4-2h-.9c-.3 0-.6 0-.9.2l-.4.1a6.2 6.2 0 0 0-3.6 3l-.6 1.4v.2l-.1 1"/>
  <path fill="#ffbe06" d="m42.2 23-.7 1c1 .6 2 1.4 2.7 2.2l4 3.6.1.3v.3c1.6.3 3 1 4.2 2.2a7 7 0 0 1 1.6 2.9 14.7 14.7 0 0 0 2.7 2.3c1 .8 1.8 1.6 2.5 2.6l.6.2 2 1.1.1.1.6.4c-.5-1-.8-2-1.1-3.2-.7-.1-1.4-.3-1.9-.8l-.2-.3c-.2-.1-.2-.2-.3-.4a56 56 0 0 1-1.1-1.8l-.4-.1-2-2.2c-1-1.2-1.9-2.6-2.7-4.4l-5.3-3.2-5-3.1-.4.4"/>
  <path d="M43.4 37.4a4 4 0 0 1 2.8-3.6l.2-.2.6-.1h.6c1 .2 1.8.6 2.5 1.3a3.7 3.7 0 0 1 1 1.8V38c0 .5-.3 1-.5 1.4C50 40.4 49 41 48 41h-1.4c-.5 0-.9-.2-1.3-.4l-.5-.4-.2-.2-.3-.4a3.9 3.9 0 0 1-.9-2.3Zm.1-2c-.4.7-.6 1.3-.6 2a4.4 4.4 0 0 0 1.4 3l.1.2.6.5a3.7 3.7 0 0 0 1.7.5H48a4 4 0 0 0 3-2l.6-1.5v-1.6l-.3-.8c-.2-.4-.5-.9-.9-1.2a4.6 4.6 0 0 0-2.8-1.4H47l-.6.1H46a4.2 4.2 0 0 0-2.5 2.1"/>
  <path fill="#f49c00" d="M43.9 37.4a3.3 3.3 0 0 1 2.4-3.2l.2-.1.5-.1h.6a3.6 3.6 0 0 1 2.8 2l.2.7v1.2c0 .5-.2.8-.4 1.2-.5.9-1.4 1.5-2.3 1.5h-1.2l-1.2-.3-.5-.4-.1-.2-.2-.2-.4-.6a3 3 0 0 1-.4-1.5Zm0-1.8a4 4 0 0 0-.5 1.8 3.9 3.9 0 0 0 .9 2.3l.3.4.2.2.5.4c.4.2.8.4 1.3.4H48c1 0 2-.8 2.6-1.7L51 38v-1.4c0-.3-.2-.5-.3-.7-.1-.4-.4-.8-.7-1.1a4.2 4.2 0 0 0-2.5-1.2h-.3l-.3-.1-.6.1-.2.1a3.8 3.8 0 0 0-2.3 1.9"/>
  <path d="M44.3 37.4c0-.5.2-1 .4-1.4a2.9 2.9 0 0 1 1.7-1.4h.2l.5-.2h.4c.7.2 1.4.5 2 1a2.9 2.9 0 0 1 .6 1.4v1.1c0 .3-.1.7-.3 1a3 3 0 0 1-2 1.3h-1.1l-1-.3-.3-.3-.1-.2-.3-.3-.3-.5a3 3 0 0 1-.4-1.2Zm0-1.6a3 3 0 0 0-.4 1.6c0 .4.1 1 .4 1.5 0 .2.2.4.4.6l.2.2.1.2.5.4 1.2.4h1.2c.9-.1 1.8-.7 2.3-1.6a3.2 3.2 0 0 0 .5-1.8V37l-.1-.3-.2-.6c-.1-.4-.4-.7-.7-1-.5-.6-1.3-1-2.1-1l-.2-.1a1 1 0 0 0-.4 0h-.5l-.2.2a3.5 3.5 0 0 0-2 1.6"/>
  <path fill="#ffbe06" d="M49.2 38a.2.2 0 0 1-.2-.3v-.3c0-.1.1-.2.3-.2l.2.2v.3c0 .2-.2.2-.3.2Zm-.3-1.5v-.3h.4l.1.4-.2.2a.2.2 0 0 1-.3-.2Zm-.7 2.5v-.3l.2-.2h.3c.1.1 0 .3 0 .4l-.1.1h-.4Zm-.3-3.1a.2.2 0 0 1 0-.4h.3l.2.1c.2 0 .2.2.1.3l-.2.1Zm-1 3.3c0-.1 0-.3.2-.3h.4c.2 0 .3 0 .3.2 0 .1 0 .2-.2.2H47l-.2-.1Zm-.2-3.7.1-.2h.5c.2 0 .2.2.2.3l-.2.1h-.4c-.1 0-.2 0-.2-.2Zm-.4 2.7a1 1 0 0 1-.4-.9c0-.4.3-.7.6-1l.4-.2h.5a1.4 1.4 0 0 1 1 .7l.2.3a2 2 0 0 1 0 .5l-.2.4c-.2.3-.5.6-.9.6h-.4c-.2 0-.3 0-.5-.2l-.2-.1-.1-.1Zm-.6.6v-.3h.3l.2.2v.3l-.1.1h-.2Zm-.1-2.7v-.3l.3-.2h.3v.4l-.3.2h-.3Zm-.4 1.1a.2.2 0 0 1-.2-.3v-.2l.4-.2s.2.2.1.3v.2c0 .2-.1.2-.2.2h-.1Zm-.3.5c0-.2.1-.3.2-.3.2 0 .3 0 .3.2v.2s0 .2-.2.2c-.1 0-.2 0-.2-.2Zm-.2-1.7c-.2.5-.4 1-.4 1.4A3 3 0 0 0 45 39l.3.3v.2c.2 0 .3.2.5.3.3.2.6.3 1 .3h1c.8 0 1.5-.6 2-1.3l.4-1v-1.1l-.2-.5-.6-1a3.2 3.2 0 0 0-2-.9H47l-.5.1-.2.1-1 .5-.7.9"/>
  <path d="M45.1 37.4s-.2.1-.2.3v.1l.3.2c.2 0 .3-.1.2-.2v-.2c0-.1-.1-.2-.3-.2M45 37s0 .2.2.2.3 0 .3-.2v-.2a.2.2 0 0 0-.4 0v.1"/>
  <path fill="#ffbe06" d="m45.5 23.3 2.3 1.4 1.5.3v-.8l-3-.7-.8-.2"/>
  <path d="M45.6 35.8v.3a.2.2 0 0 0 .3 0l.3-.1v-.3c0-.1-.2-.2-.3 0l-.3.1m.1 2.7v.3l.2.2.2.1h.1c.1-.2.1-.3 0-.4l-.2-.2h-.3m.9-.7a.6.6 0 0 1-.2-.5c0-.2.2-.5.4-.6l.2-.2h.3a.9.9 0 0 1 .8.5v.4l-.1.4c-.1.2-.3.3-.5.3h-.6l-.1-.1-.2-.2Zm-.7-.5c0 .3.2.6.4.9h.1c0 .2.1.2.2.2l.5.2h.4c.4 0 .7-.3.9-.6a1.2 1.2 0 0 0 .2-.7V37l-.1-.3-.3-.4-.8-.4h-.5l-.4.3a2 2 0 0 0-.6 1"/>
  <path fill="#f49c00" d="M46.4 37.3c0 .2 0 .4.2.5l.1.1.2.1.2.1h.4c.3 0 .5-.1.6-.3a.9.9 0 0 0 .1-.4V37l-.2-.2a.9.9 0 0 0-.6-.3H47a1 1 0 0 0-.3.2 1 1 0 0 0-.4.6"/>
  <path d="M46.8 35.3s-.2.1-.1.2c0 .2.1.2.2.2h.3l.3-.1c0-.1 0-.3-.2-.3a1 1 0 0 0-.5 0M47 39l-.1.2.2.2h.5l.2-.3c0-.1-.1-.2-.3-.2h-.4m.8-3.4c-.1.1 0 .3 0 .4l.3.1h.3c.1-.2 0-.3 0-.4l-.3-.2-.3.1m.3 3.2v.3h.4l.1-.1c0-.1.1-.3 0-.4h-.3l-.2.2m.8-2.5c-.1.1-.2.2 0 .3 0 .2 0 .3.2.3 0 0 .2 0 .2-.2l-.1-.4H49m0 1.5c0 .1 0 .2.2.2.1 0 .2 0 .2-.2v-.3l-.1-.2c-.2 0-.3 0-.3.2v.3"/>
  <path fill="#ccc" d="M50 24.7v.4l3.7.6.2-.5-4-.5"/>
  <path fill="#ffbe06" d="M53.4 28.2h.2l.2.3c.6 1.4 1.2 2.5 2 3.5l.6-2.1a9 9 0 0 1-1-1.7 3.9 3.9 0 0 1-.2-2.4v-.6h-.5c-.5 1-1 2-1.3 3"/>
  <path fill="#4d4d4d" d="M54.3 36.4v.5l2 1.7 1.6 1.5h.6a11 11 0 0 0-2-1.9l-.4-.3-1.8-1.5"/>
  <path fill="#ffbe06" d="m58.7 35.8.7 1.4a5 5 0 0 1 .9-1.8l-.1-.1-.4-.3c-.2.4-.7.7-1.1.8"/>
  <path fill="#f49c00" d="M59.6 33.9c-.5.4-.8 1-1.1 1.5.4-.1.8-.5 1-.9l.2-.1h.2l.6.5.3.2v.3l-1 2a3 3 0 0 0 2-1.6l.2-.2h.2l.4.4.4.2.1.2v.2l-1.2 2v.2c.4 1.3.9 2.7 1.6 4 .5.2 1 .5 1.4.9a23.4 23.4 0 0 1-1.5-4.4l.2-.7a18 18 0 0 1 1.3-2.4 19.6 19.6 0 0 0-5.3-2.3"/>
  <path fill="#ffbe06" d="M61.2 32.5a4 4 0 0 0-1.2 1 19 19 0 0 1 5.2 2.3l1.4-1.7-5.4-1.6m1 3.8c-.4.7-1.2 1.4-2.2 1.6.4.3.9.5 1.4.6l1.1-2-.2-.1v-.1m1.6 3.1.1.6a23 23 0 0 0 1.7 4.2h.7a194 194 0 0 1 7.4.2c-.5-.3-.8-.7-1.1-1l-.8-1.3V42l-1.4-2.4a29.7 29.7 0 0 1-2.4-4.5v-.5l-1-.3c-.8.9-1.7 1.8-2.3 3-.3.4-.5 1-.7 1.5l-.2.6"/>
  <path d="M20 60.2h-2.4l-2.4-10.6h2l1.7 7.5h.2l1.9-7.5h1.8l1.9 7.5h.2l1.6-7.5h2l-2.4 10.6h-2.4L22 53.4h-.2Zm10 0V49h2v4.3a2.7 2.7 0 0 1 2.5-1.2c1.7 0 2.6 1 2.6 3v5.1h-2v-4.9c0-.5-.1-1-.3-1.2-.2-.2-.6-.3-1-.3-.6 0-1 .1-1.4.5a3 3 0 0 0-.5 1.8v4.1Zm16-3.5h-5c0 .6.2 1.2.6 1.5.3.3.8.5 1.4.5.4 0 .8-.1 1-.3.4-.2.6-.4.8-.8h.1l1.3.9c-.2.5-.6 1-1.2 1.3-.5.4-1.2.6-2 .6-.9 0-1.6-.2-2.2-.5-.6-.3-1-.8-1.4-1.4-.3-.6-.5-1.4-.5-2.3 0-.9.2-1.7.6-2.3.3-.6.8-1 1.3-1.4.6-.3 1.3-.4 2-.4 1.1 0 2 .3 2.6.9.6.6 1 1.4 1 2.6l-.1 1Zm-1.7-1.3c0-.6-.2-1-.4-1.4-.3-.2-.7-.4-1.2-.4-1 0-1.6.6-1.8 1.8Zm10.4 1.3h-5.1c0 .6.2 1.2.5 1.5.4.3.8.5 1.4.5.5 0 .9-.1 1.1-.3.3-.2.6-.4.7-.8h.2l1.3.9c-.2.5-.6 1-1.2 1.3-.5.4-1.2.6-2 .6-.9 0-1.6-.2-2.2-.5-.6-.3-1-.8-1.4-1.4-.3-.6-.5-1.4-.5-2.3 0-.9.2-1.7.5-2.3.4-.6.8-1 1.4-1.4.6-.3 1.3-.4 2-.4 1.1 0 2 .3 2.6.9.6.6.9 1.4.9 2.6v1ZM53 55.4c0-.6-.2-1-.5-1.4-.2-.2-.6-.4-1.1-.4-1 0-1.6.6-1.8 1.8Zm5.8 5c-.7 0-1.3-.2-1.7-.6a3 3 0 0 1-.5-1.8v-9h2v9c0 .4.2.7.6.7l.4-.1.2 1.6h-.4l-.6.2Zm-43.2 2.4v8.8h4.7v1.7h-6.8V62.8Zm9.7 10.7a4 4 0 0 1-2-.5c-.6-.3-1.1-.8-1.4-1.4a5.2 5.2 0 0 1 0-4.5c.3-.6.8-1.1 1.4-1.4.5-.3 1.2-.5 2-.5s1.5.2 2 .5c.7.3 1.1.8 1.5 1.4.3.6.5 1.4.5 2.2 0 1-.2 1.7-.5 2.3-.4.6-.8 1-1.4 1.4-.6.3-1.3.5-2 .5Zm0-1.7c1.3 0 1.9-.8 1.9-2.5a3 3 0 0 0-.5-1.8c-.3-.4-.8-.6-1.4-.6-1.2 0-1.8.8-1.8 2.4 0 1.7.6 2.5 1.8 2.5Zm7.7 1.7c-.5 0-.9-.1-1.3-.3a2 2 0 0 1-.8-.8c-.2-.4-.3-.8-.3-1.4 0-.4 0-.8.3-1.1.2-.4.5-.6.9-.8.4-.2 1-.4 1.7-.5.4 0 .8-.2 1-.3.3 0 .5-.2.6-.3v-.4c0-.3 0-.5-.2-.6l-.9-.2-1.2.3c-.4.2-.8.5-1 .8h-.2l-.9-1.3a4 4 0 0 1 1.5-1c.6-.3 1.3-.4 2-.4 1 0 1.8.2 2.2.7.5.4.7 1 .7 1.9v3.5c0 .3.2.5.5.5h.4l.2 1.3-.5.2h-.6a2 2 0 0 1-1.1-.2c-.3-.2-.5-.5-.6-.8h-.2c-.3.8-1 1.2-2.1 1.2Zm.7-1.5c.5 0 .8-.2 1.1-.5.3-.3.4-.7.4-1.3v-.8h-.1l-.5.2a6 6 0 0 1-.8.2 2 2 0 0 0-1 .4 1 1 0 0 0-.3.7c0 .4.1.6.3.8.2.2.5.3.9.3Zm8.6 1.5c-.6 0-1.2-.2-1.7-.5-.4-.3-.8-.7-1.1-1.4a5 5 0 0 1-.4-2.3c0-.9.1-1.6.4-2.3a3 3 0 0 1 3-1.8c.4 0 .8 0 1.2.3.4.1.7.4 1 .8v-4.1h2v11.1h-2v-1l-1 .9c-.4.2-.8.3-1.4.3Zm.7-1.7c.5 0 1-.2 1.3-.6.3-.4.5-1 .5-1.9a3 3 0 0 0-.5-1.8c-.3-.4-.8-.6-1.3-.6-.6 0-1 .2-1.4.6a3 3 0 0 0-.5 1.8c0 .9.2 1.5.5 1.9.3.4.8.6 1.4.6Zm12.8-2h-5.1c0 .7.2 1.2.6 1.5.3.3.8.5 1.4.5.4 0 .8-.1 1-.3.4-.1.6-.4.8-.7h.1l1.4.8a4 4 0 0 1-1.2 1.4 4.8 4.8 0 0 1-4.3 0c-.6-.3-1-.8-1.4-1.4-.3-.6-.4-1.4-.4-2.3 0-.9.1-1.6.5-2.3.3-.6.8-1 1.4-1.3.5-.4 1.2-.5 2-.5 1 0 2 .3 2.5.9.6.6 1 1.5 1 2.6l-.1 1Zm-1.7-1.3c0-.6-.2-1-.4-1.3-.3-.3-.7-.4-1.2-.4-1 0-1.6.5-1.8 1.7Zm3.7 4.8v-8h2v1.2l.8-1a2 2 0 0 1 1.2-.2c.4 0 .8 0 1 .2l-.3 1.7h-.2a2.4 2.4 0 0 0-.8 0c-.6 0-1 .1-1.3.5-.3.4-.4 1-.4 1.9v3.7Zm0 0"/>
</svg>
