<svg xmlns="http://www.w3.org/2000/svg" xmlns:xlink="http://www.w3.org/1999/xlink" version="1.0" viewBox="0 0 75 75">
  <defs>
    <path id="a" fill="#fff" d="M-7.5-7.5h90v90h-90z"/>
  </defs>
  <defs>
    <clipPath id="b">
      <path d="M63 33h12v12.8H63Zm0 0"/>
    </clipPath>
    <clipPath id="c">
      <path d="M0 7.5h14V32H0Zm0 0"/>
    </clipPath>
  </defs>
  <use xlink:href="#a"/>
  <use xlink:href="#a"/>
  <path fill="#3f3f3f" d="M40.8 21.2c2.2-.2 4.2 1 5 3.1 0 .3.4.2.4 0-.9-2.3-3-3.7-5.4-3.5-.3 0-.3.4 0 .4Zm0 0"/>
  <path fill="#3f3f3f" d="M41.6 22.7c1-1 2.7-.3 2.8 1.2 0 .2.5.2.5 0a2.2 2.2 0 0 0-3.6-1.5c-.3.1 0 .4.3.3Zm0 0"/>
  <path fill="#b2b2b2" d="m44 25 8.2 2.3 3.8 1.1c1 .4 2.2.8 3 1.7.4.5 1.2-.3.7-.8a6.6 6.6 0 0 0-2.8-1.8l-4-1.2-8.7-2.5c-.7-.2-1 .9-.3 1.1Zm0 0"/>
  <path fill="#a8a8a8" d="m20.8 24.3 3-8.9h13l2.8 1.5 2.3 7-4.3.5-.1 6.2-2-.1s-2.7-8.6-14.6-5.1Zm0 0"/>
  <path fill="#fff" fill-opacity=".3" d="m21.5 22.1 6.8-6.7h5.8l-9.4 9.3-3.8.7s-.7-1 .6-3.3Zm7.2 2.8 7.4-7.4 1.4 3.6-5.2 5.3Zm0 0"/>
  <path fill="#1e1e1e" d="M55 28.1h-.2l-.7-.2-4.6 4h-11v1H38v-.2a22.9 22.9 0 0 0-2.8 0c-.3 0-.5-.1-.6-.3-.7-1.3-1.5-2.5-2.7-3.5a7.4 7.4 0 0 0-4-1.3c-1.5 0-3 .1-4.4.4-1 .2-2 .8-2.8 1.4l2.2 2h1.8a7.3 7.3 0 0 0 6.4 10.8c2.4 0 4.6-1.2 5.9-3h7.9s4.8-9.4 11.3 0Zm0 0"/>
  <path fill="#e2aa1e" d="M57.6 29.3s3.3 2.7 7 7.3l1-1S64 31.7 58.5 28Zm0 0"/>
  <path fill="#3f3f3f" d="M39.6 15.9 36.4 14c-11-.4-13.3.5-13.3.5-3.6 12.4-3 12-3 12s.4-1.4 6.7-1.3c6.2 0 8.7 6.7 8.7 6.7l9 .2c-2.3-8.4-5-16.3-5-16.3ZM28 24h-5.3c-1.5 0-.9-1.4-.9-1.4l1.8-5.3c.3-1.1 1-1 1-1H28Zm9.1 6.2h-1a9 9 0 0 0-6.7-6v-8h6l1.7 5.4Zm-.1-14 2.4 1 2 6-2 .1Zm0 0"/>
  <path fill="#ffcf48" d="M22.2 13h14.5v2H22.2Zm0 0"/>
  <path fill="#e2aa1e" d="M53.8 28c.1-.4 0-1-.3-1.3L42.2 24l-1 .9.4 3 3.5 2.6 2.1 1.5h2.3l4.2-3.7.1-.3Zm0 0"/>
  <path fill="#1e1e1e" d="M14.5 30.5h8v6h-8Zm0 0"/>
  <path fill="#ffcf48" d="m50.5 35.2-10.2-6.8c-.3-.2-.3-.7 0-1 .1-.2.5-.2.8-.1l10.2 6.8Zm0 0"/>
  <path fill="#ffd473" d="M42.2 24 54 27.8c.3.2.5.5.4.8 0 .4-.7.6-1.3.4l-11.9-3.9Zm0 0"/>
  <g clip-path="url(#b)">
    <path fill="#ffcf48" d="m75 45.7-1.1-3-.5.1-1.8-7 1.6-1.2-.1-.8-3.7-.7s-3.6.5-5.6 5.2c-2 4.6 4.2 6.5 4.2 6.5 2 .4 3.4.5 4.4.5v.5H75Zm0 0"/>
  </g>
  <path fill="#ffcf48" d="M41.2 24.8c-.6 0-1 .3-1.2.7-.2.5.3 1.3 1.2 1.4 5.1 1.7 8.5 4 10.8 5.7 4.7 3.3 10.6 8.4 11 8.4.5 0 1.4-.3 1.3-1-.2-.9-.8-2.1-10.9-9.9 0 0-8.8-5-12.2-5.3Zm0 0"/>
  <path fill="#ffcf48" d="m59 34.9 1.3-3.7 1 1.1-1.2 3.5ZM36.7 13l3.5 2.5-.5 1-3-1.4Zm0 0"/>
  <path fill="#666" d="M14.6 32.7h6.8c.4 0 .4-.5 0-.5h-6.8c-.4 0-.4.5 0 .5Zm0 0"/>
  <path fill="#6d6d6d" d="M43 37.4h2.5v2.9H43Zm0 0"/>
  <path fill="#3f3f3f" d="M34.2 37.4a7.3 7.3 0 0 1-2.2 5.3 7.2 7.2 0 0 1-2.5 1.6 7.4 7.4 0 0 1-4.3.4 7.4 7.4 0 0 1-5.9-5.9 7.6 7.6 0 0 1 .4-4.3 7.3 7.3 0 0 1 4-4 7.4 7.4 0 0 1 5.8 0 7.2 7.2 0 0 1 3.4 2.7 7.6 7.6 0 0 1 1.3 4.2Zm0 0"/>
  <path fill="#ffcf48" d="M30.7 37.4a4 4 0 0 1-2.5 3.6 3.9 3.9 0 0 1-2.3.3 3.9 3.9 0 0 1-2-1.1 3.8 3.8 0 0 1-1.1-2 4 4 0 0 1 1.7-4.1 4 4 0 0 1 6.2 3.3Zm0 0"/>
  <path fill="#e2aa1e" d="M29.3 37.4a2.5 2.5 0 0 1-.8 1.8 2.6 2.6 0 0 1-1.8.8 2.6 2.6 0 0 1-2.4-1.6 2.5 2.5 0 0 1 0-2 2.6 2.6 0 0 1 2.4-1.6 2.6 2.6 0 0 1 1.8.8c.3.2.4.5.6.8l.2 1Zm0 0"/>
  <path fill="#ffcf48" d="M28.7 37.4a2 2 0 0 1-.6 1.4 2 2 0 0 1-.7.4 2 2 0 0 1-1.5 0 2 2 0 0 1-1-1 2 2 0 0 1 .4-2.2c.1-.2.4-.3.6-.4a2 2 0 0 1 1.5 0c.3 0 .5.2.7.4a2 2 0 0 1 .6 1.4Zm0 0"/>
  <path fill="#3f3f3f" d="M56.2 39.2a5.5 5.5 0 0 1-1 3.1 5.7 5.7 0 0 1-10.2-2 5.5 5.5 0 0 1 .8-4.2 5.7 5.7 0 0 1 8.7-.9 5.7 5.7 0 0 1 1.7 4Zm0 0"/>
  <path fill="#ffcf48" d="M53.4 39.2a2.8 2.8 0 0 1-.9 2 2.8 2.8 0 0 1-2 .8 2.8 2.8 0 0 1-2-.8 2.8 2.8 0 0 1-.8-2 2.8 2.8 0 0 1 .8-2 2.8 2.8 0 0 1 2-.8 2.8 2.8 0 0 1 2 .8 2.8 2.8 0 0 1 .9 2Zm0 0"/>
  <path fill="#e2aa1e" d="M52.4 39.2a1.8 1.8 0 0 1-.6 1.3 1.9 1.9 0 0 1-1.3.5l-.7-.1-.6-.4-.4-.6a1.8 1.8 0 0 1 0-1.4 1.8 1.8 0 0 1 1-1 1.9 1.9 0 0 1 1.4 0l.6.4a1.8 1.8 0 0 1 .6 1.3Zm0 0"/>
  <path fill="#ffcf48" d="M51.7 39.2a1.2 1.2 0 0 1-.3.9l-.4.2a1.2 1.2 0 0 1-1 0l-.3-.2a1.2 1.2 0 0 1-.4-.9 1.2 1.2 0 0 1 .4-.8 1.2 1.2 0 0 1 2 .8Zm0 0"/>
  <path fill="#f9ac00" d="m43.2 30.1-.8 1.4 2.8 1.9.9-1.6Zm0 0"/>
  <path fill="#ffcf48" d="M19.2 30h1.2s1-2.3 6.7-2.3c5.8 0 7.6 5.1 7.6 5.1h3.8V32h-3s-2-6.7-8.7-6.7c-6.7 0-7.6 1-7.6 4.8Zm0 0"/>
  <path fill="#444" d="M40.2 34.3c.2-.6.4-1.3.9-1.8.4-.4 1-.7 1.5-.4.5.3.5 1 .5 1.5V36l.5-.4h-2c-.8 0-.8 1.2 0 1.2h2c.2 0 .5-.2.5-.5.2-1 .3-2.1.1-3.2-.1-.8-.4-1.6-1.3-2-.8-.3-1.7 0-2.4.5-.7.6-1 1.6-1.4 2.5-.2.7.9 1 1.1.3Zm0 0"/>
  <path fill="#b7b7b7" d="M36 37h5.6v2.2h-5.5Zm0 0"/>
  <path fill="#565656" d="M41.8 37.3h-6a.3.3 0 0 1-.3-.4v-2.8c0-.2.2-.4.3-.4h6c.2 0 .3.2.3.4v2.8c0 .2-.1.4-.3.4Zm0 0"/>
  <path fill="none" stroke="#1e1e1e" stroke-miterlimit="10" stroke-width="2" d="M571 723h96.4" transform="matrix(.0681 0 0 .0676 -3.3 -13.8)"/>
  <path fill="#ffcf48" d="M36.2 34h1v.7h-1Zm0 0"/>
  <path fill="#919191" d="m43.6 17-1-1v7.5c0 .7 1.1.7 1.1 0V17h-.1Zm0 0"/>
  <path fill="#b7b7b7" d="M40.1 34.3h.4v2.4H40Zm0 0"/>
  <path fill="#ffcf48" d="m42.2 24 11.2 2.7.3-.7-10.3-3s-1.4-.4-1.2 1Zm0 0"/>
  <path fill="#b2830b" d="M41.5 24.6c3.1.8 6 2.1 8.8 3.8.4.3.7-.3.3-.5a31.1 31.1 0 0 0-8.9-4c-.4 0-.6.6-.2.7Zm0 0"/>
  <path fill="#b2830b" d="M50.1 28c-.3 1.6-.8 3.2-1.5 4.7-.2.4.4.7.6.3.7-1.5 1.3-3.1 1.6-4.8 0-.4-.6-.6-.7-.2Zm0 0"/>
  <path fill="#ffcf48" d="M11.4 35.2s.7 3.6 4 1.4c0 0-.3-3.8 3-8.7 0 0 .9-.3-1-4.4L12.2 13l-1.9 3.7s3 8.7 1.9 13.5c-1.2 4.8-.8 5-.8 5Zm0 0"/>
  <path fill="#999" d="M13.3 23.4h3.5V28h-3.5Zm0 0"/>
  <path fill="#3f3f3f" d="m15.4 26 2.5-.2L19.6 38l-2.4.4Zm0 0"/>
  <path fill="#e2aa1e" d="m14.4 17.5 1.9-.4 1.8 8.3Zm0 0"/>
  <path fill="#adadad" d="m12.3 9.8 2.7 8.5c0 .3.6.2.5-.2l-2.7-8.4c0-.4-.6-.2-.5.1Zm0 0"/>
  <path fill="#e2aa1e" d="m3 23.2 4-9.1 1.2.5-3.9 9.2Zm0 0"/>
  <path fill="#adadad" d="M2 28.7 4.3 23c.1-.4-.4-.5-.6-.2l-2.4 5.8c-.1.3.4.4.5.1Zm0 0"/>
  <g clip-path="url(#c)">
    <path fill="#ffcf48" d="m4 29 8.6-15.5s2.2-5.2-.3-5.6c-2.4-.4-2.5.6-4.5 3.7 0 0-1.5 2-1 5.8l-4 10.2s-2.7.8-2.7 2C0 31 0 31.7 3 32c0 0 1.6 0 1.3-.7-.2-.6-2.4-.1-2.3-.8.1-.7 1-.6 1-.6Zm0 0"/>
  </g>
  <path fill="#adadad" d="m5 29.4-1.7-.9-1 .7s-.2 3.3 2.3 3.8 5.5-.3 6.1-1.7c.7-1.4.3-5.7.3-5.7l-2.7.2-.1 1.4Zm0 0"/>
  <path fill="#999" d="m8.3 25.8 2.7-.1s.5 4.8-.2 5.6c-.8.8-1.3 1.4-2.2 1.5Zm0 0"/>
  <path d="M6.7 59.6v-11h4.7a4 4 0 0 1 1.7.4 2.3 2.3 0 0 1 1.4 2.3c0 .5-.1 1-.4 1.3-.2.4-.5.6-1 .9v.1a2.7 2.7 0 0 1 2.2 2.7c0 1.1-.3 2-1 2.5-.6.6-1.5.8-2.8.8Zm4.2-6.5c1 0 1.5-.5 1.5-1.4 0-.5-.1-.8-.4-1-.2-.3-.6-.4-1-.4H8.8v2.8Zm.4 4.8c1.2 0 1.8-.5 1.8-1.6 0-1-.6-1.6-1.8-1.6H9v3.2Zm7.9 1.9c-.5 0-1-.1-1.4-.3a2 2 0 0 1-.9-.9c-.2-.3-.3-.8-.3-1.3s0-1 .3-1.2c.2-.4.6-.6 1-.9l1.7-.5 1.1-.2.5-.3.2-.5c0-.3-.1-.5-.3-.6l-1-.2c-.4 0-.8 0-1.2.3l-1.1.8h-.1l-1-1.3a5 5 0 0 1 3.5-1.5c1.2 0 2 .2 2.5.7.5.5.7 1.1.7 2v3.6c0 .3.2.5.5.5h.4l.2 1.4-.5.2-.6.1a2 2 0 0 1-1.2-.3c-.3-.2-.5-.5-.6-.9h-.1c-.5.9-1.2 1.3-2.3 1.3Zm.6-1.6c.5 0 1-.1 1.2-.4.3-.4.4-.8.4-1.4v-.8h-.1l-.5.2-.9.2c-.4 0-.8.2-1 .4l-.2.7c0 .4 0 .7.3.9l.8.2Zm9.7 1.6c-.8 0-1.5-.2-2.1-.5-.6-.3-1.1-.8-1.5-1.5-.3-.6-.5-1.4-.5-2.3 0-.9.2-1.7.5-2.3.4-.7.9-1.2 1.5-1.5.6-.3 1.3-.5 2-.5 1.8 0 3 .6 3.4 1.9l-1.4 1h-.2a2 2 0 0 0-.6-.8 2 2 0 0 0-1.1-.3 2 2 0 0 0-1.5.6c-.3.4-.5 1-.5 2 0 .8.2 1.4.5 1.8.4.4.9.6 1.5.6.4 0 .8 0 1.1-.3.3-.3.6-.6.7-1l.2-.1 1.4.8c-.2.7-.6 1.3-1.1 1.7-.6.5-1.4.7-2.3.7Zm4.9-.2V48.1h2v6.4h.3l2.3-3.1h2.2v.1l-2.9 3.7 3.2 4.2v.2h-2.2l-2.6-3.5h-.2v3.5Zm8.3 0V48.1h2v4.3h.2a3 3 0 0 1 1-.9 3 3 0 0 1 1.4-.3c1.9 0 2.8 1 2.8 3.1v5.3h-2v-5c0-.6-.2-1-.4-1.2-.3-.3-.6-.4-1-.4-.7 0-1.1.2-1.5.6-.3.3-.5 1-.5 1.8v4.2Zm13.3.2c-.9 0-1.6-.2-2.2-.5-.6-.3-1-.8-1.4-1.5a5 5 0 0 1-.5-2.3c0-.9.1-1.7.5-2.3a3 3 0 0 1 1.4-1.5 4.8 4.8 0 0 1 4.3 0c.6.3 1 .8 1.4 1.5.3.6.5 1.4.5 2.3 0 1-.2 1.7-.5 2.3a3 3 0 0 1-1.4 1.5c-.6.3-1.3.5-2.2.5Zm0-1.8c1.2 0 1.9-.8 1.9-2.5 0-.9-.2-1.5-.5-2-.4-.3-.8-.5-1.5-.5-1.2 0-1.9.8-1.9 2.5s.7 2.5 2 2.5Zm13-2h-5.4c0 .7.3 1.2.6 1.5.4.4.8.5 1.5.5.4 0 .8 0 1-.2.4-.2.6-.5.8-.8h.2l1.3.8c-.2.6-.6 1.1-1.2 1.5a4 4 0 0 1-2.1.5c-1 0-1.6-.2-2.3-.5-.6-.3-1-.8-1.4-1.4a5 5 0 0 1-.5-2.4c0-1 .2-1.7.5-2.4.4-.6.9-1 1.5-1.4.6-.3 1.2-.5 2-.5 1.2 0 2 .3 2.7 1 .6.6 1 1.5 1 2.7l-.1 1Zm-2-1.4c0-.6-.1-1-.4-1.3-.3-.3-.7-.5-1.2-.5-1 0-1.7.6-1.8 1.8Zm-52.2 7.7v9.1h5v1.8h-7.1v-11Zm10.1 11.1c-.8 0-1.5-.2-2.1-.5-.7-.4-1.1-.8-1.5-1.5a5 5 0 0 1-.5-2.3c0-1 .2-1.7.5-2.3.4-.7.8-1.2 1.5-1.5a4.4 4.4 0 0 1 4.3 0c.5.3 1 .8 1.4 1.5.3.6.5 1.4.5 2.3 0 .9-.2 1.7-.5 2.3-.4.7-.9 1.1-1.5 1.5-.6.3-1.3.5-2.1.5Zm0-1.8c1.3 0 2-.8 2-2.5a3 3 0 0 0-.6-2 2 2 0 0 0-1.4-.5c-1.3 0-2 .8-2 2.5s.7 2.5 2 2.5Zm8.1 1.8c-.6 0-1-.1-1.5-.3a2 2 0 0 1-.9-.9c-.2-.3-.3-.8-.3-1.3s.1-1 .3-1.3c.2-.3.6-.6 1-.8.5-.2 1-.4 1.7-.5l1.2-.2.5-.4.1-.4c0-.3 0-.5-.3-.6-.1-.2-.5-.2-.9-.2-.5 0-.9 0-1.3.3-.4.2-.8.4-1 .8h-.2l-.9-1.3c.4-.5 1-.9 1.6-1.1a5 5 0 0 1 2-.4c1 0 1.8.2 2.3.7.5.5.7 1.1.7 2V71c0 .3.2.5.5.5h.5l.1 1.4-.4.2H37a2 2 0 0 1-1.2-.2l-.6-.9h-.1c-.4.8-1.2 1.3-2.3 1.3Zm.6-1.6c.4 0 .8-.1 1.1-.5.3-.3.5-.7.5-1.3v-.8H35l-.5.2-.9.2c-.4 0-.7.2-1 .4l-.2.7c0 .4 0 .7.3.8.2.2.5.3.9.3Zm8.9 1.6c-.7 0-1.2-.2-1.8-.5-.5-.3-.9-.8-1.1-1.4A6 6 0 0 1 39 69c0-1 .2-1.7.5-2.4.3-.6.7-1.1 1.2-1.4.5-.3 1.1-.5 1.8-.5.5 0 1 0 1.3.3.4.1.7.4 1 .8h.1v-4.3H47v11.6h-2v-1h-.2c-.2.3-.6.6-1 .8a3 3 0 0 1-1.4.4Zm.6-1.8c.6 0 1.1-.2 1.4-.6.4-.4.6-1 .6-2 0-.8-.2-1.4-.6-1.8-.3-.4-.8-.6-1.4-.6-.6 0-1 .2-1.3.6-.4.4-.5 1-.5 1.9 0 .9.1 1.5.5 1.9.3.4.7.6 1.3.6Zm13.4-2h-5.3c0 .7.2 1.2.6 1.5.3.3.8.5 1.4.5.5 0 .8 0 1.1-.3.3-.1.6-.4.8-.8h.1l1.4 1c-.3.5-.7 1-1.2 1.3a4 4 0 0 1-2.2.6c-.9 0-1.6-.2-2.2-.5a4 4 0 0 1-1.5-1.4A5 5 0 0 1 49 69c0-1 .2-1.7.6-2.4.3-.6.8-1.1 1.4-1.4.6-.3 1.3-.5 2-.5 1.2 0 2.1.3 2.7 1 .7.6 1 1.5 1 2.7v1Zm-1.8-1.4c0-.6-.2-1-.5-1.4-.2-.2-.6-.4-1.2-.4-1 0-1.6.6-1.8 1.8Zm3.8 5V65h2v1.2h.1c.2-.4.5-.8.8-1 .3-.2.7-.3 1.2-.3s.8 0 1 .2l-.3 1.8h-.1a2.4 2.4 0 0 0-.9-.1c-.6 0-1 .2-1.3.6-.3.4-.5 1-.5 2v3.8Zm0 0"/>
</svg>
