<svg xmlns="http://www.w3.org/2000/svg" version="1.0" viewBox="0 0 75 75">
  <defs>
    <clipPath id="a">
      <path d="M24.8 43.3h15.5v19.8H24.8Zm0 0"/>
    </clipPath>
  </defs>
  <path fill="#e9d340" d="m19.4 32-1.2-.7 3.1-1.9 1.2.8-3.1 1.8"/>
  <path fill="#e1b011" d="m15.2 34.4-1.2-.7v-2.4l1.2.7v2.4"/>
  <path fill="#e9d340" d="m15.2 32-1.2-.7 4.2-2.4 1.2.7-4.2 2.4M2.5 41.7 1.3 41 14 33.7l1.2.7-12.7 7.3"/>
  <path fill="#e1b011" d="m2.5 48.3-1.2-.7V41l1.2.7v6.6"/>
  <path fill="#de8917" d="M19.4 29.6V32l3.1-1.8v6.5l-20 11.6v-6.6l12.7-7.3V32l4.2-2.4"/>
  <path fill="#e1b011" d="M23.8 40.4 20 38.2v-6.6l3.8 2.2v6.6"/>
  <path fill="#e9d340" d="M23.8 33.8 20 31.6l2.5-1.4 3.8 2.1-2.5 1.5"/>
  <path fill="#de8917" d="M26.3 32.3V39l-2.5 1.5v-6.6l2.5-1.5"/>
  <path fill="#e9d340" d="m52.9 22.4-14.6-8.5c.7-.4 15-7.2 18.1-5.4L71 17c-3-1.8-17.3 5-18.1 5.4"/>
  <path fill="#e1b011" d="m53 34-14.7-8.6V14l14.6 8.5V34"/>
  <path fill="#e9d340" d="m38.4 42.3-14.6-8.5 14.5-8.4L53 34l-14.5 8.4"/>
  <path fill="#e1b011" d="m38.4 50-14.6-8.4v-7.8l14.6 8.5v7.8"/>
  <path fill="#de8917" d="M52.9 22.4C53.7 22 68 15.2 71 17v14.2L38.5 50.1v-7.8L52.9 34V22.4"/>
  <path fill="#32383e" d="M11.2 49c4-2.3 7.1-7.8 7.1-12.3L39.7 49c0 4.6-3.2 10-7 12.4L11.1 49"/>
  <path fill="#de8917" d="M10.1 42.6c.3.2.7.2 1 0L32.7 55c-.4.2-.8.2-1 0L10 42.7"/>
  <path fill="#32383e" d="M18.3 36.7c0-2.3-.8-3.8-2-4.6l21.3 12.5c1.3.7 2.1 2.3 2.1 4.5L18.3 36.7"/>
  <path fill="#de8917" d="M12.6 40c0-.5-.1-.8-.4-1l21.4 12.4c.3.2.5.5.5 1 0 1-.7 2.1-1.5 2.6L11.2 42.5c.8-.4 1.4-1.6 1.4-2.5"/>
  <path fill="#32383e" d="M6 49.5c1.4.8 3.2.7 5.2-.5l21.4 12.5c-2 1.1-3.8 1.2-5 .5L6 49.5M12.2 39l21.4 12.4c-.2-.1-.6 0-1 .2L11.2 39c.4-.2.7-.2 1-.1M31.5 55 10.1 42.7c-.3-.1-.4-.5-.4-1 0-.9.6-2 1.5-2.5l21.4 12.5c-.8.4-1.5 1.6-1.5 2.5 0 .5.2.8.4 1"/>
  <path fill="#32383e" d="M32.6 51.6c.8-.5 1.4-.1 1.5.8 0 1-.7 2.1-1.5 2.6-.8.4-1.5 0-1.5-.9 0-1 .7-2 1.5-2.5"/>
  <path fill="#556d7e" d="M27.5 62 6.1 49.5C4.8 48.8 4 47.2 4 45c0-4.5 3.2-10 7.1-12.3l21.5 12.5c-4 2.2-7.2 7.8-7.2 12.3 0 2.2.8 3.8 2.1 4.6"/>
  <path fill="#556d7e" d="m3.6 46.8 21.5 12.4c.2 1.6 1 2.8 2 3.4L5.7 50c-1-.6-1.8-1.7-2-3.3"/>
  <path fill="#556d7e" d="M3.6 46.8V46L25 58.6v.6L3.7 46.8"/>
  <path fill="#de8917" d="m16.2 32.1 21.4 12.5c-1.3-.8-3-.7-5 .5L11 32.6c2-1.1 3.8-1.2 5.1-.5"/>
  <path fill="#556d7e" d="M12.6 31.3 34 43.8l-.6.2-21.5-12.4.7-.3M3.5 46.1v-.6L24.9 58v.6L3.6 46"/>
  <path fill="#556d7e" d="m11.4 31.9.5-.3L33.4 44l-.6.3-21.4-12.4"/>
  <path fill="#556d7e" d="m11.1 32 .3-.1 3.2 1.8 3.4 2 3.5 2 3.5 2 1.3.8 6.5 3.8-.2.1L11 32M3.5 45.2c9 5.2 12.3 7 21.4 12.4v.4L3.5 45.5v-.3"/>
  <path fill="#556d7e" d="M11 32h.1l21.5 12.4-.1.1L11 32.1m-7.5 13v-1L25 56.7v1L3.4 45"/>
  <path fill="#556d7e" d="m10.2 32.6.8-.5 21.5 12.4-.9.5-21.4-12.4M3.6 43.5 25 56v.6L3.5 44.2l.1-.7"/>
  <path fill="#556d7e" d="m9.7 33 .5-.4L31.6 45l-.5.4-4.8-2.8L9.7 33"/>
  <path fill="#de8917" d="M32.6 55c.8-.5 1.5-1.7 1.5-2.6 0-1-.7-1.3-1.5-.8-.8.4-1.5 1.6-1.5 2.5 0 1 .7 1.3 1.5.9Zm0-10c3.9-2.2 7.1-.4 7.1 4.1 0 4.6-3.2 10-7 12.4-4 2.2-7.3.4-7.3-4.1s3.2-10 7.2-12.3"/>
  <g clip-path="url(#a)">
    <path fill="#32383e" d="M32.6 61.5c4-2.3 7.1-7.8 7.1-12.4 0-4.5-3.2-6.3-7.1-4-4 2.2-7.2 7.8-7.2 12.3 0 4.5 3.2 6.3 7.2 4Zm0-17c4.2-2.5 7.6-.5 7.6 4.3 0 4.9-3.4 10.8-7.6 13.2-4.2 2.5-7.7.5-7.7-4.3a17 17 0 0 1 7.7-13.3"/>
  </g>
  <path fill="#556d7e" d="m9.7 33 16.6 9.6 4.8 2.8c-3 2.5-5.5 6.7-6 10.6L3.5 43.5c.6-3.8 3-8 6-10.5m3.1-1.7a5 5 0 0 1 4 .2L38 43.9c-1-.6-2.4-.7-4-.1L12.6 31.3"/>
  <path fill="#3a4851" d="m38.8 26.6-1.2-.7-.1-22.7 1.2.7v22.7"/>
  <path fill="#556d7e" d="m38.7 4-1.2-.8.8-.4 1.2.7-.8.4"/>
  <path fill="#32383e" d="M39.5 3.5v22.6l-.7.5V3.9l.7-.4"/>
  <path fill="#3a4851" d="m41 34.9-6.1-3.5v-2.6l6 3.6v2.5"/>
  <path fill="#556d7e" d="m40 30.4-6-3.6 5.2-3 6.1 3.5-5.2 3"/>
  <path fill="#3a4851" d="m45.3 27.3-6-3.5v-6l6 3.5v6"/>
  <path fill="#556d7e" d="m41 15.7 6.2 3.6c-.2-.1-.5-.1-.8 0l-6-3.5c.2-.2.5-.2.7 0"/>
  <path fill="#3a4851" d="m39.3 33-6.1-3.6c-.2 0-.3-.3-.3-.7 0-.7.4-1.5 1-1.9l6.2 3.6a2 2 0 0 0-1.1 1.9c0 .3 0 .6.3.7"/>
  <path fill="#556d7e" d="m45.3 21.3-6-3.6c0-.7.4-1.5 1-1.9l6.1 3.6c-.6.3-1.1 1.2-1.1 1.9"/>
  <path fill="#32383e" d="M46.4 19.4c.6-.4 1.1-.1 1.1.6v8.6l-2 1.2v2.5L41 34.9v-2.5l-1 .5c-.6.4-1 0-1-.6 0-.7.4-1.6 1-2l5.3-3v-6c0-.7.5-1.6 1.1-2"/>
  <path fill="#e1b011" d="m53 41.6 17.6-10.1c0-5.6-4-7.9-8.8-5a19.3 19.3 0 0 0-8.7 15"/>
  <path fill="#32383e" d="m54.4 40.8 14.9-8.6c0-4.7-3.4-6.6-7.5-4.2a16.4 16.4 0 0 0-7.4 12.8"/>
  <path fill="#e1b011" d="m58.7 23.6-4 2.2c-.2.2-.4 0-.4-.3s.2-.6.4-.8l4-2.2c.2-.2.4 0 .4.3s-.2.6-.4.8m0 2.2-4 2.2c-.2.2-.4 0-.4-.3s.2-.6.4-.7l4-2.3c.2-.1.4 0 .4.3s-.2.6-.4.8m0 2.2-4 2.2c-.2.2-.4 0-.4-.3s.2-.6.4-.7l4-2.3c.2-.1.4 0 .4.3s-.2.6-.4.8M42.2 51l-3.8-2v-6.6l3.8 2.2v6.6"/>
  <path fill="#e9d340" d="m42.2 44.5-3.8-2.2 2.6-1.5 3.8 2.2-2.6 1.5"/>
  <path fill="#de8917" d="M44.8 43v6.6L42.2 51v-6.6l2.6-1.5"/>
  <path fill="#556d7e" d="m33 23.2.6-.3c.1 1.4 1 3 2.2 3.8l-.5.3c-1.2-.8-2-2.4-2.2-3.8m2.9 2.3.4-.3v2l-.5.2v-1.9M33 22.4l.6-.2 1.6 1-.5.2-1.6-1"/>
  <path fill="#556d7e" d="m33.8 21.2.5-.3c-.4.2-.6.7-.7 1.3l-.5.2c0-.6.3-1 .7-1.2m4.2 5.9-.6.3c-.4.2-.9.2-1.5 0l.5-.3c.6.2 1.1.2 1.5 0m-1.1-1.9-.5.2.2-.2.5-.3-.2.3M35 23.1l.4-.2.4-.1-.5.3h-.4m1.1.4.4-.3c.3.2.5.6.6 1l-.5.2-.5-1"/>
  <path fill="#556d7e" d="m36.5 24.4.5-.3 1.6 1-.5.3-1.6-1m-.5-2.8.4-.3v1.9l-.4.3v-2m-2.6-1 .5-.3c.6-.3 1.4-.2 2.2.3l-.5.2c-.8-.5-1.6-.5-2.2-.2"/>
  <path fill="#556d7e" d="m38.3 27.8-.5.3c.6-.4 1-1 1-2a7 7 0 0 0-3.2-5.4l.5-.2c1.7 1 3.1 3.3 3.1 5.3 0 1-.3 1.7-.9 2"/>
  <path fill="#3a4851" d="M36 27.4c1 .5 2 0 2.1-1.3l-1.6-1c-.1.3-.3.4-.6.4Zm-.7-.4v-1.9c-.3-.2-.5-.6-.6-1l-1.6-.9c.1 1.4 1 3 2.2 3.8Zm.7-5.4v1.9l.5 1 1.6.9c-.1-1.4-1-3-2.1-3.8Zm-.7 1.5v-1.9c-1.2-.5-2 0-2.2 1.2l1.6 1c.1-.2.3-.3.6-.3Zm.3-2.4a7 7 0 0 1 3.1 5.4c0 2-1.4 2.7-3.1 1.7-1.7-1-3-3.3-3-5.3s1.3-2.7 3-1.8m16.6 13.7-1.2-.7-.1-22.7 1.2.7v22.7"/>
  <path fill="#556d7e" d="M52.1 11.7 51 11l.8-.4 1.2.7-.8.4"/>
  <path fill="#32383e" d="M52.9 11.3v22.6l-.7.5V11.7l.7-.4"/>
  <path fill="#3a4851" d="m38.3 19.7-14.6-8.5V9.9l14.6 8.5v1.3"/>
  <path fill="#556d7e" d="M38.3 18.4 23.7 10 38.3 0l14.6 8.5-14.6 10"/>
  <path fill="#32383e" d="M52.9 8.5v2.8l-14.6 8.4v-1.3L53 8.5"/>
  <path fill="#3a4851" d="m35.1 38.2-6-3.5V24.3l6 3.5v10.4"/>
  <path fill="#556d7e" d="m35.1 27.8-6-3.5 3-1.7 6 3.5-3 1.7"/>
  <path fill="#32383e" d="M38.1 26.1v3.4l-.5.3 1.2 6.3-3.7 2.1V27.8l3-1.7"/>
  <path fill="#556d7e" d="m72.8 31.5-4 6.8c-.7 1.8-1.7 3.5-2.8 4.9l-4 6.7-4.8-2.8-.4-.2c-1.3-.8-2-2.5-2-4.8 0-4.8 3.3-10.7 7.5-13 2.1-1.3 4-1.4 5.5-.5l5 2.9"/>
  <path fill="#32383e" d="M75 36.4c0 4.8-3.4 10.6-7.6 13-4.1 2.4-7.5.5-7.5-4.3s3.4-10.7 7.5-13.1c4.2-2.4 7.6-.5 7.6 4.4"/>
  <path fill="#3a4851" d="M72 38c0 3-2 6.6-4.6 8-2.5 1.6-4.6.4-4.6-2.6s2-6.6 4.6-8c2.6-1.5 4.7-.3 4.7 2.6"/>
  <path fill="#de8917" d="M71.4 38.4c0 2.6-1.8 5.6-4 6.9-2.2 1.2-4 .2-4-2.3s1.8-5.6 4-6.8c2.2-1.3 4-.3 4 2.2"/>
  <path fill="#3a4851" d="M69 39.8c0 1-.7 2.2-1.6 2.7-.8.5-1.5.1-1.5-.9s.7-2.2 1.5-2.7c.9-.5 1.6 0 1.6 1"/>
  <path fill="#e9d340" d="m42.8 45.5-1.2-.7 3.1-1.8 1.3.7-3.2 1.8"/>
  <path fill="#e1b011" d="m38.6 48-1.2-.8V45l1.2.7V48"/>
  <path fill="#e9d340" d="m38.6 45.6-1.2-.7 4.2-2.5 1.2.7-4.2 2.5M26 55.3l-1.3-.7 12.7-7.4 1.2.8L26 55.3"/>
  <path fill="#e1b011" d="m26 61.8-1.3-.7v-6.5l1.2.7v6.5"/>
  <path fill="#de8917" d="M42.8 43.1v2.4l3.2-1.8v6.6L26 61.8v-6.5L38.5 48v-2.4l4.2-2.5M24.7 56l1.2-.7v6.5l-1.2.7V56"/>
  <path fill="#e9d340" d="m0 41.7 1.3-.7 24.6 14.3-1.2.7L0 41.7"/>
  <path fill="#e1b011" d="M24.7 56v6.5L0 48.3v-6.6L24.7 56"/>
  <path fill="#3a4851" d="m17.2 55.7-9.7-5.6c-.3-.2-.6-.7-.6-1.1 0-.5.3-.7.6-.5l9.7 5.6c.4.2.6.7.6 1.2 0 .4-.2.6-.6.4"/>
  <path d="M4.1 71.4c-.6 0-1.2-.1-1.7-.3-.5-.1-.9-.3-1.2-.6-.4-.2-.6-.5-.8-.8l1-1.2h.2c.2.4.6.7 1 1 .4.2 1 .3 1.5.3s.9-.1 1.1-.3c.3-.2.4-.5.4-.9l-.1-.5a1 1 0 0 0-.4-.4l-.8-.3-1.2-.2c-.8-.2-1.4-.5-1.8-1-.4-.4-.6-1-.6-1.7 0-.5.1-1 .4-1.4a2 2 0 0 1 1.1-.9c.5-.2 1.1-.3 1.8-.3s1.3 0 1.8.3c.5.1 1 .4 1.3.8l-.9 1.3h-.1a2 2 0 0 0-1-.6 2 2 0 0 0-1.1-.3 2 2 0 0 0-1.1.3c-.3.2-.4.4-.4.7 0 .3 0 .6.2.7.2.2.5.4 1 .5l1.2.2c.9.2 1.5.5 2 1 .4.4.6 1 .6 1.7 0 .6-.2 1.1-.4 1.5-.3.5-.6.8-1.1 1-.5.3-1.2.4-1.9.4Zm8.7-1.8.4 1.3a2 2 0 0 1-.7.4h-1c-.7 0-1.3-.1-1.7-.5-.4-.4-.6-1-.6-1.8v-3.3h-1v-1.4h1v-1.4l1.8-.3v1.7h2v1.4h-2v3.1c0 .4 0 .7.2.8.1.2.3.2.6.2s.6 0 .8-.2Zm7.5-1.4h-4.5c0 .6.2 1 .5 1.3.3.3.7.4 1.2.4.4 0 .7 0 1-.2l.6-.7h.1l1.2.7c-.3.5-.6 1-1 1.2-.5.3-1.1.5-1.9.5a4 4 0 0 1-1.9-.4c-.5-.3-.9-.7-1.2-1.2-.3-.6-.4-1.2-.4-2s.1-1.5.4-2c.3-.6.7-1 1.3-1.2a3 3 0 0 1 1.7-.4c1 0 1.7.2 2.2.7.6.6.8 1.3.8 2.3v.9ZM18.7 67c0-.5 0-.9-.3-1.1-.2-.3-.6-.4-1-.4-1 0-1.4.5-1.6 1.5Zm5 4.4c-.5 0-.9-.1-1.2-.3-.3-.1-.6-.4-.8-.7l-.2-1.1c0-.4 0-.8.2-1 .2-.3.5-.6.9-.7A5 5 0 0 1 24 67l1-.2c.2 0 .3-.2.4-.3l.1-.3c0-.3 0-.4-.2-.6l-.8-.1c-.4 0-.7 0-1.1.2a3 3 0 0 0-1 .7l-.8-1.1 1.3-1 1.7-.2c1 0 1.6.2 2 .6.4.3.6.9.6 1.6v3c0 .3.2.5.4.5h.4l.1 1.2-.4.2a3 3 0 0 1-.5 0c-.4 0-.8 0-1-.2-.2-.2-.4-.4-.5-.8h-.1c-.4.7-1 1-2 1Zm.5-1.3c.4 0 .7-.1 1-.4.2-.3.4-.7.4-1.2v-.7h-.2l-.4.2-.7.2c-.4 0-.7.2-.8.3a1 1 0 0 0-.3.7c0 .3.1.5.3.6.2.2.4.3.7.3Zm5.1 1.2v-7H31v1h.1c.2-.4.5-.7.8-.9l1.2-.2c.5 0 1 0 1.2.3.4.2.6.5.8.9l1-1 1.2-.2c1.4 0 2.1.8 2.1 2.4v4.7h-1.7v-4.5c0-.4 0-.7-.3-.9-.1-.2-.4-.3-.7-.3-1 0-1.5.7-1.5 2v3.7h-1.7v-4.5c0-.4 0-.7-.3-.9-.1-.2-.4-.3-.7-.3-.5 0-.8.2-1 .5a2 2 0 0 0-.5 1.4v3.8Zm12 0v-7H43v1h.2l.6-.8c.3-.2.6-.3 1-.3s.7 0 1 .2l-.3 1.5h-.9c-.5 0-.9.1-1.1.4-.3.4-.4 1-.4 1.7v3.3Zm8.6.1c-.7 0-1.3-.2-1.8-.4a3 3 0 0 1-1.2-1.3 4 4 0 0 1-.5-2c0-.7.2-1.3.5-1.9.2-.5.6-1 1.2-1.2.5-.3 1-.4 1.8-.4a4 4 0 0 1 1.8.4c.5.3.9.7 1.2 1.2.2.6.4 1.2.4 2 0 .7-.2 1.4-.4 2-.3.5-.7.9-1.2 1.2-.6.2-1.2.4-1.8.4Zm0-1.5c1 0 1.6-.7 1.6-2.1 0-.8-.2-1.3-.4-1.6-.3-.4-.7-.6-1.2-.6-1.1 0-1.7.8-1.7 2.2 0 1.4.6 2.1 1.7 2.1Zm6.9 1.5a2 2 0 0 1-1.4-.5c-.4-.4-.5-.9-.5-1.6v-7.8h1.7v7.8c0 .4.2.6.5.6h.4l.2 1.3-.4.1h-.5Zm4 0a2 2 0 0 1-1.4-.5c-.4-.4-.5-.9-.5-1.6v-7.8h1.7v7.8c0 .4.2.6.5.6h.4l.2 1.3-.4.1h-.5Zm8-3.2h-4.5c0 .6.2 1 .5 1.3.3.3.7.4 1.2.4s.8 0 1-.2c.3-.2.5-.4.6-.7h.2l1.1.7c-.2.5-.6 1-1 1.2-.5.3-1 .5-1.9.5a4 4 0 0 1-1.8-.4c-.5-.3-1-.7-1.2-1.2a4.2 4.2 0 0 1 0-4c.3-.6.7-1 1.2-1.2a3 3 0 0 1 1.7-.4c1 0 1.8.2 2.3.7.5.6.8 1.3.8 2.3v.9ZM67.3 67c0-.5-.1-.9-.4-1.1-.2-.3-.5-.4-1-.4-.9 0-1.4.5-1.5 1.5Zm3.2 4.3v-7h1.7v1h.1l.7-.8c.3-.2.6-.3 1-.3s.7 0 .9.2l-.3 1.5h-.9c-.4 0-.8.1-1 .4-.3.4-.5 1-.5 1.7v3.3Zm0 0"/>
</svg>
