<svg xmlns="http://www.w3.org/2000/svg" version="1.0" viewBox="0 0 75 75">
  <defs>
    <clipPath id="a">
      <path d="M10 42h42v16.3H10Zm0 0"/>
    </clipPath>
  </defs>
  <path fill="#96ada1" fill-rule="evenodd" d="m46.4 29.4.2.8-22.1 5-.2-.8Zm0 0"/>
  <path fill="#4c4c4c" fill-rule="evenodd" d="M8.2 23.7s6.5 1.4 11.3 2.1c4.9.7 12-.6 12-.6l17.2-3h1c1.7.2 2.3 1.1 2.4 1.8.4 2-1.8 3.3-3.6 4.5-1.2.8-.1 2-1.5 2.6-1.5.6-1.9-1.3-2.4-1.6-.5-.4-2.4 0-2.4 0l-15.2 3h-2.4l-5.1-.6-9-1.6-.4-2.7s-.2-2-1.1-3.1a4 4 0 0 0-.7-.7Zm0 0"/>
  <path fill="#3f3f3f" fill-rule="evenodd" d="M51.4 26.3c-.8.9-1.9 1.5-2.9 2.2-1.2.8-.1 2-1.5 2.6-1.5.6-1.9-1.3-2.4-1.6-.5-.4-2.4 0-2.4 0l-15.2 3h-2.4l-5.1-.6-9-1.6-.1-.5 1.7-1.5s3 3.3 12.2 3.1a99 99 0 0 0 19.4-3.1l7.8-1.9Zm0 0"/>
  <path fill="#96ada1" fill-rule="evenodd" d="M47 29.4c.2.3.2.7-.1 1-.3.2-.7.1-.9-.1a.6.6 0 0 1 0-1c.3-.1.7-.1 1 .1Zm0 0"/>
  <path fill="#4c4c4c" fill-rule="evenodd" d="m31.7 32.2.4 1.9-16.8 3.8L15 36Zm0 0"/>
  <path fill="#fff" fill-rule="evenodd" d="m47 23.2-16.9 3.2c-8.4 1.4-9.6.7-17.3-.6 7 1.4 8.3 2 11.5 1.8 1.3 0 2.8 0 5.2-.5 6-1 12.8-2.6 17.6-3.9Zm0 0"/>
  <path fill="#96ada1" fill-rule="evenodd" d="M21.9 29.4c.3.4.3 1-.1 1.3a1 1 0 0 1-1.3 0 1 1 0 0 1 0-1.4 1 1 0 0 1 1.4.1Zm0 0"/>
  <path fill="#7b9a91" fill-rule="evenodd" d="M59.9 35.3 64 39l-2.2 2.3-4.1-3.8Zm0 0"/>
  <path fill="#4c4c4c" fill-rule="evenodd" d="M49.6 22.1c4.6-.5 7.6 3.2 8.1 7.5l.4 2.5s.5 1 1 1.6c.6.5 1.2 1.3.5 2-.7.6-1.6 2-1.6 2s-1.3 1.3-2 .9c-.6-.5-1.6-1.3-1.7-2.4-.1-1.2.6-1.4-.3-2.3.1-.8-4-5.5-5-6.7-1-1.3-1.2-2.4-.6-3.7.2-.5.7-1 1.2-1.4Zm0 0"/>
  <path fill="#3f3f3f" fill-rule="evenodd" d="M49.6 22.1h.1c-1.8 1.3-1.2 3.7 0 4.7A50 50 0 0 1 58 37.6s-1.3 1.4-2 1c-.6-.5-1.6-1.3-1.7-2.4-.1-1.2.6-1.4-.3-2.3.1-.8-4-5.5-5-6.7-1-1.3-1.2-2.4-.6-3.7.2-.5.7-1 1.2-1.4Zm0 0"/>
  <path fill="#96ada1" fill-rule="evenodd" d="m52.4 26.7 6.6 8.8-.6.5-6.6-8.9Zm0 0"/>
  <path fill="#fc0" fill-rule="evenodd" d="m51.3 23.6.2.5 6.3 8.4-2 1.4-6.1-8.3c-.3-.1-.5-.3-.7-.6-.4-.6-.1-1.4.5-1.8.6-.4 1.5-.2 1.8.4Zm0 0"/>
  <path fill="#96ada1" fill-rule="evenodd" d="M50.7 23.9c.2.3.2.7 0 .9a1 1 0 0 1-1 0 .6.6 0 0 1 0-1c.3-.2.7-.2 1 .1Zm0 0"/>
  <path fill="#fff" fill-rule="evenodd" d="M51.5 22.3c2.8.7 4.4 2.5 5.5 4.7 0 0-1-1.4-2.6-2.8a11 11 0 0 0-3-1.9Zm0 0"/>
  <path fill="#2b2b2b" fill-rule="evenodd" d="M60.4 39.5s.1-.2-.9-1c-1-1-1.3-1.5-1.4-1.9 0-.8 1-1.5 1.3-1.2 1.2.7 1.1-1.3 1.1-2.2 0-1-.6-2-.3-2.2l2.8 7.6c.2.5.5 1 .9 1.2 0 0-.6 2.6-1.5 2.2Zm0 0"/>
  <path fill="#1d1d1d" fill-rule="evenodd" d="M60.4 39.5s.1-.2-.9-1a9 9 0 0 1-.7-.8l-.3-.3s3.8 2.5 4.8 1.9h.1v.1h.1v.1h.1v.1h.1v.1h.1v.7l-.1.1-.1.3v.1l-.1.2v.1l-.1.1-.1.1v.2H63v.2h-.2v.1h-.1v.1h-.4Zm0 0"/>
  <path fill="#96ada1" fill-rule="evenodd" d="M59 36c.2-.3.6-.2.9 0 .2.3.1.7-.1 1-.3.2-.7.2-1-.1a.6.6 0 0 1 .2-1Zm0 0"/>
  <path fill="#4c4c4c" fill-rule="evenodd" d="m60.2 31 2.8-2.3 10.3 3.5.2-.1 1.5 1-7.5 6.2c-2.3 2-4 .7-4.5-.7L60.2 31Zm0 0"/>
  <path fill="#3f3f3f" fill-rule="evenodd" d="m74.4 32.7.6.5-7.5 6v.1l-.2.2c-1.8 1.3-3.2.8-4-.2.9.2 2.5-.4 3.2-.7a40 40 0 0 0 6.2-4.4l1.7-1.5Zm0 0"/>
  <path fill="#999" fill-rule="evenodd" d="m62 29.5 1-.8 10.3 3.5.2-.1-1.2 1-10.2-3.6Zm0 0"/>
  <path fill="#999" fill-rule="evenodd" d="m73.5 32 1.5 1.2-1.5 1.2-1.2-1.4Zm0 0"/>
  <path fill="#777" fill-rule="evenodd" d="m74.4 32.7.6.5-1.5 1.2-.5-.5 1.4-1.2Zm0 0"/>
  <path fill="#fff" fill-rule="evenodd" d="m63 29 9.1 3.1-9.4-2.6Zm0 0"/>
  <path fill="#666" fill-rule="evenodd" d="M36.9 17c3.5.2 5.8 1 7.4 5 1.3 3.5 1.8 7.9 2.3 11.6v2.8l.1 4.4h-2.4l-3.7 3.8-3.7-.8v-6.2h.3c1.6 0 3-1.7 7.1-1.7-.3-3.6-1.3-15.5-5.7-16.4l-1.7-.2ZM24 17h12.8v2.3a65 65 0 0 0-7.4 0v18.3h7.4v6.2l-8.4-1.7-4.4-.8v-3.7h3.3V19.2a32 32 0 0 0-3.3.1Zm-.2 0h.2v2.3a4.7 4.7 0 0 0-3.1 3c-.2.8-.3 8-.3 8l2.5 7.3h.9v3.7h-.4l-.4-2.6h-1.8l-3-8.7v-5c0-1.3-.1-2.6.4-3.8 1-2 2.8-4 5.1-4.2Zm0 0"/>
  <path fill="#3f3f3f" fill-rule="evenodd" d="M46.7 39.8v1h-2.4l-3.7 3.8-12-2.5-4.9-.8-.2-1.5Zm0 0"/>
  <path fill="#1d1d1d" fill-rule="evenodd" d="m36.9 43.8 3.7.8 3.7-3.8h1.3v-5.5c-.2-3.6-1.3-12-3.9-15.3-1-1-2.2-1.7-4.8-1.9v1.2l1.7.2c4.4.9 5.4 12.8 5.7 16.4-4 0-5.5 1.7-7 1.7h-.4Zm-8.4-25.7v24l8.4 1.7v-6.2h-7.4V19.2l7.4.1v-1.2h-8.4Zm0 0"/>
  <path fill="#3f3f3f" fill-rule="evenodd" d="M28.5 39.8V42l12.1 2.5 3.7-3.8h1.3v-1Zm0 0"/>
  <path fill="#999" fill-rule="evenodd" d="M41.2 39.7c1.2 0 2.2-.5 2.2-1.2s-1-1.3-2.2-1.3c-1.2 0-2.1.6-2.1 1.3 0 .7 1 1.2 2.1 1.2Zm0 0"/>
  <path fill="#4c4c4c" fill-rule="evenodd" d="M40 38.1h2.5c.2 0 .3.2.3.3v.1c0 .2-.1.4-.3.4H40a.3.3 0 0 1-.3-.4c0-.2 0-.4.3-.4Zm0 0"/>
  <path fill="#f5cf00" fill-rule="evenodd" d="M1.1 33.9 0 48.5l10.3 5.1h1.3l.3-.7 5.2-8.9a2.9 2.9 0 0 1 3-1.4h.2c8.3 2 19 3.8 27 6.3l.6-1-1.2-7.1h-2.4l-3.7 3.8-12-2.5-4.9-.8-.4-2.6h-1.8L18.4 30l-.6-1.9s-.2-.6-1.1-.4c-.8.2-10.1 2.9-14.6 5-1 .4-.9.2-1 1.2Zm0 0"/>
  <path fill="#ffb700" fill-rule="evenodd" d="M.7 39.8 0 48.5l10.3 5.1h1.3l.3-.7 5.2-8.9a2.9 2.9 0 0 1 3-1.4h.2c8.3 2 19 3.8 27 6.3l.6-1-1.2-7.1h-2.4l-3.7 3.8-12-2.5-4.9-.8-.2-1.5Zm0 0"/>
  <path fill="#ffb700" fill-rule="evenodd" d="M0 48.5h11.3l.2-.2.3-.8c1-2.4 2.1-4.4 4.3-5.4 2.3-1 4.5-1.3 5.7-1.2l1.9.2-.2-1.3H.7Zm0 0"/>
  <path fill="#ffb700" fill-rule="evenodd" d="M0 48.5h1.9L2.6 36H1Zm0 0"/>
  <path fill="#f59700" fill-rule="evenodd" d="M0 48.5h1.9l.5-8.7H.7ZM15.6 28s1.1 1.2 1.1 2.7c0 1.4-.2 2.3-.5 2.8-.2.2-.7 1-1.6 1.6l-3.8.7-9.9.4.2-2.3c.1-1 0-.8 1-1.3 3.3-1.5 9.1-3.3 12.3-4.2h.1l1.1-.4Zm0 0"/>
  <path fill="#ffb700" fill-rule="evenodd" d="M16.6 30c-1.5.4-3.9 1-5.9 1.7L4.1 34s-1.3.3-1.5 2.2l8.2-.3 3.8-.7c.9-.7 1.4-1.4 1.6-1.6a6 6 0 0 0 .4-3.5Zm0 0"/>
  <path fill="#fc0" fill-rule="evenodd" d="M16.7 27.7s-2.3 0-3.7-.8l-3.4-2.3s-1.6-1.2-3-1.3c-2-.2-4.4 1.4-4.8 3.4-.2 1-.6 5.5-.6 6.4v.2c.4-.6.7-.6 1.3-.8 3.3-1.5 8.8-3.2 12-4.1l1.1-.4Zm0 0"/>
  <path fill="#515151" fill-rule="evenodd" d="M6.5 28.2a1.7 1.7 0 0 0 0-3.4 1.7 1.7 0 0 0 0 3.4Zm0 0"/>
  <path fill="#f59700" fill-rule="evenodd" d="M10.3 53.6s.5-3.6 1.5-6c1-2.5 2.1-4.5 4.3-5.5 2.3-1 4.5-1.3 5.7-1.2l1.9.2v.2l4.8.8 12.1 2.5 3.7-3.8h2.4l1.2 7.1-.6 1c-8-2.5-18.7-4.3-27-6.3h-.7c-1 0-2 .5-2.5 1.4L12 53l-.3.7Zm0 0"/>
  <path fill="#2b2a29" fill-rule="evenodd" d="M27.3 19.2v1.6l-.3-1.6Zm-1.9 0 2 8v1.3L25 19.2h.3Zm-1.8.3 3.8 15.4v1.3l-4-16.6.2-.1ZM22 20.6l4.2 17H26l-4.1-16.8.2-.2Zm-1.1 2.8 3.5 14.2H24l-3.2-13v-1.2ZM40.7 21l3.6 14.5v.4H44l-3.7-15.4.4.6Zm-2.2-1.5 4 16.5h-.3l-4-16.5h.3Zm-1.9-.2 4.2 17.1-.3.1-4.2-17.2h.3Zm-1.9-.1 4.4 17.9-.3.1-4.4-18Zm-1.9 0 4.6 18.4H37l-4.5-18.4Zm-1.8 0 4.5 18.4h-.3l-4.5-18.4Zm-1.5 1.4 4.1 17h-.3L29.5 22Zm0 7.6 2.3 9.4h-.3l-2-8.1Zm0 7.6.4 1.8h-.3l-.1-.5Zm0 0"/>
  <path fill="#2b2a29" fill-rule="evenodd" d="m31.4 37.6-2-.1V37l6 .5Zm-4-2-5-.4V35l5 .4Zm0-1.6-5.5-.5-.1-.3 5.6.4Zm0-1.7-6-.5-.2-.4 6.2.5Zm0-1.7-6.6-.5v-.4l6.6.6Zm0-1.6-6.6-.6V28l6.6.5Zm0-1.8-6.6-.5v-.3l6.6.5Zm0-1.6-6.6-.6v-.3l6.6.5Zm0-1.7-6.5-.5V23l6.5.6Zm0-1.7-6.2-.5.2-.3 6 .5Zm0-1.7-4.9-.4.4-.2 4.5.3Zm12.7 16.2-10.6-1v-.2l11.4.9c-.3 0-.5.2-.8.3Zm4.2-1.4-14.8-1.2v-.3L44.2 35Zm-.3-1.7-14.5-1.2v-.3L44 33.3Zm-.1-1.6-14.4-1.2v-.4l14.4 1.2Zm-.2-1.8-14.2-1.1v-.3l14.1 1.1Zm-.3-1.7-14-1V27l13.9 1.1Zm-.4-1.7-13.5-1v-.4l13.4 1.1.1.3Zm-.4-1.7-13.1-1v-.4l13 1.1v.3Zm-.6-1.7-12.5-1V22l12.3 1 .2.3Zm-.9-1.7-11.6-1v-.3l11.4 1s.2.1.2.3Zm-1.7-1.9-8.3-.6a42.7 42.7 0 0 1 8.3.6Zm0 0"/>
  <g clip-path="url(#a)">
    <path fill="#2b2b2b" fill-rule="evenodd" d="M48.6 48.8c1 .2 1.8.8 2.3 1.6a5 5 0 0 1-.4 6.3c-.4.6-2 1.6-2.7 1.6H13.6s-.4 0-.7-.3l-1-.7a3.9 3.9 0 0 1-.8-3.7c0-.3.2-.6.4-.9l5.3-9v-.1c.4-.5.7-.8 1.2-1 .5-.4 1-.5 1.6-.5h.8c6.3 1.6 13.6 3.3 20.3 4.8l8 1.9Zm0 0"/>
  </g>
  <path fill="#666" fill-rule="evenodd" d="M50.2 51a3 3 0 0 0-1.8-1.3l-7.9-1.9-20.3-4.7h-.4l-.2-.1-1.2.3-.9 1v.1l-5.2 8.7a3 3 0 0 0-.4 1.6c0 1.2 1.1 2.7 2.4 2.7h32.3c1.2 0 2.5-.4 3.3-1.3a4 4 0 0 0 1-2.7c0-1-.3-1.8-.7-2.4Zm0 0"/>
  <path fill="#4c4c4c" fill-rule="evenodd" d="M47 57.2a3.8 3.8 0 0 0 0-7.7 3.8 3.8 0 0 0 0 7.7ZM19.7 48a2.5 2.5 0 0 0 0-5 2.5 2.5 0 0 0 0 5Zm0 0"/>
  <path fill="#999" fill-rule="evenodd" d="M47 56.2a2.8 2.8 0 0 0 0-5.7 2.8 2.8 0 0 0 0 5.7Zm-27.3-9.1a1.6 1.6 0 0 0 0-3.1c-.9 0-1.6.7-1.6 1.6 0 .8.7 1.5 1.6 1.5Zm0 0"/>
  <path fill="#4c4c4c" fill-rule="evenodd" d="M14.7 57.3a2.7 2.7 0 0 0 0-5.3 2.7 2.7 0 0 0 0 5.3Zm0 0"/>
  <path fill="#999" fill-rule="evenodd" d="M14.7 56.4a1.7 1.7 0 0 0 0-3.5c-1 0-1.7.8-1.7 1.8s.7 1.7 1.7 1.7Zm0 0"/>
  <path fill="#4c4c4c" fill-rule="evenodd" d="M22.2 57.4a1.8 1.8 0 0 0 0-3.6 1.8 1.8 0 0 0 0 3.6Zm0 0"/>
  <path fill="#999" fill-rule="evenodd" d="M22.2 56.3a.7.7 0 0 0 0-1.4c-.4 0-.7.3-.7.7 0 .4.3.7.7.7Zm0 0"/>
  <path fill="#4c4c4c" fill-rule="evenodd" d="M30.8 53.8c1 0 1.7.8 1.7 1.8a1.8 1.8 0 1 1-3.5 0c0-1 .8-1.8 1.8-1.8Zm0 0"/>
  <path fill="#999" fill-rule="evenodd" d="M30.8 56.3a.7.7 0 0 0 0-1.4.7.7 0 0 0 0 1.4Zm0 0"/>
  <path fill="#4c4c4c" fill-rule="evenodd" d="M39.3 57.4a1.8 1.8 0 0 0 0-3.6 1.8 1.8 0 0 0 0 3.6Zm0 0"/>
  <path fill="#999" fill-rule="evenodd" d="M39.3 56.3c.4 0 .7-.3.7-.7a.7.7 0 1 0-1.4 0c0 .4.4.7.7.7Zm0 0"/>
  <path fill="#2b2b2b" fill-rule="evenodd" d="M48.5 51.3V55H14.6v-3.6l4.8-6.2Zm0 0"/>
  <path fill="#999" fill-rule="evenodd" d="M20.1 49.2h12.3c.4 0 .7.3.7.8v1.9c0 .4-.3.8-.7.8H20a.8.8 0 0 1-.8-.8v-2c0-.4.4-.7.8-.7Zm0 0"/>
  <path fill="#96ada1" fill-rule="evenodd" d="M6.5 27.3a.8.8 0 0 0 0-1.6.8.8 0 0 0 0 1.6Zm0 0"/>
  <path fill="#fff" fill-rule="evenodd" d="M6.3 23.6c-1.7.1-3.1.8-3.8 2.3-.5 1-.6 2.6-.7 3.7.8-2.8 1.3-4.9 4.5-6Zm0 0"/>
  <path fill="#2b2b2b" fill-rule="evenodd" d="M28.5 18.1c-2 0-3.3 0-4.4.2v1h.5l2.7-.1.1 18.4h-3.3v.4h4.4Zm-4.4.2c-1.5.3-2.3.8-3.4 2.3-1.2 1.6-.8 3-1 5l.1 5.3 2.6 7.1h1.7v-.4h-.7l-2.5-7.3v-8a4.7 4.7 0 0 1 3.2-3Zm0 0"/>
  <path d="M5.5 73.5c-.7 0-1.4-.1-2-.3l-1.4-.7-.9-1 1.2-1.4h.2c.3.5.7.8 1.2 1.1.5.3 1 .4 1.7.4.6 0 1 0 1.3-.3.2-.3.4-.6.4-1l-.1-.6a1 1 0 0 0-.5-.5l-.9-.3-1.3-.3a5 5 0 0 1-2.2-1c-.4-.6-.6-1.2-.6-2 0-.6.1-1.2.4-1.6a3 3 0 0 1 1.3-1 5 5 0 0 1 2-.4 6 6 0 0 1 2.1.3 3 3 0 0 1 1.5 1l-1 1.4h-.2a3 3 0 0 0-2.3-1c-.6 0-1 .1-1.4.4a1 1 0 0 0-.4.8c0 .3.1.6.3.8.2.2.6.3 1.1.4l1.4.3a4 4 0 0 1 2.2 1.1c.5.6.7 1.2.7 2 0 .7-.1 1.3-.4 1.8-.3.5-.7.9-1.3 1.1a5 5 0 0 1-2.1.5Zm5.5-.2V62h2v6.2h.3l2.3-3h2v.2L14.9 69l3 4.1v.2h-2.1l-2.5-3.4H13v3.4Zm9-8.9c-.3 0-.6-.2-.8-.4a1 1 0 0 1-.4-.8c0-.4.1-.7.4-.9.2-.2.5-.3.9-.3.2 0 .4 0 .6.2.2 0 .3.2.4.4l.2.6c0 .2 0 .4-.2.6 0 .2-.2.3-.4.4l-.6.2Zm-1 8.9v-8h2v8Zm7.2.2c-.7 0-1.2-.2-1.7-.5s-.9-.8-1.2-1.4c-.2-.6-.4-1.4-.4-2.3 0-.9.2-1.7.4-2.3a3 3 0 0 1 3-1.8c.5 0 .9 0 1.3.2l.9.8h.1v-4h2v11h-2v-1h-.1c-.2.4-.6.7-1 1-.3.1-.8.3-1.3.3Zm.6-1.8c.6 0 1-.2 1.3-.6.4-.4.5-1 .5-1.8s-.1-1.4-.5-1.8c-.3-.4-.7-.6-1.3-.6-.6 0-1 .2-1.3.6-.4.3-.5 1-.5 1.8s.1 1.5.5 1.9c.3.4.7.5 1.3.5ZM40 73.5a6 6 0 0 1-2-.3l-1.4-.7-1-1 1.2-1.4h.2a3.4 3.4 0 0 0 3 1.5c.5 0 1 0 1.2-.3.3-.3.5-.6.5-1 0-.2 0-.4-.2-.6a1 1 0 0 0-.4-.5l-.9-.3-1.4-.3c-1-.2-1.6-.6-2-1-.6-.6-.8-1.2-.8-2a3 3 0 0 1 1.8-2.6 5 5 0 0 1 2-.4 6 6 0 0 1 2.1.3c.6.2 1 .5 1.5 1l-1 1.4h-.2a3 3 0 0 0-2.4-1c-.6 0-1 .1-1.3.4a1 1 0 0 0-.4.8c0 .3 0 .6.3.8.2.2.6.3 1 .4l1.5.3a4 4 0 0 1 2.2 1.1c.5.6.7 1.2.7 2 0 .7-.2 1.3-.4 1.8-.3.5-.8.9-1.3 1.1a5 5 0 0 1-2.1.5Zm9.9-2.1.5 1.5-.8.4-1.1.2c-1 0-1.6-.3-2-.8-.5-.4-.7-1.1-.7-2v-3.8h-1.2v-1.6h1.2v-1.6l2-.3v1.9h2.3v1.6h-2.3v3.6c0 .4.1.7.3 1l.7.2 1-.3Zm8.6-1.7h-5.2c0 .7.3 1.3.6 1.6.4.3.8.4 1.4.4.5 0 .8 0 1.1-.2.3-.2.5-.4.7-.8h.2l1.3.9c-.3.5-.7 1-1.2 1.3-.5.4-1.2.6-2.1.6-.8 0-1.5-.2-2.1-.5-.6-.3-1.1-.8-1.4-1.4-.4-.6-.5-1.4-.5-2.3 0-.9.2-1.7.5-2.3.3-.6.8-1 1.4-1.4.6-.3 1.2-.4 2-.4 1 0 2 .3 2.6.9.6.6.9 1.4.9 2.6v1Zm-1.8-1.2c0-.7-.1-1-.4-1.4-.3-.2-.6-.4-1.1-.4-1 0-1.7.6-1.8 1.8Zm10.4 1.2h-5c0 .7.1 1.3.5 1.6.3.3.8.4 1.4.4.4 0 .8 0 1-.2.4-.2.6-.4.8-.8h.1l1.4.9a3.7 3.7 0 0 1-3.3 1.9 5 5 0 0 1-2.2-.5c-.6-.3-1-.8-1.4-1.4-.3-.6-.4-1.4-.4-2.3 0-.9.1-1.7.5-2.3.3-.6.8-1 1.4-1.4a4 4 0 0 1 2-.4c1 0 2 .3 2.5.9.6.6 1 1.4 1 2.6l-.1 1Zm-1.7-1.2c0-.7-.2-1-.4-1.4-.3-.2-.7-.4-1.2-.4-1 0-1.6.6-1.8 1.8Zm3.6 4.8v-8h2v1.2h.2l.7-1a2 2 0 0 1 1.2-.3c.4 0 .8.1 1 .3l-.3 1.7h-.2a2.4 2.4 0 0 0-.8-.1c-.6 0-1 .2-1.3.6-.3.4-.4 1-.4 1.9v3.7Zm0 0"/>
</svg>
