<svg xmlns="http://www.w3.org/2000/svg" version="1.0" viewBox="0 0 75 75">
  <defs>
    <clipPath id="a">
      <path d="M5 23h16v15.3H5Zm0 0"/>
    </clipPath>
    <clipPath id="b">
      <path d="M35 23h16v15.3H35Zm0 0"/>
    </clipPath>
    <clipPath id="c">
      <path d="M51 23h16v15.3H51Zm0 0"/>
    </clipPath>
  </defs>
  <path d="M7.6 55.9a7 7 0 0 1-3.4-.8c-1-.5-1.7-1.3-2.3-2.4-.5-1-.8-2.4-.8-4 0-1.5.3-2.8.8-3.9a6 6 0 0 1 2.3-2.4 7 7 0 0 1 3.4-.8 7 7 0 0 1 3.4.8 4 4 0 0 1 2 2.4L11 46h-.2c-.3-.7-.7-1.3-1.2-1.6-.6-.3-1.2-.4-2-.4-1.1 0-2 .4-2.7 1.1-.6.8-1 2-1 3.6 0 1.7.4 3 1 3.7.6.7 1.6 1.1 2.7 1.1 1.8 0 3-.9 3.3-2.6h.3l2 1c-.4 1.4-1 2.4-2 3-.9.7-2 1-3.6 1ZM24 51h-6.7c0 1 .3 1.6.7 2 .5.5 1 .7 1.9.7.6 0 1-.1 1.4-.4.4-.2.7-.5 1-1h.1l1.8 1.1a4.5 4.5 0 0 1-4.3 2.5c-1.1 0-2-.2-2.9-.6-.7-.4-1.4-1-1.8-1.9-.4-.8-.6-1.8-.6-3a6 6 0 0 1 .7-3 4 4 0 0 1 1.8-1.8c.7-.4 1.6-.6 2.6-.6 1.4 0 2.6.4 3.4 1.2.8.8 1.2 2 1.2 3.5l-.1 1.2Zm-2.3-1.6a3 3 0 0 0-.5-1.8c-.4-.4-.9-.5-1.5-.5-1.4 0-2.1.7-2.4 2.3Zm4.9 6.3V45.2H29v1.4h.2c.3-.5.7-1 1.2-1.2.4-.3 1-.4 1.7-.4a4 4 0 0 1 2 .5c.4.3.8.8 1 1.4h.2c.3-.7.7-1.1 1.3-1.4.5-.3 1.1-.5 1.9-.5 2.1 0 3.2 1.2 3.2 3.7v7h-2.6V49c0-.6-.1-1-.4-1.3-.2-.3-.6-.5-1.1-.5-1.5 0-2.2 1-2.2 3v5.5h-2.6V49c0-.6-.2-1-.4-1.3-.3-.3-.6-.5-1.2-.5a2 2 0 0 0-1.6.7c-.3.5-.5 1.2-.5 2.2v5.6ZM53.5 51h-6.7c0 1 .3 1.6.8 2 .4.5 1 .7 1.8.7.6 0 1-.1 1.4-.4.4-.2.7-.5 1-1h.1l1.8 1.1c-.3.8-.9 1.4-1.5 1.8-.7.5-1.7.7-2.8.7a6 6 0 0 1-2.8-.6c-.8-.4-1.4-1-1.9-1.9-.4-.8-.6-1.8-.6-3a6 6 0 0 1 .7-3 4 4 0 0 1 1.8-1.8c.8-.4 1.6-.6 2.6-.6 1.5 0 2.6.4 3.4 1.2.8.8 1.2 2 1.2 3.5v1.2Zm-2.2-1.6c0-.8-.2-1.4-.6-1.8-.3-.4-.8-.5-1.5-.5-1.3 0-2.1.7-2.4 2.3Zm4.7 6.3V45.2h2.6v1.5l.2.1A3.4 3.4 0 0 1 62 45c1.2 0 2 .3 2.6 1 .6.7.9 1.6.9 2.9v6.8h-2.6v-6.5c0-.7-.2-1.2-.5-1.5-.2-.3-.7-.5-1.3-.5-.8 0-1.3.3-1.8.8-.4.5-.6 1.2-.6 2.3v5.4Zm18-2.5.8 2-1.1.5a5 5 0 0 1-1.5.2c-1.1 0-2-.3-2.6-1-.6-.5-.9-1.4-.9-2.6v-5h-1.6v-2.1h1.6v-2l2.7-.5v2.5h3v2h-3v4.9c0 .5 0 .9.3 1.1.2.3.5.4 1 .4a2 2 0 0 0 1.2-.4ZM15.2 73.1h-2.5V59.2h3.6l3.5 10.2h.2l3.5-10.2H27v13.9h-2.6v-9.2H24L21 73h-2.3l-3.2-9.2h-.2Zm16.4-11.7c-.5 0-.9-.2-1.2-.5-.2-.3-.4-.6-.4-1.1 0-.4.2-.8.4-1 .3-.4.7-.5 1.2-.5.3 0 .6 0 .9.2l.5.5c.2.3.2.5.2.8 0 .3 0 .6-.2.8 0 .2-.3.4-.5.6l-.9.2ZM30.3 73V62.6H33v10.5Zm7.1.1h-2.8l3-5.4-2.8-5h2.8l1.8 3.4h.2l1.9-3.5h2.7l-2.8 5 3 5.5h-2.9l-2-3.8h-.2Zm17.5-4.7H48c.1 1 .4 1.6.8 2 .5.5 1 .7 1.8.7.6 0 1.1-.1 1.5-.4.4-.2.7-.5.9-1h.2l1.8 1.1c-.4.8-1 1.4-1.6 1.8-.7.5-1.6.7-2.8.7-1 0-2-.2-2.8-.6-.8-.4-1.4-1-1.8-1.9-.4-.8-.6-1.8-.6-3 0-1.1.2-2.1.6-3 .5-.8 1.1-1.4 1.9-1.8.7-.4 1.6-.6 2.6-.6 1.4 0 2.6.4 3.4 1.2.7.8 1.1 2 1.1 3.5v1.2Zm-2.3-1.6a3 3 0 0 0-.5-1.8c-.4-.4-.9-.5-1.5-.5-1.4 0-2.2.7-2.4 2.3Zm4.8 6.3V62.6H60v1.6h.2c.2-.6.6-1 1-1.3.4-.2.9-.4 1.5-.4s1 .1 1.3.3l-.4 2.3h-.2a3 3 0 0 0-.5-.1 3 3 0 0 0-.6 0 2 2 0 0 0-1.7.7c-.4.5-.5 1.4-.5 2.5V73Zm0 0"/>
  <path fill="#111010" d="M70 30.5h-.6v-4.7h.6v4.7m-2.1-13.3h-7.5V16h7.5v1"/>
  <path fill="#1d1b1f" d="M69.5 20.6 62.3 17l.5-1 6.7 3.3v1.2"/>
  <path fill="#cccbcc" d="M68.3 13.7c.5.7.2 1.8-.7 2.4-.9.6-2 .5-2.5-.3l-3.7-5.5c-.4-.7-.1-1.8.8-2.4.8-.6 2-.5 2.5.3l3.6 5.5"/>
  <path fill="#cccbcc" d="M74 20c-1.4 3.3 1 5.1 1 5.1-.8.7-3.1-1.9-3.8-2.5l-4.5-4.8c-.6-.6-.5-1.7.2-2.5.8-.7 2-.8 2.5-.2L74 20"/>
  <path fill="#1d1b1f" d="m65.1 15.8 1.6 2 2.7-2.7-1.4-1.9-2.9 2.6m-3.9-3.3 2.2.7 2.8-2.6-.4-2.3-4.6 4.2"/>
  <path fill="#ac7b14" d="M30.5 24.4H24l2.4-4.9h2L29 23l1.5 1.4"/>
  <path fill="#212024" d="m29 14.5-3.7 1.4a2.2 2.2 0 1 0 1.6 4l3.6-1.3-1.6-4.1"/>
  <path fill="#f4ad1c" d="M59.6 3 49.7.4s-9.6.4-13.1 1.3C27 4.2 24.9 10.2 26.5 16.5c1.6 6.3 6.6 10.4 16 8 3.5-1 12.1-5.2 12.1-5.2l6-9.8-1-6.5"/>
  <path fill="#f7d753" d="M42.4 23.4c.2.4.2.8-.1 1.1-.3.3-.8.2-1-.1-5-6.4-7.8-14.2-7.7-22.3 0-.4.3-.7.7-.7.4 0 .8.3.8.8a33.3 33.3 0 0 0 7.3 21.2m12.9-5.2c.2.3.1.7-.1.9-.3.2-.7 0-.9-.2A28.4 28.4 0 0 1 49.7.6c0-.3.4-.6.7-.6.3 0 .5.4.5.7a27 27 0 0 0 4.4 17.5"/>
  <path fill="#1d1b1f" d="M62.3 25.1H42V23l3.4-1.8h16.9v4"/>
  <path fill="#f4ad1c" d="M27 20.7c-.4.7-1.2 1-2 .7a1.4 1.4 0 1 1 2-.7"/>
  <path fill="#aa4b1a" d="M26.5 20.5a1 1 0 1 1-1.8-.7 1 1 0 0 1 1.8.7"/>
  <path fill="#ac7b14" d="M60.1 5.6h5.4v1l-1 1.2h-4.1Zm2 6.5 4.6-2.3-1-5.7-5.6-1-2.9 14v8h6l-2-10.6 1-2.4"/>
  <path fill="#111010" d="M21.7 18.3a2.8 2.8 0 0 1-2.8 2.4h-2.6V20h2.2c1.1 0 2-.7 2.1-1.6h1"/>
  <path fill="#41414c" d="M68.4 30.5H18.1V25h50.3v5.4"/>
  <path fill="#f4ad1c" d="M70 26.4H23v-2.1h47v2.1m-51-3.1H1.6v-5.7S4.5 7.2 8.3 7.2H19v16.1"/>
  <path fill="#ac7b14" d="M23 28.1H3.6v-8h14.8L23 23v5.1"/>
  <path fill="#111010" d="M23 1.8a2.8 2.8 0 0 0-2.5 2.8v2.6h.8V5c0-1 .7-2 1.6-2V1.7M6.7 8.4a28.3 28.3 0 0 0-4.4 9.2l14-1.5V8.4H6.7"/>
  <path fill="#a9e1ca" d="M7 9a24.2 24.2 0 0 0-3.7 8l12-1.4V9H7"/>
  <path fill="#61585a" d="m8 16.5 1.8-.2-1.7.2"/>
  <path fill="#d4f0e3" d="M8 16.4 11 9h1.7l-2.9 7.3-1.7.1"/>
  <path fill="#61585a" d="M6.8 16.6h.6-.6"/>
  <path fill="#d4f0e3" d="m6.8 16.6 3-7.5h.6l-3 7.4h-.6"/>
  <path fill="#ac7b14" d="M4.3 29.8H0v-9.7h4.3v9.7"/>
  <path fill="#111010" d="M5.8 28.5H0V27h5.8v1.5"/>
  <g clip-path="url(#a)">
    <path fill="#212024" d="M20.3 30.8a7.5 7.5 0 1 1-15 0 7.5 7.5 0 0 1 15 0"/>
  </g>
  <path fill="#1d1b1f" d="M16.7 35.4a1.1 1.1 0 0 0-2.2.8l.5 1.2c.7-.2 1.4-.6 2-1l-.3-1m-2.9 2.3v-1.3a1.1 1.1 0 1 0-2.2 0v1.3a7 7 0 0 0 2.2 0m4.6-4.7c-.6-.4-1.2-.1-1.5.4-.3.6 0 1.3.5 1.5l.7.4a7 7 0 0 0 1.2-2l-.9-.4m1.3-3.1H19a1.1 1.1 0 1 0 0 2.3h.7a7.1 7.1 0 0 0 0-2.3m-9 6.3a1.1 1.1 0 1 0-2.1-.7l-.3.7a7 7 0 0 0 2 1.2l.4-1.2M7.8 35a1.1 1.1 0 0 0-1-2.1l-.6.3a7 7 0 0 0 1.2 2l.4-.3m-.4-4c0-.6-.5-1.1-1-1.1h-.5A6.8 6.8 0 0 0 6 32h.4c.6 0 1.1-.5 1.1-1.1m7.1-5.4a1.1 1.1 0 1 0 2.1.8l.4-1a7 7 0 0 0-2-1.1l-.5 1.3m-1.9.9c.6 0 1.2-.5 1.2-1.1v-1.4a6.7 6.7 0 0 0-2.3 0v1.4c0 .6.5 1.1 1.1 1.1m4.3 1.9c.2.5.9.8 1.4.5l1-.4a7 7 0 0 0-1.2-2l-.7.4c-.6.2-.8.9-.6 1.5m-8.2-2a1.1 1.1 0 1 0 2-.7l-.4-1.3a7 7 0 0 0-2 1.1l.4.9M7 28.8a1.1 1.1 0 0 0 .9-2l-.6-.3a7 7 0 0 0-1 2l.6.3"/>
  <path fill="#f4ad1c" d="M15.9 30.8a3 3 0 1 1-6.2 0 3 3 0 0 1 6.2 0"/>
  <path fill="#64450a" d="M13.8 30.8a1 1 0 1 1-2 0 1 1 0 0 1 2 0m-.7-1.6a.3.3 0 0 1-.6 0c0-.2.1-.4.3-.4.2 0 .3.2.3.4m0 3.2c0 .2-.1.3-.3.3a.3.3 0 0 1-.3-.3c0-.2.1-.3.3-.3.2 0 .3.1.3.3m-1.9-1.9c.2 0 .3.1.3.3 0 .2-.1.3-.3.3a.3.3 0 0 1-.3-.3c0-.2.1-.3.3-.3m3.2 0c.2 0 .3.1.3.3 0 .2-.1.3-.3.3a.3.3 0 0 1-.3-.3c0-.2.1-.3.3-.3M12 29.4v.5h-.6a.3.3 0 0 1 0-.5h.5m2.3 2.3v.5h-.5a.3.3 0 0 1 0-.5h.5m-2.8 0h.5v.5h-.5a.3.3 0 0 1 0-.5m2.3-2.3h.5v.5h-.5a.3.3 0 0 1 0-.5"/>
  <path fill="#64450a" d="M12.8 28.4a2.4 2.4 0 1 0 0 4.8 2.4 2.4 0 0 0 0-4.8Zm0 5a2.7 2.7 0 0 1 0-5.3 2.7 2.7 0 0 1 0 5.4"/>
  <path fill="#111010" d="M20 28.5c-.2.1-.6-.2-.8-.5a7.3 7.3 0 0 0-12.8 0c-.2.3-.6.6-.9.5-.2-.1-.3-.6 0-1 3-6 11.6-6 14.7 0 .2.4.1.9-.1 1"/>
  <g clip-path="url(#b)">
    <path fill="#212024" d="M50 30.8a7.5 7.5 0 1 1-14.9 0 7.5 7.5 0 0 1 15 0"/>
  </g>
  <path fill="#1d1b1f" d="M46.4 35.4a1.1 1.1 0 1 0-2 .8l.4 1.2c.7-.2 1.4-.6 2-1l-.4-1m-2.8 2.3v-1.3a1.1 1.1 0 1 0-2.3 0v1.3a7 7 0 0 0 2.3 0m4.6-4.7a1.1 1.1 0 1 0-1 2l.7.3a7 7 0 0 0 1.2-2l-1-.4m1.4-3.1h-.8a1.1 1.1 0 0 0 0 2.3h.7a7.1 7.1 0 0 0 0-2.3m-8.9 6.3a1 1 0 0 0-.7-1.4 1 1 0 0 0-1.4.7l-.3.7a7 7 0 0 0 2 1.2l.4-1.2M37.6 35a1.1 1.1 0 0 0-1-2.1l-.6.3a7 7 0 0 0 1.1 2l.5-.3m-.4-4c0-.6-.5-1.1-1.1-1.1h-.4a6.8 6.8 0 0 0 0 2.2h.4c.6 0 1.1-.5 1.1-1.1m7.2-5.4c-.2.6 0 1.3.7 1.5.5.2 1.2-.1 1.4-.7l.3-1a7 7 0 0 0-2-1.1l-.4 1.3m-1.9.9c.6 0 1.1-.5 1.1-1.1v-1.4a6.7 6.7 0 0 0-2.2 0v1.4c0 .6.5 1.1 1.1 1.1m4.2 1.9c.3.5 1 .8 1.5.5l1-.4c-.3-.7-.7-1.4-1.2-2l-.7.4c-.6.2-.8.9-.6 1.5m-8.3-2a1.1 1.1 0 0 0 2.2-.7l-.5-1.3a7 7 0 0 0-2 1.1l.3.9m-1.7 2.5a1.1 1.1 0 0 0 1-2l-.6-.3c-.5.6-.9 1.2-1.1 2l.7.3"/>
  <path fill="#f4ad1c" d="M45.7 30.8a3 3 0 1 1-6.2 0 3 3 0 0 1 6.2 0"/>
  <path fill="#64450a" d="M43.6 30.8a1 1 0 1 1-2 0 1 1 0 0 1 2 0m-.6-1.6c0 .2-.2.3-.4.3a.3.3 0 0 1-.4-.3c0-.2.2-.4.4-.4s.3.2.3.4m.1 3.2c0 .2-.2.3-.4.3a.3.3 0 0 1-.4-.3c0-.2.2-.3.4-.3s.3.1.3.3M41 30.5c.2 0 .3.1.3.3 0 .2-.1.3-.3.3a.3.3 0 0 1-.4-.3c0-.2.2-.3.4-.3m3.2 0c.2 0 .3.1.3.3 0 .2-.1.3-.3.3a.3.3 0 0 1-.4-.3c0-.2.2-.3.4-.3m-2.5-1.1v.5h-.5a.3.3 0 0 1 0-.5h.5m2.3 2.3v.5h-.5a.3.3 0 0 1 0-.5c.1-.1.3-.1.4 0m-2.7 0h.5v.5h-.5a.3.3 0 0 1 0-.5m2.3-2.3c.1-.1.3-.1.4 0 .2.1.2.4 0 .5 0 .1-.3.1-.4 0a.3.3 0 0 1 0-.5"/>
  <path fill="#64450a" d="M42.6 28.4a2.4 2.4 0 1 0 0 4.8 2.4 2.4 0 0 0 0-4.8Zm0 5a2.7 2.7 0 1 1 0-5.3 2.7 2.7 0 0 1 0 5.4"/>
  <path fill="#ac7b14" d="M49.8 28.5c-.3.1-.6-.2-.8-.5a7.3 7.3 0 0 0-12.8 0c-.2.3-.6.6-.9.5-.3-.1-.4-.6-.1-1 3-6 11.7-6 14.8 0 .2.4.1.9-.2 1"/>
  <g clip-path="url(#c)">
    <path fill="#212024" d="M66.4 30.8a7.5 7.5 0 1 1-15 0 7.5 7.5 0 0 1 15 0"/>
  </g>
  <path fill="#1d1b1f" d="M62.8 35.4a1.1 1.1 0 0 0-2.1.8l.4 1.2c.7-.2 1.4-.6 2-1l-.3-1M60 37.7v-1.3a1.1 1.1 0 1 0-2.3 0v1.3a7 7 0 0 0 2.2 0m4.6-4.7c-.5-.4-1.2-.1-1.5.4a1 1 0 0 0 .6 1.5l.7.4a7 7 0 0 0 1.1-2l-.9-.4m1.3-3.1h-.7c-.6 0-1.1.5-1.1 1.1 0 .7.5 1.2 1 1.2h.8a7.1 7.1 0 0 0 0-2.3m-9 6.3a1.1 1.1 0 1 0-2-.7l-.4.7a7 7 0 0 0 2 1.2l.4-1.2M54 35a1.1 1.1 0 0 0-1-2.1l-.6.3a7 7 0 0 0 1 2l.5-.3m-.4-4c0-.6-.5-1.1-1-1.1H52a6.8 6.8 0 0 0 0 2.2h.4c.6 0 1.1-.5 1.1-1.1m7.2-5.4a1.1 1.1 0 1 0 2.1.8l.4-1a7 7 0 0 0-2-1.1l-.5 1.3m-1.9.9c.7 0 1.2-.5 1.2-1.1v-1.4a6.7 6.7 0 0 0-2.3 0v1.4c0 .6.5 1.1 1.1 1.1m4.2 1.9c.3.5 1 .8 1.6.5l.9-.4c-.3-.7-.7-1.4-1.2-2l-.7.4c-.6.2-.8.9-.5 1.5m-8.3-2a1.1 1.1 0 0 0 2-.7l-.4-1.3a7 7 0 0 0-2 1.1l.4.9M53 28.8a1.1 1.1 0 0 0 1-2l-.6-.3a7 7 0 0 0-1 2l.6.3"/>
  <path fill="#f4ad1c" d="M62 30.8a3 3 0 1 1-6.2 0 3 3 0 0 1 6.2 0"/>
  <path fill="#64450a" d="M60 30.8a1 1 0 1 1-2.1 0 1 1 0 0 1 2 0m-.6-1.6a.3.3 0 0 1-.7 0c0-.2.1-.4.3-.4.2 0 .4.2.4.4m0 3.2c0 .2-.2.3-.4.3a.3.3 0 0 1-.3-.3c0-.2.1-.3.3-.3.2 0 .4.1.4.3m-2-1.9c.2 0 .4.1.4.3 0 .2-.2.3-.4.3a.3.3 0 0 1-.3-.3c0-.2.1-.3.3-.3m3.2 0c.2 0 .4.1.4.3 0 .2-.2.3-.4.3a.3.3 0 0 1-.3-.3c0-.2.1-.3.3-.3M58 29.4c.2.1.2.4 0 .5h-.5a.3.3 0 0 1 0-.5h.5m2.3 2.3v.5h-.5a.3.3 0 0 1 0-.5h.5m-2.8 0h.5c.2.1.2.3 0 .5h-.5a.3.3 0 0 1 0-.5m2.3-2.3h.5v.5h-.5a.3.3 0 0 1 0-.5"/>
  <path fill="#64450a" d="M59 28.4a2.4 2.4 0 1 0 0 4.8 2.4 2.4 0 0 0 0-4.8Zm0 5a2.7 2.7 0 1 1 0-5.3 2.7 2.7 0 0 1 0 5.4"/>
  <path fill="#ac7b14" d="M66.2 28.5c-.3.1-.7-.2-.9-.5a7.3 7.3 0 0 0-12.8 0c-.2.3-.6.6-.8.5-.3-.1-.4-.6-.2-1 3-6 11.7-6 14.8 0 .2.4.2.9-.1 1"/>
  <path fill="#212024" d="M22.4 18.2a1.3 1.3 0 1 1-2.7 0V5.5a1.3 1.3 0 1 1 2.7 0v12.7"/>
  <path fill="#ac7b14" d="M22.4 17H18v-1h4.5v1m-.1-7.5H18v-1h4.5v1"/>
  <path fill="#cccbcc" d="M64 7.8h-3.2L59 1.6 68.4 3 64 7.8"/>
  <path fill="#f4ad1c" d="M63.7 17a.8.8 0 1 1-1.5-.7.8.8 0 0 1 1.5.6"/>
  <path fill="#aa4b1a" d="M63.5 16.8a.6.6 0 1 1-1-.4.6.6 0 0 1 1 .4"/>
</svg>
