<svg xmlns="http://www.w3.org/2000/svg" xmlns:xlink="http://www.w3.org/1999/xlink" version="1.0" viewBox="0 0 75 75">
  <defs>
    <path id="a" d="M11.4 28.4c-.5 0-1-.3-1.2-.8l-1.6-3.2a2 2 0 0 0-1.8-1.2H1.2c-.5 0-.8.4-.8 1v.3H.3c-.2 0-.3.1-.3.3v4c0 .1.1.3.3.3v1.5l-.2.3v.3c0 .2.2.3.3.3h.2c.4 1.2 1.5 2 2.7 2h55.4v-5.1H11.4"/>
  </defs>
  <defs>
    <clipPath id="b">
      <path d="M29.4 10.3H75v18H29.4Zm0 0"/>
    </clipPath>
    <clipPath id="c">
      <path d="M0 24.4h4.4V29H0Zm0 0"/>
    </clipPath>
    <clipPath id="d">
      <use xlink:href="#a"/>
    </clipPath>
    <clipPath id="e">
      <path d="M0 24.4h4.4v3.8H0Zm0 0"/>
    </clipPath>
    <clipPath id="f">
      <use xlink:href="#a"/>
    </clipPath>
    <clipPath id="g">
      <path d="M0 29.7h4v2.6H0Zm0 0"/>
    </clipPath>
    <clipPath id="h">
      <use xlink:href="#a"/>
    </clipPath>
    <clipPath id="i">
      <path d="M0 30h3.4v2.3H0Zm0 0"/>
    </clipPath>
    <clipPath id="j">
      <use xlink:href="#a"/>
    </clipPath>
    <clipPath id="k">
      <path d="M0 30.9h3.7v.2H0Zm0 0"/>
    </clipPath>
    <clipPath id="l">
      <use xlink:href="#a"/>
    </clipPath>
    <clipPath id="m">
      <path d="M0 31h3.8v.3H0Zm0 0"/>
    </clipPath>
    <clipPath id="n">
      <use xlink:href="#a"/>
    </clipPath>
    <clipPath id="o">
      <path d="M0 30.7h2.3v1H0Zm0 0"/>
    </clipPath>
    <clipPath id="p">
      <use xlink:href="#a"/>
    </clipPath>
    <clipPath id="q">
      <path d="M0 30.6h2.3v1H0Zm0 0"/>
    </clipPath>
    <clipPath id="r">
      <use xlink:href="#a"/>
    </clipPath>
    <clipPath id="s">
      <path d="M2.5 24.9h1.3V26H2.5Zm0 0"/>
    </clipPath>
    <clipPath id="t">
      <use xlink:href="#a"/>
    </clipPath>
    <clipPath id="u">
      <path d="M7.7 26.1h13V39h-13Zm0 0"/>
    </clipPath>
    <clipPath id="v">
      <path d="M41.5 26.1h13V39h-13Zm0 0"/>
    </clipPath>
    <clipPath id="w">
      <path d="M56 26.1h13V39H56Zm0 0"/>
    </clipPath>
  </defs>
  <path fill="#7d381e" d="m68.4 10.8-37.9.2.7-1c.9-1.4 2.5-3.7 4.3-5 .6-.5 1.3-.9 2-1l9.9-2.6c2-.6 3.8-.5 5.6-.2 1.2.3 2.4.7 3.5 1.2 1.8 1 3.4 2 4.5 2.8 2.6 2 6.4 2.7 7.4 5.6"/>
  <path fill="#8a4325" d="M51.9 8.2c-5.8 0-6-.8-6 .9 0 1.4-11.7 1-14.7.8.9-1.3 2.5-3.6 4.3-5 .6-.4 1.3-.8 2-1 3.2-.7 4-.8 9.9-2.5 2-.6 3.8-.5 5.6-.2 1.2.3 2.4.7 3.5 1.2 0 .2.2.4.1.6 0 .8 1.1 1.4 1.5 2.3.4.8-.5 2.9-6.2 3"/>
  <path fill="#965532" d="M53 1.2a8.8 8.8 0 0 1-1.5 4c-2 3-12.7.6-16-.2.6-.5 1.3-.9 2-1l9.9-2.6c2-.6 3.8-.5 5.6-.2m-20.6 7s2.3-2.6 4.6-1c2.4 1.6 2.1 2.7 2.1 2.7L31 11l1.5-2.8"/>
  <g clip-path="url(#b)">
    <path fill="#f5a90d" d="M72 28.3H29.5v-18h40.1L75 23.4l-3 5"/>
  </g>
  <path fill="#48484a" d="M74.4 30.3v.6c0 1.3-1 2.3-2.3 2.3l-68.8.4c-1.6 0-3-1.5-3-3.4v-6c0-.6.4-1 .9-1h1.2a2 2 0 0 1 1.8 1.2L6 27.6c.2.5.7.8 1.2.8l65-.4c1.3 0 2.3 1 2.3 2.3"/>
  <path fill="#f5a90d" d="M.6 28.4h27V3.1c0-1.7-1.4-3.2-3.1-3.2H8a3.6 3.6 0 0 0-3 2.2L.5 14.2v14.2"/>
  <path fill="#252320" d="M5 28.5H.6V24h.8c2 0 3.6 1.6 3.6 3.5v.9"/>
  <g clip-path="url(#c)">
    <g clip-path="url(#d)">
      <path fill="#df8817" d="M4.3 25.6v2.6a1 1 0 0 1-1 .8h-4a1 1 0 0 1-1-1.5L-.5 25a1 1 0 0 1 1-.6h2.8c.6 0 1 .5 1 1"/>
    </g>
  </g>
  <g clip-path="url(#e)">
    <g clip-path="url(#f)">
      <path fill="#f6a20e" d="M4.3 25.6v2.6H.1a1 1 0 0 1-1-1.5l1-2.2h3.3c.6 0 1 .5 1 1"/>
    </g>
  </g>
  <g clip-path="url(#g)">
    <g clip-path="url(#h)">
      <path fill="#302d2d" d="m-1.4 30.4.3.6.1.2.4.8c0 .2.2.3.4.3h3.7c.3 0 .6-.4.4-.7l-.2-.4-.1-.2-.5-1c0-.2-.2-.3-.4-.3H-1a.4.4 0 0 0-.4.7"/>
    </g>
  </g>
  <g clip-path="url(#i)">
    <g clip-path="url(#j)">
      <path fill="#434345" d="m-1.4 30.4.3.6.1.2.4.8c0 .2.2.3.4.3h3.5V32l-.4-.8-.1-.2-.3-.6c0-.2-.2-.3-.4-.3h-3.5v.3"/>
    </g>
  </g>
  <g clip-path="url(#k)">
    <g clip-path="url(#l)">
      <path fill="#48484a" d="M-1.1 31v.1h4.8l-.1-.1h-4.7"/>
    </g>
  </g>
  <g clip-path="url(#m)">
    <g clip-path="url(#n)">
      <path fill="#302d2d" d="M-1 31v.2h4.7V31h-4.8"/>
    </g>
  </g>
  <g clip-path="url(#o)">
    <g clip-path="url(#p)">
      <path fill="#302d2d" d="M.2 31.6H2c.2 0 .3-.2.3-.4V31c0-.1-.1-.3-.3-.3H.2L0 31v.2c0 .2.2.4.3.4"/>
    </g>
  </g>
  <g clip-path="url(#q)">
    <g clip-path="url(#r)">
      <path fill="#fff" d="M.4 31.5h1.4a.4.4 0 0 0 0-.9H.4c-.3 0-.5.2-.5.4 0 .3.2.5.5.5"/>
    </g>
  </g>
  <g clip-path="url(#s)">
    <g clip-path="url(#t)">
      <path fill="#fbc657" d="M3.8 25.5c0 .3-.3.6-.6.6a.6.6 0 1 1 0-1.2c.3 0 .6.3.6.6"/>
    </g>
  </g>
  <g clip-path="url(#u)">
    <path fill="#211d1d" d="M20.7 32.6c0 3.5-2.9 6.4-6.5 6.4a6.4 6.4 0 0 1-6.4-6.4 6.4 6.4 0 0 1 12.9 0"/>
  </g>
  <path fill="#161312" d="M18.4 32.6c0 2.2-1.9 4-4.2 4a4.1 4.1 0 0 1-4-4 4 4 0 0 1 4-4.1c2.3 0 4.2 1.8 4.2 4"/>
  <path fill="#808674" d="M17.7 32.6a3.5 3.5 0 0 1-6.1 2.2c-.5-.6-.8-1.4-.8-2.2a3.5 3.5 0 0 1 4.7-3.3c1.3.6 2.2 1.8 2.2 3.3"/>
  <path fill="#ababa5" d="M16.4 31.6a3.5 3.5 0 0 1-4.8 3.2c-.5-.6-.8-1.4-.8-2.2a3.5 3.5 0 0 1 4.7-3.3c.6.7.9 1.4.9 2.3"/>
  <path fill="#fff" d="M13.9 30c.2.2-.5.3-1 .7-.7.4-1 1-1.1.8-.2-.3 0-.9.6-1.3s1.3-.5 1.5-.2"/>
  <path fill="#424242" d="M21.7 13.8H6.5a2.1 2.1 0 0 1-2-2.8L7 4a2 2 0 0 1 2-1.4h12.8c1.2 0 2.1 1 2.1 2.1v7a2 2 0 0 1-2 2"/>
  <path fill="#859dc7" d="M23.5 4.7v7c0 1-.8 1.7-1.8 1.7H6.5A1.7 1.7 0 0 1 5 11.1l2-6.4.2-.5A2 2 0 0 1 9 3h12.8c.3 0 .6 0 .9.2.5.3.9.9.9 1.5"/>
  <path fill="#bad0ee" d="M21.7 6.5v7H6.5A1.7 1.7 0 0 1 5 11l2-6.3h13c1 0 1.7.8 1.7 1.8"/>
  <path fill="#c7d2e5" d="M15 4.7h-2.7l1-1.7h2.8l-1 1.7"/>
  <path fill="#deebf8" d="M9.7 13.4H6.9l5.4-8.7H15l-5.4 8.7"/>
  <path fill="#c7d2e5" d="M21.3 5.3a2 2 0 0 0-1.3-.6h-.2l1-1.7h1c.2 0 .5 0 .8.2l-1.3 2.1"/>
  <path fill="#deebf8" d="M16.3 13.4h-1.9l5.4-8.7h.2c.5 0 1 .3 1.3.6l-5 8.1"/>
  <path fill="#252320" d="M23.8 15.6v.3c0 .1 0 .3-.3.3h-3a.3.3 0 0 1-.2-.3v-.3c0-.1.1-.3.3-.3h3l.2.3"/>
  <path fill="#424242" d="M23.6 15.3v.3l-.3.3h-3v-.3c0-.1.1-.3.3-.3h3"/>
  <path fill="#d08d19" d="M20.8 25.5h4.8V1.7h-19L2.2 14.4v8.5l11.1-.2c1.5 0 2.8.3 4.1.8a9 9 0 0 1 3.4 2Zm5.1.3h-5.3a10.8 10.8 0 0 0-7.4-2.8l-11.4.2v-8.9L6.5 1.4H26v24.4"/>
  <path fill="#cc841a" d="M37.4 11.7v15h-5.8v-15h5.8"/>
  <path fill="#e89913" d="M37.4 12.3v14.4h-4.8V12.3h4.8"/>
  <path fill="#cc841a" d="M45.3 11.7v15h-5.8v-15h5.8"/>
  <path fill="#e89913" d="M45.3 12.3v14.4h-4.8V12.3h4.8"/>
  <path fill="#cc841a" d="M53.2 11.7v15h-5.9v-15h5.9"/>
  <path fill="#e89913" d="M53.2 12.3v14.4h-4.9V12.3h4.9"/>
  <path fill="#cc841a" d="M61 11.7v15h-5.8v-15H61"/>
  <path fill="#e89913" d="M61 12.3v14.4h-4.8V12.3H61"/>
  <path fill="#cc841a" d="M68.9 11.7v15H63v-15h5.8"/>
  <path fill="#e89913" d="m68.9 12.3 3.8 11.1-2 3.3h-6.6V12.3h4.8m.8-1.3H30c-.7 0-1.2-.5-1.2-1 0-.7.5-1.2 1.2-1.2h39.8c.6 0 1.1.5 1.1 1.1 0 .6-.5 1.1-1 1.1"/>
  <g clip-path="url(#v)">
    <path fill="#211d1d" d="M54.5 32.6c0 3.5-3 6.4-6.5 6.4a6.4 6.4 0 0 1-6.4-6.4c0-3.6 2.8-6.4 6.4-6.4 3.6 0 6.5 2.8 6.5 6.4"/>
  </g>
  <path fill="#161312" d="M52.1 32.6a4 4 0 0 1-4 4 4.1 4.1 0 0 1-4.2-4c0-2.3 1.8-4.1 4.1-4.1s4.1 1.8 4.1 4"/>
  <path fill="#808674" d="M51.5 32.6a3.5 3.5 0 0 1-6.2 2.1c-.5-.6-.8-1.3-.8-2.1a3.5 3.5 0 0 1 5-3.1c1.2.5 2 1.7 2 3"/>
  <path fill="#ababa5" d="M50.3 31.6a3.5 3.5 0 0 1-5 3.1c-.5-.6-.8-1.3-.8-2.1a3.5 3.5 0 0 1 5-3.1c.5.5.8 1.3.8 2"/>
  <path fill="#fff" d="M47.6 29.9c.2.3-.5.3-1 .8-.7.4-1 1-1.1.7-.2-.2 0-.9.6-1.3s1.3-.5 1.5-.2"/>
  <g clip-path="url(#w)">
    <path fill="#211d1d" d="M69 32.6c0 3.5-3 6.4-6.5 6.4a6.4 6.4 0 0 1-6.4-6.4c0-3.6 2.8-6.4 6.4-6.4 3.6 0 6.5 2.8 6.5 6.4"/>
  </g>
  <path fill="#161312" d="M66.6 32.6a4 4 0 0 1-4.1 4 4.1 4.1 0 0 1-4.1-4c0-2.3 1.8-4.1 4.1-4.1s4.1 1.8 4.1 4"/>
  <path fill="#808674" d="M66 32.6a3.5 3.5 0 0 1-6.2 2.1c-.5-.6-.8-1.3-.8-2.1a3.5 3.5 0 0 1 5-3.1c1.2.5 2 1.7 2 3"/>
  <path fill="#ababa5" d="M64.8 31.6a3.5 3.5 0 0 1-5 3.1c-.5-.6-.8-1.3-.8-2.1a3.5 3.5 0 0 1 5-3.1c.5.5.8 1.3.8 2"/>
  <path fill="#fff" d="M62.1 29.9c.2.3-.5.3-1 .8-.7.4-1 1-1.1.7-.2-.2 0-.9.6-1.3s1.3-.5 1.5-.2"/>
  <path fill="#b25e36" d="M37.4 4.9c0 .1-.3.3-.6.3-.4 0-.7-.2-.7-.3 0-.2.3-.3.7-.3.3 0 .6 0 .6.3M39.5 6l-.4.2c-.2 0-.4 0-.4-.2s.2-.3.4-.3.4.1.4.3m7.8-2-.4.2-.4-.2.4-.2c.2 0 .4 0 .4.2m10 1.9-.4.2c-.2 0-.3-.1-.3-.2s.1-.2.3-.2l.4.2m3.2.3c0 .2-.2.3-.4.3s-.4-.1-.4-.3l.4-.2.4.2M44.7 8l-.4.2c-.3 0-.5 0-.5-.2 0-.1.2-.2.5-.2.2 0 .4 0 .4.2"/>
  <path d="M15.5 40c2.2 0 4 .7 5.1 1.8 1.2 1.2 1.8 3 1.8 5.2 0 2.3-.6 4-1.8 5.2-1.2 1.2-2.9 1.8-5.1 1.8h-5V40Zm-.2 11.6c1.4 0 2.5-.3 3.2-1 .7-.8 1-2 1-3.6s-.3-2.8-1-3.5c-.7-.8-1.8-1.1-3.2-1.1h-2v9.2Zm13 2.6c-1.2 0-2-.4-2.6-1a4 4 0 0 1-.8-2.8v-7h2.6v6.7c0 .6.1 1.1.4 1.4.3.3.7.4 1.3.4.7 0 1.3-.2 1.7-.7.4-.5.6-1.2.6-2.2v-5.5h2.6V54h-2.5v-1.6h-.2a3 3 0 0 1-1.2 1.3c-.5.3-1.1.5-1.9.5Zm8.9-.2V43.5h2.5v1.4h.2c.3-.5.7-1 1.2-1.2.4-.3 1-.4 1.7-.4a4 4 0 0 1 2 .4c.4.4.8.8 1 1.4h.2c.3-.6.8-1 1.3-1.4.5-.3 1.1-.4 1.9-.4 2.1 0 3.2 1.2 3.2 3.6v7h-2.6v-6.7c0-.6-.1-1-.4-1.3-.2-.3-.6-.4-1.1-.4-1.5 0-2.2 1-2.2 2.9V54h-2.6v-6.8c0-.6-.2-1-.4-1.3-.2-.3-.6-.4-1.2-.4a2 2 0 0 0-1.6.7c-.3.4-.5 1.2-.5 2.1V54Zm18.1 4.2V43.5h2.6v1.4h.2c.3-.5.7-1 1.3-1.2a4 4 0 0 1 1.8-.4 4 4 0 0 1 2.2.6c.6.4 1.1 1 1.5 1.8a8.5 8.5 0 0 1-.1 6 4 4 0 0 1-1.5 1.9c-.7.4-1.4.6-2.3.6a4 4 0 0 1-1.7-.4 3 3 0 0 1-1.2-1H58v5.4Zm5-6.3c.8 0 1.4-.2 1.8-.7.4-.6.6-1.4.6-2.5 0-1-.2-1.9-.6-2.4-.4-.5-1-.8-1.8-.8-.7 0-1.3.3-1.8.8-.4.5-.6 1.3-.6 2.4 0 1.1.2 1.9.6 2.4.5.6 1 .8 1.8.8ZM22 60.3v2.3h-4v11.6h-2.7V62.6h-4v-2.3Zm2 13.9V63.7h2.5v1.6h.2c.2-.6.6-1 1-1.3.4-.2.9-.4 1.5-.4s1 .1 1.3.3l-.4 2.3H30a3 3 0 0 0-.5-.1 3 3 0 0 0-.6 0 2 2 0 0 0-1.7.7c-.4.5-.5 1.4-.5 2.5v5Zm11.4.2c-1.1 0-2-.3-2.6-1a4 4 0 0 1-.8-2.7v-7h2.6v6.6c0 .7.2 1.2.4 1.4.3.3.7.5 1.3.5.7 0 1.3-.3 1.7-.7.4-.5.6-1.3.6-2.3v-5.5h2.7v10.5h-2.6v-1.5h-.2c-.3.5-.7 1-1.2 1.3-.5.3-1.1.4-1.9.4Zm13.5 0c-1 0-2-.2-2.7-.6-.8-.4-1.4-1-1.8-1.9-.5-.8-.7-1.8-.7-3 0-1 .2-2 .7-2.9a4 4 0 0 1 1.8-1.8c.8-.5 1.6-.7 2.6-.7 2.2 0 3.7.8 4.3 2.4l-1.8 1.3H51c-.2-.5-.5-.8-.9-1-.3-.3-.8-.4-1.4-.4-.7 0-1.3.2-1.8.8-.4.5-.6 1.3-.6 2.4 0 1 .2 1.9.7 2.4.4.5 1 .8 1.8.8a2.5 2.5 0 0 0 2.3-1.8h.2l1.9 1c-.3.9-.8 1.6-1.5 2.2-.8.5-1.7.8-3 .8Zm6.1-.2V59.5h2.7v8.2h.3l3-4h2.7v.2L60 68.5l4 5.5v.2h-2.8L58 69.8h-.3v4.4Zm0 0"/>
</svg>
