<svg xmlns="http://www.w3.org/2000/svg" version="1.0" viewBox="0 0 75 75">
  <defs>
    <clipPath id="a">
      <path d="M24 7.5h49V47H24Zm0 0"/>
    </clipPath>
    <clipPath id="b">
      <path d="M29 39h16v15.8H29Zm0 0"/>
    </clipPath>
    <clipPath id="c">
      <path d="M28 7.5h16V12H28Zm0 0"/>
    </clipPath>
  </defs>
  <path d="M11.5 57.7v2.5H5v4h5.9v2.4h-6v6H2V57.8Zm7.2 15.2a6 6 0 0 1-2.9-.7 4.7 4.7 0 0 1-2-2c-.4-.8-.6-2-.6-3.2a6 6 0 0 1 .7-3.1c.4-1 1-1.6 1.9-2a6 6 0 0 1 3-.7 6 6 0 0 1 2.8.7c.9.4 1.5 1 2 2 .4.8.7 1.9.7 3.1 0 1.3-.3 2.4-.7 3.2-.5.9-1.1 1.6-2 2a6 6 0 0 1-2.9.7Zm0-2.4c1.8 0 2.6-1.2 2.6-3.5 0-1.1-.2-2-.6-2.6-.5-.5-1.1-.8-2-.8-1.7 0-2.6 1.1-2.6 3.4s.9 3.5 2.6 3.5Zm8.2 2.2V61.4h2.7v1.7h.3c.2-.6.6-1 1-1.4a3 3 0 0 1 1.6-.4c.7 0 1.2.1 1.5.3l-.5 2.5h-.2a3.3 3.3 0 0 0-1.1-.2c-.8 0-1.4.3-1.9.8a5 5 0 0 0-.6 2.7v5.3Zm8.8 0V56.9h2.9v8.7h.2l3.3-4.2H45v.2l-3.9 5 4.3 5.8v.3h-3l-3.6-4.8h-.2v4.8Zm14.4.2c-1 0-1.8-.3-2.3-.8-.6-.6-.8-1.4-.8-2.5V56.9h2.8v12.6c0 .6.3 1 .9 1h.6l.3 2.1-.6.2-.9.1ZM55 60c-.6 0-1-.1-1.3-.4-.3-.3-.5-.7-.5-1.2s.2-.9.5-1.2c.3-.3.7-.5 1.2-.5l1 .2.6.6.2.9c0 .3 0 .6-.2.8-.2.3-.4.5-.7.6-.2.2-.5.3-.9.3Zm-1.5 12.7V61.4h2.9v11.3Zm6.5 0v-9h-1.6v-2.3h1.5l-.1-1.3c0-.8.1-1.4.5-1.9a3 3 0 0 1 1.4-1.1c.6-.3 1.3-.4 2.2-.4 1.2 0 2.1.2 2.8.6l-.7 2-.2.1c-.4-.3-1-.4-1.6-.4-.6 0-1 .1-1.2.4-.3.2-.4.5-.4 1v.5l.2.5H66v2.2h-3.2v9ZM73.9 70l.7 2-1.1.7-1.6.2c-1.2 0-2.2-.3-2.8-1-.6-.7-1-1.6-1-3v-5.3h-1.6v-2.2h1.7v-2.2l2.8-.5v2.7h3.2v2.2H71v5.2c0 .6.1 1 .4 1.2.2.3.5.4 1 .4s.9-.1 1.3-.4Zm0 0"/>
  <g clip-path="url(#a)">
    <path fill="#f6b20c" fill-rule="evenodd" d="m24 14.4 6.2-6.9 14.5.1.4 17.7 23.2.3s6.7 2.5 3.4 15l-1.5 6H26l-1.9-7Zm0 0"/>
  </g>
  <path fill="#544c4d" fill-rule="evenodd" d="m27.2 39.6 44.7.1-1.7 6.8H26l-1.9-7Zm0 0"/>
  <path fill="#b18721" fill-rule="evenodd" d="m25.4 14.5 6.3-5.8h11.5l.2 16.7h-6l-4.9 6h-6.8Zm0 0"/>
  <path fill="#e4efe2" fill-rule="evenodd" d="m25.8 14.5 6-5.6h11l.2 16-5.7.1-4.7 5.6-6.5.1Zm0 0"/>
  <path fill="#c6dec7" fill-rule="evenodd" d="M42.1 17s-6.3 5.2-7.1 8.2c-.8 3-5.8 2.7-5.8 2.7V11.3l-3.4 3.2.3 16.1h6.5l4.7-5.6H43v-9l-.9.9Zm0 0"/>
  <path fill="#626048" fill-rule="evenodd" d="M38 26.7s-1 .8.2 1.2h4.4s1.2-.9-.1-1.2Zm0 0"/>
  <path fill="#d89403" fill-rule="evenodd" d="M59 29.5h9.4v.6H59Zm0 1.2 9.4-.1v.7H59Zm0 1.3 9.4-.2v.7H59Zm0 1h9.4v.7H59Zm0 0"/>
  <path fill="#efdea1" fill-rule="evenodd" d="M48.4 26.4s-1.5 1.2 0 1.7H68s1.2-1.3-.2-1.8Zm7 8.3s-1 .8 0 1.1h13s.8-.8 0-1.2h-13Zm0 0"/>
  <path fill="#f6b30e" fill-rule="evenodd" d="M27.6 47.4S26 41 33 37.5c7-3.4 15 1.6 14 9.8 0 0-1.1 1.1-2 .3-.8-12.4-15.1-10.3-15.6-.4 0 0-.9 1.3-2 .2Zm0 0"/>
  <path fill="#f8de8f" fill-rule="evenodd" d="M29.2 47s-1 1-1.4.1c-.3-.8 1-11.4 9.9-9.5 0 0-8.6 1.3-8.5 9.5Zm0 0"/>
  <path fill="#f6b30e" fill-rule="evenodd" d="M49 47.4s-1.5-6.6 5.6-10c7-3.4 15 1.6 14 9.8 0 0-1.1 1.1-2 .3-.8-12.4-15.1-10.3-15.6-.4 0 0-.9 1.3-2 .3Zm0 0"/>
  <path fill="#f8de8f" fill-rule="evenodd" d="M50.7 47s-1 .8-1.3 0c-.3-.7.8-11.4 9.8-9.4 0 0-8.6 1.3-8.5 9.4Zm0 0"/>
  <g clip-path="url(#b)">
    <path fill="#6b695d" fill-rule="evenodd" d="M37.4 39.3a7.5 7.5 0 0 1 5.2 2.2 7.3 7.3 0 0 1 2.2 5.2 7.6 7.6 0 0 1-2.2 5.3 7.7 7.7 0 0 1-3.8 2 7.5 7.5 0 0 1-6.7-2 7.5 7.5 0 0 1 0-10.5 7.2 7.2 0 0 1 5.3-2.2Zm0 0"/>
  </g>
  <path fill="#cecfca" fill-rule="evenodd" d="M37.3 41.9a4.4 4.4 0 0 1 3.6 2 4.6 4.6 0 0 1 .7 2.4 4.5 4.5 0 0 1-1.9 3.6 4.4 4.4 0 0 1-6-1.2 4.4 4.4 0 0 1 1.1-6 4.2 4.2 0 0 1 2.5-.8Zm0 0"/>
  <path fill="#fff" fill-rule="evenodd" d="m36 44.9-.5-2.6s1.5-.9 3.5 0l-.4 2.5 2.9.4s.8 1.6-.8 3.8L38 48l-2 2.5s-2-.4-3-2.9l2.6-.7.3-2Zm0 0"/>
  <path fill="#6b695d" fill-rule="evenodd" d="M37.4 44.1a2 2 0 0 1 2 3 2 2 0 0 1-2 1.3 2 2 0 0 1-2-3 2.1 2.1 0 0 1 2-1.3ZM59 39a7.2 7.2 0 0 1 4.2 1.3 7.7 7.7 0 0 1 2.7 3.3 7.9 7.9 0 0 1 .6 2.9 7.5 7.5 0 0 1-4.6 6.9 7.2 7.2 0 0 1-4.3.4 7.2 7.2 0 0 1-3.8-2 7.8 7.8 0 0 1-2-3.8 7.6 7.6 0 0 1 2-6.8 7 7 0 0 1 2.4-1.6 7.5 7.5 0 0 1 2.9-.5Zm0 0"/>
  <path fill="#cecfca" fill-rule="evenodd" d="M59 41.7a4.5 4.5 0 0 1 3 1.3 4.5 4.5 0 0 1 1.2 4 4.6 4.6 0 0 1-1.2 2.2 4.5 4.5 0 0 1-3 1.3 4.2 4.2 0 0 1-1.7-.4 4.3 4.3 0 0 1-2.4-2.4 4.3 4.3 0 0 1-.3-1.6 4.2 4.2 0 0 1 .3-1.7 4.3 4.3 0 0 1 1.6-2 4.3 4.3 0 0 1 2.4-.7Zm0 0"/>
  <path fill="#fff" fill-rule="evenodd" d="m57.6 44.7-.4-2.6s1.5-.9 3.5 0l-.5 2.5 3 .4s.7 1.6-.8 3.8l-2.6-1-2 2.5s-2.1-.4-3-2.9l2.5-.8.3-2Zm0 0"/>
  <path fill="#6b695d" fill-rule="evenodd" d="M59 44a2 2 0 0 1 2 2.8 2 2 0 0 1-1 1.2 2 2 0 0 1-2.8-1.2 2 2 0 0 1 0-1.6 2.1 2.1 0 0 1 1.2-1.1l.8-.2Zm0 0"/>
  <path fill="#5d5f54" fill-rule="evenodd" d="M17.6 12.4v37H21v-37Zm-3 8.1v25.3l-12 .2L0 47.9l16.4-.1V20.6Zm0 0"/>
  <path fill="#8b8a82" fill-rule="evenodd" d="M18.5 14.2v33.2h.7V14.2Zm0 0"/>
  <path fill="#83827a" fill-rule="evenodd" d="M18.9 14.2v33.2h.3V14.2Zm0 0"/>
  <path fill="#5d5f54" fill-rule="evenodd" d="M13.3 22.5v1.6H22v-1.6Zm0 0"/>
  <path fill="#696759" fill-rule="evenodd" d="M13.7 23v.7H15v.3h1v-.3h1.4V23H16v-.4h-1l-.1.3Zm0 0"/>
  <path fill="#efdea1" fill-rule="evenodd" d="M32.4 35.7s.3-4.5 6.4-3.7c6 .8 19-3.2 19-3.2S42.5 34.7 38.7 34a7.3 7.3 0 0 0-6.3 1.7Zm11 .7s-.2-2.6 3.3-2.6 10.5-3.2 10.5-3.2S49 35.1 46.8 35a4.2 4.2 0 0 0-3.4 1.5Zm0 0"/>
  <path fill="#da8e02" fill-rule="evenodd" d="M40.4 36.6s4.6 1 5.4 3H45s-2-2.6-6-3.1Zm27.1 2.8s-2-2.4-6.2-2.8c2.1.4 3.9 1.5 5.2 3.1h1.2Zm0 0"/>
  <g clip-path="url(#c)">
    <path fill="#ffcd5d" fill-rule="evenodd" d="m28.3 10.8 3.4-3H43v.6l-11.3-.2-3.4 3.2Zm0 0"/>
  </g>
  <path fill="#5d5f54" fill-rule="evenodd" d="M27.6 34.4s1.8-2.3 3.6 0v2.4s-2.2 1.6-3.5-.2L13 36.4l.2-1.7Zm0 0"/>
  <path fill="#f0b532" fill-rule="evenodd" d="M29.4 34.5h.4a1 1 0 0 1 .6.6 1 1 0 0 1 0 .8 1 1 0 0 1-.6.6 1 1 0 0 1-.8 0 1 1 0 0 1-.5-1.4 1 1 0 0 1 1-.6Zm0 0"/>
  <path fill="#696759" fill-rule="evenodd" d="M13.5 35.2v.8H15v.2h1V36h1.4v-.8H16V35h-1.1v.3Zm0 0"/>
</svg>
