<svg xmlns="http://www.w3.org/2000/svg" version="1.0" viewBox="0 0 75 75">
  <defs>
    <clipPath id="a">
      <path d="M63 0h9.1v9H63Zm0 0"/>
    </clipPath>
    <clipPath id="b">
      <path d="M3.1 50H8v6H3.1Zm0 0"/>
    </clipPath>
  </defs>
  <path fill="#231f20" d="M70.5 3.4h.3v17.5h-.3Zm-2.8 0h.3v17.5h-.3Zm0 0"/>
  <path fill="#2c2932" d="M69.2 20h1.5c.2 0 .3 0 .3.2v2.5l-.7 2c0 .3-.3.5-.6.5h-1a.7.7 0 0 1-.6-.5l-.6-2v-2.5c0-.1 0-.3.2-.3Zm0 0"/>
  <path fill="#404041" d="M69.2 26.7c-.1.2-.2.2-.4.3l-.3.4c0 .2 0 .4.2.5h.5c.2 0 .3-.2.2-.4V27l.4.1c.2.3.2.8 0 1-.3.4-.7.6-1.1.5a1 1 0 0 1-.9-.7c-.1-.4 0-.8.2-1l.5-.4.4-.4c.4-.2.5.3.3.5Zm0 0"/>
  <path fill="#404041" d="M69.6 25.4h-1c-.1 0-.2.2-.1.3l.5.7h.3l.4-.7c.1-.1 0-.3-.1-.3Zm0 0"/>
  <path fill="#a6a8ab" d="m68.8 20.3 1.9 2.3v.3l-.1.2-2.4-2.8Zm-1.1 1.1 2.5 2.9-.1.3v.1L67.6 22Zm2-1.1 1 1.1v.7l-1.5-1.8Zm-.9 4.6a.4.4 0 0 1-.5-.3v-.4Zm-1-2v-.4l2 2.4h-.6L68 23.4Zm2.3-2.6h.2c.2 0 .4.2.4.3v.3Zm.4 3.2-.2.4-2.6-3v-.3s0-.2.2-.2Zm0 0"/>
  <path fill="#404041" d="m51.4 16.6 8.1-9 .8.7-8.2 9.1-.7-.8Zm0 0"/>
  <path fill="#a6a8ab" d="m51.3 16.7.8.7v.1l-34 24.6-.6-1Zm0 0"/>
  <path fill="#231f20" d="m18.7 42.2 21-15.2c.1-.1.2-.3 0-.4l-.7-1.1c-.1-.1-.3-.2-.4 0l-21 15.2c-.1 0-.2.2 0 .4l.7 1c.1.2.3.2.4.1Zm0 0"/>
  <path fill="#eb9525" d="M71.1 3.1 68.5 1l-37 40.9 3.8 3.2Zm0 0"/>
  <path fill="#ffc831" d="M68.6 1.3 31.9 41.8l3.4 2.8L70.8 3.2l-2.2-2m0-.6 2.9 2.5-36.2 42.2-4.1-3.5Zm0 0"/>
  <g clip-path="url(#a)">
    <path fill="#ffc831" d="m71.9 3.4-4.2 5c-.3.3-.8.3-1 0l-3-2.3a.7.7 0 0 1 0-1L68.1.2c.3-.3.7-.3 1 0l2.7 2c.3.3.3.8 0 1.1Zm0 0"/>
  </g>
  <path fill="#eb9525" d="M70 2.7c0 .2 0 .4-.2.6-.1.2-.3.2-.6.2-.2 0-.4 0-.6-.2a.8.8 0 0 1-.3-.6c0-.3.1-.5.3-.6l.6-.3c.3 0 .5 0 .6.3.2.1.3.3.3.6Zm-2.4 2.9-.3.6-.6.2c-.3 0-.5 0-.6-.2a.8.8 0 0 1-.3-.6c0-.3 0-.5.3-.7l.6-.2c.2 0 .4 0 .6.2.2.2.3.4.3.7Zm0 0"/>
  <path fill="#ffc831" d="M54.2 17 52 16a1 1 0 0 0-1.2.3 1 1 0 0 0-.1 1.1l1 2Zm0 0"/>
  <path fill="#eb9525" d="M52.3 17.1c0 .2 0 .3-.2.4-.1.2-.3.2-.4.2-.2 0-.3 0-.5-.2a.6.6 0 0 1-.1-.4l.1-.4.5-.2c.1 0 .3 0 .4.2l.2.4Zm0 0"/>
  <path fill="#ffc831" d="m62.6 7.6-2.1-.9a1 1 0 0 0-1.3 1.4l1 2.1Zm0 0"/>
  <path fill="#eb9525" d="m60.7 7.8-.1.4-.5.2-.4-.2a.6.6 0 0 1-.2-.4l.2-.5.4-.1.5.1.1.5Zm0 0"/>
  <path fill="#231f20" d="M47.9 45.7 59.8 8l.3.1-12 37.8Zm-23.6-.1L51.5 17l.3.2-27.2 28.6Zm0 0"/>
  <path fill="#ffc831" d="M49 49.6v-3.8c0-.6-.5-1-1-1.2l-8.3-2.4-1-1.7a.8.8 0 0 0-.7-.4h-7c-.4 0-.8.4-.8.8v1.3c0 .5-.3 1-.8 1.1l-5.8 1.9c-.5.2-1 .7-1 1.3v3.1Zm0 0"/>
  <path fill="#2c2932" d="M43.1 45.7h-5c-.2 0-.3-.1-.3-.2l.2-.2h5.1c.1 0 .2 0 .2.2 0 .1 0 .2-.2.2Zm-5.1.5h5.1c.1 0 .2 0 .2.2 0 0 0 .2-.2.2h-5c-.2 0-.3-.1-.3-.2l.2-.2Zm0 .8h5.1l.2.3s0 .2-.2.2h-5c-.2 0-.3-.1-.3-.2l.2-.2Zm0 1h5.1l.2.1c0 .2 0 .3-.2.3h-5c-.2 0-.3-.1-.3-.3l.2-.2Zm0 .8h5.1l.2.2c0 .1 0 .2-.2.2h-5c-.2 0-.3 0-.3-.2l.2-.2Zm0 0"/>
  <path fill="#ffc831" d="M20.5 49.6v-6c0-.3 0-.5-.2-.7l-1.9-2.4a1 1 0 0 0-.8-.4h-1.9a1 1 0 0 0-.6.2l-7 6a1 1 0 0 0-.4.8v2.5Zm0 0"/>
  <path fill="#5a2c13" d="M5.6 49.6h47.5V56H5.6Zm0 0"/>
  <path fill="#ffc831" d="M34.7 57H43l.2-.2v-6.2l-.2-.2h-8.4c-.2 0-.3.1-.3.2v6.2s.1.2.3.2Zm17.6-14.2v-1.3c0-.4 0-.8.4-1 .5-.4 1.2-.3 1.8-.3l5-.1c.5 0 .9 0 1.2.4.3.3.7.6 1.1.7h1.4c1.9.2 2.3 2.4 2.9 3.9a30.7 30.7 0 0 1 1 3.8l.3 1.1.3.2c.3.2.5.6.5 1l.1 3.2c0 1.1.1 2.3-.6 3-1 1.2-2.9.8-4.2.8h-1.6a9 9 0 0 0-2.1-4c-1.6-1.8-4.7-1.8-6.8-2l-.5-.1c-.3-.2-.4-.7-.4-1.1l.2-8.2Zm0 0"/>
  <path fill="#cf7c28" d="M36 51.2h-.2.1Zm0 0c.1 0 .1 0 0 0Zm0 0"/>
  <path fill="#ffc831" d="M54.8 42.1c-.6.4-.8 1.2-.8 2.2a783.6 783.6 0 0 1 .2 5.7c.3 1 1.2 1 2 1.2l2.7.5c.6.2 1.6.3 2.2.1.7-.3.5-1.3.5-1.9v-2.7a7.8 7.8 0 0 0-1.1-3.6 4 4 0 0 0-2.8-1.7l-1.7-.1c-.5 0-.9.1-1.2.3Zm0 0"/>
  <path fill="#404041" d="M54.8 42.1c.3-.2.7-.3 1.2-.3l1.7.1a4 4 0 0 1 2.8 1.7c.6 1 .9 2.5 1 3.6h-2.3c-.9-.1-1-.8-1.8-1.2-.7-.3-1.6-.5-2.5-.5H54v-1.2c0-1 .2-1.8.8-2.2Zm0 0"/>
  <path fill="#58595b" d="M56 41.8h1.2l2.4 5.4h-.4c-.8-.1-.9-.6-1.5-1l-2-4.4h.3Zm-1.5.6.3-.3.3-.1 1.7 3.8-.8-.2Zm0 0"/>
  <path fill="#cf7c28" d="m60.3 52 .8-.1c.7-.3.6-1 .6-1.6v-3.1a8 8 0 0 0-1.1-3.7 4.1 4.1 0 0 0-2.9-1.7 9 9 0 0 0-1.7-.1c-.5 0-1 .1-1.2.3-.6.4-.9 1.2-.9 2.3v4.3c0 .5 0 1 .2 1.4.3 1 1.1 1 2 1.2l2.8.6 1.4.2Zm-4-10.1h1.4c.9.2 2 .7 2.7 1.7a7 7 0 0 1 1 3.6 27.3 27.3 0 0 1 .1 3c0 .6 0 1.3-.4 1.5-.6.2-1.6 0-2.2 0l-2.7-.6H56c-.7-.2-1.4-.3-1.7-1.1l-.2-1.4v-4.3c0-1 .2-1.8.8-2.1a2 2 0 0 1 1.1-.3h.2Zm0 0"/>
  <path fill="#404041" d="M64.8 49.4c-.6-.1-1.2-.3-1.7-.7-.5-.5-.7-1.3-.8-2l-.3-3c0-.4 0-1 .3-1.2.4-.3.9-.3 1.3-.3.6.1 1.2.2 1.6.5.4.3.6.7.8 1.1.8 1.5 1.3 3 1.6 4.7 0 .4.3 1.4-.2 1.6l-1-.3-1.6-.4Zm0 0"/>
  <path fill="#58595b" d="M63 42.2h.6l1 .2 3 7c.1.3 0 .6-.2.7l-.9-.2Zm-1 .9c0-.2.1-.5.3-.6l3.4 7.1c-.3 0-.6 0-.8-.2Zm0 0"/>
  <path fill="#231f20" d="M54.8 46.1h1.5l.2.3c0 .2 0 .3-.2.3h-1.5a.3.3 0 0 1-.3-.3c0-.1.1-.3.3-.3Zm0 0"/>
  <path fill="#eb9525" d="M64.1 58.8h3c.5 0 1.8.2 2.1-.5v-3c0-.6 0-1.3-.8-1.3h-5.3c-.4 0-1-.2-1.4 0-.1.3-.1.6 0 .8 0 .3.3.5.4.7.4.5.6 1 .6 1.6v1c.3.7.8.7 1.4.7Zm0 0"/>
  <path fill="#2c2932" d="M24.3 56.8c0-.2.2-.3.3-.3h.2v-.2h-.1a.3.3 0 0 1-.2-.4v-.2l.4-.2h.1l.2-.2H25a.3.3 0 0 1-.1-.4v-.1c.1-.2.3-.2.4-.2h.1l.2-.1-.1-.1a.3.3 0 0 1 0-.4v-.1h.5l.3-.1v-.1c-.2-.2-.1-.3 0-.4l.1-.1c.1-.1.3 0 .4 0l.1.1.2-.1V53l.1-.4h.5l.1.2.3-.1v-.1c0-.2 0-.3.2-.3h.1c.2-.1.3 0 .4.1v.2h.2v-.2c0-.2.2-.3.4-.3s.4.1.4.3v.1h.3c0-.2.2-.3.4-.3s.3.2.3.4v.1h.4c0-.2.2-.2.4-.1h.1c.2 0 .2.2.2.4 0 .1 0 .2.2.2.1-.2.3-.2.4-.1h.1c.2.2.2.3.1.5l.2.2h.5c.2.2.2.4 0 .5l.1.3h.1c.2-.1.3 0 .4 0v.2c.2.1.1.3 0 .4h-.1l.1.3h.1l.4.1v.2l-.1.3h-.2v.3h.2c.2 0 .3.1.3.3v.1c0 .2 0 .3-.2.4h-.1v.2h.1l.2.4v.1c0 .2-.1.3-.3.3h-.1v.2c.2.1.3.3.2.4v.2l-.4.2-.2.2h.1c.1.1.2.3 0 .4v.1c0 .2-.2.2-.4.2l-.2.1v.1c.2.1.2.3 0 .4v.1c-.1.1-.3.2-.4 0h-.1l-.2.2v.5h-.2c0 .1-.3.1-.4 0v-.1l-.3.1v.1c.1.2 0 .3 0 .4h-.2c-.2.1-.3 0-.4 0v-.2l-.3.1v.1c0 .2 0 .3-.2.4h-.1c-.2 0-.4 0-.4-.2v-.1h-.3v.1c0 .2-.2.3-.3.3h-.1a.3.3 0 0 1-.3-.3v-.1h-.3c0 .2-.2.3-.4.3h-.1a.3.3 0 0 1-.3-.4l-.2-.2v.1c-.1.2-.3.2-.4.2h-.2a.3.3 0 0 1-.1-.5l-.2-.2c-.2.2-.4.2-.5.1h-.1a.3.3 0 0 1 0-.4V61l-.2-.2H26c-.1.2-.3.1-.4 0h-.1a.3.3 0 0 1 0-.5V60h-.2c-.1.1-.3 0-.4 0v-.2c-.1-.1 0-.3 0-.4h.2l-.2-.3c-.2.1-.4 0-.4-.1v-.2c-.1-.1 0-.3.1-.3h.1v-.3h-.2a.3.3 0 0 1-.3-.3v.1c0-.2.1-.3.3-.3v-.5a.3.3 0 0 1-.3-.4v-.1Zm0 0"/>
  <path fill="#a6a8ab" d="M32 57.4a2.5 2.5 0 0 1-.7 1.8 2.5 2.5 0 0 1-1.8.7 2.5 2.5 0 0 1-1-4.8 2.5 2.5 0 0 1 2 0 2.5 2.5 0 0 1 1.6 2.3Zm0 0"/>
  <path fill="#e6e7e8" d="m30.4 57.4-.3.6-.6.3-.6-.3a.8.8 0 0 1-.2-.6c0-.2 0-.4.2-.6.2-.2.4-.2.6-.2.2 0 .4 0 .6.2l.3.6Zm0 0"/>
  <path fill="#2c2932" d="M13.7 56.8c0-.2.1-.3.3-.3h.1v-.2a.3.3 0 0 1-.2-.4v-.2l.4-.2c.1 0 .2 0 .2-.2h-.1a.3.3 0 0 1 0-.4v-.1c0-.2.2-.2.4-.2l.2-.1v-.1a.3.3 0 0 1 0-.4v-.1c.1-.1.3-.1.4 0h.1l.2-.1v-.1c-.1-.2 0-.3 0-.4l.2-.1c0-.1.3 0 .4 0v.1l.3-.1V53c-.1-.2 0-.3 0-.4h.2c.1-.1.3 0 .4 0v.2l.3-.1v-.1c0-.2 0-.3.2-.3h.2c.1-.1.3 0 .3.1v.2h.3v-.2c0-.2.2-.3.3-.3h.1c.2 0 .3.1.3.3v.1h.3c0-.2.2-.3.4-.3h.1c.2 0 .3.2.3.4v.1h.2c.1-.2.3-.2.4-.1h.2c.1 0 .2.2.1.4l.2.2c.2-.2.4-.2.5-.1h.1c.1.2.2.3 0 .5l.2.2h.1c.1-.1.3-.1.4 0h.1v.8h.2c.1-.1.3 0 .4 0v.2c.1.1 0 .3 0 .4h-.1v.3h.2l.3.1v.5h-.2v.3h.2c.1 0 .3.1.3.3v.1c0 .2-.1.3-.3.4v.2c.2 0 .3.2.3.4v.1c0 .2-.2.3-.3.3h-.2v.2h.1c.2.1.2.3.2.4v.2l-.4.2h-.1l-.1.2c.2.1.2.3.1.4v.1c-.1.2-.3.2-.4.2h-.1l-.2.1.1.1c.1.1.1.3 0 .4v.1c-.2.1-.4.2-.5 0-.2 0-.2.1-.3.2.2.2.1.4 0 .5h-.1c-.1.1-.3.1-.4 0l-.1-.1-.2.1v.1l-.1.4h-.5l-.1-.2-.3.1v.1c0 .2 0 .3-.2.4-.2 0-.3 0-.4-.2v-.1h-.3v.1c0 .2-.1.3-.3.3h-.1a.3.3 0 0 1-.3-.3v-.1h-.3c0 .2-.2.3-.3.3h-.2a.3.3 0 0 1-.2-.4l-.2-.2-.1.1c0 .2-.3.2-.4.2h-.1a.3.3 0 0 1-.2-.5c0-.1 0-.2-.2-.2-.1.2-.3.2-.4.1h-.2a.3.3 0 0 1 0-.4V61l-.2-.2c-.2.2-.4.1-.5 0a.3.3 0 0 1 0-.5L15 60h-.1c-.2.1-.3 0-.4 0v-.2c-.2-.1-.1-.3 0-.4h.1l-.1-.3h-.1c-.2.1-.3 0-.4-.1v-.2l.1-.3h.2v-.3H14a.3.3 0 0 1-.3-.3v.1c0-.2 0-.3.2-.3h.1v-.5a.3.3 0 0 1-.3-.4v-.1Zm0 0"/>
  <path fill="#a6a8ab" d="M21.4 57.4a2.5 2.5 0 0 1-.7 1.8 2.5 2.5 0 0 1-1.9.7 2.5 2.5 0 0 1-1-4.8 2.5 2.5 0 0 1 2 0 2.5 2.5 0 0 1 1.6 2.3Zm0 0"/>
  <path fill="#e6e7e8" d="M19.7 57.4c0 .2 0 .4-.3.6-.1.2-.3.3-.6.3l-.6-.3a.8.8 0 0 1-.2-.6c0-.2 0-.4.2-.6.2-.2.4-.2.6-.2.3 0 .5 0 .6.2l.3.6Zm0 0"/>
  <path fill="#cf7c28" d="M32.5 52.5c.6.4 1 1 1.5 1.7l1.5 2.5c.3.4.5.9 1 1 .3.2.7 0 1-.2.2-.5 0-1-.4-1.5l-2.9-4c-.4-.5-.8-1.2-1.4-1.5-.6-.3-1.4-.3-2-.3H17l-1.6.1c-.7.3-1.2.7-1.5 1.3-.5.6-.7 1.3-1.2 2-.4.6-.7 1.5-1 2.3-.3.4-.5.9-.5 1.3 0 .2.1.4.3.5.4.2.8 0 1-.3l.5-1 1.8-3.4c.2-.3.3-.6.6-.8.4-.3 1-.3 1.4-.3l6.7-.3c.8 0 7 0 7.9.2l1 .7Zm0 0"/>
  <path fill="#2c2932" d="M50.5 57.2c0-.1.1-.3.3-.3l.1-.2a.3.3 0 0 1-.2-.4v-.1c0-.2.2-.3.3-.2h.2v-.3a.3.3 0 0 1-.1-.4v-.1c.1-.1.3-.2.4-.1h.2l.1-.2a.3.3 0 0 1 0-.5c.1-.2.3-.2.4-.1h.1l.2-.1V54c-.1-.2-.1-.3 0-.4l.1-.1h.4l.1.1.2-.1v-.1c0-.2 0-.3.2-.4h.5v.2h.3V53c0-.2 0-.3.2-.3h.1l.4.1v.2h.3v-.2c0-.1.1-.3.3-.3h.1c.2 0 .3.2.3.3v.1h.3c0-.2.2-.3.4-.3h.1c.2.1.3.2.2.4v.1l.3.1v-.1c.1-.1.3-.2.4-.1h.1c.2 0 .2.2.2.4v.1l.2.1c.2-.2.3-.2.5-.1.2.2.2.3.2.5h-.1l.2.2h.5v.1c.2.1.2.3 0 .4v.1l.1.2h.5l.1.2v.4H60l.1.3h.2c.1 0 .3 0 .3.2.1.2 0 .4-.1.4l-.1.1v.2h.1c.2 0 .3.2.3.3v.1c0 .2 0 .3-.2.4h-.1v.2h.1c.2.1.3.2.3.4v.1c0 .2-.2.3-.4.3l-.1.2v.1c.2 0 .3.2.2.4 0 .2-.2.3-.3.3H60v.2c.1.2.2.3.1.5s-.3.3-.4.2h-.2l-.1.1v.1c.2.1.2.3 0 .4v.1c-.1.1-.3.2-.4 0l-.2.2v.5h-.1c-.2.1-.3.1-.4 0H58v.2c0 .1 0 .3-.2.3h-.5v-.2l-.3.1v.1c0 .2 0 .3-.2.4h-.1c-.2 0-.3 0-.4-.2v-.1H56v.1c0 .2-.1.3-.3.3h-.1a.3.3 0 0 1-.3-.3l-.3-.1v.1l-.4.2h-.1a.3.3 0 0 1-.2-.4l-.3-.2v.2c-.1 0-.3.1-.4 0h-.1a.3.3 0 0 1-.2-.3V62h-.7a.3.3 0 0 1-.2-.4l.1-.1-.2-.2c-.2.2-.4.1-.5 0a.3.3 0 0 1 0-.5l-.1-.3h-.2c0 .2-.3 0-.3 0l-.1-.1V60l.2-.1-.1-.2H51c-.1 0-.3 0-.3-.2v-.1l.1-.4h.1v-.3h-.1a.3.3 0 0 1-.3-.3v-.1c0-.2 0-.3.2-.3h.1v-.4h-.1a.3.3 0 0 1-.3-.4Zm0 0"/>
  <path fill="#a6a8ab" d="M58.2 57.8a2.5 2.5 0 0 1-.8 1.8 2.5 2.5 0 0 1-1.8.8 2.5 2.5 0 0 1-1-5 2.5 2.5 0 0 1 2 0 2.5 2.5 0 0 1 1.6 2.4Zm0 0"/>
  <path fill="#e6e7e8" d="M56.5 57.8c0 .3-.1.5-.3.6-.1.2-.3.3-.6.3l-.6-.3a.8.8 0 0 1-.2-.6c0-.2 0-.4.2-.6l.6-.2c.3 0 .5 0 .6.2l.3.6Zm0 0"/>
  <path fill="#ee4036" d="M67.1 53.4h.9V52h-1v1.2Zm0 0"/>
  <path fill="#cf7c28" d="M53.3 41c0-.2 0-.3.2-.3H61c.2.2.6.5.8.5h-8.3a.2.2 0 0 1-.2-.3Zm2 10.5a6.3 6.3 0 0 1 6.6 6.3v.8c0 .2-.2.3-.4.3h-.3a.3.3 0 0 1-.4-.3v-1c0-2.7-2.2-5-5-5.1-3-.1-5.4 2.3-5.4 5.3v.8c0 .2-.2.3-.4.3h-.3a.3.3 0 0 1-.4-.3v-1c0-3.3 2.7-6 6-6.1Zm0 0"/>
  <path fill="#231f20" d="M66 55.7v.6h-2.7l-.3-.5h3Zm-3.2-.2a.3.3 0 0 1 0-.4c0-.1.1-.2.3-.2h2.4c.2 0 .3.1.4.3v.3h-3.1Zm.5 1.7v-.6H66v.6h-2.7Zm2.7.2v.2c0 .1 0 .3-.2.3l-.2.1h-1.9a.4.4 0 0 1-.4-.4v-.2H66Zm0 0"/>
  <g clip-path="url(#b)">
    <path fill="#ffc831" d="M5.1 55H4a.7.7 0 0 1-.8-.7v-3.6c0-.3.2-.4.4-.4h3.3c.3 0 .4.2.4.5l-1.4 3.7c0 .3-.3.5-.7.5Zm0 0"/>
  </g>
  <path fill="#a6a8ab" d="M44.7 60.5h1.4v-6.2l-.2-.1h-1l-.2.1v6.2Zm0 0"/>
  <path fill="#2c2932" d="M44.4 58.3h2l.2-.3v-9c0-.1-.1-.3-.3-.3h-1.9c-.1 0-.2.1-.2.3v9c0 .1 0 .3.2.3ZM44 61h2.8l.1-.1v-.4h-3.1v.4h.1Zm0 0"/>
  <path fill="#a6a8ab" d="M8.6 60.5h1.3v-6.2l-.1-.1h-1l-.2.1v6.2Zm0 0"/>
  <path fill="#2c2932" d="M8.3 58.3h2l.2-.3v-9l-.3-.3H8.3c-.1 0-.2.1-.2.3v9c0 .1 0 .3.2.3ZM7.8 61h3v-.5H7.6v.4Zm0 0"/>
  <path fill="#eb9525" d="M35.3 49.6v-2.2c0-.3-.3-.6-.7-.6h-12c-.3 0-.6.3-.6.6v2.2Zm0 0"/>
  <path fill="#2c2932" d="M16.5 44h2.8l.2-.1v-.2s0-.2-.2-.2h-2.8l-.2.2v.2l.2.2Zm0 1.4h2.8c.1 0 .2 0 .2-.2v-.1c0-.1 0-.2-.2-.2h-2.8s-.2 0-.2.2v.1l.2.2Zm0 1.4h2.8l.2-.2v-.2s0-.2-.2-.2h-2.8l-.2.2v.2l.2.2Zm0 1.3h2.8c.1 0 .2 0 .2-.2v-.1c0-.1 0-.2-.2-.2h-2.8s-.2 0-.2.2v.1l.2.2Zm0 0"/>
  <path fill="#eb9525" d="M35.7 43.1v.6l-.4.5a1.6 1.6 0 0 1-1 .4h-.7l-.5-.4a1.5 1.5 0 0 1 1.1-2.6 1.5 1.5 0 0 1 1 .5l.4.4.1.6Zm0 0"/>
  <path fill="#ffc831" d="M35.2 43.1c0 .3-.1.5-.3.7a1 1 0 0 1-.7.3 1 1 0 0 1-.7-.3 1 1 0 0 1-.3-.7c0-.2.1-.5.3-.6.2-.2.4-.3.7-.3.3 0 .5 0 .7.3.2.1.3.4.3.6Zm0 0"/>
  <path fill="#eb9525" d="m38.3 41.5-.1.4-.4.1-.4-.1a.5.5 0 0 1-.1-.4l.1-.4.4-.1.4.1.1.4Zm-6.3 0-.1.4-.4.1-.4-.1a.5.5 0 0 1-.1-.4l.1-.4.4-.1.4.1.1.4Zm-13.7.5-.1.4a1 1 0 0 1-.6.6 1 1 0 0 1-1.3-.6 1 1 0 0 1 0-.7c0-.2 0-.3.2-.4l.3-.2a1 1 0 0 1 .8 0 1 1 0 0 1 .7 1Zm0 0"/>
  <path fill="#ffc831" d="m17.9 42-.2.5-.5.2c-.2 0-.3 0-.4-.2a.6.6 0 0 1-.2-.4c0-.2 0-.4.2-.5l.4-.2c.2 0 .4 0 .5.2l.2.5Zm0 0"/>
  <path d="M5 73.4a5 5 0 0 1-2.2-.5c-.6-.4-1.1-1-1.5-1.6-.4-.7-.5-1.6-.5-2.6s.1-1.9.5-2.6c.4-.7.9-1.2 1.5-1.6A5 5 0 0 1 5 64c.9 0 1.6.2 2.3.5.6.4 1 .9 1.3 1.6l-1.3.8H7a2 2 0 0 0-.8-1c-.3-.2-.8-.3-1.3-.3-.7 0-1.3.2-1.7.7-.5.5-.7 1.3-.7 2.4 0 1 .2 1.9.7 2.4.4.5 1 .7 1.7.7 1.2 0 2-.6 2.2-1.7h.2l1.3.7c-.3.9-.7 1.5-1.3 2a4 4 0 0 1-2.4.6Zm5-.2v-6.8h1.6v1h.2c.1-.4.4-.6.6-.8.3-.2.6-.3 1-.3s.7 0 1 .2L14 68h-.4a2 2 0 0 0-.4 0c-.5 0-.9 0-1.1.4-.3.4-.4.9-.4 1.6v3.2Zm7 .2a2 2 0 0 1-1.1-.3c-.3-.1-.6-.4-.8-.7l-.2-1.1c0-.4 0-.7.2-1 .2-.3.5-.5.9-.7a4 4 0 0 1 1.4-.4 6 6 0 0 0 1-.2l.4-.3v-.4c0-.2 0-.4-.2-.5l-.7-.2a2 2 0 0 0-1.1.3 3 3 0 0 0-1 .7l-.8-1.1 1.3-1a4 4 0 0 1 1.7-.3 3 3 0 0 1 2 .6c.3.4.5 1 .5 1.7v3c0 .3.2.4.5.4h.3l.2 1.2-.4.1a3 3 0 0 1-.6.1c-.4 0-.7 0-1-.2-.2-.2-.4-.4-.5-.8-.4.7-1 1-2 1Zm.6-1.3c.4 0 .7-.1 1-.4.2-.3.3-.7.3-1.1v-.7h-.1l-.4.2-.8.1c-.3 0-.6.2-.8.3l-.2.7c0 .3 0 .5.3.7l.7.2Zm5 1.1v-6.8h1.6v1h.2c.4-.8 1-1.2 2-1.2.8 0 1.4.3 1.8.7.4.4.6 1 .6 1.9v4.4H27V69c0-.5 0-.8-.2-1-.2-.2-.5-.3-1-.3-.4 0-.8.2-1 .5-.4.3-.5.8-.5 1.5v3.5Zm13.8-3H32c0 .6.2 1 .5 1.3.3.3.7.4 1.2.4.4 0 .7 0 1-.2l.6-.7 1.2.8c-.2.4-.5.8-1 1.1a3 3 0 0 1-1.8.5A4 4 0 0 1 32 73c-.6-.3-1-.7-1.2-1.2a4.2 4.2 0 0 1 0-4c.3-.5.7-.9 1.2-1.1.5-.3 1-.5 1.7-.5 1 0 1.7.3 2.2.8.5.5.8 1.3.8 2.3v.8ZM35 69.1c0-.5-.1-.9-.3-1.1-.3-.3-.6-.4-1-.4-.9 0-1.4.5-1.6 1.5Zm12.4-5v1.6h-2.6v7.5H43v-7.5h-2.6V64Zm1.2 9.1v-6.8h1.7v1h.1c.2-.4.4-.6.7-.8.3-.2.6-.3 1-.3s.7 0 .9.2l-.3 1.5h-.5a2 2 0 0 0-.4 0c-.4 0-.8 0-1 .4-.3.4-.4.9-.4 1.6v3.2Zm7.6.2c-.8 0-1.4-.2-1.7-.7-.4-.4-.6-1-.6-1.8v-4.5h1.7v4.3c0 .4.1.7.3 1l.8.2c.5 0 .9-.1 1.2-.4.2-.4.4-.9.4-1.5v-3.6H60v6.8h-1.7v-1h-.1c-.2.4-.5.7-.8.9-.3.2-.7.3-1.2.3Zm8.8 0c-.7 0-1.3-.2-1.8-.4a3 3 0 0 1-1.2-1.3 4 4 0 0 1-.4-1.9c0-.7.1-1.4.4-2 .3-.4.7-.9 1.2-1.1.5-.3 1-.5 1.7-.5 1.5 0 2.4.6 2.8 1.6l-1.2.9h-.1c-.1-.3-.3-.6-.5-.7-.3-.2-.6-.3-1-.3-.5 0-.9.2-1.1.5-.3.4-.4 1-.4 1.6 0 .7.1 1.3.4 1.6.3.3.7.5 1.2.5.3 0 .7 0 1-.3.2-.2.4-.5.5-.9h.1l1.2.7c-.1.6-.5 1-1 1.4a3 3 0 0 1-1.8.6Zm4-.2v-9.6h1.8V69h.1l2-2.6h1.8v.1l-2.4 3 2.6 3.6v.1h-1.8l-2.2-2.8h-.1v2.8Zm0 0"/>
</svg>
