<svg xmlns="http://www.w3.org/2000/svg" version="1.0" viewBox="0 0 75 75">
  <defs>
    <clipPath id="a">
      <path d="M59 30h16v20H59Zm0 0"/>
    </clipPath>
    <clipPath id="b">
      <path d="M7 14h41v24H7Zm0 0"/>
    </clipPath>
    <clipPath id="c">
      <path d="M0 35h55v15H0Zm0 0"/>
    </clipPath>
    <clipPath id="d">
      <path d="M1 36h53v14H1Zm0 0"/>
    </clipPath>
  </defs>
  <path d="M1.5 72.3V60.9h4.9c.7 0 1.2 0 1.7.3a2.4 2.4 0 0 1 1.5 2.4c0 .5-.1 1-.4 1.3-.2.4-.6.7-1 1v.1a2.8 2.8 0 0 1 2.3 2.8c0 1.1-.4 2-1 2.6-.7.6-1.7.9-3 .9Zm4.4-6.9c1 0 1.6-.5 1.6-1.4 0-.5-.2-.9-.4-1-.3-.3-.7-.5-1.2-.5H3.7v3Zm.4 5c1.2 0 1.9-.5 1.9-1.6 0-1.2-.7-1.7-2-1.7H3.8v3.4Zm8.7 2c-.9 0-1.6-.3-2-.8-.5-.5-.7-1.3-.7-2.2v-5.7h2.1V69c0 .5.1.9.3 1.1.3.3.6.4 1.1.4.6 0 1-.2 1.4-.6.3-.4.5-1 .5-1.8v-4.5h2.2v8.6h-2.1V71h-.2a3 3 0 0 1-1 1 3 3 0 0 1-1.5.4Zm9.6 0c-.7 0-1.3-.2-1.7-.6-.4-.4-.6-1-.6-2v-9.6h2.1v9.6c0 .5.2.8.7.8h.4l.3 1.6-.5.1-.7.1Zm5 0c-.8 0-1.4-.2-1.8-.6-.4-.4-.6-1-.6-2v-9.6h2.2v9.6c0 .5.2.8.6.8h.5l.2 1.6-.5.1-.6.1Zm5.6 0c-.7 0-1.3-.2-1.8-.5s-1-.8-1.2-1.5a6.2 6.2 0 0 1 0-4.9 3 3 0 0 1 1.2-1.5c.6-.3 1.2-.5 2-.5.4 0 1 0 1.3.3.4.2.7.4 1 .8h.2v-4.4H40v12h-2v-1h-.2l-1 .9a3 3 0 0 1-1.5.3Zm.7-1.8c.6 0 1-.2 1.4-.7.4-.4.6-1 .6-2 0-.8-.2-1.5-.6-2-.3-.4-.8-.6-1.4-.6-.6 0-1.1.2-1.5.7-.3.4-.5 1-.5 2 0 .9.2 1.5.5 2 .4.4.9.6 1.5.6Zm10.4 1.8c-.9 0-1.6-.2-2.3-.5-.6-.4-1.1-.9-1.5-1.5A5 5 0 0 1 42 68c0-1 .2-1.8.5-2.5.4-.6.9-1.1 1.5-1.5a5.4 5.4 0 0 1 4.5 0c.6.4 1 .9 1.4 1.5.4.7.6 1.5.6 2.5 0 .9-.2 1.7-.6 2.4a4 4 0 0 1-1.4 1.5c-.7.3-1.4.5-2.2.5Zm0-1.8c1.3 0 2-.9 2-2.6 0-1-.2-1.6-.6-2-.3-.5-.8-.7-1.4-.7-1.4 0-2 .9-2 2.7 0 1.7.6 2.6 2 2.6Zm12.2 1.7h-6.8v-1.8l4.1-5v-.1h-4v-1.7h6.6v1.7l-4.2 5v.1h4.3Zm8.9-3.9h-5.5c0 .8.2 1.3.6 1.7.4.3.9.5 1.5.5a2 2 0 0 0 2-1.1h.1l1.4.9c-.3.6-.7 1-1.2 1.5-.6.3-1.4.5-2.3.5a5 5 0 0 1-2.3-.5c-.7-.3-1.2-.8-1.5-1.5-.4-.7-.5-1.5-.5-2.4 0-1 .1-1.8.5-2.5s.9-1.2 1.5-1.5a5 5 0 0 1 2.1-.5c1.3 0 2.2.3 2.8 1 .7.6 1 1.5 1 2.8v1ZM65.5 67c0-.6-.1-1-.4-1.4-.3-.3-.7-.4-1.3-.4-1 0-1.7.6-1.9 1.8Zm4 5.3v-8.6h2v1.2h.2c.2-.4.5-.8.8-1 .4-.2.8-.3 1.3-.3s.8 0 1 .2l-.3 1.9H74a2 2 0 0 0-.5-.1c-.6 0-1 .2-1.4.6-.3.4-.5 1.1-.5 2v4Zm0 0"/>
  <g clip-path="url(#a)">
    <path fill="#f6b00c" fill-rule="evenodd" d="M75 49s-8.8.3-15.4-1.3l.1-17.7S61.5 45 75 49Zm0 0"/>
  </g>
  <g clip-path="url(#b)">
    <path fill="#f6b20c" fill-rule="evenodd" d="M7.2 35.8V17l5-3h11.5l1.6 2.3V26l21.8-.3v11.6H7Zm0 0"/>
  </g>
  <g clip-path="url(#c)">
    <path fill="#616357" fill-rule="evenodd" d="M5.5 35.9H49s11.8 5.8.5 13.7l-44 .3S.3 47.2.2 43c-.2-2 .8-4.6 5.3-7Zm0 0"/>
  </g>
  <g clip-path="url(#d)">
    <path fill="#f6b20a" fill-rule="evenodd" d="M3 39.7v-1.6l1 .7.6-1.5h1v.9l1-.5v-.9l1.2.1-.1.9h1.2l-.1-.9 1.7.1v.7h1l.1-.8h1.1v.7h1.8V37l1-.1.5.9h1.6l-.2-1h1.1l.2 1.2 2-.4.2-.9H23V38l2.3-.2-.3-.9h1.6v1l1-.1.4-1 1.2.2v.9l1.3-.2 1.3-.9 1 .1v1l1.4-.2.3-.8 1.1.1.2 1h1.6v-1h1.5v1h1.8l.1-1h1.8v1h2l.2-1H46l.1.8h1.3l.3-.6 1 .1v.5l.7.4 1-.2v.7l1 .6.5 1.9 1.4 1.3-1 .5.7 1.1v1h-1.2l.3 1.4-1.1.4-.2 1.3h-1.4l-.3 1h-1s.3-.9-.1-.8l-1.4.1.1.8-1-.2-.2-.7h-1.3s.3.6 0 .7l-1.3-.1v-.5l-1.5.2.1.6h-1.1v-.7h-1.1v.6L38 49v-.5h-1.3l-.2.8-1.2-.3v-.5l-1.1.1v.4l-1.5.1v-.6h-1.2v.7L30 49v-.5h-1.3v.7l-1.3-.2v-.5h-1.1v.4h-1.1s0-.5-.2-.5h-1v.6h-1.7v-.6h-.9l-.2.6h-1l-.3-.7h-1.1s.1.8-.1.8l-1.2-.1v-.7h-1.1s.2.9 0 .9l-1.6-.2v-.8h-1.3s.3.8.2.9l-1.2-.2v-.4l-1-.1-.2.8-1.6-.1v-.8H8.3v1l-.7-.2s0-.6-.3-.6L6 48.3v.5h-.7v-.5L4 48.1l-.3-1.3-1.6-.3.2-1.6-1.1-.2V44l.6-.1v-1.1l-.8-.4v-.9l.9.2.2-1.1-.4-1H3Zm0 0"/>
  </g>
  <path fill="#5e6056" fill-rule="evenodd" d="m28.3 39.1-2 .1s-1.8 1.4 0 2.4h2v-.3h29.4s-.2.2.9.5v5.8l1 .1V42s.7-.3.8-1.2c0-.6-.2-1-.7-1.4V30h-1.1v9s-.6 0-.8.6H28.3Zm0 0"/>
  <path fill="#6a5819" fill-rule="evenodd" d="m8.2 17.7 4-2.6 11 .2.8 1.2-.1 17.2-6.2.1-3.9-4.3H8.3Zm0 0"/>
  <path fill="#e4efe2" fill-rule="evenodd" d="m8.7 18 3.7-2.7 10.4.3.8 1.1-.1 16.8-5.8.1-3.7-4.2H8.8Zm0 0"/>
  <path fill="#c6dec4" fill-rule="evenodd" d="M9 20.8s4 1.4 6.3 6c2.2 4.7 5.3 4.6 5.3 4.6l.1-16 2.1.2.8 1v16.8l-5.9.2-3.7-4.2H8.7v-8.7h.4Zm0 0"/>
  <path fill="#ffd265" fill-rule="evenodd" d="M26.3 27s-.9.8 0 1.3h17s1-.7 0-1.4l-17 .1Zm0 0"/>
  <path fill="#f8df99" fill-rule="evenodd" d="M7.5 38.3a4.5 4.5 0 0 1 3.2 1.4 4.5 4.5 0 0 1 1 5 4.7 4.7 0 0 1-1.7 2 4.5 4.5 0 0 1-5.7-.6 5 5 0 0 1-1-1.5 4.6 4.6 0 0 1 0-3.5 4.7 4.7 0 0 1 1.7-2 4.7 4.7 0 0 1 2.5-.8Zm7.9 4.5.8.1a2.2 2.2 0 0 1 .7 3.6 2.2 2.2 0 0 1-3.5-2.4 2.1 2.1 0 0 1 2-1.3Zm5.2.1a2.2 2.2 0 0 1 1.5 3.7 2.1 2.1 0 0 1-2.3.5 2.1 2.1 0 0 1-1.2-1.2 2 2 0 0 1 0-1.7 2.1 2.1 0 0 1 1.2-1.2l.8-.1Zm10.2.2a2.2 2.2 0 0 1 1.6.7 2.2 2.2 0 0 1 .7 1.5 2.2 2.2 0 0 1-1.4 2 2.2 2.2 0 0 1-2.9-1.1 2.3 2.3 0 0 1 0-1.7 2.2 2.2 0 0 1 1.2-1.2l.8-.2ZM18 38.6l.9.1.7.5a2.1 2.1 0 0 1 .6 1.5c0 .3 0 .6-.2.9a2.2 2.2 0 0 1-1.1 1.2 2.2 2.2 0 0 1-3-2 2.1 2.1 0 0 1 .6-1.6 2.1 2.1 0 0 1 1.5-.6Zm7.7 4.4.8.2a2.2 2.2 0 0 1 1.2 1.2 2.2 2.2 0 0 1 0 1.7c0 .3-.3.5-.5.7a2.2 2.2 0 1 1-2.4-3.6l.9-.2Zm0 0"/>
  <path fill="#ecb230" fill-rule="evenodd" d="M59.1 39.8c.2 0 .4 0 .5.2.2.1.2.3.2.5s0 .4-.2.5l-.5.2c-.2 0-.4 0-.5-.2a.7.7 0 0 1-.2-.5c0-.2 0-.4.2-.5.1-.2.3-.2.5-.2Zm0 0"/>
  <path fill="#f8df99" fill-rule="evenodd" d="M34.2 42.5h16.5s1 .7 0 1.4H34.3s-1.2-.4 0-1.4Zm.1 2.2h16.4s1 .7 0 1.3H34.5s-1.3-.4-.1-1.3Zm0 0"/>
  <path fill="#f6b20a" fill-rule="evenodd" d="M7.4 39.5a3.3 3.3 0 0 1 3 2 3.3 3.3 0 0 1-.6 3.7 3.3 3.3 0 0 1-5.4-3.6 3.3 3.3 0 0 1 1.8-1.8l1.2-.3Zm0 0"/>
  <path fill="#f8df99" fill-rule="evenodd" d="M7.5 41.7a1.2 1.2 0 0 1 1 .7l.2.5-.1.4c0 .2-.2.3-.3.4a1.2 1.2 0 0 1-1.7 0 1.2 1.2 0 0 1 0-1.7 1.2 1.2 0 0 1 .9-.3Zm0 0"/>
  <path fill="#f6b20a" fill-rule="evenodd" d="M18.1 39.4a1.4 1.4 0 0 1 1 .4 1.4 1.4 0 0 1 .3 1.5 1.4 1.4 0 0 1-.7.7 1.4 1.4 0 0 1-1 0c-.3 0-.4-.1-.5-.3a1.4 1.4 0 0 1-.4-1 1.4 1.4 0 0 1 1.3-1.3Zm0 0"/>
  <path fill="#f8df99" fill-rule="evenodd" d="m18.1 40.3.4.1.1.4-.1.3a.5.5 0 0 1-.7 0 .5.5 0 0 1-.2-.3c0-.2 0-.3.2-.4l.3-.1Zm0 0"/>
  <path fill="#f6b20a" fill-rule="evenodd" d="M15.4 43.6a1.4 1.4 0 1 1 0 2.8 1.4 1.4 0 0 1 0-2.8Zm0 0"/>
  <path fill="#f8df99" fill-rule="evenodd" d="m15.4 44.5.4.1.1.4-.1.3-.4.2c-.1 0-.2 0-.3-.2a.5.5 0 0 1-.2-.3c0-.2 0-.3.2-.4l.3-.1Zm0 0"/>
  <path fill="#f6b20a" fill-rule="evenodd" d="M20.6 43.7a1.4 1.4 0 0 1 1.3.8 1.4 1.4 0 0 1 0 1.1l-.3.5a1.4 1.4 0 0 1-1 .4 1.4 1.4 0 0 1 0-2.8Zm0 0"/>
  <path fill="#f8df99" fill-rule="evenodd" d="m20.6 44.6.4.1.1.4-.1.3-.4.2c-.1 0-.3 0-.4-.2a.5.5 0 0 1-.1-.3l.1-.4.4-.1Zm0 0"/>
  <path fill="#f6b20a" fill-rule="evenodd" d="M25.7 43.9a1.4 1.4 0 1 1 0 2.7 1.4 1.4 0 0 1 0-2.7Zm0 0"/>
  <path fill="#f8df99" fill-rule="evenodd" d="m25.7 44.8.4.1.1.4-.1.3-.4.2c-.1 0-.2 0-.3-.2a.5.5 0 0 1-.2-.3c0-.2 0-.3.2-.4l.3-.1Zm0 0"/>
  <path fill="#f6b20a" fill-rule="evenodd" d="M30.8 44a1.4 1.4 0 1 1 0 2.7 1.4 1.4 0 0 1 0-2.7Zm0 0"/>
  <path fill="#f8df99" fill-rule="evenodd" d="m30.8 44.9.4.1.1.4a.5.5 0 0 1-.5.5c-.1 0-.3 0-.4-.2a.5.5 0 0 1-.1-.3l.1-.4.4-.1Zm0 0"/>
  <path fill="#f6b20a" fill-rule="evenodd" d="M37.3 42.8h9s.5.4 0 .7h-9s-.6-.2 0-.7Zm.1 2.2h9s.5.4 0 .8h-9s-.6-.3 0-.8Zm0 0"/>
  <path fill="#d08c00" fill-rule="evenodd" d="M71.9 49s-9-.2-12.2-1.3V42c3.5 3.2 7.4 6.2 12.2 7Zm0 0"/>
  <path fill="#f8ae13" fill-rule="evenodd" d="M45.7 25.6s1-1.5 3-1.4v5.4s-2.4.5-3.1-1.5v-2.5Zm0 0"/>
  <path fill="#5f532b" fill-rule="evenodd" d="m49 24.3.1 5.3h-.4v-5.3Zm0 0"/>
  <path fill="#e9f3e2" fill-rule="evenodd" d="M49.2 29.5s3.8-1.9 0-5.1l-.1-.1v5.2Zm0 0"/>
  <path fill="#616055" fill-rule="evenodd" d="M33.8 21.5v4.7h2.4v-4.7h-.7v-2.8h1.3s-.5-.5 0-1h-2.4v3.8h-.6Zm0 0"/>
  <path fill="#d38d02" fill-rule="evenodd" d="M33.5 29.7v4l.5-.1v-3.9Zm0 0"/>
  <path fill="#d99203" fill-rule="evenodd" d="M35.2 29.8v4l.5-.1v-3.9Zm1.5-.1v3.9h.6v-4Zm1.6.1v3.9h.5v-4Zm1.4-.1v4h.5v-4Zm1.6 0v4h.5v-4Zm1.7 0v4h.5v-4Zm0 0"/>
  <path fill="#616055" fill-rule="evenodd" d="M9.6 30.7H13s.6.4 0 .7H9.6s-.7-.3 0-.7Zm0 0"/>
  <path fill="#ecb230" fill-rule="evenodd" d="M27.3 39.7c.2 0 .3 0 .5.2l.2.5c0 .2 0 .4-.2.5-.2.2-.3.2-.5.2s-.4 0-.5-.2a.7.7 0 0 1-.2-.5c0-.2 0-.4.2-.5l.5-.2Zm0 0"/>
</svg>
