<svg xmlns="http://www.w3.org/2000/svg" xmlns:xlink="http://www.w3.org/1999/xlink" version="1.0" viewBox="0 0 75 75">
  <defs>
    <path id="a" d="M31 49h11v5.8H31Zm0 0"/>
    <path id="b" d="M43 51h5v3.8h-5Zm0 0"/>
    <path id="c" d="M34 52h5v2.8h-5Zm0 0"/>
  </defs>
  <defs>
    <clipPath id="d">
      <path d="M26 48h11v6.8H26Zm0 0"/>
    </clipPath>
    <clipPath id="e">
      <path d="M26 49h11v5.8H26Zm0 0"/>
    </clipPath>
    <clipPath id="f">
      <path d="M37 48h10v6.8H37Zm0 0"/>
    </clipPath>
    <clipPath id="g">
      <path d="M37 49h10v5.8H37Zm0 0"/>
    </clipPath>
    <clipPath id="h">
      <use xlink:href="#a"/>
    </clipPath>
    <clipPath id="i">
      <use xlink:href="#a"/>
    </clipPath>
    <clipPath id="j">
      <use xlink:href="#b"/>
    </clipPath>
    <clipPath id="k">
      <use xlink:href="#b"/>
    </clipPath>
    <clipPath id="l">
      <use xlink:href="#c"/>
    </clipPath>
    <clipPath id="m">
      <use xlink:href="#c"/>
    </clipPath>
    <clipPath id="n">
      <path d="M13 48h20v6.8H13Zm0 0"/>
    </clipPath>
    <clipPath id="o">
      <path d="M13 51h20v3.8H13Zm0 0"/>
    </clipPath>
    <clipPath id="p">
      <path d="M40 48h21v6.8H40Zm0 0"/>
    </clipPath>
    <clipPath id="q">
      <path d="M40 51h21v3.8H40Zm0 0"/>
    </clipPath>
  </defs>
  <path fill="#62ab5d" d="M63.3 19.7A13.4 13.4 0 0 0 59.7 33c.9 4.5.6 6.4-2.4 10.8-3.1 4.5-.7 7.7-.7 7.7s-.7-4.6 3.3-9c4.3-4.4 2.2-7.2 1.1-11.8-1.3-5.6.8-8.5 2.3-10.9Zm0 0"/>
  <path fill="#75736f" d="M51.6 50.4a3 3 0 0 1 1.7-1.4H55l1.5-.4a4 4 0 0 1 1.7 0l1.2.2.4.2c.4.1.9.4 1.2.7a1.5 1.5 0 0 1 .4 1.3l-.1.5c-.2.4-.5.6-.9.7l-1 .1-2.8.1h-1.7a9 9 0 0 1-.5 0l-.1-.1c-.1 0 0 0 0 0H53c-.4 0-.9 0-1.3-.3a1 1 0 0 1-.4-.8c0-.3.1-.6.3-.8Zm0 0"/>
  <path fill="#b3aea8" d="m55 49.3-.1-.4 1.5-.3a4 4 0 0 1 1.7 0 11.2 11.2 0 0 1 2.2.7c.1 0 .3.3.2.6-.2.5-.5.8-1 .8-1 .2-2 0-2.8-.6-.3-.2-.7-.1-1-.2-.4 0-.7-.2-.8-.6Zm0 0"/>
  <path fill="#b3aea8" d="m56.4 50.5-.2.2c-1 .5-2 .7-3 .5-.5 0-1.1-.1-1.4-.7v-.4c.3-.6.9-1 1.5-1l.6-.1.9.8c.4.5 1 .3 1.6.7Zm0 0"/>
  <path fill="#8a8781" d="m51.6 50.4.1-.3.1.4c.3.6.9.6 1.4.7 1 .2 2 0 3-.5l.2-.2c-.6-.4-1.2-.2-1.6-.7l-.9-.8h1v.3c.1.4.4.6.7.6.4 0 .8 0 1.1.2a4 4 0 0 0 2.8.6c.5 0 .8-.3 1-.8.1-.3 0-.5-.2-.6.2 0 .4.2.6.4l.1.1c.1.3.2.5 0 .7-1.1 1.9-3.2.6-4.8.8-.6 0-1.1.3-1.7.4-1 .1-1.9.2-2.7-.3-.3-.1-.3-.6-.2-1Zm0 0"/>
  <path fill="#75736f" d="M51.6 50.4c0 .4 0 .9.2 1 .8.5 1.8.4 2.7.3.6 0 1.1-.3 1.7-.4 1.6-.2 3.7 1 4.8-.8.2-.2.1-.4 0-.6.2.2.3.4.3.7v.4l-.1.6c-.2.3-.5.5-.9.6l-1 .1-2.8.1h-1.7a6 6 0 0 1-.5 0l-.1-.1c-.1 0 0 0 0 0H53c-.4 0-.9 0-1.3-.3a1 1 0 0 1-.4-.8c0-.3.1-.6.3-.8Zm0 0"/>
  <path fill="#5f9657" d="M57 5.8c2.4 3.8 1.5 10.7-1.7 15.4a14.4 14.4 0 0 0-1.9 13.7c2 4.7 1.7 6 .1 10.5-1.4 4.2.4 7.4.4 7.4s-1-3.4 1.6-8.3c2.8-5.3 1.2-8 0-12.4-1-4.8.4-6.4 2.7-11.3 3-6.4.7-13-1.1-15Zm0 0"/>
  <path fill="#62ab5d" d="M40.4 9.1c6.3 5.5 7 11.3 5.8 17.5-1.3 6.2-1.3 7.4 2.6 13.8 3.9 6.4 2.4 11 2.4 11s-.3-5-5.2-11.7c-5-6.9-3.4-9.7-2-16 1.8-7.8-1.3-11.5-3.6-14.6Zm0 0"/>
  <path fill="#62ab5d" d="M56.3 9.8c-5 6-5 11.7-3.4 17.4 1.6 5.8 1.7 7-1 13.6-2.8 6.6-1.1 10.9-1.1 10.9s-.2-4.9 3.4-12c3.6-7.2 2-9.7.2-15.5-2.2-7.2.1-11.2 1.9-14.4Zm0 0"/>
  <path fill="#84c47a" d="M50 2.1c-3 6.9-.8 11.4 2 20.5 2.7 9.1-.6 14.7-3.2 20.3-2.5 5.6-.1 9.9-.1 9.9s-4.7-5.3-1.4-14.2c3-7.7 2.8-9.4 1.1-16.6-2.2-9.6-2.2-15.1 1.5-19.9ZM56.9 13c4.6 6 4.3 11.2 1.8 16.1-2.5 5-1.7 7-.3 12.7 1.6 6.4-2.5 9.2-2.5 9.2s2.9-2.7-.5-10.9c-2.8-6.9-1-8.9 1.7-13.9 3.3-6.2 1.3-10-.2-13.1Zm0 0"/>
  <path fill="#75736f" d="M62.7 52c-.2-.3-.6-.4-1-.5l-1.1-.2c-.4 0-.8 0-1.2.2a2 2 0 0 0-.7.7c-.1.3-.3.6-.1.9.1.2.4.3.7.4h.6a13.5 13.5 0 0 0 2.1 0c.4 0 .7 0 1-.4.2-.2.2-.5 0-.7 0-.2-.1-.3-.3-.4Zm0 0"/>
  <path fill="#8a8781" d="M63 52.4c0-.2-.1-.3-.3-.4l-.1-.1c0 .1.1.3 0 .4-.1.2-.4.4-.7.3h-1l-.8-.1-.1-.6c0-.2.1-.3.3-.4l.8-.2h-.7l-.6.1c-.2.1-.5.3-.5.5l-.2.8c0 .1 0 .2.2.3.5.2 1.1.1 1.7 0 .7 0 1.7.3 2-.3v-.3Zm0 0"/>
  <path fill="#b3aea8" d="m60 52 .1.5h.7l1 .1c.4 0 .7 0 .8-.3.1-.1 0-.3 0-.4-.3-.2-.6-.4-1-.4l-.5-.2c-.3 0-.5 0-.8.2-.2.1-.4.2-.3.4Zm0 0"/>
  <path fill="#75736f" d="M63 52.4v.3c-.3.6-1.3.3-2 .4-.6 0-1.2.1-1.7-.1l-.2-.3.2-.8c0-.2.3-.4.5-.5l.6-.1c-.3 0-.7 0-1 .2a2 2 0 0 0-.7.7c-.1.3-.3.6-.1.9.1.2.4.3.7.4h.6a13.5 13.5 0 0 0 2.1 0c.4 0 .7 0 1-.4.2-.2.2-.5 0-.7Zm0 0"/>
  <path fill="#5f9657" d="M49 14.7c-4.2 5.9-3.8 10.7-1.2 15.4 2.5 4.6 2 6.6.8 12-1.3 6.2 2.7 8.7 2.7 8.7s-2.8-2.4 0-10.4c2.5-6.7.7-8.5-2-13.2-3.5-5.8-1.7-9.5-.4-12.5Zm0 0"/>
  <path fill="#84c47a" d="M48.3 52c-8-6.1-7-10.8-5-18 2-7.2-1.3-10.5-3.1-12.5 0 0 6.7 4.1 5.1 13.8-1.4 8.3-.5 10.8 3 16.8Zm0 0"/>
  <path fill="#367d5f" d="M33.5 34Zm17.2-11.6c-1 .1-2.1.5-3 .8a5 5 0 0 0-1.7 1l-.6.7c-.6 1-.8 2.3-.7 3.4v.2l.5 1.8.4 1.5v.9a4 4 0 0 1 0 .8v.3l-.1.2-.1.1-.2.2v.1l-.1.2-.1.1-.3.2c-.3-1-1-1.7-1.6-2.4-.5-.7-1.2-1.4-1.5-2.3-.2-.3-.3-.8-.2-1.2 0-.4.2-.8.4-1.2l.3-.4c.3-.7.8-1.4 1-2.1l.2-.3c.3-1 .3-2 0-3a7.6 7.6 0 0 0-2-3.7L40 17.1a5 5 0 0 1-1.3-2.2 2 2 0 0 1 .5-2c.5-.6 1-1 1.4-1.7l.4-.5c.3-.7.6-1.4.6-2.2v-.1A9 9 0 0 0 37.9.1c-.2 0-.2 0 0 .3a8.6 8.6 0 0 1 1 6.9c-.2.1-.3.3-.3.5-.5.8-1.3 1.4-2 2-.7.8-1.6 1.5-2.2 2.5l-.2.3a3 3 0 0 0-.1 2c.2.9.7 1.6 1.2 2.2l1.3 1.2.7.6c.6.6 1.3 1.2 1.7 2l.3.7v1.4c-.2.7-.7 1.3-1.1 1.9-1 1.3-2.3 2.6-2.5 4.4 0 .6 0 1.2.3 1.8a9 9 0 0 0 1.4 2l.7.9.4.4.1.2.2.2.5.8v.2l.1.2.2.5v.8a3 3 0 0 1-.5 1l-1.7 2.2-.5 1.3a3.1 3.1 0 0 0 0 1.2l-.1-.2s-.1-.1-.1 0l-.1-.2-.1-.5V41l.1-.5c.1-.7.2-1.6.1-2.4 0-.8-.3-1.5-.7-2a4.4 4.4 0 0 0-1.5-1.3l-.6-.4a1.8 1.8 0 0 1-.3-.3c0 .1 0 0 0 0V34l-.1-.2v-.6l.2-.6 1-3.2.1-1.6a5.4 5.4 0 0 0-2-4.4L31.4 22l-.3-.5a3 3 0 0 1-.3-1.6c0-.8.4-1.6.5-2.5.1-.8 0-1.7-.1-2.5a17 17 0 0 0-2-4.3l-1-1c-.2-.1-.3 0-.2.2a7.2 7.2 0 0 1 1.3 5.2l-.1.7-1 2.3-.7 1.1a6 6 0 0 0-.5 1.3v.3c-.3 1-.3 1.9 0 2.8a4 4 0 0 0 1.5 2l.9.6a8.2 8.2 0 0 1 .7.6l.2.2v.1l.2.2v.1l.2.4v.9l-.3.7v.2l-.2.2v.1a23 23 0 0 1-.7 1.3c-.5.8-1.1 1.8-1.3 2.9-.5-.3-1-.6-1.7-.8l-.7-.4c-.3 0-.5-.2-.7-.3a3.5 3.5 0 0 1-.5-.4 2.6 2.6 0 0 1-.5-.4v-.2H24v-.1a5.2 5.2 0 0 1-.3-.5v-.1c-.4-1.2.2-2.5.4-3 .3-.6.1-.7 0-.6a7.5 7.5 0 0 0-2.4 6.1c0 .7.2 1.3.7 1.9l1 .8.6.3.2.1h.1l.3.3c.2 0 .4.2.5.3a4.5 4.5 0 0 1 .4.2v.1l.2.2v.1h.1v.1a2.2 2.2 0 0 1 .2.4c.3 1 0 2 0 3l.3 1.4c.2.5.5 1 .9 1.4.6.8 1.5 1.5 2.5 2l.7.3 1 .4 1.6 1c.3.3.6.7.6 1.1.1.5 0 1-.2 1.4l-.3.9s-.1.2.2 0a10.8 10.8 0 0 0 2.3-3l.2-1.3v.4l.1.1c.2 1.6-.4 2.6-.4 2.6-.1.3 0 .3.2.3-.8.7-1.4 1 .5.5a17.3 17.3 0 0 0 4.6-2.5c.1 0 .2 0 .2-.2.6-.6 1-1.6 1-2.6 0-.6-.2-1.1-.4-1.7l-.2-1 .2.3c0 .3.2.5.3.8a6.4 6.4 0 0 1 .3 1.2V46l-.1.2-.1.4-.1.2v.1h-.1c-.7 1.3-2 2.2-2.6 2.4-.8.5-.7.7-.5.6a10.6 10.6 0 0 0 7-4.7c.3-.5.5-1 .5-1.6v-1.4l-.2-.6v-.2h-.1v-.5l-.2-.6v-1.1l.1-.3v-.1l.1-.1.7-1 1.6-1.7.8-1.3.2-.2a6 6 0 0 0 .5-1.8c.1-1.2 0-2.3-.4-3.4L49 28l-.2-.4c-.2-.6-.4-1.2-.4-1.9 0-.5.1-1 .4-1.5a4 4 0 0 1 1.2-1.1l1-.6s.2-.1-.2-.1ZM32.3 43.2l-1.4-.8-.1-.1-.2-.1-.2-.2h-.1l-.5-.6v-.1l-.2-.2V41l-.1-.4v-.2c0-.8.3-1.5.5-2.2.3.3.7.5 1 .6l1.6.5h.4l.2.2.2.2v.1l.2.2v.2c0-.1 0 0 0 0v.8l-.3 1.3a3.2 3.2 0 0 0 .1 1.4l-1-.5Zm0 0"/>
  <path fill="#367d5f" d="m38.8 7.3-.2.5c.9-.2 1.1.8 1.6 1.3h.4c.4-.3.6-.7 1-.7.2-2.1-.2-4.2-1.8-6.3-.7-1-1.5-1.7-1.9-2-.2 0-.2.1 0 .3a8.6 8.6 0 0 1 1 6.9Zm0 0"/>
  <path fill="#256147" d="M36 11.6c1.2 1 2.4-.1 3.2-1.1.2-.3.5-.5.8-.4.4.1.7.4 1 .6.3-.6.6-1.3.6-2.1v-.2c-.4 0-.6.4-1 .6 0 .1-.3.2-.4 0-.5-.4-.7-1.4-1.6-1.2-.5.8-1.3 1.4-2 2-.7.8-1.6 1.5-2.2 2.5l-.1.4c.4-.7 1-1.1 1.7-1.1Zm0 0"/>
  <path fill="#367d5f" d="M38.2 29.5c.3.1.6-.1.8-.4.5-.7.4-1.7 1.2-2 .7-.5 1.3-.2 1.8.3l1.2-2.1v-1.7c0-.4-.5-.7-1-.6l-1 .7h-.5c-.5-.6-.2-1.4-.8-2l-.6-.4v1.4c-.2.7-.7 1.4-1.1 2-1 1.2-2.3 2.5-2.5 4.3 0 .7 0 1.3.3 1.8 0-.4.2-.9.5-1.3.4-.4 1.1-.2 1.7 0Zm0 0"/>
  <path fill="#256147" d="M43.1 39.6c-.4-.7-1.2-.1-1.8.2-.6.3-1 0-1.2-.4-.1-.7-.3-1.3-.8-1.6l-.2.4-1.7 2.1c-.2.4-.5.8-.5 1.3v1c.1.2.3.2.5.3.8.2 1.9 0 2.2.8.3.6.1 1.2 0 1.9-.1.5.2.9.6 1.1.6.3.8.9.6 1.4l.2-.1c.6-.7 1-1.7 1-2.7a6 6 0 0 0-.4-1.7 3 3 0 0 1-.1-1.4c.2-1 1-1.6 1.6-2.2l.1-.2v-.2Zm0 0"/>
  <path fill="#367d5f" d="M40.2 46.7c-.4-.2-.7-.6-.6-1.1.1-.7.3-1.3 0-2s-1.4-.5-2.2-.7a1 1 0 0 1-.5-.3l.2.7c.3 1.2 1 2.5.6 3.7a5.9 5.9 0 0 1-1.6 2.7c-1 1-2.1 1.5.1.9 1-.3 1.8-.8 2.7-1.2.7-.3 1.4-.7 2-1.3 0-.5-.1-1.1-.7-1.4Zm4.6-11.5a20 20 0 0 0-1.5-1.7c-.3-.2-.9-.4-1.2 0-.3.4-.5 1-1 1-.6-.2-1.2-1.1-1.8-.8-.3.1-.5.3-.7.6l.2.2.5.9v.1l.1.2a5.1 5.1 0 0 1 .2.7v.7l-.3.7c.5.3.7 1 .8 1.6.1.5.6.7 1.2.4.6-.3 1.4-.9 1.8-.2l.2.2 1.4-2c.4-.9.4-1.8.1-2.6Zm0 0"/>
  <path fill="#256147" d="M43.1 32.5c-.5-.7-1.2-1.4-1.5-2.3-.2-.3-.3-.8-.2-1.2 0-.4.2-.8.4-1.2l.3-.4c-.6-.5-1.2-.8-1.9-.4-.8.4-.7 1.4-1.2 2.1-.2.3-.5.5-.8.4-.6-.2-1.3-.5-1.7 0-.3.4-.4.9-.5 1.3.4.8 1 1.4 1.4 2l.8.9.3.4.1.2c.2-.3.4-.5.7-.6.6-.3 1.2.5 1.9.7.4.2.6-.5.9-.9.3-.4.9-.3 1.2 0l1.5 1.7v-.3a7 7 0 0 0-1.7-2.4Zm.3-10.5a7.6 7.6 0 0 0-2.1-3.7l-.5.2c-1.1.1-1.3-1.4-2.2-2-.6-.3-.9.5-1.2.9-.2.2-.5.5-.8.6l.7.7c.6.5 1.3 1.2 1.7 2l.3.6.6.4c.6.6.3 1.4.8 2h.5l1-.7c.5 0 1 .2 1 .6V25c.4-1 .4-2 .2-3Zm0 0"/>
  <path fill="#367d5f" d="M38.7 14.9a2 2 0 0 1 .5-2c.5-.6 1-1 1.4-1.7l.4-.5c-.3-.2-.6-.5-1-.6a1 1 0 0 0-.8.4c-.8 1-2 2.2-3.2 1-.7 0-1.3.5-1.8 1.2a3 3 0 0 0-.1 2c.2.8.7 1.5 1.2 2l1.3 1.3c.3 0 .6-.4.8-.6.3-.4.6-1.2 1.2-.9.9.6 1 2 2.2 2l.5-.2-1.3-1.2a4.8 4.8 0 0 1-1.3-2.2Zm0 0"/>
  <path fill="#59ba92" d="M36.4 49.9c2.7-2 2.7-3 2.3-6.6-.4-3 3.2-4 3-6.7 0-1.8-.9-3.2-2.2-5-1-1.6-1.4-2.7-.3-4.4 3-5 1.6-6.8-2.6-11.8-2.4-2.9 3-4.1 3.3-7.7 0 2.5-2.5 4.1-3 5.3-1.4 3 3.2 4.1 4.1 8.1 1.2 5.2-3.5 6.3-1 10 3.8 5.5 2 7 0 9.7-2 2.7 0 3.7-.5 6.3-.5 2.1-3 2.8-3 2.8Zm0 0"/>
  <path fill="#439975" d="m30.2 25.3.3.3c1.3.5 3 .4 3.6 2 .3.6.5 1.3.5 2l.2-1.7c0-1-.1-1.8-.5-2.5a6 6 0 0 0-1.5-1.9l-1.4-1.4-.3-.5c-.2 0-.4-.3-.5-.5-.3-.7.2-1.5-.1-2.2-.1-.3-.6-.5-1-.6-.3 0-.4-.3-.4-.6-.1-.7.2-1.7.3-2.6l-.2.7-1 2.3-.7 1.2-.5 1.3v.2c0 .7.2 1.3.5 2 .4.7 1.3.3 2 .7.6.4.3 1.2.7 1.8ZM35 39.8c.1.5.9.6 1.3 1l.2.3v-.4c.2-.8.3-1.7.2-2.5 0-.7-.3-1.5-.7-2L34.8 35a2 2 0 0 1-.9 0c-.8-.4-1.1-1.2-1.6-2-.2-.5-.8-.6-1.4-.6-.8 0-.4-1-.2-1.6 0-.6 0-1-.3-1.5v.2l-.2.2v.1l-.3.5-.4.8c-.6 1-1.4 2.2-1.3 3.6 0 1.2.6 2.2 1.3 3 1 .4 2 .3 3.1 0 1.2-.3 2 1 2.4 2Zm1.2 4.5c-.8-.5-1.7 0-2.3-.5l-.7-.7c0 .7.4 1.5 1 2l.9.9a6.2 6.2 0 0 1 .5.5v.1l.2.2v.3l.1.1c.2 1.6-.4 2.6-.4 2.6-.2.3.2.3.3.3.2 0 .3-.2.5-.3l.5-.7.7-1.2.2-.7-.8-1.9c-.1-.4-.4-.8-.7-1Zm0 0"/>
  <path fill="#59ba92" d="M37.8 44c-.2-.7-.7-1-1-1.3l-.1-.1-.1-.2-.1-.5v-.8l-.2-.3c-.4-.4-1.1-.5-1.3-1-.4-1-1.1-2.3-2.4-2-1 .3-2 .4-3.1 0l1.5.9 1.6.5h.1l.2.1.2.1.2.2v.1l.2.2v.2c0-.1 0 0 0 0v.9c-.1.4-.3.9-.3 1.4v.7l.7.7c.6.4 1.5 0 2.3.5.3.2.6.6.7 1l.8 1.9a5 5 0 0 0 .1-3.3Zm-9.3-18.4.9.6a6.6 6.6 0 0 1 .4.4h.1l.2.2.2.2v.2l.2.1v.1l.2.4v.9l-.3.7c.3.4.4 1 .3 1.5-.2.6-.6 1.5.2 1.6.6 0 1.2.1 1.4.6.5.8.8 1.6 1.6 2h1l-.4-.2-.6-.4a1.8 1.8 0 0 1-.3-.3c0 .1 0 0 0 0V34l-.1-.1v-.7l.2-.6 1-3.2-.6-2c-.7-1.5-2.3-1.4-3.6-2l-.3-.2c-.3-.6 0-1.4-.7-1.8-.7-.4-1.6 0-2-.8a5 5 0 0 1-.6-1.9c-.2 1-.1 1.9.1 2.8a4 4 0 0 0 1.5 2Zm.9-12.4v2c0 .8-.4 1.8-.3 2.5 0 .3.1.6.4.7.4 0 .9.2 1 .5.3.8-.2 1.5.1 2.2.1.3.3.4.5.5a3 3 0 0 1-.3-1.5c0-1 .4-1.7.5-2.6a7 7 0 0 0-.2-2.5c-.4-1.6-1-3-2-4.3a5 5 0 0 0-1-1c-.1 0-.2 0-.1.2a7 7 0 0 1 1.4 3.3ZM33.5 34Zm0 0"/>
  <path fill="#256147" d="M36.5 49c0-2 .5-2.6-1.2-5-1.6-2.1 0-3.4-1-5.3-1-2-1.2-1.7-2.6-3-1-1-.6-2.5 0-4 2-4.4.5-5.3-2.2-7.5-2.4-2 1-4.5.5-7.5.4 1.8-.4 3.4-.8 4.4-.7 2.5 1.7 2.8 3.5 5.5 2.3 3.4-3.4 7-.2 8.9 2 1.3 3.4 2.9 2.9 5.1-.5 1.9-.3 2 .8 3.7 1 1.8.3 4.6.3 4.6Zm0 0"/>
  <path fill="#439975" d="M44.5 43.9v-.6c.4-.8.7-2.1-.3-2.4-1.2-.3-2.3-1-2.3-2.3v-1.5c-.3.2-.5.5-.7.9-.3.5-.4 1-.5 1.6 0 1.2.5 2.3.9 3.3 0 .3.2.5.3.8a6.6 6.6 0 0 1 .3 1.2V46l-.1.2a5 5 0 0 1-.2.6v.1h-.1c-.7 1.3-2 2.2-2.6 2.4-.8.4-.7.7-.5.6a10.6 10.6 0 0 0 7-4.7c-.3-.5-.8-.8-1.2-1.3Zm0 0"/>
  <path fill="#367d5f" d="M45.7 39.4v-.2l.1-.3v-.1l.1-.1.7-1c0-.2 0-.4-.2-.6-.2-.3-.7-.3-1-.6-.5-.5-.3-1.4-.2-2.1l-.1.2-.1.1c-.8.8-1.8 1.3-2.6 2a6 6 0 0 0-.5.4v1.5c0 1.3 1 2 2.3 2.3 1 .3.7 1.6.4 2.4-.1.2-.2.4 0 .6l1.1 1.3c.3-.5.5-1 .5-1.6v-1.4l-.2-.6v-.2h-.1v-.5l-.2-.6v-.9Zm0 0"/>
  <path fill="#439975" d="M48.7 33.7c-.3-.5-1-.7-1.2-1.2-.3-1 .2-1.9-.4-2.7-.4-.5-1-.6-1.6-.9a2 2 0 0 1-.8-.6v.2l.5 1.7.4 1.6v.8a4 4 0 0 1 0 .9v.3l-.1.2-.1.1-.2.2c-.1.8-.3 1.6.3 2.2.2.3.7.3.9.6l.2.6 1.6-1.7.8-1.3-.3-1Zm0 0"/>
  <path fill="#367d5f" d="M49.3 29.3 49 28c-.3 0-.6-.2-.8-.4-.6-.4-.6-1.1-.7-1.8l-.4-.4c-.6-.2-1.1-.7-1-1.2l-.6.7c-.6 1-.8 2.3-.7 3.4.2.3.5.5.8.6.5.3 1.2.4 1.6.9.6.8 0 1.8.4 2.7.2.5 1 .7 1.2 1.2l.3 1 .2-.2a6 6 0 0 0 .5-1.9c.1-1.1 0-2.2-.4-3.3Zm0 0"/>
  <path fill="#439975" d="M50.7 22.4c-1 .1-2.1.5-3 .8a5 5 0 0 0-1.7 1c0 .5.4 1 1 1.2.2 0 .4.3.4.5.2.6 0 1.3.7 1.7l.8.4-.2-.4a6 6 0 0 1-.4-1.9c0-.5.1-1 .4-1.5a4 4 0 0 1 1.2-1.1l1-.6s.2-.1-.2-.1Zm0 0"/>
  <path fill="#59ba92" d="M39.2 49.3c2.3-.8 4.6-2.7 3.8-7.7-.7-4.2 3.6-4.6 4.2-8.6.5-3.5-2-5 0-8 0 0-.8 1.6-.3 3 1 2.7 2 5-1.4 9-3 3.7-1.6 4-1.6 7.5 0 3.6-4.7 4.8-4.7 4.8Zm0 0"/>
  <path fill="#367d5f" d="M23.2 34.5c.6.2 1.3-.2 2 0 1.2.1 1.7 1.1 2.2 2.1l.4.3c.8 0 1.7-.4 2.4.3v-1c-.1-.5-.4-1-.8-1.3a8.5 8.5 0 0 0-2.8-1.6 25.3 25.3 0 0 1-1.9-1l-.1-.1-.2-.1a2.7 2.7 0 0 1-.4-.5v-.1a5.2 5.2 0 0 1-.3-.5v-.1c-.4-1.2.2-2.5.4-2.9.3-.7.1-.8 0-.7a7.6 7.6 0 0 0-2.4 6.1c.3.5.8.9 1.5 1.1Zm0 0"/>
  <path fill="#256147" d="M28.2 41c.6.3.7 1 1.3 1.4.4.2.9 0 1.3-.1l-.2-.1-.2-.2h-.1l-.5-.6v-.1l-.2-.2V41l-.1-.4v-.2c0-1 .4-1.8.6-2.7l.1-.3c-.7-.8-1.6-.3-2.4-.4a.6.6 0 0 1-.3-.3c-.6-1-1-2-2.3-2.2-.7-.1-1.4.3-2 .1a3 3 0 0 1-1.5-1c0 .6.2 1.3.7 1.8l1 .8.6.3.2.1.1.1.3.2c.2 0 .4.2.5.3l.3.2.1.1.2.2.1.1v.1l.2.3v.1c.3 1 .1 2 .1 3 .8.4 1.3-.6 2.1-.2Zm6 5.4c-1.2-.5-2.5-.2-3.8-.1l1 .4 1.6 1c.3.3.6.7.6 1.1.1.5 0 1-.2 1.4l-.3.9s-.1.2.2 0a10.6 10.6 0 0 0 2.3-3c-.3-.7-.7-1.4-1.4-1.7Zm0 0"/>
  <path fill="#367d5f" d="M35.7 46.6c-.1-1-.9-1.9-1.9-2.6l-1.5-.8-1.4-.8-.1-.1c-.4.2-.9.3-1.3 0-.6-.3-.7-1-1.3-1.3-.8-.4-1.3.6-2.1.3 0 .4 0 .8.2 1.3s.5 1 .9 1.4c.6.9 1.5 1.5 2.5 2l.7.3c1.3 0 2.6-.4 3.8.1.7.3 1.1 1 1.4 1.6.1-.4.2-.9.1-1.4Zm0 0"/>
  <path fill="#59ba92" d="M33.6 50.8c1-3 .5-4.4-3.2-6.2-4.8-2.3-.9-7-3.9-8.8-2.4-1.4-3.4-1-3.7-4 0 0 .2 1.8 1.7 2.6 2.4 1.2 4.4 1 3.8 5.6-.5 3.7 2 3.8 4.4 5.4 3.3 2.1.9 5.4.9 5.4Zm0 0"/>
  <g clip-path="url(#d)">
    <path fill="#6b6866" d="M26.4 53c.2 1 1.5 1.1 2.5 1.2h3.9c1.3 0 2.7-.5 3.2-1.6.2-.4.3-.8.3-1.3a3 3 0 0 0-.9-2c-.7-.7-2-.7-3-.8a5 5 0 0 0-2.6.5l-.4.3-.4.3-1 1h-.1l-.2.1a7.3 7.3 0 0 0-.8.7c-.4.5-.7 1-.5 1.5Zm5.2-2Zm-4.1 1.6Zm0 0"/>
  </g>
  <path fill="#827f7a" d="m32.7 51.4-1-.3.8.1-1-.3c-.6 0-1.3 0-1.8-.4-.2-.2-.8 0-.8-.4l.1-.5.4-.3.4-.3-.2.2c-.2.2 0 .5.3.6.6.1 1.3-.1 1.7.2.5.4 1.1.4 1.7.6.3.1.5.4.3.6a1 1 0 0 1-.9.2Zm0 0"/>
  <path fill="#ada9a3" d="M34.8 52.4c-.8.3-1.6.8-2.5.7-.6 0-1-.4-1.6-.5-1-.1-2 .5-3 0-.6-.3-.8-1-.2-1.4l.2-.2c.8-.3 1.8 0 2.6.2h1l.3-.1c.4 0 .7.2 1.1.3.3.1.7 0 .9-.2.2-.2 0-.5-.3-.6-.6-.2-1.2-.2-1.7-.6-.4-.3-1.1 0-1.7-.2-.3 0-.5-.4-.3-.6l.2-.2a5 5 0 0 1 2.6-.5c1 0 2.3 0 3 .8l.6.8c.1.9-.2 2-1.2 2.3Zm0 0"/>
  <path fill="#827f7a" d="M27 52.6c.1.4.5.7 1 .7l1.4.1c1.4.4 2.7.1 4 0 1 0 1.8-.6 2.5-1.2.2-.3.4-.5.4-.8A3 3 0 0 0 36 50c.1.9-.2 2-1.2 2.3-.8.3-1.6.8-2.5.7-.6 0-1-.4-1.6-.5-1-.1-2 .5-3 0-.6-.3-.8-1-.2-1.4l.2-.2-.4.2c-.4.3-.6 1-.4 1.4Zm.5 0Zm0 0"/>
  <g clip-path="url(#e)">
    <path fill="#6b6866" d="m26.9 51.4.5-.4.3-.2.1-.2h.2l1-1v.5c0 .3.5.3.7.4.5.4 1.2.4 1.8.4l1 .3c-.4 0-.8-.2-1.1 0h-1.1c-1-.2-2.1-.6-3 0-.4.3-.6 1-.4 1.4.2.4.6.7 1.1.8h1.4c1.4.4 2.7.1 4 0 1 0 1.8-.6 2.5-1.2.2-.3.4-.5.4-.8 0 .4 0 .8-.3 1.2-.5 1-2 1.6-3.2 1.6h-3.9c-1 0-2.3-.3-2.5-1.3-.2-.5 0-1 .5-1.5Zm0 0"/>
  </g>
  <g clip-path="url(#f)">
    <path fill="#6b6866" d="M46 51.6a3.5 3.5 0 0 0-.6-.6l-.2-.2H45l-1-1a5.5 5.5 0 0 0-.6-.5c-.7-.4-1.5-.4-2.3-.4-1 0-2 0-2.7.8a2.8 2.8 0 0 0-.8 1.8c0 .4 0 .8.3 1.1.4 1 1.7 1.5 2.8 1.5h3.5c.8 0 2-.3 2.2-1.2.1-.5 0-1-.4-1.3Zm-4.1-.3Zm3.6 1.3Zm0 0"/>
  </g>
  <path fill="#827f7a" d="m40.9 51.6 1-.3H41l.9-.2c.5 0 1 0 1.5-.4.2-.1.7 0 .7-.4V50a8.4 8.4 0 0 0-.7-.6l.1.2c.2.3 0 .5-.2.6-.5.1-1.2-.1-1.5.2-.5.4-1 .3-1.5.5-.3.1-.4.4-.3.6.2.2.5.2.8.2Zm0 0"/>
  <path fill="#ada9a3" d="M39 52.4c.7.3 1.4.8 2.3.7.5 0 .9-.4 1.4-.5.9 0 1.7.5 2.6 0 .5-.2.7-.8.2-1.3l-.2-.1c-.7-.3-1.5 0-2.3.2l-1-.1c-.4 0-.7.2-1 .3-.3 0-.6 0-.8-.2-.1-.2 0-.5.3-.6.5-.2 1-.1 1.5-.5.3-.3 1 0 1.5-.2.2-.1.4-.3.2-.6l-.1-.2c-.7-.4-1.5-.4-2.3-.4-1 0-2 0-2.7.8l-.5.7c-.1.8.2 1.7 1 2Zm0 0"/>
  <path fill="#827f7a" d="m45.7 51.4-.4-.2.2.1c.5.5.3 1-.2 1.4-.9.4-1.7-.2-2.6 0-.5 0-1 .4-1.5.4-.8 0-1.5-.4-2.2-.7-.8-.3-1.1-1.2-1-2a2 2 0 0 0-.3 1.1c0 .3.2.5.4.8.6.5 1.2 1.1 2.1 1.1 1.2 0 2.4.3 3.6 0h1.3c.4-.1.7-.4 1-.8.1-.4 0-1-.4-1.2Zm-.2 1.2Zm0 0"/>
  <g clip-path="url(#g)">
    <path fill="#6b6866" d="M46 51.6a3.7 3.7 0 0 0-.6-.6l-.2-.2H45l-1-1 .1.5c0 .4-.5.3-.7.4-.4.4-1 .4-1.5.4l-.9.3c.4 0 .6-.2 1-.1.3 0 .6.2 1 .1.8-.2 1.8-.6 2.6 0 .4.2.5.8.3 1.2-.1.4-.5.6-1 .7h-1.2c-1.2.4-2.4.2-3.6.1-.8 0-1.5-.6-2-1.1-.3-.3-.5-.5-.5-.8 0 .4 0 .8.3 1.1.4 1 1.7 1.5 2.8 1.5h3.5c.8 0 2-.3 2.2-1.2.1-.5 0-1-.4-1.3Zm0 0"/>
  </g>
  <g clip-path="url(#h)">
    <path fill="#6b6866" d="M40.2 51c-.5-.6-1.3-1-2-1.2l-2.3-.4a4 4 0 0 0-2.1.6c-.7.4-1.1 1-1.5 1.5-.3.6-.6 1.3-.3 2 .3.5.9.8 1.5.9l1.1.1 1.4.2 2.8-.1c.8-.1 1.4-.2 2-1 .4-.5.3-1.1 0-1.6 0-.4-.3-.7-.6-1Zm0 0"/>
  </g>
  <path fill="#827f7a" d="m40.9 52-.7-1-.3-.3c.2.4.3.8.1 1.1-.2.5-.9.7-1.5.6-.7 0-1.3-.3-2-.2-.5.1-1.1.2-1.4-.2-.2-.3-.3-.8-.3-1.2-.1-.4.3-.6.7-.9l1.5-.4a8 8 0 0 0-1 0h-.4c-.3 0-.7 0-1 .2-.6.2-1.1.6-1.2 1.2l-.3 1.7c0 .3.1.5.3.6 1 .6 2.2.4 3.4.2 1.4-.2 3.4.6 4-.8l.1-.6Zm0 0"/>
  <path fill="#ada9a3" d="M34.8 50.8c0 .4 0 .9.3 1.2.3.4 1 .3 1.4.2.7-.1 1.3.2 2 .2.6.1 1.3-.1 1.5-.6.2-.3.1-.7 0-1-.6-.5-1.2-.8-1.8-1a8 8 0 0 0-1.2-.3 3 3 0 0 0-1.5.4c-.4.3-.8.5-.7 1Zm0 0"/>
  <g clip-path="url(#i)">
    <path fill="#6b6866" d="M40.9 52v.6c-.7 1.4-2.7.6-4 .8-1.3.2-2.4.4-3.5-.2-.2-.1-.4-.3-.3-.6l.3-1.7c0-.6.6-1 1.1-1.2l1.1-.3a3.7 3.7 0 0 0-3.3 2.1c-.3.6-.6 1.3-.3 2 .3.5.9.8 1.5.9l1.1.1a52.2 52.2 0 0 0 4.2.1c.8-.1 1.4-.2 2-1 .4-.4.3-1 .1-1.6Zm0 0"/>
  </g>
  <g clip-path="url(#j)">
    <path fill="#6b6866" d="M47.5 52.4a2 2 0 0 0-1-.6 4 4 0 0 0-1.1-.1 2 2 0 0 0-1 .2 2 2 0 0 0-.8.8c-.1.3-.3.6-.1 1 0 .2.4.3.7.4h.5a19 19 0 0 0 2 .1c.4 0 .8-.1 1-.5.3-.2.2-.5.1-.8 0-.2-.2-.3-.3-.5Zm0 0"/>
  </g>
  <path fill="#827f7a" d="M47.8 53c0-.3-.2-.4-.3-.6l-.2-.1c.1.2.2.3 0 .5 0 .3-.4.4-.7.3h-1c-.2 0-.5 0-.6-.2l-.2-.6c0-.2.2-.3.4-.4l.7-.2h-1.2c-.3.2-.5.4-.6.7l-.1.8c0 .1 0 .3.2.3.5.3 1 .2 1.6.1.7 0 1.7.3 2-.4v-.3Zm0 0"/>
  <path fill="#ada9a3" d="M44.8 52.3c0 .3 0 .5.2.6.1.2.4.2.7.1l1 .1c.2 0 .6 0 .7-.3v-.5l-1-.5H46l-.7.1c-.2.1-.4.2-.4.4Zm0 0"/>
  <g clip-path="url(#k)">
    <path fill="#6b6866" d="M47.8 53v.2c-.3.7-1.3.3-2 .4-.6.1-1.1.2-1.6 0-.2-.1-.2-.2-.2-.4l.1-.8c0-.3.3-.5.6-.6l.5-.1c-.3 0-.6 0-.9.2a2 2 0 0 0-.7.8c-.1.3-.3.6-.1 1 0 .2.4.3.7.4h.5a19 19 0 0 0 2 .1c.4 0 .8-.1 1-.5.2-.2.2-.5.1-.8Zm0 0"/>
  </g>
  <path fill="#918e89" d="M35.7 49.4a3 3 0 0 0-1.5-.9 6 6 0 0 0-1.6-.3c-.6 0-1.2.2-1.6.4a3 3 0 0 0-1 1.2c-.3.4-.5 1-.3 1.4.2.4.6.6 1 .7h.9l1 .2h2c.6-.1 1-.2 1.5-.8.3-.3.3-.8.1-1.2l-.5-.7Zm0 0"/>
  <path fill="#aba7a0" d="m36.2 50.1-.5-.7-.2-.2c.1.2.2.5 0 .8-.1.3-.6.5-1 .5-.5-.1-1-.3-1.5-.2-.4 0-.8.2-1-.2-.2-.2-.3-.5-.3-.8 0-.3.3-.5.5-.7.4-.2.7-.3 1.1-.3h-1l-.8.1c-.4.2-.8.5-.8.9l-.2 1.3c0 .2 0 .3.2.4.8.5 1.6.3 2.5.2 1-.2 2.5.4 3-.7v-.4Zm0 0"/>
  <path fill="#c9c5be" d="M31.7 49.3c0 .3 0 .6.3.9.2.3.6.2 1 .1.5-.1 1 0 1.5.2.4 0 .9-.2 1-.5.2-.3.1-.6 0-.8l-1.3-.7-.9-.2a2 2 0 0 0-1 .3c-.3.2-.7.4-.6.7Zm0 0"/>
  <path fill="#918e89" d="M36.2 50.1v.4c-.5 1.1-2 .5-3 .7-.8 0-1.7.3-2.5-.2-.1 0-.3-.2-.2-.4l.2-1.3c0-.4.4-.7.8-.9l.9-.2c-.5 0-1 .2-1.4.4a3 3 0 0 0-1 1.2c-.3.4-.5 1-.3 1.4.2.4.6.6 1.1.7h.8l1 .2h2c.6-.1 1-.2 1.5-.8.3-.3.3-.8.1-1.2Zm0 0"/>
  <g clip-path="url(#l)">
    <path fill="#918e89" d="M37.7 52.8c-.2-.3-.5-.4-.9-.5L36 52a2 2 0 0 0-1 .3 1 1 0 0 0-.5.6c-.2.2-.3.5-.2.7l.7.4h.4a9.5 9.5 0 0 0 1.8 0c.3 0 .6 0 .9-.3V53a1 1 0 0 0-.3-.3Zm0 0"/>
  </g>
  <path fill="#aba7a0" d="M38 53.1a1 1 0 0 0-.3-.3l-.1-.2v.5c0 .2-.4.3-.6.2h-1l-.6-.1-.1-.5c0-.2.2-.3.3-.4l.6-.1h-1l-.5.5-.1.7.1.2c.5.3 1 .2 1.5.1.5 0 1.4.2 1.7-.3V53Zm0 0"/>
  <path fill="#c9c5be" d="M35.4 52.7c0 .1 0 .3.2.5h.5l.9.1c.2 0 .5 0 .6-.2v-.5l-.8-.3-.5-.1-.6.1c-.1.1-.3.2-.3.4Zm0 0"/>
  <g clip-path="url(#m)">
    <path fill="#918e89" d="M38 53.1v.3c-.3.5-1.2.2-1.7.3-.5 0-1 .2-1.5 0l-.1-.3.1-.7c0-.2.3-.4.5-.5h.5c-.3 0-.6 0-.8.2-.3.1-.5.3-.6.6-.2.2-.3.5-.2.7.1.2.4.3.7.4h.4a9.3 9.3 0 0 0 1.8 0c.3 0 .6 0 .9-.3V53Zm0 0"/>
  </g>
  <path fill="#72c786" d="M32.3 21.6Zm.1 1.4Zm-5.2 27.2Zm4.7-12.5Zm-3.4 11.8h-.7l-.2.2h-.1l-.1.1-.1.2-.1.2-.1.1-.1.4s0 .1 0 0v.1c-.5 2.4-.2 2.9-.3 2.9h-.1l-.4-.8-.2-1v-1c.1-.6.2-1.2 0-1.8v-.2c0-.6-.4-1-.5-1.7V46a4 4 0 0 1 1.9-2.4c.4-.2 1-.3 1.5-.3H30l.2-.1.3-.2.2-.1v-1c-.2-.8-.5-1.6-.3-2.5.2-.7.8-1.2 1.4-1.6h.1v-.1h.1c.5-.3.4-1 .1-1.4-.5-.5-1.8-1-2-2.8 0-1.3.4-1.8.6-2.6v-.4l.1-.6v-.6l-.1-.2-.1-.1-.2-.2-.4-.4-.8-.8c-.5-.5-1-1.2-1.1-2a3 3 0 0 1 .3-2.3l1.3-1.4c.2 0 .3-.2.4-.3l.1-.2.1-.1v-.1l.1-.1V21l.2-.3v-.2l-.2-.3-.3-1.1c-.1-.8-.1-1.6.2-2.3.4-.8 1-1.3 1.9-1.4h1.5s.2 0 0 0h.2l.2-.1.2-.2V15l.1-.3v-.5l.2-1V13c.2-1 .5-1.8 1.3-2.3 1.4-.8 3 .3 3.3 1.7.2.7.1 1.4-.2 2a2.6 2.6 0 0 1-1.5 1.3l-.3.2-.5.3-.2.1h-.1l-.3.3a1 1 0 0 1-.1 0v.2h-.1v.2l-.2.4c.2.7.4 1.4.2 2.2-.2.8-1 1.6-1.8 1.7H33l-.2.2-.1.2-.1.1v.1l-.1.2v.8l.2.3.1.3c.6.8 1.4 1.6 1.4 2.7 0 .7-.4 1.4-.8 2l-.2.5v.2l-.2.2v.4l.2.4.2.4.4.3 1 .5.8.8c.6.6 1 1.5.7 2.3a3 3 0 0 1-.7 1v.1l-.1.1-.2.3-.2.4v.9l.1.3.2.2.5.7.8 1.5c.3.9.2 1.8-.4 2.5a3 3 0 0 1-1.3.8l-1.6.2-.4.4-.4.5v1.3l.1.7c.2 1.1.2 2.3-.6 3.2-.7.8-1.9.9-2.5.6-.3 0-.6-.2-.8-.3h-.2ZM27 50.8Zm0 0"/>
  <path fill="#51b06b" d="M37 13.5c-2.1 4.8-5.5 5.7-5.7 10.6 0 4.4 1 5.5 2.4 9.8 1.9 5.5-1.4 10-4.3 12.8-4.3 4.1-2.7 7-2.7 7s-2-3.1 2.1-7.7c3.3-3.7 6.1-6.3 3.7-13.1-2-5.5-2.8-10.2 0-13.6 2.4-3 2.4-2.3 4.5-5.8Zm0 0"/>
  <path fill="#918e89" d="M19.9 46.7Zm8.7 3.3-.5-.8-.5-.6h-.2c-.2-.3-.5-.4-.8-.5l-.5-.2-.3-.2a2 2 0 0 0-.6-.7c-.6-.5-1.6-.7-2.6-.6l-2.7.3h-1.5c-.6 0-1.3 0-1.8.2-.5.3-.7.6-1 1l-.1.4v.1l-.1.2H15l-.2.1h-.1l-.2.1h-.1l-1 .3c-.5.2-1 .4-1.4.8a4 4 0 0 0-.5 1.3c0 .2 0 .5.2.7.2.2.5.4.9.5.8.3 1.7.4 2.6.4H24l3.3-.4c.7-.2 1.3-.5 1.4-1 .2-.5.1-1-.1-1.4Zm-15.4.3Zm10.6.8Zm-3.9-4.4ZM17.4 51v.2-.2Zm0 0"/>
  <path fill="#c9c5be" d="M28.1 49.2a2.7 2.7 0 0 0-.7-.7l-.8-.4-.5-.2-.3-.2-.1-.2c.2 1-2 .9-3 1.3-.4.2-.6.5-1 .6-1.2.3-2.5.1-3.6.6l-.3.2c-.4.2-.3.5-.4.8.2-.4 1-.6 1.6-.8l2-.1 1.5-.3c.3-.2.5-.5 1-.5l2.2-.5c.9-.3 1.8 0 2.4.5l.2.2-.2-.3Zm0 0"/>
  <path fill="#918e89" d="m28.6 50-.1.6c-.5.9-1.7 1.4-3 1.6-1.4.1-2.6-.4-4-.2l-1.4.1c-1 .5-2.3.3-3.4 0a5 5 0 0 0-1.6 0c-1.4.2-3.5-.2-3.4-1.3v.4c-.1.2 0 .5.1.7.2.2.5.4.9.5.8.3 1.7.4 2.6.4h2.6a56.1 56.1 0 0 1 2.6 0H24l3.3-.4c.7-.2 1.3-.5 1.4-1 .2-.4.1-.9-.1-1.3ZM16 49c.8 0 1.7.2 2.3.4-.5-.4-1.5-.4-2.2-.7a1 1 0 0 1-.6-.5v.2l-.1.1h-.1l-.2.1-.2.1h-.1l-.2.1h-.1l-1 .3H16Zm0 0"/>
  <path fill="#c9c5be" d="M16.3 48c.8.5 2 .3 3.1.2.7 0 1.2 0 1.9.2 1.3.2 2.5-.1 3.5-.7.4-.2.5-.5.3-.8l-.4-.2a5 5 0 0 0-2-.3c-1 0-1.9.2-2.8.3h-1.5c-.6 0-1.3 0-1.8.2-.4.4-.6.7-.3 1Zm0 0"/>
  <path fill="#aba7a0" d="m28.6 50-.3-.5-.2-.2c-.6-.4-1.5-.8-2.4-.5l-2.3.5c-.4 0-.5.3-1 .5-.4.2-1 .3-1.5.3l-1.9.1c-.6.2-1.4.4-1.6.9.1-.4 0-.7.4-1h.3c1.1-.5 2.4-.4 3.6-.7.4-.1.6-.4 1-.6 1-.4 3.2-.4 3-1.3a2 2 0 0 0-.5-.5c0 .2 0 .5-.4.8-1 .5-2.2.8-3.5.6l-1.9-.2c-1 .1-2.3.4-3-.3-.4-.3-.2-.6.1-1-.4.3-.6.6-.8 1l-.2.4.6.4c.7.3 1.7.3 2.2.8-.6-.3-1.5-.4-2.2-.4h-2.6l-1 .5-.4.3v.2l-.2.2v.2l-.2.3c0 1 2 1.5 3.4 1.4a5 5 0 0 1 1.6 0c1.2.2 2.3.4 3.5 0 .4-.2 1-.2 1.4-.2 1.3-.2 2.5.3 3.9.2 1.3-.2 2.5-.7 3-1.6l.1-.5V50Zm-16.7.5Zm1.3-.2Zm10.6.8Zm0 0"/>
  <path fill="#3a875a" d="M26.7 7.6Zm2.6 30.1-1-.8-1-.5-1-.3a2 2 0 0 1-1-.5 1.5 1.5 0 0 1-.3-.7v-.5l.3-.3h.2l.5-.2 1.1-.5c.6-.5 1-1.3 1-2 0-1-.3-1.7-.7-2.4l-.4-1v-.1l-.1-.1v-.4l.1-.2.2-.2.5-.4.8-.8a3 3 0 0 0 .9-2c0-.7-.2-1.7-.8-2.2-.5-.5-1-.6-1.7-.9l-.7-.4c-.3-.4-.3-1 0-1.5.2-.6.6-1.1.8-1.8v-.8c0-.3 0-.5-.2-.7-.3-1-1.3-1.3-2.1-1.6l-.1-.1h-.1v-.1l-.1-.2v-.1h.1v-.1h.1l.8-.6c.5-.4.8-1 1-1.6a3 3 0 0 0 0-1.9l-.1-.4v-.3l-.1-.1V8l.1-.1.3-.3.2-.1.3-.2c.5-.3 1-.7 1.2-1.2.3-.4.4-.9.4-1.4.1-1-.4-1.9-1.3-2.4-.8-.5-1.9-.7-2.7-.1-.6.4-.9 1-1 1.8v.5c0 .5.1 1 0 1.6 0 .6-.4 1-1 1l-1 .1c-.5 0-1 .3-1.4.8-.5.8-.6 1.8-.3 2.7v.1l.4 1c.3.6.8 1.2.7 1.9l-.3.9-.1.2-.2.2-.5 1.1a3 3 0 0 0 1 2.3c.5.5 1.2.8 2 1l.2.4v.6c0 .4-.1.6-.3 1l-.6.5-.7 1 .1 1.2c.3.7 1 1.1 1.4 1.6l.7.7.4.8v.4l-.2.2-.2.2-.3.2-1.8 1a3 3 0 0 0-1.4 1.5c-.7 1.7.8 3 2.2 3.8l.3.6c.2.8-.4 1.5-.8 2.1-.5.7-.9 1.5-.6 2.4.2.6.5 1 .9 1.3.4.3.8.5 1.3.6l.6.2.4.2c.2.2.3.3.3.5v.5h-.2l-.1.1h-1.7c-.4 0-.8.2-1 .6a2 2 0 0 0-.6 1.4c0 1 .3 2 .9 2.7l.5.6v.4c.1.2.2.5.1.8v.5l-.7.8v.5h.5a8 8 0 0 0 1.9-1.3l.6-.5h.2l.2-.2h.4a3 3 0 0 0 2.8-2.5c.2-.5.3-1 .1-1.6-.1-.6-.5-1.2-.8-1.8v-.2l-.1-.1v-.2s0-.2 0 0v-.7l.1-.1s.1-.1 0-.1a3.2 3.2 0 0 1 .6-.5l.3-.2c.4-.2.6-.5.9-.8.6-1 .1-2-.5-2.8Zm0 0"/>
  <path fill="#51b06b" d="M26.2 4.7C23.5 8.3 20.8 12 24 19.3c2.8 6.4 1.1 8.6.3 11.5-2 6.6 3 8.8 1.6 13.9-1.4 4.9-3.2 6.2-3.2 6.2s4.7-3.7 4.2-8.3C26.3 37 23.6 37 25 31.2c1-3.6 1.8-6.8-.1-12.3-2-5.3-2.6-8 1.3-14.2Zm0 0"/>
  <path fill="#51b06b" d="m18.3 42.9-.1-.1-.2-.1-.4-.2-.8-.3a3 3 0 0 1-1.2-1.7v-2l.5-1.7c.2-.5.4-1 .4-1.5V35l-.3-.3-.3-.4v-.1l-.6-.8a3.7 3.7 0 0 1 0-3.3l.6-1.1.5-1 .2-.5v-.6l-.1-.1a3.2 3.2 0 0 0-.4-.3l-.1-.2-.7-.6c-.6-.5-1-1.2-1-2 0-.4.1-.8.3-1.1l.6-.7a1.1 1.1 0 0 0 .2-.6v-.2h-.1V21l-.1-.1H15l-1.7-.4a3.2 3.2 0 0 1-2-3.8l.3-.6c.2-.4.6-.7 1-.8a2 2 0 0 1 1 0c.8.1 1.4.7 1.8 1.4.5.8.7 1.6 1 2.5l.3.5h.1v.1l1 .4h.2l.3.2.3.1c.6.4 1 1 1.2 1.7.2.7.2 1.3 0 2l-.5.7a10.6 10.6 0 0 1-.3.5l-.2.4v.6a2.7 2.7 0 0 0 .2.4 1.9 1.9 0 0 0 .2.3l.3.3.7.6.5.7c.3.4.4.9.5 1.4.2 1.8-.8 3-1.8 4l-.7.8-.1.5v.2h.1l.2.1v.1l.4.3.7.5c.6.4 1 .9 1.1 1.6.2.7 0 1.3-.4 1.7l-.4.7a3.2 3.2 0 0 0-.3.4v.1l-.1.2v.7h.1v.2h.1l.2.1.3.1.6.2c.4 0 1 0 1.4.3l.2.3c.3.1.5.4.7.6.2.4.5.8.6 1.3.2 1 .1 1.8.2 2.7 0 .2.1.5.3.7l1 .8.2.2c.2 0 .2.2.2.3v.1c0 .2-.2.3-.4.2l-1.4-.8-1-.4-.7.2-1.3.1H21c-.3 0-.6-.2-.8-.3l-.2-.1-.4-.2-.7-.7-.1-.2c-.5-1-.6-2.1-.4-3.1V44a3.1 3.1 0 0 0 .1-.8V43l-.1-.2c0 .2 0 0-.1 0Zm0 0"/>
  <path fill="#3a875a" d="M13.4 17.1c4.2 4.3 4.4 8 4.5 13.8.1 9 1 14.1 7.6 19.3 0 0-3.9-2.4-5.3-4.5-3-4.6-3-8.5-2.9-14.6 0-6.5.2-9-4-14Zm0 0"/>
  <g clip-path="url(#n)">
    <path fill="#918e89" d="M32.5 52.3c-.1-.6-.5-1-.9-1.4l-1-.8c-.6-.3-1.1-.4-1.6-.4l-1.6-.1v-.1h-.2l-.2-.2-.3-.1-.6-.2-.6-.1-.3-.1-1.2-.3h-2.4l-1.3.2c-.5 0-1 0-1.4.2a5 5 0 0 0-1.1.7l-1.2.7-1 .5c-.4 0-.7 0-1 .2a1.6 1.6 0 0 0-1 1.5v.3l.2.5c.1.4.5.6.9.7l1 .1 1.8.1 2.3-.1c.7 0 1.4.1 2 .3l2.3.1a33.5 33.5 0 0 0 4.4-.3l1.6.1a3 3 0 0 0 1.7-.3c.5-.3.8-1 .7-1.7Zm0 0"/>
  </g>
  <path fill="#c9c5be" d="M25.2 49v-.2l-1.2-.3h-2.4l-1.3.2c-.5 0-1 0-1.4.2a5 5 0 0 0-1.1.7l-1.2.7-1 .5H15a1 1 0 0 0 0 1c.6.7 1.5.6 2.3.3 1-.3 1.6-1.3 2.5-1.5 1.2-.2 2.2-.1 3.3-.4.7-.1 2.4-.1 2-1.3Zm.8 2.4c.4 0 .7.3 1 .4.8.1 1.4-.3 2.1 0 .7.2 1.5.3 2.2 0 .3-.1.4-.5.3-1a5 5 0 0 0-1-.7l-.2-.1c-.9-.2-1.7-.4-2.5-.2s-1.3.8-2 .9l-2.3.5-.3.1c.9.6 1.8-.3 2.8 0Zm0 0"/>
  <path fill="#aba7a0" d="m32.2 51.5-.6-.6c0 .4 0 .8-.3 1-.7.2-1.5.1-2.2-.2-.7-.2-1.3.2-2 0-.4 0-.7-.2-1-.3-1-.3-2 .5-2.8 0l.3-.2-.4.1c.9-.5 1.8-.8 2.8-1 .3-.2.6-.7.4-1l-.1-.3H26l-.6-.1-.3-.1v.1c.4 1.2-1.3 1.2-2 1.3-1.1.3-2.1.2-3.3.4-1 .2-1.5 1.2-2.5 1.5-.7.3-1.7.4-2.2-.3-.3-.3-.3-.7 0-1l-.5.2c-.2 0-.4.2-.5.3l-.1.3c-.2 1 .7 1.5 1.4 1.5 1.3.2 2.6-.3 3.9-.7.3-.1.7-.2 1 0 2 .9 4.2 1.5 6.2.5 1.2-.6 2.4-.8 3.7 0 .5.3 1.3 0 1.8-.7v-.7Zm0 0"/>
  <path fill="#918e89" d="M27.4 49.6v-.1h-.2l-.2-.2-.3-.1-.5-.2.2.2c.2.4-.1 1-.4 1-1 .3-2 .6-2.9 1.1l2.8-.6c.7-.1 1.2-.7 2-.9.8-.2 1.6 0 2.5.2l-1.4-.3-1.6-.1Zm0 0"/>
  <g clip-path="url(#o)">
    <path fill="#918e89" d="m32.2 51.5-.1.7c-.5.7-1.3 1-1.8.7-1.3-.8-2.5-.6-3.7 0-2 1-4.3.3-6.2-.6h-1c-1.3.5-2.6 1-4 .8-.6 0-1.5-.5-1.3-1.5l.1-.3-.4.5-.1.7v.8c.2.4.6.6 1 .7l1 .1h4.1c.7 0 1.4.1 2 .3l2.3.1c.7 0 1.5 0 2.2-.2l2.2-.1 1.6.1a3 3 0 0 0 1.7-.3c.5-.3.8-1 .7-1.7 0-.3-.2-.6-.3-.8Zm0 0"/>
  </g>
  <g clip-path="url(#p)">
    <path fill="#75736f" d="M60 52.3c0-.7-.5-1.1-.9-1.5A5 5 0 0 0 58 50c-.5-.3-1-.4-1.6-.5h-1.5l-.1-.1-.2-.1-.2-.1-.3-.2-.6-.2a6 6 0 0 0-.6 0l-.3-.2-1.2-.2h-2.5l-1.4.1c-.4 0-.9 0-1.3.3-.5.1-.8.3-1.2.6l-1.2.8a4 4 0 0 1-1.1.5c-.3 0-.6 0-1 .2a1.7 1.7 0 0 0-1 1.6l.1.3v.5c.2.4.7.6 1 .7l1.1.2H47c.7 0 1.5 0 2.2.2a30.1 30.1 0 0 0 4.5 0l2.3-.2 1.5.1a3 3 0 0 0 1.8-.3c.5-.3.8-1 .7-1.8Zm0 0"/>
  </g>
  <path fill="#b3aea8" d="M52.6 48.8v-.2l-1.2-.2h-2.5l-1.4.1c-.4 0-.9 0-1.3.3-.5.1-.8.3-1.2.6l-1.2.8a4 4 0 0 1-1.1.5h-.4c-.2.3-.3.7 0 1 .5.8 1.5.7 2.3.4 1-.3 1.6-1.4 2.6-1.6l3.3-.4c.8-.1 2.5-.1 2.1-1.3Zm.9 2.5 1 .4c.7.1 1.4-.3 2 0a3 3 0 0 0 2.3 0c.3 0 .4-.5.3-1L58 50l-.2-.1c-.8-.2-1.7-.4-2.5-.2-.7.1-1.3.8-2 .9l-2.4.5-.3.2c1 .6 1.9-.3 2.9 0Zm0 0"/>
  <path fill="#8a8781" d="m59.7 51.4-.6-.6c0 .4 0 .8-.3 1-.7.3-1.5.2-2.2-.1-.7-.3-1.4.2-2.1 0-.4 0-.7-.3-1-.4-1-.3-2 .6-3 0l.4-.2-.4.1a9 9 0 0 1 2.9-1c.3-.2.6-.7.4-1.1l-.2-.2h-.1l-.6-.2h-.3c.4 1.3-1.4 1.3-2 1.4-1.2.3-2.3.2-3.4.4-1 .2-1.6 1.3-2.6 1.6-.8.3-1.8.4-2.3-.4-.3-.3-.2-.6 0-1l-.5.2c-.2 0-.3.2-.5.3v.4c-.3 1 .7 1.5 1.3 1.5a8 8 0 0 0 4-.8c.4 0 .8-.2 1 0 2 1 4.4 1.6 6.4.6 1.2-.6 2.5-.8 3.7 0 .6.3 1.5 0 1.9-.8v-.7Zm0 0"/>
  <path fill="#75736f" d="M54.9 49.4h-.1l-.2-.1-.2-.1-.3-.2-.5-.1.2.2c.2.4-.1.9-.4 1-1 .3-2 .6-3 1.1l2.9-.6c.7-.1 1.3-.8 2-1a4.8 4.8 0 0 0 1.1-.1H55Zm0 0"/>
  <g clip-path="url(#q)">
    <path fill="#75736f" d="m59.7 51.4-.1.7c-.5.8-1.3 1.1-1.9.8-1.2-.9-2.5-.6-3.7 0-2 1-4.3.3-6.3-.6-.4-.2-.7-.1-1 0-1.4.5-2.7 1-4 .8-.7 0-1.7-.5-1.5-1.6l.1-.3a1.6 1.6 0 0 0-.5 1.3v.8c.2.4.7.6 1 .7l1.1.2H47c.7 0 1.5 0 2.2.2l2.2.2 2.3-.2 2.3-.2 1.5.1a3 3 0 0 0 1.8-.3c.5-.3.8-1 .7-1.8a2 2 0 0 0-.3-.8Zm0 0"/>
  </g>
  <path d="M24.8 70H22l-1-3h-5.2l-1 3h-2.7l4.6-13.4h3.4Zm-6.5-10.6-1.7 5.3h3.6l-1.7-5.3Zm10.9 10.8c-1 0-1.6-.2-2-.7-.6-.5-.8-1.3-.8-2.3V55.8h2.5v11.3c0 .6.3 1 .8 1l.5-.1h.1l.2 2a2 2 0 0 1-.5.1l-.8.1Zm6.8 4.1a7 7 0 0 1-3.6-.7 2.3 2.3 0 0 1-1.2-2c0-.6.1-1 .5-1.4.3-.3.8-.5 1.5-.7v-.1l-.8-.7-.2-1c0-.7.5-1.3 1.6-1.6V66c-.6-.3-1-.7-1.3-1.1-.2-.5-.4-1-.4-1.7s.2-1.3.5-1.8.8-.9 1.4-1.2a5 5 0 0 1 2.1-.4 4 4 0 0 1 2 .4c.4-.4.5-1 .6-1.5l.2-.2 1.8.5c0 .5-.2.9-.4 1.2l-1 .9v.2c.5.5.8 1.2.8 2 0 .7-.2 1.3-.5 1.8s-.8.9-1.4 1.1c-.5.3-1.3.5-2 .5h-1l-.5.1c-.2.2-.2.3-.2.5s0 .4.2.5c.2.2.4.2.8.2l2.2.1c2.3 0 3.4 1 3.4 3 0 .6-.1 1.2-.5 1.7-.3.5-.9.9-1.6 1.2-.8.3-1.7.4-3 .4Zm.1-9.5c.5 0 .9-.1 1.2-.4.2-.3.4-.7.4-1.3 0-.5-.2-1-.4-1.2-.3-.3-.7-.4-1.2-.4s-.9.1-1.1.4c-.3.3-.4.7-.4 1.2 0 .6 0 1 .4 1.3.2.3.6.4 1.1.4Zm0 7.7c.9 0 1.5-.1 1.9-.4.4-.2.6-.6.6-1a1 1 0 0 0-.3-.7l-1-.2h-2l-.2-.1H35c-.5 0-.8 0-1 .3a1 1 0 0 0-.4.7c0 .5.2.8.6 1 .5.3 1 .4 1.9.4Zm9.2-2.3c-.6 0-1.2-.1-1.7-.3-.4-.3-.8-.6-1-1.1-.3-.5-.5-1-.5-1.7 0-.6.2-1 .4-1.5a4 4 0 0 1 1.2-1l2.1-.6c.7 0 1.1-.2 1.4-.3.3-.1.6-.2.7-.4l.1-.6c0-.3 0-.5-.3-.7-.2-.2-.6-.3-1.1-.3-.6 0-1.1.2-1.6.4a5 5 0 0 0-1.4 1h-.2l-1-1.6c.5-.6 1.1-1 1.9-1.3a6 6 0 0 1 2.4-.5c1.3 0 2.3.3 3 .8.5.6.8 1.4.8 2.5v4.4c0 .4.2.7.6.7l.5-.1.3 1.8a2 2 0 0 1-.6.2l-.8.1c-.6 0-1.1-.1-1.5-.3a2 2 0 0 1-.7-1.2h-.2c-.5 1-1.4 1.6-2.8 1.6Zm.8-1.9a2 2 0 0 0 1.5-.6c.3-.4.5-1 .5-1.6v-1l-.2-.1a2 2 0 0 1-.6.3 7 7 0 0 1-1 .3c-.6 0-1 .2-1.3.4-.2.3-.3.6-.3 1s.1.7.4 1c.2.2.6.3 1 .3Zm16-2.8h-6.5c0 1 .3 1.6.7 2 .5.4 1 .6 1.8.6.6 0 1-.2 1.4-.4.4-.2.7-.5.9-1h.2l1.7 1.1a4 4 0 0 1-1.5 1.8c-.7.4-1.6.6-2.7.6-1 0-2-.2-2.7-.6a4 4 0 0 1-1.8-1.8A6 6 0 0 1 53 65a6 6 0 0 1 .6-3c.5-.8 1-1.3 1.8-1.7.7-.4 1.6-.6 2.5-.6 1.4 0 2.5.4 3.3 1.1.8.8 1.2 1.9 1.2 3.4l-.1 1.2ZM60 64c0-.8-.2-1.4-.5-1.7-.4-.4-.8-.5-1.5-.5-1.3 0-2 .7-2.3 2.2Zm0 0"/>
</svg>
