<svg xmlns="http://www.w3.org/2000/svg" fill="none" viewBox="0 0 100 100">
  <g clip-path="url(#a)">
    <g clip-path="url(#b)">
      <path fill="#F9AA4A" d="M68.2 61.7 57.4 48.5 63 61.7h5.1Z"/>
      <path fill="#F78E1E" d="m63.1 61.7 15.2 35h18.6l-28.7-35h-5Z"/>
      <path fill="#F9AA4A" d="M78.3 96.7 63 61.7H49l-23 35h52.4Z"/>
      <path fill="#FBCE45" d="M57.4 48.5 49 61.7h14l-5.7-13.2Zm1.7 20.7H52V67h7v2.2Zm-10 6.5h-7v-2.2h7v2.2Zm13.7 4.7h-7.1v-2.2h7v2.2Zm-13.7 6.9h-7v-2.2h7v2.2Zm21.6 5.3h-7.1v-2.2h7.1v2.2Z"/>
      <path fill="#F9AA4A" d="M87.8 89.6h-7v-2.3h7v2.3ZM78.3 78H71v-2.3h7.2V78Zm-5.5-5.1h-4v-2.3h4V73Z"/>
      <path fill="#4DBA57" d="m91.3 72-1 .9.6.6c1.3-1.1 1.1-3.3-.3-4.8-1.4-1.6-3.5-2-4.8-1l.7.8.9-.8.7.7-1 .8.5.5.9-.8.6.7-.9.8.4.5 1-.8.6.8-.9.8.4.4 1-.8.6.8Z"/>
      <path fill="#4DBA57" d="m90.2 72.3.4 1.2.7-.2C91 71.6 89 71 87 71.5c-2 .5-3.4 2.2-3 3.8l1-.2-.4-1.2 1-.3.3 1.2.6-.1-.3-1.2 1-.3.3 1.2.6-.2-.3-1.2 1-.2.3 1.2.6-.2-.3-1.2 1-.3Z"/>
      <path fill="#4DBA57" d="m91.3 72 .9.9-.6.6c-1.3-1.1-1-3.3.4-4.8 1.4-1.6 3.4-2 4.7-1l-.6.8-1-.8-.6.7 1 .8-.5.5-.9-.8-.7.7 1 .8-.5.5-.9-.8-.7.8 1 .8-.4.4-1-.8-.6.8Z"/>
      <path fill="#4DBA57" d="m92.3 72.3-.3 1.2-.8-.2c.5-1.7 2.5-2.4 4.5-1.8 2 .5 3.4 2.2 3 3.8l-1-.2.3-1.2-1-.3-.3 1.2-.6-.1.4-1.2-1-.3-.3 1.2-.6-.2.3-1.2-1-.2-.3 1.2-.6-.2.3-1.2-1-.3Z"/>
      <path fill="#B36130" d="M92 85.1h-1.5l-.8-1.4h3.2L92 85Z"/>
      <path fill="#854826" d="M92 83.7h-1.5l-.8-1.7h3.2l-.8 1.7Z"/>
      <path fill="#B36130" d="M92 82h-1.5l-.8-1.4h3.2L92 82Z"/>
      <path fill="#854826" d="M92 80.6h-1.5l-.8-1.4h3.2l-.8 1.4Z"/>
      <path fill="#B36130" d="M92 79.2h-1.5l-.8-1.4h3.2l-.8 1.4Z"/>
      <path fill="#854826" d="M92 77.8h-1.5l-.8-1.7h3.2l-.8 1.7Z"/>
      <path fill="#B36130" d="M92 76.1h-1.5l-.8-1.4h3.2l-.8 1.4Z"/>
      <path fill="#854826" d="M92 74.7h-1.5l-.8-1.4h3.2l-.8 1.4Z"/>
      <path fill="#B36130" d="M92 96.9h-1.5l-.8-1.4h3.2l-.8 1.4Z"/>
      <path fill="#854826" d="M92 95.5h-1.5l-.8-1.6h3.2l-.8 1.6Z"/>
      <path fill="#B36130" d="M92 93.9h-1.5l-.8-1.5h3.2L92 94Z"/>
      <path fill="#854826" d="M92 92.4h-1.5l-.8-1.4h3.2l-.8 1.4Z"/>
      <path fill="#B36130" d="M92 91h-1.5l-.8-1.4h3.2L92 91Z"/>
      <path fill="#854826" d="M92 89.6h-1.5l-.8-1.7h3.2l-.8 1.7Z"/>
      <path fill="#B36130" d="M92 88h-1.5l-.8-1.5h3.2L92 88Z"/>
      <path fill="#854826" d="M92 86.5h-1.5l-.8-1.4h3.2l-.8 1.4Z"/>
      <path fill="#F9AA4A" d="m36.5 78.4-7-7 3.7 7h3.3Z"/>
      <path fill="#F78E1E" d="m33.2 78.4 9.9 18.3h12L36.6 78.4h-3.3Z"/>
      <path fill="#F9AA4A" d="m43 96.7-9.8-18.3h-9L9 96.7h34Z"/>
      <path fill="#FBCE45" d="m29.5 71.4-5.4 7h9.1l-3.7-7Zm1.1 10.8H26v-1h4.7v1ZM24 85.7h-4.6v-1.2h4.7v1.2Zm9 2.4h-4.6v-1H33v1Zm-9 3.7h-4.6v-1.2h4.7v1.2Zm14.1 2.9h-4.6v-1.3H38v1.3Z"/>
      <path fill="#F9AA4A" d="M49.3 93h-4.6v-1.2h4.6V93ZM43 86.7h-4.7v-1H43v1ZM39.6 84h-2.7v-1h2.7v1Z"/>
      <path fill="#4DBA57" d="m13.2 79.3-.7.6.4.4c1-.8.8-2.2-.2-3.4-1-1-2.5-1.4-3.4-.6l.5.5.6-.6.5.6-.7.5.3.4.7-.6.4.5-.6.6.3.3.6-.6.5.6-.6.6.2.3.7-.6.5.5Z"/>
      <path fill="#4DBA57" d="m12.4 79.5.2.9.6-.2c-.3-1.2-1.7-1.7-3.2-1.3-1.4.4-2.4 1.6-2 2.8l.6-.2-.2-.9.7-.1.2.8.4-.1-.2-.9.7-.2.2.9.4-.1-.2-.9.7-.2.2.9.4-.1-.2-.9.7-.2Z"/>
      <path fill="#4DBA57" d="m13.1 79.3.7.6-.4.4c-1-.8-.8-2.2.2-3.4 1-1 2.5-1.4 3.4-.6l-.4.5-.7-.6-.5.6.7.5-.3.4-.7-.6-.4.5.6.6-.3.3-.6-.6-.5.6.6.6-.2.3-.7-.6-.5.5Z"/>
      <path fill="#4DBA57" d="m13.9 79.5-.2.9-.6-.2c.3-1.2 1.7-1.7 3.2-1.3 1.4.4 2.4 1.6 2 2.8l-.6-.2.2-.9-.7-.1-.2.8-.4-.1.2-.9-.7-.2-.2.9-.4-.1.2-.9-.7-.2-.2.9-.4-.1.2-.9-.7-.2Z"/>
      <path fill="#B36130" d="M13.7 88.6h-1.1l-.6-1h2.3l-.6 1Z"/>
      <path fill="#854826" d="M13.7 87.5h-1.1l-.6-1.2h2.3l-.6 1.2Z"/>
      <path fill="#B36130" d="M13.7 86.3h-1.1l-.6-1h2.3l-.6 1Z"/>
      <path fill="#854826" d="M13.7 85.3h-1.1l-.6-1h2.3l-.6 1Z"/>
      <path fill="#B36130" d="M13.7 84.3h-1.1l-.6-.8h2.3l-.6.8Z"/>
      <path fill="#854826" d="M13.7 83.5h-1.1l-.6-1.3h2.3l-.6 1.3Z"/>
      <path fill="#B36130" d="M13.7 82.2h-1.1l-.6-1h2.3l-.6 1Z"/>
      <path fill="#854826" d="M13.7 81.2h-1.1l-.6-1h2.3l-.6 1Z"/>
      <path fill="#B36130" d="M13.7 97h-1.1l-.6-1.1h2.3l-.6 1Z"/>
      <path fill="#854826" d="M13.7 95.9h-1.1l-.6-1.2h2.3l-.6 1.2Z"/>
      <path fill="#B36130" d="M13.7 94.7h-1.1l-.6-1h2.3l-.6 1Z"/>
      <path fill="#854826" d="M13.7 93.6h-1.1l-.6-1h2.3l-.6 1Z"/>
      <path fill="#B36130" d="M13.7 92.6h-1.1l-.6-.8h2.3l-.6.8Z"/>
      <path fill="#854826" d="M13.7 91.8h-1.1l-.6-1.2h2.3l-.6 1.2Z"/>
      <path fill="#B36130" d="M13.7 90.6h-1.1l-.6-1h2.3l-.6 1Z"/>
      <path fill="#854826" d="M13.7 89.6h-1.1l-.6-1h2.3l-.6 1Z"/>
      <mask id="c" width="29" height="29" x="7" y="34" maskUnits="userSpaceOnUse" style="mask-type:luminance">
        <path fill="#fff" d="M8 34.5h27.8v27.9H7.9V34.5Z"/>
      </mask>
      <g mask="url(#c)">
        <path fill="#FBCE45" d="M35.8 48.4a13.9 13.9 0 1 1-27.8 0 13.9 13.9 0 0 1 27.8 0Z"/>
      </g>
      <path fill="#FBCE45" d="M100.3 99.8H0v-3.1h100.2v3Z"/>
      <mask id="d" width="71" height="28" x="13" y="71" fill="#000" maskUnits="userSpaceOnUse">
        <path fill="#fff" d="M13 71h71v28H13z"/>
        <path d="M14.6 75v-1.7H22V75h-2.6v7h-2.1v-7h-2.7Zm8.4 7v-8.7h2.1v3.5h3.5v-3.5h2V82h-2v-3.5H25V82h-2Zm9 0v-8.7h6V75h-3.9v1.8h3.7v1.7H34v1.8h4V82h-6Zm15.7-5.9-.2-.4a1.4 1.4 0 0 0-.8-.6 2 2 0 0 0-.6-.1 2 2 0 0 0-1 .3 2 2 0 0 0-.8.9c-.2.4-.2.9-.2 1.4 0 .6 0 1 .2 1.5.2.4.4.7.7.9.3.2.7.3 1.1.3.4 0 .7 0 1-.2.3-.1.5-.3.6-.6l.2-.8h.4-2.1v-1.5h3.7v1.2c0 .8-.1 1.4-.5 2-.3.5-.7 1-1.3 1.3a5 5 0 0 1-4.2-.1c-.6-.4-1.1-.9-1.5-1.6a5 5 0 0 1-.5-2.4c0-.7.1-1.3.3-1.9.2-.5.5-1 1-1.4.3-.4.7-.6 1.2-.8.5-.2 1-.3 1.7-.3.5 0 1 0 1.4.2.4.1.8.3 1.1.6.4.2.7.6.9 1l.4 1.1h-2.2Zm3.5 5.9v-8.7h3.6c.7 0 1.2 0 1.7.3s.8.6 1 1c.4.5.5 1 .5 1.6 0 .6-.2 1.1-.4 1.5-.3.4-.7.8-1.1 1-.5.2-1.1.3-1.8.3h-2.2v-1.6h1.8c.4 0 .6 0 .8-.2.3 0 .4-.2.5-.4l.2-.6c0-.3 0-.5-.2-.7a1 1 0 0 0-.5-.4 2 2 0 0 0-.8-.1h-1v7h-2.1Zm5-4 2 4H56l-2.2-4h2.3Zm3 4v-8.7h6V75h-4v1.8H65v1.7h-3.7v1.8h4V82h-6Zm9.2 0h-2.2l3-8.7h2.7l3 8.7h-2.3l-2-6.5h-.1l-2 6.5Zm-.3-3.4H73v1.6h-5v-1.6Zm6.3-3.6v-1.7h7.4V75h-2.6v7H77v-7h-2.7ZM21.5 97v-8.7h3.6c.7 0 1.3.1 1.7.4.5.2.9.6 1.1 1 .3.5.4 1 .4 1.6a3 3 0 0 1-.4 1.6c-.2.4-.6.8-1 1-.6.3-1.1.4-1.8.4h-2.2v-1.7h1.8l.8-.1.5-.5.1-.7-.1-.7-.5-.5-.8-.1h-1v7h-2.2Zm7.4-8.7h2.4l1.8 3.6h.1l1.9-3.6h2.3L34.2 94v3h-2v-3l-3.3-5.7Zm9.4 8.7v-8.7h3.6c.7 0 1.2 0 1.7.3s.8.6 1.1 1c.3.5.4 1 .4 1.6 0 .6-.1 1.1-.4 1.5-.3.4-.6.8-1.1 1-.5.2-1 .3-1.8.3h-2.2v-1.6h1.9c.3 0 .5 0 .7-.2.3 0 .4-.2.5-.4l.2-.6c0-.3 0-.5-.2-.7a1 1 0 0 0-.5-.4 2 2 0 0 0-.7-.1h-1v7h-2.2Zm5-4 2 4h-2.2L41 93h2.2Zm4.8 4H46l3-8.7h2.7l3 8.7h-2.3l-2-6.5h-.1l-2 6.5Zm-.3-3.4h4.8v1.6h-4.8v-1.6Zm7.7-5.3h2.6l2.2 5.4h.1l2.3-5.4h2.6V97h-2v-5.4H63l-2 5.3h-1.4l-2-5.3h-.1V97h-2.1v-8.7Zm13.2 0V97h-2.1v-8.7h2Zm4.5 8.7H70v-8.7h3.2c1 0 1.7.1 2.3.5.7.3 1.2.8 1.5 1.5.4.6.5 1.4.5 2.3A5 5 0 0 1 77 95c-.3.6-.8 1.1-1.5 1.5-.6.3-1.4.5-2.3.5Zm-1-1.8h1c.4 0 .9 0 1.2-.2.3-.2.6-.5.8-.9l.2-1.5c0-.6 0-1.1-.2-1.5l-.8-.8-1.3-.2h-1v5.1Z"/>
      </mask>
      <path fill="#000" d="M14.6 75v-1.7H22V75h-2.6v7h-2.1v-7h-2.7Zm8.4 7v-8.7h2.1v3.5h3.5v-3.5h2V82h-2v-3.5H25V82h-2Zm9 0v-8.7h6V75h-3.9v1.8h3.7v1.7H34v1.8h4V82h-6Zm15.7-5.9-.2-.4a1.4 1.4 0 0 0-.8-.6 2 2 0 0 0-.6-.1 2 2 0 0 0-1 .3 2 2 0 0 0-.8.9c-.2.4-.2.9-.2 1.4 0 .6 0 1 .2 1.5.2.4.4.7.7.9.3.2.7.3 1.1.3.4 0 .7 0 1-.2.3-.1.5-.3.6-.6l.2-.8h.4-2.1v-1.5h3.7v1.2c0 .8-.1 1.4-.5 2-.3.5-.7 1-1.3 1.3a5 5 0 0 1-4.2-.1c-.6-.4-1.1-.9-1.5-1.6a5 5 0 0 1-.5-2.4c0-.7.1-1.3.3-1.9.2-.5.5-1 1-1.4.3-.4.7-.6 1.2-.8.5-.2 1-.3 1.7-.3.5 0 1 0 1.4.2.4.1.8.3 1.1.6.4.2.7.6.9 1l.4 1.1h-2.2Zm3.5 5.9v-8.7h3.6c.7 0 1.2 0 1.7.3s.8.6 1 1c.4.5.5 1 .5 1.6 0 .6-.2 1.1-.4 1.5-.3.4-.7.8-1.1 1-.5.2-1.1.3-1.8.3h-2.2v-1.6h1.8c.4 0 .6 0 .8-.2.3 0 .4-.2.5-.4l.2-.6c0-.3 0-.5-.2-.7a1 1 0 0 0-.5-.4 2 2 0 0 0-.8-.1h-1v7h-2.1Zm5-4 2 4H56l-2.2-4h2.3Zm3 4v-8.7h6V75h-4v1.8H65v1.7h-3.7v1.8h4V82h-6Zm9.2 0h-2.2l3-8.7h2.7l3 8.7h-2.3l-2-6.5h-.1l-2 6.5Zm-.3-3.4H73v1.6h-5v-1.6Zm6.3-3.6v-1.7h7.4V75h-2.6v7H77v-7h-2.7ZM21.5 97v-8.7h3.6c.7 0 1.3.1 1.7.4.5.2.9.6 1.1 1 .3.5.4 1 .4 1.6a3 3 0 0 1-.4 1.6c-.2.4-.6.8-1 1-.6.3-1.1.4-1.8.4h-2.2v-1.7h1.8l.8-.1.5-.5.1-.7-.1-.7-.5-.5-.8-.1h-1v7h-2.2Zm7.4-8.7h2.4l1.8 3.6h.1l1.9-3.6h2.3L34.2 94v3h-2v-3l-3.3-5.7Zm9.4 8.7v-8.7h3.6c.7 0 1.2 0 1.7.3s.8.6 1.1 1c.3.5.4 1 .4 1.6 0 .6-.1 1.1-.4 1.5-.3.4-.6.8-1.1 1-.5.2-1 .3-1.8.3h-2.2v-1.6h1.9c.3 0 .5 0 .7-.2.3 0 .4-.2.5-.4l.2-.6c0-.3 0-.5-.2-.7a1 1 0 0 0-.5-.4 2 2 0 0 0-.7-.1h-1v7h-2.2Zm5-4 2 4h-2.2L41 93h2.2Zm4.8 4H46l3-8.7h2.7l3 8.7h-2.3l-2-6.5h-.1l-2 6.5Zm-.3-3.4h4.8v1.6h-4.8v-1.6Zm7.7-5.3h2.6l2.2 5.4h.1l2.3-5.4h2.6V97h-2v-5.4H63l-2 5.3h-1.4l-2-5.3h-.1V97h-2.1v-8.7Zm13.2 0V97h-2.1v-8.7h2Zm4.5 8.7H70v-8.7h3.2c1 0 1.7.1 2.3.5.7.3 1.2.8 1.5 1.5.4.6.5 1.4.5 2.3A5 5 0 0 1 77 95c-.3.6-.8 1.1-1.5 1.5-.6.3-1.4.5-2.3.5Zm-1-1.8h1c.4 0 .9 0 1.2-.2.3-.2.6-.5.8-.9l.2-1.5c0-.6 0-1.1-.2-1.5l-.8-.8-1.3-.2h-1v5.1Z"/>
      <path fill="#fff" d="M14.6 75h-1.5v1.5h1.5V75Zm0-1.7v-1.5h-1.5v1.5h1.5Zm7.4 0h1.5v-1.5H22v1.5Zm0 1.7v1.5h1.5V75H22Zm-2.6 0v-1.5h-1.5V75h1.5Zm0 7v1.5h1.5V82h-1.5Zm-2.1 0h-1.5v1.5h1.5V82Zm0-7h1.5v-1.5h-1.5V75ZM16 75v-1.7h-3V75h3Zm-1.5-.2H22v-3h-7.4v3Zm5.9-1.5V75h3v-1.7h-3Zm1.5.2h-2.6v3H22v-3Zm-4 1.5v7h3v-7h-3Zm1.5 5.5h-2.1v3h2v-3Zm-.6 1.5v-7h-3v7h3Zm-1.5-8.5h-2.7v3h2.7v-3ZM23 82h-1.5v1.5H23V82Zm0-8.7v-1.5h-1.5v1.5H23Zm2.1 0h1.5v-1.5h-1.5v1.5Zm0 3.5h-1.5v1.5h1.5v-1.5Zm3.5 0v1.5H30v-1.5h-1.5Zm0-3.5v-1.5H27v1.5h1.5Zm2 0h1.6v-1.5h-1.5v1.5Zm0 8.7v1.5h1.6V82h-1.5Zm-2 0H27v1.5h1.5V82Zm0-3.5H30V77h-1.5v1.5Zm-3.5 0V77h-1.5v1.5h1.5Zm0 3.5v1.5h1.5V82h-1.5Zm-.6 0v-8.7h-3V82h3ZM23 74.8h2.1v-3h-2v3Zm.6-1.5v3.5h3v-3.5h-3Zm1.5 5h3.5v-3H25v3Zm5-1.5v-3.5h-3v3.5h3Zm-1.5-2h2v-3h-2v3Zm.6-1.5V82h3v-8.7h-3Zm1.5 7.2h-2.1v3h2v-3ZM30 82v-3.5h-3V82h3Zm-1.5-5H25v3h3.5v-3Zm-5 1.5V82h3v-3.5h-3Zm1.5 2h-2v3h2v-3Zm7 1.5h-1.6v1.5H32V82Zm0-8.7v-1.5h-1.6v1.5H32Zm6 0h1.5v-1.5H38v1.5Zm0 1.7v1.5h1.5V75H38Zm-4 0v-1.5h-1.5V75H34Zm0 1.8h-1.5v1.5H34v-1.5Zm3.7 0h1.5v-1.5h-1.5v1.5Zm0 1.7V80h1.5v-1.5h-1.5Zm-3.7 0V77h-1.5v1.5H34Zm0 1.8h-1.5v1.5H34v-1.5Zm4 0h1.5v-1.5H38v1.5Zm0 1.7v1.5h1.5V82H38Zm-4.6 0v-8.7h-3V82h3ZM32 74.8h6v-3h-6v3Zm4.6-1.5V75h3v-1.7h-3Zm1.5.2h-4v3h4v-3ZM32.6 75v1.8h3V75h-3Zm1.5 3.3h3.7v-3H34v3Zm2.2-1.5v1.7h3v-1.7h-3Zm1.5.2H34v3h3.7v-3Zm-5.2 1.5v1.8h3v-1.8h-3Zm1.5 3.3h4v-3h-4v3Zm2.5-1.5V82h3v-1.7h-3Zm1.5.2h-6v3h6v-3Zm9.6-4.4-1.4.4.3 1.1h1.1v-1.5Zm-.2-.4-1.2.8 1.2-.8Zm-.8-.6-.4 1.4.4-1.4Zm-1.7.2-.8-1.2.8 1.2Zm-.7.9 1.4.6-1.4-.6Zm0 2.9 1.4-.6-1.4.6Zm.7.9.8-1.3L45 80Zm2 0 .7 1.4-.6-1.3Zm.7-.5-1.3-.7 1.3.7Zm.2-.8.2-1.5-1.7-.2v1.7H48Zm.4 0v1.6l.2-3-.2 1.5Zm-2.1 0h-1.5v1.6h1.5v-1.5Zm0-1.5v-1.5h-1.5v1.5h1.5Zm3.7 0h1.5v-1.5H50v1.5Zm-.5 3.2-1.2-.8 1.2.8Zm-1.3 1.3-.7-1.4.7 1.4Zm-4.2-.1.7-1.3-.7 1.3ZM42.4 80l-1.3.7 1.3-.7Zm-.2-4.3 1.4.6-1.4-.6Zm1-1.4-1.2-1 1.1 1Zm1.2-.8L44 72l.5 1.4Zm3-.1-.4 1.4.5-1.4Zm1.2.6-.9 1.2 1-1.2Zm.9 1-1.3.7 1.3-.8Zm.4 1.1v1.5h1.6l-.2-1.7-1.4.2Zm-.7-.4a3 3 0 0 0-.5-.9l-2.4 1.7 2.9-.8Zm-.4-.9-.8-.7-1.7 2.4 2.5-1.7Zm-.8-.7a3 3 0 0 0-1-.5l-.7 3L48 74Zm-.9-.5-1-.1v3h.2l.8-2.9Zm-1-.1c-.7 0-1.3.2-2 .6l1.7 2.5.3-.1v-3Zm-2 .6c-.5.4-1 .9-1.2 1.5l2.8 1.2.1-.2-1.6-2.5ZM43 75.6a5 5 0 0 0-.3 2h3v-.8L43 75.6Zm-.3 2c0 .7 0 1.4.3 2l2.8-1.1-.1-.9h-3Zm.3 2c.3.7.7 1.2 1.3 1.6l1.6-2.5-.1-.2-2.8 1.1Zm1.3 1.6c.6.4 1.2.6 2 .6v-3h-.4l-1.6 2.4Zm2 .6c.5 0 1-.1 1.5-.4l-1.2-2.7H46v3Zm1.5-.4c.5-.2 1-.6 1.3-1l-2.6-1.6 1.3 2.6Zm1.3-1c.3-.6.4-1.1.4-1.7h-3l2.6 1.6Zm-1.3-.2h.4l.4-3H48l-.4 3Zm.6-3h-2.1v3h2.1v-3Zm-.6 1.6v-1.6h-3v1.6h3Zm-1.5 0H50v-3h-3.7v3Zm2.2-1.6v1.2h3v-1.2h-3Zm0 1.2c0 .5 0 1-.2 1.2l2.5 1.6c.5-.9.7-1.8.7-2.8h-3Zm-.2 1.2c-.2.3-.5.6-.8.7l1.4 2.7a5 5 0 0 0 2-1.8l-2.6-1.6Zm-.8.7c-.3.2-.8.3-1.3.3v3a6 6 0 0 0 2.7-.6l-1.4-2.7Zm-1.3.3c-.6 0-1-.1-1.5-.3l-1.4 2.6c.8.5 1.8.7 2.9.7v-3Zm-1.5-.3a2 2 0 0 1-.8-1L41 80.7c.5 1 1.2 1.7 2 2.2l1.5-2.6Zm-.8-1c-.3-.4-.4-1-.4-1.7h-3c0 1.2.2 2.2.7 3.1l2.7-1.4Zm-.4-1.7c0-.5 0-1 .2-1.3l-2.8-1c-.3.7-.4 1.5-.4 2.3h3Zm.2-1.3.6-1-2.2-2c-.5.5-.9 1.2-1.2 2l2.8 1Zm.6-1 .8-.5-1.1-2.7c-.7.2-1.3.6-1.9 1.2l2.2 2Zm.8-.5a3 3 0 0 1 1-.1v-3a6 6 0 0 0-2.1.4l1 2.7Zm1-.1h1l1-2.8a6 6 0 0 0-2-.2v3Zm1 0 .7.5 1.9-2.4a5 5 0 0 0-1.6-.9l-1 2.9Zm.7.5.5.5 2.6-1.5a4 4 0 0 0-1.2-1.4l-1.9 2.4Zm.5.5.2.6 3-.4a5 5 0 0 0-.6-1.7l-2.6 1.5Zm1.7-1h-2.2v3H50v-3Zm1.3 7.3h-1.5v1.5h1.5V82Zm0-8.7v-1.5h-1.5v1.5h1.5Zm5.3.3-.7 1.4.7-1.4Zm1 1-1.2.8 1.3-.8Zm0 3.1 1.4.8-1.3-.8Zm-1 1L57 80l-.6-1.4Zm-4 .3H51v1.5h1.5V79Zm0-1.6v-1.5H51v1.5h1.5Zm2.6-.2.6 1.4-.6-1.4Zm.5-.4 1.3.9-1.3-.9Zm0-1.3-1.2.8 1.2-.8Zm-.5-.4-.5 1.4.5-1.4Zm-1.8-.1v-1.5h-1.5V75h1.5Zm0 7v1.5h1.5V82h-1.5Zm2.8-4 1.3-.7-.4-.8h-.9V78Zm2.2 4v1.5h2.5l-1.2-2.2-1.3.7ZM56 82l-1.3.7.4.8h.9V82Zm-2.2-4v-1.5h-2.5l1.2 2.2 1.3-.7Zm-1.1 4v-8.7h-3V82h3Zm-1.5-7.2h3.6v-3h-3.6v3Zm3.6 0c.5 0 .8 0 1 .2l1.4-2.7c-.8-.4-1.6-.5-2.4-.5v3Zm1 .2c.3 0 .4.2.5.4l2.6-1.5a4 4 0 0 0-1.8-1.6L55.8 75Zm.5.4.2.8h3c0-.8-.2-1.6-.6-2.3l-2.6 1.5Zm.2.8c0 .4-.1.6-.2.7l2.6 1.6c.4-.7.6-1.5.6-2.3h-3Zm-.2.7a1 1 0 0 1-.5.4l1.3 2.7a4 4 0 0 0 1.8-1.5L56.3 77Zm-.5.4-1 .2v3c.8 0 1.6-.1 2.3-.4l-1.3-2.8Zm-1 .2h-2.3v3h2.2v-3ZM54 79v-1.6h-3V79h3Zm-1.5-.1h1.8v-3h-1.8v3Zm1.8 0c.5 0 1-.1 1.4-.3l-1.1-2.8h-.3v3Zm1.4-.3c.5-.2.9-.5 1.2-1L54.4 76l.1-.1 1.2 2.7Zm1.2-1c.3-.4.4-1 .4-1.4h-3V76l2.6 1.7Zm.4-1.4c0-.5-.1-1-.4-1.5l-2.5 1.6-.1-.1h3Zm-.4-1.5c-.3-.5-.7-.8-1.2-1l-1.1 2.8h-.1l-.1-.2 2.5-1.6Zm-1.2-1c-.4-.2-1-.2-1.4-.2v3h.3l1.1-2.8Zm-1.4-.2h-1v3h1v-3ZM51.8 75v7h3v-7h-3Zm1.5 5.5h-2.1v3h2.1v-3Zm1.5-1.8 2.2 4 2.6-1.4-2.2-4-2.6 1.4Zm3.5 1.8H56v3h2.3v-3Zm-1 .8-2.1-4-2.7 1.4 2.2 4 2.6-1.4Zm-3.5-1.8h2.3v-3h-2.3v3Zm5.3 2.5h-1.5v1.5h1.5V82Zm0-8.7v-1.5h-1.5v1.5h1.5Zm6.1 0h1.5v-1.5h-1.5v1.5Zm0 1.7v1.5h1.5V75h-1.5Zm-4 0v-1.5h-1.5V75h1.5Zm0 1.8h-1.5v1.5h1.5v-1.5Zm3.7 0h1.5v-1.5H65v1.5Zm0 1.7V80h1.5v-1.5H65Zm-3.7 0V77h-1.5v1.5h1.5Zm0 1.8h-1.5v1.5h1.5v-1.5Zm4 0h1.5v-1.5h-1.5v1.5Zm0 1.7v1.5h1.5V82h-1.5Zm-4.6 0v-8.7h-3V82h3Zm-1.5-7.2h6.1v-3h-6v3Zm4.6-1.5V75h3v-1.7h-3Zm1.5.2h-4v3h4v-3ZM59.7 75v1.8h3V75h-3Zm1.5 3.3H65v-3h-3.7v3Zm2.2-1.5v1.7h3v-1.7h-3Zm1.5.2h-3.7v3H65v-3Zm-5.2 1.5v1.8h3v-1.8h-3Zm1.5 3.3h4v-3h-4v3Zm2.5-1.5V82h3v-1.7h-3Zm1.5.2h-6v3h6v-3Zm3.2 1.5v1.5h1.1l.4-1-1.5-.5Zm-2.2 0-1.5-.5-.6 2h2V82Zm3-8.7v-1.5H68l-.3 1 1.4.5Zm2.7 0 1.4-.5-.3-1h-1v1.5Zm3 8.7v1.5h2l-.6-2-1.4.5Zm-2.3 0-1.4.4.3 1.1h1V82Zm-2-6.5L72 75l-.4-1h-1v1.5Zm-.1 0V74h-1.1l-.4 1 1.5.5Zm-2.4 3v-1.4h-1.5v1.5h1.5Zm4.8 0h1.5v-1.4h-1.5v1.5Zm0 1.7v1.5h1.5v-1.5h-1.5Zm-4.8 0h-1.5v1.5h1.5v-1.5Zm.3.3h-2.2v3h2.2v-3Zm-.8 2 3-8.7-3-1-2.9 8.7 2.9 1Zm1.5-7.7H72v-3h-2.8v3Zm1.4-1 3 8.7 2.8-1-3-8.7-2.8 1Zm4.4 6.7h-2.3v3h2.3v-3Zm-.9 1L72 75l-3 1 2 6.4 3-.8ZM70.5 74v3-3ZM69 75l-2 6.6 2.9.8 2-6.5L69 75Zm-.9 5H73v-3h-5v3Zm3.3-1.4v1.6h3v-1.6h-3Zm1.5 0H68v3h5v-3Zm-3.3 1.6v-1.6h-3v1.6h3Zm4.8-5.2H73v1.5h1.5V75Zm0-1.7v-1.5H73v1.5h1.5Zm7.4 0h1.5v-1.5h-1.5v1.5Zm0 1.7v1.5h1.5V75h-1.5Zm-2.6 0v-1.5h-1.5V75h1.5Zm0 7v1.5h1.5V82h-1.5ZM77 82h-1.5v1.5H77V82Zm0-7h1.5v-1.5H77V75Zm-1.2 0v-1.7h-3V75h3Zm-1.5-.2h7.4v-3h-7.4v3Zm5.9-1.5V75h3v-1.7h-3Zm1.5.2h-2.6v3h2.6v-3Zm-4 1.5v7h3v-7h-3Zm1.5 5.5H77v3h2v-3Zm-.6 1.5v-7h-3v7h3ZM77 73.5h-2.7v3H77v-3ZM21.5 97H20v1.5h1.5V97Zm0-8.7v-1.5H20v1.5h1.5Zm5.3.4-.7 1.3.7-1.3Zm1.1 1-1.3.8 1.3-.8Zm0 3.2-1.3-.8 1.3.8Zm-1 1 .6 1.4-.7-1.4Zm-4 .4h-1.5v1.5h1.5v-1.5Zm0-1.7v-1.5h-1.5v1.5h1.5Zm2.6-.1-.7-1.4.7 1.4Zm.5-.5 1.3.7L26 92Zm0-1.4-1.3.7 1.3-.7Zm-.5-.5-.7 1.4.7-1.4Zm-1.8-.1v-1.5h-1.5V90h1.5Zm0 7v1.5h1.5V97h-1.5Zm-.7 0v-8.7h-3V97h3Zm-1.5-7.2h3.6v-3h-3.6v3Zm3.6 0c.5 0 .8 0 1 .2l1.5-2.7a5 5 0 0 0-2.5-.5v3Zm1 .2c.3.1.4.3.5.5l2.6-1.5c-.4-.7-1-1.3-1.7-1.7L26.1 90Zm.5.5c.2.2.2.4.2.8h3c0-.8-.1-1.6-.6-2.3l-2.6 1.5Zm.2.8c0 .4 0 .6-.2.8l2.6 1.5c.4-.7.6-1.5.6-2.3h-3Zm-.2.8c0 .2-.2.4-.5.5l1.4 2.7c.7-.4 1.3-1 1.7-1.7l-2.6-1.5Zm-.5.5-1 .2v3c.8 0 1.7-.2 2.4-.5L26 92.6Zm-1 .2h-2.2v3H25v-3Zm-.7 1.5v-1.7h-3v1.7h3Zm-1.5-.2h1.8v-3h-1.8v3Zm1.8 0c.5 0 1 0 1.5-.3L24.8 91h-.1v3Zm1.5-.3c.4-.2.8-.6 1-1l-2.5-1.5a.4.4 0 0 1 .1-.2l1.4 2.7Zm1-1c.3-.5.4-1 .4-1.5h-3l2.7 1.4Zm.4-1.5c0-.5 0-1-.3-1.4l-2.6 1.4h3Zm-.3-1.4c-.3-.5-.7-.9-1.1-1.1l-1.4 2.7-.1-.2 2.6-1.4Zm-1.1-1.1-1.5-.3v3h.1l1.4-2.7Zm-1.5-.3h-1v3h1v-3ZM22.2 90v7h3v-7h-3Zm1.5 5.5h-2.2v3h2.2v-3Zm5.2-7.2v-1.5h-2.5l1.2 2.2 1.3-.7Zm2.4 0 1.3-.7-.4-.8h-1v1.5Zm1.8 3.6-1.3.7.4.8h1V92Zm.1 0v1.5h1l.4-.8-1.4-.7Zm1.9-3.6v-1.5h-1l-.4.8 1.4.7Zm2.3 0 1.3.7 1.3-2.2h-2.6v1.5ZM34.2 94l-1.3-.7-.2.3v.4h1.5Zm0 2.9v1.5h1.5V97h-1.5Zm-2 0h-1.6v1.5h1.5V97Zm0-3h1.4v-.3l-.2-.3-1.3.7Zm-3.3-4.2h2.4v-3h-2.4v3Zm1-.9 1.9 3.7 2.7-1.4-1.9-3.6-2.6 1.3Zm3.2 4.5h.1v-3 3Zm1.5-.8 1.8-3.7-2.7-1.3-1.8 3.6 2.7 1.4Zm.5-2.8h2.3v-3h-2.3v3Zm1-2.2-3.2 5.8 2.6 1.4 3.2-5.8-2.6-1.4ZM32.7 94v3h3v-3h-3Zm1.5 1.4h-2v3h2v-3Zm-.6 1.5v-3h-3v3h3Zm-.2-3.6-3.1-5.8-2.7 1.4 3.2 5.8 2.6-1.4Zm4.9 3.6h-1.5v1.5h1.5V97Zm0-8.7v-1.5h-1.5v1.5h1.5Zm5.3.3-.7 1.4.7-1.4Zm1.1 1-1.3.8 1.3-.8Zm0 3.1 1.3.8-1.3-.8Zm-1.1 1 .6 1.4-.6-1.4Zm-4 .3H38v1.5h1.5V94Zm0-1.6v-1.5H38v1.5h1.5Zm2.6-.2.6 1.4-.6-1.4Zm.5-.4 1.3.9-1.3-.9Zm0-1.3-1.2.8 1.2-.8Zm-.5-.4-.5 1.4.5-1.4Zm-1.8-.1v-1.5H39V90h1.5Zm0 7v1.5H42V97h-1.5Zm2.8-4 1.3-.7-.4-.8h-.9V93Zm2.2 4v1.5h2.5l-1.2-2.2-1.3.7ZM43 97l-1.3.7.4.8h.9V97Zm-2-4v-1.5h-2.5l1.1 2.2L41 93Zm-1.2 4v-8.7h-3V97h3Zm-1.5-7.2h3.6v-3h-3.6v3Zm3.6 0c.5 0 .8 0 1 .2l1.4-2.7c-.8-.4-1.6-.5-2.4-.5v3Zm1 .2c.3 0 .4.2.5.4l2.6-1.5a4 4 0 0 0-1.7-1.6L42.9 90Zm.5.4.2.8h3c0-.8-.2-1.6-.6-2.3l-2.6 1.5Zm.2.8c0 .4 0 .6-.2.7l2.6 1.6c.4-.7.6-1.5.6-2.3h-3Zm-.2.7a1 1 0 0 1-.5.4l1.3 2.7a4 4 0 0 0 1.8-1.5L43.4 92Zm-.4.4-1.2.2v3a6 6 0 0 0 2.4-.4L43 92.3Zm-1.2.2h-2.2v3h2.2v-3Zm-.7 1.5v-1.6h-3V94h3Zm-1.5-.1h1.9v-3h-2v3Zm1.9 0 1.3-.3-1-2.8h-.4v3Zm1.3-.3c.5-.2.9-.5 1.2-1L41.5 91l.1-.1h.1l1.1 2.7Zm1.2-1c.3-.4.4-1 .4-1.4h-3V91l2.6 1.7Zm.4-1.4c0-.5 0-1-.4-1.5l-2.5 1.6-.1-.1h3Zm-.4-1.5c-.3-.5-.7-.8-1.2-1l-1.1 2.8h-.1l-.1-.2 2.5-1.6Zm-1.2-1c-.4-.2-.9-.2-1.3-.2v3h.2l1.1-2.8Zm-1.3-.2h-1v3h1v-3ZM38.9 90v7h3v-7h-3Zm1.5 5.5h-2.1v3h2.1v-3Zm1.5-1.8 2.2 4 2.6-1.4-2.2-4-2.6 1.4Zm3.5 1.8H43v3h2.3v-3Zm-1 .8-2.1-4-2.7 1.4 2.2 4 2.6-1.4ZM41 94.5h2.2v-3H41v3Zm7 2.5v1.5h1.1l.4-1L48 97Zm-2 0-1.5-.5-.6 2h2V97Zm3-8.7v-1.5h-1.2l-.3 1 1.4.5Zm2.7 0 1.4-.5-.3-1h-1v1.5Zm3 8.7v1.5h2l-.6-2-1.4.5Zm-2.3 0-1.4.4.3 1.1h1.1V97Zm-2-6.5 1.4-.5-.4-1h-1v1.5Zm-.1 0V89H49l-.4 1 1.5.5Zm-2.4 3v-1.4h-1.5v1.5h1.5Zm4.8 0H54v-1.4h-1.5v1.5Zm0 1.7v1.5H54v-1.5h-1.5Zm-4.8 0h-1.5v1.5h1.5v-1.5Zm.3.3H46v3h2v-3Zm-.8 2 3-8.7-3-1-2.9 8.7 2.9 1Zm1.5-7.7h2.8v-3h-2.8v3Zm1.4-1 3 8.7 2.8-1-3-8.7-2.8 1Zm4.4 6.7h-2.3v3h2.3v-3Zm-.9 1-2-6.5-2.9 1 2 6.4 3-.8ZM50.2 89v3-3Zm-1.5 1-2 6.6 2.9.8 2-6.5-2.9-.9Zm-.9 5h4.8v-3h-4.8v3Zm3.3-1.4v1.6h3v-1.6h-3Zm1.5 0h-4.8v3h4.8v-3Zm-3.3 1.6v-1.6h-3v1.6h3Zm6.2-7v-1.4H54v1.5h1.5Zm2.6 0 1.4-.5-.4-1h-1v1.6Zm2.2 5.5-1.4.5.4 1h1v-1.5Zm.1 0v1.5h1l.4-1-1.4-.5Zm2.3-5.4v-1.5h-1l-.4.9 1.4.6Zm2.6 0h1.5v-1.5h-1.5v1.5Zm0 8.7v1.5h1.5V97h-1.5Zm-2 0h-1.6v1.5h1.5V97Zm0-5.4h1.4v-1.5h-1.5v1.5Zm-.2 0v-1.5h-1l-.4 1 1.4.5Zm-2 5.3v1.5h1l.3-.9-1.4-.6Zm-1.4 0-1.4.6.4 1h1v-1.6Zm-2-5.3 1.3-.5-.3-1h-1v1.5Zm-.1 0v-1.5H56v1.5h1.5Zm0 5.4v1.5H59V97h-1.5Zm-2.1 0H54v1.5h1.5V97Zm0-7.2h2.6v-3h-2.6v3Zm1.2-1 2.2 5.4 2.8-1-2.2-5.5-2.8 1.1Zm3.6 6.4h.1v-3 3Zm1.5-1 2.2-5.4-2.7-1.1-2.3 5.4 2.8 1.1Zm.9-4.4h2.6v-3h-2.6v3Zm1-1.5V97h3v-8.7h-3Zm1.6 7.2h-2v3h2v-3Zm-.6 1.5v-5.4h-3V97h3Zm-1.5-6.9v3-3Zm-1.5 1-2 5.3 2.7 1.1 2.1-5.3-2.8-1.1Zm-.7 4.3h-1.3v3H61v-3Zm.1 1-2-5.3-2.9 1 2.1 5.4 2.8-1.1Zm-3.5-6.3v3-3Zm-1.5 1.5V97h3v-5.4h-3Zm1.5 3.9h-2.1v3h2v-3ZM57 97v-8.7h-3V97h3Zm11.7-8.7h1.5v-1.5h-1.5v1.5Zm0 8.7v1.5h1.5V97h-1.5Zm-2.1 0H65v1.5h1.5V97Zm0-8.7v-1.5H65v1.5h1.5Zm.6 0V97h3v-8.7h-3Zm1.5 7.2h-2.1v3h2v-3ZM68 97v-8.7h-3V97h3Zm-1.5-7.2h2v-3h-2v3ZM70 97h-1.5v1.5H70V97Zm0-8.7v-1.5h-1.5v1.5H70Zm5.5.5-.7 1.3.7-1.3Zm1.5 1.5-1.3.7 1.3-.7Zm0 4.7-1.3-.7 1.3.7Zm-1.5 1.5.7 1.3-.7-1.3Zm-3.4-1.3h-1.5v1.5h1.5v-1.5Zm2.3-.2.7 1.3-.7-1.3Zm.8-.9-1.4-.6 1.4.6Zm0-3-1.4.7 1.4-.7Zm-.8-.8-.7 1.4.7-1.4Zm-2.3-.2v-1.5h-1.5V90h1.5Zm1.1 5.4H70v3h3.2v-3ZM71.5 97v-8.7h-3V97h3ZM70 89.8h3.2v-3H70v3Zm3.2 0c.7 0 1.2.1 1.6.3l1.4-2.6a6 6 0 0 0-3-.7v3Zm1.6.3c.4.2.7.5.9.9l2.6-1.4a5 5 0 0 0-2-2.1L74.7 90Zm.9 1c.2.3.3.8.3 1.5h3c0-1-.2-2.1-.7-3L75.7 91Zm.3 1.5c0 .7 0 1.3-.3 1.7l2.6 1.4c.5-1 .7-2 .7-3h-3Zm-.3 1.7a2 2 0 0 1-.9.9l1.4 2.6a5 5 0 0 0 2.1-2.1l-2.6-1.4Zm-.9.9c-.4.2-.9.3-1.6.3v3a6 6 0 0 0 3-.7l-1.4-2.6Zm-2.7 1.5h1v-3h-1v3Zm1 0c.7 0 1.4-.1 2-.4l-1.4-2.7-.5.1v3Zm2-.4c.6-.3 1.1-.9 1.4-1.5l-2.7-1.3v.1l1.3 2.7Zm1.4-1.5a5 5 0 0 0 .4-2.2h-3v1l2.6 1.2Zm.4-2.2a5 5 0 0 0-.4-2.1l-2.7 1.3.1.8h3Zm-.4-2.1c-.3-.7-.8-1.2-1.5-1.5l-1.3 2.7h.1l2.7-1.2ZM75.1 89c-.7-.3-1.3-.4-2-.4v3h.6l1.4-2.6Zm-2-.4h-1v3h1v-3ZM70.6 90v5.1h3V90h-3Z" mask="url(#d)"/>
    </g>
  </g>
  <defs>
    <clipPath id="a">
      <path fill="#fff" d="M0 0h100v100H0z"/>
    </clipPath>
    <clipPath id="b">
      <path fill="#fff" d="M0 29h100v71H0z"/>
    </clipPath>
  </defs>
</svg>
