<svg xmlns="http://www.w3.org/2000/svg" version="1.0" viewBox="0 0 75 75">
  <defs>
    <clipPath id="a">
      <path d="M38 46h13v13.3H38Zm0 0"/>
    </clipPath>
    <clipPath id="b">
      <path d="M41 54h10v5.3H41Zm0 0"/>
    </clipPath>
  </defs>
  <path fill="#ff8700" d="M20 45h.4c.8.2 2 .3 1.6-1 0 0 2 1.4 2.2 3.4.4 2-4-2.2-4.2-2.5"/>
  <path fill="#dc5b00" d="m23 45.7-.1-.1-1-.6.2-.5 1 1.2"/>
  <path fill="#f43400" d="M35 46c0-.8-1.1-1-1.8-1.2-.3-.1-1.5-.5-1.8 0h-.1l-.8 2.1c-.2.6-.7 1.1-1.2 1.6L28 49.7l-.7.8c-.2 0-.5 0-.7-.2l-.1-.3-.4-.6-.2-.9-.5-2-.5-1.8c-.2-.4-.6-.6-1-.6l-.5-.5c-.3-.2-.7-.5-1-.5h-.7c-.4.2.3 1 .4 1.2l1 1.4-1.2-.7c-.1-.1-.6-.4-.8-.3H21c-.2.1-.2.2-.1.4l-.6-.3a2 2 0 0 0-.7-.1c-.1 0-.7 0-.6.3l.2.4.8.7 2.2 2c1 .9 1.7 1.8 2.3 2.9l1 1.7.6 1.1v.1c.2.5.3 1 .8 1.4l.7.2h.7l.4.7c0 .3.1.7.3.8.3.2.4-.2.4-.4V56c.5-.5.2-1.4 0-2l-.2-1.3V52l.5-.5 1-1.4.4-.5 1.1-1.1 1.3-1.2 1.4-1h.1V46"/>
  <path fill="#932000" d="M23 45.6h-.1"/>
  <path fill="#a41200" d="M26 49c-.2 0-.3-.2-.4-.3l-.1-.3c-.3-.6-.5-1.1-.9-1.6s-1-.7-1.5-1l-.2-.2.2.1-1.1-1.4s-.5-.7-.5-1l.1-.1.4-.1c0 .6.5 1 .9 1.4a1 1 0 0 1-.4 0h.4l1 1a2 2 0 0 1-.5.2h.5l.3.2.5.6h-.2v.1h.2l.5.4a11 11 0 0 0 .1-.5l.5 2 .1.5m3.3 8h.1c-.3-.2-.4-.6-.5-.9l-.6-1.2.3-.3.3.1h.1l.3-.1h.2l-.2-.1V54a3 3 0 0 1-.2-.6h.1-.1V53l-.3-.5.1-.1h-.1l-.2-.3-.3-.5c.1 0 .1 0 0 0l-.2-.1-.2-.3c.4 0 .7 0 1-.2l.2-.2.2.1-.2-.2.5-.6V50l.6.2-.4-.3.7-.8a2.7 2.7 0 0 0 .2.1l-.1-.2.6-.7.2.3a1 1 0 0 0-.1-.4l.6-1a15.8 15.8 0 0 1 .5.2l-.5-.3v-.4c-.2-.3-.5-.4-.9-.4h-.1l.1-.5 3 1.2-.4.2-1.3 1.2-1 1.1-.5.5-1 1.4-.4.5-.2.5v.2l.2 1.3c.2.4.4.9.4 1.3 0 .3 0 .5-.2.7a3.2 3.2 0 0 1 0 .7l-.3.4m-2.4-1.7c-.4-.3-.6-.9-.7-1.3l.2.7.5.6m.4-.2a1 1 0 0 1-.5-.1c.2-.5.6-1 1-1.3v.9c0 .2 0 .4-.3.5h-.2m-.6-.2-.2-.2c-.4-.8-.5-1.7-.8-2.5-.6-1.4-.9-2.8-2-4-.7-.8-1.6-1.5-2.3-2.4l-.2-.3.1.3-.4-1 .2.3.7 1 .6.6.7.8.3.2a17.9 17.9 0 0 1 .6.8h.1l1 1.3h-.1.1l.6 1.3h-.2a.6.6 0 0 0 .2 0v.2l.4 1.3h-.2v.1h.2l.2.4h-.3.4c0 .3.2.4.4.5h.1l.5.2h.1c-.4.3-.7.7-.8 1.1m1.6-.2-.1-.2-.3-.8h.1l.4.7v.2l-.1.1m-.7-1 .2-.5.2.3h-.1l-.3.2m-2.7-2.9-1.7-2-1.3-1.3-1.5-1.3c-.2-.3-1.2-1-1-1.5l-.4.2.4-.2c0 .2.5.5.6.6l.3.3h-.3v.1h.3l.8.7h-.3v.1h.4a28.6 28.6 0 0 0 .7.7h-.2v.1h.2l1 .7a7 7 0 0 0-.7-1l-.3-.4c.9 1 2.5 2.6 3 4.2M18.9 45"/>
  <path fill="#ab5933" d="M29 57c-.2-.1-.2-.5-.3-.8l-.4-.6v-.1h-.9.9l.4.7c0 .3.1.7.3.8"/>
  <path fill="#6e0600" d="M29.2 57H29c-.3-.1-.3-.5-.4-.8l-.4-.6v-.1h-.8c-.3 0-.5 0-.7-.2l-.5-.6.1.2v-.2l.2.2v.1a1 1 0 0 0 .8 0c.2 0 .3-.2.3-.4v-.9h.1a5.8 5.8 0 0 0 .4 1l-.2.5.2-.3.6 1.2c.1.3.2.7.5.8l-.1.1m-1.4-3.5"/>
  <path fill="#ab5933" d="M26 54v-.2l-.7-1.1-1-1.7c-.5-1.1-1.3-2-2.2-2.8L20 46l-.8-.7-.2-.4.2.4.8.7 2.2 2c1 .9 1.7 1.8 2.3 2.9l1 1.7.6 1.1v.1M19 45"/>
  <path fill="#a41200" d="m21.8 46.6-.6-.8.6.8M18.9 45v-.1m0 0"/>
  <path fill="#721f0a" d="M26 54v-.2l-.7-1.1-1-1.7c-.5-1.1-1.3-2-2.2-2.8L20 46l-.8-.7-.2-.4.2.4.8.7 2.2 2c1 .9 1.7 1.8 2.3 2.9l1 1.7.6 1.1v.1M19 45"/>
  <path fill="#6e0600" d="M26.4 54.7 26 54v-.2l-.8-1.1-1-1.7c-.5-1.1-1.3-2-2.2-2.8L20 46l-.8-.7-.2-.4v-.1l.3-.2c0 .5.9 1.2 1.1 1.5l1.5 1.3 1.3 1.2 1.7 2.1c-.5-1.6-2.1-3.2-3-4.2l-.6-.8-.1-.3.2.3c.7 1 1.6 1.6 2.3 2.5 1.1 1.1 1.4 2.5 2 3.9.3.8.4 1.7.8 2.5"/>
  <path fill="#4a0200" d="M26.4 54.9v-.2.2"/>
  <path fill="#d71300" d="M28.5 54.6h-.1l.5-.2h.3v.2H29a1 1 0 0 0-.5 0"/>
  <path fill="#910700" d="M28.2 54.9v-.2l.2-.1h.1a1 1 0 0 0-.3.3m1.2-.2-.2-.1v-.1l.2.1"/>
  <path fill="#610200" d="M28 55.2c0-.2 0-.3.2-.5v.2l-.1.3"/>
  <path fill="#910700" d="M26.7 55a2.2 2.2 0 0 1 .8-1.3l.3-.2v.2c-.5.3-.9.8-1.1 1.3"/>
  <path fill="#d71300" d="m28 53.6-.1-.1c.2-.2.5-.2.7-.2h.4v.1h-.2c-.3 0-.6 0-.9.2"/>
  <path fill="#910700" d="M27.8 53.7v-.2l.1.1v.1m1.2-.2H29v-.2h.1v.2"/>
  <path fill="#610200" d="M27.7 53.7v-.2l.1.2"/>
  <path fill="#d71300" d="M26.4 53.2h-.1l-.1-.1c.9-.1 1.7-.3 2.5-.7-.3.4-.8.5-1.2.6a5 5 0 0 1-1.1.2"/>
  <path fill="#910700" d="M26.3 53.2a2 2 0 0 1-.4 0l.3-.1m2.5-.6v-.1h.1"/>
  <path fill="#d71300" d="M26 52.7v-.1c.4-.2.7-.5 1-1v.1c0 .4-.5.9-1 1m2.2-1.1c-.5-.2-1-.6-1-1v-.1c.1.4.5.7.8 1l.2.1"/>
  <path fill="#910700" d="M28.3 51.7h-.1l-.2-.2.3.1"/>
  <path fill="#d71300" d="M29 50.8c-.4-.2-.8-.7-1-1v-.1l1 1v.1"/>
  <path fill="#910700" d="m29.2 51-.2-.2.2.1"/>
  <path fill="#d71300" d="m29.6 50-.4-.3a.8.8 0 0 1-.4-.7c.1.3.4.6.6.7l.3.2-.1.1"/>
  <path fill="#910700" d="M30 50.2a1 1 0 0 1-.4-.2v-.1l.5.2"/>
  <path fill="#d71300" d="M30.4 49.1a3 3 0 0 1-.9-.7l1 .6-.1.1"/>
  <path fill="#910700" d="M30.6 49.2h-.2V49l.2.2"/>
  <path fill="#d71300" d="m31 48.3-.8-.6c.4 0 .7.3 1 .5l-.1.1"/>
  <path fill="#910700" d="m31.3 48.6-.2-.3c.2 0 .2.2.3.3"/>
  <path fill="#d71300" d="m31.8 47.2-.9-.5c.3 0 .6.2 1 .4h-.1"/>
  <path fill="#910700" d="m32.2 47.5-.4-.3V47c.2 0 .3.2.5.3"/>
  <path fill="#e15e00" d="M26 49.4v-.1.1"/>
  <path fill="#d71300" d="M27.6 51.8c-.5-.1-.8-.6-1-1l-.2-.4c0 .2-.2.4-.4.6l-.4.2V51l.4-.3.3-.5-.5-1-.3.3a1 1 0 0 1-.5.3l.4-.3.2-.3V49l-.8-1.5-.1.7-.7.5c.3-.2.5-.4.6-.7v-.7h.1V47l-.8-.6c.1.2 0 .5-.1.7-.2.2-.4.4-.7.4.2 0 .4-.2.5-.5.2-.2.2-.4.2-.7l-.7-.5.6.4c.4.2.7.4 1 .8l.7 1.4.2.3.4.6v.1l.6 1c.2.5.5 1 1 1.4"/>
  <path fill="#910700" d="m25.6 48.7-.2-.3-.7-1.4c-.3-.4-.6-.6-1-.8l-.6-.4c.5.3 1.1.5 1.5 1 .4.5.6 1 .9 1.6l.1.3m-.1 2.5h-.1l.2-.1h-.1M25 50h-.2.2m-1-1.3c-.1 0-.1 0 0 0m-1-1v-.1"/>
  <path fill="#d71300" d="m22.3 46.7.4-.3.2-.4c.1.4-.3.7-.6.7m-.6-.9c.1-.1.4-.3.4-.5.1.3-.2.5-.4.5m-1.5-.2.1-.1.3-.4-.2.5h-.2"/>
  <path fill="#910700" d="M20 45.7c-.1 0-.1 0 0 0l.2-.1-.3.1"/>
  <path fill="#d71300" d="M21 46.5v-.1l.3-.2-.2.3m.7.7.2-.2-.1.2m1.1-2.6h-.1v-.1l.7-.4c-.1.3-.4.4-.7.5"/>
  <path fill="#910700" d="M22.8 44.6a1 1 0 0 1-.3 0v-.1a.8.8 0 0 0 .4 0h-.1"/>
  <path fill="#d71300" d="M23.9 45.7v-.1l.6-.5c-.1.3-.3.5-.6.6"/>
  <path fill="#910700" d="m23.4 45.8.4-.2h.1l-.5.1"/>
  <path fill="#d71300" d="m24.7 46.6.3-.4c0 .2-.1.3-.3.4"/>
  <path fill="#910700" d="M24.5 46.6h.2-.2"/>
  <path fill="#ff9d00" d="M27.2 51.8c-.5-.6-.8-1.3-1.1-2l-1-2c-.8-1.5-2.4-2.2-3.8-3 0 0-.1 0 0 .1l2 1.5c.8.5 1.2 1.1 1.7 1.8l1 1.9c.3.6.6 1.3 1.1 1.8 0 0 .1 0 0 0m3.9-5.3c-.3.8-1 1.4-1.5 2l-1 1c-.4.3-.7.9-1.2 1.1 0 0 0 .1 0 0 .5 0 .7-.4 1-.7l1.3-1c.6-.7 1.3-1.5 1.4-2.3 0-.1 0-.1 0 0m-6.6-2.1a2 2 0 0 0-.6-.6 13.7 13.7 0 0 0-1.5-.7c.6.5 1.4.9 1.9 1.5.4.5.5 1.3 1 1.9-.1-.8-.3-1.5-.8-2m4.6 8.6c0-.5-.3-.9-.6-1.2 0 0-.1 0 0 0 .3.5.3 1 .4 1.5 0 .4.1.8.4 1.1 0-.5 0-1-.2-1.4"/>
  <path fill="#ff8700" d="M39.4 54.5s.8 0 1 .7c.1.8-.5 1.9-.5 1.9s-.6.4 1 .5c1.4.1 1 .9 1 1-.1.2.8-.6 3-.7 2.1 0 3.3-.3 3.1-1.7-.2-1.4-2.8-1.1-4.3-1.4-1.4-.2-3-1-4.3-.3"/>
  <path fill="#dc5b00" d="m41.6 57.8-.4-.2a3.7 3.7 0 0 0-.6 0 6.4 6.4 0 0 1 2.2-.2h.2l1.2-.1-.8.1c-.3 0-.6 0-.9.2-.3 0-.7 0-.9.2m-.3-1.6.8-.4c.1 0 .2-.2.1-.4S41 55 40.7 55l-.4.1a1 1 0 0 0-.3-.3h.4c.7 0 1.4.2 2 .5l.9.6h-.1c-.6 0-1.3.2-1.9.4"/>
  <g clip-path="url(#a)">
    <path fill="#f43400" d="M50.5 55.2c-.1-.4-.6-.8-.8-1-.2-.1-.4-.2-.5-.5v-1.2l.1-1.7c.7-.2.3-.7-.1-1l-.6-.5c-.2-.2-.2-.4-.3-.7l-.7-1.4V47c-.5-.4-1.4-.1-2 0-.4.1-1.5.4-1.5 1v.1c.9.7 1.9 1.4 2.4 2.4.4.9.4 2 .3 3l-.7 1h-1.7c-.8-.3-1.3-.6-2.2-.8-1.2-.2-2.5-.5-3.4.6l.1.3c.3.3 1 .1 1.3 0 .8 0 1.5.3 2.2.6l.9.6h-.1c-.8 0-1.6.3-2.4.5-.3.2-2 .8-1.8 1.4-.1.3.8 0 1 0a9 9 0 0 1 2.4-.4h1.8l-.8.1c-.3 0-.7 0-1 .2l-.6.6c-.4.2-.8.5-.4.8.2.3.6 0 .9 0l.4-.3 1-.1h2a3.6 3.6 0 0 0 3.4-2c.1-.4.2-.8.4-1 .2 0 1 .3 1.1 0v-.4"/>
  </g>
  <path fill="#a41200" d="M44.4 56h-.2a.3.3 0 0 0-.2 0h-.4l-1-.1.6-.1c-.2-.3-.5-.5-.8-.6a4.6 4.6 0 0 0-2.2-.5h-1.3l-.1-.3v-.1l.2-.2.2.1h1.2v.3-.4h.2a5.3 5.3 0 0 1 1.5.3l-.1.5.2-.5 1.5.6-.3.7.4-.6.5.2h.8v.4l.2-.3.4-.1c-.2.3-.4.5-.8.7h-.5m-5.1 1.9c-.2 0-.3 0-.3-.2v-.4h.7l1.2-.3v.2l.1.2v-.3c.6-.2 1.1-.2 1.7-.2h.1v.4l.1-.4h1.4v.3l.1-.2h.9v.1-.2a4.8 4.8 0 0 0 1-.2l.1.3-.9.1a61.4 61.4 0 0 1-2.5.2h-.6a7.7 7.7 0 0 0-2.4.4l-.8.2m7.3-.9v-.4c.3-.1.6-.3.8-.6v.6a4 4 0 0 1-.5.3l-.3.1m3.4-2.6c-.6-.4-1.3-.7-1.2-1.5h.3v-.1h-.3l.1-1.2v-.2h.2l-.2-.1c0-.3 0-.6.3-.7.1 0 .5 0 .6-.2 0 .2 0 .3-.3.4-.2.2-.2.5-.2.8v2.1c.1.3.3.4.5.6h.2"/>
  <path fill="#ab5933" d="M45.8 54.6h-.1.2m.5-4-.2-.5.2.4"/>
  <path fill="#a41200" d="M46 54.6a1 1 0 0 1-.3 0h.3l.8-1.2v-.8c0-.7 0-1.5-.3-2l-.3-.5.2.3.4.6c.2.3.2.7.2 1v1.1c.1.3-.1.5-.2.8l-.1.3-.5.4H46m3.2-4.7c-.3-.2-.6-.2-.9-.5l-.2-.3h.1-.2l-.5-.5h-.1v.4l-.8-.4h-.1v.6h-.2l-.5-.1h-.1l.1.5a8 8 0 0 0-.8-.8v-.2c.3 0 .8 0 1.1.2v-.2L46 48a3.2 3.2 0 0 1 .9.3v-.1a1 1 0 0 1-.1-.4l.7.1h.5c0 .3.2.5.3.6 0 .3.1.5.3.7l.6.5m-2.6-.3-.2-.2h.2v.2"/>
  <g clip-path="url(#b)">
    <path fill="#a41200" d="M41.6 59.1h-.2c-.2-.2-.2-.4 0-.5h.4c.4 0 .8-.3 1.2-.4h.5v.3h.1V58h1.8v.4l.1-.4 1.2-.2.3-.2v.5l.1-.5.8-.6.3-.3.1.5h.1v-.6l.6-1.2a3.4 3.4 0 0 1 .1.3v-1.1l.4.4.6.2h.1c.2 0 .3 0 .3-.2l.1.4c0 .2-.2.2-.4.2l-.7-.1c-.2.2-.3.6-.4 1l-.5.7a3.6 3.6 0 0 1-3 1.2 9.5 9.5 0 0 0-1.9 0l-1 .2a37 37 0 0 0-1 .4"/>
  </g>
  <path fill="#d71300" d="m40.4 54.1-.1-.4c.2 0 .2.1.2.2v.2h-.1"/>
  <path fill="#910700" d="M40.4 54.5V54v.4"/>
  <path fill="#d71300" d="M42.2 54.4c0-.3 0-.6-.4-.6.4 0 .5.3.4.6"/>
  <path fill="#910700" d="m42 55 .1-.6h.1c0 .2 0 .4-.2.6"/>
  <path fill="#d71300" d="M43.8 55h-.1c.1-.3.2-.6-.1-.7.4 0 .3.4.2.8"/>
  <path fill="#910700" d="m43.4 55.7.3-.7c0 .4-.2.6-.3.7"/>
  <path fill="#d71300" d="M45.1 55.4c.1-.3.2-.7-.1-.8.3 0 .3.4.3.8H45"/>
  <path fill="#910700" d="m45 55.8.1-.4h.2l-.2.3"/>
  <path fill="#d71300" d="M41 57c-.1-.3-.2-.4-.4-.4v-.1c.2 0 .3.1.4.3v.2"/>
  <path fill="#910700" d="M41 57.4V57v.4"/>
  <path fill="#d71300" d="M43 57h-.2c0-.5 0-1-.4-1 .4 0 .6.5.5 1"/>
  <path fill="#910700" d="M42.8 57.3v-.4h.1v.4"/>
  <path fill="#d71300" d="M44.4 57h-.1c0-.4 0-1-.3-1h.2c.2.2.3.6.2 1m-.4-1"/>
  <path fill="#910700" d="M44.2 56H44h.2m.1 1.3V57h.1v.2"/>
  <path fill="#d71300" d="M45.3 57c-.1-.4-.2-.9-.5-1 .4 0 .6.5.6 1h-.1"/>
  <path fill="#910700" d="M45.3 57.1V57v.2"/>
  <path fill="#d71300" d="M46.4 56.7c-.2-.4-.4-.7-.8-.8.4 0 .8.3.9.7h-.2"/>
  <path fill="#910700" d="M46.4 57v-.3a1.2 1.2 0 0 1 0 .3"/>
  <path fill="#d71300" d="m43.5 58.1-.2-.3a.9.9 0 0 0-.6-.2h.2c.2 0 .4 0 .5.2l.2.3h-.1"/>
  <path fill="#910700" d="m43.6 58.5-.1-.4h.1v.4"/>
  <path fill="#d71300" d="M45.4 58c0-.3-.1-.7-.4-.7h-.1.1c.3 0 .5.4.5.8h-.1"/>
  <path fill="#910700" d="M45.4 58.5V58h.1v.4"/>
  <path fill="#d71300" d="M47 57.7c0-.3 0-.7-.3-.7.4 0 .5.3.4.7"/>
  <path fill="#910700" d="M47 58.3v-.6h.1l-.1.6"/>
  <path fill="#d71300" d="M48.2 56.8c0-.2-.2-.4-.4-.4l-.3.1.3-.2c.2 0 .4.2.6.4l-.2.1"/>
  <path fill="#910700" d="m48.4 57.3-.2-.5.2-.1v.6"/>
  <path fill="#d71300" d="M47.7 56.1c-.4-.4-1-1-1.6-1 0 0-.1 0 0 0h.1c.6 0 1.3.4 1.6 1m1.2-.6c0-.2-.2-.3-.3-.5a2 2 0 0 0-.6-.4l-1-.2h-.5.7a2.1 2.1 0 0 1 1.5.6l.2.3v.2"/>
  <path fill="#910700" d="m49.1 55.8-.1-.3v-.2l.1.5"/>
  <path fill="#d71300" d="M49.7 54.6a3 3 0 0 0-2-.8 3 3 0 0 0-.9.1 2.4 2.4 0 0 1 1.6-.1c.5 0 1 .3 1.3.7M48 53h-.2c-.2 0-.5 0-.7-.2h1.6v.1H48"/>
  <path fill="#910700" d="M48.7 53v-.2h.3l-.3.1m-1.7-.1"/>
  <path fill="#d71300" d="M47 51.6a2 2 0 0 1 1.3-.4h.5v.2H48c-.3 0-.6 0-1 .2"/>
  <path fill="#910700" d="M49 51.4h-.2v-.1h.3"/>
  <path fill="#d71300" d="M46.7 50.6a3 3 0 0 1 1.8-.5c-.6.2-1.2.2-1.8.5m-.7-1.1.3-.2a3 3 0 0 0-.2.2m.5-.3.7-.2.2.1V49h.5v.1h-.5a3.1 3.1 0 0 0-1 .1"/>
  <path fill="#910700" d="m46.4 49.3.2-.1-.2.1m1.8-.2H48h.2m-.7 0-.2-.1h.2v.1"/>
  <path fill="#ff9d00" d="M45.7 55.6c-.4.3-.8.5-1.4.5-.5 0-1-.2-1.6-.1-1.1 0-2 .6-3 1l1.5-.5a4 4 0 0 1 1.8-.4c.6 0 1.1.2 1.7.1.4 0 .8-.3 1-.6m1.6-2.3-.4.4-.2.5-.7 1c.3-.2.6-.4.8-.8l.5-1.1m.1-1.3-.2-1.3c-.2-.7-.8-1-1.3-1.5.4.5.9.9 1 1.4l.3 1.2V53h.1v-1m.3 4c-.3.3-.7.8-1.2 1-.5.2-1.3.3-1.9.3l-.8.1-.8.1c-.5.1-1 .5-1.3 1l.7-.6a2 2 0 0 1 .9-.3l1.8-.1c.5 0 1 0 1.5-.2.6-.5.7-.5 1-1l.1-.3M46 54.6c-.5 0-1.1 0-1.7-.2l-1.8-.6c-1-.3-2.3-.5-3.3.2 1.2-.5 2.4-.2 3.5 0l1.6.6c.6.2 1.2 0 1.8.1m4.2.3c-.2-.4-.5-.6-.8-.8-.4-.2-.7-.5-1-.9.3.4.4.7.7.9l.5.3.6.4"/>
  <path fill="#e1dbcc" d="M66.5 35.7c-.2-.2-.8-1-1.2-.8l-.6.7c-.1.2-.2.5 0 .8v-.1c.1-.2.3-.5.6-.2l.1.3c-.1.4-.8.5-1.2.6l-.2.1c-.6 0-1-.3-1.3-.6l-1-.9-.2-.2a63.4 63.4 0 0 0 3.8-2.4c.3-.2.7-.4.9-.7l-.1-.1c-.5 0-1-.2-1.4-.4l-1.4-.5c-.7-.3-1.4-.6-2.1-.7l.8-.7v-.3c-.2-.2-.4 0-.6 0h-1c-.4 0-.8 0-1.1-.2-1.2-.6-2.2-1.6-3.4-2.2L54 26l-2.2-1.4-4-2.9c-2-1.3-3-2.2-5.3-1.9l-3.2.6-2.9.6-1.3.3h-.4c-.3.1-.5.1-.8 0l-.5-.6-.8-.8c-.4-.9.6-1.8 1.1-2.4l2-2.2a19.6 19.6 0 0 0 2.1-3l.1-.4v.1c.2 0 .3-.3.4-.5v.2l-.1.2.4-.8V10c.1-1 0-2.1-.3-3.1a10.1 10.1 0 0 0-5-6l-2-.7h-1.1.1V.1h-.1a3.4 3.4 0 0 0-3 .7l.5-.7h-.1c-2 .1-3.6 1.3-5 2.6a8 8 0 0 0-2 4 8.2 8.2 0 0 0 2.4 8.5l1.3 1 1.2 1-.2 1.4c0 .2 0 .5-.2.7 0 .2-.2.3-.3.5l-.7.7-1 .9a46.3 46.3 0 0 0-4.5 3.9l-.8 1a6 6 0 0 0-.8 2.6c0 1.6.6 3 1.1 4.5a25.2 25.2 0 0 0 5.2 6.9 28.8 28.8 0 0 0 21 8.2 7.5 7.5 0 0 1 .9.7l-.1-.7c.3 0 .8 0 1.1.2v-.2L46 48c.3 0 .6.1.8.3l.1-.1a1 1 0 0 1-.1-.4l.7.1h1.1l-.3-.4 1.7-.1 2.3-.4c1.5-.5 2.8-1.4 4.2-2l4.5-2a26 26 0 0 0 4-2.5l.6-.6v-.2l-1.5-.4c.5-.1 1-.2 1.4-.5.5-.2.8-.7 1-1.2l.4-.6c.2-.5 0-.9-.4-1.3"/>
  <path fill="#332b27" d="M51 41.3h-.3a20.8 20.8 0 0 1-2.6-1l.5-.1 1-.2.8-.4a1.7 1.7 0 0 1 .7-.1l.7.2.9.1c.4 0 .9 0 1.4-.2l1.4-.1h.1s.1 0 0 0a7.5 7.5 0 0 1-4.5 1.8"/>
  <path fill="#d3c8af" d="M44.6 48.4c-1-.6-1.8-1.3-3-1.6-.9-.4-2-.6-3-.6 1.2.6 2.7.5 3.6 1.6H40l-2-.2a22.2 22.2 0 0 1-7.6-2.1l-.7-.3a22.8 22.8 0 0 0 1.1.6 34.2 34.2 0 0 1-4.2-2.6l.8.1-1.1-1.9.5.3c-.2-.6-.5-1.1-.6-1.8-.2-.7-.2-1.4-.5-2h.1l1.6 2.3c3.8 4.1 7.4 4.8 13.1 5.3 1.7.1 3.5.2 5 1h.1v-.2l-.1-.7 1 .8h.1c.2-.8 0-1.7.4-2.5.8.8 2 1.1 3 1.1.7 0 1.3 0 2-.2a14 14 0 0 0 5-2.2l-3.4-.3a7.2 7.2 0 0 1-3.3-1h.3a9.2 9.2 0 0 0 2.3.4 10.2 10.2 0 0 0 1.8 0 6.5 6.5 0 0 0 1.9-.4l2.4.1h.8l-2 .4.9.1h1l1.1-.1h.2c-1.2 1-2.7 1.6-4 2.3l-2.3 1-2 .3h1.4v.2a7.6 7.6 0 0 1-4.8 1.6c-.5 0-1 0-1.3-.4-.3-.4-.4-.9-.5-1.3-.2.7.1 1.4.2 2.1v.2c.1 0 0 0 0 0-.6 0-1.1-.3-1.6-.6a30.9 30.9 0 0 1 0 .7l-.7-.5.1.8v.1l-1.1-.6.2.6m-8.8-.7h-.1m0 0"/>
  <path fill="#d3c8af" d="M45 40.5h-.4c-1.4 0-2.5-.7-3.8-1.2l-.1.8c-1.4-.5-3-.6-4.3-1.5-1.1-.8-2.4-1.7-2.7-3-.2.4-.1.7 0 1.1-3.2-.6-4-4.4-4.3-7.2l-1 .7c0-.5.2-.9.3-1.3h-.3l.4-.4v-.1a7.4 7.4 0 0 0-1.6 0c.7-.4 1.6-.7 2.4-.7l-1-.5a2 2 0 0 1 1-.4l-1-.1v-.1c.6-.4 1.3-.5 2-.5v.1h.2V26v.7a7.1 7.1 0 0 0 .7-.8v.1l-.8 1.9c.5-.5 1-1 1.5-1.2l-1 1.8c-.2.4-.4 1-.4 1.5v.5a6.3 6.3 0 0 0 2.9 3l.1-.4h.1a9.7 9.7 0 0 0 5 4v-.5c.3.4.7.6 1 .8a10 10 0 0 0 4.4 1.2h2.2-1l2.5 1.6-3 .2m8.1-2.9H52l-1-1.3a15 15 0 0 0-1-1.3l-1.2-.9-1-1.2c-.4-.3-.9-.5-1.4-.6a61 61 0 0 0-4.4-.5h-.2l2.4.4c.8.1 1.5.3 2.2.8.6.4 1.1 1 1.5 1.6.3.5.7 1.1.7 1.7l-2.5-.1c-.7 0-1.3-.2-2-.3.3.1.5.3.7.6L43 36c.3.2.6.5.7.9-.7 0-1.2-.3-1.8-.5l-1.7-.6a5.4 5.4 0 0 1-2.7-1.7l.8-.3c.1 0 .3 0 .5-.2h-.2l.6-.2c-.6 0-1.2 0-1.7-.2-.6 0-1-.3-1.4-.7-.8-.8-1.4-1.8-2-2.7-.4-.4-1.2-1.3-.4-1.7.7-.3 1.5-.2 2.2-.3l-1-.7V27a2 2 0 0 1 1-.3c-.6-.4-1.3-.6-2-.8v-.1a3 3 0 0 1 1.2-1.2l1.6-.7c-.4-.3-1-.2-1.4-.4v-.1l1.2-.5c-.3 0-.6 0-.8-.2 1.1-1 2.6-1.6 4-2.3l.4-.1-1 .5c-.7.3-2.3 1.6-2.6 1.8-.5.4 1.5.9 2.2 1.2h-.3c-1 0-3 1-2.8 1.8.2 1 2.8 2.5 3.7 2.7l-2.9-.7c.2.5.5.8 1 1a5.6 5.6 0 0 0-1.5-.3 1 1 0 0 0-.5.2c-.6.4.3 1.7.5 2 .5.8 1.1 1.6 2 2h.9c.6 0 1.2 0 1.8-.2l.5-.1c-.5-.9-1.4-1.3-2.1-1.8 1 0 1.9.5 2.8.7 1 .2 1.9.2 2.8.2 1 .1 2 .4 3 .7a7.4 7.4 0 0 0 2.8.3 6 6 0 0 0-3-3.4 4 4 0 0 1 2 .9l2 1.4c.8.4 1.7.6 2.6.6l2.9-.2v-.1c-.3-.6-.8-1.1-1.3-1.5h.3l-.3-.5c.8.4 1.6.6 2.4.6h.2c.8 0 1.5-.2 2.2-.5h.4l.4.1v.1c-.5.5-1.3.8-2 1h-.8l-1.8-.2 1.4.7v.1c-.4.5-1 1-1.8 1h-1.6l-1.8.1a17 17 0 0 1-.2 0l3.5.4a5 5 0 0 1 1.7.5l1.3.7h.1v.1l-1.4 1.1c-.5.3-1 .6-1.5.7h-2.8l.8.2a8.5 8.5 0 0 0 .8.2c-.4.2-.8.5-1.3.6a2 2 0 0 1-.3 0l-1-.1.2.1h-.1.2l1 .5c.1 0 .1 0 0 0l-.6.1m7.7-3.3c-1.3-.2-2.3-1.2-3.6-1.6.2-.3.5-.4.8-.5a15.5 15.5 0 0 0 2.4-1.2l-1.2 1.3v.2l2 .4 1.2.2h.5l.8-.4-.1.1a2 2 0 0 1-1 .4h-.2a8 8 0 0 1-.3 0h-.6.2-.2l.7.4a1.8 1.8 0 0 1-1.5.4l.2.2v.1m5.2-2-.1-.1m-4-2.5-.1-.1-.3-.1h-.3.6v.2m-8.3-1H53l-.6-.3 1.2.3m-23.2-2.8-.7-.4v-.1c.3 0 .6.2.7.5m8.7-5.4"/>
  <path fill="#302721" d="M53.7 41.7H55h-1.1m-1.9 0-1.2-.4h.4c1.6 0 3.3-.7 4.6-1.7v-.1h-.2l-1.4.1-1.4.2-1-.1-.6-.2H51l-.6.1-.9.4-.9.2h-.5c-.9-.4-1.7-1-2.6-1.5h1l1.8-.1h1.2c.2 0 .4 0 .6-.2l.5-.2.7-.1 1.1.2 1 .2h.2c.4 0 .7-.2 1-.3l1.9-.8h.1c1 0 1.7.5 2.6.7a10 10 0 0 1-3.4 2.4c-1.3.5-2.6.8-3.9 1.1m-2.2-2.8v.1l2 .6 1.1.1h.9c1.3-.1 2.7-.2 4-.7l.8-.1-4.6.4h-.7c-1.2 0-2.3-.2-3.5-.4m5.9-.6h-.4l-1 .3 1.4.1 3.1-.2h-.3l-1.6-.1-1.2-.1m1-.7-.8.3c.8.2 1.9.2 2.6.3h.7l-2.5-.6m-.6 4c.6-.2 1.1-.4 1.7-.8l1.2-1a2 2 0 0 1 1.2-.4 23.4 23.4 0 0 1 2.7 0l.3.1h-1.5c-.9 0-1.7 0-2.4.3v.1a12.5 12.5 0 0 1 3.8-.1v.2l-1.4-.1c-1.1 0-2.2.1-3.1.6 1.4-.2 2.8-.4 4.2-.4h.2c-.7.9-1.8 1.3-3 1.5H59l-2.4-.2-.7.2"/>
  <path fill="#e3d8c0" d="m45 49.3-.8-.7a49.8 49.8 0 0 1-8.3-1 45.2 45.2 0 0 0 8.3 1l.9.7m-9.3-1.7"/>
  <path fill="#c9b99a" d="M45 49.3s.1 0 0 0h.1m0 0"/>
  <path fill="#bca984" d="m45 49.3-.8-.7a49.8 49.8 0 0 1-8.3-1h-.1a29 29 0 0 1-6-2.4l.7.3a26.7 26.7 0 0 0 7.6 2.1l2 .1 1.9.2h.2v-.1c-1-1-2.4-1-3.6-1.6 1 0 2.1.2 3 .6 1.2.3 2 1 3 1.5h.1l-.2-.6 1 .6h.1l-.1-1a17.7 17.7 0 0 1 .8.6l-.1-.7c.5.3 1 .6 1.6.6 0 0 .1 0 0 0v-.2c-.1-.7-.4-1.4-.2-2.1.1.4.2 1 .5 1.3.3.4.8.5 1.3.5h.5c1.6-.2 3.1-.7 4.3-1.7v-.1h-1.5l2.1-.5c.8-.2 1.5-.6 2.2-1 1.4-.6 2.9-1.2 4.1-2.1v-.1h-1.2l-1.1.1-1-.1 2-.3h3.7l.6-.3a19.3 19.3 0 0 0-3 1.8l-4.5 2c-1.4.7-2.7 1.6-4.2 2a17.8 17.8 0 0 1-4 .6l.3.4h-.5a8.5 8.5 0 0 1-1.3 0l.1.3-1-.2.2.5v.1l-1.1-.1v.6c.1 0 0 0 0 0m19.8-8.7"/>
  <path fill="#2a2119" d="M60 41.5h-.1c1.2-.3 2.3-.6 3-1.5h.6l-.6-.1.1-.2h1.4l-1.1.9.2.1c-.3.4-.7.5-1.1.5l-2 .2H60m4-.2.9-.7-1 .7m.4-1.5-1.2-.3h-.3.1c.5 0 1 .1 1.4.3m.3-.3"/>
  <path fill="#bca984" d="M60.6 35.5h.5-.5"/>
  <path fill="#2a2119" d="M64.5 39.3a22 22 0 0 0-4.4-.3s-.1 0 0 0l.8-1-1.4-.4-1.6-.4V37a21.8 21.8 0 0 1 2.7-1.6h.7c.1 0 .3 0 .5.2l.9.8c.4.3.7.5 1.2.6h.3c.4-.2 1-.3 1.2-.7l-.1-.3-.2-.1c-.2 0-.3.1-.4.3v.1l-.1-.3.1-.5.6-.7h.2c.3 0 .8.6 1 .8.3.3.5.6.5 1l-.1.3c0 .2-.2.4-.4.6-.2.5-.5 1-1 1.2-.4.3-.9.4-1.4.5h.4M61 36c-.6 0-1.2.2-.9.4l3.2 1.4h.2c.5 0 1.5-.5 2.1-1l.2-.2c-.6.4-1.4.9-2.1.9l-.4-.1-1-.5c-.3-.3-.7-.9-1.1-.9H61m4.5-.6.3.2 1 .8.1.3c0-.5-.6-1.2-1-1.5h-.3c-.3 0-.4.4-.6.6a15.7 15.7 0 0 1 .5-.4"/>
  <path fill="#bca984" d="M52.8 37h-.2.2m2.3-.6-.8-.2.8.1m4.1-2.1-.1-.1h.1m-20.8-.3.3-.1h.2l-.5.1m23.8-.6h-.6.6"/>
  <path fill="#e3d8c0" d="m65.3 33 .2-.1h-.2"/>
  <path fill="#bca984" d="M52.6 32.6a17 17 0 0 0 .2 0h-.2"/>
  <path fill="#c9b99a" d="m61 30.8.2-.2-.2.1"/>
  <path fill="#e3d8c0" d="M36.3 21c.4 0 .9 0 1.3-.2l-1.3.3"/>
  <path fill="#2a2119" d="M56 41.5c.6-.2 1.1-.4 1.7-.8l1.2-1a2 2 0 0 1 1.2-.4 23.6 23.6 0 0 1 2.7 0h-2.7a2 2 0 0 0-1.2.4l-1.2 1c-.6.4-1.1.6-1.7.8"/>
  <path fill="#bca984" d="M44.6 38.4c-1.3 0-2.7-.2-3.8-1a4 4 0 0 1-1.4-1.2c-.3-.5-.7-1-1.1-1.3l.3 1.5h-.1c-1-.3-2.1-1-2.8-2l2.7-.6-.7.3c.6 1 1.6 1.4 2.6 1.7l1.7.6 1.7.5c0-.4-.3-.7-.6-1 .6.3 1.2.3 1.7.5l.1-.1-.6-.6 1.9.3 2.5.1c0-.6-.4-1.2-.7-1.7-.4-.7-.9-1.2-1.5-1.6-.7-.5-1.4-.7-2.2-.8l-2.4-.4h.2a21.9 21.9 0 0 1 4.4.5c.5 0 1 .3 1.4.6l1 1.2L50 35l1.1 1.3 1 1.3H54v-.1l-1-.4c.6.2 1.3.3 2 .3.1 0 .1 0 0 .1-.6.3-1.1.5-1.7.5H53a4 4 0 0 1-1.6-.4 2 2 0 0 1-.8-.9l-.8-1.6a6.4 6.4 0 0 0-4.4-3l-.6-.2 3 1.2a5 5 0 0 1 1.7 2c.4.8.5 1.7.6 2.6v.1l-1.4.3-1-.2c-.6-.3-1-.9-1.7-1.2.5.4 1 .9 1.3 1.4v.1h-1.1l-.8-.5-1-.8-.7-.5c.6.5 1.3 1.2 1.3 2h-.4m10.2-1.2h-.2l-1.9-.2-.1-.1h1.2c.5 0 .9-.3 1.3-.5l1.7.2v.1c-.6.3-1.3.5-2 .5m1.9-1-2.8-.2.4.2-.8-.2h2.8c.6-.1 1-.4 1.5-.7l1.4-1v-.1l.9.8c-1 .4-1.8 1.1-2.9 1.3a5 5 0 0 1-.5 0"/>
  <path fill="#c9b99a" d="M60.5 31h.2l.3-.3-.5.3"/>
  <path fill="#bca984" d="M61.5 34.6a2 2 0 0 1-1-.3l-1.8-.9a59.2 59.2 0 0 0-1.7-.9c.8-.2 1.6-.6 2.4-1l1.3-.6-.2.1a11.6 11.6 0 0 1-2.4 1.2l-.8.4v.1c1.3.4 2.3 1.4 3.6 1.6 0 0 .1 0 0 0l-.1-.3h.4c.4 0 .7 0 1-.4.1 0 .1 0 0 0-.1-.2-.4-.2-.6-.4h.2l1.4.6v.1a3 3 0 0 1-1.4.7h-.3m-2.4-.5-1.3-.7a5 5 0 0 0-1.7-.5l-3.6-.3c1.4 0 2.6 0 3.9.2a5.4 5.4 0 0 1 2.7 1.3"/>
  <path fill="#c9b99a" d="m39.5 20.5.2-.1h-.2"/>
  <path fill="#bca984" d="M36.8 34c-.5 0-1-.1-1.4-.3-1.3-.7-1.3-2.3-2-3.5a9.2 9.2 0 0 1 .1 2.7c-1-.8-2.2-2-2-3.5 0-.7.4-1.3.7-2 .4-.5.7-1 1.2-1.4l-1.3.3c.5-.8 1.4-1.6 2.3-1.6h.1l-.6-.7c-.2 0-.3-.3-.2-.4 0-.3.4-.3.5-.3h1.1l-.5-.5-.2-.3c0-.3.4-.6.7-.7l.7-.3c.3 0 .6-.3 1-.4l.6-.3 1.6-.3h.3l.3-.1c-1.4.7-2.9 1.2-4 2.2v.1l.8.2-1.2.5c.4.3 1 .2 1.4.5l-1.6.7a3 3 0 0 0-1.2 1.2c.7.3 1.4.5 2 .9a2 2 0 0 0-1 .3l1 .8c-.7 0-1.5 0-2.2.3-.8.4 0 1.3.3 1.7l2 2.7c.5.4 1 .6 1.5.7l1.7.2-.6.3a9.4 9.4 0 0 1-2 .2"/>
  <path fill="#c9b99a" d="m63.8 32.7 1-.9-1 1"/>
  <path fill="#bca984" d="M63.5 33.6h-.4l-.9-.4h.4a2 2 0 0 0 1-.4h.1l1.1-1 1.2.4h.2c-.1.3-.4.5-.7.7l.5-.4-1.3.8a3 3 0 0 1-1.2.3"/>
  <path fill="#c9b99a" d="m61 30.7.3-.2.7-.6-.8.7H61m0-1h.4-.4"/>
  <path fill="#bca984" d="M55.9 32.5h-3.1l1.8-.1h1.7c.7 0 1.5-.5 1.9-1a6 6 0 0 1-1.5-.8l1.8.2h.8c.7-.2 1.5-.5 2-1l-.4-.2h.5l.3-.1h.3v.4l-.7.6-.3.2-.9.3a4.2 4.2 0 0 1-1.4.2l-1-.2c.2.2.6.3 1 .4v.1l-1.6.8-1.2.2"/>
  <path fill="#b39c74" d="M60.7 31c0-.2.2-.3.3-.3l.2-.1-.2.1-.3.2"/>
  <path fill="#a88f63" d="M53 41.7a5.5 5.5 0 0 1 .1 0h.6-.7m9.7-.1h-1.1l-1.2-.1a21.8 21.8 0 0 0 2.4-.2l1.2-.1-.6.4h-.7m-18.3-2.9h-1a10 10 0 0 1-3.4-1.2 3.6 3.6 0 0 1-1-.8v.7a9.7 9.7 0 0 1-5-4.1l-.2.4a6.3 6.3 0 0 1-2.8-3l-.1-.5c0-.6.2-1 .4-1.5l1-1.7v-.1c-.6.2-1 .7-1.5 1.2l.8-1.9-.7.7v-.7a4 4 0 0 0-.4-.2.8.8 0 0 0-.7-.5h1.1l-1-.4V25a8.8 8.8 0 0 1 4-.7l-.8-.7c.5-.4 1-.4 1.6-.5a9.7 9.7 0 0 0-1.2-.5c.5-.7 1.3-.9 2-1.2H35l-.4.2h-.2a1 1 0 0 1-.6-.2l-.5-.5.5.5.6.2h.2l.4-.1 1.3-.3 1.3-.3-.6.3-1 .4-.7.3c-.3.1-.7.4-.7.7 0 .2.1.3.2.3l.5.6h-.5l-.5-.1c-.2 0-.6 0-.6.3-.1.1 0 .3.2.4l.6.7c-1 0-1.9.8-2.4 1.5v.1c.5 0 .9-.2 1.3-.3a6.1 6.1 0 0 0-1.9 3.4c-.2 1.4 1 2.7 2 3.5h.1l-.1-2.7c.6 1.2.6 2.8 2 3.5.4.2.8.2 1.3.2a6.8 6.8 0 0 0 2-.2l-.4.1c-.9.3-1.8.3-2.6.5v.1c.6 1 1.6 1.7 2.7 2 .1-.5 0-1-.2-1.5l1.1 1.3c.4.5.8 1 1.4 1.3 1.1.7 2.5 1 3.8 1h.4v-.1c0-.8-.7-1.5-1.3-2l.8.5c.3.3.5.6.9.8l.8.4.7.1h.4c-.3-.6-.8-1-1.3-1.5.6.3 1.1.9 1.8 1.2l.9.2c.5 0 1-.2 1.4-.3 0-1-.2-2-.6-2.7a5 5 0 0 0-1.8-2c-.9-.5-1.9-.9-2.9-1.2l.6.1c.7.1 1.3.4 2 .7 1 .6 1.8 1.4 2.4 2.4l.8 1.6c.2.4.4.7.8.9.5.3 1 .3 1.6.4h.2c.6 0 1.1-.2 1.6-.4l.2-.1v-.1a8.3 8.3 0 0 1-2.3-.4l2 .2h.1c.7 0 1.4-.2 2-.5a12.3 12.3 0 0 1-1.7-.4l-.8-.1-.4-.2c.9 0 1.8.3 2.8.3h.5c1-.2 1.9-.9 2.8-1.2V35l-.8-.8-.1-.1-.6-.5a6 6 0 0 0-2.1-.8c-1.3-.3-2.5-.2-3.8-.2h.2l1-.1h1a10.3 10.3 0 0 1 1 0c.5 0 .8 0 1.3-.2l1.6-.8-1-.5 1 .2h.2l1.2-.2 1-.3-.4.2-1.3.6a17.5 17.5 0 0 1-2.4 1l1.7 1 1.7.8a2.6 2.6 0 0 0 1.4.3c.5 0 1-.4 1.4-.7l-1.4-.7h.4l1 .3h.3a3 3 0 0 0 1.2-.2l1.3-.8-.5.4h-.2a35 35 0 0 1-3.8 2.5l.3.2-.3-.2h-.4l-.5.1a7 7 0 0 0-1.7.8c-.3.2-.7.5-1.1.6h-.3a2 2 0 0 1-.4 0c-.9.6-1.8 1-2.7 1.3l-1 .2h-.5l-1.7-.5a5.8 5.8 0 0 1-2.8.7H46l-1.5.1"/>
  <path fill="#251c13" d="M53.1 41.7h-1.2l3.9-1.2a11.5 11.5 0 0 0 3.5-2.4c-1-.2-1.7-.7-2.6-.7h-.2l-1.9.8a4.7 4.7 0 0 1-1.3.3 3 3 0 0 1-.9-.2l-1.1-.2-.7.1-.5.2-.6.1h-1.2l-1.7.1H49c.8-.1 1.5-.4 2.1-.7l1.7.4h.4l1-.1c1-.3 2-.7 2.8-1.3h.7c.4 0 .8-.4 1.1-.6a7 7 0 0 1 1.7-.8l-.3.2a21.8 21.8 0 0 0-2.4 1.5c.6 0 1 .2 1.6.4l1.4.5c-.2.3-.5.6-.9.8v.1h.9a22 22 0 0 1 3.7.4h.4a5 5 0 0 1 .7.3v.1l-.8.7-1 .7-1 .1a22.1 22.1 0 0 1-2.5.2l2-.3c.4 0 .8 0 1-.4.1 0 .1 0 0-.1l-.1-.1 1-.8h.3l-.3-.1a4 4 0 0 0-1.4-.3l-1.4-.1H60a2 2 0 0 0-1.2.4l-1.2 1c-.6.4-1.1.6-1.7.8l-1.1.1-1.2.1H53m8.7-6-.5-.2H61h.4l.3.1"/>
  <path fill="#a88f63" d="M30.5 26.3V26h.2l-.2.1"/>
  <path fill="#934f2a" d="M38.2 7a10.1 10.1 0 0 0-5-6l-2-.7h-1.1.1V.1h-.1a3.4 3.4 0 0 0-3 .7l.5-.7h-.1c-2 .1-3.6 1.3-5 2.6a8 8 0 0 0-2 4 8.2 8.2 0 0 0 2.4 8.5l1.3 1 1.2 1-.2 1.4c0 .2 0 .5-.2.7 0 .2-.2.3-.3.5l-.7.7-1 .9a46.3 46.3 0 0 0-4.5 3.9l-.8 1a6 6 0 0 0-.8 2.6c0 1.6.6 3 1.1 4.5a25.2 25.2 0 0 0 5.2 6.9l3.5 2.8.9.1c-.5-.6-1-1.2-1.2-1.9l.5.3c-.2-.6-.5-1.1-.6-1.8-.2-.7-.2-1.4-.5-2 0 0 0-.1 0 0 .3 0 .6.3.8.4a4 4 0 0 0-.5-1v-.1c.4 0 .7.3 1 .4-.3-1-1-2-1.7-2.7 0 0 0-.1 0 0 .5 0 .9 0 1.3.2l-.6-.8c-.1 0 0-.1 0 0l.9.3c0-.4-.2-.9-.4-1.2l-.8-1c.4 0 .7.2 1 .3a4 4 0 0 0-.7-.8v-.1h1.1c-.3-.7-.9-1.3-1.5-1.8v-.1h2.1c-.2-.3-.4-.5-.7-.6v-.1c.2-.2.5-.2.8-.2-.3-.2-.6-.2-1-.2v-.1a5 5 0 0 1 2.7-1l-1-.5a2 2 0 0 1 1-.4l-1-.1v-.1c.7-.5 1.5-.5 2.3-.5l-1.1-.6v-.1h1.1l-1-.4v-.1a8 8 0 0 1 4-.7l-.8-.7c.5-.4 1-.4 1.6-.5l-1.1-.4c.4-.8 1.2-1 2-1.3H35l-.4.2c-.3 0-.5 0-.8-.2l-.5-.5-.8-.8c-.4-.9.6-1.8 1.1-2.4l2-2.2a19.6 19.6 0 0 0 2.1-3l.1-.4v.1c.2 0 .3-.3.4-.5v.2l-.1.2.4-.8V10c.1-1 0-2.1-.3-3.1"/>
  <path fill="#743318" d="M27.5 43.3a2.5 2.5 0 0 1-.3 0 24.1 24.1 0 0 1-7.2-8.6c-.5-1.3-1-2.6-1-4a9.7 9.7 0 0 1 1.1-4.5 4.4 4.4 0 0 1 .6-.5l.4 1.4a7.6 7.6 0 0 1 1.4-2.2v.4c.3-.6.8-1 1.4-1.4.2.3 0 .7 0 1l1-1.3.4-.3-1.6 3c-.2-.3-.2-.6 0-1h-.1c-.7 1-1 2.3-1.6 3.3l-.3-.4c-.5.5-.4 1.2-.6 1.9l-.4-.4h-.1c-.2.7-.1 1.5 0 2.2l1 2.2v-1a6.3 6.3 0 0 0 2.6 2.4c-.5-1-.9-2-1.1-3 .5.3 1 .7 1.6.8h.1c0-1-.5-2-.7-3 .5.4.9.8 1.4 1 0 0 .1 0 0 0l-.6-2.4c.4 0 .7.2 1.1.4 0-.5-.2-1-.3-1.4h1.9s.1-.1 0-.2L27 27l1.1-.5v-.1l-.2-.1 1-.5c.4-.4-.2-.6-.5-.7 1-.8 2.5-1 3.8-1.1 0 0 .1-.1 0-.1l-1.3-.7c.5 0 1 0 1.6-.2a4 4 0 0 0-1-.6l.5-.1v-.1l-.4-.2a4 4 0 0 1 1-.3l-1.3.2h-.5l-.5.5-.3.2v-.5.2c.1-.3.3-.7.6-.8l.3-.1.9.3c0-.4.3-.6.6-.6h.1c.5 0 1 .3 1.3.5v.1l-1.4 1h.3c.6 0 1.1.2 1.7.4h.3c-.5 0-1 0-1.5.3l.7.8h-.6a8.8 8.8 0 0 0-3.4.7l1 .5h-1.1l1 .7h-.4c-.6 0-1.3 0-1.9.5l1 .2a2 2 0 0 0-1 .3v.1l1 .5a5 5 0 0 0-2.8 1c.4 0 .8.1 1.1.3-.3 0-.6 0-.8.2l.7.6a4 4 0 0 1-1 0h-1v.1l1.4 1.9H26l.7.9-1-.3.8 1c.2.3.4.7.4 1v.2l-.9-.4v.1l.6.8-1.3-.3v.1c.8.7 1.4 1.7 1.8 2.7l-1-.4.4 1.1-.7-.4h-.1c.3.6.3 1.3.5 2 .1.7.4 1.2.6 1.8-.2 0-.3-.2-.5-.3.3.7.7 1.3 1.2 2h-.1"/>
  <path fill="#743318" d="m26.5 24.6.1-1.8.3 1.2a3.7 3.7 0 0 1 1-1.3l.1.7c.3-.6.7-1 1.2-1.5l-.4.7.6-.6h.2l.3.1c-.5.1-.8.5-1 .8a9 9 0 0 0-.4.2l-1 1 .2-.9h-.1c-.5.4-.7 1-1.1 1.4"/>
  <path fill="#5b210e" d="m27.2 43.3-.5-.1a40.4 40.4 0 0 1-6.4-6c-.9-1.1-1.7-2.4-2.3-3.7-.5-1.3-1-2.8-1-4.3V29v1.5a8.4 8.4 0 0 1 1.7-3.1v.6l.6-1 .8-.8-.3.6a9.7 9.7 0 0 0-.7 4c0 1.3.4 2.6 1 3.9a24.1 24.1 0 0 0 7 8.6M17 29"/>
  <path fill="#c9a794" d="m23 21.5.3-.3-.4.3"/>
  <path fill="#5b210e" d="M17 29c0-.9.2-1.8.7-2.5-.5.7-.7 1.6-.8 2.5"/>
  <path fill="#743318" d="M30 22.1h-.1"/>
  <path fill="#5b210e" d="M34.4 23a4.8 4.8 0 0 0-2-.3l1.4-1c-.4-.3-.8-.6-1.3-.6-.4 0-.8.2-.7.6l-.9-.3h-.3c-.3.2-.5.6-.6 1v-.2h-.1c0-.2-.2-.2-.3-.2h-.2l-.6.6.4-.7.6-.5h.1l.1.5.5-.8.3-.1.5.2c.2-.3.3-.5.5-.5h.3c0-.2.2-.3.5-.3h.2l.5.4.5.5.6.2h.2l.4-.1.5-.1c-.7.3-1.5.5-2 1.2l1.2.5h-.3m-1.9-3"/>
  <path fill="#f7f7f7" d="M17.3 29.7c.3-.8.7-1.7 1.4-2.3v.6l.6-1c.4-.5.8-1 1.4-1.3l.4 1.4c.4-.8.7-1.6 1.3-2.2h.1v.4c.3-.6.8-1 1.4-1.4.2.3 0 .7 0 1l1-1.3c.5-.4 1-.8 1.6-1L27 24c.2-.5.5-1 1-1.3l.1.7a5 5 0 0 1 1.8-2h.1l.1.5.5-.8c.3-.3.6 0 .8.1.2-.3.4-.6.8-.4 0-.5.4-.4.7-.4l-.3-.4c-.4-.9.6-1.8 1.1-2.4l2-2.2a19.6 19.6 0 0 0 2.1-3l.1-.4v.1c.2 0 .3-.3.4-.5v.2l-.1.2.4-.8V10c.1-1 0-2.1-.3-3.1a10.1 10.1 0 0 0-5-6l-2-.7h-1.1.1V.1h-.1a3.4 3.4 0 0 0-3 .7l.5-.7h-.1c-2 .1-3.6 1.3-5 2.6a8 8 0 0 0-2 4 8.2 8.2 0 0 0 2.4 8.5l1.3 1 1.2 1-.2 1.4c0 .2 0 .5-.2.7 0 .2-.2.3-.3.5l-.7.7-1 .9a46.3 46.3 0 0 0-4.5 3.9l-.8 1a6 6 0 0 0-.8 2.6l.1 1.5.3-.8"/>
  <path fill="#97a09b" d="m22.5 25 2-2.3h.1v.6c.5-1.1 1.3-2.1 2-3.1l1-2c.2-.4.4-1 .3-1.5-1 .3-1.8 1.1-2.7 1.8v.2c0 .2 0 .5-.2.7 0 .2-.2.3-.3.5l-.7.7-1 .9a46.3 46.3 0 0 0-4.5 3.9l-.8 1a6 6 0 0 0-.8 2.6l.1 1.5a8.4 8.4 0 0 1 1.7-3.1v.6l.6-1c.4-.5.8-1 1.4-1.3l.4 1.4c.4-.8.7-1.6 1.3-2.2h.1"/>
  <path fill="#19915a" d="m20 24.6 1.3-1c.1.2-.3.4-.3.8.7-.9 1.7-1.3 2.5-2-.2.4-.3.8-.6 1 1.7-1.1 3.4-2.2 5.3-3-.4.4-.6.7-.7 1.1.5-.6 1.3-1 2-1.4 0 .4.2.6.4.9 0-.6.2-1.2.6-1.7-.1.4.2.8.5 1 .3-.2.2-.8.5-1.2 0 .3 0 .6.2.8 0-.3.3-.5.4-.8 0 .3.1.4.3.6 0-.8.7-1.6 1.2-2l2-2.3a19.6 19.6 0 0 0 2.1-3l.1-.4v.1c.2 0 .3-.3.4-.5v.2l-.1.2.4-.8V10c.1-1 0-2.1-.3-3.1a10.1 10.1 0 0 0-5-6l-2-.7h-1.1.1V.1h-.1a3.4 3.4 0 0 0-3 .7l.5-.7h-.1c-2 .1-3.6 1.3-5 2.6a8 8 0 0 0-2 4 8.2 8.2 0 0 0 2.4 8.5l1.3 1 1.2 1-.2 1.4c0 .2 0 .5-.2.7 0 .2-.2.3-.3.5l-.7.7-1 .9a46.3 46.3 0 0 0-3.6 3c.4-.3.9-.4 1.2-.8-.2.3-.3.7-.6.9"/>
  <path fill="#416655" d="m23 23.4 2.3-1.5-2.4 1.5"/>
  <path fill="#0b5c32" d="M20 24.5c.3-.2.4-.5.6-.8-.3.4-.8.6-1.2.8l1.2-1.1a46.3 46.3 0 0 1 3.4-2.8l.7-.7c.1-.2.3-.3.3-.5l.2-.7c0 .2 0 .5-.2.7 0 .2-.2.3-.3.5l-.7.7a16.6 16.6 0 0 1-2.1 1.7l2-1.2c.5-.4 1-.8 1.3-1.4l1-1.4c.4-.8 1.1-1.6 2.1-1.7l1.2-.1h-.3c-1.3.4-1 1.4-1.7 2.6-.5.8-1.2 2-2.2 2.8l-2.4 1.5c.3-.2.4-.6.6-1-.8.7-1.8 1.1-2.5 2 0-.3.4-.5.4-.8-.4.3-1 .6-1.3 1m9.9-8.7h-.9l-1.7-.4-1.2-.5c-1-.7-.5-1.9-.2-2.7.2-.8.3-1.9-.6-2.3l-2-.4c-.2 0-.4-.2-.6-.4-.2-.3-.2-.6-.2-1v-.4c-.2-.5-.5-.8-1-1l-.2-.4c-.3-.3-.4-.6-.7-.7.2 0 .4 0 .6.2.3.1.4.4.6.6.4.4.9.9 1 1.5v.7l.5.4.8.2h.9c1 0 1.1-1.2 1.8-1.7l.5-.5v-.6a4 4 0 0 1 0-2.2c-.5 0-.8.5-1 .9-.3.4-.4.9-.6 1.4a3.7 3.7 0 0 1 1-3c-.4.4-.6 1-.8 1.5l-.2.4L27 4c.3-.2.5-.3.8-.3h.2l1 .2-.2-.2c-.3-.3-.6-.7-1-.7h.1c.6 0 1.2.5 2 1.6l-.7-.2H29v.1l.2 1c0 .2.2.4.4.6h.8l.3.1c.4 0 .7.4 1 .7a4.1 4.1 0 0 0-2-.4 4.3 4.3 0 0 1 1 0s.1 0 0 0a3 3 0 0 0-.7-.2c-1.4 0-2.8 1-3 2.4v.5c-.2 1.1.2 2.4 1 3.2a4 4 0 0 0 2.8 1.5l1.3.2c1.4 0 3-.4 4.1-1.2 0 .8-.8 1.4-1.4 1.8a11.6 11.6 0 0 1-.6.3 11 11 0 0 1-4 .9"/>
  <path fill="#08542b" d="m29.5 16.5 1.8-.4 1-.3-1 .3-1.7.4"/>
  <path fill="#043518" d="M21.9 22.3a62.4 62.4 0 0 1 2-1.7c.4-.2.6-.5.8-.7.1-.2.3-.3.3-.5l.2-.7.2-1.3v-.1l-1.2-1-1.3-1 .8-.2c.4-.2.9-.4 1-.8l.2-.6.3-.8a7.6 7.6 0 0 0 .5-1.8v-.3l-.2-.2c-.4-.5-1.1-.6-1.7-.7-.6 0-1.1-.2-1.4-.6l.2-.9v-.2c0 .4 0 .7.2 1l.7.4 2 .4c.8.4.7 1.5.5 2.3-.3.8-.7 2 .2 2.7l1.2.5a11.5 11.5 0 0 0 2.6.4 11 11 0 0 0 4.1-.9l-1.8.8-1 .3-1.7.4a7 7 0 0 0-1.3 0 4 4 0 0 0-2.2 1.8l-.9 1.4c-.3.6-.8 1-1.3 1.4l-2 1.2m.6-14.5a2 2 0 0 0-.8-1c.4.2.7.5.8 1"/>
  <path fill="#064b24" d="m26.7 3.6.4-.5a.7.7 0 0 1 .6-.1c-.3 0-.6.2-1 .6"/>
  <path fill="#032f14" d="M25.9 5.5 26 5l.7-1.5c.4-.4.7-.6 1-.6.4 0 .7.4 1 .7l.2.2-1-.3h-.2L27 4c-.4.4-.7 1-1 1.5"/>
  <path fill="#064b24" d="M27 8.7c.2-.9.8-1.6 1.7-2l.8-.2c-1.1.3-2.2 1-2.6 2.2"/>
  <path fill="#032f14" d="M27 8.7c.1-1.4 1.5-2.4 2.9-2.4l.8.1v.1a4 4 0 0 0-1.2 0l-.8.2a3 3 0 0 0-1.8 2"/>
  <path fill="#c9b99a" d="M42.9 27.8c-1.1-.3-2.3-.5-3.2-1.2l1-.2h.6c.3 0 .5 0 .7.2.4.3.5.8.9 1.2m7.7-2.2A35.8 35.8 0 0 1 49 25l-.4-.4h.1c.4 0 .8 0 1.2.3.3.1.4.4.6.7m4.7 4.4h-.8c-.5-.2-1-.8-1.3-1.3a13.6 13.6 0 0 1 2.6 1.3h-.5m.5-.5-.4-.1-1.6-.7a3 3 0 0 1 2 .8"/>
  <path fill="#bca984" d="m55.7 30-.7-.5-1.9-.8h.6l1.6.7.4.1c0 .2.2.3.3.5h-.3"/>
  <path fill="#c9b99a" d="m49.2 30.8-1.5-.6-.7-.4-.3-.3h.8l.8.1c.4.3.6.8.9 1.2m-1.8-2.6-1.4-.7h1c.3 0 .4.4.5.7"/>
  <path fill="#ffb600" d="M25.6 10.8v-.2h-.1c-.4-.5-1.1-.6-1.7-.7-.6 0-1.1-.2-1.4-.6l.2-.9-.1-.6c-.3-.6-.7-1-1.1-1.4-.3-.3-.4-.8-.9-.7-.4.2-1 .9-1.2 1.2l-.8 1.2-4.5 3-2.2 1.3c-.6.4-1.1.9-1.8 1.2-.7.1-1.7.4-1.9.6-.2.3.3.8.5 1 .5.5 1.2.4 1.8.7.4.3 1 .5 1.5.5.8.1 1.6 0 2.4-.2 1.8-.4 3.5-1 5.4-1H22c.6.1 1.1.1 1.7-.1.4-.2.9-.4 1-.8l.2-.6.3-.8.5-1.5v-.6"/>
  <path fill="#fff642" d="m11.6 14.5-1.2-.1c-.2 0-.5 0-.7-.2l.2-.1c.3 0 .7-.2 1-.4l1.4-.9 3.2-2 2-1.2 1.4-.8c.6-.4.8-1 1-1.6 0-.4.2-.8.3-1.1-.5.5-.8 1.2-1.3 1.8a2 2 0 0 1-1 1L16 10l-3.7 2.4-2.3 1.4.2-.1a1 1 0 0 0-.4 0h-.2.4l1.8-1.3 2.2-1.3 4.5-3 .8-1.2.7-.8h.2c.7.1 1.2 1 1.5 1.6a2 2 0 0 1-.2 2c-.2.4-.8 1.1-1.4 1.1-.4 0-.6-.6-.7-.9-.2-.3-.4-.6-.8-.6h-.1c-.4 0-.8.3-1 .6l-1 1.1-.1.9c0 .4 0 .9-.4 1.2-.3.3-.7.4-1.1.6l-1.5.5c-.5.2-1.2.3-1.8.3"/>
  <path fill="#fff" d="m9.9 14 .1-.2 2.3-1.4L16 10a66 66 0 0 1 2-1c.4-.2.7-.6 1-1 .4-.6.7-1.3 1.2-1.8l-.3 1.1c-.2.6-.4 1.2-1 1.6l-1.4.8-2 1.1-3.2 2.1-1.4.9-1 .4"/>
  <path fill="#2d1d00" d="M8.6 15.2c-.2-.2-.5-.5-.5-.8v-.2c.2-.2.9-.4 1.5-.5l-.1.2c0 .2 0 .3.2.3-.2.3-.3.6-.3 1-.5-.3-1-.5-1.3-1-.1.4.3.8.5 1"/>
  <path fill="#2d270a" d="M9.7 14.2c-.2 0-.3-.1-.2-.3v-.2h.7l-.2.1a6 6 0 0 1-.5.3h.4l-.2.1"/>
  <path fill="#2d2827" d="M9.6 14c.1 0 .3 0 .4-.2l-.1.3h-.3"/>
  <path fill="#ed8500" d="M16.7 12.2c-.2 0-.1-.3-.1-.4v-.4l1-1.4.6-.4c.3 0 .4.1.6.3l.4.6v.2c0 .3-.3.3-.5.3-.5 0-.9 0-1.3.4l-.5.6-.2.2m1.5-2.4H18l-.5.6-.8 1v.2h.1l.6-.7.5-.2h.9c0-.3-.2-.5-.4-.7l-.2-.2M13 16.2a3.3 3.3 0 0 1-.9-.1c1.3 0 8.1-1.8 8.5-1.9a10.7 10.7 0 0 0 2.2-.8l.4-.2c.4 0 .8 0 1.2-.2H24l-.2-.1a1.6 1.6 0 0 0 .5 0c.7-.1 1-.9 1.2-1.5v-.9.1l.1.2v.6a7.6 7.6 0 0 1 0 .6l-.4.6-.5.5-.2.5-.5.7c-.8.5-1.6.5-2.5.5h-1.1l-2.5.3-4.1 1a4 4 0 0 1-.8 0"/>
  <path fill="#ed8500" d="M11 15.8a5 5 0 0 1-.5 0 5 5 0 0 0-.4 0l-.2-.1c-.4 0-.9-.1-1.3-.5l.8.4v-.5l1 .2h.7c1.2 0 2.4-.2 3.6-.5l4.3-1c1.2-.3 2.5-.4 3.6-1.2-.1-.4-.2-.7-.1-1.1l.2-.5c-.2.5-.3 1 0 1.4.2 0 .2.2.3.2l-.4.4a3 3 0 0 1-.5.3l-.7.3-3.1.8-3.3.7-2.5.6H11"/>
  <path fill="#2a1500" d="M9.4 15.6a2 2 0 0 1-.8-.4c-.2-.2-.6-.6-.5-1 .3.5.8.7 1.3 1v.4"/>
  <path fill="#ed8500" d="m23.7 13-.6-.3.6.2"/>
  <path fill="#dc6200" d="M12.5 16.5H12a4 4 0 0 1-1.5-.6h1.7l2.5-.6a269.8 269.8 0 0 0 7.8-2c.3-.1.5-.4.7-.6l.6.2.3.1h.4l-1.1.2-.5.2a10.7 10.7 0 0 1-2.2.8c-.4.1-7.2 1.9-8.4 1.9h1.6l4-1 2.6-.2h1c1-.1 1.8 0 2.6-.6l.5-.7.2-.5c0-.2.3-.4.5-.5l.3-.6-.3.9-.3.8c0 .2 0 .4-.2.6-.1.4-.6.6-1 .8a3 3 0 0 1-1.2.2H22a15 15 0 0 0-2-.3h-.4c-1.9.1-3.6.7-5.4 1.1a8 8 0 0 1-1.8.3m-1.6-.7H10h1l1.3-.1-1.3.1m11.1-2.4"/>
  <path d="m16.8 11.6-.1-.2.8-1 .5-.5h.4l.4.7-.9.2-.5.1-.6.7m0 0"/>
  <path fill="#e16500" d="M23.8 12.9c-.4-.1-.8-.4-1-.7-.2-.3-.2-.8 0-1.2-.2.4-.2 1 .2 1.4l.8.5"/>
  <path fill="#d14a00" d="M10.1 15.7H10h.1m2.4 0L15 15l3.3-.7 3-.8.8-.3c-.6.3-1.2.4-1.9.6l-3.8 1-4 .8M22.7 13l.4-.4-.2-.2c-.4-.4-.3-1 0-1.4-.2.4-.2.9 0 1.2a25589.8 25589.8 0 0 0 .3.5c-.2 0-.3.2-.5.3"/>
  <path fill="#c23600" d="M11 16h-.2l-.4-.1-.4-.2h.1l.8.1h.2l1.3-.1 4-.8 3.8-1 2-.6a2.6 2.6 0 0 0 .8-.7l.1.1c-.2.2-.4.5-.7.6a269.8 269.8 0 0 1-7.8 2l-2.5.5-1.2.2M24 13"/>
  <path d="M28.9 6c-.1-.8-.5-1.7-1-1.6-.2.1-.4.8-.3 1.6l.4 1 1-.5-.1-.5"/>
  <path fill="#fff" d="M28 4.9c.2.5.3.7.4.6.2 0 0-.5-.1-.7-.2-.3-.3-.3-.2 0"/>
  <path fill="#54d157" d="M23.5 2.7c.9-.7 1.8-1.5 2.9-1.9l1.1-.4c-1.5 0-3 1-4.2 1.9-.9.8-1.7 1.7-2.1 2.8.6-.9 1.4-1.7 2.3-2.4m6-2.5c-1 0-2 .4-2.6 1.2.7-.7 1.7-1 2.6-1.2M35 2.4C33.5 1 31.6 0 29.4.6H29c2.2-.1 4.4.6 6 2C36.7 4.2 37.9 7 38.4 9v-.5c-.3-2.1-1.6-4.6-3.2-6M30 6.6c-1.2.1-2.5.8-1.4 1 1.2.4 2.5.2 2.8-.3.4-.5-.8-.8-1.4-.7m-2.4 1.1c-.3.3-.3.7 0 .5.2-.2.3-.7 0-.5"/>
  <path fill="#fff642" d="M23.4 11.8c-.4 0-.7-.3-.6-1 .2-.5.5-.7 1-.7l1 .2c.9.2 0 1-.8 1.3a2 2 0 0 1-.6.2"/>
  <path fill="#54d157" d="M36.8 13.4 35.6 15l-1.3 1.5-1.3 1.3c-.3.4-.6.9-.7 1.4.5-1 1.4-1.8 2.2-2.6l1.2-1.5a16.3 16.3 0 0 0 1.1-1.6"/>
  <path fill="#fff" d="m54.9 27-2.3-1.4c-.7-.5-1.3-1-2-1.3-1.5-.8-2.7-2-4.1-2.8a7 7 0 0 0-4.2-1.2c-1.4.1-2.7.7-4 1.2-.1 0 0 .1 0 0 .7 0 1.3-.2 2-.3l2.2-.2c1.4.2 2.6 1 3.9 1.6l4 2 2.1 1.1c.8.4 1.5 1 2.3 1.3 0 0 .1 0 0 0m-6.5 8.5c-.3-.4-.4-.9-.5-1.3 0-.3-.4-.6-.6-.9a4 4 0 0 0-1.7-1c-.7-.3-1.5-.4-2.2-.4h-2.1c-.1 0-.1.2 0 .2 1.3.1 2.6.2 3.8.8a7 7 0 0 1 1.8 1c.6.4.8 1.2 1.4 1.7 0 0 .1 0 0-.1m10.4-1.2c-.4-.4-1-.7-1.5-1a5 5 0 0 0-2-.3h-4.4s-.1 0 0 0c1.1.5 2.4.5 3.7.6.7 0 1.3 0 2 .2.3 0 .7.1 1 .3.4 0 .7.3 1 .4.1 0 .2 0 .2-.2m5.8-2.3c-1-.4-1.8-1-2.9-1.2 1 .5 1.8 1.3 3 1.4V32"/>
  <path fill="#c57b46" d="M26.7 26.9c0-1.6.7-2.8 1.8-3.7v.3c0-.2.2-.4.4-.6l.8-.5-1.7 2c-.6.7-1 1.5-1.2 2.4"/>
  <path fill="#b46536" d="m28.4 23.5.1-.3.4-.3-.5.6"/>
  <path fill="#c57b46" d="M26.1 27.5c0-1 .1-2.1.8-2.8a5 5 0 0 0-.5 1.2l-.3 1.6m1.4-1.7s.4-1.2 2-2.7l.5-.5.1.3.2-.5 1-.5.3.1c-.4.2-1 .6-1.5 1.1l-2.6 2.7"/>
  <path fill="#b46536" d="M30.1 22.9v-.3l.2-.2-.2.5m1.5-.9h-.3c.7-.3 1.3-.3 1.4-.3 0 0-.5 0-1 .3"/>
  <path fill="#4c4541" d="m66.8 36.6-.2-.3-.9-.8-.3-.2h-.1l-.4.4c.2-.2.3-.6.6-.6h.3c.4.3 1 1 1 1.5m-3.4 1.1h-.2L60 36.3c-.3-.2.3-.4 1-.4.5 0 .9.6 1.3.9l.9.5h.4c.7 0 1.5-.4 2.1-.8l-.2.3c-.6.4-1.6 1-2.1 1"/>
  <path fill="#635d5c" d="M64.6 39.8a9.2 9.2 0 0 0-5.4 0c1.8-.3 3.6-.1 5.4 0"/>
  <path fill="#4a423f" d="M58.5 40.4c1-.5 2-.6 3-.6H63v.2h-.2c-1.4 0-2.8.2-4.2.4"/>
  <path fill="#473f3b" d="M63.5 40H63v-.1a14.5 14.5 0 0 1 .6.1"/>
  <path fill="#4a423f" d="m59 38.2-.6-.1c-.7-.1-1.8-.1-2.6-.3l.8-.3 2.5.7m-3.5.4-1.4-.1a8.6 8.6 0 0 1 1.4-.3h1.2l1.6.2h.4l-3.2.2"/>
  <path fill="#3f3733" d="m52.8 39.6-1-.1-2.1-.6c1.2 0 2.3.3 3.5.3h.7l4.6-.4-.9.1c-1.2.5-2.6.6-3.9.7h-.9"/>
  <path d="M22.2 62c2 0 3.5.4 4.6 1.5 1 1 1.5 2.5 1.5 4.5s-.5 3.6-1.5 4.6c-1 1-2.6 1.6-4.6 1.6h-4.4V61.9Zm-.1 10c1.2 0 2.2-.3 2.8-1 .6-.6 1-1.6 1-3 0-1.5-.4-2.5-1-3.2a4 4 0 0 0-2.8-1h-1.9V72Zm11.4 2.3c-1 0-1.8-.2-2.3-.8-.5-.6-.7-1.4-.7-2.4v-6.2h2.3v5.9c0 .5.1 1 .4 1.2.2.3.6.4 1.1.4a2 2 0 0 0 1.5-.6c.4-.5.5-1.1.5-2v-4.9h2.4v9.3h-2.3v-1.4h-.1a3 3 0 0 1-1.1 1.2 4 4 0 0 1-1.7.3Zm11.9 0a5 5 0 0 1-2.4-.5 4 4 0 0 1-1.6-1.6c-.4-.8-.6-1.6-.6-2.6s.2-2 .6-2.6a4 4 0 0 1 1.6-1.7c.7-.4 1.5-.5 2.3-.5 2 0 3.2.7 3.8 2L47.5 68h-.2l-.7-1a2 2 0 0 0-1.3-.3 2 2 0 0 0-1.5.7c-.4.5-.6 1.2-.6 2.2 0 1 .2 1.6.6 2 .4.6.9.8 1.6.8.5 0 .9-.2 1.2-.4.4-.3.6-.7.8-1.2h.2l1.6.9c-.2.8-.6 1.4-1.3 2a4 4 0 0 1-2.5.6Zm5.4-.1v-13h2.4v7.2h.2L56 65h2.3v.2l-3.1 4 3.5 4.9v.2h-2.5l-3-4h-.1v4Zm0 0"/>
</svg>
