<svg xmlns="http://www.w3.org/2000/svg" version="1.0" viewBox="0 0 75 75">
  <defs>
    <clipPath id="a">
      <path d="M3 0h26v26H3Zm0 0"/>
    </clipPath>
  </defs>
  <path fill="#84b943" d="M65.2 30.5s4.3-2.2 5.6-1.9c1.2.3 1.2 5.3-3.6 8.5s-7 2.1-7 2.1l5-8.7Zm0 0"/>
  <path fill="#428744" d="M64.7 29.4c.4-.7 2.6-1.5 2.5.4-.2 2-.2 8.3-7.5 11.1-7.3 2.8-.6-2.9-.6-2.9l5.6-8.6Zm0 0"/>
  <path fill="#638c29" d="M21.6 36.6s-2.5 5.5-2 11.3c.2.8.6 1.5 1.2 2 .8.6 2.3 1.2 4.8 1 4.6-.6 4.3-1.5 4.3-4s-.4-7.5-.4-7.5Zm24.2 0s-2.5 5.5-2 11.3c.2.8.5 1.5 1.1 2 .9.6 2.4 1.2 4.9 1 4.6-.6 4.3-1.5 4.3-4s-.4-7.5-.4-7.5Zm0 0"/>
  <path fill="#629744" d="M59.6 18.2c-.5 0-1.2.1-1.7.4a3 3 0 0 0-1.2 2c-.2 1 .1 2.3.5 3.3a46.6 46.6 0 0 0 2.2 4.6c.7.7 1.7 1 2.5 1.1 1 .3 2 .5 2.8 0l.2-.2c-.2-4-2.1-8-5.3-11.2Zm-23.8-4.4c.6 1.6.6 3.5 1.8 4.8a6 6 0 0 0 3.5 1.7c2 .3 4 .2 5.8-.3.5 0 .9-.2 1.3-.5l.8-.7c1.5-1.5 2.7-3.4 3.5-5.5a20 20 0 0 0-16.7.5Zm0 0"/>
  <path fill="#3a6043" d="m64.9 29.4-.2.2c-.8.5-1.8.3-2.8 0-.8-.2-1.8-.4-2.5-1-.4-.5-.7-1.2-1-1.8l-1.2-2.9c-.4-1-.7-2.2-.5-3.3a3 3 0 0 1 1.2-2c.5-.3 1.2-.5 1.7-.4-2-2-4.4-3.7-7.1-4.9a16 16 0 0 1-4.3 6.2 3 3 0 0 1-1.3.5c-1.9.5-3.9.6-5.8.3a6 6 0 0 1-3.5-1.7c-1.2-1.3-1.3-3.2-1.8-4.8a20.5 20.5 0 0 0-10.1 9.8c1-1.4 2.4-2.7 3.7-3.9.6-.6 1.3-1.2 2.2-1.2.6 0 1.2.4 1.8.7l3 2.4c.3.2.6.5.7 1 .2.3.2.6.1 1a27.2 27.2 0 0 1-2.5 8 3 3 0 0 1-1.2.7l-5 1.8c-1 .3-2 .4-2.8 0l-.4-.4c2.4 5.7 9.9 8.2 19 8.2 11.2 0 20.6-3.3 20.6-12v-.5Zm-9.6-.8c-.5 1.5-1.2 3-2.3 4.3a5.8 5.8 0 0 1-4.3 2 8 8 0 0 1-3.7-1.4 9.5 9.5 0 0 1-3-2.5c-1.5-2-1.4-4.8-1.4-7.3h.1c.3-.6.8-1 1.5-1.2.6-.3 1.2-.3 1.9-.4 1.8-.2 3.6-.4 5.4-.3 1.2 0 2.3.1 3.4.5a3 3 0 0 1 1.6.8c.8.6 1.2 1.6 1.3 2.6 0 1-.1 2-.4 3Zm0 0"/>
  <path fill="#629744" d="M55.3 28.6c-.5 1.5-1.2 3-2.3 4.3a5.8 5.8 0 0 1-4.3 2 8 8 0 0 1-3.7-1.4 9.6 9.6 0 0 1-3-2.5c-1.5-2-1.4-4.8-1.4-7.3h.1c.3-.6.8-1 1.5-1.2.6-.3 1.2-.3 1.9-.4 1.8-.2 3.6-.4 5.4-.3 1.2 0 2.3.1 3.4.5a3 3 0 0 1 1.6.8c.8.6 1.2 1.6 1.3 2.6 0 1-.1 2-.4 3Zm-18.1-5a27.2 27.2 0 0 1-2.5 8 3 3 0 0 1-1.2.7l-5 1.8c-1 .3-2 .4-2.8 0l-.4-.4a9.7 9.7 0 0 1-.9-4.3c0-2 .5-4 1.3-5.8 1-1.4 2.4-2.7 3.7-3.9.6-.6 1.3-1.2 2.2-1.2.6 0 1.2.4 1.8.7l3 2.4c.3.2.6.5.7 1 .2.3.2.6.1 1Zm0 0"/>
  <g clip-path="url(#a)">
    <path fill="#84b943" d="M26.7 14.2c0-6-.8-14.2-11.1-14.2C5.2 0 4.4 8.8 4.4 15a6.9 6.9 0 0 0-1.3 3.8c0 4.4 5.7 6.5 12.7 6.5 7.1 0 12.8-2 12.8-6.5 0-1.5-.7-3.1-1.9-4.6Zm0 0"/>
  </g>
  <path fill="#fff" d="M12.8 11.8c0 .6 0 1.2-.2 1.7-.2.6-.4 1.1-.7 1.5-.3.5-.6.8-1 1-.3.3-.7.4-1.1.4a2 2 0 0 1-1.2-.4c-.4-.2-.7-.5-1-1-.3-.4-.5-.9-.7-1.5a6.6 6.6 0 0 1 .7-5c.3-.4.6-.8 1-1l1.2-.3c.4 0 .8 0 1.1.3.4.2.7.6 1 1 .3.4.5 1 .7 1.5.2.6.2 1.2.2 1.8Zm0 0"/>
  <path d="M12.3 13.2a4.8 4.8 0 0 1-.5 2.2l-.6.6a1 1 0 0 1-.7.3 1 1 0 0 1-.7-.3l-.6-.6-.4-1a4.8 4.8 0 0 1 .4-3.4l.6-.6c.2-.2.5-.3.7-.3.3 0 .5.1.7.3l.6.6.4 1 .1 1.2Zm0 0"/>
  <path fill="#fff" d="M25.3 13c0 .6 0 1.1-.2 1.7a5 5 0 0 1-.7 1.5c-.3.4-.6.8-1 1-.3.2-.7.4-1.1.4-.4 0-.8-.2-1.2-.4-.4-.2-.7-.6-1-1-.3-.4-.5-1-.7-1.5a6.6 6.6 0 0 1 .7-5c.3-.5.6-.8 1-1a2 2 0 0 1 1.2-.4c.4 0 .8.1 1.1.4.4.2.7.5 1 1 .3.4.5 1 .7 1.5l.2 1.7Zm0 0"/>
  <path d="m23.1 13.2-.1 1.2-.4 1a2 2 0 0 1-.6.6 1 1 0 0 1-.7.3l-.7-.3a2 2 0 0 1-.6-.6l-.3-1a5 5 0 0 1 0-2.4c0-.4.2-.7.3-1l.6-.6.7-.3c.3 0 .5.1.7.3l.6.6.4 1 .1 1.2Zm0 0"/>
  <path fill="#366239" d="M15.8 22.4h-.5c-1.5-.1-3.3-.8-4-2.4-.1-.2 0-.5.2-.6.3-.1.6 0 .7.2.5 1.2 2 1.7 3.1 1.8 1 0 2 0 2.7-.5.7-.4 1.3-1.2 1.4-2 0-.2.3-.4.5-.3.3 0 .5.2.5.5-.2 1-1 2-2 2.7-.7.4-1.6.6-2.6.6Zm-1.2-5.6.3.3v.6c0 .2 0 .3-.2.4-.1.2-.3.2-.4.2L14 18v-.5c0-.2 0-.4.2-.5.1-.2.2-.2.4-.2Zm3 .7v.5c-.1.2-.2.3-.4.3-.1 0-.3 0-.4-.2a.9.9 0 0 1-.2-.4V17l.3-.3c.2 0 .3 0 .4.2.2.1.2.3.3.5Zm0 0"/>
  <path fill="#84b943" d="M18.5 4.6s1.3-3 4.3-2.5c2 .4 3.3 2.5 3.1 5-3.2-1.2-7.4-2.5-7.4-2.5Zm0 0"/>
  <path fill="#428744" d="M39.5 33.3s5.5.4 6.5 7l-8.3-.2-5.2-1.8s2.1-5.6 7-5Zm0 0"/>
  <path fill="#49505b" d="M24.4 8a.5.5 0 0 1-.5-.4c0-1.1-.7-2-1.5-2l-.4-.1c-.7 0-1.2.4-1.5.8a.5.5 0 1 1-.8-.5c.7-1 1.8-1.4 2.9-1.2 1.2.2 2.1 1.3 2.3 2.9 0 .2-.2.5-.4.5Zm0 0"/>
  <path fill="#84b943" d="M12.9 4.2s-1.3-3-4.3-2.4c-2 .3-3.3 2.5-3.2 5C8.7 5.5 13 4.2 13 4.2Zm17.6 33.2a8.5 8.5 0 0 1-6.5 3.2h-.4c-.5-.3-1-.6-1.3-1 0 0-1.1-.7-2.6-2.4-2.1-2.4-5-6.9-5.9-13.4l11.3-2s-.9 9.7 3.9 14.4c.4.5 1 .9 1.5 1.2Zm0 0"/>
  <path fill="#428744" d="M52.6 43s-.6-7.7 4-10.8c4.4-2.8 8 .6 8 .6l-.8 1.8s-4.1-3-6.3-.6-2 6.8-1.6 8l-3.3 1Zm0 0"/>
  <path fill="#feeb5e" d="M59.7 41s-21.8 9-36.1-.4a9.2 9.2 0 0 0 2.4-.3 8.5 8.5 0 0 0 4.5-2.9c.5.3 1 .6 1.7.8a49 49 0 0 0 27.3 0Zm0 0"/>
  <path fill="#428744" d="M45.3 40.9c-4.6 0-9.4-.7-13.3-2.2l-1.9-1a.7.7 0 0 1-.1-1c.1-.2.5-.3.8-.1l1.6.8c7.7 3 20.8 2.5 26.9 0 .3-.2.6 0 .8.3 0 .4 0 .7-.4.9a41 41 0 0 1-14.4 2.3Zm0 0"/>
  <path fill="#84b943" d="m65.8 38.6 2.1 9s.2.4-.3 1.1c-.5.5-1.3 1.2-3 1.8l-.5.2-3 .9h-.5l-.4.1c-2.1.4-3.2-.2-3.9-1.2-.4-.8-.6-1.9-.8-3.1 0 0-.4-6.4-.2-10 .3-3.7 3-4.5 3-4.5s5.7-1.3 7.5 5.7Zm0 0"/>
  <path fill="#49505b" d="M7 8c.3 0 .5-.2.5-.4.1-1.1.7-2 1.5-2l.4-.1a2 2 0 0 1 1.5.8.5.5 0 0 0 .8-.5c-.7-1-1.7-1.4-2.8-1.2-1.3.2-2.2 1.3-2.4 2.9 0 .2.2.5.5.5Zm0 0"/>
  <path fill="#e3e5e3" d="m59.7 49.7.5 2c-2.1.4-3.2-.2-3.9-1.2 0-.6.2-1.1.5-1.6.1-.3.3-.5.5-.6.4-.3 1-.2 1.5.1.4.3.7.8.9 1.3Zm4.4 1-3 .9h-.5c0-.7.1-1.5.3-2.2.2-.5.4-1 1-1.1.2-.1.6 0 .9.2l.6.8.7 1.4Zm3.5-2c-.5.5-1.3 1.2-3 1.8a5 5 0 0 1 .2-2.5c0-.3.2-.5.4-.7.4-.3 1.2-.2 1.6.2.4.3.6.7.8 1.2Zm0 0"/>
  <path fill="#428744" d="M30.5 36.3c.4.3.5.7 0 1.4-3 3.4-7 3.8-10.9 1.3a.9.9 0 1 1 1-1.5c2.8 2 6.4 1.8 8.5-1 .5-.5 1-.5 1.4-.2Zm0 0"/>
  <path fill="#84b943" d="M43.7 43.3a199 199 0 0 1-1.5 9.1s0 .5-.8 1c-.5.3-1.6.6-3.4.5h-.5a26.5 26.5 0 0 1-3.6-.4l-.4-.1c-2.1-.5-3-1.4-3.1-2.6-.2-1 0-2 .4-3.2 0 0 2-6 3.6-9.3 1.7-3.4 4.5-3 4.5-3s5.8.9 4.8 8Zm0 0"/>
  <path fill="#e3e5e3" d="M33.8 51.3c0 .7-.2 1.4-.3 2-2.1-.4-3-1.3-3.1-2.5.2-.5.6-1 1-1.4.2-.1.4-.3.7-.3.5 0 1 .2 1.3.7.3.4.4 1 .4 1.5Zm3.7 2.7a26.4 26.4 0 0 1-3.6-.5l1.1-2c.4-.4.8-.8 1.3-.7.3 0 .6.3.8.6l.3 1v1.5Zm3.9-.6c-.5.3-1.6.6-3.4.5a5 5 0 0 1 1.1-2.3l.6-.4c.6-.2 1.2.2 1.5.7.2.5.3 1 .2 1.5Zm0 0"/>
  <path d="M16.8 57.4V60H12v13.7H8.8V60H4v-2.7ZM22.9 74c-1.4 0-2.5-.4-3.1-1.1-.7-.8-1-1.9-1-3.3v-8.2h3.1v7.8c0 .8.2 1.3.5 1.7.3.3.8.5 1.5.5.9 0 1.5-.3 2-.9.5-.5.7-1.4.7-2.6v-6.5h3.1v12.4h-3V72l-.2-.1c-.4.7-.9 1.2-1.4 1.6-.6.3-1.3.5-2.2.5Zm10.4-.2V61.4h3v1.8h.2c.3-.6.7-1.1 1.2-1.4.5-.4 1.1-.5 1.8-.5a3 3 0 0 1 1.6.3l-.5 2.7h-.3l-.5-.1H39c-.9 0-1.6.2-2 .8-.5.7-.7 1.6-.7 3v5.8Zm16.5-3 .8 2.3-1.3.7-1.7.2c-1.4 0-2.4-.4-3-1.1-.8-.7-1.1-1.8-1.1-3.2v-5.9h-2v-2.4h2V59l3-.5v2.9h3.6v2.4h-3.5v5.7c0 .6.1 1 .4 1.3.2.3.6.5 1 .5.6 0 1.1-.2 1.5-.5ZM56 74c-1.1 0-2-.3-2.6-1-.6-.5-.9-1.4-.9-2.6v-14h3.1v13.8c0 .8.4 1.2 1 1.2l.6-.1h.1l.3 2.4-.7.2-1 .1Zm14.2-5.7h-8c.1 1 .4 1.8 1 2.3a3 3 0 0 0 2 .8A4 4 0 0 0 67 71a3 3 0 0 0 1-1.2h.3l2 1.3a5 5 0 0 1-1.8 2.1 6 6 0 0 1-3.2.8c-1.3 0-2.4-.2-3.3-.7a5 5 0 0 1-2.2-2.2c-.5-1-.7-2.1-.7-3.5s.2-2.6.8-3.6c.5-1 1.2-1.7 2.1-2.1 1-.5 2-.7 3-.7 1.8 0 3.1.4 4 1.3 1 1 1.5 2.3 1.5 4.1v1.5Zm-2.7-2c0-1-.2-1.7-.6-2-.5-.5-1-.7-1.8-.7-1.6 0-2.5.9-2.8 2.7Zm0 0"/>
</svg>
