<svg xmlns="http://www.w3.org/2000/svg" fill="none" viewBox="0 0 100 100">
  <g clip-path="url(#a)">
    <mask id="b" width="28" height="21" x="36" y="79" maskUnits="userSpaceOnUse" style="mask-type:luminance">
      <path fill="#fff" d="M36.9 79.8H63v19.4H37V79.8Z"/>
    </mask>
    <g mask="url(#b)">
      <path fill="#81B2B7" d="M63.1 99.2H37L40.7 80h18.5l4 19.3Z"/>
    </g>
    <path fill="#81B2B7" d="M40.6 72.6h18.8L56 81.1H44.3l-3.7-8.5Z"/>
    <path fill="#81B2B7" d="M40.6 65.3h18.8L56 74H44.3l-3.7-8.6Z"/>
    <path fill="#81B2B7" d="M40.6 58h18.8L56 66.6H44.3L40.6 58Z"/>
    <path fill="#81B2B7" d="M40.6 50.7h18.8L56 59.3H44.3l-3.7-8.6Z"/>
    <path fill="#81B2B7" d="M40.6 43.5h18.8L56 52H44.3l-3.7-8.5Z"/>
    <path fill="#81B2B7" d="M40.6 36.2h18.8L56 44.7H44.3l-3.7-8.5Z"/>
    <path fill="#81B2B7" d="M40.6 28.9h18.8L56 37.4H44.3L40.6 29Z"/>
    <path fill="#81B2B7" d="M40.6 21.6h18.8L56 30.1H44.3l-3.7-8.5Z"/>
    <path fill="#81B2B7" d="M55.9 22.6H44.2v-3h11.7v3Z"/>
    <path fill="#81B2B7" d="M51.4 20.6h-2.8v-9.8h2.8v9.8Z"/>
    <path fill="#81B2B7" d="M54 16.6h-8l-1-2.8h10l-1 2.8Z"/>
    <path fill="#1B6379" d="M54 11c0 .3-.6.7-1.4.7h-5.2c-.7 0-1.4-.4-1.4-.8s.7-.8 1.4-.8h5.2c.8 0 1.4.4 1.4.8Z"/>
    <path fill="#1B6379" d="M50.7 10.8c0 .2-.3.4-.7.4-.4 0-.7-.2-.7-.4V.8c0-.3.3-.4.7-.4.4 0 .7.1.7.3v10Z"/>
    <path fill="#DFDEE1" d="M45.5 89.5h9V89h-9v.6Zm13.9-9H40.5l.2-.6h18.7v.6Zm.2 1.3H40.3l.2-.7h19l.1.7ZM45.5 91h9v-.7h-9v.6Zm0 1.3h9v-.7h-9v.7Zm0 1.4h9V93h-9v.7Zm0 1.3h9v-.6h-9v.6Zm0 1.4h9v-.6h-9v.6Zm0 1.4h9v-.6h-9v.6Zm0 1.4h9v-.7h-9v.7Z"/>
    <path fill="#DFDEE1" d="M54.8 81.7c0 1.4-2.1 2.6-4.8 2.6-2.7 0-4.8-1.2-4.8-2.6 0-1.4 2.1-2.6 4.8-2.6 2.7 0 4.8 1.2 4.8 2.6Z"/>
    <path fill="#81B2B7" d="M53.7 81.7c0 1-1.7 2-3.7 2s-3.7-1-3.7-2c0-1.1 1.7-2 3.7-2s3.7.9 3.7 2Z"/>
    <path fill="#DFDEE1" d="M48.3 72.5c.3-.2.7-.2 1-.3a7.5 7.5 0 0 1 2.6.2c.3.1.3.3 0 .4h-1c-.5-.1-.9-.2-1.3-.1-.4 0-.6.2-1 .1-.4 0-.4-.2-.3-.3Zm0-7.4 1-.2h1.8c.3 0 .6 0 .8.2.3 0 .3.3 0 .4l-1-.1h-2.3c-.4 0-.4-.1-.3-.3Zm0-7.1 1-.2h1.8c.3 0 .6 0 .8.2.3 0 .3.3 0 .4l-1-.1h-1.3c-.4 0-.6.2-1 0-.4 0-.4-.1-.3-.2Zm0-7v-.1c.3-.2.7-.2 1-.3h1.8l.8.2c.3.1.3.4 0 .4h-1c-.5-.1-.9-.2-1.3 0h-1c-.4 0-.4-.2-.3-.3Zm0-7.3c.3-.2.7-.2 1-.3a7.4 7.4 0 0 1 2.6.2c.3.1.3.3 0 .4h-1c-.5-.1-.9-.2-1.3-.1-.4 0-.6.2-1 .1-.4 0-.4-.2-.3-.3Zm0-7.2a2 2 0 0 1 1-.3 8 8 0 0 1 1.8 0c.3 0 .6 0 .8.2.3.1.3.3 0 .4h-1c-.5-.1-.9-.2-1.3-.1-.4 0-.6.2-1 .1-.4 0-.4-.2-.3-.3Zm0-7.5v-.1c.3-.2.7-.2 1-.2h1.8l.8.1c.3.2.3.4 0 .5l-1-.1h-2.3c-.4 0-.4-.2-.3-.3Z"/>
    <path fill="#1B6379" d="M43 22.8h2v-.6h-2v.6Zm3 0h2.2v-.6H46v.6Zm3 0h2.2v-.6h-2.1v.6Zm3.1 0h2.2v-.6H52v.6Zm3.1 0h2.1v-.6h-2.1v.6ZM43 24.4h2V24h-2v.5Zm3 0h2.2V24H46v.5Zm3 0h2.2V24h-2.1v.5Zm3.1 0h2.2V24H52v.5Zm3.1 0h2.1V24h-2.1v.5ZM43 26h2v-.6h-2v.6Zm3 0h2.2v-.6H46v.6Zm3 0h2.2v-.6h-2.1v.6Zm3.1 0h2.2v-.6H52v.6Zm3.1 0h2.1v-.6h-2.1v.6Zm-11.5 1.6h1.4V27h-1.4v.6Zm2.3 0h2.2V27H46v.6Zm3 0h2.2V27h-2.1v.6Zm3.1 0h2.2V27H52v.6Zm3.1 0h1.3V27h-1.3v.6Zm-12.2 3h2v-.5h-2v.5Zm3 0h2.2v-.5H46v.5Zm3 0h2.2v-.5h-2.1v.5Zm3.1 0h2.2v-.5H52v.5Zm3.1 0h2.1v-.5h-2.1v.5ZM43 32.3h2v-.5h-2v.5Zm3 0h2.2v-.5H46v.5Zm3 0h2.2v-.5h-2.1v.5Zm3.1 0h2.2v-.5H52v.5Zm3.1 0h2.1v-.5h-2.1v.5Zm-11.9 1.5h2v-.5h-2v.5Zm2.9 0h2v-.5h-2v.5Zm2.9 0h2v-.5h-2v.5Zm2.9 0h2v-.5h-2v.5Zm3 0h2v-.5h-2v.5Zm-11.3 1.6h1.4V35h-1.4v.5Zm2.3 0h2.2V35H46v.5Zm3 0h2.2V35h-2.1v.5Zm3.1 0h2.2V35H52v.5Zm3.1 0h1.3V35h-1.3v.5ZM43 37.5h2V37h-2v.5Zm3 0h2.2V37H46v.5Zm3 0h2.2V37h-2.1v.5Zm3.1 0h2.2V37H52v.5Zm3.1 0h2.1V37h-2.1v.5ZM43 39.2h2v-.5h-2v.5Zm3 0h2.2v-.5H46v.5Zm3 0h2.2v-.5h-2.1v.5Zm3.1 0h2.2v-.5H52v.5Zm3.1 0h2.1v-.5h-2.1v.5Zm-11.9 1.5h2v-.5h-2v.5Zm2.9 0h2v-.5h-2v.5Zm2.9 0h2v-.5h-2v.5Zm2.9 0h2v-.5h-2v.5Zm3 0h2v-.5h-2v.5Zm-11.3 1.6h1.4v-.5h-1.4v.5Zm2.3 0h2.2v-.5H46v.5Zm3 0h2.2v-.5h-2.1v.5Zm3.1 0h2.2v-.5H52v.5Zm3.1 0h1.3v-.5h-1.3v.5Zm-10.1 2.9H43v-.5h2v.5Zm.9 0h2.2v-.5H46v.5Zm3 0h2.2v-.5h-2.1v.5Zm3.1 0h2.2v-.5H52v.5Zm5.2 0h-2.1v-.5h2.1v.5ZM43 46.9h2v-.6h-2v.6Zm3 0h2.2v-.6H46v.6Zm3 0h2.2v-.6h-2.1v.6Zm3.1 0h2.2v-.6H52v.6Zm5.2 0h-2.1v-.6h2.1v.6Zm-11.9 1.5h-2v-.6h2v.6Zm2.9 0h-2v-.6h2v.6Zm.8 0h2v-.6h-2v.6Zm2.9 0h2v-.6h-2v.6Zm3 0h2v-.6h-2v.6ZM43.7 50h1.4v-.5h-1.4v.5Zm2.3 0h2.2v-.5H46v.5Zm3 0h2.2v-.5h-2.1v.5Zm3.1 0h2.2v-.5H52v.5Zm4.4 0h-1.3v-.5h1.3v.5Zm-11.4 2.2H43v-.5h2v.5Zm3.1 0H46v-.5h2.2v.5Zm3 0h-2.1v-.5h2.1v.5Zm3.1 0H52v-.5h2.2v.5Zm3 0h-2.1v-.5h2.1v.5Zm-12.2 1.7H43v-.6h2v.6Zm.9 0h2.2v-.6H46v.6Zm3 0h2.2v-.6h-2.1v.6Zm3.1 0h2.2v-.6H52v.6Zm3.1 0h2.1v-.6h-2.1v.6Zm-9.8 1.5h-2v-.6h2v.6Zm.8 0h2v-.6h-2v.6Zm2.9 0h2v-.6h-2v.6Zm2.9 0h2v-.6h-2v.6Zm5 0h-2v-.6h2v.6ZM43.7 57h1.4v-.5h-1.4v.5Zm4.5 0H46v-.5h2.2v.5Zm.8 0h2.2v-.5h-2.1v.5Zm3.1 0h2.2v-.5H52v.5Zm4.4 0h-1.3v-.5h1.3v.5Zm-11.4 2.3H43v-.6h2v.6Zm3.1 0H46v-.6h2.2v.6Zm3 0h-2.1v-.6h2.1v.6Zm3.1 0H52v-.6h2.2v.6Zm3 0h-2.1v-.6h2.1v.6ZM43 61h2v-.6h-2v.5Zm5.2 0H46v-.6h2.2v.5Zm.8 0h2.2v-.6h-2.1v.5Zm3.1 0h2.2v-.6H52v.5Zm5.2 0h-2.1v-.6h2.1v.5Zm-14 1.4h2V62h-2v.5Zm5 0h-2V62h2v.5Zm.8 0h2V62h-2v.5Zm2.9 0h2V62h-2v.5Zm5 0h-2V62h2v.5ZM45.1 64h-1.4v-.5h1.4v.6Zm3.1 0H46v-.5h2.2v.6Zm.8 0h2.2v-.5h-2.1v.6Zm3.1 0h2.2v-.5H52v.6Zm4.4 0h-1.3v-.5h1.3v.6Zm-11.4 2.8H43v-.5h2v.5Zm3.1 0H46v-.5h2.2v.5Zm3 0h-2.1v-.5h2.1v.5Zm3.1 0H52v-.5h2.2v.5Zm3 0h-2.1v-.5h2.1v.5Zm-12.2 1.7H43v-.6h2v.6Zm.9 0h2.2v-.6H46v.6Zm3 0h2.2v-.6h-2.1v.6Zm3.1 0h2.2v-.6H52v.6Z"/>
    <path fill="#1F4865" d="M57.3 68.5h-2.1v-.6h2.1v.6Z"/>
    <path fill="#1B6379" d="M45.4 70h-2v-.5h2v.5Zm2.9 0h-2v-.5h2v.5Zm.8 0h2v-.5h-2v.5Zm2.9 0h2v-.5h-2v.5Zm5 0h-2v-.5h2v.5Zm-11.9 1.6h-1.4v-.5h1.4v.5Zm.9 0h2.2v-.5H46v.5Zm3 0h2.2v-.5h-2.1v.5Zm3.1 0h2.2v-.5H52v.5Zm3.1 0h1.3v-.5h-1.3v.5ZM45.1 74H43v-.5h2v.5Zm3.1 0H46v-.5h2.2v.5Zm3 0h-2.1v-.5h2.1v.5Zm3.1 0H52v-.5h2.2v.5Zm3 0h-2.1v-.5h2.1v.5ZM43 75.7h2v-.5h-2v.5Zm5.2 0H46v-.5h2.2v.5Zm.8 0h2.2v-.5h-2.1v.5Zm3.1 0h2.2v-.5H52v.5Zm5.2 0h-2.1v-.5h2.1v.5Zm-11.9 1.5h-2v-.5h2v.5Zm2.9 0h-2v-.5h2v.5Zm.8 0h2v-.5h-2v.5Zm2.9 0h2v-.5h-2v.5Zm5 0h-2v-.5h2v.5Zm-11.9 1.6h-1.4v-.5h1.4v.5Zm3.1 0H46v-.5h2.2v.5Zm.8 0h2.2v-.5h-2.1v.5Zm3.1 0h2.2v-.5H52v.5Zm4.4 0h-1.3v-.5h1.3v.5ZM38.4 99.2H43v-.6h-4.7v.6Zm0-.9H43v-.7h-4.7v.7Zm0-1H43v-.7h-4.7v.7Zm0-1H43v-.6h-4.7v.6Zm0-.9H43v-.7h-4.7v.7Zm0-1H43v-.7h-4.7v.7Zm0-1H43v-.6h-4.7v.6Zm.2-1h4.5v-.6h-4.5v.6Zm.5-.9h4v-.7h-4v.7Zm.4-1H43v-.6h-3.6v.6Zm.4-1H43V89h-3v.6Zm.4-.9h2.8v-.7h-2.8v.7Zm16.4 10.6h4.8v-.6h-4.8v.6Zm0-.9h4.8v-.7h-4.8v.7Zm0-1h4.8v-.7h-4.8v.7Zm0-1h4.8v-.6h-4.8v.6Zm0-.9h4.8v-.7h-4.8v.7Zm0-1h4.8v-.7h-4.8v.7Zm0-1h4.8v-.6h-4.8v.6Zm0-1h4.5v-.6h-4.5v.6Zm0-.9h4v-.7h-4v.7Zm0-1h3.6v-.6h-3.6v.6Zm0-1H60V89h-3.3v.6Zm0-.9h2.8v-.7h-2.8v.7Z"/>
    <path fill="#1F4865" d="M44 88.6h11.7v-.2H44.1v.2Zm-.4-.8h12v-.2h-12v.2ZM45 21.4h10.4v-.2H44.9v.2Z"/>
  </g>
  <mask id="c" width="63" height="13" x="17" y="86" fill="#000" maskUnits="userSpaceOnUse">
    <path fill="#fff" d="M17 86h63v13H17z"/>
    <path d="M18.7 90v-1.7H26V90h-2.6v7h-2v-7h-2.7Zm9.2 7h-2.3l3-8.7h2.8l3 8.7H32l-2-6.5-2.1 6.5Zm-.3-3.4h4.7v1.6h-4.7v-1.6Zm9.8-5.3V97h-2.2v-8.7h2.2Zm1.3 8.7v-8.7h3.6c.6 0 1.2.1 1.7.4.5.2.8.6 1 1a3 3 0 0 1 0 3.2c-.2.4-.6.8-1 1-.5.3-1.1.4-1.8.4H40v-1.7h1.8l.8-.1.5-.5.2-.7c0-.3 0-.5-.2-.7 0-.2-.3-.4-.5-.5l-.8-.1h-1v7h-2.1Zm7.8 0v-8.7h6V90h-3.9v1.8h3.7v1.7h-3.7v1.8h4V97h-6Zm9.5-8.7V97h-2v-8.7h2Zm8 0V97h-2.2v-6.8l-2 1.2v-1.8l2.2-1.3h2Zm5.5 9c-.8 0-1.4-.3-2-.6a5 5 0 0 1-1.3-1.6 6 6 0 0 1-.4-2.5c0-1 .1-1.7.4-2.4a3.3 3.3 0 0 1 3.3-2c.7 0 1.4.1 2 .5.5.3 1 .8 1.2 1.5a6.2 6.2 0 0 1 0 4.9 4 4 0 0 1-1.2 1.6c-.6.3-1.3.5-2 .5Zm0-1.8a1 1 0 0 0 1-.7c.4-.5.5-1.2.5-2.2 0-.6 0-1.1-.2-1.5a2 2 0 0 0-.5-1l-.8-.2c-.5 0-.8.2-1.1.7-.3.4-.4 1.1-.4 2l.1 1.6.6 1c.2.2.5.3.8.3Zm9-7.2V97h-2.2v-6.8l-2 1.2v-1.8l2.2-1.3h2Z"/>
  </mask>
  <path fill="#000" d="M18.7 90v-1.7H26V90h-2.6v7h-2v-7h-2.7Zm9.2 7h-2.3l3-8.7h2.8l3 8.7H32l-2-6.5-2.1 6.5Zm-.3-3.4h4.7v1.6h-4.7v-1.6Zm9.8-5.3V97h-2.2v-8.7h2.2Zm1.3 8.7v-8.7h3.6c.6 0 1.2.1 1.7.4.5.2.8.6 1 1a3 3 0 0 1 0 3.2c-.2.4-.6.8-1 1-.5.3-1.1.4-1.8.4H40v-1.7h1.8l.8-.1.5-.5.2-.7c0-.3 0-.5-.2-.7 0-.2-.3-.4-.5-.5l-.8-.1h-1v7h-2.1Zm7.8 0v-8.7h6V90h-3.9v1.8h3.7v1.7h-3.7v1.8h4V97h-6Zm9.5-8.7V97h-2v-8.7h2Zm8 0V97h-2.2v-6.8l-2 1.2v-1.8l2.2-1.3h2Zm5.5 9c-.8 0-1.4-.3-2-.6a5 5 0 0 1-1.3-1.6 6 6 0 0 1-.4-2.5c0-1 .1-1.7.4-2.4a3.3 3.3 0 0 1 3.3-2c.7 0 1.4.1 2 .5.5.3 1 .8 1.2 1.5a6.2 6.2 0 0 1 0 4.9 4 4 0 0 1-1.2 1.6c-.6.3-1.3.5-2 .5Zm0-1.8a1 1 0 0 0 1-.7c.4-.5.5-1.2.5-2.2 0-.6 0-1.1-.2-1.5a2 2 0 0 0-.5-1l-.8-.2c-.5 0-.8.2-1.1.7-.3.4-.4 1.1-.4 2l.1 1.6.6 1c.2.2.5.3.8.3Zm9-7.2V97h-2.2v-6.8l-2 1.2v-1.8l2.2-1.3h2Z"/>
  <path fill="#fff" d="M18.7 90h-1.5v1.5h1.5V90Zm0-1.7v-1.5h-1.5v1.5h1.5Zm7.3 0h1.5v-1.5H26v1.5Zm0 1.7v1.5h1.5V90H26Zm-2.6 0v-1.5h-1.5V90h1.5Zm0 7v1.5h1.5V97h-1.5Zm-2 0h-1.6v1.5h1.5V97Zm0-7h1.4v-1.5h-1.5V90Zm-1.2 0v-1.7h-3V90h3Zm-1.5-.2H26v-3h-7.3v3Zm5.8-1.5V90h3v-1.7h-3Zm1.5.2h-2.6v3H26v-3ZM22 90v7h3v-7h-3Zm1.5 5.5h-2v3h2v-3Zm-.6 1.5v-7h-3v7h3Zm-1.5-8.5h-2.6v3h2.6v-3ZM28 97v1.5h1l.4-1L28 97Zm-2.3 0-1.4-.5-.7 2h2.1V97Zm3-8.7v-1.5h-1.1l-.4 1 1.5.5Zm2.8 0 1.4-.5-.4-1h-1v1.5Zm3 8.7v1.5h2l-.7-2-1.4.5ZM32 97l-1.4.4.3 1.1H32V97Zm-2-6.5 1.4-.5-.3-1H30v1.5Zm0 0V89h-1.2l-.3 1 1.4.5Zm-2.4 3v-1.4H26v1.5h1.5Zm4.7 0h1.5v-1.4h-1.5v1.5Zm0 1.7v1.5h1.5v-1.5h-1.5Zm-4.7 0H26v1.5h1.5v-1.5Zm.3.3h-2.3v3H28v-3Zm-.9 2 3-8.7-2.9-1-3 8.7 3 1Zm1.6-7.7h2.8v-3h-2.8v3Zm1.3-1 3 8.7 2.8-1-3-8.7-2.8 1Zm4.4 6.7H32v3h2.3v-3Zm-.8 1-2-6.5-3 1 2.1 6.4 2.9-.8ZM30 89v3-3Zm-1.5 1-2 6.6 2.8.8 2-6.5-2.8-.9Zm-1 5h4.8v-3h-4.7v3Zm3.3-1.4v1.6h3v-1.6h-3Zm1.5 0h-4.7v3h4.7v-3Zm-3.2 1.6v-1.6h-3v1.6h3Zm8.3-7h1.5v-1.4h-1.5v1.5Zm0 8.8v1.5h1.5V97h-1.5Zm-2.2 0h-1.5v1.5h1.5V97Zm0-8.7v-1.5h-1.5v1.5h1.5Zm.7 0V97h3v-8.7h-3Zm1.5 7.2h-2.2v3h2.2v-3Zm-.7 1.5v-8.7h-3V97h3Zm-1.5-7.2h2.2v-3h-2.2v3Zm3.5 7.2h-1.5v1.5h1.5V97Zm0-8.7v-1.5h-1.5v1.5h1.5Zm5.3.4-.7 1.3.7-1.3Zm1 1-1.2.8 1.3-.8Zm0 3.2-1.2-.8 1.3.8Zm-1 1 .6 1.4-.6-1.4Zm-4 .4h-1.5v1.5H40v-1.5Zm0-1.7v-1.5h-1.5v1.5H40Zm2.6-.1L42 91l.7 1.4Zm.5-.5 1.3.7-1.3-.7Zm0-1.4-1.3.7 1.3-.7Zm-.5-.5-.6 1.4.6-1.4Zm-1.8-.1v-1.5h-1.5V90h1.5Zm0 7v1.5h1.5V97h-1.5Zm-.6 0v-8.7h-3V97h3Zm-1.5-7.2h3.6v-3h-3.6v3Zm3.6 0c.4 0 .8 0 1 .2l1.4-2.7a5 5 0 0 0-2.4-.5v3Zm1 .2.5.5 2.6-1.5c-.4-.7-1-1.3-1.7-1.7L43.3 90Zm.5.5.2.8h3c0-.8-.2-1.6-.6-2.3l-2.6 1.5Zm.2.8-.2.8 2.6 1.5c.4-.7.6-1.5.6-2.3h-3Zm-.2.8-.5.5 1.3 2.7c.8-.4 1.4-1 1.8-1.7l-2.6-1.5Zm-.5.5-1 .2v3a6 6 0 0 0 2.3-.5l-1.3-2.7Zm-1 .2H40v3h2.2v-3Zm-.8 1.5v-1.7h-3v1.7h3ZM40 94h1.8v-3H40v3Zm1.8 0c.5 0 1 0 1.5-.3L42 91v3Zm1.5-.3c.5-.2.9-.6 1.1-1l-2.6-1.5a.4.4 0 0 1 .1-.2l1.4 2.7Zm1.1-1c.3-.5.4-1 .4-1.5h-3l2.6 1.4Zm.4-1.5c0-.5-.1-1-.4-1.4l-2.6 1.4h3Zm-.4-1.4a2 2 0 0 0-1.1-1.1L42 91.5h-.1v-.2l2.5-1.4Zm-1.1-1.1-1.5-.3v3h.2l1.3-2.7Zm-1.5-.3h-1v3h1v-3ZM39.3 90v7h3v-7h-3Zm1.5 5.5h-2.1v3h2v-3Zm5.7 1.5H45v1.5h1.5V97Zm0-8.7v-1.5H45v1.5h1.5Zm6 0h1.6v-1.5h-1.5v1.5Zm0 1.7v1.5h1.6V90h-1.5Zm-3.9 0v-1.5h-1.5V90h1.5Zm0 1.8h-1.5v1.5h1.5v-1.5Zm3.7 0h1.5v-1.5h-1.5v1.5Zm0 1.7V95h1.5v-1.5h-1.5Zm-3.7 0V92h-1.5v1.5h1.5Zm0 1.8h-1.5v1.5h1.5v-1.5Zm4 0H54v-1.5h-1.5v1.5Zm0 1.7v1.5H54V97h-1.5ZM48 97v-8.7h-3V97h3Zm-1.5-7.2h6v-3h-6v3Zm4.6-1.5V90h3v-1.7h-3Zm1.5.2h-4v3h4v-3ZM47 90v1.8h3V90h-3Zm1.5 3.3h3.7v-3h-3.7v3Zm2.2-1.5v1.7h3v-1.7h-3Zm1.5.2h-3.7v3h3.7v-3ZM47 93.5v1.8h3v-1.8h-3Zm1.5 3.3h4v-3h-4v3Zm2.5-1.5V97h3v-1.7h-3Zm1.5.2h-6v3h6v-3Zm3.4-7.2h1.5v-1.5H56v1.5Zm0 8.7v1.5h1.5V97H56Zm-2 0h-1.6v1.5H54V97Zm0-8.7v-1.5h-1.6v1.5H54Zm.5 0V97h3v-8.7h-3Zm1.5 7.2h-2v3h2v-3Zm-.6 1.5v-8.7h-3V97h3ZM54 89.8h2v-3h-2v3Zm10-1.5h1.5v-1.5H64v1.5Zm0 8.7v1.5h1.5V97H64Zm-2 0h-1.6v1.5h1.5V97Zm0-6.8h1.4v-1.5h-1.5v1.5Zm-.1 0v-1.5h-.4l-.4.3.8 1.2Zm-2 1.2h-1.5v2.7l2.3-1.4-.8-1.3Zm0-1.8-.8-1.3-.7.5v.8h1.5Zm2.2-1.3v-1.5h-.4l-.4.2.8 1.3Zm.4 0V97h3v-8.7h-3Zm1.5 7.2h-2v3h2v-3Zm-.6 1.5v-6.8h-3V97h3Zm-1.5-8.3v3-3Zm-.8.3-2 1.2 1.6 2.5 2-1.2L61 89Zm.3 2.4v-1.8h-3v1.8h3Zm-.7-.5 2.2-1.4-1.6-2.5-2.2 1.3 1.6 2.6Zm1.4-1.1h2v-3h-2v3Zm5.5 6.9-.8 1.2.8-1.2ZM66.2 95l-1.3.6 1.3-.6Zm-.4-2.5h-1.5 1.5Zm.4-2.4-1.3-.6 1.3.6Zm1.3-1.5.8 1.2-.8-1.2Zm4 0-.9 1.2.9-1.2Zm1.2 1.5 1.4-.6-1.4.6Zm.5 2.4h-1.5 1.5Zm-.5 2.5-1.3-.6 1.3.6Zm-1.2 1.6.8 1.2-.8-1.2Zm-1-2 1.4.9-1.3-.8Zm.5-2h-1.5H71Zm-.2-1.6-1.4.4 1.4-.4Zm-.5-1 1-1-1 1Zm-2 .5 1.4.7-1.3-.7Zm-.3 2h1.5H68Zm.1 1.6-1.4.5 1.4-.5Zm.6 1-1 1v.1l1-1.1Zm.8.5a2 2 0 0 1-1.2-.3L66.7 98a5 5 0 0 0 2.8.8v-3Zm-1.2-.3a2 2 0 0 1-.7-.9L65 95.7a5 5 0 0 0 1.8 2.2l1.6-2.5Zm-.7-.9c-.2-.4-.3-1-.3-1.8h-3c0 1 .2 2 .6 3l2.7-1.2Zm-.3-1.8c0-.9.1-1.5.3-1.9L65 89.6a8 8 0 0 0-.6 3h3Zm.3-1.9.7-.9-1.6-2.5c-.8.5-1.4 1.3-1.8 2.2l2.7 1.2Zm.7-.9a2 2 0 0 1 1.2-.2v-3c-1 0-2 .2-2.8.7l1.6 2.5Zm1.2-.2c.5 0 .9 0 1.1.2l1.7-2.5a5 5 0 0 0-2.8-.7v3Zm1.2.3c.2.1.5.4.7.8l2.7-1.2c-.4-1-1-1.7-1.8-2.2L70.7 90Zm.7.8c.2.4.3 1 .3 1.8h3c0-1-.2-2-.6-3l-2.7 1.2Zm.3 1.8c0 .9-.2 1.5-.3 2l2.7 1.1c.4-.9.6-2 .6-3h-3Zm-.3 2a2 2 0 0 1-.8.8l1.7 2.5a5 5 0 0 0 1.8-2.2l-2.7-1.2Zm-.8.8a2 2 0 0 1-1.1.3v3c1 0 2-.2 2.8-.8l-1.7-2.5ZM69.5 97a3 3 0 0 0 2.4-1.4L69.3 94a.4.4 0 0 1 .2 0v3Zm2.4-1.4a6 6 0 0 0 .6-3h-3c0 1-.1 1.3-.2 1.4l2.6 1.6Zm.6-3c0-.7 0-1.4-.3-2l-2.8 1 .1 1h3Zm-.3-2c-.1-.5-.4-1.1-1-1.6l-2 2.3.2.2 2.8-.9Zm-1-1.6c-.4-.4-1-.6-1.7-.6v3h-.1l-.1-.1 2-2.3Zm-1.7-.6c-1.1 0-1.9.6-2.4 1.4l2.6 1.5a.4.4 0 0 1-.2 0v-3ZM67 89.8c-.5.8-.6 1.8-.6 2.8h3c0-.8.1-1.2.2-1.3L67 89.8Zm-.6 2.8c0 .8 0 1.5.2 2l2.9-.8-.1-1.1h-3Zm.2 2c.2.7.5 1.2 1 1.7l2-2.2-.1-.3-2.9.9Zm1 1.7c.5.4 1.1.7 1.8.7v-3a.3.3 0 0 1 .2 0l-2 2.3Zm10.7-8H80v-1.5h-1.5v1.5Zm0 8.7v1.5H80V97h-1.5Zm-2 0h-1.6v1.5h1.5V97Zm0-6.8h1.4v-1.5h-1.5v1.5Zm-.1 0v-1.5h-.5l-.3.3.8 1.2Zm-2 1.2h-1.5v2.7l2.3-1.4-.8-1.3Zm0-1.8-.8-1.3-.7.5v.8h1.5Zm2.2-1.3v-1.5H76l-.3.2.8 1.3Zm.4 0V97h3v-8.7h-3Zm1.5 7.2h-2v3h2v-3Zm-.6 1.5v-6.8h-3V97h3Zm-1.5-8.3v3-3Zm-.8.3-2 1.2 1.6 2.5 2-1.2-1.6-2.5Zm.3 2.4v-1.8h-3v1.8h3Zm-.7-.5 2.2-1.4-1.6-2.5-2.2 1.3 1.6 2.6Zm1.4-1.1h2v-3h-2v3Z" mask="url(#c)"/>
  <defs>
    <clipPath id="a">
      <path fill="#fff" d="M22 0h56v99.6H22z"/>
    </clipPath>
  </defs>
</svg>
