<svg xmlns="http://www.w3.org/2000/svg" fill="none" viewBox="0 0 100 100">
  <g clip-path="url(#a)">
    <path fill="#BFBAB9" d="m40.6 69.9 9.6-13.7L60 70a.3.3 0 1 0 .4-.3l-10-14c0-.2-.1-.2-.2-.2l-.2.1-9.8 14a.3.3 0 1 0 .4.3Z"/>
    <path fill="#BFBAB9" d="m40.5 71.5 9.6-14 9.8 13.3h.1c.1 0 .1 0 0-.1L50.3 57H50l-9.7 14.2a.1.1 0 0 0 .2.2Z"/>
    <path fill="#D3CECC" d="M59.7 56h-19v-3h19v3ZM32.1 7.2h-.3V0h.3v7.2Zm3.5 10.2s-2.4-9.5-3.7-9.5c-1 0-3.3 9.5-3.3 9.5h7Z"/>
    <path fill="#D3CECC" d="M33 7.4a1 1 0 1 1-2 0 1 1 0 0 1 2 0Zm4.5 19.2v-5.5S35.5 20 32 20c-3.7 0-5.4 1-5.4 1v5.6h11Z"/>
    <path fill="#D3CECC" d="M36.2 21v-4.2s-1.5-.8-4.3-.8-4.1.8-4.1.8V21h8.4Zm4.6 78.6H23.2V48s2.8-1 8.6-1c5.9 0 9 1 9 1v51.6Zm-1.6-64.2v-8.6s-2.5-1-7.3-1-7.1 1-7.1 1v8.6h14.4Z"/>
    <path fill="#D3CECC" d="M40 48.1V35.3s-2.8-1.1-8.1-1.1c-5.4 0-8 1.1-8 1.1v12.8H40Z"/>
    <path fill="#1A4582" d="M33 16.2s-.7-2-1-2c-.4 0-1 2-1 2h2Z"/>
    <path fill="#1A4582" d="M33 14.7s-.7-1.7-1-1.7c-.4 0-1 1.7-1 1.7h2Z"/>
    <path fill="#1A4582" d="M33 13.3s-.7-1.6-1-1.6c-.3 0-1 1.6-1 1.6h2Z"/>
    <path fill="#1A4582" d="M32.8 12s-.5-1.6-.9-1.6c-.2 0-.7 1.5-.7 1.5h1.6Z"/>
    <path fill="#1A4582" d="M32.7 10.5s-.5-1.4-.8-1.4c-.2 0-.7 1.4-.7 1.4h1.5Z"/>
    <path fill="#0C2444" d="M31 15.7v.5h2l-.1-.5H31Zm.2-1.4-.2.4h2l-.2-.4h-1.6Zm0-1.3-.1.3h1.8l-.1-.3h-1.6Zm.1-1.4-.1.3h1.6l-.1-.3h-1.4Zm.1-1.5-.2.4h1.5l-.1-.4h-1.2Z"/>
    <path fill="#BFBAB9" d="M32.9 20a17.4 17.4 0 0 0-5 .5v6.1h5V20Z"/>
    <path fill="#BFBAB9" d="M32.9 16h-1c-2.4 0-3.7.5-4 .7V21h5v-5Zm0 31a46.4 46.4 0 0 0-5 .1v52.5h5V46.9Zm0-21.3a29.3 29.3 0 0 0-5 .3v9.4h5v-9.7Z"/>
    <path fill="#BFBAB9" d="M32.9 34.2a39.4 39.4 0 0 0-5 .2v13.7h5V34.2Z"/>
    <path fill="#A29E9D" d="M34.6 20.2a16.3 16.3 0 0 0-3-.2v6.6h3v-6.4Z"/>
    <path fill="#A29E9D" d="M34.6 16.3C34 16 33 16 32 16h-.2v5h3v-4.7Zm0 30.7h-2.9v52.6h3V47Zm0-21.2a29 29 0 0 0-2.7 0h-.2v9.6h3v-9.6Z"/>
    <path fill="#A29E9D" d="M34.6 34.3a36.4 36.4 0 0 0-3-.1v13.9h3V34.3Z"/>
    <path fill="#1A4582" d="M26.6 50h-2.3v-1.3h2.3V50Zm3.4-.4h-2.4v-1.3H30v1.3Zm3.3-.4h-2.4V48h2.4v1.2Zm3.2.4h-2.3v-1.3h2.3v1.3Zm3.3.4h-2.3v-1.2h2.3V50Z"/>
    <path fill="#0C2444" d="M24.3 50h2.3v-.5h-2.3v.4Zm3.3-.4H30v-.4h-2.4v.4Zm3.4-.4h2.3v-.4h-2.4v.4Zm3.2.4h2.3v-.4h-2.3v.4Zm3.3.4h2.3v-.4h-2.3v.4Z"/>
    <path fill="#1A4582" d="M26.6 52.3h-2.3V51h2.3v1.3Zm3.4-.4h-2.4v-1.2H30v1.2Zm3.3-.4h-2.4v-1.2h2.4v1.2Zm3.2.4h-2.3v-1.2h2.3v1.2Zm3.3.4h-2.3v-1.2h2.3v1.2Z"/>
    <path fill="#0C2444" d="M24.3 52.3h2.3v-.4h-2.3v.4Zm3.3-.4H30v-.4h-2.4v.4Zm3.4-.4h2.3V51h-2.4v.4Zm3.2.4h2.3v-.4h-2.3v.4Zm3.3.4h2.3V52h-2.3v.4Z"/>
    <path fill="#1A4582" d="M26.6 54.6h-2.3v-1.2h2.3v1.2Zm3.4-.4h-2.4V53H30v1.2Zm3.3-.4h-2.4v-1.2h2.4v1.2Zm3.2.4h-2.3V53h2.3v1.2Zm3.3.4h-2.3v-1.2h2.3v1.2Z"/>
    <path fill="#0C2444" d="M24.3 54.6h2.3v-.4h-2.3v.4Zm3.3-.4H30v-.4h-2.4v.4Zm3.4-.4h2.3v-.4h-2.4v.4Zm3.2.4h2.3v-.4h-2.3v.4Zm3.3.4h2.3v-.4h-2.3v.4Z"/>
    <path fill="#1A4582" d="M26.6 56.9h-2.3v-1.2h2.3v1.2Zm3.4-.4h-2.4v-1.2H30v1.2Zm3.3-.4h-2.4v-1.2h2.4V56Zm3.2.4h-2.3v-1.2h2.3v1.2Zm3.3.5h-2.3v-1.3h2.3V57Z"/>
    <path fill="#0C2444" d="M24.3 56.9h2.3v-.4h-2.3v.4Zm3.3-.4H30V56h-2.4v.4Zm3.4-.4h2.3v-.4h-2.4v.4Zm3.2.4h2.3V56h-2.3v.4Zm3.3.5h2.3v-.5h-2.3v.4Z"/>
    <path fill="#1A4582" d="M26.6 59.2h-2.3V58h2.3v1.2Zm3.4-.4h-2.4v-1.2H30v1.2Zm3.3-.4h-2.4v-1.2h2.4v1.2Zm3.2.4h-2.3v-1.2h2.3v1.2Zm3.3.5h-2.3V58h2.3v1.3Z"/>
    <path fill="#0C2444" d="M24.3 59.2h2.3v-.4h-2.3v.4Zm3.3-.4H30v-.4h-2.4v.4Zm3.4-.4h2.3V58h-2.4v.4Zm3.2.4h2.3v-.4h-2.3v.4Zm3.3.5h2.3v-.4h-2.3v.4Z"/>
    <path fill="#1A4582" d="M26.6 61.5h-2.3v-1.2h2.3v1.2Zm3.4-.4h-2.4V60H30v1.2Zm3.3-.4h-2.4v-1.2h2.4v1.2Zm3.2.4h-2.3V60h2.3v1.2Zm3.3.5h-2.3v-1.2h2.3v1.2Z"/>
    <path fill="#0C2444" d="M24.3 61.5h2.3v-.4h-2.3v.4Zm3.3-.4H30v-.4h-2.4v.4Zm3.4-.4h2.3v-.4h-2.4v.4Zm3.2.4h2.3v-.4h-2.3v.4Zm3.3.5h2.3v-.4h-2.3v.4Z"/>
    <path fill="#1A4582" d="M26.6 63.8h-2.3v-1.2h2.3v1.2Zm3.4-.4h-2.4v-1.2H30v1.2Zm3.3-.4h-2.4v-1.2h2.4V63Zm3.2.4h-2.3v-1.2h2.3v1.2Zm3.3.5h-2.3v-1.2h2.3v1.2Z"/>
    <path fill="#0C2444" d="M24.3 63.8h2.3v-.4h-2.3v.4Zm3.3-.4H30V63h-2.4v.4ZM31 63h2.3v-.4h-2.4v.4Zm3.2.4h2.3V63h-2.3v.4Zm3.3.5h2.3v-.4h-2.3v.4Z"/>
    <path fill="#1A4582" d="M26.6 66.1h-2.3V65h2.3v1.2Zm3.4-.4h-2.4v-1.2H30v1.2Zm3.3-.4h-2.4v-1.2h2.4v1.2Zm3.2.4h-2.3v-1.2h2.3v1.2Zm3.3.5h-2.3V65h2.3v1.2Z"/>
    <path fill="#0C2444" d="M24.3 66.1h2.3v-.4h-2.3v.4Zm3.3-.4H30v-.4h-2.4v.4Zm3.4-.4h2.3V65h-2.4v.4Zm3.2.4h2.3v-.4h-2.3v.4Zm3.3.5h2.3v-.4h-2.3v.4Z"/>
    <path fill="#1A4582" d="M26.6 68.4h-2.3v-1.2h2.3v1.2ZM30 68h-2.4v-1.2H30V68Zm3.3-.3h-2.4v-1.3h2.4v1.3Zm3.2.3h-2.3v-1.2h2.3V68Zm3.3.5h-2.3v-1.2h2.3v1.2Z"/>
    <path fill="#0C2444" d="M24.3 68.4h2.3V68h-2.3v.4Zm3.3-.4H30v-.4h-2.4v.4Zm3.4-.3h2.3v-.5h-2.4v.5Zm3.2.3h2.3v-.4h-2.3v.4Zm3.3.5h2.3v-.4h-2.3v.4Z"/>
    <path fill="#1A4582" d="M26.6 70.7h-2.3v-1.2h2.3v1.2Zm3.4-.3h-2.4V69H30v1.3Zm3.3-.4h-2.4v-1.2h2.4V70Zm3.2.4h-2.3V69h2.3v1.3Zm3.3.4h-2.3v-1.2h2.3v1.2Z"/>
    <path fill="#0C2444" d="M24.3 70.7h2.3v-.4h-2.3v.4Zm3.3-.3H30V70h-2.4v.4ZM31 70h2.3v-.4h-2.4v.4Zm3.2.4h2.3V70h-2.3v.4Zm3.3.4h2.3v-.4h-2.3v.4Z"/>
    <path fill="#1A4582" d="M26.6 73h-2.3v-1.2h2.3v1.3Zm3.4-.3h-2.4v-1.2H30v1.2Zm3.3-.4h-2.4V71h2.4v1.2Zm3.2.4h-2.3v-1.2h2.3v1.2Zm3.3.4h-2.3V72h2.3v1.2Z"/>
    <path fill="#0C2444" d="M24.3 73h2.3v-.3h-2.3v.4Zm3.3-.3H30v-.4h-2.4v.4Zm3.4-.4h2.3v-.4h-2.4v.4Zm3.2.4h2.3v-.4h-2.3v.4Zm3.3.4h2.3v-.4h-2.3v.4Z"/>
    <path fill="#1A4582" d="M26.6 75.4h-2.3v-1.2h2.3v1.2ZM30 75h-2.4v-1.2H30V75Zm3.3-.4h-2.4v-1.2h2.4v1.2Zm3.2.4h-2.3v-1.2h2.3V75Zm3.3.4h-2.3v-1.2h2.3v1.2Z"/>
    <path fill="#0C2444" d="M24.3 75.4h2.3V75h-2.3v.4Zm3.3-.4H30v-.4h-2.4v.4Zm3.4-.4h2.3v-.4h-2.4v.4Zm3.2.4h2.3v-.4h-2.3v.4Zm3.3.4h2.3V75h-2.3v.4Z"/>
    <path fill="#1A4582" d="M26.6 77.7h-2.3v-1.2h2.3v1.2Zm3.4-.4h-2.4V76H30v1.2Zm3.3-.4h-2.4v-1.2h2.4v1.2Zm3.2.4h-2.3V76h2.3v1.2Zm3.3.4h-2.3v-1.2h2.3v1.2Z"/>
    <path fill="#0C2444" d="M24.3 77.7h2.3v-.4h-2.3v.4Zm3.3-.4H30v-.4h-2.4v.4Zm3.4-.4h2.3v-.4h-2.4v.4Zm3.2.4h2.3v-.4h-2.3v.4Zm3.3.4h2.3v-.4h-2.3v.4Z"/>
    <path fill="#1A4582" d="M26.6 80h-2.3v-1.2h2.3V80Zm3.4-.4h-2.4v-1.2H30v1.2Zm3.3-.4h-2.4V78h2.4v1.2Zm3.2.4h-2.3v-1.2h2.3v1.2Zm3.3.4h-2.3v-1.2h2.3v1.3Z"/>
    <path fill="#0C2444" d="M24.3 80h2.3v-.4h-2.3v.4Zm3.3-.4H30v-.4h-2.4v.4Zm3.4-.4h2.3v-.4h-2.4v.4Zm3.2.4h2.3v-.4h-2.3v.4Zm3.3.4h2.3v-.3h-2.3v.4Z"/>
    <path fill="#1A4582" d="M26.6 82.3h-2.3v-1.2h2.3v1.2ZM30 82h-2.4v-1.3H30v1.2Zm3.3-.5h-2.4v-1.2h2.4v1.2Zm3.2.5h-2.3v-1.3h2.3v1.2Zm3.3.4h-2.3v-1.2h2.3v1.2Z"/>
    <path fill="#0C2444" d="M24.3 82.3h2.3v-.4h-2.3v.4Zm3.3-.3H30v-.5h-2.4v.4Zm3.4-.5h2.3v-.4h-2.4v.4Zm3.2.5h2.3v-.5h-2.3v.4Zm3.3.4h2.3V82h-2.3v.4Z"/>
    <path fill="#1A4582" d="M26.6 84.6h-2.3v-1.2h2.3v1.2Zm3.4-.4h-2.4V83H30v1.2Zm3.3-.4h-2.4v-1.2h2.4v1.2Zm3.2.4h-2.3V83h2.3v1.2Zm3.3.5h-2.3v-1.2h2.3v1.2Z"/>
    <path fill="#0C2444" d="M24.3 84.6h2.3v-.4h-2.3v.4Zm3.3-.4H30v-.4h-2.4v.4Zm3.4-.4h2.3v-.4h-2.4v.4Zm3.2.4h2.3v-.4h-2.3v.4Zm3.3.5h2.3v-.4h-2.3v.4Z"/>
    <path fill="#1A4582" d="M26.6 87h-2.3v-1.3h2.3V87Zm3.4-.5h-2.4v-1.2H30v1.2Zm3.3-.4h-2.4V85h2.4v1.2Zm3.2.4h-2.3v-1.2h2.3v1.2Zm3.3.5h-2.3v-1.2h2.3V87Z"/>
    <path fill="#0C2444" d="M24.3 87h2.3v-.5h-2.3v.4Zm3.3-.5H30v-.4h-2.4v.4Zm3.4-.4h2.3v-.4h-2.4v.4Zm3.2.4h2.3v-.4h-2.3v.4Zm3.3.5h2.3v-.4h-2.3v.4Z"/>
    <path fill="#1A4582" d="M26.6 89.2h-2.3V88h2.3v1.2Zm3.4-.4h-2.4v-1.2H30v1.2Zm3.3-.3h-2.4v-1.3h2.4v1.3Zm3.2.3h-2.3v-1.2h2.3v1.2Zm3.3.5h-2.3v-1.2h2.3v1.2Z"/>
    <path fill="#0C2444" d="M24.3 89.2h2.3v-.4h-2.3v.4Zm3.3-.4H30v-.4h-2.4v.4Zm3.4-.3h2.3V88h-2.4v.4Zm3.2.3h2.3v-.4h-2.3v.4Zm3.3.5h2.3v-.4h-2.3v.4Z"/>
    <path fill="#1A4582" d="M26.6 91.5h-2.3v-1.2h2.3v1.2Zm3.4-.3h-2.4v-1.3H30v1.3Zm3.3-.4h-2.4v-1.2h2.4v1.2Zm3.2.4h-2.3v-1.3h2.3v1.3Zm3.3.4h-2.3v-1.2h2.3v1.2Z"/>
    <path fill="#0C2444" d="M24.3 91.5h2.3v-.4h-2.3v.4Zm3.3-.3H30v-.4h-2.4v.4Zm3.4-.4h2.3v-.4h-2.4v.4Zm3.2.4h2.3v-.4h-2.3v.4Zm3.3.4h2.3v-.4h-2.3v.4Z"/>
    <path fill="#1A4582" d="M26.6 93.9h-2.3v-1.3h2.3V94Zm3.4-.4h-2.4v-1.2H30v1.2Zm3.3-.5h-2.4v-1h2.4v1Zm3.2.5h-2.3v-1.2h2.3v1.2Zm3.3.5h-2.3v-1.3h2.3V94Z"/>
    <path fill="#0C2444" d="M24.3 93.9h2.3v-.4h-2.3v.4Zm3.3-.4H30V93h-2.4v.4ZM31 93h2.3v-.3h-2.4v.4Zm3.2.5h2.3V93h-2.3v.4Zm3.3.5h2.3v-.5h-2.3v.4Z"/>
    <path fill="#1A4582" d="M26.6 96.2h-2.3V95h2.3v1.2Zm3.4-.4h-2.4v-1.2H30v1.2Zm3.3-.4h-2.4v-1.2h2.4v1.2Zm3.2.4h-2.3v-1.2h2.3v1.2Zm3.3.4h-2.3V95h2.3v1.2Z"/>
    <path fill="#0C2444" d="M24.3 96.2h2.3v-.4h-2.3v.4Zm3.3-.4H30v-.4h-2.4v.4Zm3.4-.4h2.3V95h-2.4v.4Zm3.2.4h2.3v-.4h-2.3v.4Zm3.3.4h2.3v-.4h-2.3v.4Z"/>
    <path fill="#1A4582" d="M26.6 98.5h-2.3v-1.2h2.3v1.2ZM30 98h-2.4v-1H30v1Zm3.3-.3h-2.4v-1.2h2.4v1.2Zm3.2.3h-2.3v-1h2.3v1Zm3.3.5h-2.3v-1.2h2.3v1.2Z"/>
    <path fill="#0C2444" d="M24.3 98.5h2.3V98h-2.3v.4Zm3.3-.5H30v-.3h-2.4v.4Zm3.4-.3h2.3v-.4h-2.4v.4Zm3.2.3h2.3v-.3h-2.3v.4Zm3.3.5h2.3v-.4h-2.3v.4Z"/>
    <path fill="#1A4582" d="M27.1 37.1H25V36h2.2v1Zm3.1-.3h-2.1v-1.2h2.1v1.2Zm3.1-.4H31v-1.1h2.2v1Zm3 .4h-2.1v-1.2h2.1v1.2Zm3.1.4h-2.2V36h2.2v1.2Z"/>
    <path fill="#0C2444" d="M25 37.1h2v-.4h-2v.4Zm3-.3h2.2v-.4h-2.1v.4Zm3.1-.4h2.2V36H31v.4Zm3.1.4h2.1v-.4h-2.1v.4Zm3 .4h2.2v-.4h-2.2v.4Z"/>
    <path fill="#1A4582" d="M27.4 28.5h-2v-1.2h2v1.2Zm2.9-.5h-2v-1h2v1Zm2.7-.3h-2v-1.1h2v1.1Zm2.9.3h-2v-1h2v1Zm2.8.5h-2v-1.1h2v1.1Z"/>
    <path fill="#0C2444" d="M25.4 28.5h2V28h-2v.4Zm2.9-.5h2v-.3h-2v.4Zm2.7-.3h2v-.4h-2v.4Zm2.9.3h2v-.3h-2v.4Zm2.8.5h2v-.4h-2v.4Z"/>
    <path fill="#1A4582" d="M27.4 30.3h-2v-1h2v1Zm2.9-.3h-2v-1.2h2V30Zm2.7-.4h-2v-1.1h2v1.1Zm2.9.4h-2v-1.2h2V30Zm2.8.4h-2v-1.1h2v1.1Z"/>
    <path fill="#0C2444" d="M25.4 30.3h2V30h-2v.3Zm2.9-.3h2v-.4h-2v.4Zm2.7-.4h2v-.4h-2v.4Zm2.9.4h2v-.4h-2v.4Zm2.8.4h2V30h-2v.4Z"/>
    <path fill="#1A4582" d="M27.4 32.2h-2v-1.1h2v1.1Zm2.9-.3h-2v-1.2h2V32Zm2.7-.4h-2v-1.1h2v1Zm2.9.4h-2v-1.2h2V32Zm2.8.4h-2v-1.1h2v1Z"/>
    <path fill="#0C2444" d="M25.4 32.2h2v-.4h-2v.4Zm2.9-.3h2v-.4h-2v.4Zm2.7-.4h2V31h-2v.4Zm2.9.4h2v-.4h-2v.4Zm2.8.4h2v-.4h-2v.4Z"/>
    <path fill="#1A4582" d="M27.4 34.1h-2V33h2v1Zm2.9-.4h-2v-1h2v1Zm2.7-.3h-2v-1.1h2v1Zm2.9.3h-2v-1h2v1Zm2.8.5h-2V33h2v1.2Z"/>
    <path fill="#0C2444" d="M25.4 34.1h2v-.4h-2v.4Zm2.9-.4h2v-.3h-2v.3Zm2.7-.3h2V33h-2v.4Zm2.9.3h2v-.3h-2v.3Zm2.8.5h2v-.4h-2v.4Z"/>
    <path fill="#1A4582" d="M27.1 39.4H25v-1.1h2.2v1.1Zm3.1-.4h-2.1v-1h2.1v1Zm3.1-.3H31v-1.2h2.2v1.2Zm3 .3h-2.1v-1h2.1v1Zm3.1.5h-2.2v-1.2h2.2v1.2Z"/>
    <path fill="#0C2444" d="M25 39.4h2V39h-2v.4Zm3-.4h2.2v-.3h-2.1v.3Zm3.1-.3h2.2v-.4H31v.4Zm3.1.3h2.1v-.3h-2.1v.3Zm3 .5h2.2V39h-2.2v.4Z"/>
    <path fill="#1A4582" d="M27.1 41.7H25v-1.2h2.2v1.2Zm3.1-.4h-2.1v-1.1h2.1v1.1Zm3.1-.3H31v-1.2h2.2V41Zm3 .3h-2.1v-1.1h2.1v1.1Zm3.1.4h-2.2v-1h2.2v1Z"/>
    <path fill="#0C2444" d="M25 41.7h2v-.4h-2v.4Zm3-.4h2.2V41h-2.1v.4Zm3.1-.3h2.2v-.4H31v.4Zm3.1.3h2.1V41h-2.1v.4Zm3 .4h2.2v-.3h-2.2v.3Z"/>
    <path fill="#1A4582" d="M27.1 44H25v-1.2h2.2V44Zm3.1-.4h-2.1v-1.1h2.1v1.1Zm3.1-.4H31v-1.1h2.2v1.1Zm3 .4h-2.1v-1.1h2.1v1.1Zm3.1.4h-2.2v-1h2.2v1Z"/>
    <path fill="#0C2444" d="M25 44h2v-.4h-2v.4Zm3-.4h2.2v-.4h-2.1v.4Zm3.1-.4h2.2V43H31v.3Zm3.1.4h2.1v-.4h-2.1v.4Zm3 .4h2.2v-.4h-2.2v.4Z"/>
    <path fill="#1A4582" d="M27.1 46.2H25v-1h2.2v1Zm3.1-.3h-2.1v-1.2h2.1V46Zm3.1-.4H31v-1.1h2.2v1.1Zm3 .4h-2.1v-1.2h2.1V46Zm3.1.4h-2.2v-1.1h2.2v1.1Z"/>
    <path fill="#0C2444" d="M25 46.2h2V46h-2v.3Zm3-.3h2.2v-.4h-2.1v.4Zm3.1-.4h2.2v-.4H31v.4Zm3.1.4h2.1v-.4h-2.1v.4Zm3 .4h2.2v-.4h-2.2v.4Z"/>
    <path fill="#1A4582" d="M28.6 22.1h-1.5v-.9h1.5v.9Zm2.1-.3h-1.4V21h1.4v.8Zm2.1-.2h-1.5v-.9h1.5v.9Zm2.2.2h-1.6V21H35v.8Zm2 .3h-1.5v-.8H37v.8Z"/>
    <path fill="#0C2444" d="M27.1 22.1h1.5v-.3h-1.5v.3Zm2.2-.3h1.4v-.3h-1.4v.3Zm2-.2h1.5v-.3h-1.5v.3Zm2.1.2H35v-.3h-1.5v.3Zm2.1.3H37V22h-1.5v.2Z"/>
    <path fill="#1A4582" d="M29.5 17.7h-1.1V17h1v.7Zm1.5-.2h-1v-.7h1v.7Zm1.6-.3h-1.1v-.6h1.1v.6Zm1.6.3H33v-.7h1v.7Zm1.5.2h-1V17h1v.7Z"/>
    <path fill="#0C2444" d="M28.4 17.7h1v-.2h-1v.2Zm1.6-.2h1v-.3h-1v.3Zm1.5-.3h1.1V17h-1.1v.2Zm1.5.3h1.2v-.3H33v.3Zm1.6.2h1.1v-.2h-1v.2Z"/>
    <path fill="#1A4582" d="M29.5 18.7h-1.1v-.6h1v.6Zm1.5-.2h-1v-.7h1v.7Zm1.6-.2h-1.1v-.7h1.1v.7Zm1.6.2H33v-.7h1v.7Zm1.5.3h-1V18h1v.7Z"/>
    <path fill="#0C2444" d="M28.4 18.7h1v-.2h-1v.2Zm1.6-.2h1v-.2h-1v.2Zm1.5-.2h1.1v-.2h-1.1v.2Zm1.5.2h1.2v-.2H33v.2Zm1.6.3h1.1v-.3h-1v.3Z"/>
    <path fill="#1A4582" d="M29.5 19.8h-1.1V19h1v.7Zm1.5-.2h-1v-.7h1v.7Zm1.6-.3h-1.1v-.6h1.1v.6Zm1.6.3H33v-.7h1v.7Zm1.5.2h-1v-.7h1v.7Z"/>
    <path fill="#0C2444" d="M28.4 19.8h1v-.2h-1v.2Zm1.6-.2h1v-.3h-1v.3Zm1.5-.3h1.1v-.2h-1.1v.2Zm1.5.3h1.2v-.3H33v.3Zm1.6.2h1.1v-.2h-1v.2Z"/>
    <path fill="#1A4582" d="M28.6 23.7h-1.5v-.9h1.5v.9Zm2.1-.3h-1.4v-.8h1.4v.8Zm2.1-.3h-1.5v-.8h1.5v.8Zm2.2.3h-1.6v-.8H35v.8Zm2 .3h-1.5V23H37v.8Z"/>
    <path fill="#0C2444" d="M27.1 23.7h1.5v-.3h-1.5v.3Zm2.2-.3h1.4v-.3h-1.4v.3Zm2-.3h1.5V23h-1.5v.2Zm2.1.3H35v-.3h-1.5v.3Zm2.1.3H37v-.2h-1.5v.2Z"/>
    <path fill="#1A4582" d="M28.6 25.3h-1.5v-.9h1.5v.9Zm2.1-.3h-1.4v-.8h1.4v.8Zm2.1-.3h-1.5V24h1.5v.8Zm2.2.3h-1.6v-.8H35v.8Zm2 .3h-1.5v-.8H37v.8Z"/>
    <path fill="#0C2444" d="M27.1 25.3h1.5V25h-1.5v.3Zm2.2-.3h1.4v-.3h-1.4v.3Zm2-.3h1.5v-.2h-1.5v.2Zm2.1.3H35v-.3h-1.5v.3Zm2.1.3H37v-.2h-1.5v.2Z"/>
    <path fill="#D3CECC" d="M68.1 7.2h-.3V0h.3v7.2Zm3.5 10.2s-2.4-9.5-3.7-9.5c-1 0-3.3 9.5-3.3 9.5h7Z"/>
    <path fill="#D3CECC" d="M69 7.4a1 1 0 1 1-2 0 1 1 0 0 1 2 0Zm4.5 19.2v-5.5S71.5 20 68 20c-3.7 0-5.4 1-5.4 1v5.6h11Z"/>
    <path fill="#D3CECC" d="M72.2 21v-4.2s-1.5-.8-4.3-.8-4.1.8-4.1.8V21h8.4Zm4.6 78.6H59.2V48s2.8-1 8.6-1c5.9 0 9 1 9 1v51.6Zm-1.6-64.2v-8.6s-2.5-1-7.3-1-7.1 1-7.1 1v8.6h14.4Z"/>
    <path fill="#D3CECC" d="M76 48.1V35.3s-2.8-1.1-8.1-1.1c-5.4 0-8 1.1-8 1.1v12.8H76Z"/>
    <path fill="#1A4582" d="M69 16.2s-.7-2-1-2c-.4 0-1 2-1 2h2Z"/>
    <path fill="#1A4582" d="M69 14.7s-.7-1.7-1-1.7c-.4 0-1 1.7-1 1.7h2Z"/>
    <path fill="#1A4582" d="M69 13.3s-.7-1.6-1-1.6c-.3 0-1 1.6-1 1.6h2Z"/>
    <path fill="#1A4582" d="M68.8 12s-.5-1.6-.9-1.6c-.2 0-.7 1.5-.7 1.5h1.6Z"/>
    <path fill="#1A4582" d="M68.7 10.5s-.5-1.4-.8-1.4c-.2 0-.7 1.4-.7 1.4h1.5Z"/>
    <path fill="#0C2444" d="M67 15.7v.5h2l-.1-.5H67Zm.2-1.4-.2.4h2l-.2-.4h-1.6Zm0-1.3-.1.3h1.8l-.1-.3h-1.6Zm.1-1.4-.1.3h1.6l-.1-.3h-1.4Zm.1-1.5-.2.4h1.5l-.1-.4h-1.2Z"/>
    <path fill="#BFBAB9" d="M68.9 20a17.4 17.4 0 0 0-5 .5v6.1h5V20Z"/>
    <path fill="#BFBAB9" d="M68.9 16h-1c-2.4 0-3.7.5-4 .7V21h5v-5Zm0 31a46.4 46.4 0 0 0-5 .1v52.5h5V46.9Zm0-21.3a29.2 29.2 0 0 0-5 .3v9.4h5v-9.7Z"/>
    <path fill="#BFBAB9" d="M68.9 34.2a39.4 39.4 0 0 0-5 .2v13.7h5V34.2Z"/>
    <path fill="#A29E9D" d="M70.6 20.2a16.4 16.4 0 0 0-3-.2v6.6h3v-6.4Z"/>
    <path fill="#A29E9D" d="M70.6 16.3C70 16 69 16 68 16h-.2v5h3v-4.7Zm0 30.7h-2.9v52.6h3V47Zm0-21.2a29 29 0 0 0-2.7 0h-.2v9.6h3v-9.6Z"/>
    <path fill="#A29E9D" d="M70.6 34.3a36.4 36.4 0 0 0-3-.1v13.9h3V34.3Z"/>
    <path fill="#1A4582" d="M62.6 50h-2.3v-1.3h2.3V50Zm3.4-.4h-2.4v-1.3H66v1.3Zm3.3-.4h-2.4V48h2.4v1.2Zm3.2.4h-2.3v-1.3h2.3v1.3Zm3.3.4h-2.3v-1.2h2.3V50Z"/>
    <path fill="#0C2444" d="M60.3 50h2.3v-.5h-2.3v.4Zm3.3-.4H66v-.4h-2.4v.4Zm3.4-.4h2.3v-.4h-2.4v.4Zm3.2.4h2.3v-.4h-2.3v.4Zm3.3.4h2.3v-.4h-2.3v.4Z"/>
    <path fill="#1A4582" d="M62.6 52.3h-2.3V51h2.3v1.3Zm3.4-.4h-2.4v-1.2H66v1.2Zm3.3-.4h-2.4v-1.2h2.4v1.2Zm3.2.4h-2.3v-1.2h2.3v1.2Zm3.3.4h-2.3v-1.2h2.3v1.2Z"/>
    <path fill="#0C2444" d="M60.3 52.3h2.3v-.4h-2.3v.4Zm3.3-.4H66v-.4h-2.4v.4Zm3.4-.4h2.3V51h-2.4v.4Zm3.2.4h2.3v-.4h-2.3v.4Zm3.3.4h2.3V52h-2.3v.4Z"/>
    <path fill="#1A4582" d="M62.6 54.6h-2.3v-1.2h2.3v1.2Zm3.4-.4h-2.4V53H66v1.2Zm3.3-.4h-2.4v-1.2h2.4v1.2Zm3.2.4h-2.3V53h2.3v1.2Zm3.3.4h-2.3v-1.2h2.3v1.2Z"/>
    <path fill="#0C2444" d="M60.3 54.6h2.3v-.4h-2.3v.4Zm3.3-.4H66v-.4h-2.4v.4Zm3.4-.4h2.3v-.4h-2.4v.4Zm3.2.4h2.3v-.4h-2.3v.4Zm3.3.4h2.3v-.4h-2.3v.4Z"/>
    <path fill="#1A4582" d="M62.6 56.9h-2.3v-1.2h2.3v1.2Zm3.4-.4h-2.4v-1.2H66v1.2Zm3.3-.4h-2.4v-1.2h2.4V56Zm3.2.4h-2.3v-1.2h2.3v1.2Zm3.3.5h-2.3v-1.3h2.3V57Z"/>
    <path fill="#0C2444" d="M60.3 56.9h2.3v-.4h-2.3v.4Zm3.3-.4H66V56h-2.4v.4Zm3.4-.4h2.3v-.4h-2.4v.4Zm3.2.4h2.3V56h-2.3v.4Zm3.3.5h2.3v-.5h-2.3v.4Z"/>
    <path fill="#1A4582" d="M62.6 59.2h-2.3V58h2.3v1.2Zm3.4-.4h-2.4v-1.2H66v1.2Zm3.3-.4h-2.4v-1.2h2.4v1.2Zm3.2.4h-2.3v-1.2h2.3v1.2Zm3.3.5h-2.3V58h2.3v1.3Z"/>
    <path fill="#0C2444" d="M60.3 59.2h2.3v-.4h-2.3v.4Zm3.3-.4H66v-.4h-2.4v.4Zm3.4-.4h2.3V58h-2.4v.4Zm3.2.4h2.3v-.4h-2.3v.4Zm3.3.5h2.3v-.4h-2.3v.4Z"/>
    <path fill="#1A4582" d="M62.6 61.5h-2.3v-1.2h2.3v1.2Zm3.4-.4h-2.4V60H66v1.2Zm3.3-.4h-2.4v-1.2h2.4v1.2Zm3.2.4h-2.3V60h2.3v1.2Zm3.3.5h-2.3v-1.2h2.3v1.2Z"/>
    <path fill="#0C2444" d="M60.3 61.5h2.3v-.4h-2.3v.4Zm3.3-.4H66v-.4h-2.4v.4Zm3.4-.4h2.3v-.4h-2.4v.4Zm3.2.4h2.3v-.4h-2.3v.4Zm3.3.5h2.3v-.4h-2.3v.4Z"/>
    <path fill="#1A4582" d="M62.6 63.8h-2.3v-1.2h2.3v1.2Zm3.4-.4h-2.4v-1.2H66v1.2Zm3.3-.4h-2.4v-1.2h2.4V63Zm3.2.4h-2.3v-1.2h2.3v1.2Zm3.3.5h-2.3v-1.2h2.3v1.2Z"/>
    <path fill="#0C2444" d="M60.3 63.8h2.3v-.4h-2.3v.4Zm3.3-.4H66V63h-2.4v.4ZM67 63h2.3v-.4h-2.4v.4Zm3.2.4h2.3V63h-2.3v.4Zm3.3.5h2.3v-.4h-2.3v.4Z"/>
    <path fill="#1A4582" d="M62.6 66.1h-2.3V65h2.3v1.2Zm3.4-.4h-2.4v-1.2H66v1.2Zm3.3-.4h-2.4v-1.2h2.4v1.2Zm3.2.4h-2.3v-1.2h2.3v1.2Zm3.3.5h-2.3V65h2.3v1.2Z"/>
    <path fill="#0C2444" d="M60.3 66.1h2.3v-.4h-2.3v.4Zm3.3-.4H66v-.4h-2.4v.4Zm3.4-.4h2.3V65h-2.4v.4Zm3.2.4h2.3v-.4h-2.3v.4Zm3.3.5h2.3v-.4h-2.3v.4Z"/>
    <path fill="#1A4582" d="M62.6 68.4h-2.3v-1.2h2.3v1.2ZM66 68h-2.4v-1.2H66V68Zm3.3-.3h-2.4v-1.3h2.4v1.3Zm3.2.3h-2.3v-1.2h2.3V68Zm3.3.5h-2.3v-1.2h2.3v1.2Z"/>
    <path fill="#0C2444" d="M60.3 68.4h2.3V68h-2.3v.4Zm3.3-.4H66v-.4h-2.4v.4Zm3.4-.3h2.3v-.5h-2.4v.5Zm3.2.3h2.3v-.4h-2.3v.4Zm3.3.5h2.3v-.4h-2.3v.4Z"/>
    <path fill="#1A4582" d="M62.6 70.7h-2.3v-1.2h2.3v1.2Zm3.4-.3h-2.4V69H66v1.3Zm3.3-.4h-2.4v-1.2h2.4V70Zm3.2.4h-2.3V69h2.3v1.3Zm3.3.4h-2.3v-1.2h2.3v1.2Z"/>
    <path fill="#0C2444" d="M60.3 70.7h2.3v-.4h-2.3v.4Zm3.3-.3H66V70h-2.4v.4ZM67 70h2.3v-.4h-2.4v.4Zm3.2.4h2.3V70h-2.3v.4Zm3.3.4h2.3v-.4h-2.3v.4Z"/>
    <path fill="#1A4582" d="M62.6 73h-2.3v-1.2h2.3v1.3Zm3.4-.3h-2.4v-1.2H66v1.2Zm3.3-.4h-2.4V71h2.4v1.2Zm3.2.4h-2.3v-1.2h2.3v1.2Zm3.3.4h-2.3V72h2.3v1.2Z"/>
    <path fill="#0C2444" d="M60.3 73h2.3v-.3h-2.3v.4Zm3.3-.3H66v-.4h-2.4v.4Zm3.4-.4h2.3v-.4h-2.4v.4Zm3.2.4h2.3v-.4h-2.3v.4Zm3.3.4h2.3v-.4h-2.3v.4Z"/>
    <path fill="#1A4582" d="M62.6 75.4h-2.3v-1.2h2.3v1.2ZM66 75h-2.4v-1.2H66V75Zm3.3-.4h-2.4v-1.2h2.4v1.2Zm3.2.4h-2.3v-1.2h2.3V75Zm3.3.4h-2.3v-1.2h2.3v1.2Z"/>
    <path fill="#0C2444" d="M60.3 75.4h2.3V75h-2.3v.4Zm3.3-.4H66v-.4h-2.4v.4Zm3.4-.4h2.3v-.4h-2.4v.4Zm3.2.4h2.3v-.4h-2.3v.4Zm3.3.4h2.3V75h-2.3v.4Z"/>
    <path fill="#1A4582" d="M62.6 77.7h-2.3v-1.2h2.3v1.2Zm3.4-.4h-2.4V76H66v1.2Zm3.3-.4h-2.4v-1.2h2.4v1.2Zm3.2.4h-2.3V76h2.3v1.2Zm3.3.4h-2.3v-1.2h2.3v1.2Z"/>
    <path fill="#0C2444" d="M60.3 77.7h2.3v-.4h-2.3v.4Zm3.3-.4H66v-.4h-2.4v.4Zm3.4-.4h2.3v-.4h-2.4v.4Zm3.2.4h2.3v-.4h-2.3v.4Zm3.3.4h2.3v-.4h-2.3v.4Z"/>
    <path fill="#1A4582" d="M62.6 80h-2.3v-1.2h2.3V80Zm3.4-.4h-2.4v-1.2H66v1.2Zm3.3-.4h-2.4V78h2.4v1.2Zm3.2.4h-2.3v-1.2h2.3v1.2Zm3.3.4h-2.3v-1.2h2.3v1.3Z"/>
    <path fill="#0C2444" d="M60.3 80h2.3v-.4h-2.3v.4Zm3.3-.4H66v-.4h-2.4v.4Zm3.4-.4h2.3v-.4h-2.4v.4Zm3.2.4h2.3v-.4h-2.3v.4Zm3.3.4h2.3v-.3h-2.3v.4Z"/>
    <path fill="#1A4582" d="M62.6 82.3h-2.3v-1.2h2.3v1.2ZM66 82h-2.4v-1.3H66v1.2Zm3.3-.5h-2.4v-1.2h2.4v1.2Zm3.2.5h-2.3v-1.3h2.3v1.2Zm3.3.4h-2.3v-1.2h2.3v1.2Z"/>
    <path fill="#0C2444" d="M60.3 82.3h2.3v-.4h-2.3v.4Zm3.3-.3H66v-.5h-2.4v.4Zm3.4-.5h2.3v-.4h-2.4v.4Zm3.2.5h2.3v-.5h-2.3v.4Zm3.3.4h2.3V82h-2.3v.4Z"/>
    <path fill="#1A4582" d="M62.6 84.6h-2.3v-1.2h2.3v1.2Zm3.4-.4h-2.4V83H66v1.2Zm3.3-.4h-2.4v-1.2h2.4v1.2Zm3.2.4h-2.3V83h2.3v1.2Zm3.3.5h-2.3v-1.2h2.3v1.2Z"/>
    <path fill="#0C2444" d="M60.3 84.6h2.3v-.4h-2.3v.4Zm3.3-.4H66v-.4h-2.4v.4Zm3.4-.4h2.3v-.4h-2.4v.4Zm3.2.4h2.3v-.4h-2.3v.4Zm3.3.5h2.3v-.4h-2.3v.4Z"/>
    <path fill="#1A4582" d="M62.6 87h-2.3v-1.3h2.3V87Zm3.4-.5h-2.4v-1.2H66v1.2Zm3.3-.4h-2.4V85h2.4v1.2Zm3.2.4h-2.3v-1.2h2.3v1.2Zm3.3.5h-2.3v-1.2h2.3V87Z"/>
    <path fill="#0C2444" d="M60.3 87h2.3v-.5h-2.3v.4Zm3.3-.5H66v-.4h-2.4v.4Zm3.4-.4h2.3v-.4h-2.4v.4Zm3.2.4h2.3v-.4h-2.3v.4Zm3.3.5h2.3v-.4h-2.3v.4Z"/>
    <path fill="#1A4582" d="M62.6 89.2h-2.3V88h2.3v1.2Zm3.4-.4h-2.4v-1.2H66v1.2Zm3.3-.3h-2.4v-1.3h2.4v1.3Zm3.2.3h-2.3v-1.2h2.3v1.2Zm3.3.5h-2.3v-1.2h2.3v1.2Z"/>
    <path fill="#0C2444" d="M60.3 89.2h2.3v-.4h-2.3v.4Zm3.3-.4H66v-.4h-2.4v.4Zm3.4-.3h2.3V88h-2.4v.4Zm3.2.3h2.3v-.4h-2.3v.4Zm3.3.5h2.3v-.4h-2.3v.4Z"/>
    <path fill="#1A4582" d="M62.6 91.5h-2.3v-1.2h2.3v1.2Zm3.4-.3h-2.4v-1.3H66v1.3Zm3.3-.4h-2.4v-1.2h2.4v1.2Zm3.2.4h-2.3v-1.3h2.3v1.3Zm3.3.4h-2.3v-1.2h2.3v1.2Z"/>
    <path fill="#0C2444" d="M60.3 91.5h2.3v-.4h-2.3v.4Zm3.3-.3H66v-.4h-2.4v.4Zm3.4-.4h2.3v-.4h-2.4v.4Zm3.2.4h2.3v-.4h-2.3v.4Zm3.3.4h2.3v-.4h-2.3v.4Z"/>
    <path fill="#1A4582" d="M62.6 93.9h-2.3v-1.3h2.3V94Zm3.4-.4h-2.4v-1.2H66v1.2Zm3.3-.5h-2.4v-1h2.4v1Zm3.2.5h-2.3v-1.2h2.3v1.2Zm3.3.5h-2.3v-1.3h2.3V94Z"/>
    <path fill="#0C2444" d="M60.3 93.9h2.3v-.4h-2.3v.4Zm3.3-.4H66V93h-2.4v.4ZM67 93h2.3v-.3h-2.4v.4Zm3.2.5h2.3V93h-2.3v.4Zm3.3.5h2.3v-.5h-2.3v.4Z"/>
    <path fill="#1A4582" d="M62.6 96.2h-2.3V95h2.3v1.2Zm3.4-.4h-2.4v-1.2H66v1.2Zm3.3-.4h-2.4v-1.2h2.4v1.2Zm3.2.4h-2.3v-1.2h2.3v1.2Zm3.3.4h-2.3V95h2.3v1.2Z"/>
    <path fill="#0C2444" d="M60.3 96.2h2.3v-.4h-2.3v.4Zm3.3-.4H66v-.4h-2.4v.4Zm3.4-.4h2.3V95h-2.4v.4Zm3.2.4h2.3v-.4h-2.3v.4Zm3.3.4h2.3v-.4h-2.3v.4Z"/>
    <path fill="#1A4582" d="M62.6 98.5h-2.3v-1.2h2.3v1.2ZM66 98h-2.4v-1H66v1Zm3.3-.3h-2.4v-1.2h2.4v1.2Zm3.2.3h-2.3v-1h2.3v1Zm3.3.5h-2.3v-1.2h2.3v1.2Z"/>
    <path fill="#0C2444" d="M60.3 98.5h2.3V98h-2.3v.4Zm3.3-.5H66v-.3h-2.4v.4Zm3.4-.3h2.3v-.4h-2.4v.4Zm3.2.3h2.3v-.3h-2.3v.4Zm3.3.5h2.3v-.4h-2.3v.4Z"/>
    <path fill="#1A4582" d="M63.1 37.1H61V36h2.2v1Zm3.1-.3h-2.1v-1.2h2.1v1.2Zm3.1-.4H67v-1.1h2.2v1Zm3 .4h-2.1v-1.2h2.1v1.2Zm3.1.4h-2.2V36h2.2v1.2Z"/>
    <path fill="#0C2444" d="M61 37.1h2v-.4h-2v.4Zm3-.3h2.2v-.4h-2.1v.4Zm3.1-.4h2.2V36H67v.4Zm3.1.4h2.1v-.4h-2.1v.4Zm3 .4h2.2v-.4h-2.2v.4Z"/>
    <path fill="#1A4582" d="M63.4 28.5h-2v-1.2h2v1.2Zm2.9-.5h-2v-1h2v1Zm2.7-.3h-2v-1.1h2v1.1Zm2.9.3h-2v-1h2v1Zm2.8.5h-2v-1.1h2v1.1Z"/>
    <path fill="#0C2444" d="M61.4 28.5h2V28h-2v.4Zm2.9-.5h2v-.3h-2v.4Zm2.7-.3h2v-.4h-2v.4Zm2.9.3h2v-.3h-2v.4Zm2.8.5h2v-.4h-2v.4Z"/>
    <path fill="#1A4582" d="M63.4 30.3h-2v-1h2v1Zm2.9-.3h-2v-1.2h2V30Zm2.7-.4h-2v-1.1h2v1.1Zm2.9.4h-2v-1.2h2V30Zm2.8.4h-2v-1.1h2v1.1Z"/>
    <path fill="#0C2444" d="M61.4 30.3h2V30h-2v.3Zm2.9-.3h2v-.4h-2v.4Zm2.7-.4h2v-.4h-2v.4Zm2.9.4h2v-.4h-2v.4Zm2.8.4h2V30h-2v.4Z"/>
    <path fill="#1A4582" d="M63.4 32.2h-2v-1.1h2v1.1Zm2.9-.3h-2v-1.2h2V32Zm2.7-.4h-2v-1.1h2v1Zm2.9.4h-2v-1.2h2V32Zm2.8.4h-2v-1.1h2v1Z"/>
    <path fill="#0C2444" d="M61.4 32.2h2v-.4h-2v.4Zm2.9-.3h2v-.4h-2v.4Zm2.7-.4h2V31h-2v.4Zm2.9.4h2v-.4h-2v.4Zm2.8.4h2v-.4h-2v.4Z"/>
    <path fill="#1A4582" d="M63.4 34.1h-2V33h2v1Zm2.9-.4h-2v-1h2v1Zm2.7-.3h-2v-1.1h2v1Zm2.9.3h-2v-1h2v1Zm2.8.5h-2V33h2v1.2Z"/>
    <path fill="#0C2444" d="M61.4 34.1h2v-.4h-2v.4Zm2.9-.4h2v-.3h-2v.3Zm2.7-.3h2V33h-2v.4Zm2.9.3h2v-.3h-2v.3Zm2.8.5h2v-.4h-2v.4Z"/>
    <path fill="#1A4582" d="M63.1 39.4H61v-1.1h2.2v1.1Zm3.1-.4h-2.1v-1h2.1v1Zm3.1-.3H67v-1.2h2.2v1.2Zm3 .3h-2.1v-1h2.1v1Zm3.1.5h-2.2v-1.2h2.2v1.2Z"/>
    <path fill="#0C2444" d="M61 39.4h2V39h-2v.4Zm3-.4h2.2v-.3h-2.1v.3Zm3.1-.3h2.2v-.4H67v.4Zm3.1.3h2.1v-.3h-2.1v.3Zm3 .5h2.2V39h-2.2v.4Z"/>
    <path fill="#1A4582" d="M63.1 41.7H61v-1.2h2.2v1.2Zm3.1-.4h-2.1v-1.1h2.1v1.1Zm3.1-.3H67v-1.2h2.2V41Zm3 .3h-2.1v-1.1h2.1v1.1Zm3.1.4h-2.2v-1h2.2v1Z"/>
    <path fill="#0C2444" d="M61 41.7h2v-.4h-2v.4Zm3-.4h2.2V41h-2.1v.4Zm3.1-.3h2.2v-.4H67v.4Zm3.1.3h2.1V41h-2.1v.4Zm3 .4h2.2v-.3h-2.2v.3Z"/>
    <path fill="#1A4582" d="M63.1 44H61v-1.2h2.2V44Zm3.1-.4h-2.1v-1.1h2.1v1.1Zm3.1-.4H67v-1.1h2.2v1.1Zm3 .4h-2.1v-1.1h2.1v1.1Zm3.1.4h-2.2v-1h2.2v1Z"/>
    <path fill="#0C2444" d="M61 44h2v-.4h-2v.4Zm3-.4h2.2v-.4h-2.1v.4Zm3.1-.4h2.2V43H67v.3Zm3.1.4h2.1v-.4h-2.1v.4Zm3 .4h2.2v-.4h-2.2v.4Z"/>
    <path fill="#1A4582" d="M63.1 46.2H61v-1h2.2v1Zm3.1-.3h-2.1v-1.2h2.1V46Zm3.1-.4H67v-1.1h2.2v1.1Zm3 .4h-2.1v-1.2h2.1V46Zm3.1.4h-2.2v-1.1h2.2v1.1Z"/>
    <path fill="#0C2444" d="M61 46.2h2V46h-2v.3Zm3-.3h2.2v-.4h-2.1v.4Zm3.1-.4h2.2v-.4H67v.4Zm3.1.4h2.1v-.4h-2.1v.4Zm3 .4h2.2v-.4h-2.2v.4Z"/>
    <path fill="#1A4582" d="M64.6 22.1h-1.5v-.9h1.5v.9Zm2.1-.3h-1.4V21h1.4v.8Zm2.1-.2h-1.5v-.9h1.5v.9Zm2.2.2h-1.6V21H71v.8Zm2 .3h-1.5v-.8H73v.8Z"/>
    <path fill="#0C2444" d="M63.1 22.1h1.5v-.3h-1.5v.3Zm2.2-.3h1.4v-.3h-1.4v.3Zm2-.2h1.5v-.3h-1.5v.3Zm2.1.2H71v-.3h-1.5v.3Zm2.1.3H73V22h-1.5v.2Z"/>
    <path fill="#1A4582" d="M65.5 17.7h-1.2V17h1.2v.7Zm1.5-.2h-1v-.7h1v.7Zm1.6-.3h-1.1v-.6h1.1v.6Zm1.6.3H69v-.7h1v.7Zm1.5.2h-1V17h1v.7Z"/>
    <path fill="#0C2444" d="M64.3 17.7h1.2v-.2h-1.2v.2Zm1.7-.2h1v-.3h-1v.3Zm1.5-.3h1.1V17h-1.1v.2Zm1.5.3h1.2v-.3H69v.3Zm1.6.2h1.1v-.2h-1v.2Z"/>
    <path fill="#1A4582" d="M65.5 18.7h-1.2v-.6h1.2v.6Zm1.5-.2h-1v-.7h1v.7Zm1.6-.2h-1.1v-.7h1.1v.7Zm1.6.2H69v-.7h1v.7Zm1.5.3h-1V18h1v.7Z"/>
    <path fill="#0C2444" d="M64.3 18.7h1.2v-.2h-1.2v.2Zm1.7-.2h1v-.2h-1v.2Zm1.5-.2h1.1v-.2h-1.1v.2Zm1.5.2h1.2v-.2H69v.2Zm1.6.3h1.1v-.3h-1v.3Z"/>
    <path fill="#1A4582" d="M65.5 19.8h-1.2V19h1.2v.7Zm1.5-.2h-1v-.7h1v.7Zm1.6-.3h-1.1v-.6h1.1v.6Zm1.6.3H69v-.7h1v.7Zm1.5.2h-1v-.7h1v.7Z"/>
    <path fill="#0C2444" d="M64.3 19.8h1.2v-.2h-1.2v.2Zm1.7-.2h1v-.3h-1v.3Zm1.5-.3h1.1v-.2h-1.1v.2Zm1.5.3h1.2v-.3H69v.3Zm1.6.2h1.1v-.2h-1v.2Z"/>
    <path fill="#1A4582" d="M64.6 23.7h-1.5v-.9h1.5v.9Zm2.1-.3h-1.4v-.8h1.4v.8Zm2.1-.3h-1.5v-.8h1.5v.8Zm2.2.3h-1.6v-.8H71v.8Zm2 .3h-1.5V23H73v.8Z"/>
    <path fill="#0C2444" d="M63.1 23.7h1.5v-.3h-1.5v.3Zm2.2-.3h1.4v-.3h-1.4v.3Zm2-.3h1.5V23h-1.5v.2Zm2.1.3H71v-.3h-1.5v.3Zm2.1.3H73v-.2h-1.5v.2Z"/>
    <path fill="#1A4582" d="M64.6 25.3h-1.5v-.9h1.5v.9Zm2.1-.3h-1.4v-.8h1.4v.8Zm2.1-.3h-1.5V24h1.5v.8Zm2.2.3h-1.6v-.8H71v.8Zm2 .3h-1.5v-.8H73v.8Z"/>
    <path fill="#0C2444" d="M63.1 25.3h1.5V25h-1.5v.3Zm2.2-.3h1.4v-.3h-1.4v.3Zm2-.3h1.5v-.2h-1.5v.2Zm2.1.3H71v-.3h-1.5v.3Zm2.1.3H73v-.2h-1.5v.2Z"/>
    <path fill="#BFBAB9" d="M59.7 56h-19v-1.3h19v1.4Z"/>
    <path fill="#A29E9D" d="M59.7 54.9h-19v-.7h19v.7Z"/>
  </g>
  <mask id="b" width="91" height="28" x="5" y="71" fill="#000" maskUnits="userSpaceOnUse">
    <path fill="#fff" d="M5 71h91v28H5z"/>
    <path d="M16.7 82v-8.7h3.6c.6 0 1.2.1 1.7.4.4.2.8.6 1 1 .3.5.4 1 .4 1.6a3 3 0 0 1-.4 1.6c-.2.4-.6.8-1 1-.6.3-1.1.4-1.8.4H18v-1.7h1.8l.8-.1.5-.5.2-.7-.2-.7-.5-.5-.8-.1h-1v7h-2.1Zm7.8 0v-8.7h6V75h-4v1.8h3.8v1.7h-3.7v1.8h4V82h-6.1Zm7.1-7v-1.7H39V75h-2.7v7h-2v-7h-2.7Zm8.4 7v-8.7h3.6c.7 0 1.2 0 1.7.3s.9.6 1.1 1c.3.5.4 1 .4 1.6 0 .6-.1 1.1-.4 1.5-.3.4-.6.8-1.1 1-.5.2-1 .3-1.7.3h-2.3v-1.6h1.9c.3 0 .5 0 .8-.2.2 0 .3-.2.4-.4.2-.1.2-.4.2-.6 0-.3 0-.5-.2-.7a1 1 0 0 0-.4-.4 2 2 0 0 0-.8-.1h-1v7H40Zm5-4 2.1 4h-2.3l-2.1-4h2.2Zm11.2-.4a5 5 0 0 1-.6 2.5c-.3.6-.8 1.2-1.5 1.5a4.6 4.6 0 0 1-4.2 0c-.6-.4-1.1-.9-1.5-1.5a5 5 0 0 1-.5-2.5c0-1 .1-1.7.5-2.4s.9-1.2 1.5-1.5c.6-.4 1.3-.5 2.1-.5s1.5.1 2.1.5c.7.3 1.2.8 1.5 1.5.4.7.6 1.5.6 2.4Zm-2.2 0c0-.5 0-1-.2-1.4-.2-.4-.4-.7-.7-.9a2 2 0 0 0-1-.3c-.5 0-.9.1-1.2.3a2 2 0 0 0-.6.9 3.8 3.8 0 0 0 0 2.9c.1.4.3.7.6.9.3.2.7.3 1.1.3a2 2 0 0 0 1.1-.3c.3-.2.5-.5.7-1 .2-.3.2-.8.2-1.4Zm11-4.3V82h-2l-3.5-5v5h-2.2v-8.7h1.8l3.5 5v-5H65Zm3 8.7h-2.3l3-8.7h2.8l2.9 8.7h-2.3l-2-6.5L68 82Zm-.3-3.4h4.7v1.6h-4.7v-1.6Zm12-2.7a1 1 0 0 0-.3-.7c-.2-.2-.5-.3-1-.3l-.6.1c-.2 0-.3.2-.4.3l-.2.4.1.4s.1.2.3.2l.4.2.5.2.8.1 1 .4 1 .6.4.7c.2.3.2.6.2 1 0 .5-.1 1-.4 1.4-.3.4-.7.7-1.2.9a5 5 0 0 1-1.8.3 5 5 0 0 1-2-.3c-.5-.2-1-.6-1.2-1a3 3 0 0 1-.5-1.7h2c0 .3.1.5.3.7 0 .2.3.3.5.4l.8.2.8-.1.4-.4.2-.4c0-.2 0-.3-.2-.5l-.4-.3-.8-.2-1-.2a4 4 0 0 1-1.7-.9A2 2 0 0 1 75 76c0-.6.2-1 .5-1.5a4 4 0 0 1 1.2-1l1.8-.2c.6 0 1.2 0 1.7.3.5.2 1 .5 1.2 1 .3.4.4.8.4 1.4h-2Zm-73.2 14v-1.6H14V90h-2.6v7H9.3v-7H6.6ZM17.1 97l-2.5-8.7h2.3l1.3 5.7h.1l1.5-5.7h2l1.4 5.7h.1l1.3-5.7H27L24.4 97h-2l-1.6-5.3-1.6 5.3h-2ZM30 88.3V97h-2v-8.7h2Zm8.8 0V97H37l-3.5-5v5h-2.1v-8.7H33l3.4 5v-5h2.2Zm3.6 1.7v-1.7h7.4V90H47v7h-2v-7h-2.7Zm16.2 2.6a5 5 0 0 1-.5 2.5c-.4.6-.9 1.2-1.5 1.5a4.6 4.6 0 0 1-4.2 0c-.7-.4-1.2-.9-1.5-1.5a5 5 0 0 1-.6-2.5c0-1 .2-1.7.6-2.4.3-.7.8-1.2 1.5-1.5.6-.4 1.3-.5 2-.5.9 0 1.6.1 2.2.5.6.3 1.1.8 1.5 1.5.4.7.5 1.5.5 2.4Zm-2.1 0c0-.5 0-1-.3-1.4-.1-.4-.3-.7-.6-.9a2 2 0 0 0-1.1-.3 2 2 0 0 0-1.1.3 2 2 0 0 0-.7.9c-.2.4-.2.9-.2 1.4 0 .6 0 1 .2 1.5.2.4.4.7.7.9.3.2.7.3 1 .3.5 0 .9-.1 1.2-.3.3-.2.5-.5.6-1 .2-.3.3-.8.3-1.4Zm5 4.4L59 88.3h2.3l1.3 5.7h.1l1.5-5.7h2l1.4 5.7h.1l1.3-5.7h2.3L68.7 97h-2L65 91.7 63.4 97h-2Zm10.7 0v-8.7h6.1V90h-4v1.8H78v1.7h-3.7v1.8h4V97h-6Zm7.4 0v-8.7h3.6c.7 0 1.2 0 1.7.3s.9.6 1.1 1c.3.5.4 1 .4 1.6 0 .6-.1 1.1-.4 1.5-.2.4-.6.8-1.1 1-.5.2-1 .3-1.7.3h-2.3v-1.6h1.9c.3 0 .6 0 .8-.2.2 0 .4-.2.5-.4l.1-.6-.1-.7a1 1 0 0 0-.5-.4 2 2 0 0 0-.8-.1h-1v7h-2.2Zm5-4 2.1 4h-2.3l-2.1-4h2.2Zm7.7-2.1a1 1 0 0 0-.4-.7c-.2-.2-.5-.3-1-.3l-.6.1c-.2 0-.3.2-.4.3l-.2.4.1.4s.1.2.3.2l.4.2.5.2.8.1 1.1.4.8.6c.3.2.4.4.5.7.2.3.2.6.2 1 0 .5-.1 1-.4 1.4-.3.4-.7.7-1.2.9a5 5 0 0 1-1.8.3 5 5 0 0 1-2-.3c-.5-.2-1-.6-1.2-1a3 3 0 0 1-.5-1.7h2c0 .3.1.5.3.7l.5.4.8.2.8-.1.4-.4.2-.4c0-.2 0-.3-.2-.5l-.4-.3-.8-.2-1-.2a4 4 0 0 1-1.7-.9 2 2 0 0 1-.7-1.5c0-.6.2-1 .5-1.5a4 4 0 0 1 1.2-1l1.8-.2c.6 0 1.2 0 1.7.3.5.2 1 .5 1.2 1 .3.4.4.8.4 1.4h-2Z"/>
  </mask>
  <path fill="#000" d="M16.7 82v-8.7h3.6c.6 0 1.2.1 1.7.4.4.2.8.6 1 1 .3.5.4 1 .4 1.6a3 3 0 0 1-.4 1.6c-.2.4-.6.8-1 1-.6.3-1.1.4-1.8.4H18v-1.7h1.8l.8-.1.5-.5.2-.7-.2-.7-.5-.5-.8-.1h-1v7h-2.1Zm7.8 0v-8.7h6V75h-4v1.8h3.8v1.7h-3.7v1.8h4V82h-6.1Zm7.1-7v-1.7H39V75h-2.7v7h-2v-7h-2.7Zm8.4 7v-8.7h3.6c.7 0 1.2 0 1.7.3s.9.6 1.1 1c.3.5.4 1 .4 1.6 0 .6-.1 1.1-.4 1.5-.3.4-.6.8-1.1 1-.5.2-1 .3-1.7.3h-2.3v-1.6h1.9c.3 0 .5 0 .8-.2.2 0 .3-.2.4-.4.2-.1.2-.4.2-.6 0-.3 0-.5-.2-.7a1 1 0 0 0-.4-.4 2 2 0 0 0-.8-.1h-1v7H40Zm5-4 2.1 4h-2.3l-2.1-4h2.2Zm11.2-.4a5 5 0 0 1-.6 2.5c-.3.6-.8 1.2-1.5 1.5a4.6 4.6 0 0 1-4.2 0c-.6-.4-1.1-.9-1.5-1.5a5 5 0 0 1-.5-2.5c0-1 .1-1.7.5-2.4s.9-1.2 1.5-1.5c.6-.4 1.3-.5 2.1-.5s1.5.1 2.1.5c.7.3 1.2.8 1.5 1.5.4.7.6 1.5.6 2.4Zm-2.2 0c0-.5 0-1-.2-1.4-.2-.4-.4-.7-.7-.9a2 2 0 0 0-1-.3c-.5 0-.9.1-1.2.3a2 2 0 0 0-.6.9 3.8 3.8 0 0 0 0 2.9c.1.4.3.7.6.9.3.2.7.3 1.1.3a2 2 0 0 0 1.1-.3c.3-.2.5-.5.7-1 .2-.3.2-.8.2-1.4Zm11-4.3V82h-2l-3.5-5v5h-2.2v-8.7h1.8l3.5 5v-5H65Zm3 8.7h-2.3l3-8.7h2.8l2.9 8.7h-2.3l-2-6.5L68 82Zm-.3-3.4h4.7v1.6h-4.7v-1.6Zm12-2.7a1 1 0 0 0-.3-.7c-.2-.2-.5-.3-1-.3l-.6.1c-.2 0-.3.2-.4.3l-.2.4.1.4s.1.2.3.2l.4.2.5.2.8.1 1 .4 1 .6.4.7c.2.3.2.6.2 1 0 .5-.1 1-.4 1.4-.3.4-.7.7-1.2.9a5 5 0 0 1-1.8.3 5 5 0 0 1-2-.3c-.5-.2-1-.6-1.2-1a3 3 0 0 1-.5-1.7h2c0 .3.1.5.3.7 0 .2.3.3.5.4l.8.2.8-.1.4-.4.2-.4c0-.2 0-.3-.2-.5l-.4-.3-.8-.2-1-.2a4 4 0 0 1-1.7-.9A2 2 0 0 1 75 76c0-.6.2-1 .5-1.5a4 4 0 0 1 1.2-1l1.8-.2c.6 0 1.2 0 1.7.3.5.2 1 .5 1.2 1 .3.4.4.8.4 1.4h-2Zm-73.2 14v-1.6H14V90h-2.6v7H9.3v-7H6.6ZM17.1 97l-2.5-8.7h2.3l1.3 5.7h.1l1.5-5.7h2l1.4 5.7h.1l1.3-5.7H27L24.4 97h-2l-1.6-5.3-1.6 5.3h-2ZM30 88.3V97h-2v-8.7h2Zm8.8 0V97H37l-3.5-5v5h-2.1v-8.7H33l3.4 5v-5h2.2Zm3.6 1.7v-1.7h7.4V90H47v7h-2v-7h-2.7Zm16.2 2.6a5 5 0 0 1-.5 2.5c-.4.6-.9 1.2-1.5 1.5a4.6 4.6 0 0 1-4.2 0c-.7-.4-1.2-.9-1.5-1.5a5 5 0 0 1-.6-2.5c0-1 .2-1.7.6-2.4.3-.7.8-1.2 1.5-1.5.6-.4 1.3-.5 2-.5.9 0 1.6.1 2.2.5.6.3 1.1.8 1.5 1.5.4.7.5 1.5.5 2.4Zm-2.1 0c0-.5 0-1-.3-1.4-.1-.4-.3-.7-.6-.9a2 2 0 0 0-1.1-.3 2 2 0 0 0-1.1.3 2 2 0 0 0-.7.9c-.2.4-.2.9-.2 1.4 0 .6 0 1 .2 1.5.2.4.4.7.7.9.3.2.7.3 1 .3.5 0 .9-.1 1.2-.3.3-.2.5-.5.6-1 .2-.3.3-.8.3-1.4Zm5 4.4L59 88.3h2.3l1.3 5.7h.1l1.5-5.7h2l1.4 5.7h.1l1.3-5.7h2.3L68.7 97h-2L65 91.7 63.4 97h-2Zm10.7 0v-8.7h6.1V90h-4v1.8H78v1.7h-3.7v1.8h4V97h-6Zm7.4 0v-8.7h3.6c.7 0 1.2 0 1.7.3s.9.6 1.1 1c.3.5.4 1 .4 1.6 0 .6-.1 1.1-.4 1.5-.2.4-.6.8-1.1 1-.5.2-1 .3-1.7.3h-2.3v-1.6h1.9c.3 0 .6 0 .8-.2.2 0 .4-.2.5-.4l.1-.6-.1-.7a1 1 0 0 0-.5-.4 2 2 0 0 0-.8-.1h-1v7h-2.2Zm5-4 2.1 4h-2.3l-2.1-4h2.2Zm7.7-2.1a1 1 0 0 0-.4-.7c-.2-.2-.5-.3-1-.3l-.6.1c-.2 0-.3.2-.4.3l-.2.4.1.4s.1.2.3.2l.4.2.5.2.8.1 1.1.4.8.6c.3.2.4.4.5.7.2.3.2.6.2 1 0 .5-.1 1-.4 1.4-.3.4-.7.7-1.2.9a5 5 0 0 1-1.8.3 5 5 0 0 1-2-.3c-.5-.2-1-.6-1.2-1a3 3 0 0 1-.5-1.7h2c0 .3.1.5.3.7l.5.4.8.2.8-.1.4-.4.2-.4c0-.2 0-.3-.2-.5l-.4-.3-.8-.2-1-.2a4 4 0 0 1-1.7-.9 2 2 0 0 1-.7-1.5c0-.6.2-1 .5-1.5a4 4 0 0 1 1.2-1l1.8-.2c.6 0 1.2 0 1.7.3.5.2 1 .5 1.2 1 .3.4.4.8.4 1.4h-2Z"/>
  <path fill="#fff" d="M16.7 82h-1.5v1.5h1.5V82Zm0-8.7v-1.5h-1.5v1.5h1.5Zm5.3.4-.8 1.3.8-1.3Zm1 1-1.2.8 1.3-.8Zm0 3.2-1.2-.8 1.2.8Zm-1 1 .6 1.4-.7-1.4Zm-4 .4h-1.5v1.5H18v-1.5Zm0-1.7v-1.5h-1.5v1.5H18Zm2.6-.1-.7-1.4.7 1.4Zm.5-.5 1.3.7-1.3-.7Zm0-1.4-1.3.7 1.3-.7Zm-.5-.5-.7 1.4.7-1.4Zm-1.8-.1v-1.5h-1.5V75h1.5Zm0 7v1.5h1.5V82h-1.5Zm-.6 0v-8.7h-3V82h3Zm-1.5-7.2h3.6v-3h-3.6v3Zm3.6 0c.4 0 .7 0 1 .2l1.4-2.7a5 5 0 0 0-2.4-.5v3Zm1 .2.5.5 2.6-1.5c-.4-.7-1-1.3-1.7-1.7L21.2 75Zm.5.5.1.8h3c0-.8-.1-1.6-.5-2.3l-2.6 1.5Zm.1.8-.1.8 2.5 1.5c.5-.7.6-1.5.6-2.3h-3Zm-.1.8c-.2.2-.3.4-.6.5l1.4 2.7c.7-.4 1.3-1 1.7-1.7l-2.5-1.5Zm-.6.5-1 .2v3c.8 0 1.7-.2 2.4-.5l-1.4-2.7Zm-1 .2H18v3h2.2v-3Zm-.7 1.5v-1.7h-3v1.7h3ZM18 79h1.8v-3H18v3Zm1.8 0c.5 0 1 0 1.5-.3L19.9 76h-.1v3Zm1.5-.3c.4-.2.8-.6 1.1-1l-2.6-1.5a.4.4 0 0 1 .1-.2l1.4 2.7Zm1.1-1c.3-.5.4-1 .4-1.5h-3l2.6 1.4Zm.4-1.5c0-.5-.1-1-.4-1.4l-2.6 1.4h3Zm-.4-1.4c-.3-.5-.7-.9-1.1-1.1l-1.4 2.7-.1-.2 2.6-1.4Zm-1.1-1.1-1.5-.3v3h.1l1.4-2.7Zm-1.5-.3h-1v3h1v-3ZM17.3 75v7h3v-7h-3Zm1.5 5.5h-2.1v3h2v-3Zm5.7 1.5H23v1.5h1.5V82Zm0-8.7v-1.5H23v1.5h1.5Zm6 0h1.6v-1.5h-1.5v1.5Zm0 1.7v1.5h1.6V75h-1.5Zm-4 0v-1.5h-1.4V75h1.5Zm0 1.8h-1.4v1.5h1.5v-1.5Zm3.8 0h1.5v-1.5h-1.5v1.5Zm0 1.7V80h1.5v-1.5h-1.5Zm-3.7 0V77H25v1.5h1.5Zm0 1.8H25v1.5h1.5v-1.5Zm4 0H32v-1.5h-1.5v1.5Zm0 1.7v1.5H32V82h-1.5ZM26 82v-8.7h-3V82h3Zm-1.5-7.2h6v-3h-6v3Zm4.6-1.5V75h3v-1.7h-3Zm1.5.2h-4v3h4v-3ZM25 75v1.8h3V75h-3Zm1.5 3.3h3.7v-3h-3.7v3Zm2.2-1.5v1.7h3v-1.7h-3Zm1.5.2h-3.7v3h3.7v-3ZM25 78.5v1.8h3v-1.8h-3Zm1.5 3.3h4v-3h-4v3Zm2.5-1.5V82h3v-1.7h-3Zm1.5.2h-6.1v3h6v-3Zm1-5.5H30v1.5h1.5V75Zm0-1.7v-1.5H30v1.5h1.5Zm7.4 0h1.5v-1.5H39v1.5Zm0 1.7v1.5h1.5V75H39Zm-2.7 0v-1.5h-1.5V75h1.5Zm0 7v1.5h1.5V82h-1.5Zm-2 0h-1.5v1.5h1.5V82Zm0-7h1.5v-1.5h-1.5V75ZM33 75v-1.7h-3V75h3Zm-1.5-.2H39v-3h-7.4v3Zm5.9-1.5V75h3v-1.7h-3Zm1.5.2h-2.7v3H39v-3ZM34.8 75v7h3v-7h-3Zm1.5 5.5h-2v3h2v-3Zm-.5 1.5v-7h-3v7h3Zm-1.5-8.5h-2.7v3h2.7v-3ZM40 82h-1.5v1.5H40V82Zm0-8.7v-1.5h-1.5v1.5H40Zm5.3.3-.7 1.4.7-1.4Zm1.1 1-1.3.8 1.3-.8Zm0 3.1 1.3.8-1.3-.8Zm-1.1 1 .6 1.4-.6-1.4Zm-4 .3h-1.5v1.5h1.5V79Zm0-1.6v-1.5h-1.5v1.5h1.5Zm2.7-.2.5 1.4-.5-1.4Zm.4-.4 1.3.9-1.3-.9Zm0-1.3-1.2.8 1.2-.8Zm-.4-.4-.6 1.4.6-1.4Zm-2-.1v-1.5h-1.5V75H42Zm0 7v1.5h1.5V82H42Zm2.8-4 1.3-.7-.4-.8H45V78Zm2.2 4v1.5h2.5l-1.2-2.2-1.3.7Zm-2.3 0-1.3.7.4.8h.9V82Zm-2.1-4v-1.5h-2.5l1.1 2.2 1.4-.7Zm-1.2 4v-8.7h-3V82h3ZM40 74.8h3.6v-3H40v3Zm3.6 0c.5 0 .8 0 1 .2l1.4-2.7c-.8-.4-1.6-.5-2.4-.5v3Zm1 .2c.3 0 .4.2.5.4l2.6-1.5a4 4 0 0 0-1.7-1.6L44.6 75Zm.5.4.2.8h3c0-.8-.2-1.6-.6-2.3l-2.6 1.5Zm.2.8c0 .4 0 .6-.2.7l2.6 1.6c.4-.7.6-1.5.6-2.3h-3Zm-.2.7a1 1 0 0 1-.4.4l1.2 2.7a4 4 0 0 0 1.8-1.5L45 77Zm-.4.4-1.1.2v3c.8 0 1.6-.1 2.3-.4l-1.2-2.8Zm-1.1.2h-2.3v3h2.3v-3Zm-.8 1.5v-1.6h-3V79h3Zm-1.5-.1h1.9v-3h-2v3Zm1.9 0a3 3 0 0 0 1.3-.3l-1-2.8h-.4v3Zm1.3-.3c.5-.2.9-.5 1.2-1L43.2 76l.1-.1h.1l1.1 2.7Zm1.2-1c.3-.4.4-1 .4-1.4h-3V76l2.6 1.7Zm.4-1.4c0-.5 0-1-.4-1.5l-2.5 1.6c-.1-.1 0-.2 0-.1h3Zm-.4-1.5c-.3-.5-.7-.8-1.2-1l-1.1 2.8h-.1l-.1-.2 2.5-1.6Zm-1.2-1c-.4-.2-.9-.2-1.3-.2v3h.2l1.1-2.8Zm-1.3-.2h-1v3h1v-3ZM40.6 75v7h3v-7h-3Zm1.5 5.5h-2v3h2v-3Zm1.5-1.8 2.2 4 2.6-1.4-2.2-4-2.6 1.4Zm3.5 1.8h-2.3v3h2.3v-3Zm-1 .8-2.1-4-2.7 1.4 2.2 4 2.6-1.4Zm-3.4-1.8h2.2v-3h-2.2v3Zm13 .6-1.4-.7 1.3.7ZM54 81.6l-.7-1.3.7 1.3Zm-4.2 0 .7-1.3-.7 1.3Zm-1.5-1.5-1.3.7 1.3-.7Zm0-5-1.3-.6 1.3.7Zm1.5-1.4.7 1.3-.7-1.3Zm4.2 0-.7 1.3.7-1.3Zm1.5 1.5-1.3.7 1.3-.7Zm-1.8 1-1.4.6 1.4-.6Zm-.7-.9-.8 1.2.8-1.2Zm-2.2 0 .9 1.3-.9-1.3Zm-.6.9-1.4-.6 1.4.6Zm0 2.9-1.4.5 1.4-.5Zm.6.9.9-1.3-.9 1.3Zm2.2 0-.8-1.3.8 1.3Zm.7-1-1.4-.5 1.4.6Zm.9-1.4a4 4 0 0 1-.4 1.8l2.7 1.4c.5-1 .7-2 .7-3.2h-3Zm-.4 1.8a2 2 0 0 1-.9.9l1.5 2.6c.9-.5 1.6-1.2 2-2.1l-2.6-1.4Zm-.9.9c-.4.2-.8.3-1.4.3v3c1 0 2-.2 2.9-.7l-1.5-2.6Zm-1.4.3c-.5 0-1-.1-1.4-.3l-1.4 2.6c.8.5 1.8.7 2.8.7v-3Zm-1.4-.3a3 3 0 0 1-.9-1L47 80.8c.5.9 1.2 1.6 2 2.1l1.5-2.6Zm-.9-1c-.2-.3-.3-.9-.3-1.7h-3c0 1.2.2 2.3.7 3.2l2.6-1.4Zm-.3-1.7c0-.7.1-1.3.3-1.7L47 74.5c-.5 1-.7 2-.7 3.1h3Zm.3-1.7 1-1-1.5-2.5a5 5 0 0 0-2.1 2l2.6 1.5Zm1-1 1.3-.2v-3c-1 0-2 .2-2.8.7l1.4 2.6Zm1.3-.2c.6 0 1 0 1.4.3l1.5-2.6c-1-.5-1.9-.7-2.9-.7v3Zm1.4.3c.4.2.7.5 1 1l2.6-1.5a5.3 5.3 0 0 0-2.1-2.1L53.4 75Zm1 1c.1.3.3.9.3 1.6h3c0-1.1-.2-2.2-.7-3.1l-2.7 1.4Zm1.1 1.6c0-.7 0-1.4-.3-2l-2.8 1.2.1.8h3Zm-.3-2c-.3-.6-.7-1.1-1.3-1.5l-1.6 2.5.1.2 2.8-1.2Zm-1.3-1.5a3 3 0 0 0-1.9-.6v3h.3l1.6-2.4Zm-1.9-.6c-.6 0-1.3.2-1.9.6l1.7 2.5.2-.1v-3Zm-1.9.6c-.6.4-1 1-1.2 1.5l2.7 1.2.2-.2L50 74Zm-1 1.5c-.3.7-.4 1.3-.4 2h3l.1-.8-2.7-1.2Zm-.4 2c0 .7.1 1.4.4 2l2.7-1v-1h-3Zm.4 2c.2.7.6 1.2 1.2 1.6l1.7-2.5-.2-.2-2.7 1.1Zm1.2 1.6c.6.4 1.3.6 2 .6v-3h-.3L50 81.1Zm2 .6a3 3 0 0 0 1.8-.6l-1.6-2.5H52v3Zm1.8-.6c.6-.4 1-1 1.3-1.6l-2.8-1-.1.1 1.6 2.5Zm1.3-1.6c.2-.6.3-1.3.3-2h-3v.9l2.7 1.1Zm9.7-6.3h1.5v-1.5H65v1.5Zm0 8.7v1.5h1.5V82H65Zm-2 0-1.3.9.5.6h.8V82Zm-3.5-5 1.2-.9-.4-.6h-.8V77Zm0 0v-1.5H58V77h1.5Zm0 5v1.5H61V82h-1.5Zm-2.2 0H56v1.5h1.5V82Zm0-8.7v-1.5H56v1.5h1.5Zm1.8 0 1.3-.9-.5-.6h-.8v1.5Zm3.5 5-1.3.8.5.7h.8v-1.5Zm0 0v1.5h1.5v-1.5h-1.5Zm0-5v-1.5h-1.5v1.5h1.5Zm.7 0V82h3v-8.7h-3Zm1.5 7.2H63v3h1.8v-3Zm-.6.6-3.5-5-2.4 1.7 3.4 5 2.5-1.7Zm-4.7-5.6v3-3ZM58 77v5h3v-5h-3Zm1.5 3.5h-2v3h2v-3ZM59 82v-8.7h-3V82h3Zm-1.5-7.2h1.8v-3h-1.8v3Zm.6-.7 3.4 5 2.5-1.6-3.4-5L58 74Zm4.7 5.7v-3 3Zm1.5-1.5v-5h-3v5h3Zm-1.5-3.5H65v-3h-2.2v3Zm5.4 7.2v1.5h1l.4-1-1.4-.5Zm-2.3 0-1.4-.5-.7 2h2.1V82Zm3-8.7v-1.5h-1.1l-.4 1 1.4.5Zm2.8 0 1.4-.5-.4-1h-1v1.5Zm2.9 8.7v1.5h2l-.6-2-1.4.5Zm-2.3 0-1.4.4.3 1.1h1.1V82Zm-2-6.5 1.4-.5-.3-1h-1.1v1.5Zm0 0V74H69l-.3 1 1.4.5Zm-2.4 3v-1.4h-1.5v1.5h1.5Zm4.7 0H74v-1.4h-1.5v1.5Zm0 1.7v1.5H74v-1.5h-1.5Zm-4.7 0h-1.5v1.5h1.5v-1.5Zm.3.3h-2.3v3h2.3v-3Zm-.9 2 3-8.7-2.9-1-3 8.7 3 1Zm1.5-7.7h2.9v-3h-2.9v3Zm1.4-1 3 8.7 2.8-1-3-8.7-2.8 1Zm4.4 6.7h-2.3v3h2.3v-3Zm-.8 1-2-6.5-3 1 2.1 6.4 2.9-.8ZM70.2 74v3-3Zm-1.5 1-2 6.6 2.8.8 2-6.5-2.8-.9Zm-1 5h4.8v-3h-4.7v3Zm3.3-1.4v1.6h3v-1.6h-3Zm1.5 0h-4.7v3h4.7v-3Zm-3.2 1.6v-1.6h-3v1.6h3Zm10.6-4.3-1.5.1.1 1.4H80v-1.5Zm-.4-.7-1 1.1 1-1.1Zm-1.6-.2-.6-1.4.6 1.4Zm-.4.3 1.2.9-1.2-.9Zm-.2.4h1.5-1.5Zm.1.4-1.3.7 1.3-.7Zm.3.2-.9 1.3.9-1.3Zm.4.2.5-1.4-.5 1.4Zm.5.2.3-1.5-.3 1.5Zm.8.1-.4 1.5.4-1.5Zm1 .4-.5 1.4.6-1.4Zm1 .6-1.1 1 1-1Zm.4.7-1.3.6 1.3-.6Zm.2 1h1.5H82Zm-.4 1.4-1.2-.9 1.2.9Zm-1.2.9-.5-1.4.5 1.4Zm-3.8 0 .6-1.4-.6 1.4ZM75 79v-1.5h-1.5V79H75Zm2 0 1.5-.1v-1.4H77V79Zm.3.7-1.3.9 1.3-.9Zm.5.4-.6 1.4.6-1.4Zm1.6 0-.6-1.3.6 1.4Zm.4-.3-1.2-.9 1.2 1Zm.2-.4h1.5H80Zm-.2-.5-1.1 1 1.1-1Zm-.4-.3-.6 1.4.6-1.4Zm-.8-.2L78 80l.4-1.5Zm-1-.2.4-1.5-.3 1.5Zm-1.7-.9-1 1.2 1-1.2ZM75 76h1.5H75Zm.5-1.5-1.2-.8 1.2.8Zm1.2-1 .6 1.5-.6-1.4Zm3.5.1-.6 1.4.6-1.4Zm1.2 1 1.2-.9-1.2.9Zm.4 1.4v1.5h1.5V76h-1.5Zm-.5-.1c0-.7-.4-1.4-1-1.8l-1.8 2.3-.2-.1V76l3-.2Zm-1-1.8a3 3 0 0 0-1.8-.6v3h.1-.1l1.8-2.4Zm-1.8-.6a3 3 0 0 0-1.3.2l1.1 2.8h.2v-3Zm-1.3.2c-.4.2-.8.4-1 .8l2.4 1.8-.3.2-1-2.8Zm-1 .8c-.3.4-.5.8-.5 1.3h3v.3l-.1.2-2.4-1.8Zm-.5 1.3c0 .3 0 .7.3 1.1l2.6-1.5.1.5-3-.1Zm.3 1.1.7.8 1.7-2.5.2.2-2.6 1.5Zm.7.8.8.3 1-2.8h-.1l-1.7 2.5Zm.8.3.7.2.6-2.9h-.3l-1 2.7Zm.7.2.7.2.7-3h-.8l-.6 2.8Zm.7.2c.4 0 .6.2.9.3L81 76c-.4-.3-1-.4-1.4-.5l-.7 3Zm.9.3c.2 0 .3.2.4.3l2-2.2c-.3-.4-.7-.6-1.2-.8l-1 2.6Zm.4.3.2.2 2.7-1.2-.8-1.2-2.1 2.2Zm.2.2v.4h3c0-.6 0-1-.3-1.6l-2.7 1.2Zm0 .4-.1.5 2.4 1.7a4 4 0 0 0 .7-2.2h-3Zm-.1.5-.5.4 1 2.8a4 4 0 0 0 2-1.5L80.3 80Zm-.6.4-1.2.2v3c.8 0 1.6-.1 2.4-.4l-1.2-2.8Zm-1.2.2c-.6 0-1 0-1.4-.2L76 83.3c.7.3 1.6.4 2.5.4v-3Zm-1.4-.2a1 1 0 0 1-.6-.5L74 81.7c.5.7 1.2 1.3 2 1.6l1.1-2.8Zm-.6-.5-.2-.8h-3c0 1 .2 1.8.7 2.5l2.5-1.7Zm-1.7.7h2v-3h-2v3Zm.5-1.4c0 .5.2 1 .5 1.5l2.5-1.8v.1l-3 .2Zm.5 1.5 1.2 1 1.2-2.9v.1L76 80.7Zm1.2 1 1.4.2v-3h-.2L77 81.5Zm1.4.2c.4 0 .9 0 1.3-.2l-1-2.8h-.3v3Zm1.3-.2c.4-.2.8-.4 1-.8l-2.1-2 .2-.1 1 2.8Zm1-.8c.4-.4.6-1 .6-1.4h-3a.7.7 0 0 1 .1-.5l2.4 1.9Zm.6-1.5c0-.4-.2-1-.5-1.3l-2.3 2a.9.9 0 0 1-.2-.6h3Zm-.5-1.3c-.3-.4-.7-.6-1-.8l-1.2 2.8-.1-.1 2.3-2Zm-1-.7-1-.4-.8 3 .6.1 1.2-2.7Zm-1-.4-1-.2-.7 3 1 .2.6-3Zm-1-.2c-.6-.1-1-.3-1.1-.5l-2 2.3c.7.6 1.5 1 2.4 1.1l.7-2.9Zm-1.1-.5s-.2-.1-.2-.4h-3c0 1 .4 2 1.2 2.7l2-2.3Zm-.2-.4.2-.6-2.4-1.7c-.5.7-.8 1.4-.8 2.3h3Zm.2-.6.6-.4-1.2-2.8c-.7.3-1.4.8-1.8 1.5l2.4 1.7Zm.6-.4c.3-.2.7-.2 1.2-.2v-3a6 6 0 0 0-2.4.4l1.2 2.8Zm1.2-.2c.5 0 .8 0 1 .2l1.5-3c-.7-.3-1.5-.4-2.3-.4v3Zm1.1.2c.3 0 .4.2.5.4l2.5-1.7c-.4-.6-1-1.1-1.8-1.5L79.7 75Zm.5.4.2.6h3a4 4 0 0 0-.7-2.3l-2.5 1.7Zm1.7-1h-2v3h2v-3ZM6.6 90H5.1v1.5h1.5V90Zm0-1.7v-1.5H5.1v1.5h1.5Zm7.4 0h1.5v-1.5H14v1.5Zm0 1.7v1.5h1.5V90H14Zm-2.6 0v-1.5H9.9V90h1.5Zm0 7v1.5h1.5V97h-1.5Zm-2.1 0H7.8v1.5h1.5V97Zm0-7h1.5v-1.5H9.3V90ZM8 90v-1.7H5V90h3Zm-1.5-.2H14v-3H6.6v3Zm6-1.5V90h3v-1.7h-3Zm1.4.2h-2.6v3H14v-3ZM10 90v7h3v-7h-3Zm1.5 5.5H9.3v3h2v-3Zm-.6 1.5v-7h-3v7h3Zm-1.5-8.5H6.6v3h2.7v-3ZM17 97l-1.4.4.3 1.1H17V97Zm-2.5-8.7v-1.5h-2l.6 1.9 1.4-.4Zm2.3 0 1.5-.4-.3-1.1h-1v1.5Zm1.3 5.7-1.4.3.3 1.2h1.1V94Zm.1 0v1.5h1.2l.3-1.1-1.5-.4Zm1.5-5.7v-1.5h-1.1l-.3 1 1.4.5Zm2 0 1.4-.4-.3-1.1h-1.2v1.5Zm1.4 5.7-1.4.4.3 1.1h1.1V94Zm.1 0v1.5h1.2l.3-1.2-1.5-.3Zm1.3-5.7v-1.5h-1.2l-.2 1.1 1.4.4Zm2.4 0 1.4.4.5-2h-2v1.6ZM24.4 97v1.5h1.1l.4-1-1.5-.5Zm-2 0-1.5.4.4 1.1h1V97Zm-1.6-5.3 1.4-.4-.3-1h-1v1.4Zm0 0v-1.5h-1.2l-.3 1 1.4.5ZM19.1 97v1.5h1l.4-1-1.4-.5Zm-.6-.4L16 87.9l-2.8.8 2.5 8.7 2.9-.8Zm-4-6.8h2.3v-3h-2.3v3Zm.9-1.2 1.3 5.7 3-.6-1.4-5.8-3 .7Zm2.7 6.9h.1v-3 3Zm1.6-1.1 1.5-5.7-3-.8-1.4 5.7 2.9.8Zm0-4.6h2v-3h-2v3Zm.5-1.1 1.5 5.7 2.9-.8-1.5-5.7-3 .8Zm3 6.8v-3 3Zm1.5-1.2 1.3-5.7-3-.7-1.3 5.8 3 .6Zm-.2-4.5H27v-3h-2.4v3Zm1-2L23 96.7l2.9.8 2.5-8.7-2.9-.8Zm-1.2 7.7h-2v3h2v-3Zm-.6 1-1.6-5.2-2.8.8 1.5 5.3 3-.8Zm-3-6.3v3-3Zm-1.5 1-1.6 5.4 3 .8 1.5-5.3-2.9-.8Zm-.1 4.3h-2v3h2v-3Zm10.7-7.2h1.5v-1.5H30v1.5Zm0 8.7v1.5h1.5V97H30Zm-2 0h-1.6v1.5h1.5V97Zm0-8.7v-1.5h-1.6v1.5h1.5Zm.5 0V97h3v-8.7h-3Zm1.5 7.2h-2v3h2v-3Zm-.6 1.5v-8.7h-3V97h3Zm-1.5-7.2H30v-3h-2v3Zm10.9-1.5h1.5v-1.5h-1.5v1.5Zm0 8.7v1.5h1.5V97h-1.5Zm-1.8 0-1.2.9.4.6h.8V97Zm-3.5-5 1.3-.9-.5-.6h-.8V92Zm0 0v-1.5h-1.5V92h1.5Zm0 5v1.5h1.5V97h-1.5Zm-2.1 0h-1.5v1.5h1.5V97Zm0-8.7v-1.5h-1.5v1.5h1.5Zm1.8 0 1.2-.9-.4-.6H33v1.5Zm3.4 5-1.2.8.4.7h.8v-1.5Zm0 0v1.5H38v-1.5h-1.5Zm0-5v-1.5H35v1.5h1.5Zm.7 0V97h3v-8.7h-3Zm1.5 7.2h-1.8v3h1.8v-3Zm-.6.6-3.4-5-2.5 1.7 3.5 5 2.4-1.7Zm-4.7-5.6v3-3ZM32 92v5h3v-5h-3Zm1.5 3.5h-2.1v3h2v-3Zm-.6 1.5v-8.7h-3V97h3Zm-1.5-7.2H33v-3h-1.8v3Zm.5-.7 3.5 5 2.4-1.6-3.4-5-2.5 1.6Zm4.7 5.7v-3 3Zm1.6-1.5v-5h-3v5h3Zm-1.5-3.5h2v-3h-2v3Zm5.7.2h-1.5v1.5h1.5V90Zm0-1.7v-1.5h-1.5v1.5h1.5Zm7.4 0h1.5v-1.5h-1.5v1.5Zm0 1.7v1.5h1.5V90h-1.5ZM47 90v-1.5h-1.5V90H47Zm0 7v1.5h1.5V97H47Zm-2 0h-1.5v1.5H45V97Zm0-7h1.5v-1.5H45V90Zm-1.2 0v-1.7h-3V90h3Zm-1.5-.2h7.4v-3h-7.4v3Zm5.9-1.5V90h3v-1.7h-3Zm1.5.2H47v3h2.7v-3ZM45.5 90v7h3v-7h-3Zm1.5 5.5h-2v3h2v-3Zm-.5 1.5v-7h-3v7h3ZM45 88.5h-2.7v3H45v-3ZM58 95l-1.3-.7 1.3.7Zm-1.5 1.5-.7-1.3.7 1.3Zm-4.2 0 .7-1.3-.7 1.3ZM50.8 95l-1.3.7 1.3-.7Zm0-5-1.3-.6 1.3.7Zm1.5-1.4L53 90l-.7-1.3Zm4.2 0-.7 1.3.7-1.3Zm1.5 1.5-1.3.7 1.3-.7Zm-1.9 1-1.3.6 1.3-.6Zm-.6-.9-.9 1.2.9-1.2Zm-2.2 0 .8 1.3-.8-1.3Zm-.7.9-1.4-.6 1.4.6Zm0 2.9-1.4.5 1.4-.5Zm.7.9.8-1.3-.8 1.3Zm2.2 0-.9-1.3.9 1.3Zm.6-1-1.3-.5 1.3.6Zm1-1.4a4 4 0 0 1-.4 1.8l2.6 1.4c.5-1 .7-2 .7-3.2h-3Zm-.4 1.8c-.3.4-.6.7-1 .9l1.5 2.6c1-.5 1.6-1.2 2.1-2.1l-2.6-1.4Zm-1 .9c-.3.2-.8.3-1.3.3v3c1 0 2-.2 2.8-.7l-1.4-2.6Zm-1.3.3c-.6 0-1-.1-1.4-.3l-1.5 2.6a6 6 0 0 0 2.9.7v-3Zm-1.4-.3c-.4-.2-.7-.5-1-1l-2.5 1.5a5 5 0 0 0 2 2.1l1.5-2.6Zm-1-1c-.1-.3-.3-.9-.3-1.7h-3c0 1.2.2 2.3.8 3.2l2.6-1.4Zm-.3-1.7c0-.7.2-1.3.4-1.7l-2.6-1.4c-.6 1-.8 2-.8 3.1h3Zm.4-1.7c.2-.4.5-.7.9-1l-1.5-2.5c-.9.5-1.5 1.2-2 2L52 91Zm.9-1 1.4-.2v-3c-1 0-2 .2-2.9.7L53 90Zm1.4-.2c.5 0 1 0 1.4.3l1.4-2.6c-.9-.5-1.8-.7-2.8-.7v3Zm1.4.3c.3.2.6.5.9 1l2.6-1.5a5.3 5.3 0 0 0-2-2.1L55.7 90Zm.9 1c.2.3.3.9.3 1.6h3c0-1.1-.2-2.2-.7-3.1l-2.6 1.4Zm1.2 1.6c0-.7-.1-1.4-.4-2l-2.7 1.2v.8h3Zm-.4-2c-.2-.6-.6-1.1-1.2-1.5l-1.7 2.5.2.2 2.7-1.2ZM56.3 89c-.6-.4-1.3-.6-2-.6v3h.3l1.7-2.4Zm-2-.6c-.6 0-1.2.2-1.8.6l1.6 2.5.3-.1v-3Zm-1.8.6c-.6.4-1 1-1.3 1.5l2.8 1.2.1-.2-1.6-2.5Zm-1.3 1.5a7 7 0 0 0-.3 2h3l.1-.8-2.8-1.2Zm-.3 2c0 .7 0 1.4.3 2l2.8-1-.1-1h-3Zm.3 2c.3.7.7 1.2 1.3 1.6l1.6-2.5-.1-.2-2.8 1.1Zm1.3 1.6c.6.4 1.2.6 1.9.6v-3H54l-1.6 2.4Zm1.9.6c.6 0 1.3-.2 1.9-.6l-1.7-2.5h-.2v3Zm1.9-.6c.6-.4 1-1 1.2-1.6l-2.7-1-.2.1 1.7 2.5Zm1.2-1.6c.3-.6.4-1.3.4-2h-3l-.1.9 2.7 1.1Zm4 2.4-1.5.4.3 1.1h1.1V97Zm-2.6-8.7v-1.5h-2l.6 1.9 1.4-.4Zm2.3 0 1.5-.4-.3-1.1h-1.2v1.5Zm1.3 5.7-1.4.3.3 1.2h1.1V94Zm.1 0v1.5h1.2l.3-1.1-1.5-.4Zm1.5-5.7v-1.5H63l-.3 1 1.4.5Zm2 0 1.4-.4-.3-1.1H66v1.5Zm1.4 5.7-1.4.4.3 1.1h1.1V94Zm.1 0v1.5h1.2l.3-1.2-1.5-.3Zm1.3-5.7v-1.5h-1.2l-.2 1.1 1.4.4Zm2.3 0 1.5.4.5-2h-2v1.6ZM68.7 97v1.5h1.1l.4-1-1.5-.5Zm-2 0-1.5.4.4 1.1h1V97ZM65 91.7l1.4-.4-.3-1h-1v1.4Zm0 0v-1.5h-1.2l-.3 1 1.4.5ZM63.4 97v1.5h1l.4-1-1.4-.5Zm-.6-.4-2.6-8.7-2.8.8 2.5 8.7 2.9-.8Zm-4-6.8h2.3v-3H59v3Zm.9-1.2 1.3 5.7 3-.6-1.4-5.8-3 .7Zm2.7 6.9h.1v-3 3Zm1.6-1.1 1.5-5.7-3-.8-1.4 5.7 2.9.8Zm0-4.6h2v-3h-2v3Zm.5-1.1 1.5 5.7 2.9-.8-1.5-5.7-3 .8Zm3 6.8v-3 3Zm1.5-1.2 1.3-5.7-3-.7-1.3 5.8 3 .6Zm-.2-4.5h2.3v-3H69v3Zm1-2-2.6 8.8 2.9.8 2.5-8.7-2.9-.8Zm-1.2 7.7h-2v3h2v-3Zm-.6 1-1.6-5.2-2.8.8 1.5 5.3 3-.8Zm-3-6.3v3-3Zm-1.5 1L62 96.7l2.9.8 1.6-5.3-2.9-.8Zm-.1 4.3h-2v3h2v-3ZM72 97h-1.5v1.5H72V97Zm0-8.7v-1.5h-1.5v1.5H72Zm6.1 0h1.5v-1.5h-1.5v1.5Zm0 1.7v1.5h1.5V90h-1.5Zm-4 0v-1.5h-1.5V90h1.5Zm0 1.8h-1.5v1.5h1.5v-1.5Zm3.7 0h1.5v-1.5h-1.5v1.5Zm0 1.7V95h1.5v-1.5h-1.5Zm-3.7 0V92h-1.5v1.5h1.5Zm0 1.8h-1.5v1.5h1.5v-1.5Zm4 0h1.5v-1.5h-1.5v1.5Zm0 1.7v1.5h1.5V97h-1.5Zm-4.6 0v-8.7h-3V97h3ZM72 89.8h6.1v-3h-6v3Zm4.6-1.5V90h3v-1.7h-3Zm1.5.2h-4v3h4v-3ZM72.7 90v1.8h3V90h-3Zm1.5 3.3H78v-3h-3.7v3Zm2.2-1.5v1.7h3v-1.7h-3Zm1.5.2h-3.7v3H78v-3Zm-5.2 1.5v1.8h3v-1.8h-3Zm1.5 3.3h4v-3h-4v3Zm2.5-1.5V97h3v-1.7h-3Zm1.5.2h-6v3h6v-3Zm1.3 1.5H78v1.5h1.5V97Zm0-8.7v-1.5H78v1.5h1.5Zm5.3.3-.6 1.4.6-1.4Zm1.1 1-1.3.8 1.3-.8Zm0 3.1 1.3.8-1.3-.8Zm-1.1 1 .6 1.4-.6-1.4Zm-4 .3h-1.5v1.5h1.5V94Zm0-1.6v-1.5h-1.5v1.5h1.5Zm2.7-.2.5 1.4-.5-1.4Zm.5-.4 1.2.9-1.2-.9Zm0-1.3-1.3.8 1.3-.8Zm-.5-.4-.6 1.4.6-1.4Zm-1.9-.1v-1.5h-1.5V90h1.5Zm0 7v1.5h1.5V97h-1.5Zm2.8-4 1.4-.7-.5-.8h-.9V93Zm2.2 4v1.5h2.5L88 96.3l-1.3.7Zm-2.3 0-1.3.7.4.8h1V97Zm-2.1-4v-1.5h-2.5l1.2 2.2 1.3-.7ZM81 97v-8.7h-3V97h3Zm-1.5-7.2h3.6v-3h-3.6v3Zm3.6 0c.5 0 .8 0 1 .2l1.4-2.7c-.7-.4-1.5-.5-2.4-.5v3Zm1 .2c.3 0 .4.2.5.4l2.6-1.5a4 4 0 0 0-1.7-1.6L84.2 90Zm.5.4.2.8h3c0-.8-.2-1.6-.6-2.3l-2.6 1.5Zm.2.8c0 .4 0 .6-.2.7l2.6 1.6c.4-.7.6-1.5.6-2.3h-3Zm-.2.7a1 1 0 0 1-.4.4l1.2 2.7a4 4 0 0 0 1.8-1.5L84.6 92Zm-.4.4-1.1.2v3c.8 0 1.6-.1 2.3-.4l-1.2-2.8Zm-1.1.2h-2.3v3H83v-3Zm-.8 1.5v-1.6h-3V94h3Zm-1.5-.1h1.9v-3h-2v3Zm1.9 0a3 3 0 0 0 1.3-.3l-1-2.8h-.4v3Zm1.3-.3c.5-.2 1-.5 1.2-1L82.7 91l.1-.1h.1l1.1 2.7Zm1.2-1c.3-.4.4-1 .4-1.4h-3l.1-.2 2.5 1.7Zm.4-1.4c0-.5 0-1-.4-1.5l-2.5 1.6v-.1h3Zm-.4-1.5c-.3-.5-.7-.8-1.2-1l-1 2.8h-.2l-.1-.2 2.5-1.6Zm-1.1-1c-.5-.2-1-.2-1.4-.2v3h.2l1.2-2.8Zm-1.4-.2h-1v3h1v-3ZM80 90v7h3v-7h-3Zm1.5 5.5h-2v3h2v-3Zm1.5-1.8 2.2 4 2.6-1.4-2.1-4-2.7 1.4Zm3.5 1.8h-2.3v3h2.3v-3Zm-1 .8-2.1-4-2.6 1.4 2 4 2.7-1.4Zm-3.4-1.8h2.2v-3h-2.2v3Zm10-3.6-1.5.1.1 1.4h1.4v-1.5Zm-.4-.7-1 1.1 1-1.1Zm-1.6-.2-.6-1.4.6 1.4Zm-.4.3 1.2.9-1.2-.9Zm-.2.4H91h-1.5Zm.1.4-1.3.7 1.3-.7Zm.3.2-.9 1.3.9-1.3Zm.4.2.5-1.4-.5 1.4Zm.5.2.3-1.5-.3 1.5Zm.8.1-.4 1.5.4-1.5Zm1.1.4-.6 1.4.6-1.4Zm.8.6-1 1 1-1Zm.5.7-1.3.6 1.3-.6Zm.2 1h1.5-1.5Zm-.4 1.4-1.2-.9 1.2.9Zm-1.2.9-.5-1.4.5 1.4Zm-3.8 0 .6-1.4-.6 1.4ZM87.2 94v-1.5h-1.5V94h1.5Zm2 0 1.5-.1v-1.4h-1.5V94Zm.3.7-1.3.9 1.3-.9Zm.5.4-.6 1.4.6-1.4Zm1.6 0L91 94l.6 1.4Zm.4-.3-1.2-.9 1.2 1Zm.2-.4h1.5-1.5ZM92 94l-1 1 1.1-1Zm-.4-.3-.6 1.4.6-1.4Zm-.8-.2-.4 1.5.4-1.5Zm-1-.2.4-1.5-.3 1.5Zm-1.7-.9-1 1.2 1-1.2Zm-.7-1.5H89h-1.5Zm.5-1.5-1.2-.8 1.2.8Zm1.2-1 .6 1.5-.6-1.4Zm3.5.1-.6 1.4.6-1.4Zm1.2 1 1.2-.9-1.2.9Zm.4 1.4v1.5h1.5v-1.5h-1.5Zm-.5-.1c0-.7-.4-1.4-1-1.8L91 91.3l-.2-.1V91l3-.2Zm-1-1.8a3 3 0 0 0-1.8-.6v3h.1-.1l1.8-2.4Zm-1.8-.6a3 3 0 0 0-1.3.2l1.1 2.8h.2v-3Zm-1.3.2c-.3.2-.7.4-1 .8l2.4 1.8-.3.2-1-2.8Zm-1 .8c-.3.4-.5.8-.5 1.3h3v.3l-.1.2-2.4-1.8Zm-.5 1.3c0 .3 0 .7.3 1.1l2.6-1.5.1.5-3-.1Zm.3 1.1.7.8 1.7-2.5.2.2-2.6 1.5Zm.7.8.8.3 1-2.8h-.1L89 92.6Zm.8.3.7.2.6-2.9H91l-1 2.7Zm.7.2.7.2.7-3h-.8l-.6 2.8Zm.7.2c.4 0 .6.2.9.3l1.2-2.7c-.4-.3-.9-.4-1.4-.5l-.7 3Zm.9.3c.2 0 .3.2.4.3l2-2.2c-.3-.4-.7-.6-1.2-.8l-1.2 2.7Zm.4.3.2.2 2.7-1.2-.8-1.2-2.1 2.2Zm.2.2v.4h3c0-.6 0-1-.3-1.6l-2.7 1.2Zm0 .4-.1.5 2.4 1.7a4 4 0 0 0 .7-2.2h-3Zm-.1.5-.5.4 1 2.8a4 4 0 0 0 2-1.5L92.6 95Zm-.5.4-1.3.2v3c.8 0 1.6-.1 2.4-.4l-1.1-2.8Zm-1.3.2c-.6 0-1 0-1.4-.2l-1.1 2.8c.7.3 1.6.4 2.5.4v-3Zm-1.4-.2a1 1 0 0 1-.6-.5l-2.5 1.7c.5.7 1.2 1.3 2 1.6l1.1-2.8Zm-.6-.5-.2-.8h-3c0 1 .2 1.8.7 2.5L89 95Zm-1.7.7h2v-3h-2v3Zm.5-1.4c0 .5.2 1 .5 1.5l2.5-1.8v.1l-3 .2Zm.5 1.5 1.2 1 1.2-2.9v.1l-2.4 1.8Zm1.2 1 1.4.2v-3h-.2l-1.2 2.7Zm1.4.2c.4 0 .9 0 1.3-.2l-1-2.8h-.3v3Zm1.3-.2c.4-.2.8-.4 1.1-.8L90.8 94l.2-.1 1 2.8Zm1.1-.8c.3-.4.5-1 .5-1.4h-3a.7.7 0 0 1 .1-.5l2.4 1.9Zm.5-1.5c0-.4-.2-1-.5-1.3l-2.3 2a.9.9 0 0 1-.2-.6h3Zm-.5-1.3c-.3-.4-.7-.6-1-.8L91 95.1V95l2.3-2Zm-1-.7-1-.4-.7 3 .5.1 1.2-2.7Zm-1-.4-1-.2-.7 3 1 .2.6-3Zm-1-.2c-.6-.1-1-.3-1.1-.5l-2 2.3c.7.6 1.5 1 2.4 1.1l.7-2.9Zm-1.1-.5s-.2-.1-.2-.4h-3c0 1 .4 2 1.2 2.7l2-2.3Zm-.2-.4.2-.6-2.4-1.7c-.5.7-.8 1.4-.8 2.3h3Zm.2-.6.6-.4-1.2-2.8c-.7.3-1.4.8-1.8 1.5l2.4 1.7Zm.6-.4c.3-.2.7-.2 1.2-.2v-3a6 6 0 0 0-2.4.4l1.2 2.8Zm1.2-.2c.5 0 .8 0 1 .2l1.4-2.8c-.8-.3-1.6-.4-2.4-.4v3Zm1.1.2c.3 0 .4.2.5.4l2.5-1.7c-.4-.6-1-1.1-1.8-1.5L92 90Zm.5.4.2.6h3a4 4 0 0 0-.7-2.3l-2.5 1.7Zm1.7-1h-2v3h2v-3Z" mask="url(#b)"/>
  <defs>
    <clipPath id="a">
      <path fill="#fff" d="M22 0h56v99.6H22z"/>
    </clipPath>
  </defs>
</svg>
