<svg xmlns="http://www.w3.org/2000/svg" xmlns:xlink="http://www.w3.org/1999/xlink" width="720" zoomAndPan="magnify" viewBox="0 0 540 540.000001" height="720" preserveAspectRatio="xMidYMid meet" version="1.0"><defs><g/><clipPath id="df6b3f61da"><path d="M 133.960938 80 L 283 80 L 283 377 L 133.960938 377 Z M 133.960938 80 " clip-rule="nonzero"/></clipPath><clipPath id="32c6437408"><path d="M 293.117188 56.492188 L 405.707031 56.492188 L 405.707031 392 L 293.117188 392 Z M 293.117188 56.492188 " clip-rule="nonzero"/></clipPath><clipPath id="659858fb2f"><path d="M 213.382812 303.117188 L 269.730469 303.117188 L 269.730469 392.0625 L 213.382812 392.0625 Z M 213.382812 303.117188 " clip-rule="nonzero"/></clipPath><clipPath id="d0ba9f71d8"><path d="M 299.398438 271.367188 L 375.679688 271.367188 L 375.679688 392 L 299.398438 392 Z M 299.398438 271.367188 " clip-rule="nonzero"/></clipPath><clipPath id="d46cb61c53"><path d="M 226.882812 235.214844 L 285.898438 235.214844 L 285.898438 392.0625 L 226.882812 392.0625 Z M 226.882812 235.214844 " clip-rule="nonzero"/></clipPath><clipPath id="7f819d388d"><path d="M 280.875 234.742188 L 369.089844 234.742188 L 369.089844 392 L 280.875 392 Z M 280.875 234.742188 " clip-rule="nonzero"/></clipPath><clipPath id="783f76e114"><path d="M 240.066406 200.003906 L 286.527344 200.003906 L 286.527344 392.0625 L 240.066406 392.0625 Z M 240.066406 200.003906 " clip-rule="nonzero"/></clipPath><clipPath id="e4e301fbe2"><path d="M 269.574219 184.128906 L 304.734375 184.128906 L 304.734375 392 L 269.574219 392 Z M 269.574219 184.128906 " clip-rule="nonzero"/></clipPath><clipPath id="a1c4810de0"><path d="M 282.289062 218.238281 L 335 218.238281 L 335 392 L 282.289062 392 Z M 282.289062 218.238281 " clip-rule="nonzero"/></clipPath></defs><path fill="#5fa134" d="M 250.0625 0.21875 C 265.707031 61.722656 276.445312 124.621094 283.085938 187.742188 C 284.820312 204.09375 286.285156 221.292969 287.378906 237.710938 C 287.796875 243.347656 288.253906 252.046875 288.585938 257.738281 C 289.261719 271.074219 289.652344 284.847656 285.789062 297.792969 C 283.859375 304.222656 280.675781 310.34375 276.132812 315.292969 C 279.027344 311.726562 281.277344 307.703125 282.910156 303.429688 C 288.34375 288.917969 287.300781 273.089844 286.121094 257.898438 C 285.117188 245.226562 283.828125 230.660156 282.59375 218 C 281.707031 208.558594 280.515625 197.5625 279.46875 188.132812 C 272.546875 125.1875 262.261719 62.347656 250.0625 0.21875 " fill-opacity="1" fill-rule="nonzero"/><g clip-path="url(#df6b3f61da)"><path fill="#68bf35" d="M 133.960938 80.625 C 170.722656 103.402344 202.585938 134.65625 227.128906 170.335938 C 268.085938 229.996094 288.09375 304.28125 281.84375 376.421875 C 284.316406 304.550781 264.457031 231.964844 224.183594 172.339844 C 200.128906 136.566406 169.363281 105.308594 133.960938 80.625 " fill-opacity="1" fill-rule="nonzero"/></g><g clip-path="url(#32c6437408)"><path fill="#83ce3d" d="M 405.707031 56.546875 C 368.09375 84.839844 341.871094 125.648438 325.332031 169.261719 C 308.351562 213.863281 301.777344 260.792969 298.660156 308.136719 C 298.210938 314.964844 297.832031 321.800781 297.507812 328.644531 C 297.21875 334.617188 296.976562 340.597656 296.753906 346.574219 C 296.195312 361.742188 295.792969 376.898438 295.328125 391.988281 L 294.648438 391.988281 C 294.105469 379.738281 293.667969 367.457031 293.429688 355.164062 C 293.285156 347.835938 293.214844 340.507812 293.238281 333.179688 C 293.269531 321.621094 293.535156 310.074219 294.101562 298.546875 C 295.539062 269.570312 298.929688 240.75 305.535156 212.417969 C 319.980469 151.5 351.699219 90.789062 405.707031 56.546875 " fill-opacity="1" fill-rule="nonzero"/></g><path fill="#9a5f28" d="M 352.585938 110.839844 L 350.8125 109.238281 C 347.136719 105.921875 346.839844 100.246094 350.15625 96.5625 L 378.628906 64.925781 C 381.941406 61.242188 387.609375 60.949219 391.285156 64.265625 L 393.058594 65.867188 C 396.738281 69.1875 397.03125 74.863281 393.714844 78.542969 L 365.246094 110.183594 C 361.929688 113.863281 356.261719 114.160156 352.585938 110.839844 " fill-opacity="1" fill-rule="nonzero"/><path fill="#b36f30" d="M 351.679688 96.550781 C 357.335938 89.597656 363.53125 82.589844 369.519531 75.894531 C 372.039062 73.117188 375.917969 68.839844 378.449219 66.144531 C 380.199219 64.246094 382.648438 63.289062 385.089844 63.289062 C 387.40625 63.289062 389.71875 64.152344 391.429688 65.890625 C 389.753906 64.507812 387.695312 63.824219 385.652344 63.824219 C 383.078125 63.824219 380.53125 64.914062 378.828125 67.0625 C 376.550781 69.695312 372.707031 74.007812 370.351562 76.640625 C 364.316406 83.304688 358.003906 90.191406 351.679688 96.550781 " fill-opacity="1" fill-rule="nonzero"/><path fill="#8f4e27" d="M 393.027344 79.308594 L 365.933594 109.414062 C 362.238281 113.519531 355.867188 113.800781 351.699219 110.039062 C 348.730469 107.363281 347.683594 103.355469 348.660156 99.789062 C 349.226562 101.1875 350.113281 102.488281 351.3125 103.570312 C 355.476562 107.332031 361.851562 107.050781 365.546875 102.945312 L 392.636719 72.839844 C 393.703125 71.65625 394.429688 70.289062 394.824219 68.847656 C 395.238281 69.878906 395.484375 70.964844 395.546875 72.058594 C 395.703125 74.636719 394.875 77.257812 393.027344 79.308594 " fill-opacity="1" fill-rule="nonzero"/><path fill="#9a5f28" d="M 267.984375 79.332031 L 265.640625 79.785156 C 260.777344 80.71875 256.082031 77.527344 255.152344 72.65625 L 247.144531 30.828125 C 246.210938 25.960938 249.398438 21.257812 254.257812 20.324219 L 256.601562 19.871094 C 261.464844 18.941406 266.160156 22.128906 267.09375 27 L 275.101562 68.828125 C 276.03125 73.695312 272.847656 78.398438 267.984375 79.332031 " fill-opacity="1" fill-rule="nonzero"/><path fill="#b36f30" d="M 256.0625 71.433594 C 253.9375 62.71875 252.097656 53.542969 250.378906 44.71875 C 249.691406 41.035156 248.621094 35.355469 248.007812 31.707031 C 247.121094 26.746094 250.675781 21.835938 255.640625 21.1875 C 250.855469 22.328125 247.742188 27.199219 248.964844 31.957031 C 249.6875 35.367188 250.800781 41.039062 251.476562 44.507812 C 253.140625 53.347656 254.816406 62.546875 256.0625 71.433594 " fill-opacity="1" fill-rule="nonzero"/><path fill="#8f4e27" d="M 267.285156 28.011719 L 274.90625 67.816406 C 275.945312 73.242188 272.320312 78.5 266.8125 79.558594 C 262.890625 80.3125 259.066406 78.730469 256.816406 75.796875 C 258.273438 76.191406 259.839844 76.265625 261.425781 75.964844 C 266.9375 74.90625 270.558594 69.648438 269.519531 64.21875 L 261.902344 24.417969 C 261.601562 22.855469 260.949219 21.449219 260.039062 20.265625 C 261.113281 20.554688 262.125 21.015625 263.035156 21.625 C 265.179688 23.054688 266.765625 25.296875 267.285156 28.011719 " fill-opacity="1" fill-rule="nonzero"/><g clip-path="url(#659858fb2f)"><path fill="#3fa43d" d="M 269.648438 392.0625 C 269.640625 392.035156 269.632812 392.011719 269.628906 391.988281 C 269.46875 391.371094 269.308594 390.753906 269.144531 390.136719 C 267.882812 385.308594 266.617188 380.484375 265.355469 375.65625 C 264.707031 373.179688 264.058594 370.699219 263.386719 368.222656 C 259.945312 355.480469 256.007812 342.824219 249.316406 331.5 C 241.328125 317.972656 228.765625 306.351562 213.394531 303.179688 C 231.082031 312.78125 240.140625 332.792969 246.820312 351.796875 C 251.46875 365.007812 255.546875 378.425781 259.050781 391.988281 L 269.273438 391.988281 L 269.648438 392.0625 " fill-opacity="1" fill-rule="nonzero"/></g><g clip-path="url(#d0ba9f71d8)"><path fill="#39893e" d="M 375.585938 271.5 C 356.882812 298.140625 344.378906 330.515625 332.234375 362.210938 C 328.429688 372.132812 324.625 382.0625 320.820312 391.988281 L 299.519531 391.988281 C 300.804688 388.351562 302.113281 384.722656 303.4375 381.105469 C 303.554688 380.789062 303.671875 380.472656 303.789062 380.152344 C 307.101562 371.113281 310.527344 362.117188 314.058594 353.175781 C 320.667969 336.441406 327.761719 319.671875 337.203125 305.039062 C 337.628906 304.375 338.066406 303.710938 338.503906 303.050781 C 348.601562 287.960938 361.746094 275.378906 375.585938 271.5 " fill-opacity="1" fill-rule="nonzero"/></g><g clip-path="url(#d46cb61c53)"><path fill="#54c046" d="M 269.648438 392.0625 C 269.648438 392.035156 269.652344 392.011719 269.652344 391.988281 L 285.832031 391.988281 C 285.261719 388.683594 284.671875 385.382812 284.054688 382.089844 C 284.050781 382.066406 284.046875 382.039062 284.039062 382.015625 C 281.003906 365.792969 277.382812 349.753906 272.867188 334.042969 C 270.613281 326.199219 268.136719 318.441406 265.394531 310.785156 C 263.152344 304.519531 260.742188 298.351562 258.167969 292.292969 C 249.472656 271.792969 238.933594 252.546875 226.894531 235.21875 C 231.988281 242.550781 235.113281 260.136719 237.925781 269.328125 C 241.621094 281.417969 245.121094 293.589844 248.421875 305.839844 C 253.976562 326.449219 258.972656 347.265625 263.386719 368.222656 C 265.054688 376.125 266.636719 384.046875 268.136719 391.988281 L 269.273438 391.988281 L 269.648438 392.0625 " fill-opacity="1" fill-rule="nonzero"/></g><g clip-path="url(#7f819d388d)"><path fill="#3fa43d" d="M 369.019531 234.828125 C 357.078125 257.152344 346.433594 280.664062 337.203125 305.039062 C 326.601562 333.035156 317.855469 362.175781 311.121094 391.988281 L 280.917969 391.988281 C 281.929688 388.648438 282.96875 385.324219 284.039062 382.015625 C 284.054688 381.953125 284.078125 381.894531 284.097656 381.835938 C 284.28125 381.257812 284.46875 380.679688 284.660156 380.101562 C 287.402344 371.6875 290.328125 363.371094 293.429688 355.164062 C 294.515625 352.289062 295.621094 349.421875 296.753906 346.574219 C 297.46875 344.769531 298.191406 342.972656 298.925781 341.175781 C 300.214844 338.015625 301.535156 334.875 302.878906 331.75 C 305.332031 326.050781 307.871094 320.410156 310.496094 314.839844 C 316.003906 303.148438 321.890625 291.753906 328.136719 280.707031 C 339.039062 261.417969 351.988281 242.277344 369.019531 234.828125 " fill-opacity="1" fill-rule="nonzero"/></g><g clip-path="url(#783f76e114)"><path fill="#39893e" d="M 269.648438 392.0625 C 269.648438 392.035156 269.652344 392.011719 269.652344 391.988281 L 286.421875 391.988281 C 285.855469 388.023438 285.269531 384.058594 284.660156 380.101562 C 284.617188 379.828125 284.574219 379.554688 284.53125 379.277344 C 281.46875 359.5 277.832031 339.808594 273.632812 320.238281 C 264.902344 279.542969 253.738281 239.371094 240.203125 200.015625 C 246.183594 225.34375 251.332031 250.871094 255.636719 276.539062 C 256.515625 281.785156 257.363281 287.035156 258.167969 292.292969 C 263.167969 324.738281 266.832031 357.390625 269.144531 390.136719 C 269.1875 390.753906 269.230469 391.371094 269.273438 391.988281 L 269.648438 392.0625 " fill-opacity="1" fill-rule="nonzero"/></g><g clip-path="url(#e4e301fbe2)"><path fill="#3fa43d" d="M 304.667969 391.988281 L 269.652344 391.988281 C 270.402344 378.425781 271.15625 364.859375 271.910156 351.296875 C 272.230469 345.546875 272.546875 339.792969 272.867188 334.042969 C 273.121094 329.441406 273.375 324.84375 273.632812 320.238281 C 275.039062 294.859375 276.449219 269.480469 277.855469 244.101562 C 278.421875 233.894531 278.988281 223.683594 279.554688 213.472656 C 280.070312 204.183594 282.21875 193.464844 281.175781 184.238281 C 285.488281 222.34375 289.796875 260.445312 294.101562 298.546875 C 294.808594 304.78125 295.515625 311.011719 296.21875 317.242188 C 296.265625 317.660156 296.3125 318.074219 296.359375 318.488281 C 296.742188 321.875 297.125 325.257812 297.507812 328.644531 C 297.980469 332.820312 298.453125 337 298.925781 341.175781 C 300.429688 354.488281 301.933594 367.796875 303.4375 381.105469 C 303.515625 381.765625 303.589844 382.425781 303.664062 383.085938 C 304 386.054688 304.335938 389.019531 304.667969 391.988281 " fill-opacity="1" fill-rule="nonzero"/></g><g clip-path="url(#a1c4810de0)"><path fill="#54c046" d="M 334.902344 218.335938 C 330.792969 223.621094 329.339844 234.945312 327.402344 241.367188 C 324.949219 249.5 322.679688 257.695312 320.59375 265.929688 C 316.515625 282.074219 313.144531 298.398438 310.496094 314.839844 C 310.441406 315.179688 310.382812 315.519531 310.328125 315.863281 C 306.9375 337.148438 304.753906 358.625 303.789062 380.152344 C 303.746094 381.132812 303.703125 382.109375 303.664062 383.085938 C 303.546875 386.054688 303.453125 389.019531 303.386719 391.988281 L 282.417969 391.988281 C 282.949219 388.683594 283.496094 385.386719 284.054688 382.089844 C 284.066406 382.003906 284.082031 381.921875 284.097656 381.835938 C 284.238281 380.984375 284.382812 380.128906 284.53125 379.277344 C 287.167969 363.863281 290.074219 348.492188 293.238281 333.179688 C 293.8125 330.390625 294.398438 327.605469 294.992188 324.824219 C 295.441406 322.710938 295.898438 320.597656 296.359375 318.488281 C 297.113281 315.035156 297.878906 311.585938 298.660156 308.136719 C 301.59375 295.175781 304.714844 282.257812 308.023438 269.386719 C 312.917969 250.375 319.15625 230.039062 334.902344 218.335938 " fill-opacity="1" fill-rule="nonzero"/></g><path fill="#9a5f28" d="M 195.535156 131.136719 L 193.9375 132.914062 C 190.621094 136.59375 184.957031 136.890625 181.277344 133.574219 L 149.6875 105.058594 C 146.007812 101.738281 145.714844 96.066406 149.027344 92.382812 L 150.625 90.605469 C 153.941406 86.925781 159.609375 86.628906 163.285156 89.945312 L 194.878906 118.460938 C 198.554688 121.78125 198.847656 127.457031 195.535156 131.136719 " fill-opacity="1" fill-rule="nonzero"/><path fill="#b36f30" d="M 181.265625 132.046875 C 174.324219 126.378906 167.324219 120.175781 160.636719 114.179688 C 157.867188 111.65625 153.59375 107.773438 150.902344 105.238281 C 147.207031 101.816406 147.085938 95.753906 150.648438 92.238281 C 147.523438 96.035156 147.976562 101.800781 151.820312 104.859375 C 154.449219 107.140625 158.753906 110.988281 161.386719 113.347656 C 168.039062 119.390625 174.917969 125.710938 181.265625 132.046875 " fill-opacity="1" fill-rule="nonzero"/><path fill="#8f4e27" d="M 164.050781 90.636719 L 194.113281 117.769531 C 198.210938 121.472656 198.492188 127.851562 194.734375 132.027344 C 192.0625 135 188.0625 136.046875 184.5 135.070312 C 185.898438 134.5 187.195312 133.613281 188.273438 132.414062 C 192.03125 128.242188 191.75 121.859375 187.652344 118.160156 L 157.589844 91.027344 C 156.410156 89.964844 155.042969 89.238281 153.601562 88.839844 C 154.632812 88.421875 155.71875 88.179688 156.808594 88.113281 C 159.382812 87.957031 162 88.789062 164.050781 90.636719 " fill-opacity="1" fill-rule="nonzero"/><g fill="#000000" fill-opacity="1"><g transform="translate(27.466172, 508.114714)"><g><path d="M 57.828125 1.515625 C 48.078125 1.515625 39.488281 -0.507812 32.0625 -4.5625 C 24.632812 -8.613281 18.820312 -14.703125 14.625 -22.828125 C 10.425781 -30.960938 8.328125 -40.988281 8.328125 -52.90625 C 8.328125 -64.820312 10.425781 -74.847656 14.625 -82.984375 C 18.820312 -91.117188 24.632812 -97.210938 32.0625 -101.265625 C 39.488281 -105.316406 48.078125 -107.34375 57.828125 -107.34375 C 68.015625 -107.34375 76.664062 -105.347656 83.78125 -101.359375 C 90.894531 -97.378906 95.972656 -91.316406 99.015625 -83.171875 L 83.75 -73.828125 L 81.9375 -73.90625 C 79.664062 -79.40625 76.585938 -83.347656 72.703125 -85.734375 C 68.816406 -88.117188 63.859375 -89.3125 57.828125 -89.3125 C 49.046875 -89.3125 42.191406 -86.40625 37.265625 -80.59375 C 32.347656 -74.78125 29.890625 -65.550781 29.890625 -52.90625 C 29.890625 -40.3125 32.347656 -31.109375 37.265625 -25.296875 C 42.191406 -19.484375 49.046875 -16.578125 57.828125 -16.578125 C 71.578125 -16.578125 80 -23.257812 83.09375 -36.625 L 84.90625 -36.625 L 100.3125 -28.59375 C 97.414062 -18.550781 92.46875 -11.019531 85.46875 -6 C 78.476562 -0.988281 69.265625 1.515625 57.828125 1.515625 Z M 57.828125 1.515625 "/></g></g></g><g fill="#000000" fill-opacity="1"><g transform="translate(131.251281, 508.114714)"><g><path d="M 31.125 1.515625 C 26.007812 1.515625 21.566406 0.578125 17.796875 -1.296875 C 14.035156 -3.179688 11.140625 -5.945312 9.109375 -9.59375 C 7.085938 -13.238281 6.078125 -17.617188 6.078125 -22.734375 C 6.078125 -27.460938 7.085938 -31.429688 9.109375 -34.640625 C 11.140625 -37.847656 14.28125 -40.472656 18.53125 -42.515625 C 22.78125 -44.566406 28.328125 -46.148438 35.171875 -47.265625 C 39.953125 -48.035156 43.582031 -48.878906 46.0625 -49.796875 C 48.550781 -50.710938 50.226562 -51.75 51.09375 -52.90625 C 51.96875 -54.0625 52.40625 -55.535156 52.40625 -57.328125 C 52.40625 -59.878906 51.507812 -61.832031 49.71875 -63.1875 C 47.9375 -64.539062 44.972656 -65.21875 40.828125 -65.21875 C 36.378906 -65.21875 32.148438 -64.226562 28.140625 -62.25 C 24.140625 -60.269531 20.671875 -57.664062 17.734375 -54.4375 L 16.28125 -54.4375 L 7.890625 -67.09375 C 11.941406 -71.582031 16.882812 -75.082031 22.71875 -77.59375 C 28.5625 -80.101562 34.929688 -81.359375 41.828125 -81.359375 C 52.398438 -81.359375 60.050781 -79.113281 64.78125 -74.625 C 69.507812 -70.132812 71.875 -63.765625 71.875 -55.515625 L 71.875 -20.84375 C 71.875 -17.269531 73.441406 -15.484375 76.578125 -15.484375 C 77.785156 -15.484375 78.96875 -15.703125 80.125 -16.140625 L 81.140625 -15.84375 L 82.578125 -1.875 C 81.472656 -1.15625 79.929688 -0.566406 77.953125 -0.109375 C 75.972656 0.347656 73.800781 0.578125 71.4375 0.578125 C 66.664062 0.578125 62.9375 -0.335938 60.25 -2.171875 C 57.570312 -4.003906 55.65625 -6.875 54.5 -10.78125 L 52.984375 -10.921875 C 49.078125 -2.628906 41.789062 1.515625 31.125 1.515625 Z M 37.5 -13.46875 C 42.125 -13.46875 45.820312 -15.019531 48.59375 -18.125 C 51.375 -21.238281 52.765625 -25.570312 52.765625 -31.125 L 52.765625 -39.234375 L 51.390625 -39.515625 C 50.179688 -38.554688 48.597656 -37.75 46.640625 -37.09375 C 44.691406 -36.445312 41.882812 -35.804688 38.21875 -35.171875 C 33.875 -34.453125 30.75 -33.210938 28.84375 -31.453125 C 26.9375 -29.691406 25.984375 -27.191406 25.984375 -23.953125 C 25.984375 -20.523438 26.992188 -17.921875 29.015625 -16.140625 C 31.046875 -14.359375 33.875 -13.46875 37.5 -13.46875 Z M 37.5 -13.46875 "/></g></g></g><g fill="#000000" fill-opacity="1"><g transform="translate(215.422887, 508.114714)"><g><path d="M 55.078125 -19.03125 L 60.296875 -4.203125 C 58.117188 -2.410156 55.390625 -1.007812 52.109375 0 C 48.828125 1.007812 45.113281 1.515625 40.96875 1.515625 C 32.332031 1.515625 25.769531 -0.832031 21.28125 -5.53125 C 16.789062 -10.238281 14.546875 -17.082031 14.546875 -26.0625 L 14.546875 -63.984375 L 2.390625 -63.984375 L 2.390625 -79.90625 L 14.546875 -79.90625 L 14.546875 -95.46875 L 34.59375 -98.71875 L 34.59375 -79.90625 L 57.25 -79.90625 L 57.25 -63.984375 L 34.59375 -63.984375 L 34.59375 -27.5 C 34.59375 -23.539062 35.410156 -20.65625 37.046875 -18.84375 C 38.691406 -17.039062 41.082031 -16.140625 44.21875 -16.140625 C 47.789062 -16.140625 50.90625 -17.101562 53.5625 -19.03125 Z M 55.078125 -19.03125 "/></g></g></g><g fill="#000000" fill-opacity="1"><g transform="translate(277.447879, 508.114714)"><g><path d="M 55.078125 -19.03125 L 60.296875 -4.203125 C 58.117188 -2.410156 55.390625 -1.007812 52.109375 0 C 48.828125 1.007812 45.113281 1.515625 40.96875 1.515625 C 32.332031 1.515625 25.769531 -0.832031 21.28125 -5.53125 C 16.789062 -10.238281 14.546875 -17.082031 14.546875 -26.0625 L 14.546875 -63.984375 L 2.390625 -63.984375 L 2.390625 -79.90625 L 14.546875 -79.90625 L 14.546875 -95.46875 L 34.59375 -98.71875 L 34.59375 -79.90625 L 57.25 -79.90625 L 57.25 -63.984375 L 34.59375 -63.984375 L 34.59375 -27.5 C 34.59375 -23.539062 35.410156 -20.65625 37.046875 -18.84375 C 38.691406 -17.039062 41.082031 -16.140625 44.21875 -16.140625 C 47.789062 -16.140625 50.90625 -17.101562 53.5625 -19.03125 Z M 55.078125 -19.03125 "/></g></g></g><g fill="#000000" fill-opacity="1"><g transform="translate(339.472871, 508.114714)"><g><path d="M 31.125 1.515625 C 26.007812 1.515625 21.566406 0.578125 17.796875 -1.296875 C 14.035156 -3.179688 11.140625 -5.945312 9.109375 -9.59375 C 7.085938 -13.238281 6.078125 -17.617188 6.078125 -22.734375 C 6.078125 -27.460938 7.085938 -31.429688 9.109375 -34.640625 C 11.140625 -37.847656 14.28125 -40.472656 18.53125 -42.515625 C 22.78125 -44.566406 28.328125 -46.148438 35.171875 -47.265625 C 39.953125 -48.035156 43.582031 -48.878906 46.0625 -49.796875 C 48.550781 -50.710938 50.226562 -51.75 51.09375 -52.90625 C 51.96875 -54.0625 52.40625 -55.535156 52.40625 -57.328125 C 52.40625 -59.878906 51.507812 -61.832031 49.71875 -63.1875 C 47.9375 -64.539062 44.972656 -65.21875 40.828125 -65.21875 C 36.378906 -65.21875 32.148438 -64.226562 28.140625 -62.25 C 24.140625 -60.269531 20.671875 -57.664062 17.734375 -54.4375 L 16.28125 -54.4375 L 7.890625 -67.09375 C 11.941406 -71.582031 16.882812 -75.082031 22.71875 -77.59375 C 28.5625 -80.101562 34.929688 -81.359375 41.828125 -81.359375 C 52.398438 -81.359375 60.050781 -79.113281 64.78125 -74.625 C 69.507812 -70.132812 71.875 -63.765625 71.875 -55.515625 L 71.875 -20.84375 C 71.875 -17.269531 73.441406 -15.484375 76.578125 -15.484375 C 77.785156 -15.484375 78.96875 -15.703125 80.125 -16.140625 L 81.140625 -15.84375 L 82.578125 -1.875 C 81.472656 -1.15625 79.929688 -0.566406 77.953125 -0.109375 C 75.972656 0.347656 73.800781 0.578125 71.4375 0.578125 C 66.664062 0.578125 62.9375 -0.335938 60.25 -2.171875 C 57.570312 -4.003906 55.65625 -6.875 54.5 -10.78125 L 52.984375 -10.921875 C 49.078125 -2.628906 41.789062 1.515625 31.125 1.515625 Z M 37.5 -13.46875 C 42.125 -13.46875 45.820312 -15.019531 48.59375 -18.125 C 51.375 -21.238281 52.765625 -25.570312 52.765625 -31.125 L 52.765625 -39.234375 L 51.390625 -39.515625 C 50.179688 -38.554688 48.597656 -37.75 46.640625 -37.09375 C 44.691406 -36.445312 41.882812 -35.804688 38.21875 -35.171875 C 33.875 -34.453125 30.75 -33.210938 28.84375 -31.453125 C 26.9375 -29.691406 25.984375 -27.191406 25.984375 -23.953125 C 25.984375 -20.523438 26.992188 -17.921875 29.015625 -16.140625 C 31.046875 -14.359375 33.875 -13.46875 37.5 -13.46875 Z M 37.5 -13.46875 "/></g></g></g><g fill="#000000" fill-opacity="1"><g transform="translate(423.644476, 508.114714)"><g><path d="M 21.5 -89.390625 C 17.875 -89.390625 14.925781 -90.484375 12.65625 -92.671875 C 10.394531 -94.867188 9.265625 -97.707031 9.265625 -101.1875 C 9.265625 -104.613281 10.394531 -107.421875 12.65625 -109.609375 C 14.925781 -111.804688 17.875 -112.90625 21.5 -112.90625 C 23.90625 -112.90625 26.050781 -112.398438 27.9375 -111.390625 C 29.820312 -110.378906 31.28125 -108.992188 32.3125 -107.234375 C 33.351562 -105.472656 33.875 -103.457031 33.875 -101.1875 C 33.875 -98.914062 33.351562 -96.882812 32.3125 -95.09375 C 31.28125 -93.3125 29.820312 -91.914062 27.9375 -90.90625 C 26.050781 -89.894531 23.90625 -89.390625 21.5 -89.390625 Z M 11.515625 0 L 11.515625 -79.828125 L 31.5625 -79.828125 L 31.5625 0 Z M 11.515625 0 "/></g></g></g><g fill="#000000" fill-opacity="1"><g transform="translate(466.634961, 508.114714)"><g><path d="M 33.15625 1.515625 C 25.957031 1.515625 20.460938 -0.425781 16.671875 -4.3125 C 12.890625 -8.195312 11 -14.09375 11 -22 L 11 -111.90625 L 31.046875 -111.90625 L 31.046875 -22.796875 C 31.046875 -17.921875 33.070312 -15.484375 37.125 -15.484375 C 38.289062 -15.484375 39.523438 -15.675781 40.828125 -16.0625 L 41.828125 -15.78125 L 43.640625 -0.359375 C 42.535156 0.210938 41.066406 0.664062 39.234375 1 C 37.398438 1.34375 35.375 1.515625 33.15625 1.515625 Z M 33.15625 1.515625 "/></g></g></g></svg>