<svg xmlns="http://www.w3.org/2000/svg" fill="none" viewBox="0 0 100 100">
  <g clip-path="url(#a)">
    <path fill="#EAEAEA" d="M60.7 96.3H33.6l-1.2-4c.3-1 .1-2-.5-2.8l-.5-.5.2-.4c.4-1.5 0-3.2-1-4.3a4 4 0 0 0-.4-4.5H30a4 4 0 0 0 .1-4.5l-.1-.2c.9-1.1 1-2.7.6-4l-.2-.5a4 4 0 0 0 .3-4.2v-.1l.1-.3c1-1.2 1.3-3 .6-4.4 1-.8 1.6-2.2 1.3-3.5l-.1-1a3.7 3.7 0 0 0 1.4-3.7V53a4.3 4.3 0 0 0 1.6-3.7v-.5l.2-.3a5 5 0 0 0 1.4-3.8c1.3-.8 2-2.3 1.7-3.7v-.2l3-6.5 1.7-.2 8.3 1h3.4l.4-15 2.5-3.1.6 18.2h.9l1 61.2Z"/>
    <path fill="#5F9FB4" d="M47.3 96.3H37.1l-.1-.6v-.1l-.6-2.4-.2-.6a72.1 72.1 0 0 1-1.8-15.8v-4.4l.1-2.1a83.8 83.8 0 0 1 2.6-18 80.4 80.4 0 0 1 1.1-4.2H38h.3a70.6 70.6 0 0 1 1.4-4.2h-.2l.8-2.2h.1l.8-2 .8-2.2h.1l1.6-3.5 2.7-.7 9.2 1.1 2.7.3-10.9 61.6Z"/>
    <path fill="#065E75" d="m65 37.5-2.6.2h-1.7l.9 58.6H45.7l8.5-62 3.2.3v19l1-16.7v-.2l.4-1.8a2 2 0 0 1 1.7 1.2 17 17 0 0 1 4.6 0v1.4Z"/>
    <path fill="#EAEAEA" d="M43 34.8Zm-3.7-.3c2.2 0 4-.4 4-.8 0-.5-1.8-.8-4-.8-2.1 0-3.9.3-3.9.8 0 .4 1.8.8 4 .8Zm9-1.1-.6 1.7 9.7 1.2v.3l-9.8-1.2-.6 1.5 10.3 1.2v.4l-10.4-1.3-.7 1.8 11.4 1.6v.4L46 39.4l-.6 1.8 12 1.6-.1.3-12-1.6-.5 1.7L57.3 45v.3l-12.5-1.6-.5 1.7L57.6 47v.4l-13.4-1.7-.4 1.7 13.5 1.7v.3l-13.6-1.6-.4 1.7 13.9 1.8v.3l-14-1.7-.4 2 14.3 1.4-.1.4-14.3-1.5c0 .6-.2 1.2-.3 1.7l14.8 1.5v.3l-14.8-1.4L42 56l15 1.5v.4l-15-1.4-.3 2L57 59.7v.4l-15.2-1.3-.2 1.7 15.3 1.3.1.4-15.5-1.3-.1 1.8L56.8 64v.4L41.2 63l-.1 1.8 15.5 1.4v.4L41 65l-.1 2.1 15.6 1.2v.4L41 67.6l-.1 1.8 15.8 1.2v.3l-15.8-1.2v2.1L56.3 73v.3l-15.7-1.1v1.5l15.7 1.2v.4L40.7 74v2l15.7 1.1v.4l-15.7-1.2v2l15.5 1.1v.4l-15.5-1.2V81l15.4.5v.4l-15.3-.6V83l15.4.6v.3l-15.3-.6v2l15.3.5v.5L41 85.6l.1 1.7 14.8.6v.3l-14.7-.5.1 2.1 14.6.3v.4l-14.5-.3v1l.2 1.2 14.2.3v.3l-14.2-.3c.2 1.2.8 2.4 1 3.6h-1.7l-.6-3.6H39l.2 1 .5 2.6-.3.1-.5-2.6-.2-1.1h-.6a3 3 0 0 0-1 0l-2.6.3v-.3l2.5-.3h1.6l-.4-2.3a3 3 0 0 0-1 0l-2.7.4V90l2.6-.3h1l-.2-2.3a3 3 0 0 0-1 .1l-2.6.7-.1-.4 2.6-.6c.3-.1.7-.2 1-.1l-.2-1.7H37l-2.6.8-.1-.4 2.6-.7h.8l-.2-2h-.8l-2.6.7v-.3l2.5-.7h.8l-.1-1.8h-.6l-2.6.7v-.3l2.6-.7h.5l-.1-2.3h-.4l-2.6.7V79l2.5-.7h.5a92.5 92.5 0 0 1-.1-2l-2.8.7v-.3l2.7-.7v-2l-2.9.8v-.4l2.9-.7V72l-2.8.8-.2-.3 3-.8.1-2-2.9.8V70l3-.8v-1.8l-2.8.7v-.4L37 67h.1l.2-2-3 .7-.2-.4 3.2-.8.2-1.6-3 .8-.1-.3 3.1-1V62l.2-1.2-2.9.7v-.3l3-.8.3-1.8-3.1.8-.1-.4 3.1-.8h.1l.4-1.9-3 .7-.1-.3 3.1-.8.4-1.7-2.7.6-.1-.3 2.9-.7.4-1.8-2.8.6v-.3l2.9-.7.5-1.8-2.8.7-.1-.3 3-.9.5-1.7-3 .7V48l3-.8.6-1.7-2.8.7.3-.5 2.6-.6.6-1.7-2.7.7v-.4L42 43h.2l.6-1.8-2.7.7v-.3l2.6-.7h.2l.7-1.7-2.6.6v-.3l2.6-.7h.1l.7-1.7-2.7.7.2-.4 2.7-.7.7-1.6H45l-2.6.8-.1-.4 2.6-.7h.5l.6-1.4-2.5.5a57.8 57.8 0 0 1 2.7-4.6 71.2 71.2 0 0 1 9-11.2l3-3V0l1.1 1.9v12.7l.4-.4v.7-.1.2l-.5.4c-1.7 2-3.3 4.2-4.7 6.5l-.4.7-.5.7-.8 1.4-1.6 2.8-1.5 3-1.3 2.9ZM39 55.9h1l.3-1.8h-1L39 56Zm-.4 2.3h1.1l.3-2-1 .1-.4 2Zm-.3 2.2h1.2c0-.6 0-1.2.2-1.8h-.4a3 3 0 0 0-.7 0l-.3 1.8Zm-.3 2h1.2l.2-1.7h-.1a3 3 0 0 0-1 0l-.3 1.4v.4Zm-.2 2.2H39l.1-1.8h-1.3l-.1 1.8Zm-.2 2.4h1.2l.1-2h-.4a3 3 0 0 0-.8 0l-.2 2Zm-.1 2.2h1.3l.1-1.8h-.6a3 3 0 0 0-.7 0l-.1 1.8Zm0 2.4h1.1v-2.1h-1.3v2.1Zm0 2h1.1V72h-1.4v1.5Zm0 2.2h1.2V74h-1.4v2Zm0 2.3h.5l1 .1h-.1v-2h-1.4v2Zm.2 2.6H39v-2.1l-1-.1h-.4l.1 2.2Zm.2 2.1h1.3l-.1-1.4v-.3h-1.4l.2 1.7Zm.2 2.3h.1l1.2.1v-.5l-.2-1.5h-1.3l.2 2Zm1.5 2.1-.1-1.6H38l.2 1.6h1.2Zm-.8 2.5H40l-.3-2.1h-1.3l.4 2.1Zm1.5 2.6-.1-1-.2-1.2h-1.2l.4 2.2h1.1Zm.4-40.3h-.8a81 81 0 0 0-.4 1.8h.9l.3-1.8Zm.5-2.4-.7.1-.5 2h.8l.4-2Zm.5-2H41l-.5 1.7h.7l.4-1.8Zm.6-2.2a3 3 0 0 0-.6 0l-.5 1.8h.6l.5-1.8Zm.6-2h-.5a87 87 0 0 0-.6 1.7h.6l.5-1.8Zm.7-2.2H43l-.6 1.8h.4l.3-1 .3-.8Zm.7-2H44l-.7 1.7h.4l.6-1.7ZM45 37h-.2l-.8 1.7h.3l.6-1.5V37Zm.8-2h-.2l-.7 1.6h.2l.7-1.5Zm.8-1.7h-.2l-.7 1.4h.2l.6-1.4ZM43 34.8l.4-.8-.4.8Z"/>
    <path fill="#C7C9C9" d="m59.3 14.4-.8 1V.4l.8 1.5v12.5Zm-20 22.2.8 2.8.3-.7-.8-2.4.2-.2 1.3 1.8.3-.6-1.3-1.5 1.5-1.6c0-.3-1.1.2-2.4.2-1.3 0-2.2-.5-2.2-.2 0 .2 2.1 2.6 2.1 2.6l.1-.2ZM78 96.3s-3.4 3.3-30 3.3c-51.1 0-30.5-3.3-30.5-3.3h24.7a137.5 137.5 0 0 1-1.8-12.9l-.2-1.6V80l-.2-1.6a117.9 117.9 0 0 1 1.5-26.2l.7-3.2.8-3.2a42.7 42.7 0 0 1 .8-3.2l.5-1.6.6-1.6.2-.7.3-.8.6-1.6.6-1.5.7-1.5.3-.7.3-.8.8-1.5 1.5-2.9 1.6-2.8 1-1.4c0-.3.2-.5.4-.7l.4-.7c1.9-2.7 4-5.2 6.1-7.6L60 36a16.1 16.1 0 0 1 5.8.3l-.1.1a16.2 16.2 0 0 0-5.1-.3c-.4 0-.6.4-.6.7 0 .4.2.7.6.7a16.2 16.2 0 0 0 5-.2v.2a8 8 0 0 1-.6 0l-4.3 1.9v-1.7H60l.6 58.6H78ZM56.2 79l-14.3-1.6a170.8 170.8 0 0 0 1.5 18.8h12.3l.5-17.2Zm.5-21.2-13.5-2.4-.5 3.6c-.7 5.5-.9 11.2-.8 16.8l14.3 2 .5-20Zm1.1-40.5a69.5 69.5 0 0 0-3.3 5l-.4.8-.4.7-.8 1.4-1.5 2.8-1.3 3-.7 1.5-.3.7-.3.8a95.8 95.8 0 0 0-5.4 20.2l13.4 2.3 1-39.2Z"/>
  </g>
  <mask id="b" width="90" height="13" x="5" y="86" fill="#000" maskUnits="userSpaceOnUse">
    <path fill="#fff" d="M5 86h90v13H5z"/>
    <path d="M7 97v-8.7h3.7c.6 0 1.2 0 1.6.2.5.2.8.5 1 .8.2.4.4.7.4 1.2l-.3.9-.5.6-.9.4c.4 0 .7.2 1 .3l.7.8c.2.3.3.6.3 1a2.3 2.3 0 0 1-1.4 2.2c-.5.2-1 .3-1.6.3H7Zm2.1-1.7h1.4c.4 0 .7 0 1-.3.2-.1.3-.4.3-.7 0-.2 0-.4-.2-.6a1 1 0 0 0-.4-.3l-.7-.2H9v2.1Zm0-3.4h1.2c.2 0 .4 0 .6-.2.2 0 .3-.1.4-.3l.2-.5a1 1 0 0 0-.3-.7c-.2-.2-.5-.3-.9-.3H9.1v2Zm11.2-3.6h2v5.6a3 3 0 0 1-.4 1.7 3 3 0 0 1-1.3 1.1c-.5.3-1.2.4-1.9.4s-1.4-.1-2-.4a3 3 0 0 1-1.2-1.1c-.3-.5-.5-1-.5-1.7v-5.6h2.1v5.4c0 .3 0 .6.2.8.1.3.3.4.6.6l.8.2c.3 0 .6 0 .8-.2.3-.2.5-.3.6-.6l.2-.8v-5.4Zm3.4 8.7v-8.7h3.6c.7 0 1.2 0 1.7.3s.9.6 1.1 1c.3.5.4 1 .4 1.6 0 .6-.1 1.1-.4 1.5-.3.4-.6.8-1.1 1-.5.2-1 .3-1.7.3H25v-1.6h1.9c.3 0 .5 0 .8-.2.2 0 .3-.2.4-.4.2-.1.2-.4.2-.6 0-.3 0-.5-.2-.7a1 1 0 0 0-.4-.4 2 2 0 0 0-.8-.1h-1v7h-2.2Zm5-4 2.1 4h-2.3l-2.1-4h2.2Zm6.5-4.7h2v6c0 .6 0 1-.3 1.5l-1.1 1c-.5.2-1 .3-1.7.3-.5 0-1 0-1.4-.3a2.4 2.4 0 0 1-1.5-2.4h2.1l.1.6c.1.1.2.3.4.3l.5.2c.2 0 .3 0 .5-.2l.3-.4.1-.6v-6Zm7.9 8.7h-2.3l3-8.7h2.8l2.9 8.7h-2.3l-2-6.5L43 97Zm-.3-3.4h4.7v1.6h-4.7v-1.6Zm7.6 3.4v-8.7h2.2v7h3.6V97h-5.8Zm11.3 0h-2.2l3-8.7h2.7l3 8.7h-2.3l-2-6.5h-.1l-2 6.5Zm-.3-3.4h4.8v1.6h-4.8v-1.6Zm7.7 3.4v-8.7h3.6c.7 0 1.2 0 1.7.3s.9.6 1.1 1c.3.5.4 1 .4 1.6 0 .6-.1 1.1-.4 1.5-.3.4-.6.8-1.1 1-.5.2-1 .3-1.7.3h-2.3v-1.6h1.9c.3 0 .5 0 .8-.2.2 0 .3-.2.4-.4.2-.1.2-.4.2-.6 0-.3 0-.5-.2-.7a1 1 0 0 0-.4-.4 2 2 0 0 0-.8-.1h-1v7H69Zm5-4 2.1 4h-2.3l-2.1-4H74Zm4.8 4h-2.2l3-8.7h2.7l3 8.7H83l-2-6.5-2 6.5Zm-.3-3.4h4.8v1.6h-4.8v-1.6Zm7.7 3.4v-8.7H90c.6 0 1.2 0 1.6.2.4.2.8.5 1 .8.2.4.3.7.3 1.2 0 .3 0 .6-.2.9l-.6.6-.8.4 1 .3.7.8c.2.3.3.6.3 1a2.3 2.3 0 0 1-1.4 2.2c-.5.2-1 .3-1.7.3h-3.9Zm2.1-1.7h1.3c.5 0 .8 0 1-.3.3-.1.4-.4.4-.7 0-.2 0-.4-.2-.6a1 1 0 0 0-.4-.3l-.7-.2h-1.4v2.1Zm0-3.4h1.2c.2 0 .4 0 .6-.2.2 0 .3-.1.4-.3l.2-.5a1 1 0 0 0-.3-.7c-.2-.2-.5-.3-.9-.3h-1.2v2Z"/>
  </mask>
  <path fill="#000" d="M7 97v-8.7h3.7c.6 0 1.2 0 1.6.2.5.2.8.5 1 .8.2.4.4.7.4 1.2l-.3.9-.5.6-.9.4c.4 0 .7.2 1 .3l.7.8c.2.3.3.6.3 1a2.3 2.3 0 0 1-1.4 2.2c-.5.2-1 .3-1.6.3H7Zm2.1-1.7h1.4c.4 0 .7 0 1-.3.2-.1.3-.4.3-.7 0-.2 0-.4-.2-.6a1 1 0 0 0-.4-.3l-.7-.2H9v2.1Zm0-3.4h1.2c.2 0 .4 0 .6-.2.2 0 .3-.1.4-.3l.2-.5a1 1 0 0 0-.3-.7c-.2-.2-.5-.3-.9-.3H9.1v2Zm11.2-3.6h2v5.6a3 3 0 0 1-.4 1.7 3 3 0 0 1-1.3 1.1c-.5.3-1.2.4-1.9.4s-1.4-.1-2-.4a3 3 0 0 1-1.2-1.1c-.3-.5-.5-1-.5-1.7v-5.6h2.1v5.4c0 .3 0 .6.2.8.1.3.3.4.6.6l.8.2c.3 0 .6 0 .8-.2.3-.2.5-.3.6-.6l.2-.8v-5.4Zm3.4 8.7v-8.7h3.6c.7 0 1.2 0 1.7.3s.9.6 1.1 1c.3.5.4 1 .4 1.6 0 .6-.1 1.1-.4 1.5-.3.4-.6.8-1.1 1-.5.2-1 .3-1.7.3H25v-1.6h1.9c.3 0 .5 0 .8-.2.2 0 .3-.2.4-.4.2-.1.2-.4.2-.6 0-.3 0-.5-.2-.7a1 1 0 0 0-.4-.4 2 2 0 0 0-.8-.1h-1v7h-2.2Zm5-4 2.1 4h-2.3l-2.1-4h2.2Zm6.5-4.7h2v6c0 .6 0 1-.3 1.5l-1.1 1c-.5.2-1 .3-1.7.3-.5 0-1 0-1.4-.3a2.4 2.4 0 0 1-1.5-2.4h2.1l.1.6c.1.1.2.3.4.3l.5.2c.2 0 .3 0 .5-.2l.3-.4.1-.6v-6Zm7.9 8.7h-2.3l3-8.7h2.8l2.9 8.7h-2.3l-2-6.5L43 97Zm-.3-3.4h4.7v1.6h-4.7v-1.6Zm7.6 3.4v-8.7h2.2v7h3.6V97h-5.8Zm11.3 0h-2.2l3-8.7h2.7l3 8.7h-2.3l-2-6.5h-.1l-2 6.5Zm-.3-3.4h4.8v1.6h-4.8v-1.6Zm7.7 3.4v-8.7h3.6c.7 0 1.2 0 1.7.3s.9.6 1.1 1c.3.5.4 1 .4 1.6 0 .6-.1 1.1-.4 1.5-.3.4-.6.8-1.1 1-.5.2-1 .3-1.7.3h-2.3v-1.6h1.9c.3 0 .5 0 .8-.2.2 0 .3-.2.4-.4.2-.1.2-.4.2-.6 0-.3 0-.5-.2-.7a1 1 0 0 0-.4-.4 2 2 0 0 0-.8-.1h-1v7H69Zm5-4 2.1 4h-2.3l-2.1-4H74Zm4.8 4h-2.2l3-8.7h2.7l3 8.7H83l-2-6.5-2 6.5Zm-.3-3.4h4.8v1.6h-4.8v-1.6Zm7.7 3.4v-8.7H90c.6 0 1.2 0 1.6.2.4.2.8.5 1 .8.2.4.3.7.3 1.2 0 .3 0 .6-.2.9l-.6.6-.8.4 1 .3.7.8c.2.3.3.6.3 1a2.3 2.3 0 0 1-1.4 2.2c-.5.2-1 .3-1.7.3h-3.9Zm2.1-1.7h1.3c.5 0 .8 0 1-.3.3-.1.4-.4.4-.7 0-.2 0-.4-.2-.6a1 1 0 0 0-.4-.3l-.7-.2h-1.4v2.1Zm0-3.4h1.2c.2 0 .4 0 .6-.2.2 0 .3-.1.4-.3l.2-.5a1 1 0 0 0-.3-.7c-.2-.2-.5-.3-.9-.3h-1.2v2Z"/>
  <path fill="#fff" d="M7 97H5.5v1.5H7V97Zm0-8.7v-1.5H5.5v1.5H7Zm5.3.2-.6 1.4.6-1.4Zm1 .8-1.2.9 1.2-.9Zm.1 2 1.4.8-1.4-.7Zm-.5.7-.9-1.2.9 1.2Zm-.9.4-.3-1.5-1.2.3v1.2H12Zm0 0h-1.5V94H12l.1-1.4Zm1 .3-.8 1.3.8-1.3Zm.7.8-1.3.7 1.3-.7Zm0 2.3 1.2.8-1.3-.8Zm-1.1.9.6 1.3-.6-1.3Zm-3.5-1.4H7.6v1.5h1.5v-1.5Zm2.4-.3-1-1.1 1 1.1Zm.1-1.3-1.2.8 1.2-.8Zm-.4-.3-.7 1.3.7-1.3Zm-2-.2v-1.5H7.5v1.5H9Zm0-1.3H7.5v1.5H9v-1.5Zm2.1-.5-1.2-.9 1.2 1Zm-.1-1.2 1-1.2-1 1.2Zm-2-.3v-1.5H7.5V90H9ZM8.4 97v-8.7h-3V97h3ZM7 89.8h3.7v-3H7v3Zm3.7 0 1 .1 1.2-2.7c-.7-.3-1.4-.4-2.2-.4v3Zm1 .1.4.3 2.5-1.7c-.5-.6-1-1-1.7-1.3l-1.2 2.7Zm.4.3v.3h3c0-.7-.1-1.4-.5-2L12 90.2Zm0 .3v.2l2.7 1.4c.2-.5.4-1 .4-1.6h-3Zm0 .2 1.6 2.5c.5-.3.8-.6 1-1.1l-2.6-1.4Zm0 0-.4.2.6 3 1.4-.7-1.7-2.4Zm-1.6 1.7h3-3ZM12 94h.3l1.5-2.6a3 3 0 0 0-1.6-.4l-.2 3Zm.3 0 .2.2 2.6-1.5c-.3-.5-.7-1-1.3-1.3L12.2 94Zm.2.2v.4h3c0-.7 0-1.3-.4-1.9l-2.6 1.5Zm0 .4v.4l2.5 1.6c.4-.6.6-1.3.6-2h-3Zm0 .4-.4.3 1.2 2.7a4 4 0 0 0 1.7-1.4L12.4 95Zm-.4.3-1 .2v3c.8 0 1.5-.1 2.2-.5L12 95.3Zm-1 .2H7v3h4v-3ZM9 96.8h1.4v-3H9v3Zm1.4 0a3 3 0 0 0 1.9-.6L10.5 94l.2-.1h-.2v3Zm1.9-.6c.6-.5.9-1.2.9-1.9h-3v-.2l.2-.2 1.9 2.3Zm.9-1.9c0-.5-.1-1-.4-1.4l-2.5 1.7-.1-.2h3Zm-.4-1.4-1-1-1.3 2.8h-.1l-.1-.2 2.5-1.6Zm-1-.9-1.4-.3v3s.1 0 0 0l1.3-2.7Zm-1.4-.3H9v3h1.4v-3Zm-2.9 1.5v2.1h3v-2h-3Zm1.5.2h1.2v-3H9.1v3Zm1.2 0 1.2-.3-1.2-2.7v3Zm1.2-.3c.4-.2.8-.4 1-.8L10 90.6a.6.6 0 0 1 .2-.2l1.2 2.7Zm1-.8c.4-.5.5-1 .5-1.4h-3v-.1l.1-.3 2.5 1.8Zm.5-1.4c0-.7-.3-1.4-.9-1.9l-1.9 2.4a.7.7 0 0 1-.2-.5h3ZM12 89a3 3 0 0 0-1.8-.6v3c.1 0 .1 0 0 0L12 89Zm-1.8-.6H9.1v3h1.2v-3ZM7.6 90v2h3v-2h-3Zm12.7-1.6v-1.5h-1.5v1.5h1.5Zm2 0H24v-1.5h-1.5v1.5Zm-.4 7.3 1.3.8-1.3-.8Zm-1.3 1.1.7 1.4-.7-1.4Zm-3.8 0-.7 1.4.7-1.4Zm-1.3-1.1-1.3.8 1.3-.8Zm-.5-7.3v-1.5h-1.5v1.5H15Zm2.1 0h1.5v-1.5h-1.5v1.5Zm.2 6.2-1.3.8 1.3-.8Zm.6.6.7-1.3-.7 1.3Zm1.6 0-.7-1.3.7 1.3Zm.8-5.3h2v-3h-2v3Zm.6-1.5V94h3v-5.6h-3Zm0 5.6-.2.9 2.5 1.6c.5-.7.7-1.6.7-2.5h-3Zm-.2.9-.7.6 1.3 2.7c.8-.4 1.4-1 1.9-1.7l-2.5-1.6Zm-.7.6a3 3 0 0 1-1.3.2v3a6 6 0 0 0 2.6-.5L20 95.4Zm-1.3.2a3 3 0 0 1-1.3-.2L16.1 98a6 6 0 0 0 2.6.5v-3Zm-1.3-.2-.7-.6-2.5 1.6c.5.7 1.1 1.3 2 1.7l1.2-2.7Zm-.7-.6-.2-.9h-3c0 .9.2 1.8.7 2.5l2.5-1.6Zm-.2-.9v-5.6h-3V94h3ZM15 89.8h2.1v-3h-2v3Zm.6-1.5v5.4h3v-5.4h-3Zm0 5.4c0 .5.1 1 .4 1.6l2.6-1.5h-3Zm.4 1.6c.3.4.7.8 1.1 1l1.5-2.5-2.6 1.5Zm1.1 1c.5.4 1 .5 1.6.5v-3h-.1l-1.5 2.6Zm1.6.5c.5 0 1-.1 1.6-.4l-1.5-2.6h-.1v3Zm1.6-.4a3 3 0 0 0 1-1.1l-2.5-1.5 1.5 2.6Zm1-1.1c.4-.5.5-1 .5-1.6h-3l2.6 1.6Zm.5-1.6v-5.4h-3v5.4h3Zm2 3.3h-1.6v1.5h1.5V97Zm0-8.7v-1.5h-1.6v1.5h1.5Zm5.2.3-.7 1.4.7-1.4Zm1.1 1-1.3.8 1.3-.8Zm0 3.1 1.3.8-1.3-.8Zm-1.1 1 .6 1.4-.6-1.4Zm-4 .3h-1.5v1.5H25V94Zm0-1.6v-1.5h-1.5v1.5H25Zm2.7-.2.5 1.4-.5-1.4Zm.4-.4 1.3.9-1.3-.9Zm0-1.3-1.2.8 1.2-.8Zm-.4-.4-.6 1.4.6-1.4Zm-1.9-.1v-1.5h-1.5V90h1.5Zm0 7v1.5h1.5V97h-1.5Zm2.8-4 1.3-.7-.4-.8h-.9V93Zm2.2 4v1.5h2.5l-1.2-2.2-1.3.7Zm-2.3 0-1.3.7.4.8h.9V97Zm-2.1-4v-1.5h-2.5l1.1 2.2 1.4-.7Zm-1.2 4v-8.7h-3V97h3Zm-1.5-7.2h3.6v-3h-3.6v3Zm3.6 0c.5 0 .8 0 1 .2l1.4-2.7c-.7-.4-1.5-.5-2.4-.5v3Zm1 .2c.3 0 .4.2.5.4l2.6-1.5a4 4 0 0 0-1.7-1.6L28.4 90Zm.5.4.2.8h3c0-.8-.2-1.6-.6-2.3l-2.6 1.5Zm.2.8c0 .4 0 .6-.2.7l2.6 1.6c.4-.7.6-1.5.6-2.3h-3Zm-.2.7a1 1 0 0 1-.4.4l1.2 2.7a4 4 0 0 0 1.8-1.5L28.8 92Zm-.4.4-1.1.2v3c.8 0 1.6-.1 2.3-.4l-1.2-2.8Zm-1.1.2H25v3h2.3v-3Zm-.8 1.5v-1.6h-3V94h3ZM25 94h1.9v-3h-2v3Zm1.9 0a3 3 0 0 0 1.3-.3l-1-2.8h-.4v3Zm1.3-.3c.5-.2.9-.5 1.2-1L27 91l.1-.1h.1l1.1 2.7Zm1.2-1c.3-.4.4-1 .4-1.4h-3V91l2.6 1.7Zm.4-1.4c0-.5 0-1-.4-1.5L27 91.3c-.1-.1 0-.2 0-.1h3Zm-.4-1.5c-.3-.5-.7-.8-1.2-1l-1.1 2.8H27l-.1-.2 2.5-1.6Zm-1.2-1c-.4-.2-.9-.2-1.3-.2v3h.2l1.1-2.8Zm-1.3-.2h-1v3h1v-3ZM24.3 90v7h3v-7h-3Zm1.5 5.5h-2v3h2v-3Zm1.5-1.8 2.2 4 2.6-1.4-2.2-4-2.6 1.4Zm3.5 1.8h-2.3v3h2.3v-3Zm-1 .8-2.1-4-2.7 1.4 2.2 4 2.6-1.4Zm-3.4-1.8h2.2v-3h-2.2v3Zm8.8-6.2v-1.5h-1.5v1.5h1.5Zm2 0h1.6v-1.5h-1.5v1.5Zm0 6h1.6-1.5Zm-.3 1.5 1.2.8-1.2-.8Zm-1.1 1-.7-1.4.7 1.4Zm-3.1 0-.6 1.4.6-1.4Zm-1.1-.9-1.3.9 1.3-.9Zm-.4-1.5V93h-1.5v1.5h1.5Zm2.1 0h1.5v-1.5h-1.5v1.5Zm.1.6-1.3.6 1.3-.6Zm.4.3.7-1.3-.7 1.3Zm1 0 .8 1.3-.8-1.3Zm.3-.4-1.4-.6 1.4.6Zm.1-.6h1.5-1.5Zm0-4.5h2v-3h-2v3Zm.6-1.5v6h3v-6h-3Zm0 6c0 .3 0 .5-.2.7l2.5 1.6c.5-.7.7-1.5.7-2.3h-3Zm-.2.7-.5.4 1.3 2.7c.7-.3 1.3-.8 1.7-1.5L35.6 95Zm-.5.4-1 .2v3c.9 0 1.6-.1 2.3-.5l-1.3-2.7Zm-1 .2-.9-.1-1.1 2.7c.6.3 1.3.4 2 .4v-3Zm-.9-.1a.9.9 0 0 1-.4-.4l-2.5 1.7c.5.6 1 1.1 1.8 1.4l1.1-2.7ZM33 95c-.1 0-.2-.3-.2-.7h-3c0 .8.2 1.7.6 2.4L33 95Zm-1.7.8h2.1v-3h-2v3Zm.6-1.4.3 1.1 2.7-1.3v.1h-3Zm.3 1.2c.2.4.5.7 1 1l1.4-2.7a.7.7 0 0 1 .3.3L32 95.7Zm1 1c.3.2.8.3 1.2.3v-3h.2L33 96.6Zm1.2.3c.4 0 .8-.1 1.3-.4L34 94.1l.3-.1v3Zm1.3-.4.9-1-2.8-1.2v-.2l.3-.1 1.6 2.5Zm.9-1 .2-1.3h-3c0 .1 0 0 0 0l2.8 1.2Zm.2-1.3v-6h-3v6h3Zm6.4 2.7v1.5h1l.4-1-1.4-.5Zm-2.3 0-1.4-.5-.7 2h2.1V97Zm3-8.7v-1.5h-1.1l-.4 1 1.5.5Zm2.8 0 1.4-.5-.4-1h-1v1.5Zm2.9 8.7v1.5h2l-.6-2-1.4.5Zm-2.3 0-1.4.4.3 1.1h1.1V97Zm-2-6.5 1.4-.5-.3-1h-1.1v1.5Zm0 0V89H44l-.3 1 1.4.5Zm-2.4 3V92h-1.5v1.5h1.5Zm4.7 0H49V92h-1.5v1.5Zm0 1.7v1.5H49v-1.5h-1.5Zm-4.7 0h-1.5v1.5h1.5v-1.5Zm.3.3h-2.3v3h2.3v-3Zm-.9 2 3-8.7-2.9-1-3 8.7 3 1Zm1.6-7.7h2.8v-3h-2.8v3Zm1.3-1 3 8.7 2.8-1-3-8.7-2.8 1Zm4.4 6.7h-2.3v3h2.3v-3Zm-.8 1-2-6.5-3 1 2.1 6.4 2.9-.8ZM45.2 89v3-3Zm-1.5 1-2 6.6 2.8.8 2-6.5-2.8-.9Zm-1 5h4.8v-3h-4.7v3Zm3.3-1.4v1.6h3v-1.6h-3Zm1.5 0h-4.7v3h4.7v-3Zm-3.2 1.6v-1.6h-3v1.6h3Zm6.1 1.8H49v1.5h1.5V97Zm0-8.7v-1.5H49v1.5h1.5Zm2.2 0H54v-1.5h-1.5v1.5Zm0 7H51v1.5h1.5v-1.5Zm3.6 0h1.5v-1.5h-1.5v1.5Zm0 1.7v1.5h1.5V97h-1.5Zm-4.3 0v-8.7h-3V97h3Zm-1.5-7.2h2.2v-3h-2.2v3Zm.7-1.5v7h3v-7h-3Zm1.5 8.5h3.6v-3h-3.6v3Zm2-1.5V97h3v-1.7h-3Zm1.6.2h-5.8v3h5.8v-3Zm5.5 1.5v1.5h1.1l.4-1-1.5-.5Zm-2.2 0-1.4-.5-.7 2h2V97Zm3-8.7v-1.5h-1.2l-.3 1 1.4.5Zm2.7 0 1.4-.5-.3-1h-1v1.5Zm3 8.7v1.5h2l-.6-2-1.4.5Zm-2.3 0-1.4.4.3 1.1h1.1V97Zm-2-6.5 1.4-.5-.3-1h-1.1v1.5Zm-.1 0V89h-1.1l-.3 1 1.4.5Zm-2.4 3v-1.4H60v1.5h1.5Zm4.8 0h1.5v-1.4h-1.5v1.5Zm0 1.7v1.5h1.5v-1.5h-1.5Zm-4.8 0H60v1.5h1.5v-1.5Zm.3.3h-2.2v3h2.2v-3Zm-.8 2 3-8.7-2.9-1-3 8.7 2.9 1Zm1.5-7.7h2.8v-3h-2.8v3Zm1.4-1 3 8.7 2.8-1-3-8.7-2.8 1Zm4.4 6.7h-2.3v3h2.3v-3Zm-.9 1-2-6.5-2.9 1 2 6.4 3-.8ZM64 89h-.1v3-3Zm-1.5 1-2 6.6 2.8.8 2-6.5-2.8-.9Zm-1 5h4.8v-3h-4.8v3Zm3.3-1.4v1.6h3v-1.6h-3Zm1.5 0h-4.8v3h4.8v-3ZM63 95.2v-1.6h-3v1.6h3Zm6.2 1.8h-1.5v1.5h1.5V97Zm0-8.7v-1.5h-1.5v1.5h1.5Zm5.3.3-.7 1.4.7-1.4Zm1.1 1-1.3.8 1.3-.8Zm0 3.1 1.3.8-1.3-.8Zm-1.1 1L75 95l-.6-1.4Zm-4 .3H69v1.5h1.5V94Zm0-1.6v-1.5H69v1.5h1.5Zm2.7-.2.5 1.4-.5-1.4Zm.4-.4 1.3.9-1.3-.9Zm0-1.3-1.2.8 1.2-.8Zm-.4-.4-.6 1.4.6-1.4Zm-1.9-.1v-1.5h-1.5V90h1.5Zm0 7v1.5h1.5V97h-1.5Zm2.8-4 1.3-.7-.4-.8h-1V93Zm2.2 4v1.5h2.5l-1.2-2.2-1.3.7ZM74 97l-1.3.7.4.8h.9V97Zm-2.1-4v-1.5h-2.5l1.1 2.2 1.4-.7Zm-1.2 4v-8.7h-3V97h3Zm-1.5-7.2h3.6v-3h-3.6v3Zm3.6 0c.5 0 .8 0 1 .2l1.4-2.7a5 5 0 0 0-2.4-.5v3Zm1 .2c.3 0 .4.2.5.4l2.6-1.5a4 4 0 0 0-1.7-1.6L73.8 90Zm.5.4.2.8h3c0-.8-.2-1.6-.6-2.3l-2.6 1.5Zm.2.8c0 .4 0 .6-.2.7l2.6 1.6c.4-.7.6-1.5.6-2.3h-3Zm-.2.7a1 1 0 0 1-.4.4L75 95a4 4 0 0 0 1.8-1.5L74.2 92Zm-.4.4-1.1.2v3c.8 0 1.6-.1 2.3-.4l-1.2-2.8Zm-1.1.2h-2.3v3h2.3v-3ZM72 94v-1.6h-3V94h3Zm-1.5-.1h1.9v-3h-2v3Zm1.9 0a3 3 0 0 0 1.3-.3l-1-2.8h-.5v3Zm1.3-.3c.5-.2.9-.5 1.2-1L72.3 91l.1-.1h.1l1.1 2.7Zm1.2-1c.3-.4.4-1 .4-1.4h-3V91l2.6 1.7Zm.4-1.4c0-.5 0-1-.4-1.5l-2.5 1.6c-.1-.1 0-.2 0-.1h3Zm-.4-1.5c-.3-.5-.7-.8-1.2-1l-1.1 2.8h-.1l-.1-.2 2.5-1.6Zm-1.2-1c-.4-.2-.9-.2-1.3-.2v3h.2l1.1-2.8Zm-1.3-.2h-1v3h1v-3ZM69.7 90v7h3v-7h-3Zm1.5 5.5h-2v3h2v-3Zm1.5-1.8 2.2 4 2.6-1.4-2.2-4-2.6 1.4Zm3.5 1.8h-2.3v3h2.3v-3Zm-1 .8-2.1-4-2.7 1.4 2.2 4 2.6-1.4Zm-3.4-1.8H74v-3h-2.2v3Zm7.1 2.5v1.5H80l.4-1-1.5-.5Zm-2.2 0-1.4-.5-.7 2h2V97Zm3-8.7v-1.5h-1.2l-.3 1 1.4.5Zm2.7 0 1.5-.5-.4-1h-1v1.5Zm3 8.7v1.5h2l-.6-2-1.4.5ZM83 97l-1.4.4.3 1.1H83V97Zm-2-6.5 1.4-.5-.3-1H81v1.5Zm-.1 0V89h-1.1l-.3 1 1.4.5Zm-2.4 3v-1.4H77v1.5h1.5Zm4.8 0h1.5v-1.4h-1.5v1.5Zm0 1.7v1.5h1.5v-1.5h-1.5Zm-4.8 0H77v1.5h1.5v-1.5Zm.3.3h-2.2v3h2.2v-3Zm-.8 2 3-8.7-2.9-1-3 8.7 2.9 1Zm1.5-7.7h2.8v-3h-2.8v3Zm1.4-1 3 8.7 2.8-1-3-8.7-2.8 1Zm4.4 6.7H83v3h2.3v-3Zm-.9 1-2-6.5-2.9 1 2 6.4 3-.8ZM81.1 89H81v3-3Zm-1.5 1-2 6.6 2.8.8 2-6.5-2.8-.9Zm-1 5h4.8v-3h-4.8v3Zm3.3-1.4v1.6h3v-1.6h-3Zm1.5 0h-4.8v3h4.8v-3ZM80 95.3v-1.6h-3v1.6h3Zm6.2 1.8h-1.5v1.5h1.5V97Zm0-8.7v-1.5h-1.5v1.5h1.5Zm5.3.2L91 90l.6-1.4Zm1 .8-1.3.9 1.3-.9Zm.1 2 1.3.8-1.3-.7Zm-.6.7-.8-1.2.8 1.2Zm-.8.4-.3-1.5-1.2.3v1.2h1.5Zm0 0h-1.5V94h1.4l.1-1.4Zm1 .3-.8 1.3.8-1.3Zm.7.8-1.3.7 1.3-.7Zm0 2.3 1.2.8-1.3-.8Zm-1.1.9.6 1.3-.6-1.3Zm-3.5-1.4H87v1.5h1.5v-1.5Zm2.3-.3-.9-1.1 1 1.1Zm.2-1.3-1.3.8 1.3-.8Zm-.4-.3-.7 1.3.7-1.3Zm-2-.2v-1.5h-1.6v1.5h1.5Zm0-1.3h-1.6v1.5h1.5V92Zm2.1-.5-1.2-.9 1.2 1Zm-.1-1.2 1-1.2-1 1.2Zm-2-.3v-1.5h-1.6V90h1.5Zm-.7 7.1v-8.7h-3V97h3Zm-1.5-7.2H90v-3h-3.7v3Zm3.7 0 1 .1 1.2-2.7c-.7-.3-1.5-.4-2.2-.4v3Zm1 .1.3.3 2.5-1.7a4 4 0 0 0-1.6-1.3L91 89.9Zm.3.3.1.3h3c0-.7-.2-1.4-.6-2l-2.5 1.7Zm.1.3v.2L94 92c.3-.5.4-1 .4-1.6h-3Zm0 .2h-.1l1.7 2.5c.4-.3.8-.6 1-1.1l-2.6-1.4Zm-.1 0-.3.2.6 3 1.4-.7-1.7-2.4Zm-1.5 1.7h3-3Zm1.4 1.6h.3l1.5-2.6a3 3 0 0 0-1.6-.4l-.2 3Zm.3 0 .2.2 2.6-1.5c-.3-.5-.7-1-1.3-1.3L91.5 94Zm.2.2v.4h3c0-.7 0-1.3-.4-1.9l-2.6 1.5Zm0 .4v.4l2.5 1.6c.4-.6.6-1.3.6-2h-3Zm0 .4-.5.3 1.3 2.7a4 4 0 0 0 1.7-1.4L91.7 95Zm-.5.3-1 .2v3c.8 0 1.6-.1 2.3-.5l-1.3-2.7Zm-1 .2h-3.9v3h4v-3Zm-1.8 1.3h1.3v-3h-1.3v3Zm1.3 0a3 3 0 0 0 2-.6L89.8 94l.1-.1h-.2v3Zm2-.6c.6-.5.9-1.2.9-1.9h-3v-.2l.2-.2 1.9 2.3Zm.9-1.9c0-.5-.1-1-.4-1.4l-2.5 1.7-.1-.2h3Zm-.4-1.4L91 92l-1.3 2.8-.2-.2 2.6-1.6ZM91 92a3 3 0 0 0-1.3-.3v3L91 92Zm-1.3-.3h-1.4v3h1.4v-3Zm-2.9 1.5v2.1h3v-2h-3Zm1.5.2h1.2v-3h-1.2v3Zm1.2 0 1.2-.3-1.2-2.7v3Zm1.2-.3c.4-.2.8-.4 1-.8l-2.4-1.7a.6.6 0 0 1 .2-.2l1.2 2.7Zm1-.8c.4-.5.5-1 .5-1.4h-3v-.1l.1-.3 2.4 1.8Zm.5-1.4c0-.7-.3-1.4-.9-1.9l-1.9 2.4a.7.7 0 0 1-.2-.5h3Zm-.9-1.9a3 3 0 0 0-1.8-.6v3l1.8-2.4Zm-1.8-.6h-1.2v3h1.2v-3ZM87 90v2h3v-2h-3Z" mask="url(#b)"/>
  <defs>
    <clipPath id="a">
      <path fill="#fff" d="M22 0h56v99.6H22z"/>
    </clipPath>
  </defs>
</svg>
