<svg xmlns="http://www.w3.org/2000/svg" version="1.0" viewBox="0 0 75 75">
  <defs>
    <clipPath id="a">
      <path d="M18.6 11H40v42H18.6Zm0 0"/>
    </clipPath>
    <clipPath id="b">
      <path d="M40.5 7.9h15.6v46.8H40.5Zm0 0"/>
    </clipPath>
    <clipPath id="c">
      <path d="M29.5 42.3h7.8v12.4h-7.8Zm0 0"/>
    </clipPath>
    <clipPath id="d">
      <path d="M41.4 37.9h10.5v16.8H41.4Zm0 0"/>
    </clipPath>
    <clipPath id="e">
      <path d="M31.4 32.8h8.1v22h-8.1Zm0 0"/>
    </clipPath>
    <clipPath id="f">
      <path d="M38.8 32.8H51v22H38.8Zm0 0"/>
    </clipPath>
    <clipPath id="g">
      <path d="M33.2 28h6.4v26.7h-6.4Zm0 0"/>
    </clipPath>
    <clipPath id="h">
      <path d="M37.3 25.7H42v29h-4.8Zm0 0"/>
    </clipPath>
    <clipPath id="i">
      <path d="M39 30.5h7.3v24.2H39Zm0 0"/>
    </clipPath>
  </defs>
  <path fill="#5fa134" d="M34.6 0a186.6 186.6 0 0 1 5.1 33.2L40 36c.1 1.8.2 3.8-.4 5.6-.2.9-.7 1.7-1.3 2.4l1-1.6c.7-2 .5-4.3.4-6.4l-.5-5.6-.4-4.1c-1-8.8-2.4-17.6-4.1-26.3"/>
  <g clip-path="url(#a)">
    <path fill="#68bf35" d="M18.6 11.3A45 45 0 0 1 39 52.6a48.6 48.6 0 0 0-20.4-41.3"/>
  </g>
  <g clip-path="url(#b)">
    <path fill="#83ce3d" d="M56 7.9c-5.1 4-8.7 9.6-11 15.7A67 67 0 0 0 41 46v2.5l-.3 6.3a204.7 204.7 0 0 1-.1-13c.2-4 .6-8.1 1.5-12 2-8.6 6.4-17 13.9-21.8"/>
  </g>
  <path fill="#9a5f28" d="m48.7 15.5-.2-.3a1 1 0 0 1 0-1.7L52.2 9c.5-.6 1.3-.6 1.8-.1l.2.2c.5.5.6 1.2.1 1.8l-4 4.4c-.4.5-1.2.5-1.7 0"/>
  <path fill="#b36f30" d="m48.6 13.5 2.5-3 1.2-1.3a1.2 1.2 0 0 1 1.8 0c-.2-.2-.5-.3-.8-.3-.4 0-.7.2-1 .5l-1.1 1.3-2.6 2.8"/>
  <path fill="#8f4e27" d="m54.3 11-3.7 4.3c-.5.5-1.4.6-2 0-.4-.3-.5-.9-.4-1.4 0 .2.2.4.4.6.5.5 1.4.4 2-.1l3.7-4.2.3-.6v.5c0 .3 0 .7-.3 1"/>
  <path fill="#9a5f28" d="m37 11-.3.1c-.6.2-1.3-.3-1.4-1l-1.1-5.8c-.1-.7.3-1.3 1-1.5h.3c.7-.2 1.3.3 1.4 1L38 9.6c.2.7-.3 1.3-1 1.5"/>
  <path fill="#b36f30" d="M35.4 10a85.2 85.2 0 0 1-1-5.6c-.2-.7.3-1.4 1-1.4-.7.1-1.1.8-1 1.5a198.2 198.2 0 0 1 1 5.5"/>
  <path fill="#8f4e27" d="m37 4 1 5.5a1.4 1.4 0 0 1-2.5 1l.7.1c.7-.1 1.2-.9 1-1.6l-1-5.6-.2-.6.4.2c.3.2.5.5.6 1"/>
  <g clip-path="url(#c)">
    <path fill="#3fa43d" d="M37.3 54.7v-.2l-.6-2c0-.4-.2-.8-.3-1.1-.4-1.8-1-3.6-2-5.1a8 8 0 0 0-4.9-4c2.5 1.4 3.7 4.1 4.6 6.8.7 1.8 1.2 3.7 1.7 5.6h1.5"/>
  </g>
  <g clip-path="url(#d)">
    <path fill="#39893e" d="M52 37.9a58.5 58.5 0 0 0-6 12.7l-1.6 4.1h-3a100 100 0 0 1 5.4-12.4c1.4-2.1 3.2-3.9 5.1-4.4"/>
  </g>
  <g clip-path="url(#e)">
    <path fill="#54c046" d="M37.3 54.7h2.2l-.2-1.4a72.7 72.7 0 0 0-3.6-12.5 44.2 44.2 0 0 0-4.3-8c.7 1 1.1 3.5 1.5 4.8a169.4 169.4 0 0 1 4.2 17.1h.2"/>
  </g>
  <g clip-path="url(#f)">
    <path fill="#3fa43d" d="M51 32.8a83.9 83.9 0 0 0-8 22h-4a57.5 57.5 0 0 1 3-8.5 80.2 80.2 0 0 1 3.5-7.1c1.5-2.7 3.3-5.4 5.6-6.4"/>
  </g>
  <g clip-path="url(#g)">
    <path fill="#39893e" d="M37.3 54.7h2.3l-.2-1.6v-.2a144 144 0 0 0-6.2-25c.9 3.6 1.6 7.1 2.2 10.7l.3 2.2c.7 4.5 1.2 9 1.5 13.7v.2h.1"/>
  </g>
  <g clip-path="url(#h)">
    <path fill="#3fa43d" d="M42.1 54.7h-4.8l.3-5.7a498 498 0 0 0 .2-4.3l.6-10.6.3-4.3c0-1.3.3-2.8.2-4l1.8 15.9.3 2.6v.2l.1 1.4.2 1.7.7 5.6v.3l.1 1.2"/>
  </g>
  <g clip-path="url(#i)">
    <path fill="#54c046" d="M46.3 30.5c-.6.7-.8 2.3-1 3.2A79.4 79.4 0 0 0 42 53v1.6h-3l.3-1.4v-.4a192 192 0 0 1 1.5-7.6l.2-.8a873.5 873.5 0 0 1 1.6-6.9c.7-2.7 1.5-5.5 3.7-7.1"/>
  </g>
  <path fill="#9a5f28" d="m27 18.3-.2.3c-.4.5-1.2.5-1.7 0l-4.4-4c-.5-.4-.5-1.2 0-1.7l.2-.3c.4-.5 1.2-.5 1.7 0l4.4 4c.5.4.5 1.2 0 1.7"/>
  <path fill="#b36f30" d="M25.1 18.4a81.6 81.6 0 0 1-4.2-3.7c-.5-.5-.5-1.3 0-1.8-.5.5-.4 1.3.1 1.7l1.4 1.2 2.7 2.6"/>
  <path fill="#8f4e27" d="m22.7 12.7 4.2 3.7c.5.6.6 1.4 0 2-.3.4-.9.6-1.4.5l.6-.4c.5-.6.4-1.5-.1-2l-4.2-3.8-.5-.3.4-.1c.4 0 .7 0 1 .4"/>
  <path d="M11.8 71a7 7 0 0 1-3.6-1 6 6 0 0 1-2.4-2.5 9 9 0 0 1-.9-4.2c0-1.6.3-3 .9-4.1a6 6 0 0 1 2.4-2.6c1-.6 2.2-.8 3.6-.8s2.6.2 3.6.8c1 .6 1.7 1.4 2.1 2.5l-2 1.3h-.3c-.4-.7-.8-1.3-1.3-1.6-.6-.4-1.3-.5-2.1-.5-1.2 0-2.2.4-2.9 1.2-.6.8-1 2-1 3.8 0 1.8.4 3 1 3.9.7.8 1.7 1.2 2.9 1.2 2 0 3-1 3.5-2.8h.3l2.1 1.1c-.4 1.4-1 2.5-2 3.2-1 .7-2.3 1-3.9 1Zm10.7 0c-.7 0-1.3-.2-1.8-.5-.6-.2-1-.6-1.2-1.1-.3-.5-.5-1.1-.5-1.9a3 3 0 0 1 1.7-2.8l2.4-.6c.6 0 1.2-.2 1.5-.3.3-.2.6-.3.7-.5l.2-.6a1 1 0 0 0-.4-.8c-.2-.2-.6-.3-1.2-.3a4 4 0 0 0-1.8.4c-.6.3-1 .7-1.4 1.1h-.2l-1.2-1.7a5 5 0 0 1 2-1.5c.9-.3 1.8-.5 2.7-.5 1.5 0 2.6.3 3.2 1 .7.5 1 1.4 1 2.6v4.8c0 .5.2.7.6.7h.7l.2 2-.7.2a4 4 0 0 1-.9 0c-.6 0-1.2 0-1.5-.3a2 2 0 0 1-.8-1.2h-.2a3.2 3.2 0 0 1-3 1.7Zm1-2.2a2 2 0 0 0 1.5-.6c.3-.5.5-1 .5-1.8v-1.2h-.2c-.1.1-.3.3-.6.3l-1.2.3c-.6.1-1 .3-1.3.5-.3.3-.4.6-.4 1 0 .5.1.9.4 1.2.3.2.7.3 1.2.3Zm14.1-.8.7 2.1c-.3.3-.7.5-1.1.6l-1.6.2c-1.2 0-2.1-.3-2.7-1-.7-.6-1-1.6-1-2.8v-5.3h-1.7v-2.2H32v-2.2l2.8-.4v2.6H38v2.2h-3.2v5c0 .6.1 1 .4 1.3.2.2.5.4 1 .4s.9-.2 1.3-.5Zm8.6 0 .7 2.1c-.3.3-.7.5-1.1.6l-1.6.2c-1.2 0-2-.3-2.7-1a4 4 0 0 1-1-2.8v-5.3H39v-2.2h1.7v-2.2l2.7-.4v2.6h3.2v2.2h-3.2v5c0 .6.2 1 .4 1.3.2.2.6.4 1 .4.5 0 1-.2 1.3-.5Zm5.3 3c-.7 0-1.3-.2-1.9-.5-.5-.2-.9-.6-1.2-1.1-.2-.5-.4-1.1-.4-1.9 0-.6.2-1.2.4-1.6a3 3 0 0 1 1.3-1.1 10 10 0 0 1 2.4-.7c.6 0 1.1-.2 1.5-.3.3-.2.6-.3.7-.5l.2-.6c0-.3-.2-.6-.4-.8-.3-.2-.7-.3-1.2-.3a4 4 0 0 0-1.8.4c-.6.3-1 .7-1.5 1.1h-.2l-1.1-1.7a5 5 0 0 1 2-1.5c.8-.3 1.7-.5 2.7-.5 1.5 0 2.5.3 3.2 1 .6.5 1 1.4 1 2.6v4.8c0 .5.2.7.6.7h.7l.2 2-.7.2a4 4 0 0 1-.9 0c-.7 0-1.2 0-1.6-.3-.3-.3-.6-.7-.8-1.2h-.2c-.5 1.1-1.5 1.7-3 1.7Zm.9-2.2a2 2 0 0 0 1.5-.6c.4-.5.6-1 .6-1.8v-1.2h-.2l-.6.3-1.2.3c-.6.1-1 .3-1.3.5-.3.3-.4.6-.4 1 0 .5.1.9.4 1.2.3.2.7.3 1.2.3Zm9.5-10.5c-.5 0-1-.2-1.3-.5-.3-.3-.4-.7-.4-1.2s.1-.8.4-1.1c.4-.3.8-.5 1.3-.5.3 0 .6 0 .9.2l.6.6.2.8c0 .3 0 .6-.2.9l-.6.6a2 2 0 0 1-1 .2Zm-1.4 12.4V59.6h2.8v11.1Zm9 .3c-1 0-1.8-.3-2.3-.9-.5-.5-.8-1.4-.8-2.5V55.1h2.8v12.4c0 .7.3 1 .8 1h.7l.2 2.2-.6.1-.8.1Zm0 0"/>
</svg>
