<svg xmlns="http://www.w3.org/2000/svg" fill="none" viewBox="0 0 100 100">
  <g clip-path="url(#a)">
    <path fill="#8DB4D4" d="M60.3 96v3.9H40V96h1v-1h2.7V81.4H45V68h1.3V52.3h.8V32.9h2.6v-1.2h-.9v-9.3h.9v-7.3h.5V8.8l.3-.2V5.4h.7v7.4l.4.5v11.3h.7V40h1.2v17.4h1.1v15h1v12.2h1.1V95h2.5v1h1Z"/>
    <path fill="#316B8B" d="M47.5 98.7h4.6v1.2h-4.6v-1.2Z"/>
    <path fill="#D9D9D9" d="M56.7 88.6v1.2h-13v-1.2h13Zm-1.1-12.1H45v1.2h10.6v-1.2Zm-1-13.6h-8.3v1.3h8.3v-1.3Zm-1-17.1H47V47h6.4v-1.2Zm-1.3-14.1H47v1.2h5.2v-1.2Zm-4.7 67v1.2h.4v-1.2h1.7v1.2h.4v-1.2h1.6v1.2h.4v-4.1h-4.5v3Z"/>
    <mask id="b" width="22" height="101" x="39" y="-1" maskUnits="userSpaceOnUse" style="mask-type:luminance">
      <path fill="#fff" d="M39.9 0h20.5v100H39.9V0Z"/>
    </mask>
    <g mask="url(#b)">
      <path fill="#000" d="M44.2 82.2a.1.1 0 0 1 0-.1h1.4a.1.1 0 0 1 .1.1h-1.4a.1.1 0 0 1-.1 0Zm0 .9h1.4a.1.1 0 0 0 .1-.1.1.1 0 0 0 0-.1h-1.4a.1.1 0 0 0-.1.1v.1Zm0 .8h1.4a.1.1 0 0 0 .1-.1h-1.4a.1.1 0 0 0-.1 0 .1.1 0 0 0 0 .1Zm0 .8h1.4a.1.1 0 0 0 .1 0 .1.1 0 0 0 0-.2h-1.4a.1.1 0 0 0-.1.2Zm0 .8h1.4a.1.1 0 0 0 .1 0 .1.1 0 0 0 0-.2h-1.4a.1.1 0 0 0-.1.1.1.1 0 0 0 0 .1Zm0 .9h1.4a.1.1 0 0 0 .1-.1.1.1 0 0 0 0-.1h-1.4a.1.1 0 0 0-.1 0 .1.1 0 0 0 0 .1Zm0 .8h1.4a.1.1 0 0 0 .1-.1.1.1 0 0 0 0-.1h-1.4a.1.1 0 0 0-.1 0 .1.1 0 0 0 0 .2Zm0 .8h1.4a.1.1 0 0 0 .1-.2h-1.4a.1.1 0 0 0-.1 0 .1.1 0 0 0 0 .1Zm1.4 2.5h-1.3a.1.1 0 0 0-.1.1h1.4a.1.1 0 0 0 .1 0 .1.1 0 0 0 0-.1Zm0 .8h-1.3a.1.1 0 0 0-.1 0 .1.1 0 0 0 0 .2h1.4a.1.1 0 0 0 .1-.2Zm0 .8h-1.3a.1.1 0 0 0-.1.1h1.4a.1.1 0 0 0 .1 0 .1.1 0 0 0 0-.1Zm0 .8h-1.3a.1.1 0 0 0-.1 0 .1.1 0 0 0 0 .2h1.4a.1.1 0 0 0 .1 0 .1.1 0 0 0 0-.2Zm0 .8h-1.3a.1.1 0 0 0 0 .2h1.3a.1.1 0 0 0 .1-.1Zm9-8.3a.1.1 0 0 0 .2.1H56a.1.1 0 0 0 .1 0 .1.1 0 0 0 0-.1h-1.4a.1.1 0 0 0-.1 0Zm1.5.7h-1.3a.1.1 0 0 0-.1.2h1.4a.1.1 0 0 0 .1 0 .1.1 0 0 0 0-.1Zm0 .9h-1.3a.1.1 0 0 0-.1 0 .1.1 0 0 0 0 .1h1.4a.1.1 0 0 0 .1 0 .1.1 0 0 0 0-.1Zm0 .8h-1.3a.1.1 0 0 0-.1.1h1.4a.1.1 0 0 0 .1 0v-.1Zm0 2.7h-1.3a.1.1 0 0 0-.1 0 .1.1 0 0 0 0 .2h1.4a.1.1 0 0 0 .1 0v-.1a.1.1 0 0 0 0-.1Zm0 .8h-1.3a.1.1 0 0 0-.1.1h1.5a.1.1 0 0 0 0-.1Zm0 .8h-1.3a.1.1 0 0 0-.1.1h1.4a.1.1 0 0 0 .1 0V92Zm0 .8h-1.3a.1.1 0 0 0-.1 0 .1.1 0 0 0 0 .1v.1h1.4a.1.1 0 0 0 .1 0 .1.1 0 0 0 0-.2Zm0 .8h-1.3a.1.1 0 0 0-.1 0 .1.1 0 0 0 0 .2h1.4a.1.1 0 0 0 .1 0v-.1ZM55 78.4h-1.4a.1.1 0 0 0 0 .2H55a.1.1 0 0 0 0-.2Zm0 1h-1.4a.1.1 0 0 0 0 .1H55a.1.1 0 0 0 0-.1Zm0 .8h-1.4a.1.1 0 0 0 0 .2H55a.1.1 0 0 0 0-.2Zm0 1h-1.4a.1.1 0 0 0 0 .1H55a.1.1 0 0 0 0-.2Zm0 .8h-1.4a.1.1 0 0 0 0 .1v.1H55a.1.1 0 0 0 0-.1V82Zm0 .9h-1.4a.1.1 0 0 0 0 .2H55a.1.1 0 0 0 0-.1.1.1 0 0 0 0-.1Zm-9.4-13.6h1.3a.1.1 0 0 0 .1-.1.1.1 0 0 0 0-.1h-1.4a.1.1 0 0 0 0 .2Zm0 .9H47a.1.1 0 0 0 0-.2h-1.4a.1.1 0 0 0 0 .2Zm0 .9h1.3a.1.1 0 0 0 .1 0 .1.1 0 0 0 0-.2h-1.4a.1.1 0 0 0 0 .2Zm0 1h1.3a.1.1 0 0 0 .1-.1.1.1 0 0 0 0-.2h-1.4a.1.1 0 0 0 0 .2Zm0 .8h1.3a.1.1 0 0 0 .1 0 .1.1 0 0 0 0-.2h-1.4a.1.1 0 0 0 0 .1.1.1 0 0 0 0 .1Zm0 1h1.3a.1.1 0 0 0 .1 0 .1.1 0 0 0 0-.2h-1.4a.1.1 0 0 0 0 .2Zm0 .9h1.3a.1.1 0 0 0 .1 0 .1.1 0 0 0 0-.1.1.1 0 0 0 0-.1h-1.4a.1.1 0 0 0 0 .1Zm0 .9h1.3a.1.1 0 0 0 .1 0 .1.1 0 0 0 0-.2h-1.4a.1.1 0 0 0 0 .2Zm0 3h1.3a.1.1 0 0 0 .1-.1.1.1 0 0 0 0-.2h-1.4a.1.1 0 0 0 0 .2Zm0 .8h1.3a.1.1 0 0 0 0-.2h-1.3a.1.1 0 0 0 0 .2Zm1.4.8h-1.4a.1.1 0 0 0 0 .1h1.3a.1.1 0 0 0 .1 0Zm6.5-6.5a.1.1 0 0 0 .1 0H55a.1.1 0 0 0 0-.2h-1.4a.1.1 0 0 0 0 .1Zm1.5.8h-1.4a.1.1 0 0 0 0 .2H55a.1.1 0 0 0 0-.1.1.1 0 0 0 0-.1Zm0 .9h-1.4a.1.1 0 0 0 0 .2H55a.1.1 0 0 0 0-.2Zm-8.1-21.9h1.3a.1.1 0 0 0 .1 0v-.1a.1.1 0 0 0 0-.1h-1.4a.1.1 0 0 0-.1.1.1.1 0 0 0 0 .1Zm0 1h1.3a.1.1 0 0 0 0-.3H47a.1.1 0 0 0-.1.1.1.1 0 0 0 0 .1Zm0 .8h1.3a.1.1 0 0 0 0-.1H47a.1.1 0 0 0-.1 0 .1.1 0 0 0 0 .1Zm0 1h1.3a.1.1 0 0 0 .1-.1.1.1 0 0 0 0-.1h-1.4a.1.1 0 0 0-.1 0 .1.1 0 0 0 0 .2Zm0 .9h1.3a.1.1 0 0 0 .1 0v-.1a.1.1 0 0 0 0-.1h-1.4a.1.1 0 0 0-.1 0 .1.1 0 0 0 0 .2Zm0 .9h1.3a.1.1 0 0 0 .1-.1.1.1 0 0 0 0-.1h-1.4a.1.1 0 0 0-.1 0 .1.1 0 0 0 0 .1Zm0 1h1.3a.1.1 0 0 0 .1-.2h-1.4a.1.1 0 0 0-.1 0 .1.1 0 0 0 0 .1Zm0 .8h1.3a.1.1 0 0 0 .1 0 .1.1 0 0 0 0-.1h-1.4a.1.1 0 0 0 0 .1Zm0 1h1.3a.1.1 0 0 0 .1 0 .1.1 0 0 0 0-.1h-1.4a.1.1 0 0 0 0 .2Zm0 1h1.3a.1.1 0 0 0 .1-.1.1.1 0 0 0 0-.1h-1.4a.1.1 0 0 0-.1 0 .1.1 0 0 0 0 .2Zm7 3h-1.2a.1.1 0 0 0-.1 0 .1.1 0 0 0 0 .2H54a.1.1 0 0 0 0-.2Zm0 .9h-1.2a.1.1 0 0 0-.1 0 .1.1 0 0 0 0 .1H54a.1.1 0 0 0 0-.1Zm0 .9h-1.2a.1.1 0 0 0-.1 0 .1.1 0 0 0 0 .2H54a.1.1 0 0 0 0-.1.1.1 0 0 0 0-.1Zm0 1h-1.2a.1.1 0 0 0-.1 0 .1.1 0 0 0 0 .1H54a.1.1 0 0 0 0-.2Zm0 .8h-1.2a.1.1 0 0 0-.1 0 .1.1 0 0 0 0 .2H54a.1.1 0 0 0 0-.1Zm0 1h-1.2a.1.1 0 0 0-.1 0 .1.1 0 0 0 0 .1H54a.1.1 0 0 0 0-.1Zm0 .9h-1.2a.1.1 0 0 0-.1 0 .1.1 0 0 0 0 .2H54a.1.1 0 0 0 0-.1.1.1 0 0 0 0-.1Zm0 .9h-1.2a.1.1 0 0 0-.1 0 .1.1 0 0 0 0 .2H54a.1.1 0 0 0 0-.2ZM52.7 59a.1.1 0 0 0 0 .1H54a.1.1 0 0 0 0-.2h-1.3a.1.1 0 0 0-.1 0v.1Zm1.4.8h-1.3a.1.1 0 0 0-.1 0 .1.1 0 0 0 0 .2H54a.1.1 0 0 0 0-.1Zm0 1h-1.3a.1.1 0 0 0-.1 0 .1.1 0 0 0 0 .1H54a.1.1 0 0 0 0-.1Zm0 .9h-1.3a.1.1 0 0 0-.1 0 .1.1 0 0 0 0 .2H54a.1.1 0 0 0 0-.2ZM47 65.2h1.3a.1.1 0 0 0 .1-.1.1.1 0 0 0 0-.1H47a.1.1 0 0 0-.1 0 .1.1 0 0 0 0 .2Zm0 .9h1.3a.1.1 0 0 0 .1-.1.1.1 0 0 0 0-.1H47a.1.1 0 0 0-.1 0 .1.1 0 0 0 0 .1Zm1.4.8v-.1H47a.1.1 0 0 0-.1 0 .1.1 0 0 0 0 .2h1.4a.1.1 0 0 0 .1-.1ZM53 47.8h-1.3a.1.1 0 0 0-.1 0 .1.1 0 0 0 0 .2H53a.1.1 0 0 0 .1 0 .1.1 0 0 0 0-.1.1.1 0 0 0 0-.1Zm0 .9h-1.3a.1.1 0 0 0 0 .2H53a.1.1 0 0 0 .1 0 .1.1 0 0 0 0-.1.1.1 0 0 0 0-.1Zm0 .9h-1.3a.1.1 0 1 0 0 .2H53a.1.1 0 0 0 .1 0 .1.1 0 0 0 0-.2Zm0 1h-1.3a.1.1 0 0 0 0 .1H53a.1.1 0 0 0 .1 0 .1.1 0 0 0 0-.1Zm0 .8h-1.3a.1.1 0 0 0-.1.2H53a.1.1 0 0 0 .1 0 .1.1 0 0 0 0-.1Zm0 1h-1.3a.1.1 0 1 0 0 .2H53a.1.1 0 0 0 .1 0 .1.1 0 0 0 0-.2Zm0 .9h-1.3a.1.1 0 1 0 0 .2H53a.1.1 0 0 0 .1 0 .1.1 0 0 0 0-.2Zm0 .9h-1.3a.1.1 0 0 0-.1.1v.1H53a.1.1 0 0 0 .1 0 .1.1 0 0 0 0-.2Zm0 1h-1.3a.1.1 0 0 0-.1.2H53a.1.1 0 0 0 .1 0 .1.1 0 0 0 0-.2Zm0 1h-1.3a.1.1 0 0 0-.1 0 .1.1 0 0 0 0 .2H53a.1.1 0 0 0 .1-.1.1.1 0 0 0 0-.1Zm-5.2-22.5h1.4a.1.1 0 0 0 0-.1h-1.4a.1.1 0 0 0 0 .1Zm0 1h1.4a.1.1 0 0 0 0-.1.1.1 0 0 0 0-.1h-1.4a.1.1 0 0 0 0 .2Zm0 1h1.4a.1.1 0 0 0 0-.1.1.1 0 0 0 0-.2h-1.4a.1.1 0 0 0 0 .1.1.1 0 0 0 0 .1Zm0 .9h1.4a.1.1 0 0 0 0-.2h-1.4a.1.1 0 0 0 0 .1Zm0 1h1.4a.1.1 0 0 0 0-.2h-1.4a.1.1 0 0 0 0 .1Zm0 .9h1.4a.1.1 0 0 0 0-.2h-1.4a.1.1 0 0 0 0 .1Zm0 1h1.4a.1.1 0 0 0 0-.1.1.1 0 0 0 0-.2h-1.4a.1.1 0 0 0 0 .2Zm0 .9h1.4a.1.1 0 0 0 0-.2h-1.4a.1.1 0 0 0 0 .2Zm0 1h1.4a.1.1 0 0 0 0-.1.1.1 0 0 0 0-.1h-1.4a.1.1 0 0 0 0 .1Zm0 .9h1.4a.1.1 0 0 0 0-.2h-1.4a.1.1 0 0 0 0 .1Zm0 1h1.4a.1.1 0 0 0 0-.1.1.1 0 0 0 0-.2h-1.4a.1.1 0 0 0 0 .2Zm0 .9h1.4a.1.1 0 0 0 0-.2h-1.4a.1.1 0 0 0 0 .1Zm0 1h1.4a.1.1 0 0 0 0-.1.1.1 0 0 0 0-.2h-1.4a.1.1 0 0 0 0 .2Zm0 2.8h1.4a.1.1 0 0 0 0-.1.1.1 0 0 0 0-.1h-1.4a.1.1 0 0 0 0 .2Zm0 .9h1.4a.1.1 0 0 0 0-.1.1.1 0 0 0 0-.1h-1.4a.1.1 0 0 0 0 .2Zm0 1h1.4a.1.1 0 0 0 0-.2.1.1 0 0 0 0-.1h-1.4a.1.1 0 0 0 0 .1.1.1 0 0 0 0 .1Zm0 .8h1.4a.1.1 0 0 0 0-.1h-1.4a.1.1 0 0 0 0 .1Zm1.5.8a.1.1 0 0 0-.1 0h-1.4a.1.1 0 0 0 0 .1h1.4Zm2.4-18h-1.3a.1.1 0 0 0-.1.1.1.1 0 0 0 0 .1.1.1 0 0 0 .1 0h1.3a.1.1 0 0 0 .1 0 .1.1 0 0 0 0-.1Zm0 1h-1.3a.1.1 0 0 0 0 .2h1.3a.1.1 0 0 0 .1 0 .1.1 0 0 0 0-.2Zm0 1h-1.3a.1.1 0 0 0-.1 0 .1.1 0 0 0 0 .1h1.4a.1.1 0 0 0 .1 0 .1.1 0 0 0 0-.1Zm0 .9h-1.3a.1.1 0 0 0-.1 0 .1.1 0 0 0 0 .2.1.1 0 0 0 .1 0h1.3a.1.1 0 0 0 .1 0 .1.1 0 0 0 0-.2Zm0 1h-1.3a.1.1 0 0 0 0 .1h1.3a.1.1 0 0 0 .1 0 .1.1 0 0 0 0-.1Zm0 .9h-1.3a.1.1 0 0 0-.1 0 .1.1 0 0 0 0 .2.1.1 0 0 0 .1 0h1.3a.1.1 0 0 0 .1 0 .1.1 0 0 0 0-.2Zm0 1h-1.3a.1.1 0 0 0 0 .1h1.3a.1.1 0 0 0 .1 0 .1.1 0 0 0 0-.1Zm-.1 2H53a.1.1 0 0 0 .1 0 .1.1 0 0 0 0-.1h-1.4a.1.1 0 0 0-.1 0Zm1.4.8h-1.3a.1.1 0 1 0 0 .2H53a.1.1 0 0 0 .1 0 .1.1 0 0 0 0-.2Zm0 1h-1.3a.1.1 0 0 0-.1 0 .1.1 0 0 0 0 .1H53a.1.1 0 0 0 .1 0 .1.1 0 0 0 0-.1Zm0 .9h-1.3a.1.1 0 0 0-.1.1H53a.1.1 0 0 0 .1 0 .1.1 0 0 0 0-.1Zm0 1h-1.3a.1.1 0 1 0 0 .1H53a.1.1 0 0 0 .1 0 .1.1 0 0 0 0-.2Zm-2.6-16h1.3a.1.1 0 0 0 .1 0 .1.1 0 0 0 0-.1.1.1 0 0 0 0-.1h-1.4a.1.1 0 0 0 0 .2Zm0 1h1.3a.1.1 0 0 0 .1-.1.1.1 0 0 0 0-.1h-1.4a.1.1 0 0 0 0 .1Zm0 .9h1.3a.1.1 0 0 0 .1 0 .1.1 0 0 0 0-.2h-1.4a.1.1 0 0 0-.1 0 .1.1 0 0 0 .1.2Zm-.4-5.7h1.3a.1.1 0 0 0 .1 0 .1.1 0 0 0 0-.1.1.1 0 0 0 0-.1H50a.1.1 0 0 0-.1 0 .1.1 0 0 0 0 .2Zm0 1h1.3a.1.1 0 0 0 .1-.2H50a.1.1 0 0 0-.1 0 .1.1 0 0 0 0 .1Zm0 1h1.3V27a.1.1 0 0 0 0-.2H50a.1.1 0 0 0-.1 0 .1.1 0 0 0 0 .1v.1Zm.3-5h1a.1.1 0 0 0 0-.1.1.1 0 0 0 0-.1h-1a.1.1 0 0 0 0 .1Zm0 .9h1a.1.1 0 0 0 0-.2h-1a.1.1 0 0 0 0 .2Zm0-2.9h1a.1.1 0 0 0 0-.1H50a.1.1 0 0 0 0 .1Zm0 1h1a.1.1 0 0 0 0-.2h-1a.1.1 0 0 0-.1 0 .1.1 0 0 0 0 .1Zm0-2.9h1a.1.1 0 0 0 0-.2h-1a.1.1 0 0 0-.1 0 .1.1 0 0 0 0 .1.1.1 0 0 0 0 .1Zm0 1h1a.1.1 0 0 0 0-.1.1.1 0 0 0 0-.1h-1a.1.1 0 0 0 0 .2Zm0-3h1a.1.1 0 0 0 0-.1h-1a.1.1 0 0 0 0 .2Zm0 1h1v-.1h-1a.1.1 0 1 0 0 .1Zm-.3 6.8h1.3a.1.1 0 0 0 .1 0 .1.1 0 0 0 0-.2H50a.1.1 0 0 0-.1 0 .1.1 0 0 0 0 .2Zm10.5 72v3.8a.1.1 0 0 1-.1.1H40a.1.1 0 0 1-.1-.1V96h1v-1a.1.1 0 0 1 .1-.1h2.6V81.4a.1.1 0 0 1 0-.1H45V68h1.3V52.2a.1.1 0 0 1 0-.1h.8V31.7a.1.1 0 0 1 0-.1.1.1 0 0 1 .1 0h1.6v-9.2a.1.1 0 0 1 .1 0h.8V15h.5V8.7l.3-.3v-3a.1.1 0 0 1 .1 0v-.1h.3V.1a.1.1 0 0 1 .2 0v5.2h.2a.1.1 0 0 1 0 .1v7.4l.5.4v11.3h.6V40h1.2a.1.1 0 0 1 .1 0v17.4h1a.1.1 0 0 1 .1 0v15h.9a.1.1 0 0 1 0 .1v12.1h1.1a.1.1 0 0 1 .1 0 .1.1 0 0 1 0 .1v10.2h2.4a.1.1 0 0 1 .1 0v1h1a.1.1 0 0 1 0 .1ZM54 94.8v-5h-1v5h1Zm-1.2 0v-5H52v5h.8Zm-1 0v-5H51v5h.8Zm-1 0v-5h-1.1v5h1Zm-1.3 0v-5h-.7v5h.7Zm-.9 0v-5h-1v5h1Zm-1.2 0v-5h-1.1v5h1Zm4.7-67h-2.4v3.7h2.4v-3.7Zm-2.4 4.3h2.4v-.4h-2.4v.4Zm0 .2v.4h2.4v-.4h-2.4Zm-.2.6h-2.4v12.7h2.4V33Zm3.8 13.5H51v.4h2.3v-.4Zm0-.6H51v.4h2.3V46Zm-2.5 0h-1.1v.4h1V46Zm-1.3 0h-2.4v.4h2.4V46Zm0-13.5h-2.4v.4h2.4v-.4Zm-2.4 14.5h2.4v-.4h-2.4v.4Zm2.6 0h1v-.4h-1v.4Zm0 .2v15.7h1V47.1h-1Zm0 16v.3h1V63h-1Zm-.9 26.6h.7v-.4h-.7v.4Zm-.2-.4h-1v.4h1v-.4Zm1-25v12H51v-12h-1.1ZM51 64v-.5h-1.1v.5h1Zm-1.1 12.5v.4h1v-.4h-1Zm0 .6v.4h1v-.4h-1Zm0 11.5v.4h1v-.4h-1Zm1-.2V77.8h-1v10.7h1Zm.3.6h.8v-.4h-.8v.4Zm.8-.6V77.8h-.8v10.7h.8Zm0-10.9v-.4h-.8v.4h.8Zm-2.3-.4H49v.4h.7v-.4Zm-.7.6v10.7h.7V77.8H49Zm0 10.9v.4h.7v-.4H49Zm.9 1h1v-.4h-1v.4Zm1.3 0h.8v-.4h-.8v.4Zm1 0h.8v-.4h-.8v.4Zm1 0h1v-.4h-1v.4Zm1.2 0h2.3v-.4h-2.3v.4Zm2.3-1h-2.3v.4h2.3v-.4Zm-2.5 0h-1v.4h1v-.4Zm-1.2 0h-.8v.4h.8v-.4Zm0-.2V77.8h-.8v10.7h.8Zm0-10.9v-.4h-.8v.4h.8Zm.2 0h2.4v-.4H53v.4Zm2.4-1H53v.4h2.4v-.4Zm-2.6 0h-.8v.4h.8v-.4Zm-1 0h-.8v.4h.8v-.4Zm0-.2v-12h-.8v12h.8ZM52 64v-.5h-.8v.5h.8Zm.2 0h2.4v-.5h-2.4v.5Zm2.4-1h-2.4v.3h2.4V63ZM52 63h-.8v.3h.8V63Zm-2.3 0H49v.3h.7V63Zm-.9 0h-2.3v.3h2.3V63Zm-2.3 1h2.3v-.5h-2.3v.5Zm2.5 0h.7v-.5H49v.5Zm0 .2v12h.7v-12H49Zm0 12.3v.4h.7v-.4H49Zm-.2 0h-1v.4h1v-.4Zm-1.3 0h-2.3v.4h2.4v-.4Zm-2.3 1h2.4v-.4H45v.4Zm2.6 0h1v-.4h-1v.4Zm0 .2v10.7h1V77.8h-1Zm0 10.9v.4h1v-.4h-1Zm-.3 0h-1v.4h1v-.4Zm-1.2 0h-2.4v.4h2.4v-.4Zm-2.4 1h2.4v-.4h-2.4v.4Zm2.6 0h1v-.4h-1v.4Zm7.9 5.2h2.3v-5h-2.3v5Zm2.3-10.1h-2.3v3.7h2.3v-3.7Zm-1.1-.2v-6.8H53v10.7h1v-3.9h1.4Zm0-12H53v3.8h2.4v-3.8Zm-1-.2v-8.1h-2.4v12h.8v-3.8l.1-.1h1.5Zm0-14.8h-2.4v5.2h2.4v-5.2Zm-1-.2V47.1H51v15.7h.8v-5.3h1.5Zm0-17.2H51v5.5h2.3v-5.5Zm-1.3-.2v-7h-2.4v12.7h1V40a.1.1 0 0 1 .2-.1h1.2Zm-1.9-25h1.2v-1.7l-.4-.4V5.4h-.5v3.2l-.3.2V15ZM49 31.6h.7v-3.8a.1.1 0 0 1 0-.1h2.6v-3h-.6a.1.1 0 0 1 0-.1v-9.4h-1.8v7.2a.1.1 0 0 1-.1.1H49v9Zm-1.7.2v.4h2.4v-.4h-2.4Zm0 20.4h1.6a.1.1 0 0 1 .1 0v10.6h.7V47.1h-2.4v5Zm-.8.2v10.4h2.3V52.4h-2.3Zm0 15.5h1.2a.1.1 0 0 1 0 .1v8.4h1.1V64.3h-2.3v3.6Zm-1.3.2v8.3h2.4V68H45Zm0 13.2h1.2v7.2h1.2V77.8H45v3.5Zm-1.3.2v7h2.4v-7h-2.4Zm0 13.4h2.4v-5h-2.4v5Zm-2.7 1h6.4v-.1a.1.1 0 0 1 0-.1h4.6a.1.1 0 0 1 .1 0v.2h6.9v-.8h-18v.8Zm9.1 3v.9h1.4v-1h-1.4Zm1.5-.3h.3V96h-4.3v2.7h4Zm-3.6.2v1h1.5v-1H48Zm-8 1h7.4v-3.7H40v3.7Zm7.8 0v-1h-.2v1h.2Zm2.1 0v-1h-.2v1h.2Zm2 0v-1h-.2v1h.2Zm8.2-3.7h-8v3.7h8v-3.7Zm-19.5.8h6.1a.1.1 0 0 0 .1 0 .1.1 0 0 0-.1-.2h-6.1a.1.1 0 0 0-.1.2Zm6.1.6h-6.1a.1.1 0 0 0-.1 0 .1.1 0 0 0 0 .2h6.2a.1.1 0 0 0 .1 0 .1.1 0 0 0-.1-.2Zm0 .7h-6.1a.1.1 0 0 0-.1.2h6.2a.1.1 0 0 0 .1 0 .1.1 0 0 0-.1-.2Zm6.3-1.5a.1.1 0 0 0-.1 0 .1.1 0 0 0 0 .1.1.1 0 0 0 0 .1h6.2a.1.1 0 0 0 .1 0 .1.1 0 0 0 0-.1.1.1 0 0 0-.1 0h-6.1Zm6.1.8h-6.1a.1.1 0 0 0-.1 0 .1.1 0 0 0 0 .2h6.2a.1.1 0 0 0 .1-.1.1.1 0 0 0-.1-.1Zm0 .7h-6.1a.1.1 0 0 0-.1 0 .1.1 0 0 0 0 .2h6.2a.1.1 0 0 0 .1 0 .1.1 0 0 0 0-.1h-.1Z"/>
    </g>
  </g>
  <mask id="c" width="90" height="13" x="6" y="86" fill="#000" maskUnits="userSpaceOnUse">
    <path fill="#fff" d="M6 86h90v13H6z"/>
    <path d="M8 97v-8.7h3.7c.6 0 1.2 0 1.6.2.5.2.8.5 1 .8.2.4.3.7.3 1.2 0 .3 0 .6-.2.9l-.5.6-.9.4c.4 0 .7.2 1 .3l.7.8c.2.3.3.6.3 1a2.3 2.3 0 0 1-1.4 2.2c-.5.2-1 .3-1.7.3H8Zm2.1-1.7h1.3c.5 0 .8 0 1-.3.3-.1.4-.4.4-.7 0-.2 0-.4-.2-.6a1 1 0 0 0-.4-.3l-.7-.2H10v2.1Zm0-3.4h1.2c.2 0 .4 0 .6-.2.2 0 .3-.1.4-.3l.2-.5a1 1 0 0 0-.3-.7c-.2-.2-.5-.3-.9-.3h-1.2v2Zm11.2-3.6h2v5.6a3 3 0 0 1-.4 1.7 3 3 0 0 1-1.3 1.1 4 4 0 0 1-2 .4c-.6 0-1.3-.1-1.9-.4a3 3 0 0 1-1.2-1.1c-.3-.5-.5-1-.5-1.7v-5.6h2.1v5.4c0 .3 0 .6.2.8.1.3.3.4.6.6l.8.2c.3 0 .6 0 .8-.2l.6-.6.2-.8v-5.4Zm3.4 8.7v-8.7h3.6c.7 0 1.2 0 1.7.3s.8.6 1.1 1c.3.5.4 1 .4 1.6 0 .6-.1 1.1-.4 1.5-.3.4-.6.8-1.1 1-.5.2-1 .3-1.8.3H26v-1.6h1.9c.3 0 .5 0 .8-.2.2 0 .3-.2.4-.4.2-.1.2-.4.2-.6 0-.3 0-.5-.2-.7a1 1 0 0 0-.4-.4 2 2 0 0 0-.8-.1h-1v7h-2.2Zm5-4 2 4h-2.2l-2.1-4h2.2Zm6.5-4.7h2v6c0 .6 0 1-.3 1.5l-1.1 1c-.5.2-1 .3-1.7.3-.5 0-1 0-1.5-.3-.4-.2-.7-.5-1-.9-.3-.4-.4-.9-.4-1.5h2.1l.1.6c.1.1.2.3.4.3l.5.2c.2 0 .3 0 .5-.2l.3-.4.1-.6v-6Zm6 8.7v-8.7h2V92h.2l2.9-3.7h2.5l-3.1 3.9 3.1 4.8h-2.5l-2.2-3.4-.8 1V97h-2.1Zm8.4 0v-8.7h2.1v3.5h3.5v-3.5h2V97h-2v-3.5h-3.5V97h-2.1Zm10.9 0h-2.3l3-8.7H65l2.9 8.7h-2.3l-2-6.5-2.1 6.5Zm-.3-3.4h4.7v1.6h-4.7v-1.6Zm7.6 3.4v-8.7H71v7h3.7V97h-5.8Zm9-8.7V97h-2.1v-8.7h2ZM79 97v-8.7h6V90h-3.9v1.8h3.5v1.7h-3.5V97H79Zm7.8 0h-2.2l2.9-8.7h2.8l3 8.7H91l-2-6.5-2 6.5Zm-.3-3.4h4.8v1.6h-4.8v-1.6Z"/>
  </mask>
  <path fill="#000" d="M8 97v-8.7h3.7c.6 0 1.2 0 1.6.2.5.2.8.5 1 .8.2.4.3.7.3 1.2 0 .3 0 .6-.2.9l-.5.6-.9.4c.4 0 .7.2 1 .3l.7.8c.2.3.3.6.3 1a2.3 2.3 0 0 1-1.4 2.2c-.5.2-1 .3-1.7.3H8Zm2.1-1.7h1.3c.5 0 .8 0 1-.3.3-.1.4-.4.4-.7 0-.2 0-.4-.2-.6a1 1 0 0 0-.4-.3l-.7-.2H10v2.1Zm0-3.4h1.2c.2 0 .4 0 .6-.2.2 0 .3-.1.4-.3l.2-.5a1 1 0 0 0-.3-.7c-.2-.2-.5-.3-.9-.3h-1.2v2Zm11.2-3.6h2v5.6a3 3 0 0 1-.4 1.7 3 3 0 0 1-1.3 1.1 4 4 0 0 1-2 .4c-.6 0-1.3-.1-1.9-.4a3 3 0 0 1-1.2-1.1c-.3-.5-.5-1-.5-1.7v-5.6h2.1v5.4c0 .3 0 .6.2.8.1.3.3.4.6.6l.8.2c.3 0 .6 0 .8-.2l.6-.6.2-.8v-5.4Zm3.4 8.7v-8.7h3.6c.7 0 1.2 0 1.7.3s.8.6 1.1 1c.3.5.4 1 .4 1.6 0 .6-.1 1.1-.4 1.5-.3.4-.6.8-1.1 1-.5.2-1 .3-1.8.3H26v-1.6h1.9c.3 0 .5 0 .8-.2.2 0 .3-.2.4-.4.2-.1.2-.4.2-.6 0-.3 0-.5-.2-.7a1 1 0 0 0-.4-.4 2 2 0 0 0-.8-.1h-1v7h-2.2Zm5-4 2 4h-2.2l-2.1-4h2.2Zm6.5-4.7h2v6c0 .6 0 1-.3 1.5l-1.1 1c-.5.2-1 .3-1.7.3-.5 0-1 0-1.5-.3-.4-.2-.7-.5-1-.9-.3-.4-.4-.9-.4-1.5h2.1l.1.6c.1.1.2.3.4.3l.5.2c.2 0 .3 0 .5-.2l.3-.4.1-.6v-6Zm6 8.7v-8.7h2V92h.2l2.9-3.7h2.5l-3.1 3.9 3.1 4.8h-2.5l-2.2-3.4-.8 1V97h-2.1Zm8.4 0v-8.7h2.1v3.5h3.5v-3.5h2V97h-2v-3.5h-3.5V97h-2.1Zm10.9 0h-2.3l3-8.7H65l2.9 8.7h-2.3l-2-6.5-2.1 6.5Zm-.3-3.4h4.7v1.6h-4.7v-1.6Zm7.6 3.4v-8.7H71v7h3.7V97h-5.8Zm9-8.7V97h-2.1v-8.7h2ZM79 97v-8.7h6V90h-3.9v1.8h3.5v1.7h-3.5V97H79Zm7.8 0h-2.2l2.9-8.7h2.8l3 8.7H91l-2-6.5-2 6.5Zm-.3-3.4h4.8v1.6h-4.8v-1.6Z"/>
  <path fill="#fff" d="M8 97H6.5v1.5H8V97Zm0-8.7v-1.5H6.5v1.5H8Zm5.3.2-.6 1.4.6-1.4Zm1 .8-1.2.9 1.2-.9Zm.1 2 1.4.8-1.4-.7Zm-.5.7-.9-1.2.9 1.2Zm-.9.4-.3-1.5-1.2.3v1.2H13Zm0 0h-1.5V94H13l.1-1.4Zm1 .3-.8 1.3.8-1.3Zm.7.8-1.3.7 1.3-.7Zm0 2.3 1.2.8-1.3-.8Zm-1.1.9.6 1.3-.6-1.3ZM10 95.3H8.6v1.5h1.5v-1.5Zm2.4-.3-1-1.1 1 1.1Zm.1-1.3-1.2.8 1.2-.8Zm-.4-.3-.7 1.3.7-1.3Zm-2-.2v-1.5H8.5v1.5H10Zm0-1.3H8.5v1.5H10v-1.5Zm2.1-.5-1.2-.9 1.2 1Zm-.1-1.2 1-1.2-1 1.2Zm-2-.3v-1.5H8.5V90H10ZM9.4 97v-8.7h-3V97h3ZM8 89.8h3.7v-3H8v3Zm3.7 0 1 .1 1.2-2.7c-.7-.3-1.4-.4-2.2-.4v3Zm1 .1.4.3 2.5-1.7c-.5-.6-1-1-1.7-1.3l-1.2 2.7Zm.4.3v.3h3a3 3 0 0 0-.6-2l-2.4 1.7Zm0 .3v.2l2.7 1.4c.2-.5.3-1 .3-1.6h-3Zm0 .2H13l1.7 2.5c.5-.3.8-.6 1-1.1l-2.6-1.4Zm-.1 0-.3.2.6 3 1.4-.7-1.7-2.4Zm-1.5 1.7h3-3ZM13 94h.3l1.5-2.6a3 3 0 0 0-1.6-.4l-.2 3Zm.3 0 .2.2 2.6-1.5c-.3-.5-.7-1-1.3-1.3L13.2 94Zm.2.2v.4h3c0-.7 0-1.3-.4-1.9l-2.6 1.5Zm0 .4v.4l2.5 1.6c.4-.6.6-1.3.6-2h-3Zm0 .4-.4.3 1.2 2.7a4 4 0 0 0 1.7-1.4L13.4 95Zm-.4.3-1 .2v3c.7 0 1.5-.1 2.2-.5L13 95.3Zm-1 .2H8v3h4v-3ZM10 96.8h1.3v-3H10v3Zm1.3 0a3 3 0 0 0 2-.6L11.5 94l.2-.1h-.3v3Zm2-.6c.6-.5.9-1.2.9-1.9h-3v-.2l.2-.2 1.9 2.3Zm.9-1.9c0-.5-.1-1-.4-1.4l-2.5 1.7-.1-.2h3Zm-.4-1.4-1.1-1-1.2 2.8h-.1l-.1-.2 2.5-1.6Zm-1-.9-1.4-.3v3l1.3-2.7Zm-1.4-.3H10v3h1.4v-3Zm-2.9 1.5v2.1h3v-2h-3Zm1.5.2h1.2v-3H10v3Zm1.2 0 1.2-.3-1.2-2.7v3Zm1.2-.3c.4-.2.8-.4 1-.8L11 90.6a.6.6 0 0 1 .2-.2l1.2 2.7Zm1-.8c.4-.5.5-1 .5-1.4h-3v-.1l.1-.3 2.5 1.8Zm.5-1.4c0-.7-.3-1.4-.9-1.9l-1.9 2.4a.7.7 0 0 1-.2-.5h3ZM13 89a3 3 0 0 0-1.8-.6v3c.1 0 .1 0 0 0L13 89Zm-1.8-.6H10v3h1.2v-3ZM8.6 90v2h3v-2h-3Zm12.7-1.6v-1.5h-1.5v1.5h1.5Zm2 0H25v-1.5h-1.5v1.5Zm-.4 7.3 1.3.8-1.3-.8Zm-1.3 1.1.7 1.4-.7-1.4Zm-3.9 0-.6 1.4.6-1.4Zm-1.2-1.1-1.3.8 1.3-.8Zm-.5-7.3v-1.5h-1.5v1.5H16Zm2.1 0h1.5v-1.5h-1.5v1.5Zm.2 6.2-1.3.8 1.3-.8Zm.6.6.7-1.3-.7 1.3Zm1.6 0-.7-1.3.7 1.3Zm.8-5.3h2v-3h-2v3Zm.6-1.5V94h3v-5.6h-3Zm0 5.6-.2.9 2.5 1.6c.5-.7.7-1.6.7-2.5h-3Zm-.2.9-.7.6 1.3 2.7c.8-.4 1.4-1 1.9-1.7l-2.5-1.6Zm-.7.6a3 3 0 0 1-1.3.2v3a6 6 0 0 0 2.6-.5L21 95.4Zm-1.3.2a3 3 0 0 1-1.3-.2L17 98a6 6 0 0 0 2.6.5v-3Zm-1.3-.2-.7-.6-2.5 1.6c.5.7 1.1 1.3 1.9 1.7l1.3-2.7Zm-.7-.6-.2-.9h-3c0 .9.2 1.8.7 2.5l2.5-1.6Zm-.2-.9v-5.6h-3V94h3ZM16 89.8h2.1v-3H16v3Zm.6-1.5v5.4h3v-5.4h-3Zm0 5.4c0 .5.1 1 .4 1.6l2.6-1.5h-3Zm.4 1.6c.3.4.7.8 1.1 1l1.5-2.5-2.6 1.5Zm1.1 1c.5.4 1 .5 1.6.5v-3h-.1L18 96.4Zm1.6.5c.5 0 1-.1 1.6-.4l-1.5-2.6h-.1v3Zm1.6-.4a3 3 0 0 0 1-1.1l-2.5-1.5 1.5 2.6Zm1-1.1c.4-.5.5-1 .5-1.6h-3l2.6 1.6Zm.5-1.6v-5.4h-3v5.4h3Zm2 3.3h-1.6v1.5h1.5V97Zm0-8.7v-1.5h-1.6v1.5h1.5Zm5.2.3-.7 1.4.7-1.4Zm1.1 1-1.3.8 1.3-.8Zm0 3.1 1.3.8-1.3-.8Zm-1.1 1 .6 1.4-.6-1.4Zm-4 .3h-1.5v1.5H26V94Zm0-1.6v-1.5h-1.5v1.5H26Zm2.7-.2.5 1.4-.5-1.4Zm.4-.4 1.3.9-1.3-.9Zm0-1.3-1.2.8 1.2-.8Zm-.4-.4-.6 1.4.6-1.4Zm-1.9-.1v-1.5h-1.5V90h1.5Zm0 7v1.5h1.5V97h-1.5Zm2.8-4 1.3-.7-.4-.8h-.9V93Zm2.2 4v1.5h2.5l-1.2-2.2-1.3.7Zm-2.3 0-1.3.7.4.8h.9V97Zm-2.1-4v-1.5h-2.5l1.1 2.2 1.4-.7Zm-1.2 4v-8.7h-3V97h3Zm-1.5-7.2h3.6v-3h-3.6v3Zm3.6 0c.5 0 .8 0 1 .2l1.4-2.7c-.8-.4-1.6-.5-2.4-.5v3Zm1 .2c.3 0 .4.2.5.4l2.6-1.5a4 4 0 0 0-1.7-1.6L29.3 90Zm.5.4.2.8h3c0-.8-.2-1.6-.6-2.3l-2.6 1.5Zm.2.8c0 .4 0 .6-.2.7l2.6 1.6c.4-.7.6-1.5.6-2.3h-3Zm-.2.7a1 1 0 0 1-.4.4l1.2 2.7a4 4 0 0 0 1.8-1.5L29.8 92Zm-.4.4-1.2.2v3a6 6 0 0 0 2.4-.4l-1.2-2.8Zm-1.2.2H26v3h2.2v-3Zm-.7 1.5v-1.6h-3V94h3ZM26 94h1.9v-3h-2v3Zm1.9 0a3 3 0 0 0 1.3-.3l-1-2.8h-.4v3Zm1.3-.3c.5-.2.9-.5 1.2-1L27.9 91l.1-.1h.1l1.1 2.7Zm1.2-1c.3-.4.4-1 .4-1.4h-3V91l2.6 1.7Zm.4-1.4c0-.5 0-1-.4-1.5L28 91.3c-.1-.1 0-.2 0-.1h3Zm-.4-1.5c-.3-.5-.7-.8-1.2-1l-1.1 2.8H28l-.1-.2 2.5-1.6Zm-1.2-1c-.4-.2-.9-.2-1.3-.2v3h.2l1.1-2.8Zm-1.3-.2h-1v3h1v-3ZM25.3 90v7h3v-7h-3Zm1.5 5.5h-2v3h2v-3Zm1.5-1.8 2.2 4 2.6-1.4-2.2-4-2.6 1.4Zm3.5 1.8h-2.3v3h2.3v-3Zm-1 .8-2.1-4-2.7 1.4 2.2 4 2.6-1.4Zm-3.4-1.8h2.2v-3h-2.2v3Zm8.8-6.2v-1.5h-1.5v1.5h1.5Zm2 0h1.6v-1.5h-1.5v1.5Zm0 6h1.6-1.5Zm-.3 1.5 1.2.8-1.2-.8Zm-1.1 1-.7-1.4.7 1.4Zm-3.2 0-.5 1.4.5-1.4Zm-1-.9-1.3.9 1.3-.9Zm-.4-1.5V93h-1.5v1.5h1.5Zm2.1 0h1.5v-1.5h-1.5v1.5Zm.1.6-1.3.6 1.3-.6Zm.4.3.7-1.3-.7 1.3Zm1 0 .7 1.3-.7-1.3Zm.3-.4-1.4-.6 1.4.6Zm.1-.6h1.5-1.5Zm0-4.5h2v-3h-2v3Zm.6-1.5v6h3v-6h-3Zm0 6-.2.7 2.5 1.6c.5-.7.7-1.5.7-2.3h-3Zm-.2.7-.5.4 1.3 2.7c.7-.3 1.3-.8 1.7-1.5L36.6 95Zm-.5.4-1 .2v3c.8 0 1.6-.1 2.3-.5l-1.3-2.7Zm-1 .2-.9-.1-1.1 2.7c.6.3 1.3.4 2 .4v-3Zm-.9-.1a.9.9 0 0 1-.4-.4l-2.5 1.7c.5.6 1 1.1 1.8 1.4l1.1-2.7Zm-.4-.4-.1-.7h-3c0 .8.2 1.7.6 2.4l2.5-1.7Zm-1.6.8h2.1v-3h-2.1v3Zm.6-1.4c0 .3 0 .7.3 1.1l2.7-1.3v.1h-3Zm.3 1.2c.2.4.5.7 1 1l1.4-2.7a.7.7 0 0 1 .3.3L33 95.7Zm1 1c.3.2.8.3 1.2.3v-3h.2L34 96.6Zm1.2.3a2 2 0 0 0 1.2-.4L35 94.1l.3-.1v3Zm1.3-.4.9-1-2.8-1.2v-.2l.3-.1 1.6 2.5Zm.9-1 .2-1.3h-3c0 .1 0 0 0 0l2.8 1.2Zm.2-1.3v-6h-3v6h3Zm4.5 2.7h-1.5v1.5h1.5V97Zm0-8.7v-1.5h-1.5v1.5h1.5Zm2 0h1.6v-1.5h-1.5v1.5Zm0 3.7h-1.4v1.5h1.5V92Zm.2 0v1.5h.7l.5-.6-1.2-1Zm2.9-3.7v-1.5h-.7l-.5.5 1.2 1Zm2.5 0 1.1 1 2-2.5h-3.1v1.5Zm-3.1 3.9-1.2-1-.7.9.6.9 1.3-.8Zm3.1 4.8v1.5h2.8l-1.5-2.3-1.3.8Zm-2.5 0-1.3.8.5.7h.8V97Zm-2.2-3.4 1.3-.8-1.1-1.8-1.3 1.6 1.1 1Zm-.8 1-1.2-.9-.3.4v.5h1.5Zm0 2.4v1.5h1.5V97h-1.5Zm-.6 0v-8.7h-3V97h3Zm-1.5-7.2h2v-3h-2v3Zm.6-1.5V92h3v-3.7h-3Zm1.5 5.2h.1v-3h-.1v3Zm1.3-.6 2.9-3.7-2.4-1.9-2.9 3.7 2.4 1.9Zm1.7-3.1h2.5v-3h-2.5v3Zm1.3-2.5-3.1 4 2.4 1.8 3-3.9-2.3-1.9ZM45.4 93l3.2 4.8 2.5-1.6-3.2-4.9-2.5 1.7Zm4.4 2.5h-2.5v3h2.5v-3Zm-1.2.7-2.2-3.4-2.5 1.6 2.1 3.4 2.6-1.6ZM44 92.6l-.9 1.1 2.4 1.9.8-1.1-2.3-1.9Zm-1.2 2V97h3v-2.4h-3Zm1.5.9h-2.1v3h2v-3Zm6.3 1.5h-1.5v1.5h1.5V97Zm0-8.7v-1.5h-1.5v1.5h1.5Zm2.1 0h1.5v-1.5h-1.5v1.5Zm0 3.5h-1.5v1.5h1.5v-1.5Zm3.5 0v1.5h1.5v-1.5h-1.5Zm0-3.5v-1.5h-1.5v1.5h1.5Zm2 0h1.6v-1.5h-1.5v1.5Zm0 8.7v1.5h1.6V97h-1.5Zm-2 0h-1.5v1.5h1.5V97Zm0-3.5h1.5V92h-1.5v1.5Zm-3.5 0V92h-1.5v1.5h1.5Zm0 3.5v1.5h1.5V97h-1.5Zm-.6 0v-8.7h-3V97h3Zm-1.5-7.2h2.1v-3h-2.1v3Zm.6-1.5v3.5h3v-3.5h-3Zm1.5 5h3.5v-3h-3.5v3Zm5-1.5v-3.5h-3v3.5h3Zm-1.5-2h2v-3h-2v3Zm.6-1.5V97h3v-8.7h-3Zm1.5 7.2h-2.1v3h2v-3Zm-.6 1.5v-3.5h-3V97h3Zm-1.5-5h-3.5v3h3.5v-3Zm-5 1.5V97h3v-3.5h-3Zm1.5 2h-2.1v3h2.1v-3Zm8.8 1.5v1.5h1l.4-1-1.4-.5Zm-2.3 0-1.4-.5-.7 2h2.1V97Zm3-8.7v-1.5H61l-.4 1 1.4.5Zm2.8 0 1.4-.5-.4-1h-1v1.5Zm2.9 8.7v1.5h2l-.6-2-1.4.5Zm-2.3 0-1.4.4.3 1.1h1.1V97Zm-2-6.5L65 90l-.3-1h-1.1v1.5Zm0 0V89h-1.2l-.3 1 1.4.5Zm-2.4 3v-1.4h-1.5v1.5h1.5Zm4.7 0h1.5v-1.4h-1.5v1.5Zm0 1.7v1.5h1.5v-1.5h-1.5Zm-4.7 0h-1.5v1.5h1.5v-1.5Zm.3.3h-2.3v3h2.3v-3Zm-.9 2 3-8.7-2.9-1-3 8.7 3 1Zm1.5-7.7H65v-3h-3v3Zm1.4-1 3 8.7 2.8-1-3-8.7-2.8 1Zm4.4 6.7h-2.3v3H68v-3Zm-.8 1L65 90l-3 1 2.1 6.4 2.9-.8ZM63.6 89v3-3ZM62 90l-2 6.6 2.8.8 2-6.5L62 90Zm-1 5h5v-3h-4.7v3Zm3.3-1.4v1.6h3v-1.6h-3Zm1.5 0h-4.7v3h4.7v-3Zm-3.2 1.6v-1.6h-3v1.6h3Zm6.1 1.8h-1.5v1.5h1.5V97Zm0-8.7v-1.5h-1.5v1.5h1.5Zm2.1 0h1.5v-1.5H71v1.5Zm0 7h-1.5v1.5H71v-1.5Zm3.7 0H76v-1.5h-1.5v1.5Zm0 1.7v1.5H76V97h-1.5Zm-4.3 0v-8.7h-3V97h3Zm-1.5-7.2H71v-3h-2v3Zm.6-1.5v7h3v-7h-3Zm1.5 8.5h3.7v-3h-3.7v3Zm2.2-1.5V97h3v-1.7h-3Zm1.5.2h-5.8v3h5.8v-3Zm3.2-7.2h1.5v-1.5h-1.5v1.5Zm0 8.7v1.5h1.5V97h-1.5Zm-2.1 0h-1.5v1.5h1.5V97Zm0-8.7v-1.5h-1.5v1.5h1.5Zm.6 0V97h3v-8.7h-3Zm1.5 7.2h-2.1v3h2v-3Zm-.6 1.5v-8.7h-3V97h3Zm-1.5-7.2h2v-3h-2v3ZM79 97h-1.5v1.5H79V97Zm0-8.7v-1.5h-1.5v1.5H79Zm6 0h1.5v-1.5H85v1.5Zm0 1.7v1.5h1.5V90H85Zm-3.9 0v-1.5h-1.5V90h1.5Zm0 1.8h-1.5v1.5h1.5v-1.5Zm3.5 0h1.5v-1.5h-1.5v1.5Zm0 1.7V95h1.5v-1.5h-1.5Zm-3.5 0V92h-1.5v1.5h1.5Zm0 3.5v1.5h1.5V97h-1.5Zm-.6 0v-8.7h-3V97h3ZM79 89.8h6v-3h-6v3Zm4.5-1.5V90h3v-1.7h-3Zm1.5.2h-3.9v3H85v-3ZM79.7 90v1.8h3V90h-3Zm1.5 3.3h3.5v-3h-3.5v3Zm2-1.5v1.7h3v-1.7h-3Zm1.5.2h-3.5v3h3.5v-3Zm-5 1.5V97h3v-3.5h-3Zm1.5 2h-2.1v3h2.1v-3ZM87 97v1.5h1l.4-1-1.5-.5Zm-2.2 0-1.5-.5-.6 2h2V97Zm2.9-8.7v-1.5h-1l-.4 1 1.4.5Zm2.8 0 1.4-.5-.3-1h-1v1.5Zm3 8.7v1.5h2l-.6-2-1.4.5ZM91 97l-1.4.4.3 1.1h1V97Zm-2-6.5 1.4-.5-.4-1h-1v1.5Zm-.1 0V89h-1.1l-.4 1 1.5.5Zm-2.4 3v-1.4H85v1.5h1.5Zm4.8 0h1.5v-1.4h-1.5v1.5Zm0 1.7v1.5h1.5v-1.5h-1.5Zm-4.8 0H85v1.5h1.5v-1.5Zm.3.3h-2.2v3h2.2v-3Zm-.8 2 3-8.7-3-1-2.9 8.7 2.9 1Zm1.5-7.7h2.8v-3h-2.8v3Zm1.4-1 3 8.7 2.8-1-3-8.7-2.8 1Zm4.4 6.7H91v3h2.3v-3Zm-.9 1-2-6.5-2.9 1 2 6.4 3-.8ZM89 89v3-3Zm-1.5 1-2 6.6 2.9.8 2-6.5-2.9-.9Zm-.9 5h4.8v-3h-4.8v3Zm3.3-1.4v1.6h3v-1.6h-3Zm1.5 0h-4.8v3h4.8v-3ZM88 95.3v-1.6h-3v1.6h3Z" mask="url(#c)"/>
  <defs>
    <clipPath id="a">
      <path fill="#fff" d="M22 0h56.3v100H22z"/>
    </clipPath>
  </defs>
</svg>
