<svg xmlns="http://www.w3.org/2000/svg" version="1.0" viewBox="0 0 75 75">
  <defs>
    <clipPath id="a">
      <path d="M20 27h52v30H20Zm0 0"/>
    </clipPath>
    <clipPath id="b">
      <path d="M25 55h3v2.8h-3Zm0 0"/>
    </clipPath>
    <clipPath id="c">
      <path d="M69 49h3v3h-3Zm0 0"/>
    </clipPath>
    <clipPath id="d">
      <path d="M69 52h3v3h-3Zm0 0"/>
    </clipPath>
    <clipPath id="e">
      <path d="M63 55h3v2.8h-3Zm0 0"/>
    </clipPath>
    <clipPath id="f">
      <path d="M37 55h2v2.8h-2Zm0 0"/>
    </clipPath>
    <clipPath id="g">
      <path d="M41 55h3v2.8h-3Zm0 0"/>
    </clipPath>
    <clipPath id="h">
      <path d="M54 55h2v2.8h-2Zm0 0"/>
    </clipPath>
    <clipPath id="i">
      <path d="M49 54h3v3.8h-3Zm0 0"/>
    </clipPath>
  </defs>
  <g clip-path="url(#a)">
    <path fill="#74a848" d="m61.6 53.3 2.5 2.4.8.7-1.1-.4c-2.7-.9-9.5-3.4-10.6-5.3l-.5-1a2 2 0 0 0-2.1-1.2l-4.6.2h-.2c-1.5 0-2.8 0-4-.2H41a2 2 0 0 0-2.1 1.2 9.2 9.2 0 0 1-.5 1c-1.1 1.9-8 4.4-10.7 5.4l-1 .3.8-.7 2.6-2.5c.1-.2 0-.4-.2-.4l-7.7.8-1.7.1 1.5-.5 5.8-1.7c.3 0 .2-.4 0-.4l-5.9-.6-1.3-.2H22a49 49 0 0 0 11.8-1.5c0-.5-5.5-5-9.2-9.8a22 22 0 0 1-2-3.2c-1-2.2-1.5-4.4-.6-6.2.3-.6.7-1 1.2-1.5a2 2 0 0 1 1.5-.6c5.8-.3 19.7 14.3 21.1 15.8a99 99 0 0 1 15.8-13.7 18 18 0 0 1 3.2-1.6 6 6 0 0 1 2.2-.4c.6 0 1.1.2 1.5.5.6.4 1 .9 1.2 1.4 1.9 3.8-2.5 10.6-7.5 14.7-.6.5-1.2 1-1.8 1.3l-1 1c-.8.8-1.5 1.7-1.5 2.3 0 .7 8 1.2 11.5 1.4l1.6.1-1.6.2-5.1.5c-.3 0-.3.5 0 .6l5.6 1.3 2 .4h-2.1l-8-.5c-.3 0-.4.3-.2.5"/>
  </g>
  <path fill="#74a848" d="M20 50.3c0-.4.4-.8 1-.8s1 .4 1 .8c0 .5-.4.8-1 .8s-1-.3-1-.8m.2 3.7c0-.5.3-1 .9-1 .6-.2 1 .1 1.2.5 0 .5-.3 1-1 1-.5.1-1-.1-1.1-.6"/>
  <g clip-path="url(#b)">
    <path fill="#74a848" d="M26 56.9c-.3-.4 0-1 .5-1.2.5-.3 1-.2 1.3.2.2.4 0 1-.6 1.2-.5.3-1 .2-1.3-.2"/>
  </g>
  <g clip-path="url(#c)">
    <path fill="#74a848" d="M71.5 50.3c0-.4-.5-.8-1-.8-.7 0-1.1.4-1.1.8 0 .5.4.8 1 .8s1-.3 1-.8"/>
  </g>
  <g clip-path="url(#d)">
    <path fill="#74a848" d="M71.9 53.5c0-.5-.4-.9-1-1-.5 0-1 .2-1 .7-.2.4.3.9.8 1 .6 0 1.1-.3 1.2-.7"/>
  </g>
  <g clip-path="url(#e)">
    <path fill="#74a848" d="M65.7 56.9c.2-.4 0-1-.5-1.2-.6-.3-1.1-.2-1.4.2-.2.4.1 1 .6 1.2.5.3 1.1.2 1.3-.2"/>
  </g>
  <path fill="#648e34" d="M41.7 48.5h-.6a2 2 0 0 0-2.1 1.2l-.3.5a1 1 0 0 1-.5-.5c-.3-.6.3-1.5 1.2-2 1-.3 2-.1 2.3.5v.3M31 36.4s-1.5-2.7-5.2-5.3c0 0 4.4 5 5.6 7l-.4-1.7"/>
  <path fill="#6e9e40" d="M36 48.9c-6.8-5.2-7.8-10.7-7.3-14.4l1.5 1.8a11.8 11.8 0 0 0 1.6 5.7l.7 1.1a27 27 0 0 1 3.5 5.5v.3m-5.8-13.6c-.3-.5-.8-1-1.4-1.6.5-2.5 1.5-4 1.5-4l1 .6a19.4 19.4 0 0 0-1 5"/>
  <path fill="#648e34" d="m30.2 36.3-1.5-1.8.1-.8 1.4 1.6v1"/>
  <path fill="#6e9e40" d="M57.1 48a32.8 32.8 0 0 1 4-6 11.2 11.2 0 0 0 1.6-6.4 16.2 16.2 0 0 0-1.3-5.8l.2-.2 1-.6s6.4 10-5.5 19"/>
  <path fill="#648e34" d="M61.3 36.4s1.6-2.7 5.3-5.3c0 0-4.5 5-5.6 7l.3-1.7"/>
  <path fill="#88d041" d="M62.7 36.3a11.8 11.8 0 0 1-1.5 5.7l-.8 1.1a22 22 0 0 0-3.6 5.8 38 38 0 0 0 1.9 6.7l-3.3-4.3a.2.2 0 0 0-.4 0c0 1.2-.3 4.4 0 5.1 0 0-2-2.8-2.2-5 0-.2-.3-.3-.4-.1-.6 1-1.8 3.2-2 4.3v-.2a11 11 0 0 1 2.3-8.8c1.7-2 4.4-5.9 4.4-11 0-7.4-1-10.2-1-10.2l2.3-1.2a24.5 24.5 0 0 0 4.3 11.4v.7M42.6 55a15.3 15.3 0 0 1-.1.6l-.2-.6c-.3-1.2-1-3-1.6-3.9-.2-.2-.5 0-.5.2-.1 1.4-1 3.2-1.7 4.2l-.5.9v-1c.2-1.2.2-3.3.1-4.2 0-.2-.3-.3-.4-.1l-2.8 3.7-.7.8a54.6 54.6 0 0 0 1.9-6.7c0-1-2.6-4.6-3.6-5.8a10.8 10.8 0 0 1-2.3-6.8 13.8 13.8 0 0 1 .2-2.8c.6-3.4 2.3-6.4 3.3-8l.8-1.3 2.4 1.2-.4 1.4a48 48 0 0 0-.6 8.9c0 5 2.6 9 4.3 11 2 2.3 2.8 5.4 2.4 8.4"/>
  <path fill="#88d041" d="M33.6 55.2c.3-.5.9-.7 1.2-.5.4.3.4.9 0 1.4-.2.5-.8.7-1.2.5-.3-.3-.4-.9 0-1.4"/>
  <g clip-path="url(#f)">
    <path fill="#88d041" d="M37.3 56.3c.2-.6.7-1 1.1-.8.4 0 .6.7.5 1.2-.2.6-.7 1-1.1.9-.4-.1-.6-.7-.5-1.3"/>
  </g>
  <g clip-path="url(#g)">
    <path fill="#88d041" d="M41.6 56c0-.5.4-1 .9-1 .4 0 .7.6.7 1.2-.1.6-.5 1-1 1-.4 0-.7-.5-.6-1.1"/>
  </g>
  <path fill="#88d041" d="M46.2 46.8c-22 0-15-16.5-12.4-21.3l.7-1.3h23.8l.7 1.3c2.5 4.8 9.2 21.3-12.8 21.3"/>
  <path fill="#b2df67" d="M37 24.1s-11.2 21.6 9.2 21.6c20.3 0 9.6-21.6 9.6-21.6H37"/>
  <path fill="#c9deb0" d="M58.3 24.2h-2.5 2.6"/>
  <path fill="#82c243" d="m59 25.5-.7-1.3h.1l.2.2.6 1-.1.1"/>
  <path fill="#c9deb0" d="M36.9 24.2h-1.6 1.6"/>
  <path fill="#82c243" d="M33.8 25.5h-.1l.8-1.3-.7 1.3m23 1c-.4-1.2-.8-2-1-2.3h2.5l.7 1.3-2.2 1m-20.9 0a21 21 0 0 1-2.1-1l.7-1.3H37a29 29 0 0 0-1 2.3"/>
  <path fill="#9cd75a" d="M46.5 28.5c-4.2 0-7.7-1-10-1.8l-.6-.2c.5-1.2 1-2 1-2.3h19c0 .3.5 1.1 1 2.3-3.7 1.5-7.2 2-10.4 2"/>
  <path fill="#88d041" d="M29.3 7.2a6.6 6.6 0 1 1 13.2 0 6.6 6.6 0 0 1-13.2 0m21.2 0a6.6 6.6 0 1 1 13.2 0 6.6 6.6 0 0 1-13.2 0"/>
  <path fill="#88d041" d="M63 17.6a8.6 8.6 0 0 1-.7 2.7 8 8 0 0 1-1.5 2.2c-2.3 2.4-6.6 4.2-14.4 4.2-9.4 0-13.6-2.6-15.3-5.5a8.6 8.6 0 0 1-1-5.6l.9-3 .3-.7 8-3.7a13.5 13.5 0 0 1 5-1.3 43.6 43.6 0 0 1 3.9 0h.4a13.2 13.2 0 0 1 4.6 1l8.8 3.7s1.3 2.8 1 6"/>
  <path fill="#d8f1f4" d="M40.7 7.2a4.8 4.8 0 1 1-9.6 0 4.8 4.8 0 0 1 9.6 0m21.3 0a4.8 4.8 0 1 1-9.7 0 4.8 4.8 0 0 1 9.6 0"/>
  <path fill="#19331b" d="M60.2 7.2a4.3 4.3 0 0 1-5.6 4.1 4.8 4.8 0 0 1 0-8.2l1.3-.2c1 0 2 .4 2.8 1.1a1.5 1.5 0 0 0 1.4 2.7v.5"/>
  <path fill="#74a848" d="M46.2 7.1c0 .4-.8.8-1.8.8-1 .1-1.9-.2-2-.6l.1-.2 1.8-.2H46l.2.2m4.3.2c0 .3-.6.5-1.3.4-.7 0-1.3-.3-1.2-.6 0 0 0-.2.2-.2h.4c.6 0 1.3 0 1.9.2v.2"/>
  <path fill="#667f44" d="M33.6.4v.1c.3.3.2.7 0 .9L31.2 3c-.3.2-.7.1-1-.2a.6.6 0 0 1 .2-1L32.7.2c.3-.2.7-.1.9.2m25.9 0-.1.1c-.2.3-.1.7.1.9L61.8 3c.3.2.7.1.9-.2.2-.4.2-.8-.1-1L60.4.2a.6.6 0 0 0-1 .2"/>
  <path fill="#f89d80" d="M34.2 18.7a2 2 0 1 1 0-4 2 2 0 0 1 0 4m24.6 0a2 2 0 1 1 0-4 2 2 0 0 1 0 4"/>
  <path fill="#19331b" d="m45.5 11.7.2-.2a.2.2 0 0 1 0 .5.2.2 0 0 1-.2-.3m1.5 0 .3-.2a.2.2 0 0 1 0 .5.2.2 0 0 1-.3-.3"/>
  <path fill="#74a848" d="M31.5 14.4c-.2.7-.7 1.1-1.3 1.2.2-1.2.5-2.3.8-3 .5.4.7 1.1.5 1.8m31 5.6-.2.3a8 8 0 0 1-1.5 2.2c-.4-.4-.4-1-.1-1.6.3-.8 1-1.1 1.8-1m-13 3.8c1 .1 1.6.8 1.5 1.5 0 .7-.8 1.2-1.7 1.1-.9 0-1.5-.7-1.5-1.4.1-.7.9-1.2 1.7-1.2m-15-2.4c.6.2.9.7.7 1.1-.2.5-.7.6-1.3.4-.5-.2-.8-.7-.6-1.1.1-.4.7-.6 1.2-.4M63 17.6a4 4 0 0 1-.4 1.8c-.3-.1-.5-.6-.4-1 .1-.5.5-.8.8-.8m-10.6 6.7c.5-.2 1 0 1.2.3.1.4-.3.8-.8 1-.6.2-1.2 0-1.3-.4 0-.3.3-.8.9-1m-1-1.5c.4 0 .8.3.8.5 0 .3-.4.5-.8.5s-.7-.2-.7-.5c0-.2.3-.5.7-.5m-15.6-1.6c.2.2.3.4.2.6-.2.2-.4.2-.6 0-.2-.1-.3-.4-.2-.5.1-.2.4-.2.6 0"/>
  <path fill="#a7db5c" d="M36.2 27.7c.6-.5 1.4-.6 1.8-.1.4.4.2 1.2-.4 1.8-.6.5-1.5.5-1.9 0-.3-.4-.2-1.2.5-1.7m-.5 2.5c.5-.2 1-.2 1.3.2.1.4 0 .9-.6 1.1-.5.3-1 .2-1.2-.2-.2-.3 0-.8.5-1m19.6 9c.4-.5 1-.6 1.3-.3.3.3.2.8-.1 1.2-.4.5-1 .6-1.3.3-.3-.3-.2-.8.1-1.2m-17.5-9.6c.3-.1.6 0 .7.2.1.2 0 .5-.3.6-.3.2-.7.1-.8 0 0-.3 0-.6.4-.8"/>
  <path fill="#648e34" d="M24.7 27.5c0 .5-.3 1-.7 1.4-.6.7-1.4.9-2 .7.3-.6.7-1 1.2-1.5a2 2 0 0 1 1.5-.6M24.6 39a22 22 0 0 1-2-3.2c.7-.3 1.6.1 2.1 1 .5.8.5 1.8 0 2.2m37.5 5.2c-.6.5-1.2 1-1.8 1.3l-1 1h-.2c-.4-.7 0-1.6.8-2.2.8-.5 1.8-.6 2.2-.1m1.4-14.5c-.7.3-1.6.3-2 0a18 18 0 0 1 3.2-1.7c0 .6-.4 1.3-1.2 1.7m-40.4.2c.3-.3.7-.3.8 0 .2.2 0 .5-.3.8-.3.2-.7.2-.9 0-.1-.3 0-.6.4-.8m46.5-.4c-.5.3-1.4.1-2-.6-.4-.4-.7-.9-.7-1.3.6 0 1.1.2 1.5.5.6.4 1 .9 1.2 1.4m-1.2.4c-.3-.3-.7-.3-.9 0-.1.2 0 .5.3.8.4.2.8.2 1 0 0-.3 0-.6-.4-.8"/>
  <path fill="#88d041" d="M59.5 55.2c-.3-.5-.9-.7-1.2-.5-.4.3-.4.9-.1 1.4.3.5.9.7 1.3.5.3-.3.3-.9 0-1.4"/>
  <g clip-path="url(#h)">
    <path fill="#88d041" d="M55.7 56.3c-.1-.6-.6-1-1-.8-.4 0-.6.7-.5 1.2.2.6.7 1 1.1.9.4-.1.6-.7.4-1.3"/>
  </g>
  <g clip-path="url(#i)">
    <path fill="#88d041" d="M51.3 55.9c0-.6-.4-1.1-.8-1-.5 0-.8.5-.7 1.1 0 .6.4 1 .9 1 .4 0 .7-.5.6-1.1"/>
  </g>
  <path fill="#74a848" d="M30.9 39.7h-.2a12 12 0 0 1-.5-3.3l.2-.1c.6 0 1.2.6 1.4 1.5.1 1-.3 1.8-.9 2m.1-5.1c0 .5-.4 1-.8.9l.2-2h.2c.4 0 .6.5.5 1m.1 1.4c0-.5 0-.9.4-1 .2 0 .6.3.7.7.1.4 0 .9-.3 1-.3 0-.7-.3-.8-.7m31.5.3a10 10 0 0 1-.5 3.4c-.6 0-1-1-.9-1.9.2-.9.8-1.6 1.4-1.5m0-.7c-.3-.1-.6-.5-.7-1 0-.5.1-1 .5-1l.2 2m-.8.4c0-.5 0-.9-.3-1-.3 0-.7.3-.8.7-.1.4 0 .9.3 1 .3 0 .7-.3.8-.7"/>
  <path fill="#19331b" d="M38.3 8.7a4 4 0 0 1-6 1.8 4.8 4.8 0 0 1 0-6.6 4 4 0 0 1 4.2-.2l-.3.5a1.4 1.4 0 0 0 2.2 1.6 4 4 0 0 1 0 2.9"/>
  <path fill="#3c6634" d="M52.4 17c-.6 2-2.7 2.7-4.2 2.8L47 20h-1.4a12 12 0 0 1-3.8-.8c-.9-.4-1.5-1-1.7-1.6a2 2 0 0 1 .8-2 3 3 0 0 1 2.6-.5c1 .2 1.7.6 2.7.6 1.9.2 3.2-.3 3.7-.5.8-.3 1.7-.3 2.2.4.3.4.4 1 .3 1.5"/>
  <path fill="#f25950" d="M48.3 19.8s-.3.2-1.3.1c-.5 0-1.4 0-1.9.2-1.9.7-2.4.8-6.1.6-6.8-.5-10.4-1.6-16.3-2.6-2.5-.4-5.4-1.2-7.8-1-1 0-2.2.3-2.8 1-.2.4-.4.8-.8 1-.5.4-1.3 0-1.6-.6-.2-.6 0-1.3.5-1.8a4 4 0 0 1 1.8-.9 18 18 0 0 1 7.7-.2c6 .9 11.9 2.8 18 3.5 1.3.1 2.7.2 4.1 0 .5 0 1-.2 1.5-.4 1-.3 2-1 3.1-1s2.3 1 2 2.1"/>
  <path fill="#dedfdd" d="M8.5 5.8s-.7-5-2-4.7c-1.2.3-.7 3.3 1.6 5.3l.4-.6m.5.4s5-.9 5 .5c.2 1.2-2.9 1.6-5.4 0l.4-.5"/>
  <path fill="#c2c3c1" d="M8.2 6.4S3.2 7.2 3 6c-.1-1.2 3-1.7 5.5 0l-.4.5m.5.3s.7 5 2 4.7c1.3-.3.7-3.4-1.5-5.3l-.5.6"/>
  <path fill="#515455" d="M8.4 5.6S6.8 7 6.1 8.5c-.2.6.4 1.1 1 .8.7-.6 1.6-2 2.1-3.2l-.8-.5"/>
  <path fill="#696d6f" d="M8.3 4.6c.2-.5 1-.7 1.6-.4.7.4 1 1 .7 1.5-.2.5-1 .7-1.6.4-.6-.4-1-1-.7-1.5"/>
  <path fill="#696d6f" d="M8.6 4a.8.8 0 1 1 1.6-.2.8.8 0 0 1-1.6.2"/>
  <path fill="#efefed" d="M8.8 4c0-.4.2-.7.5-.8a.7.7 0 1 1-.5.8"/>
  <path fill="#696d6f" d="M10 3.8c0 .3-.2.6-.5.6a.6.6 0 0 1-.5-.8l.2-.2c.4-.1.7 0 .7.4m1.2.4a.8.8 0 1 1-1 1.3.8.8 0 0 1 1-1.3"/>
  <path fill="#efefed" d="M11 4.3a.7.7 0 1 1-.7 1.1.7.7 0 0 1 .8-1"/>
  <path fill="#696d6f" d="M10.3 5.3a.6.6 0 0 1 0-.8c0-.2.4-.3.7 0 .1 0 .2.1.2.3h-.1v.4c-.2.3-.5.3-.8.1"/>
  <path d="M28.1 58.1v2h-5.3v3.3h4.8v2h-4.8v5h-2.5V58ZM30 70.4V61h2.2v1.4h.2c.2-.5.5-.9.9-1 .4-.3.8-.5 1.3-.5s1 .1 1.2.3l-.4 2h-.6l-.5-.1c-.7 0-1.1.2-1.5.7-.3.4-.5 1.1-.5 2.1v4.4Zm11.3.1a5 5 0 0 1-2.4-.5c-.7-.4-1.2-1-1.6-1.6-.4-.8-.6-1.6-.6-2.6s.2-2 .6-2.6c.4-.8.9-1.3 1.6-1.7a5 5 0 0 1 2.4-.5c.9 0 1.7.1 2.3.5.7.4 1.3 1 1.6 1.7.4.7.6 1.5.6 2.6 0 1-.2 1.8-.6 2.6-.3.7-.9 1.2-1.6 1.6a5 5 0 0 1-2.3.5Zm0-2c1.4 0 2.1-.9 2.1-2.7 0-1-.2-1.7-.5-2.2-.4-.4-1-.7-1.6-.7-1.5 0-2.2 1-2.2 2.9 0 1.8.7 2.8 2.2 2.8Zm10.1 5.8c-1.5 0-2.6-.2-3.4-.7-.7-.4-1-1-1-1.9 0-.4.1-.8.4-1.1.3-.4.8-.6 1.4-.7v-.1c-.3-.2-.6-.4-.7-.7l-.2-.8c0-.7.5-1.2 1.4-1.5v-.2a3 3 0 0 1-1-1 3 3 0 0 1-.5-1.5c0-.7.2-1.2.5-1.7.2-.4.7-.8 1.2-1a4 4 0 0 1 2-.4c.7 0 1.3 0 1.8.4.3-.5.5-1 .5-1.5h.2l1.6.3c0 .5-.1.8-.4 1.1a2 2 0 0 1-1 .8v.2c.6.5.9 1.1.9 2 0 .5-.2 1-.5 1.5-.2.4-.7.8-1.2 1-.6.3-1.2.4-2 .4h-.8c-.2 0-.4 0-.5.2l-.1.4c0 .2 0 .4.2.5l.7.2h2c2 .1 3.1 1 3.1 2.7a2.8 2.8 0 0 1-2 2.7 7 7 0 0 1-2.6.4Zm0-8.7c.5 0 .8-.1 1.1-.4.2-.2.4-.6.4-1.1 0-.5-.2-.9-.4-1.1-.3-.3-.6-.4-1-.4-.5 0-.8.1-1.1.4-.2.2-.4.6-.4 1 0 .6.2 1 .4 1.2.3.3.6.4 1 .4Zm0 7c.8 0 1.4-.1 1.8-.3.3-.3.5-.5.5-.9 0-.3 0-.5-.3-.6-.2-.2-.4-.2-.9-.3h-2.1c-.4 0-.7 0-.9.2a1 1 0 0 0-.3.7c0 .4.2.7.5.9.4.2 1 .3 1.7.3Zm0 0"/>
</svg>
