<svg xmlns="http://www.w3.org/2000/svg" version="1.0" viewBox="0 0 75 75">
  <defs>
    <clipPath id="b">
      <path d="M7 2.5h62V45H7Zm0 0"/>
    </clipPath>
    <clipPath id="d">
      <path d="M0 0h62v43H0z"/>
    </clipPath>
    <clipPath id="e">
      <path d="M0 23h75v35.7H0Zm0 0"/>
    </clipPath>
    <clipPath id="f">
      <path d="M44 2.5h3V6h-3Zm0 0"/>
    </clipPath>
    <filter id="a" width="100%" height="100%" x="0%" y="0%">
      <feColorMatrix color-interpolation-filters="sRGB" values="0 0 0 0 1 0 0 0 0 1 0 0 0 0 1 0 0 0 1 0"/>
    </filter>
    <mask id="c">
      <g filter="url(#a)">
        <path fill-opacity=".3" d="M-7.5-7.5h90v90h-90z"/>
      </g>
    </mask>
  </defs>
  <path fill="#9ec44f" d="M29.1 12.3h.1Zm9.3 12.5h-.1.1Zm-.2 0Zm-19.5 1.6-.4-.3.4.3Zm2.9.4h-.2.2Zm47 6.7v-.2.2Zm-56 .6h-.1c.2 0 .4-.2.5-.3h-.4l-.2.3ZM3 40.6ZM43.6 46l.2-.1h-.2Zm2.5 5.5Zm6.2.4-.2-.2.2.2Zm-5 1.7h.1Zm3.4.8v-.2.2Zm-.5 1.3v-.2H50V55l-.1-.3v-.1l-.4-1-.1-.3-.2.1v.1h-.1v.1l-.2.2-.2.3-.6.4H48l-.3.2-.4-.1v-.1l-.3-.2h-.2v-.1h-.3a.6.6 0 0 1-.1-.7v-.3l.2-.3.3-.4.1-.3-.8.2h-.5l-.2-.3V52l-.2-.3v-.3l.1-.3.2-.1.3-.2.2-.2.4-.3.3-.2.3-.2.3-.2.2-.4a26 26 0 0 0 .5-1.2l.4-.7.5-.7.2-.2h-.7v-.1a9.4 9.4 0 0 1-1.3-.3l-.9-.2h-1l-.6.5h-.2l-.1.2H44a21.8 21.8 0 0 1-3.2 1l-1.6.3-.8.2-.8.1c-.5.1-1 .3-1.6.3a10.5 10.5 0 0 1-1.6 0h-1.6l-.4.2h-.1l-1-.2h-.8l-1.7-.5-1.6-.4-.8-.4-.8-.3a33 33 0 0 0-1.3-.7l-.6-.3-.6-.3-.3-.2-.2-.1h-2.8a31.5 31.5 0 0 0-1.2.1h-.7l-.7.2h-.4l-.8.2h-.5l-.6.2-1.2.2h-2.5l-1.3.1h-.7l-.6.2H5.2c-.3 0-.5 0-.8-.2-.3 0-.5-.2-.8-.3a3.9 3.9 0 0 1-1.3-1l-.1-.2-.3-.3-.3-.4a2 2 0 0 1-.1-.4V43l.2-.4.1-.3a11 11 0 0 1 .6-1l.2-.5-.8-.3a5.1 5.1 0 0 1-1-.6l-.2-.2-.2-.3-.1-.4-.1-.5a3.4 3.4 0 0 1 .2-1.2l.1-.4.3-.7c.1-.3.3-.5.5-.6l.5-.5.3-.2.4-.2h.4l.4.1.5.2.4.3.2.1h1.8l1 .4.1-.1.2-.1h1.6c.2.2.5.3.8.3l.4.2V36l.2-.4.3-.2.3-.2v-.1l.2-.2.2-.8c0-.3.2-.6.3-.8a12.5 12.5 0 0 1 .6-1v-.2l.1-.5c0-.3.2-.5.3-.8 0-.3.1-.5.3-.7 0-.3.2-.5.4-.8l.2-.2c.1-.2.4-.2.6 0 .1 0 .1.3 0 .4l.1.4.2.4v.1l.3.4.4.5v.2c.2.1.2.2.2.4l-.2.2-.4.3.4-.2.5-.3.6-.5.6-.4.3-.3.3-.2.5-.6.3-.4.2-.2v-.2l-.1-.2-.1-.5v-.2l-.2-.4v-.6l-.1-.1V27H18v-.1l-.2-.1-.2-.1-.2-.1-.4-.1-.5-.1H16l-.2.1h-.2c0 .2-.2.2-.3.3v.1c-.1.2-.3.3-.5.3a.4.4 0 0 1-.4-.4c0-.1 0-.3.2-.5V26c0-.2.2-.4.4-.6l.2-.3a6.2 6.2 0 0 1 1-.9l.4-.2.4-.2h.2l.4-.1h1l.4.2.2.2.3.2.4.6.2.2.2.3.3.4H23l.2.1.3-.3.3-.2.4-.3.7-.4.4-.2.5-.2h.3l.5-.2h.9a4.5 4.5 0 0 1 .9 0 8.9 8.9 0 0 1 1.5.5l.7.4.3.2.4-.1.8-.1 1.5-.2h2.1l1.7.2h.4c0-.2.2-.3.3-.5l.7-.5.7-.5.7-.4.4-.3.5-.2.6-.3h.1l.6-.4.1-.3.3-.1.2-.2.3-.1.8-.3a61.5 61.5 0 0 1 6.1-1.6c0-.3.1-.5.3-.6h.2l1-.2c.2 0 .6 0 .9-.2l1.8-.4.5-.2.6-.2.4-.2.4-.1v-.7l.1-.4v-.3a3.5 3.5 0 0 0-.3-.3l-.6-.5-.9-.7-.6-.3-1.5-.8-.7-.3-.8-.3a37.2 37.2 0 0 0-2.5-.8l-.4-.1H48a42.6 42.6 0 0 0-3.2-.4c-.3-.1-.5 0-.8 0h-2.8l-.8.1-1.7.1h-1l-1.5.2h-.8l-.7.2c-.3 0-.6 0-1 .2h-.4l-.5.1-.8.2-.9.1-.8.2-.7.2c-.3 0-.6.2-.8.3h-.4l-.3.2h-.3l-.2.1h-.3a.4.4 0 0 1-.4-.2c0-.2 0-.3.2-.5l.2-.2.3-.3.7-.6.6-.5.7-.4.6-.4.1-.1.4-.2.8-.5a44.3 44.3 0 0 1 3.1-1.4l1.6-.7.7-.3.8-.2c.3 0 .5-.2.8-.3l.8-.2.8-.2.9-.2c.6 0 1.2 0 1.8-.2l.8-.1.9-.2 1.6-.2h.7l.8-.1h3.9l1.7.1h.9l.9.2.8.2.8.2.8.1.8.2.9.1.8.2a73.5 73.5 0 0 0 1.6.5l.8.3a8.9 8.9 0 0 1 1.6.7l.7.4.7.5.7.4 1.1.8.3.2.2.2.2.2c.4.4.9.8 1.2 1.3l.8 1.5.2.8.3 1a74.9 74.9 0 0 1 .2 1.6v1.6l-.2.6s0 .2-.2.2l-.2.7-.2.8-.4.8-.4 1v-.1.1l-.1.2-.1.2-.2.3-.2.4-.3.4-1 1.2c-.4.3-.9.6-1.2 1h-.3l.6.4.8.3.7.4a3.7 3.7 0 0 1 1.3 1l1 1.6v.4a17.4 17.4 0 0 1 .4 1.3l.1.5h.1l.8.5.9.4.2.3v.9l.1.2.2.2.4.4v.4l-.2.3c-.1.2-.3.3-.4.3H72V36l-.4-.1H71v.3l-.1.1-.2.2h-1a.8.8 0 0 1-.3-.2l-.3-.4s-.2 0-.3.2l-.2.1v.1l-.4.1-.3-.1v-.1c-.2 0-.2-.1-.3-.2h-.2c0-.2-.2-.2-.3-.3-.2-.2-.2-.4-.1-.6a2.3 2.3 0 0 0 0-.6v-.8h-1l-.6-.1H65a9.8 9.8 0 0 0-1.2-.2h-1l-.3-.1h-.1a4 4 0 0 0-.3.3c-.2 0-.3.2-.4.3l-.4.3-.8.6-.7.5-.2.1h-.4l-.1.2-.3.8-.4.7-.5.8-.1.3-.5.6-.5.7-.5.6-.5.6-.5.5-.3.3h.6l.5.2.4.2.2.2.1.2.2.4.1.6-.2 1-.2.7-.3.8-.1.3-.3.4-.3.6-.3.5-.3.6a25.7 25.7 0 0 1-.9 1.5c0 .2-.2.3-.3.5v.8l.1.5a17.9 17.9 0 0 0 .7 1.3v.2h.2c.2.2.2.5 0 .7l-.3.1-.2.2v.1c0 .2-.2.3-.4.3h-.1l-.3-.2c-.2 0-.4-.2-.5-.3l-.5-.3h-.1l-.2-.2v1.8c-.1.2-.2.4-.4.4l-.3-.1h-.1a3.1 3.1 0 0 0-.5.1l-.3.3h-.2c-.1 0-.3 0-.3-.2Zm0 0"/>
  <path fill="#fff" d="M44.2 53.2V53l.2-.2.2-.4.1-.3V52h.2v-.2h.2l.1-.1.2.1v.2a3.3 3.3 0 0 1 .1.7l-.1.1-.2-.1-.3.1v.1c-.1 0-.2.1-.2 0l-.2.2-.2.1Zm1.8 3.1V56c0-.4.2-.7.3-1v-.7h.4l.4.2h.4l.2.2s0 .2-.2.2h-.2l-.2.2-.2.2-.3.4-.3.3v.1H46c0 .1 0 .1 0 0Zm6 1.3v-.2h-.1l-.1-.2-.2-.3-.1-.1-.3-.3-.2-.1h-.1l-.1-.2V56l.2-.1.2-.1.2-.1.3-.1.2-.1h.3v1.3l.2.4v.4h-.3Zm4.4-2.2h-.2l-.3-.2h-.2l-.2-.2h-.2a4.8 4.8 0 0 1-.5-.2h-.4v-.2l.1-.2.1-.2h.1V54l.2-.2v-.1l.1-.1h.3v.2h.2v.1l.2.2.2.2.3.3.1.2.2.1.2.2v.2h-.3ZM66.6 37v-.3h.1v-.4l.1-.3h.7v.1h.2l.2.2v.2h-.3l-.1.1h-.1l-.2.2H67l-.2.2-.1.1h-.2Zm3.3.8-.2-.2V37l-.2-.1v-.2h1v.2l-.2.2-.1.5-.2.2Zm2.9-1.6.1-.2.1-.1v-.3c.1-.1.2-.2.3-.1l.2.1.3.3h.2c.2 0 .2.1.2.2v.1h-.9l-.2.1h-.3Zm-.2-1.4v-.2l-.1-.1V34s-.1-.1 0-.2v-.1l.3.1h.1l.1.2.5.1h.2l.1.1-.1.3h-.8v.1l-.1.2-.2-.1ZM9.1 43.3Zm0 .6-.1-.1v-.1l-.1-.1-.2-.4-.1-.2v-.2h-.1l-.2-.2v-.2h1.5v.5l-.3.6v.2l-.1.1H9Zm3-.7V43l-.2-.3v-.1l-.4-.4-.1-.2h.5l.4-.2h.4v.5l-.1.3-.1.3v.3l-.2.1H12Zm5.7-1.7h-.2v-.3h.2l.2-.2.1-.2a5.5 5.5 0 0 0 .4-1l.1-.1h.2v.4l.1.4.1.3.1.4v.3h-1.4Zm6.9-.5Zm-.6 1.2L24 42v-.5l.2-1v-.1l.1-.2c.1 0 .2 0 .2.2h.7l.2.1v.4l-.1.2-.4.4-.3.3-.3.3h-.2Zm0 0"/>
  <path fill="#fff" d="M24.5 41.3v-.6l.2.1v.1l.1.1v.4l-.2.2-.1-.2ZM28 40h-.2v-.5l.2-.3V39l.1-.4v-.8h.4l.1.1v.2l.1.1v.2l.3.4.1.2.1.2h.1l.1.2v.2h-.1l-.2.2-.5.1-.3.1H28Zm2.3-1v-1.5l.1-.2h.2v.1l.2.2.2.1.2.4h.1v.2l-.1.1-.2.2-.2.2-.2.2h-.2Zm-13.5-9.8h.2l.5.4.1.1-.3-.2-.1-.2H17l-.2-.1h-.2.2Zm-2.2 1v-.4l-.1-.2V29l.2-1 .2-.3.2-.3.1-.2V27l.3-.3h.2v-.1h.2l.1-.1h.1l.3-.2h.7l.2.1.2.1.2.3.3.4v.3l.2.2a3 3 0 0 1 0 .8v.2l.1.2v.5h.1v.2l-.1.2h-.1l-.1.2h-.7l-.1-.1-.2-.1-.2-.2-.2-.1h-.1l-.2-.1h-.8l-.2.1-.2.1v.1l-.2.2-.1.1v.2h-.2ZM26 33l-.4-.2h-.3l-.2-.2-.2-.1-.1-.1-.1-.2a1 1 0 0 1-.2-.3v-.3l-.1-.5v-.5a3.7 3.7 0 0 1 1-2l.3-.3.4-.3.4-.3.5-.2h.4l.6-.1h.4l.1.1.2.2.2.1v.2l.2.2.2.2v1.7l-.3.4-.6.8-.4.5a5.7 5.7 0 0 1-.7.7l-.2.1-.2.1-.2.1-.3.1H26Zm0 0"/>
  <path fill="#508228" d="M67.6 13.5v-.4l-.1-.2-.1-.3-.2-.5-.3-.5-.1-.2v-.2l.1-.1h.1v.1h.8v.5l.1 1v.8l-.1.1h-.2Zm-5.8-.1V13l-.1-.3c0-.2-.2-.3-.3-.5l-.2-.4v-.2l-.1-.1-.1-.2v-.1h.1l.1-.1h.2l.2-.1h.4v.2l.1.5v1.6c0 .1 0 .2-.2.2Zm-.7-3.2H61l-.1-.1-.3-.1-.3-.1h-.2l-.1-.1-.1-.2.2-.1.1-.1h.1l.2-.2.2.1.1.2.3.1.1.2.1.2s0 .2-.2.2ZM30.5 8.7v1.2l.2-.1.2-.1.1-.1.4-.3.3-.2.2-.1.2-.1-.3-.1h-.3a8 8 0 0 0-.3-.1h-.7Zm-.3 1.5V8h.3v.2l.3.1h.4l.3.1h.3l.3.1h.4l.1.1.3.1V9h-.2l-.3.2-.4.2h-.2l-.3.3-.2.1-.2.2-.5.2-.3.2h-.1Zm0 0"/>
  <path fill="#508228" d="m30.3 10.2-.1-.1v-.3h.1V8h.3v.1h.5l.2.2h.1v.2h.6l.3.1h.1l.2.1c0 .1 0 .2-.2.2l-.3.1-.5.2h-.1l-.1.1h-.2l-.1.1-.1.1-.5.5-.2.1Zm37.4.4-.2-.1-.3-.3-.2-.3h-.2v-.2h-.1v-.2h-.2l-.2-.2.1-.2h.6l.4-.1.1-.2h.2V9l.1.1v.3l.1.5v.7h-.2Zm-2.5-1.9-.2-.2a6 6 0 0 0-.4-.2l-.4-.2-.4-.3a3 3 0 0 1-.3-.1h-.2l-.1-.2h-.3v-.2l.2-.1.3-.1.4-.3h.3l.3-.2c.2 0 .3.2.4.4l.1.2.3.4v.2l.2.2.1.3v.1c.1.1 0 .2 0 .2v.1h-.4ZM62 7h-.4l-.4-.1H61l-.1-.1h-.1l-.2-.1h-.3l-.4-.2-.6-.3H59l-.2-.2h-.3v-.3c0-.1 0-.2.2-.2l.1-.1.3-.3.1-.2h.1v-.2l.1-.2h.5l.1.1.1.2.1.1.2.3.1.1.3.3.2.2.2.1.2.2.2.2.1.2.2.1v.1h.1l.1.2v.2H62Zm5.1 10.4-.1-.1v-1l-.2-.7V15l-.1-.4v-.1l-.1-.2v-.1h.4l.3.3.2.2.3.3h.3v.4l-.2.5-.2.5-.2.5v.4l-.2.1Zm-2 3.6v-.7l.3-.5.1-.6.1-.5.1-.5v-.9l.1-.1.2-.1.1.1v.2l.3.3.2.1.2.2.2.2v.3h-.1v.2l-.4.4-.4.7-.3.5-.2.3-.2.3H65Zm-2.6 2.6v-.2h.1v-.1l.1-.1.3-.5v-.2l.2-.3V22l.2-.4.2-.7v-.5l.1-.1h.3v.1l.1.2.1.1.1.1.3.4h.2v.2h.1v.2h-.1l-.2.3-.2.4h-.2l-.2.3-.4.4-.3.3h-.1l-.1.2H63l-.1.2-.1.1-.3-.1Zm-13 6v-.3l.8-.7.8-.8.2-.1.2-.2.4-.3c0-.2.2-.3.3-.4l.4-.4.3-.2h.1l.1-.1h.2v1.1l.1.3.1.5v.2h.4V28l.4-.1v-.2l.2-.2.2-.2.2-.2.3-.4c.2 0 .3-.2.4-.4l.4-.3.3-.4.4-.4.3-.3.2-.2.1-.1.1-.1h.2l.1.2.1.2.4 1 .2.3.3-.2.5-.2v-.1l.1-.1.1-.2.3-.4.2-.4.2-.4V24l.3-.4v-.3l.2-.2V23l.1-.1.1-.1h.3l.1.2.2.2.1.2.3.4.1.2h.1v.3l-.3.1-.3.2-.7.6a5 5 0 0 1-.5.3l-.4.3-1 .5-.2.1-.1.2h-.2a4 4 0 0 0-.4.2l-.4.2-.5.2-.5.2-.4.2-.5.2-.5.3-.5.1-.5.3a3 3 0 0 1-.5 0l-.6.2-.5.1-.5.2-1 .2-.6.2H50l-.3.1-.2.1h-.1Zm-2.9.2h-.1l-.2-.2.2-.3h.2l.2-.2V29c.2 0 .2-.2.3-.2l.2-.2.1-.1v-.1h.1l.1-.1h.2l.1-.1.4-.4.4-.3h.3v1.1l.1.6v.1c.1 0 .1.2 0 .2H49l-.5.1-.5.1h-.5l-.2.1h-.6Zm-7.3-6.2v-.4l1-1.9.3-.4.3-.4.1-.2.2-.2V20h.4v.2l.1.3.1.5v.3l.1.1.1.2c.1 0 .2.1.1.2v.1l-.2.2h-.2l-.1.1-.2.2-.4.2-.4.3-.4.2-.4.2v.1h-.2v.2l-.2.1h-.1Zm3.7-2.2c-.1 0-.1-.2 0-.2V21l.2-.2.3-.3.3-.3.3-.3.2-.2.1-.2.4-.4c0-.2.2-.3.3-.4v-.2h.3l.2.2.2.7v.2l.1.2v.2l.1.1v.2l-.2.1h-.2l-.4.2-.5.1-.4.2-.5.1h-.1l-.1.1-.2.1-.1.1h-.1l-.1.1h-.2Zm3.8-1.2h-.1v-.4h.2l.4-.5.7-.7a10.1 10.1 0 0 0 .9-1l.1-.1.2-.3v-.1h.4v.5l.1.3v.2l.2.3.1.2v.2h.1v.4l-.1.1-.5.1-.5.2-.4.1-.6.2-.5.1h-.2l-.2.2H47l-.2.1Zm4.9-2.2.1-.2-.1.2Zm-1.3 1.2V19l.1-.2h.1l.2-.3.5-.5.1-.2.4-.3.4-.4.3-.3.2-.1.2-.2h.2c0-.1.1 0 .1 0v.4l.1.2v.2l.1.1v.5h.1v.1c.1 0 0 .2 0 .2h-.1l-.1.2h-.4l-.5.2H52l-.5.2-.5.2a4.2 4.2 0 0 0-.2.2h-.4Zm3.6-1-.1-.2.2-.3.2-.2.3-.4.8-.7a6.2 6.2 0 0 0 .6-.7h.2l.1.2v.2l.2.5v.3a1 1 0 0 0 .1.2v.2h-.1l-.3.1-.5.2-.4.1-.5.2-.5.2h-.1l-.1.1h-.2Zm3.3-1.3v-.2l.2-.2c0-.2.2-.3.3-.4a11.8 11.8 0 0 0 .5-1v-.2h.1v-.2h.3v.2l.2.2v.2l.2.1.2.2h.2v.2l-.2.2h-.2c-.1.2-.3.2-.4.3a10 10 0 0 0-.6.4H58l-.3.1h-.1v.1l-.2.1-.1-.1Zm2.7-1.2-.1-.1v-.3l.1-.1V15l.1-.2v-.1l.1-.2v-.4l.1-.2v-.8h.4l.1.2.4.1.3.2h.2v.3l-.2.3-.2.2-.2.1a9 9 0 0 1-.6.7l-.1.1-.2.1v.2l-.2.2ZM33.8 8.5V8l-.1-.5v-.9h.2l.1.1h.1v.1h.4l.3.2h.6l.4.1h.2l.3.1.1.2v.1h-.2l-.2.1h-.2l-.1.1-.2.1-.3.1-.2.2h-.3l-.2.2h-.3v.1H34l-.2.1Zm3.5-1.4h-.1s-.1-.2 0-.2v-.2l.1-.2.2-.4v-.3l.1-.2v-.4l.2-.2c.1 0 .2 0 .2.2v.1l.4.1h.3l.2.1h.4l.4.2h.2l.1.2h.3l.2.2-.1.2h-.5l-.3.1h-.3l-.2.1h-.2l-.2.1h-.3L38 7l-.3.2h-.4ZM41.4 6l-.1-.2v-.2l.1-.2.2-.5v-.2l.1-.2v-.3h.3v.3h.3l.4.2h.3l.5.2h.3l.4.2h.5c.1.1.2.2.1.3l-.1.1h-.5l-.1.1H44l-.8.1h-.8l-.1.1H42c0 .1 0 .2-.2.2h-.5ZM48 4.6h.2-.4.2Zm-2.4.7h-.4v-.4c0-.2 0-.2.2-.2l.2-.5.2-.3s.1-.1.2 0h.2V4h.2l.4.1h.6a2.4 2.4 0 0 1 .8.2h.2l.3.3.1.2h.3v.3H49l-.2.1h-1.1l-1.2.1h-.9Zm7.2.1h-1.6l-.3-.1h-1.2l-.1-.3v-.3l.4-.3.5-.5.1-.2v-.1h.4v.2l.2.1v.2h.2l.1.2.5.3.3.1.2.2.2.1h.1l.1.1c.1 0 .1.2 0 .2v.1Zm4.9.6H57l-.4-.1-.2-.1h-.2l-.4-.1-.4-.1H54l-.1-.1h-.2v-.3l.4-.4.3-.4.2-.2.1-.2h.1l.1-.2.2-.1.1.2V4a4.6 4.6 0 0 1 .4.3h.2l.1.2h.2l.2.2.3.1.2.2c.2 0 .3.2.4.3l.2.1.2.1.2.2v.2l-.1.1h-.1Zm0 0"/>
  <g clip-path="url(#b)" mask="url(#c)">
    <g fill="#2f5e0a" clip-path="url(#d)" transform="translate(7 2)">
      <path d="M10.7 28.6v-.3l.2-.6v-2.4l-.2-.4v-.2l-.1-.2v-.1.1c.2 0 .2.1.3.2l.2.3.1.3.1.4.1.7v.7a3 3 0 0 1-.2.8l-.2.3-.2.3-.1.1Zm7.9 2.4-.3-.1a1.8 1.8 0 0 1-.8-.5 1 1 0 0 1-.2-.6v.1l.2.1v.1l.3.2h.2l.6.2h1.3l.2-.2.4-.2.2-.2c0 .2-.2.4-.4.6l-.2.2-.3.2h-.4l-.4.1h-.4Zm0 0"/>
      <path d="M18.5 30.8H18l-.6-.4H19l.4-.2.5-.2a9 9 0 0 0 1-.6l.1-.2.3-.4.2-.3.2-.6.2-.4V27l.1-.3v-.9c.1 0 .2 0 .2.2a2 2 0 0 1 .2.9v.3l-.2.7-.1.4-.2.3-.4.6-.5.6-.3.2-.3.2-.7.4-.8.2h-.4ZM2.4 40.7h-.2.2Zm.1.4-.3-.1h-.3l-.1-.1h-.3l-.2-.1v-.1l-.2-.1v-.2l.2-.1h1.5v.6l-.1.1h-.1Zm0 0"/>
      <path d="M2.2 40.8h-.6l-.1-.2.1-.1h1l.2.2s0 .2-.2.2h-.4Zm-.3.4h-.4l-.1-.1.1-.2h1.1l.1.2h-.2l-.3.1h-.3Zm2.7-.6v-.1H5l.3-.1h.5l.1.2h-.4l-.5.2h-.1c-.1 0-.2 0-.2-.2Zm0 0"/>
      <path d="M4.5 40.6v-.2h.1v-.1l-.2-.2V40l.1-.1H5l.3-.1.4-.1h.1v.7h-.5l-.3.2h-.5Zm7.1-1.1h-.8c-.2-.1-.4-.2-.3-.4 0 0 0-.1.2 0h1.5s.1.1 0 .2v.2h-.5Zm0 0"/>
      <path d="m10.8 39.3-.1-.1.1-.2h1.3c.1 0 .2 0 .1.1 0 .1 0 .2-.2.2h-1.2Zm6.6 0h-.3L17 39v-.2h1.5v.4h-1.1Zm0 0"/>
      <path d="M17.9 39.5h-.5l-.2-.1-.1-.1v-.4l-.1-.2.1-.1a.2.2 0 0 1 .2-.1h1.2l.2.1v.4h-.2a2 2 0 0 1-.3.1h-.7v.1h.8l.2.2v.2H18Zm2.7-1.4.2-.2.4-.1.4-.2.4-.2h.5v.3h-.3l-.3.1-.5.2-.3.1-.1.1h-.4Zm0 0"/>
      <path d="M20.8 38c-.1 0-.2 0-.1-.2h.2l.1-.1.4-.2.4-.2.2-.1.2-.1h.2v.3l-.3.1-.4.2a5.6 5.6 0 0 1-.7.3h-.2Zm0 0"/>
      <path d="M20.8 37.8v-.2h.1l.5-.2.4-.2h.1l.2-.2h.4v.3h-.2v.1H22l-.4.2-.3.2h-.5Zm2.3-.7v-.2h.1l.1-.2.2-.1.4-.4.2-.2h.3v.2l-.2.2-.3.2-.5.4v.1H23Zm0 0"/>
      <path d="M23.2 37h-.1v-.3l.2-.1.3-.3.2-.3.2-.1c0-.1.1-.2.2-.1 0 0 .1 0 0 .2v.2c-.2 0-.3.1-.3.2l-.5.5-.2.1Zm16.2-9.3h-.2s-.1-.1 0-.2v-.1h3l.2-.1.2.1c0 .1 0 .2-.2.2h-1l-1 .1h-1Zm0 0"/>
      <path d="m42.4 27.5.1-.2 1.1-.4 1-.2 1-.2.5-.2h.8v.2h-.3l-.2.1-.5.1-1 .3h-.5l-.3.2h-.3l-.5.2-.5.1h-.4Zm-.4.1-.1-.2-.1-.3v-.5l-.1-.5v-.6h.3v1a7.2 7.2 0 0 0 .2.9v.2h-.3Zm0 0"/>
      <path d="m46.3 26.7-.2-.1v-.3l-.2-.5v-1.7l.2-.1c.2 0 .2.1.2.2l-.1.4v1l.2.2v.2c.1.1.1.2 0 .2v.5h-.1Zm.7-.2v-.3l.1-.1.2-.2.3-.1.1-.1.8-.4.3-.2a11.7 11.7 0 0 1 1.5-.6l.5-.2.6-.3.2.1v.2l-1 .4-.5.2-.5.2h-.1l-.2.2-.3.1-.3.2-.4.2-.5.2-.5.3h-.1v.1l-.1.1H47Zm0 0"/>
      <path d="m51 24.7-.1-.2-.1-.3-.2-.5-.2-.6v-.2l-.1-.2v-.3l.3.1v.3l.1.2.2.4h.1l.1.2v.2l.1.3.1.5-.1.1H51Zm1.3-.7v-.3l.1-.1 1.5-1 .3-.2h.1V22l-.3-.4a8.3 8.3 0 0 1-.3-.6v-.2h.3v.1l.2.2.2.2.1.2.2.2h.2l.1.2v.5l-.5.3-.5.3-.4.2-.5.3-.4.3h-.4Zm5.4-4.5h-.4a1 1 0 0 1-.3-.4l-.3-.3v-.2l-.2-.2v-.2h.5v.2a3.5 3.5 0 0 0 .5.6l.1.1h.3v.4h-.1Zm0 0"/>
      <path d="M57.5 19.3Zm-1.8 2.4v-.4l.2-.2c0-.2.2-.3.3-.5l.7-.8.4-.5v-.2h.4v.1l.2-.1V19h.1l.2.1v.1l-.1.2-.2.1-.4.4-.3.3a41.2 41.2 0 0 1-.9 1l-.2.2v.1l-.2.2h-.1Zm2.7-3.3V18l.3-.5.4-.5.1-.2.1-.2.2-.3-.2-.2-.2-.2-.2-.2-.1-.2v-.2h.2l.2.2v.1l.4.3.1.1.1.1v.2l-.1.2-.2.5-.3.4-.3.4-.3.4h-.1Zm0 0"/>
      <path d="m58.2 18.8-.1-.2.2-.3.2-.2.4-.5h.3v.2l-.4.5-.2.2-.1.1v.1h-.1l-.1.1h-.1Zm2.6-5.6h-.2l-.3-.2-.3-.2-.2-.2-.2-.3.2-.1.2.1.1.2h.2l.2.3h.3v.1h.2v.2l-.2.1Zm0 0"/>
      <path d="M60.1 15.6v-1l.1-.5.2-.5V13l.1-.2v-.1h.4v.2l-.1.7-.2.6v.7l-.1.4v.2l-.2.1Zm.5-5.9H60l-.1-.1h-.2v-.1l-.1-.2v-.1h.4l.3.1h.3c.2 0 .2 0 .2.2l-.1.2h-.1Zm0 0"/>
      <path d="M60.7 11.8v-.4l-.2-.9v-.4l-.1-.5v-.3h.2v.2l.1.1v.3l.1.5.1.5v.9h-.2Zm-.1-2.9v-.2l-.2-.4V6.7c0-.2 0-.2.2-.2 0 0 .1.1 0 .2V8l.1.2.1.5v.2h-.2Zm0 0"/>
      <path d="m60.6 8.5-.2-.1-.1-.2L60 8l-.2-.2-.2-.3v-.2h.2l.1.1.2.2.4.4.1.1.2.2v.2h-.2Zm-2.1-1.9h-.1l-.3-.4-.3-.5-.2-.4-.1-.3-.1-.2v-.4h.2v.1l.2.2.1.3.1.3a2.2 2.2 0 0 0 .3.5l.2.2v.2h.1v.4h-.1Zm0 0"/>
      <path d="M58.4 6.8a5.4 5.4 0 0 0-.4-.3l-.2-.1-.4-.3a6.4 6.4 0 0 0-1-.5l-.4-.2-1-.4-.4-.2h-.3l-.6-.3h-.5l-.5-.2-.5-.1-.5-.1-.5-.1h-.5l-.5-.1h-.5l-.5-.1-.5-.1h-.5l-.5-.1h-.5l-.5-.1h-.2c-.1 0-.2 0-.2-.2l.1-.2h.6l.4.1h.6l.5.1.5.1h.5l.5.2h1.5l.5.2h.5l.5.2h.3l.4.1.3.1.4.2.4.1.5.2.5.2.5.2.4.2.5.3 1 .5.4.4c.1 0 .1.2 0 .2h-.3Zm0 0"/>
      <path d="m55 5.3-1.5-.6-.5-.1-.5-.2-.5-.1-.5-.2h-.6l-.5-.2a42 42 0 0 0-3-.4h-.5l-.2-.1v-.1c-.1 0 0-.1 0-.2H48a21.6 21.6 0 0 1 1.7.3l.5.1.5.1.5.1.5.1.5.2.6.1a18.9 18.9 0 0 0 .6.2l.5.2.4.1.5.2c.1 0 .3 0 .4.2l.1.2H55Zm0 0"/>
      <path d="m54.8 5-.4-.4-.3-.4-.8-.7L53 3l-.1-.1-.3-.2-.1-.1-.1-.1h-.1v-.3h.2c.2 0 .3.2.4.3l.4.4.4.4.3.3.6.6.3.3.3.2V5H55ZM51 4l-.5-.3-.4-.3a5 5 0 0 1-.5-.3l-.4-.3-.6-.5-.4-.3-.2-.2-.2-.2.1-.2h.2v.1l.2.1.3.3.5.3.8.7.3.2.3.2.3.2.3.2V4H51Zm0 0"/>
      <path d="m50.8 4-.8-.7-.4-.3-.5-.2a27 27 0 0 1-.6-.5L48 2l-.2-.1-.1-.2v-.3h.1l.1.1.2.1a15.9 15.9 0 0 0 1.2 1c.2 0 .3.1.5.3.2 0 .4.2.6.4l.5.4s.1.2 0 .2V4h-.2Zm-5-.4v-.1l-.4-.3c-.2 0-.3-.2-.5-.3l-.8-.6-.5-.4h-.1v-.3h.2l.2.1.2.2.5.3.4.4.4.3.3.2.3.2v.3h-.2Zm0 0"/>
      <path d="M46 3.4h-.4l-.6-.1h-1l-.4-.1h-.5a6 6 0 0 0-.6 0l-.2-.2s0-.2.2-.2h.9l.5.1h1l.5.1h.6l.1.1v.2l-.1.1Zm0 0"/>
      <path d="M39.3 3.3h-1.2l-.2-.2V3h4.4c.1 0 .2.1.1.2h-.2l-.6.1h-2.2Zm0 0"/>
      <path d="m41.8 3.3-.4-.2-.5-.2-1-.4-.5-.2-.2-.1H39l-.2-.2v-.2h.3l.5.2.5.2 1 .4.4.2.4.2.1.2v.1h-.2ZM34 4h-.1v-.3h.3l.3-.1h.2l.3-.1.5-.1h.5l1-.2h1.1s.1.1 0 .2h-.4l-.3.1H37l-.5.1-.5.1h-.6l-.5.2h-.6V4H34Zm0 0"/>
      <path d="M37.7 3.6a29.6 29.6 0 0 1-1.4-.4l-.5-.2-.5-.1-.3-.2-.2-.1v-.2l.1-.1h.2v.1h.2l1 .4.5.2.5.1.5.2h.1v.1l-.1.2Zm-7.8 1.5h-.1v-.3h.1l.4-.1.4-.1h.3v-.1h.1l1-.3.6-.1.5-.1h.8l-.1.3h-.8l-1 .2-1 .3h-.4l-.4.2H30l-.2.1Zm0 0"/>
      <path d="m33.2 4.4-.5-.1-.4-.1-.5-.2-.5-.2-.5-.2h-.1l-.1-.1v-.2h.4l.2.1.5.2.8.3.8.2s.1.1 0 .2v.1Zm-6.7 2.3c-.1 0-.2-.2-.1-.3l.1-.1h.1L27 6l.5-.2 1-.4.2-.1.4-.2.4-.1a4 4 0 0 1 .4-.1l.1.1v.2h-.1l-.3.1-.2.1-.5.2-.2.1-.5.2-.5.2-.4.2-.3.1h-.2v.1h-.2Zm0 0"/>
      <path d="m29.3 5.7-.4-.2-.5-.1-1-.3H27l-.2-.1h-.1v-.2c-.1-.1 0-.2 0-.2h.1l.3.1h.3l.5.2a22.8 22.8 0 0 1 1.5.5c.1 0 .2 0 .1.2h-.1ZM23 8.3c-.1 0-.1-.2 0-.2l.1-.2.2-.1a5.3 5.3 0 0 1 .9-.6l.5-.2.6-.2.3-.1h.3l.1.1s.1.2 0 .2v.1h-.2l-.2.1-.6.2-.6.3-.6.3-.3.2a2 2 0 0 1-.4.1Zm0 0"/>
      <path d="m25.8 7.1-.5-.1-.5-.1a25.8 25.8 0 0 1-1.3-.5H23l-.2-.2V6h.4l.3.2.5.1 1 .3.4.1h.3l.1.1V7l-.1.1ZM37.2 23c0-.2.2-.3.4-.3.1 0 .3.1.3.3 0 .2-.2.3-.3.3a.3.3 0 0 1-.4-.3Zm.6-1.9c0-.2.2-.3.3-.3.2 0 .4.1.4.3 0 .2-.2.3-.4.3-.1 0-.3-.1-.3-.3Zm2 2.7c0-.1.1-.3.3-.3.2 0 .3.2.3.3 0 .2-.1.3-.3.3a.3.3 0 0 1-.3-.3Zm.7-3.8c0-.2.1-.4.3-.4.2 0 .3.2.3.3 0 .2-.1.4-.3.4-.2 0-.3-.2-.3-.4Zm.7 1.9c0-.2.1-.4.3-.4.2 0 .3.2.3.4 0 .1-.1.3-.3.3a.3.3 0 0 1-.3-.3Zm1.4 1.8c0-.2.2-.3.3-.3.2 0 .4.1.4.3 0 .2-.2.3-.4.3a.3.3 0 0 1-.3-.3Zm.8-4.7c0-.3.1-.4.3-.4.2 0 .3.1.3.3 0 .2-.1.3-.3.3a.3.3 0 0 1-.3-.3Zm.9 2c0-.1.1-.3.3-.3.2 0 .3.2.3.3 0 .2-.1.3-.3.3a.3.3 0 0 1-.3-.3Zm.9 1.8c0-.1.2-.3.4-.3l.3.3c0 .2-.2.4-.3.4a.4.4 0 0 1-.4-.4Zm2.5-.4.3-.3c.2 0 .4.2.4.3 0 .2-.2.4-.4.4a.3.3 0 0 1-.3-.4Zm-.4-2.1c0-.2.1-.3.3-.3.1 0 .3.1.3.3 0 .2-.1.3-.3.3-.2 0-.3-.1-.3-.3Zm-.8-1.5a.3.3 0 0 1 0-.4c.1-.1.3-.1.4 0h.1v.5h-.5Zm4.5 1.7c0-.1.2-.3.4-.3s.3.2.3.3c0 .2-.1.4-.3.4a.3.3 0 0 1-.3-.4ZM49.7 19c0-.1.1-.3.3-.3l.3.3c0 .2-.2.4-.3.4a.3.3 0 0 1-.3-.4Zm-.8-1.1c-.2-.1-.3-.3-.2-.5 0-.1.3-.2.4-.1.2 0 .3.3.2.4 0 .1 0 .2-.2.2h-.2Zm2.1-1.5c0-.2.2-.4.3-.4.2 0 .3.2.4.4 0 .1-.2.3-.4.3a.3.3 0 0 1-.3-.3Zm1.1 1.7V18c0-.2 0-.3.2-.3s.3 0 .4.2l-.1.4H52Zm1.9 1.7c0-.2 0-.3.3-.3.1 0 .3.1.3.3 0 .2-.2.3-.3.3-.2 0-.4 0-.4-.3Zm1.4-1.8c0-.2.2-.4.3-.4.2 0 .4.2.4.3 0 .2-.2.4-.4.4-.1 0-.3-.2-.3-.4Zm-1-1.2c0-.2.1-.3.3-.3.1 0 .3.1.3.3 0 .2-.1.3-.3.3a.3.3 0 0 1-.3-.3Zm-.8-1.1h-.3v-.3c0-.1 0-.3.3-.3.1 0 .3 0 .3.2s0 .4-.2.4h-.1Zm3.6-.3c0-.2.2-.4.4-.4l.3.3c0 .2-.1.4-.3.4-.2 0-.4-.1-.4-.3ZM56 15c0-.2 0-.3.2-.3s.4.1.4.3c0 .1-.2.3-.4.3-.1 0-.3-.1-.3-.3Zm-1.3-1c0-.2.2-.4.4-.4l.3.3c0 .2-.2.4-.3.4a.3.3 0 0 1-.4-.4Zm3.4-1.1c0-.2.1-.3.3-.3.2 0 .3.1.4.3 0 .2-.2.3-.4.3-.1 0-.3-.1-.3-.3Zm-1.5-.4c0-.2.1-.4.3-.4.2 0 .3.2.3.4 0 .1-.1.3-.3.3a.3.3 0 0 1-.3-.3ZM56 11c0-.2.1-.4.3-.4.2 0 .3.2.3.3 0 .2-.1.4-.3.4a.3.3 0 0 1-.3-.4Zm2 0c0-.2.2-.3.4-.3s.3.1.3.3c0 .2-.1.3-.3.3-.2 0-.3-.1-.3-.3Zm-1.3-1.4c0-.2.2-.3.3-.3.2 0 .4.1.4.3 0 .2-.2.3-.4.3a.3.3 0 0 1-.3-.3Zm-1.2-1c0-.2.2-.3.3-.3.2 0 .4.1.4.3 0 .2-.2.3-.3.3a.3.3 0 0 1-.4-.3Zm1-.8c0-.1.1-.3.3-.3.2 0 .3.1.4.3 0 .2-.2.4-.4.4a.3.3 0 0 1-.3-.4ZM55 7.2c0-.2.1-.4.3-.4.2 0 .3.2.3.4 0 .1-.1.3-.3.3a.3.3 0 0 1-.3-.3Zm3.3 2.1c0-.2.1-.4.3-.4.2 0 .3.2.3.4 0 .1-.1.3-.3.3a.3.3 0 0 1-.3-.3ZM34.5 22.2c0-.1.2-.3.4-.3l.3.3c0 .2-.2.4-.3.4a.3.3 0 0 1-.4-.4Zm3.6 4.5-.2-.1v-.3c0-.2.3-.3.4-.3l.2.2v.2c0 .2-.1.3-.3.3Zm-2.9-1.9c0-.1.2-.3.4-.3l.3.3c0 .2-.2.4-.3.4a.3.3 0 0 1-.4-.4Zm0 0"/>
    </g>
  </g>
  <path fill="#81a82c" d="m46 52.3.1-.1.3-.1h.9-.3l-.4.2H46Zm0 0"/>
  <path fill="#81a82c" d="M47 52.3V52c.1-.3.3-.6.6-.7h.2l-.3.4-.3.3-.2.1Zm1.1 2.2v-.1H48l-.3-.2-.3-.1h-.2l-.3-.2h-.3v-.1h.9l.3.1.3.3v.3Zm0 0"/>
  <path fill="#81a82c" d="m48 54.6-.3-.2-.3-.2h-.2l-.1-.1h-.3l-.2-.1h-.2l.2-.1h.9l.2.1.1.2.2.2v.2Zm0 0"/>
  <path fill="#81a82c" d="M47.7 54.5v-.1l.3-.3.2-.2.5-.4.5-.3 1.2-.5-.4.3-.5.4a14 14 0 0 1-1.7 1v.1Zm0 0"/>
  <path fill="#81a82c" d="m47.7 54.3.2-.3a6.7 6.7 0 0 1 1.4-1l.2-.2h.2l.2-.1.2-.1h.3l.1-.1-.3.2-.4.4a27.4 27.4 0 0 1-1 .6l-.5.3-.5.2-.1.1Zm2.8 1.5Zm0-.1.2-.3.2-.2.3-.2h.4a1.2 1.2 0 0 1 .5 0h.1l.2.2h-.8l-.2.1h-.1l-.2.1-.2.1-.2.2h-.2v.1-.1Zm0 0"/>
  <path fill="#81a82c" d="M50.7 55.7c0-.1 0-.2.2-.2l.2-.2-.2.3h-.2Zm1.1-.4h-.2l.1-.1h.5a1 1 0 0 1-.4 0Zm.2-.1h.1Zm0 0"/>
  <path fill="#81a82c" d="M52.1 55.3v-.5l-.1-.3V54l.2-.4v1.7Zm0 0"/>
  <path fill="#81a82c" d="m52.2 55.2-.1-.1V55c0-.1 0-.1 0 0v.2Zm0 0"/>
  <path fill="#81a82c" d="M52 55.2v-1.9l.2-.2v-.3l.2-.1v-.1 1l-.2.5v.5l-.1.3v.2H52Zm2-.8v-.5l.2-.3.3-.2.4-.3h.2l-.2.2-.2.2-.2.2-.1.2-.1.2h-.1v.1l-.2.2Zm0 0"/>
  <path fill="#81a82c" d="M54 54.3V54l.1-.3.5-.5.2-.2h.1v.2l-.3.3a5 5 0 0 1-.5.6l-.2.1Zm0 0"/>
  <path fill="#81a82c" d="M54 54.4v-.2l.3-.4.3-.3.1-.1v.2l-.2.3a11.5 11.5 0 0 0-.2.3l-.2.2Zm0 0"/>
  <path fill="#81a82c" d="M54 54.4v-.1l.2-.2v-.2l.3-.2-.2.4-.2.3Zm0 0"/>
  <path fill="#81a82c" d="M54 54.4c-.1 0 0-.1 0-.2V54l.2-.3.3-.3.4-.3-.2.4-.4.5v.1l-.2.1c0 .2-.1.2-.2.3Zm0 0"/>
  <path fill="#81a82c" d="M53.9 54.3V54l.2-.5.2-.3.3-.1.2-.2-.1.2-.1.2-.2.2v.2l-.3.2-.1.3-.1.1Zm0 0"/>
  <path fill="#81a82c" d="m54.9 53.4-.2-.2-.3-.3-.5-.7-.3-.7-.2-.8V50v.2l.2.4.2.3.1.3.2.4.2.4.3.7.1.4.1.1v.2Zm0 0"/>
  <path fill="#81a82c" d="M54.6 53.3h-.2V53l-.3-.3a4.6 4.6 0 0 1-.8-2.2v-.8.1l.2.3.1.6.1.3.2.6.2.5.2.6.2.3v.2Zm0 0"/>
  <path fill="#81a82c" d="m54.6 53.2-.1-.1-.2-.3-.2-.2-.1-.2V52h.3v.2l.1.3.2.4v.2Zm0 0"/>
  <path fill="#81a82c" d="m54.6 53.4-.5-.6a6.5 6.5 0 0 1-.6-1.4V51l-.1-.4V50v.1l.1.3.1.4.3.7.3.7.1.4.1.4.1.2v.2h.1ZM46.8 46l-.6-.1c-.3 0-.5-.2-.7-.3l-.7-.3-.6-.3-.6-.4c-.2 0-.3-.1-.4-.3l-.3-.1-.2-.2-.4-.4-.3-.4-.2-.2h.3l.5.3.4.3.4.3a73.2 73.2 0 0 0 1.6 1l.6.2.4.2.4.1.5.2h1l1.1.2h.6l-.4.2a7.4 7.4 0 0 1-1.5.2l-.9-.1Zm0 0"/>
  <path fill="#81a82c" d="m47.3 46-1.7-.4a15.8 15.8 0 0 1-1.5-.6l-.4-.1-.3-.2-.6-.5-.2-.3-.2-.3-.2-.3-.2-.3-.2-.2v-.2l.3.2.2.2.6.5.1.2.3.2.3.3.2.2.4.1a15 15 0 0 0 2.4.8l1 .1h2.5l-.4.2-.4.1-.4.1-.3.1h-1.3Zm0 0"/>
  <path fill="#81a82c" d="M48 46.2c-.3 0-.6 0-.8-.2a11.2 11.2 0 0 1-1.5-.4l-.8-.2a5.5 5.5 0 0 1-1.2-.5l-.3-.3h.3l.4.1.3.1.3.1.4.2.5.1.9.2 1 .2 1 .2h.8l.2-.1.2-.1.2-.1-.2.2a1.3 1.3 0 0 1-.5.5H48Zm0 0"/>
  <path fill="#81a82c" d="M48.5 45.8c0-.2.1-.4.3-.4.1 0 .3.2.3.4 0 .1-.1.3-.3.3a.3.3 0 0 1-.3-.3Zm0 0"/>
  <path fill="#81a82c" d="m48.2 46 .1-.2.1-.1.3-.3.6-.6.4-.2.3-.3.7-.5c.3 0 .5-.2.7-.3l.8-.2h.5l.1-.1-.6.4-.3.2-.4.2a10 10 0 0 1-1 .5l-.3.3-1 .6-.4.3-.5.2Zm0 0"/>
  <path fill="#81a82c" d="m49.2 45.6.3-.4.5-.5h.2c0-.2.2-.2.3-.3l.5-.2-.3.4c-.2 0-.3.2-.4.3-.3.2-.6.5-1 .6l-.1.1Zm0 0"/>
  <path fill="#81a82c" d="M49.1 45.7H49v-.4l.4-.3.4-.3.4-.3.2-.1c0-.1 0-.2.2-.2h.3v.3h-.1l-.1.1-.2.1-.2.2-.2.1-.1.2-.3.2-.1.1-.1.1-.2.2h-.2Zm0 0"/>
  <path fill="#81a82c" d="M49.1 46.1v-.3l.3-.3.5-.5a3.8 3.8 0 0 1-.6 1l-.2.1Zm0 0"/>
  <path fill="#81a82c" d="M49.2 45.9v-.1l.1-.2.2-.2.2-.1-.1.2-.2.2-.1.2Zm0 0"/>
  <path fill="#81a82c" d="m49.2 45.9.1-.3.2-.3.6-.5c0 .2-.2.3-.3.5l-.2.3h-.1c0 .2-.2.2-.3.3Zm-10.7-5.6v.2-.2Zm-3.1 4.8.1-.1h-.1Zm8.7.8Zm-19 0H25Zm3 0Zm.4.4h.2-.2Zm9 1.3h.2-.1Zm-3.7 1H33a16.4 16.4 0 0 1-1.9-.3h-.5c-.3-.2-.6-.2-1-.3h-.1l-1.7-.5a4 4 0 0 1-1-.5h-.6l-.3-.2h-.2l.3-.1h-.4l-.4-.1-.4-.2-.4-.1c-.2-.2-.4-.3-.4-.6v-.2l.2-.1h.9l.6.1H30a6.4 6.4 0 0 1 1.2 0H33l.4-.1.3-.1.4-.2.5-.2 1.1-.6.3-.2.5-.6.6-.8a4.1 4.1 0 0 0 .6-1.2l.3-1 .1-.5.2-.5v-.2l.1-.2.1-.4v-1.3l-.1-1.4v-.6l-.1-.3v-.7l-.1-.5v-.5.1l.1.2.2.3.3.8.1.8v.8l.2.8v2.5a14.5 14.5 0 0 1-.5 3.4l-.4.7-.2.4-.3.3-.7.5-.3.3c-.2 0-.3 0-.4.2-.3 0-.5.2-.8.3l-.8.4-.9.2a8 8 0 0 1-.8.2l-.9.2h-.9l.3.1.8.1.7.1h.7l.8.1h4.1a43 43 0 0 0 2.2-.3l.7-.2 1.3-.4.4-.1.4-.2a3 3 0 0 1-.7-.3l-.7-.6a6 6 0 0 1-.5-.7l-.3-.3-.2-.3a5 5 0 0 1-.3-.8v-.4a2 2 0 0 1 .1-.9v-.1l.2-.5.3-.3s0-.2.2-.2v-.1.3l-.1.2v.4l-.1.5v.4l.2.5v.3a4.5 4.5 0 0 0 .5.6l.4.6c.2 0 .3.2.4.3l.4.3.4.3.2.1h.1l.1.2h.2l.4.3h.3-.2l.1.1h.4v-.1l-.2.2-.3.2-.3.2-.7.4-.8.3-.8.2-.8.2-.8.2-.8.2h-.2a13.8 13.8 0 0 1-1.4.4h-.8l-.6.1h-1c-.4.2-.8.2-1.1.2h-1Zm0 0"/>
  <path fill="#81a82c" d="M35 47.8h-.3l-.3-.2h2l.4-.1h.7l.2-.1h.3l.8-.2.8-.2h.3l1.4-.6.7-.2.7-.3.5-.2.3-.1-.1.2-.3.2-.3.2-.3.2-1.4.5-1.5.4-.7.2a3 3 0 0 1-.4 0l-.4.1-1.5.2h-1.5Zm0 0"/>
  <path fill="#81a82c" d="M34.4 47.6h-.1l.2-.1.9-.2h.8l.7-.1 1.5-.2h.4l.3-.1a49.8 49.8 0 0 0 3-.6l.6-.1.5-.1.5-.2h.5l-.5.3-.6.3-.7.2-.8.2H41l-.4.1-1.6.2-1.5.2-.7.1-.8.1h-1.5Zm0 0"/>
  <path fill="#81a82c" d="M36 47.7h-.2l.1-.1h.2l.3-.2.7-.1h.7l.6-.2h.4l1.2-.2 1.2-.3 1.3-.4.6-.2.6-.2h.1l-.4.3-.6.3a6 6 0 0 1-1.4.5l-2.6.4-.7.1-.6.2H36Zm0 0"/>
  <path fill="#81a82c" d="m42.2 46.4.6-.4.5-.1h.2l-.6.3a3 3 0 0 1-.7.2Zm-7.3 1.4h-.5l1-.2 1.8-.3 1.4-.2 1.4-.4.7-.2c.3 0 .5-.2.8-.3l.8-.4.6-.2.4-.1h.1l-.2.2-.3.2-.6.4-.7.4-.8.2a17 17 0 0 1-1.5.4l-1.5.3h-.7l-.8.2H35Zm12.6-2-.8-.1-.7-.2-.8-.2-.3-.1-.3-.2c-.2 0-.3 0-.4-.2l-.4-.1a35.4 35.4 0 0 1-1.2-1c-.2 0-.3-.3-.5-.5l-.2-.3-.2-.3a4 4 0 0 1-.3-.6v-.7l.1.3.2.3.2.3.4.5c0 .2.2.3.3.5a7.6 7.6 0 0 0 1.7 1.3l.4.2.4.2.5.2a5.5 5.5 0 0 0 1 .3 10.8 10.8 0 0 0 .9.1h.2l.7.2h.5l-.3.1h-1.1Zm4.7-5.1.2-.1h.1l.8-.5.4-.2.4-.1.2-.1.2-.1.3-.2.4-.3.4-.4a14.7 14.7 0 0 0 2.3-2.5l.6-1.1.3-.7.3-.8.1-.3.2-.3c0-.3.2-.5.3-.7l.2-.6.2-.3.1-.2v1.2l-.3.8-.2.7-.3.7-.4.8a17.8 17.8 0 0 1-1.4 2l-.5.6-.6.6-.7.6-.6.5-.7.5a5.4 5.4 0 0 1-1.8.5h-.5Zm0 0"/>
  <path fill="#81a82c" d="m51.6 40.8.1-.1.4-.2.6-.3.6-.4a17.6 17.6 0 0 0 2.7-1.7l.9-.9.5-.6.4-.6.4-.6.3-.6.4-.8.3-.9a13.7 13.7 0 0 1 .8-1.9l.1-.2v.6l-.1.7-.2.8-.1.5-.2.4-.2.4-.2.4v.1l-.2.3v.1l-.4.7-.5.7-.5.7-.3.3-.2.3-.6.5-.6.5a14.8 14.8 0 0 1-2 1.3l-.4.2-.3.1h-.4l-.3.2h-.8Zm0 0"/>
  <path fill="#81a82c" d="m54.8 41-1.1-.1-.5-.1h-.3l-.2-.1h.1l.2-.2h.8a2.8 2.8 0 0 1 .8 0l.8.2h.1l.2.2-.1.2a3 3 0 0 1-.8 0Zm0 0"/>
  <path fill="#81a82c" d="M55 41.1v-.2l.2-.4.5-.7.5-.6.6-.7v-.1l.6-.9.5-.8.1-.1.4-.6.2-.3v.3a7.6 7.6 0 0 1-.4 1.1l-.2.4-.4.7c-.3.4-.6 1-1 1.3a19.6 19.6 0 0 1-1 1.2h-.2l-.1.2h-.1v.1l-.2.1Zm0 0"/>
  <path fill="#81a82c" d="M54.4 41v-.1l.2-.3.3-.3.2-.4.2-.3.3-.3.6-.6.5-.7.5-.5.5-.4-.4.8a13 13 0 0 1-1 1.3l-.6.7a6 6 0 0 1-.5.6l-.6.4h-.2Zm0 0"/>
  <path fill="#81a82c" d="M55 40.8v-.3l.2-.3.4-.8.3-.3.3-.4a19 19 0 0 1 1.4-1.3l-.4.7-.5.6-.6.7-.2.4a4.6 4.6 0 0 1-.5.5l-.2.3-.2.2Zm0 0"/>
  <path fill="#81a82c" d="m53.5 40.5.2-.2.6-.4 1.2-.7.6-.4.7-.2-.6.5a8 8 0 0 1-.7.5l-.7.5-.8.3h-.2l-.3.1Zm0 0"/>
  <path fill="#81a82c" d="M54.1 40.5H54h.1l.5-.4.4-.3h.2c0-.2.2-.3.3-.4l.4-.2.5-.3-.4.6-.6.6-.7.4h-.5Zm0 0"/>
  <path fill="#81a82c" d="m54 40.7-.2-.1v-.4h.2l.3-.1h.2l.1-.1h.1l.2-.2 1-.6-.5.5-.2.3v.4l-.2.1h-.2v.1h-.2l-.3.1H54Zm5-5.2.2-.2.3-.3 1-.7v-.1h.2l.9-.6.4-.2.3-.1-.5.5-.4.3-.5.4h-.1l-.2.1-.4.3-.4.2-.4.3-.4.1Zm0 0"/>
  <path fill="#81a82c" d="M58.7 35.6v-.1l.1-.1.2-.3a5.2 5.2 0 0 1 1.3-1l1.2-.7.5-.2h.3l-.3.2c-.2 0-.3.2-.5.3l-.6.4-.6.3-.3.2-.3.3-.4.2-.3.2-.3.3Zm0 0"/>
  <path fill="#81a82c" d="M59.2 35v-.3c.2 0 .2-.2.3-.3a4 4 0 0 1 1.3-.9l.6-.3h.9l-.4.1-.6.3-.8.5-.3.2-.4.2-.2.2h-.2v.1h-.1l-.1.2Zm8.4-1.2h.1-.1Zm0 0"/>
  <path fill="#81a82c" d="M67.2 33.8h-.5l-.2-.1H66l-.3-.1-.6-.1-.7-.1h-1.2l-.2-.1h-.4l-.8-.2h-.4V33h.3l.4-.2h2.2l.5.1h.5l.6.1h.8v.1h.4v.4l.1.2v.1h.1-.1Zm1.1 2.4h-.1L68 36l-.3-.2-.4-.3-.3-.3h.3l.4.3h.1l.2.2.1.2.2.2Zm0 0"/>
  <path fill="#81a82c" d="m68 36.1.3-.2.5-.2h.4l-.2.1-.2.1-.2.1h-.3l-.3.1Zm0 0"/>
  <path fill="#81a82c" d="m68 36 .1-.1.5-.2h.6-.2l-.3.2H68Zm2.7.6v-.1h-.2l-.1-.1H70l-.5-.1h-.2l.3-.2h.5l.4.2v.2h.1Zm0 0"/>
  <path fill="#81a82c" d="M70.4 36.4h-1.2v-.1l.3-.1h.7l.2.1.2.2h-.2Zm0 0"/>
  <path fill="#81a82c" d="M70.5 36.4h-.7l-.4-.2.4-.1h.5l.3.2.1.1h-.2Zm0 0"/>
  <path fill="#81a82c" d="M70.3 36.5V36l.1-.1.2-.2h.4c0 .2-.1.2-.2.3l-.3.3h-.1Zm0 0"/>
  <path fill="#81a82c" d="M72.3 36h-.8l-.4-.2h-.4l.2-.1h.6l1 .1.2.1h.1-.1l-.2.1h-.2Zm0 0"/>
  <path fill="#81a82c" d="M72.4 36.1v-.3l.2-.2.1-.2.2-.2h.3-.2l-.2.3-.1.2-.2.2-.2.2Zm0 0"/>
  <path fill="#81a82c" d="M72.6 36.1v-.2l.1-.4.2-.1.1-.2v.2l-.2.3c0 .2-.1.3-.2.3v.1Zm0 0"/>
  <path fill="#81a82c" d="M72.4 36.1v-.4a1 1 0 0 1 .5-.5v.1l-.2.3v.1l-.2.3v.1Zm0 0"/>
  <path fill="#81a82c" d="m72 35.9-.5-.1h-.1l.2-.1a2.8 2.8 0 0 1 .7 0l.4.2h-.8Zm-.3-1 .2-.2h.2c.1-.1.2-.2.4-.1l-.5.2h-.3Zm0 0"/>
  <path fill="#81a82c" d="m72.4 34.8-.2-.1-.2-.4V34c0-.2 0-.3.2-.4v-.1.5l.1.5.1.2v.1Zm-.2-.3v-1 1.1Zm-60.7.1.1-.4.6-.6.7-.5.7-.4h.2l.7-.4.6-.4.3-.2.5-.5-.3.7-.2.3-.3.3-.3.2a4.8 4.8 0 0 1-1.2.6l-.4.2-.3.1a2.7 2.7 0 0 0-.4.3l-.4.3-.3.2-.2.2-.1.1v-.1Zm0 0"/>
  <path fill="#81a82c" d="m11.5 34.3.2-.3.3-.2.2-.3.6-.4.7-.5.8-.5.2-.3 1-.7.2-.1v-.1.2l-.3.4a5.2 5.2 0 0 1-.9.9l-.3.3-.6.5c-.2 0-.4.2-.5.3l-.6.3a16.2 16.2 0 0 0-1 .5Zm0 0"/>
  <path fill="#81a82c" d="m14.2 32.7.2-.3a10.7 10.7 0 0 1 .5-.6l.1-.2.3-.4h.1c0-.1.2-.2.3-.1.2 0 .2.2.1.4l-.1.2-.2.2-.4.2-.4.3-.2.2h-.3Zm0 0"/>
  <path fill="#81a82c" d="M15.7 32h-.2a1.9 1.9 0 0 1-1.4-1.3v-1.4.1l.2.2v.1l.1.3.1.4.2.3.1.3.2.3v.1l.3.3.3.2.1.1Zm0 0"/>
  <path fill="#81a82c" d="m15.6 32.2-.4-.1-.3-.2-.2-.3c-.4-.4-.5-1-.5-1.5v-.5l.1.2.2.4.2.5v.1l.2.5.2.2c0 .2.2.3.3.4l.2.3Zm11.1 1.2H26l.6-.2.3-.1.3-.2.4-.2.5-.4.1-.1.2-.3.2-.3.2-.5.3-.5.2-.6.3-.4v.7l-.2.8-.2.4-.1.3-.4.7-.3.3-.3.3a3 3 0 0 1-.8.3H27l-.3.1Zm0 0"/>
  <path fill="#81a82c" d="M25.8 33.7h-.3l-.2-.1-.2-.1H25l-.1-.2-.2-.1-.3-.3-.2-.3v-.4a1.5 1.5 0 0 1 0-.8v-.1a1.6 1.6 0 0 0 .1.5 6.2 6.2 0 0 0 .3.5l.1.2a1.8 1.8 0 0 0 .4.3l.2.2h.4l.1.1h1.1l.6-.1.6-.2.3-.2h.1v.2c-.2 0-.2.2-.3.2a5 5 0 0 1-.7.4c-.2.2-.5.2-.8.3a2.8 2.8 0 0 1-.8 0ZM8.5 43.2h-.7a9 9 0 0 1-.9-.2c-.2 0-.5 0-.8-.2l-.8-.2-.8-.2-.8-.2-.8-.2-.8-.3v-.2l.2-.2H4l.8.3a22.2 22.2 0 0 1 2 .5l1 .2h.5v.2l.2.3.1.3v.1Zm.9 0h-.2.2Zm.2-.1v-.4h.1v-.4l.1-.1 1.3-.2h.1v.2h.1l.1.1.1.2.1.2v.1h-.2l-1.6.3h-.1Zm5.3-1.9-.5.4-.3.2-.3.2-.8.4-.3.1V42l.1-.1v-.3h.1l.5-.3.4-.2.3-.2.4.2.4.1Zm0 0"/>
  <path fill="#81a82c" d="M24 40.6v-.1c0 .1 0 .2-.2.3l-.3.3a3.4 3.4 0 0 1-1 .7l-.5.2-.4.1-.4.2H21l-.8.2h-.9l-.8.1h-.9c-.5 0-1 0-1.6-.2h-.4a12.2 12.2 0 0 1-1.2-.4H14l-.4-.2a.5.5 0 0 1-.5-.3 14.2 14.2 0 0 1 .6-.3l.3-.2.5.2a7.6 7.6 0 0 0 1.8.5l.9.1h2.6a9.2 9.2 0 0 0 1.9-.6l.7-.3.5-.4.1-.1.5.1.3.1v.1Zm1.3.8h.1v-.2h.1V41h.1v-.2h.1v-.2l1-.2.8-.1.8-.1a5.2 5.2 0 0 0 .8-.2l.8-.4.4-.3a7.3 7.3 0 0 0 1-1l.1-.2.3-.6.2-.4V37l.2-.2v-.1l.2-.3.1-.2a4.3 4.3 0 0 1 .1-.4l.1-.2V35h.1v-.2l-.1.1v.2-.5l.1-.1v-.2l.1.3.1.4.1.8v.9l-.3.8a5.3 5.3 0 0 1-2.4 3l-.3.2-.3.1-.3.2-.8.2-.8.1-1.6.1a73.3 73.3 0 0 1-.9 0Zm0 0"/>
  <path fill="#81a82c" d="M24 41.3v.1h-.3l-.9-.3a4 4 0 0 1-.5-.3h.1l.5-.4.2-.1.4.1h.4v.1h.2v.3l-.1.4Zm41.4-14.5c0-.1 0-.2-.2-.2l-.2-.2.1-.1.3-.3.6-.7 1-1 .7-1 1-1.2.1-.4.2-.3.4-.6.8-1.3a7 7 0 0 1-.5 2l-.4.8-.4.6-.4.7a14.2 14.2 0 0 1-2 2.1l-.8.9-.2.2Zm0 0"/>
  <path fill="#81a82c" d="m68.3 23.6.2-.7.2-.8c0-.3.2-.5.3-.8a8.4 8.4 0 0 0 .5-1.6c0-.2 0-.5.2-.7a8.2 8.2 0 0 0 .1-1.7v-.8l-.1-.5-.2-.7-.2-.4-.1-.3-.3-.7-.2-.7-.4-.7v-.3l-.2-.5.2.3.4.4a5 5 0 0 1 1 1.5l.1.4.2.3.1.4.1.4.2.7c.2.5.2 1 .2 1.6l-.3 1.6-.2.8-.2.7-.2.4v.2l-.1.2v.1l-.3.6-.4.5a6.7 6.7 0 0 1-.5.7h-.1Zm0 0"/>
  <path fill="#81a82c" d="M67.5 24.3V24h.1v-.2h.1v-.2l.1-.1v-.1l.4-.8.2-.5.2-.4.3-.7a18.8 18.8 0 0 0 .4-2v-3.4a8 8 0 0 0-.3-1v-.4.1l-.2-.4-.1-.6-.2-.5-.1-.5-.1-.3-.1-.2.3.3a5.5 5.5 0 0 1 1 1.5v.4l.2.4a33.7 33.7 0 0 1 .2 1.6l.1.8v1.7a20.6 20.6 0 0 1-.3 1.7l-.2.8-.3.8-.4.8-.6 1-.4.4-.2.1-.1.2Zm-10-7.3.3-.3.1.3-.5.3h-.1l.2-.3Zm0 0"/>
  <path fill="#81a82c" d="M57.4 17.1v.1l-.1.1.1-.2ZM6 46.7a4.6 4.6 0 0 1-1.2-.3l-.7-.3-.7-.4a4 4 0 0 1-.7-.4l-.2-.3-.3-.2v-.2h.1l.6.2a13.8 13.8 0 0 1 1.3.6l.6.2a6.4 6.4 0 0 0 2.1.5h.2l2 .2-1.5.4H6Zm0 0"/>
  <path fill="#81a82c" d="M10 46.3H8a33.5 33.5 0 0 1-3-.2l-.4-.1-1.2-.4h.2l.4-.1a16.3 16.3 0 0 1 1.3 0h8.3a9.5 9.5 0 0 1 2.3.1 12.3 12.3 0 0 1-2 .5H13l-1.7.1H10Zm0 0"/>
  <path fill="#81a82c" d="M6.7 46.4a8 8 0 0 1-3.1-1 3.8 3.8 0 0 1-1.3-.8L2 44v-.2l.1.2c.5.2.9.3 1.3.6l.7.3.6.3h.1l1 .3 1.2.2h6.3l-1.6.5-.8.1a40 40 0 0 1-2.5.1H6.7Zm0 0"/>
  <path fill="#81a82c" d="M7.5 46.4a5.8 5.8 0 0 1-1.2-.2h-.4l.2-.1.5-.1.8-.1h.8l1-.1 1.6-.2 1.8-.2 1.6-.2.8-.1.9-.1 1.6-.1h1.7a9 9 0 0 1 2.4.2 17.5 17.5 0 0 1-2.3.4h-1.6l-3.3.3-1.7.2-1.7.2-1.7.1H7.5Zm0 0"/>
  <path fill="#81a82c" d="M10.5 46.1a3 3 0 0 1-.4 0l.4-.2h.4l.8-.2.8-.1 1-.1 1.6-.3 1.7-.2a104.1 104.1 0 0 1 5.1-.4h1.8a20.3 20.3 0 0 0 1.7 0 8.8 8.8 0 0 1 2.4.3l-1.5.3h-5.1l-3.4.2-3.5.4-1.7.2a21.3 21.3 0 0 1-1.7.1h-.4Zm0 0"/>
  <path fill="#81a82c" d="M33.2 45.4h-.8l-3.4-.2h-3.4l-1.7-.1h-4.4l.2-.1.3-.1.6-.1.6-.1h1.1l1.8-.1h1.7a321 321 0 0 1 5 0h1.8l1.5.2 1.5.3a8.7 8.7 0 0 1-2.4.3Zm0 0"/>
  <path fill="#81a82c" d="M29.8 45.3a9.1 9.1 0 0 1-1.3-.2h-.2l.7-.2a16 16 0 0 1 1.7-.3h.9l.5-.2h.6l.6-.2.5-.2.4-.2.4-.2.4-.2.4-.3.3-.2a5.5 5.5 0 0 0 1.1-1.1v-.1a4.5 4.5 0 0 0 .7-1.2l.2-.7.2-.8v-.1l.4-1.5.2 1.5a4.4 4.4 0 0 1-.3 1.6c0 .3-.1.6-.3.8a6 6 0 0 1-1.6 2 8.6 8.6 0 0 1-2.3 1.3l-.3.2-.5.1-.8.2a10 10 0 0 1-1.7.2h-.9Zm0 0"/>
  <path fill="#81a82c" d="m32.5 45.4-1.2-.3.7-.1.6-.2c.3 0 .5-.2.8-.3.3 0 .4-.2.6-.3l.5-.2a6.9 6.9 0 0 0 1.7-1.5 6.3 6.3 0 0 0 .9-1.6l.3-1 .1-1 .2-1v-.8l.1-.8.2-.8c0-.3.2-.5.3-.7v-.1.6l.1.4v2.6l-.4 1.9a9.3 9.3 0 0 1-1 2.3 7.4 7.4 0 0 1-1.7 1.8l-.7.5-.7.4-1.2.2h-.2Zm.3.1.6-.5.8-.4 1.5-.5 1-.3a17.3 17.3 0 0 1-3 1.5 3.2 3.2 0 0 1-.7.2h-.2Zm0 0"/>
  <path fill="#81a82c" d="M37.7 39.1v-2.8l-.1-1.3-.1-.7v-.6l-.1-.5-.1-.3v-.3l-.1-1.2-.1-.5v-.2H37l.2.1.3.6.5 1.2v.4l.1.4v.4l.1.4v.8a18.3 18.3 0 0 1 0 1.6v.9l-.1.8-.2.4v.3l-.2.1Zm0 0"/>
  <path fill="#81a92c" d="M60 9.1Zm-4 6.3.5.5v-.1h-.1c-.2-.3-.4-.5-.7-.6l-.2-.2-.3-.2h-.1l-.1-.1h-.2v-.1l1.1.8Zm.4 1.4V16l-.1-.1v-.2h-.1c0-.1-.1-.1-.1 0H56l-.2.1h-.1v-.1l-.2-.2-.3-.2-.6-.5-.2-.2-.4-.3h-.1l-.2-.2-.4-.2-.3-.2-.2-.1-.3-.2h-.2l-.1-.1H52l-.1-.1-.1-.1h-.1l-.2-.2-.6-.2-.4-.2h-.1l-.3-.1-.3-.1-.4-.1h-.2l-.1-.1-.5-.1h-.1l-.2-.1h-.1l-.6-.2H47l-.3-.1h-.4l-.5-.1h-.1a3 3 0 0 0-.4 0l-.2-.1H41l-1.7.2-1.6.1-1.7.2c-.5 0-1 0-1.6.2H34l-1.3.3a46.5 46.5 0 0 0-3.2.8l-.7.2-.8.2h-.5l-.2.1.2-.2h-.2l-.1-.1v-.2L27 13l.5-.2.6-.2.8-.4.9-.3.8-.2 1.7-.5 1-.2.9-.1 1.7-.3 3.6-.3h3.1a15.6 15.6 0 0 1 2.5.1 24.6 24.6 0 0 1 5.8 1.3l.2.1h.1l.9.3a16.3 16.3 0 0 1 2.3 1.1l.1.1h-.3l-.6-.3-.6-.1-.2-.1h-.2.5l.6.2.6.3c.3 0 .5 0 .7.2l1 .2h2.2l.4-.2.2-.1.2-.2.3-.2.2-.3.1-.2v-.2l.1-.3v-.4l-.1-.6-.3-1-.3-.6-.3-.4-.5-.7-.3-.2-.2-.1h.5l.3.1.4.1.3.1.3.2.6.3.2.2h.2l-.1.1-.2.2-.4.2h-.1l.2.1.2.2.6.3.6.5h.4l-.2.2h-.2a1 1 0 0 1-.4.1c.1.3.3.6.3 1l.2.6v.3l.2.2H61l-.6-.2h-.1l-.1.8v.2l-.1.5-.2.4-.1.4v.3h-.1l-.1-.1-.2-.2-.4-.4-.1-.2-.2-.2-.1.1-.4.5-.5.6-.3.3.2.2h-.1l.1.2c0 .2-.1.3-.2.3l-.2.3v.1h-.1l-.2.4-.6-.5Zm0 0"/>
  <path fill="#81a92c" d="m56.2 14-.7-.1-.6-.2-1.2-.3-.2-.1-1-.4-.5-.2a5 5 0 0 1-.5-.2l-.2-.1-.2-.1h.5l.6.2.7.2a41.5 41.5 0 0 0 2.6.7l.7.2.6.2.6.2h-1.2Zm0 0"/>
  <path fill="#81a92c" d="M56.8 13.8a7.7 7.7 0 0 1-1.4-.2c-.5 0-1-.2-1.4-.3l-.8-.3-1-.4-.2-.1h.6l.7.2.7.1.6.2.8.2.6.1h2.3l.2-.2a2.8 2.8 0 0 0 .7-.4l.2-.3.4-.4.1-.2v-.1l.1-.2v-.7l.1.2.1.2v.1l.1.3v.4c-.1.3-.2.5-.4.6l-.2.3-.3.2-.3.2-.3.2-.7.2-.7.1h-.6Zm0 0"/>
  <path fill="#81a92c" d="M57.2 14a2 2 0 0 1-.6 0h.2a4.1 4.1 0 0 0 .8-.3l.4-.3c.2 0 .3-.2.5-.3l.3-.3a3.7 3.7 0 0 0 .6-1v-.2h.1v-.1l.3-.6.2-.3v-.1a3 3 0 0 1-.2 1.4 4.2 4.2 0 0 1-1.3 1.8 2.3 2.3 0 0 1-1.2.4h-.1Zm0 0"/>
  <path fill="#81a92c" d="m55.6 14 1-.3 1.1-.1.3-.1h.2l.2-.2.3-.2.2-.2.2-.3a3.6 3.6 0 0 0 .4-.8l.2-.7v-.8l.1.1v.2a2 2 0 0 1 .2 1l-.1.5-.3.6a3 3 0 0 1-1.1 1.1c-.5.3-1 .3-1.6.3-.5 0-.9 0-1.3-.2Zm0 0"/>
  <path fill="#81a92c" d="M57.6 13.6v-.1h.1v-.1h.2l.4-.2h.2V13l.2-.2.2-.1.2-.2.1-.1s.1 0 0 0v.1l-.1.2h-.2v.2h-.1l-.2.2-.3.2H58l-.3.2h-.1Zm1.7-1.1v-.4h.1V12v.1h-.1v.1s-.1 0 0 0v-.4l.1-.1V10v.1h.1a3 3 0 0 1 .2.8v.9l-.1.2v.2h-.1v.3h-.2Zm0 0"/>
  <path fill="#81a92c" d="m57.3 13.5.1-.1h.3l.1-.1h.2l.2-.1.2-.1.1-.1.2-.1v-.1h.2v-.1l.2-.2.1-.1v-.1h.1v.2l-.1.1-.1.1-.1.1h-.1l-.1.2h-.2l-.3.2-.1.1H58a3.4 3.4 0 0 1-.5.2h-.2ZM65 26.4l.2-.2.1-.1.3-.4.3-.3.4-.5.2-.2v-.1l.2-.2.2-.2.1-.1.2-.2v-.2c.2-.1.3-.3.3-.4l.2-.2.2-.4.3-.3c0-.1 0-.2.2-.3l.1-.3v-.1l.2-.4.2-.4.1-.3v-.3l.1-.2.2-.4v-.1.5l-.2.4-.1.4-.2.4v.2l-.2.2v.1l-.1.2-.1.2-.2.3-.3.4-.2.4-.2.2v.1l-.2.2-.2.2-.1.2-.1.2-.3.3-.1.1-.1.2-.2.1-.1.2-.3.3-.2.3-.2.1v.1l-.1.1-.1.1H65v.1Zm0 0"/>
  <path fill="#81a92c" d="M66.7 24.7v-.1l.1-.2.2-.2v-.1l.2-.1v-.2h.1l.2-.4.5-.5v-.3l.1-.1.1-.1.2-.3.2-.3.2-.3v.2l.1-.2h.1v.2l-.2.1v.2h-.1l-.1.2-.2.3-.1.2-.1.1-.2.3-.1.3-.1.2-.1.1-.2.3v.2h-.1l.1-.4v-.2l-.1.2-.2.2v.1l-.2.1v.2h-.1v.2h-.1v.1Zm-7.4 10 .5-.5-.2.1-.2.2h-.2v.1H59v-.1l.2-.1.3-.2.6-.4.3-.1.3-.2.6-.3.2-.1h.1l-.1.1-.2.1-.3.2-.1.1-.3.2-.1.1-.2.1-.3.2-.3.2-.3.3Zm0 0"/>
  <path fill="#81a92c" d="M67 33.3h-.7l-.2-.1h-.5a4 4 0 0 0-.4-.1h-.4l-.3-.1h-2.9l-.2.1V33h.4l.4-.2h2.3l.5.1h.5l.4.1h.4l.5.1h.2s.1.1 0 .1c.1 0 0 0 0 0ZM39 47.4v-.1h.2l.2-.1.2-.1.4-.2.7-.3.4-.1.4-.3.4-.2.4-.2.2-.1.2-.2h.1l.1-.1h.1v.2h-.1v.1h-.1l-.2.1-.2.2h-.2l-.2.2h-.2l-.1.2h-.2l-.4.2H41l-.1.2h-.2l-.3.2-.9.3-.3.1Zm0 0"/>
  <path fill="#e6fbba" d="M11.9 35.4v.2-.2Zm1.5-3.2-.3.3-.2.4-.3.3c0 .2-.2.3-.3.5l-.1.4v.3l-.2.3-.1.5-.1.2v-.2l-.1-.6v-.3l.1-.3.1-.3.2-.3a2.7 2.7 0 0 1 .7-.9l.6-.3Zm0 0"/>
  <path fill="#e6fbba" d="m13.5 30.8-.3.6v.3l-.1.6v.3l-.2.3-.2-.4V32l.1-.6.5-1 .8-.9.2-.1v-.1l-.1.3-.2.4-.3.5-.2.4Zm1.4-3.3a10.4 10.4 0 0 1 .6-1.7 7 7 0 0 1 .6-1l.5-.5.2-.1.3-.2h.3l.3-.2H19l.6.4a4 4 0 0 1 .9.7l.3.4.2.6v.6l-.2.4v-.1l-.1-.6-.1-.3v-.2l-.2-.2-.2-.3-.4-.3a5.5 5.5 0 0 0-.8-.5l-.2-.2h-1.1l-.3.2h-.2l-.2.2-.3.2-.2.3a5.5 5.5 0 0 0-.6 1l-.3.5c0 .2-.2.4-.3.5l-.2.3v.1H15Zm0 0"/>
  <path fill="#e6fbba" d="M20.6 27v-.3l-.1-.2-.2-.4-.1-.2-.2-.4-.2-.3-.2-.2-.2-.2-.2-.2-.2-.1-.3-.1-.3-.1h-.8l-.3.1-.4.2h-.1l-.4.3-.4.2-.1.1v-.1l.1-.1.4-.5.5-.3.6-.2.7-.1a2.6 2.6 0 0 1 1.2.4l.3.1.2.2.4.5.1.2v.3c.2.2.2.4.3.7v.4l-.1.3Zm0 0"/>
  <path fill="#e6fbba" d="M23.7 26.5h-1.4a8.1 8.1 0 0 0-1.6 0h-.2l-.1-.2h.2l.6-.2a7.4 7.4 0 0 1 1.4 0l.3.1.5.2h.3Zm0 0"/>
  <path fill="#e6fbba" d="M22.1 28v-.1l.1-.1.2-.3a7.4 7.4 0 0 1 .7-.9l.4-.4.2-.2.3-.2.2-.2.2-.2.5-.3a6.6 6.6 0 0 1 1.1-.6l.6-.2a4.3 4.3 0 0 1 2.2.1h-.6l-.8.2-.7.1-.5.2a7.4 7.4 0 0 0-1.5.8l-.5.4s-.2 0-.2.2c-.1 0-.2 0-.3.2l-.4.4-.5.4-.3.4-.2.1-.2.2Zm0 0"/>
  <path fill="#e6fbba" d="m32 26.5-.2-.1-.2-.2-.3-.2-.6-.4h-.1v-.1c-.3 0-.4-.2-.6-.3l-.6-.2-.4-.1h-.4l-.6-.1h-.4a3 3 0 0 0-.3 0h-.5l-.4.1-.5.2-.4.1-.8.3-.7.4v-.2c.2 0 .2-.1.3-.2l.5-.4.6-.2.5-.2.5-.2h.1l.7-.1h1.5l.6.2a8.2 8.2 0 0 1 1.2.4 2.7 2.7 0 0 1 .8.6l.3.3.4.6Zm0 0"/>
  <path fill="#e6fbba" d="m33.4 30.2-.3-.6-.4-1-.5-1.1a5.7 5.7 0 0 0-.6-1 4.6 4.6 0 0 0-.6-.5l-.3-.2-.3-.2a3 3 0 0 0-.3-.2h-.3l-.3-.2-.3-.1H29a7 7 0 0 0-.5-.2h-1.7l-.4.1H26l-.3.1h-.4l-.1.1H25l-.3.1.3-.2.6-.3.6-.1.6-.1H28a5.2 5.2 0 0 1 1.3.2l.6.1.5.3c.2 0 .4.2.5.3.2 0 .4.2.5.3a4.3 4.3 0 0 1 1.1 1.4l.3.6.4 1 .2 1v.4ZM1 40.3V40l-.2-.5-.1-.3v-.3l-.1-.6v-.6a5.2 5.2 0 0 1 .3-1.2l.2-.6.3-.4.2-.3.3-.2.5-.2a1.7 1.7 0 0 1 .6 0l.3.1.3.1h-1l-.2.1h-.1l-.2.2-.2.2-.3.2s0 .2-.2.3a5.5 5.5 0 0 0-.4.8v.5l-.1.3v1.8l.2.8v.1Zm0 0"/>
  <path fill="#e6fbba" d="M4 35.8v-.1l-.4-.2-.2-.1h-.2l-.2-.1h-.5l-.2.1-.2.1-.2.2a3.2 3.2 0 0 0-.4.4l-.2.2-.2.3-.1.3-.2.3-.1.3-.1.2-.1.2v.2H.3v-.4l.1-.5.1-.3.2-.3a7.5 7.5 0 0 1 .5-.8 2.7 2.7 0 0 1 .6-.5l.3-.2.2-.1h1c.2 0 .4 0 .5.2l.3.1.2.2.1.2.1.2h-.2l-.2-.1Zm0 0"/>
  <path fill="#e6fbba" d="M.6 38.7v-1.4l.2-.5a4.7 4.7 0 0 1 .8-1.3l.4-.3a5.2 5.2 0 0 1 1.1-.5l-.4.3-.5.4-.2.2-.2.2-.2.2-.1.1-.1.2-.1.2-.2.4-.2.4-.1.4v.2l-.1.3-.1.3v.2Zm7.8-1.6h-.2l-.5-.2-.4-.2-.4-.2a5.2 5.2 0 0 0-1.2-.5H3.9 4l.5-.2h1.2a5 5 0 0 1 1 .4l1.1.5.5.4.3.1h-.3Zm0 0"/>
  <path fill="#e6fbba" d="m7.6 36.6-.3.1-.4-.2A2.8 2.8 0 0 1 8 36h1.2l.6.2.6.1.6.2.5.2a11.9 11.9 0 0 1 1 .4l.4.2a42.7 42.7 0 0 1 .9.4H13l-.3-.1a4 4 0 0 1-.5-.2c-.3 0-.5-.2-.8-.3l-1-.4a6 6 0 0 0-.5-.1l-.5-.2a7 7 0 0 0-.5 0l-.3-.1H8l-.4.3Zm0 0"/>
  <path fill="#e6fbba" d="m14.9 32.8.3-.2c.2 0 .3-.2.4-.3.2 0 .3-.2.5-.3l.4-.3.4-.3h.1v-.1l.5-.3.4-.2-.3.4-.4.4-1 .8-.3.3c-.2 0-.3.2-.5.3l-.2.1-.3.2-.5.3-.5.3-.5.3-.5.3a5 5 0 0 0-.6.4l-.5.6-.8.9-.4.4-.1.3.1-.2-.2-.1.2-.4.3-.5.4-.5.4-.4.4-.4.6-.4.5-.3.8-.5.9-.6ZM40 25.4h-2.5l-1-.1h-1.3l-1.1.1h-.6l-.5.1-2.2.4-.2-.2.7-.2.6-.1.5-.1 1.1-.2h1.1l1.1-.2h1.6l.5.1h.5l.5.1.8.2.3.1Zm0 0"/>
  <path fill="#e6fbba" d="M40.2 25.4h-.6a16 16 0 0 1-.9.1h-4.2l-1.2.1h-.7l-.9.2-.8.1h-.2l-.1-.2h.4l.6-.2 2.2-.3h3.3l.5-.1h.5a5.9 5.9 0 0 1 1 0l.7.2h.2l.2.1Zm0 0"/>
  <path fill="#e6fbba" d="m47 20.4-.6.4c-.3 0-.5.2-.7.3l-1.3.6-1.3.7-1.2.6a19.4 19.4 0 0 0-2.9 1.7l-.5.4-.4.4h-.6l.4-.4.3-.3.2-.2.3-.2.3-.3c.4-.4.9-.6 1.3-.9l1.3-.6.7-.4.6-.2 1.3-.7.6-.3c.2-.2.5-.3.7-.3.4-.2 1-.3 1.4-.3Zm-9.7 5.7-.1.2V26Zm0 0"/>
  <path fill="#e6fbba" d="m50.8 19.6-1.3.5-.4.1-.4.1-.7.2-.8.2-.8.2a19.5 19.5 0 0 0-2.4 1l-.5.2-.6.4-1.1.6h-.1l-1.3.9-1.2.9-.3.2-.4.3-.1.1h-.6l.3-.3.2-.2.7-.5a27.6 27.6 0 0 1 3.6-2.5l.6-.3.7-.3a21.7 21.7 0 0 1 2.7-1L48 20a53.4 53.4 0 0 0 1.5-.4h1.3Zm0 0"/>
  <path fill="#e6fbba" d="m40 23.8.5-.5.6-.4.6-.4.7-.4 1.3-.6 1.4-.6a22.8 22.8 0 0 1 2.8-1l2.9-.6.7-.2.7-.2.6-.1.7-.2.7-.2.7-.2.6-.1.7-.1-.6.3a5.6 5.6 0 0 1-1.3.6l-.7.2-.7.1-.6.2-.7.2-.7.1-.7.2-.7.1-1.4.4c-.6 0-1 .2-1.6.4l-.6.2-.5.2a45.8 45.8 0 0 0-4.7 2.3l-.3.1-.3.2Zm0 0"/>
  <path fill="#e6fbba" d="m43.2 22.1.3-.3.6-.4c.3 0 .5-.2.7-.3l.7-.2 1.4-.5 1.4-.5 1.4-.4 1.3-.4 1.5-.3 1.3-.4.9-.2 1.3-.5.7-.2.7-.2a20.7 20.7 0 0 0 1.7-.8l.3-.2h.1l.7-.3.3-.2.3-.2a6.9 6.9 0 0 1-.6.8 13.2 13.2 0 0 1-.9.5l-.3.2-.3.1a26.8 26.8 0 0 1-2.6 1l-1.4.4-1.4.4-1.4.3-1.4.4-1 .3c-.4 0-.8.2-1.1.3l-2.8 1-.5.1-.7.3-.5.2-.3.1-.3.1Zm0 0"/>
  <path fill="#e6fbba" d="m53.4 18.8.7-.3.6-.3.7-.2.8-.3.7-.3a17 17 0 0 0 2-.8h.1l1-.5.3-.3a8.1 8.1 0 0 0 1-.8l.4-.4.4-.4-.3.6c0 .2-.2.4-.4.6l-.4.5-.3.2-.3.2a6.8 6.8 0 0 1-1.3.8l-.7.2-.7.3-1.4.5c-.3 0-.5.2-.7.3l-.8.2-.7.2h-.6Zm0 0"/>
  <path fill="#e6fbba" d="M60 16.2V16l.3-.3.4-.5.4-.5.4-.4.3-.6.2-.3.2-.8.2-.6v-.6l.2.4a3.7 3.7 0 0 1 0 1.4l-.3.6c0 .3-.2.5-.4.7l-.4.6-.3.3-.3.2-.7.4h-.1l-.2.1Zm0 0"/>
  <path fill="#e6fbba" d="m59.5 16.4.4-.4.5-.4h.1l.2-.2.2-.2.1-.1a6.2 6.2 0 0 0 .5-.7l.2-.5.2-.6a6.6 6.6 0 0 0 .2-1l.1-.8v-.3l.1.2.1.4.1.7v.8l-.2.4-.1.4-.3.7-.5.6-.3.3-.4.2-.3.2h-.3l-.6.3Zm0 0"/>
  <path fill="#e6fbba" d="m58.9 16.7.2-.1.7-.6.4-.3a5.7 5.7 0 0 0 1.2-1l.3-.5.2-.5.3-.8.2-1.2.2 1.3c0 .3 0 .5-.2.8l-.3.6-.2.4-.3.3-.5.5-.3.3-.3.2-.4.2-.3.2-.5.1h-.2l-.2.1Zm0 0"/>
  <path fill="#e6fbba" d="m59 16.8.2-.2.2-.1v-.1h.2v-.1l.1-.1h.1l.1-.2.6-.4a4.8 4.8 0 0 0 .8-.8 10 10 0 0 0 .5-1l.2-.5v-.6l.1-.6v-1.6a3.8 3.8 0 0 1 .5 2v.4l-.1.4-.2.7-.2.4-.2.3-.4.7-.7.6-.4.3-.4.2-.5.2h-.4Zm-31.9-3.2v-.2l-.1-.2.3-.2a21.2 21.2 0 0 1 3.6-2.9l1.2-.7a11.3 11.3 0 0 1 2.7-1l-1.1.8-.7.3-.7.4-.5.2-.9.6-.8.6c-.8.5-1.6 1.2-2.4 1.9l-.4.4-.1.1Zm0 0"/>
  <path fill="#e6fbba" d="M27.1 13.6v-.3l.2-.2.4-.3.5-.4A66 66 0 0 1 32 9.8l1.3-.8.6-.3.7-.4.6-.3.7-.3 1.4-.5 1.3-.4 2-.3-1.2.6-.7.2-.7.2a13.7 13.7 0 0 0-2.5 1l-1.3.5-.5.3a38 38 0 0 0-4.2 2.7l-1.2.9-.5.4-.3.2-.3.2Zm0 0"/>
  <path fill="#e6fbba" d="m28.6 12.2.2-.2.2-.3.6-.4.6-.4.7-.3 1.3-.8 1.3-.6a48.4 48.4 0 0 1 5.3-2.3c1-.3 1.8-.6 2.8-.7l.6-.2h.7a41.4 41.4 0 0 1 2.8-.4l.7-.1h.7l1 .1-.6.2-.7.1-.6.1h-.7l-.6.1-1.4.2-.6.1-.7.2c-.6 0-1.1.2-1.7.3l-1.3.4-1.4.4-1 .4-2.6 1.2-1.3.6-1.3.7-1.3.8-.7.3-.6.4h-.4Zm0 0"/>
  <path fill="#e6fbba" d="M34.3 9a4.8 4.8 0 0 1 1.2-.8l.7-.3.8-.2 3-1h.6l3-.7a28 28 0 0 1 2.2-.4h.8a18.6 18.6 0 0 1 3-.1H51l.7.1.7.1a28.1 28.1 0 0 0 3 .2 11.9 11.9 0 0 1 2.6.5 12.2 12.2 0 0 1-2.2 0h-.7l-1.5-.2h-1.5a150 150 0 0 1-3-.2h-.6a22.5 22.5 0 0 0-3.8.3l-1.5.2-1.5.3-1.5.3-.3.1-3 .9c-.3 0-.7.2-1 .4a8.7 8.7 0 0 1-1.2.3h-.3l-.2.1Zm0 0"/>
  <path fill="#e6fbba" d="m68 11.5-.6-.4a16 16 0 0 1-.5-.4l-1.2-.9-.2-.1A15.8 15.8 0 0 0 59.7 7a24.8 24.8 0 0 0-5.2-.8h-.4l-.3-.1L53 6l-.3-.1h.2l.3-.1h2.3L57 6l.7.1.7.2.8.1.8.2 1.4.5.7.2.7.3a20 20 0 0 1 1.3.6l1.2.7a14 14 0 0 1 2 1.7l.6.8Zm0 0"/>
  <path fill="#e6fbba" d="m67.8 11.6-.7-.5a14 14 0 0 1-1.7-1.3l-1.4-1-.6-.2a41.5 41.5 0 0 0-3.2-1.2c-.3-.2-.7-.2-1-.3l-2.8-.6-.7-.1-2.9-.3h-.2l-1.2-.3h2.3l1.4.2 1.5.1 1.4.2 1.4.3 1.4.4 1.3.5A18 18 0 0 1 65 9l.6.4.5.4.5.4a7 7 0 0 1 1.1 1.4Zm0 0"/>
  <path fill="#e6fbba" d="M62.5 8s0-.1 0 0c0-.1 0-.1 0 0 0-.1 0-.1 0 0l-.4-.1h-.3l-.7-.2-.8-.3-.6-.2c-.5 0-1-.2-1.5-.4-.5 0-1-.2-1.4-.3l-1-.2-1.4-.3H53l-1.1-.1c-.7 0-1.4-.2-2-.3l1.4-.1h1.5l1.4.1a29.7 29.7 0 0 1 3 .6l1.3.4L60 7l.7.2.7.2.7.3.2.2h.1V8Zm0 0"/>
  <path fill="#e6fbba" d="M60.8 7.3h-.5l-.6-.2L59 7a45 45 0 0 0-3.4-.7l-1.4-.2-1.4-.1H52l-.7-.2-1-.2 1.4-.1H53l1.4.2L56 6l1.4.3c.5 0 1 .2 1.4.3l.6.1.5.2.6.2.2.1h.1Zm0 0"/>
  <path fill="#e6fbba" d="M58.9 7a7 7 0 0 1-.7-.1l-.7-.2h-.8l-.7-.2-.7-.1-1.4-.2H53l-.7-.1-1.4-.2h-.7l-.6-.1-1.2-.3a9 9 0 0 1 1.4-.1h1.4l.7.2h.7l1.5.2 2.8.5h.6l.7.2a9.4 9.4 0 0 1 1.2.4h-.6Zm0 0"/>
  <path fill="#e6fbba" d="M39 7a10 10 0 0 1 2.7-.7l.7-.1.7-.1 1.5-.2a45.4 45.4 0 0 1 7.1-.1h.5L52 6a5 5 0 0 1-.7 0l-.7.1h-3.4l-1.5.2a26 26 0 0 0-4.2.6l-.6.1a9.7 9.7 0 0 1-2 .2Zm.4 16.6v-.3A5.4 5.4 0 0 1 40 22a10.3 10.3 0 0 1 .6-1.1 4.6 4.6 0 0 1 1.2-1.1l-.1.2-.3.4-.1.3-.2.3a11.4 11.4 0 0 0-.5.7l-.1.3-.4.6c0 .2-.2.3-.3.5l-.2.3-.1.2Zm3.4-1.6v-.2l.1-.3.3-.6.4-.6.2-.2.2-.3a7.3 7.3 0 0 1 1.4-1.3 10.6 10.6 0 0 1-1.2 1.7l-.4.5-.4.5-.3.4-.4.5Zm3.7-1.5.2-.2.1-.3.5-.6.4-.5.9-1 .1-.1.6-.4.5-.4a5.2 5.2 0 0 1-1.1 1.5l-.5.4-.4.4-.4.4-.4.4-.2.2-.2.2Zm3.8-1.2.2-.2.2-.3.4-.6.5-.5a8.8 8.8 0 0 1 1.2-1l.6-.4-.7 1-.3.2-.2.2-.5.5-.3.3-.4.3-.4.3-.2.2h-.1Zm3.5-.8v-.4l.3-.2.3-.6.5-.5.4-.5.7-.6.4-.3-.2.3-.3.4a5 5 0 0 1-.4.6l-.4.5-.3.3-.3.3-.4.2-.2.3h-.1Zm3.2-1.3.2-.4.3-.4a8 8 0 0 1 1.3-1.9 6.6 6.6 0 0 1-1 2l-.5.5-.2.2Zm2.9-1v-.7l.1-.7.2-.6.2-.6.2-.8v.8a4 4 0 0 1-.3 1.6v.3l-.3.3-.1.3Zm2-2.7v-.1l-.2-.3-.2-.5-.2-.5-.2-.5-.1-.6.2.3a3.8 3.8 0 0 1 .6 1.1 2.5 2.5 0 0 1 0 1Zm-.4-3.2h-.4a2 2 0 0 1-.5-.3l-.4-.3-.2-.2h.2l.5.2c.2 0 .4.2.5.3l.2.2.1.1ZM46 29.9l.1-.1.1-.2.2-.2.6-.6.3-.2.3-.3.6-.4 1-.5-.7.8-.6.5-.3.2-.3.2-.2.2-.5.3-.3.1h-.1l-.1.2Zm3.5-.2v-.3l.2-.3.4-.7.3-.2.2-.3a23.8 23.8 0 0 1 1.8-1.4l1-.5-.8.8-.6.5-.5.5-.9.8-.2.2-.2.3-.5.4-.1.2Zm4.6-1.3v-.2l.2-.3.2-.3.2-.4.5-.5.4-.6.5-.4.4-.4.4-.3.4-.3.6-.3-.7.8-.4.5-.5.5-.5.5-.5.4-.3.4-.4.4-.5.5Zm0 0"/>
  <path fill="#e6fbba" d="M49.6 29.7v-.3l.2-.3.5-.6.2-.2.3-.3a10.1 10.1 0 0 1 1-.9l.4-.3.9-.6-.7.9-.4.4-.5.4-.6.6-.4.4-.4.3-.3.2-.2.3Zm4.4-1.3v-.2l.1-.3.4-.5.8-.8-.5.8c0 .2-.2.3-.3.4a3.7 3.7 0 0 1-.6.6Zm0 0"/>
  <path fill="#e6fbba" d="m54.1 28.3.1-.2.2-.3.4-.6.5-.6.5-.6a8 8 0 0 1 2-1.7l-.7 1-.4.5-.6.5-.7.7-.5.6-.6.5v.1H54v.1Zm5.1-2.1v-.1l.1-.4.3-.6c0-.3.2-.5.3-.7l.4-.6.5-.8.4-.5-.1.3a109 109 0 0 1-.5 1.3l-.3.6-.3.4-.2.4a8 8 0 0 1-.5.6l-.1.1Zm3.4-2.2v-.6l.2-.7.2-.7.3-.6c0-.2 0-.3.2-.5a5.4 5.4 0 0 1 .5-.8l-.2.9-.2.7-.2.6a6 6 0 0 1-.6 1.3v.2l-.2.2Zm0 0"/>
  <path fill="#e6fbba" d="M62.7 23.7v-.5l.2-.6.4-1.3.3-.7c0 .4 0 .7-.2 1 0 .4-.1.7-.3 1v.4l-.2.4-.1.2v.1Zm0 0"/>
  <path fill="#e6fbba" d="M62.8 23.6v-.3l.1-.7a14.2 14.2 0 0 1 .4-1.3l.3-.5c0-.2.1-.4.3-.5l-.1.6-.1.6-.2.7a6 6 0 0 1-.5 1l-.1.2-.1.2Zm2.5-2.6v-1.5l.1-.3v-.3l.5-1.3.1-.5v.8l-.1 1.3-.1.5-.2.4-.2.5-.1.2v.2Zm2-3.6-.1-.2-.1-.3-.2-.7-.1-.7v-.7l-.1-.8a5.7 5.7 0 0 1 .6 2v1.5Zm.6-3.7-.1-.1-.1-.2-.1-.2-.3-.5-.2-.5-.2-1a4.1 4.1 0 0 1 1 1.7 4 4 0 0 1 0 .8Zm-1.7-4.2h-.1l.2-.1a8.9 8.9 0 0 0 .3-.2L67 9a4.7 4.7 0 0 1 .7-.3 3 3 0 0 1-.8.7l-.3.1h-.4Zm-3.2-2h-.2l.2-.1.5-.3.3-.2h.3c.2-.2.5-.2.7-.3a2.6 2.6 0 0 1-1.4.9h-.3Zm-5.1-.9v-.1l.2-.2.5-.7.5-.5.5-.4.3-.2.1-.1-.6 1-.7.8a2.2 2.2 0 0 1-.7.4h-.1ZM53.5 6l.1-.1.1-.2a5 5 0 0 1 .4-.8l.2-.2.4-.5.5-.6v-.1.4l-.6 1.2-.3.2-.2.3-.6.5Zm-4.3-.2.4-.7.2-.3.3-.2.4-.5.3-.3v-.1l.2-.1a3.7 3.7 0 0 1-.6 1.2l-.2.3-.3.3-.4.3-.2.1h-.1Zm-4.2.3v-.2l.1-.4a2.7 2.7 0 0 1 .3-.6 7.2 7.2 0 0 1 .6-1v-.1.3a3.7 3.7 0 0 1-.8 1.7V6H45Zm-3.5.3V5.1l.3-.9.1.3V5a2.5 2.5 0 0 1-.3 1.4h-.1Zm-4.2 1.1V6.2l.3-.5.1-.4.1-.2v.3a4.6 4.6 0 0 1 0 1l-.2.3-.1.3c0 .2-.1.2-.2.3v.1Zm-3.5 1.6V6.6l.2.3.2.6v.7l-.3.7V9Zm0 0"/>
  <path fill="#e6fbba" d="M33.7 8.9v-.5l-.1-.3v-.8l.2-.6v-.3.1l.1.1A4.5 4.5 0 0 1 34 8v.4a3 3 0 0 1-.2.6ZM30 11V8.5l.1-.6.2.6.2.6v1.2l-.2.4-.1.2-.1.1Zm0 0"/>
  <path fill="#e6fbba" d="M30.3 10.7 30 9.4v-.7l.2-.7v-.1.2c.2.2.2.5.2.7l-.1 1.4-.1.5Zm0 0"/>
  <path fill="#2f5e09" d="M45.8 57Zm-1.9-3v-.1l-.1.2v-.2ZM68 34.1Zm.3 0h.4-.4Zm3.9.6-.1-.2.1.1ZM6.9 36.6Zm20.7-9.1h-.3a3.7 3.7 0 0 0-.7.3l-.5.3-.3.2a6 6 0 0 0-.4.4c0 .2-.2.3-.3.4l-.3.5-.2.5-.1.4V32l.2.3.1.2.1.1.3.2h.2l.2.1h.4l-.1-.2-.3-.4-.2-.4a2.3 2.3 0 0 1 0-1.2v-.4l.2-.4.2-.3.7-.5.8-.2h.3v.1c-.2.1-.3.3-.3.5 0 .4.3.8.7.8a.7.7 0 0 0 .7-.7v-.2l.1.2.2.4v.2l.1-.2v-1a9.2 9.2 0 0 0 0-.5l-.1-.2-.1-.2-.2-.2-.1-.1h-.1l-.3-.2h-.6Zm-2.2 5.9-.4-.2h-.2l-.4-.5-.2-.2v-.2c-.2-.3-.3-.5-.3-.8 0-.6 0-1.2.2-1.7a4.7 4.7 0 0 1 3-2.8h.8a1.7 1.7 0 0 1 .6.1h.1l.4.3.2.3.4.7.1.7v.7l-.2.8-.4.8-.5.6a5 5 0 0 1-2 1.3l-.8.1h-.4Zm0 0"/>
  <g clip-path="url(#e)">
    <path fill="#2f5e09" d="M16.5 26.6h-.3l-.1.1-.2.1-.3.2-.2.2-.2.4-.2.3-.2.3v.5l-.1.4v.8h.1v-.5a2.1 2.1 0 0 1 1.3-1.5l.4-.2h.4l-.3.1-.2.5c0 .4.3.8.7.8.2 0 .4 0 .5-.2a.7.7 0 0 0 .2-.8l.1.2.2.4V30l.1-.2h.1a9.5 9.5 0 0 0 0-1.5l-.2-.4-.1-.3-.2-.3-.1-.2-.2-.1v-.1l-.2-.1H17l-.2-.1h-.4Zm-4 6.2-.2.4-.3.5-.1.3v.3c0-.1 0-.2.2-.2l.7-.5 1.4-1c.4 0 .7-.3 1-.4l.3-.3-.2-.2a3.4 3.4 0 0 1-1-1.4l-.2-.7v-.2.1H14l-.3.3-.2.3a2.7 2.7 0 0 0-.4.7v.5H13v.2l-.1.8.5-.2-.4.3a3 3 0 0 0-.3.3l-.1.1Zm40.2 25.6-.2-.1-.4-.3c-.2 0-.3-.2-.4-.3l-.3-.3-.5-.6-.5-.7-.4-.8v-.1a11.7 11.7 0 0 1-.5-1.2v-.3l-.1.1L48 55l-.6.6-.5.5-.5.4-.2.2h-.1v.5l-.1.3v-.7l-.1.1h-.1v.1h-.1a4.9 4.9 0 0 1 0-1.3 8.8 8.8 0 0 1 1-3l-.3.1-.8.3-.7.3h-.2v.1l-.8.3-.2.1h-.1l-.1.1v-.2a6.7 6.7 0 0 1 1.6-2.6l.3-.3.4-.3a6.4 6.4 0 0 1 1.6-1V49l.4-.7a9.6 9.6 0 0 1 .7-1.4l.2-.3-.8-.1-.9-.1-1.2-.3-.1.1-.4.2-1.6.5-1.7.6-1.7.4h-.1l-.2.1-1.8.5-1.7.3h-.8l-.8.1h-1.7a13.7 13.7 0 0 1-2.6-.2l-.8-.1-.8-.2-.7-.2-1.6-.6h-.1a22.4 22.4 0 0 1-3.6-2h-1.9l-4.6.6-2 .2-1.9.1h-.2l-1.8.2c-.8 0-1.5 0-2.2.2h-3l-.5-.2a2 2 0 0 1-1.1-.3c-.2 0-.3-.2-.5-.3l-.5-.3A4 4 0 0 1 2 45l-.3-.5-.2-.5a2.7 2.7 0 0 1 0-1.2v-.3l.1-.3c0-.2.2-.4.3-.5a8.6 8.6 0 0 1 .4-.5H2a7.2 7.2 0 0 1-1-.6 1 1 0 0 1-.4-.3l-.3-.4-.2-.3-.1-1.7a5.8 5.8 0 0 1 .4-1.5l.4-.8.6-.7.8-.4h.9l.8.2.6.6.6-.1h.7l1.4.5.7-.2c.2-.1.5-.1.8 0h.8l.8.3a4 4 0 0 1 .8-.8l.2-.2v-1.1l.6-.8.3-.3s.2 0 .3-.2a9.6 9.6 0 0 1-.1-.5V31l.3-.8.5-.6.5-.5.4-.1v-.8l.2-.4v-.4l.3-.8.3-.8a3.7 3.7 0 0 1 .8-1.4l.7-.5.4-.2h.4l1-.2h.4l.4.2.4.1.4.3.6.5a2.6 2.6 0 0 1 .5 1v.1h.9a2.6 2.6 0 0 1 1.3.2l.4-.3a13.6 13.6 0 0 1 1.3-1l.8-.3.4-.1.4-.1.8-.1H29l.8.3a5.1 5.1 0 0 1 2.5 1.8 7 7 0 0 1 1.2 2.3v.4l.1.4v1.2l-.2-.7-.3-.7-.6-1.5-.4-.7-.4-.5A6 6 0 0 0 30 25a7.6 7.6 0 0 0-1-.4l-.8-.1a10.6 10.6 0 0 0-2 0l-.5.2-.4.2-.6.4-.9.6-.4.4v.1l-.3.3-.8.9-.1.1v.1-.2a2.9 2.9 0 0 1 .4-1.1l.2-.2a5 5 0 0 0-.4-.1H21v.3a1.4 1.4 0 0 1-.2.5v.2c-.2 0-.3.2-.4.3l.2-.5v-.6l-.1-.2v-.3l-.3-.5-.1-.3c-.1 0-.2 0-.2-.2l-.3-.2-.2-.2-.2-.1-.3-.2a4.5 4.5 0 0 0-.7 0 .3.3 0 0 0-.4 0H17l-.2.2-.3.1-.3.2c0 .1 0 .2-.2.2l-.1.3-.2.3a7.8 7.8 0 0 0-.5 1.1l.5-.4.8-.2c.3 0 .6 0 .8.2a2 2 0 0 1 .7.5 4.9 4.9 0 0 1 .5.6l.2.7v.4l.1.4v.2l.5-.5.7-.7-.7 1.5-.5.6-.4.5-.1.1-.1.1-.6.6a10.9 10.9 0 0 1-2 1.4l-1.5.8-.8.5-.6.4-.4.3c-.2 0-.3.2-.4.3l-.2.2h-.1v.2h-.1l-.2.2-.2.3-.2.2.9.4h.1l2 1.3-1.6-.5-1.5-.6-.3-.1h-.1l-.4-.2a7.3 7.3 0 0 0-1.5-.3h-.8v.1l.8.8.1.2-1.2-.6h-.2v-.1l-.5-.2-.6-.3-.4-.1H4.2L4 36v.1h-.1v-.2l.2-.2-.2-.2c-.2 0-.2-.1-.3-.2h-.2L3 35h-.8l-.2.1-.3.2-.2.1-.2.3-.2.2-.2.4-.2.5A4.6 4.6 0 0 0 .6 38v.8l.1.3.1.3.1.2.2.1.2.3.2.1A5.6 5.6 0 0 0 3 41h.2a34.6 34.6 0 0 0 2.5.7l1.1.2 1 .1H10l.4-.1 3-.8-1.1-.5a8.5 8.5 0 0 1 2.2.2h.2l.2.1.5.2.8.1a14 14 0 0 0 2.6.2h1.1l1.2-.4.4-.2.4-.2.3-.1.2-.1-1-.4a13.2 13.2 0 0 1 1.6 0h.5l1 .1.9.1a13.2 13.2 0 0 0 2.6-.1l.8-.2a7 7 0 0 0 .9-.4l.3-.2.3-.2.4-.3.2-.2.3-.3.2-.3.2-.3.2-.3.2-.3.3-.8V36l.2-.3v-2.1l.3.3.1.4.2.8a4 4 0 0 1-.3 1.7l-.4.8-.2.3-.3.4a5.5 5.5 0 0 1-2.7 2 6.9 6.9 0 0 1-2.5.5h-2.5l-.7-.2h-.7c-.2.3-.4.4-.7.5l-.8.4a8.7 8.7 0 0 1-3.2.6H18a8.1 8.1 0 0 1-1.7-.2 17.8 17.8 0 0 1-2.3-.5l-.6.2-.8.3a29.9 29.9 0 0 1-3.3.7 15.8 15.8 0 0 1-6.5-1h-.2l-.1.1a8.6 8.6 0 0 0-.5 1l-.1.2v.5l.1.4a3 3 0 0 0 .2.5l.2.4.2.2a3.4 3.4 0 0 0 .4.4 7 7 0 0 0 1 .7l.3.1.6.2h.7l.6.1h2.5l1-.2h1.8l1-.1 2.3-.2 2.3-.3a63.4 63.4 0 0 1 6-.5h.9a43.6 43.6 0 0 1 4.8 0l2.3.2A26.5 26.5 0 0 0 33 45l.4-.1h.3l.5-.2.4-.1.3-.1.2-.1.2-.2.2-.1.3-.1.2-.2.2-.2.1-.2.3-.3.2-.4.2-.3.2-.4.2-.4.2-.4v-.4l.2-.4.2-.9.1-.9.1-1v-2.2c0-.7-.2-1.3-.3-2l-.1-1-.1-1-.1-.2.2.1.3.4a3 3 0 0 1 .3 1l.3 2.4v.2a15.5 15.5 0 0 1-.5 5.8l-.5 1.1c0 .2-.2.4-.3.5l-.1.3-.2.3-.4.5-.2.2-.2.2-.5.3-.5.3-.6.3-.5.1-.3.1h-.4l-.2.1H33l-.4.1h-3.8l-1.2-.1H24a44.5 44.5 0 0 0 3 1.5l1.2.5 1.3.4.8.2 1 .1a33.7 33.7 0 0 0 3.6.1h.8l.7-.1 1.7-.3 1.7-.4.4-.1 1.7-.5a54.2 54.2 0 0 0 3.1-1 7.4 7.4 0 0 1-2-1l-.6-.5-.6-.7a3.6 3.6 0 0 1-.5-1.4V41l.3-.6a5.5 5.5 0 0 0 .1 1.4 14.8 14.8 0 0 0 .2.8l.2.4.2.3.2.4h.1l.4.4.2.2.3.3.3.1.3.2.4.2.5.1c.3.2.6.2 1 .3h.2l.3.2h.2a90.7 90.7 0 0 0 2.4.3c0-.2.2-.3.3-.4a7.6 7.6 0 0 1 2.5-2.1 7.4 7.4 0 0 1 1-.4l-.9.7-.4.3-.4.4H51l-.4.4-.4.3-.4.5-.3.4-.1.2-.1.1-.3.5-.4.6-.3.6-.3.5c0 .3-.2.5-.3.7h.4l-.5.3-.4.4-.5.3-.5.4-.3.3-.4.3-.2.3-.2.2-.4.7-.3.5a5 5 0 0 1 2-.9h.7l.3-.4.2-.3.2-.1v.2l-.3.5v.2h-.1l-.1.3-.2.5-.3.5-.2.5-.1.6-.2.8v.5l.2-.3.6-.5.6-.6.5-.4V54h.2l.7-.6.7-.6c.1 0 .3 0 .4-.2h.1l.2-.1-.2.2a6 6 0 0 1-.5.6l.1.4.2.5.3.6c0 .3.3.6.4 1l.3.3a5.3 5.3 0 0 0 .7.9l.5.4-.1-1v-3l.1-.2v-.3l.2-.4v.6l.1.2.3.2a21.8 21.8 0 0 0 2.2 1.2l.7.2.6.2h.1a11.5 11.5 0 0 1-2-2.5l-.5-.7-.3-.8V51l-.2-.6v-.6.2l.1.1.2.3.2-.4.6-1.4.8-1.4 1-1.7a7.8 7.8 0 0 0 .5-1.6v-1.3l-.1-.2v-.1l-.1-.1-.3-.2-.1-.1-.2-.2h-.2l-.2-.1-.5-.1H55h.2l-.8-.2h-.8a10.2 10.2 0 0 1-2.5-.7l-.7-.3-1.5-.8-1.3-.5a16 16 0 0 1-.6-.4l-.3-.1h-.1v-.1h.9l.8.3 1.6.7 1 .4a15.7 15.7 0 0 0 1.5.6l.7.2.8.1.8.1h.4l.3-.3.5-.4.5-.6.4-.5a8.3 8.3 0 0 0 1-1.5l.5-1.2v-.1l.3-.6.2-.5a13.7 13.7 0 0 0 .5-1.6l.2-.8.3-.7.3-1.1a4.7 4.7 0 0 1 0 1.5l-.1.8-.3.8-.3 1 .8-.5 1.3-.9.5-.4h-.2l-.3-.2-.1-.1H63l.2.1a32.9 32.9 0 0 0 2.3.2h.8l.7.1v-.4l.2.4v.2l.1.4h.2-.2v1.2c0 .3-.2.6-.3.8 0 .3-.2.6-.3.8v.1l.5-.4a7.5 7.5 0 0 1 1.5-.7l.3-.1V35h.1v.3l.2.4.3.8.2.8v.2l.1-.1c0-.3.2-.6.3-.8l.2-.4.2-.4v-.2h.9l.6.1a46.4 46.4 0 0 0 1.2.2h.6l-.2-.1-.6-.5-.6-.5h-.9v-.1l.6-.2h.3l.7-.3h.3a57.7 57.7 0 0 1-1.3-.6l-.7-.3a8.6 8.6 0 0 1-.9-.5v.9a15 15 0 0 1-.4-1.3v-.2L70 32v-.2l-.3-.9a9.4 9.4 0 0 0-.8-1.8 5 5 0 0 0-.3-.4c0-.2-.2-.2-.3-.3a3 3 0 0 0-.3-.4l-.7-.4a12 12 0 0 0-.7-.3L66 27a6.2 6.2 0 0 1-1-.7l-.1-.1h.4v.1l.5.1.4.1.4.2.8.3c.2 0 .4.2.6.4l.7.5.3.3.3.3A4.9 4.9 0 0 1 70 30l.3.7.2.8.1.7.7.3.7.4.7.4c.3 0 .5.2.8.3a14.1 14.1 0 0 1 1 .5h.2-.3.2l.2.2-.3.1a7.4 7.4 0 0 1-1.3.4h.2l1.2 1.1.1.2h.1v.1h.1-.3l-.8.1H72l-.4-.2-.5-.2-.2-.1-.2.6-.1.3-.2.5-.3.7-.4.7-.3-.5a9 9 0 0 1-.5-2.2l-.2.2-.6.3-.6.3-1 .7-.5.5v-.4a5.2 5.2 0 0 1 .4-1.5l.2-.8.1-.5v-.1l.1-.7-.8-.1-1.7-.1H64l-.8-.1-.7-.2-.6.6-.7.5-1.4.9-.7.4H59a25.5 25.5 0 0 1-1.4 2.8l-.5.8-.5.6-.5.6-.3.3-.2.1a3 3 0 0 1 1.5 1l.2.6.1.4v.9l-.6 1.5-1.5 3-.3.4-.6 1.4-.3.7v.2l.2.5A15.4 15.4 0 0 0 56 54l.3.4.4.5.4.5.1.1v.1H57a7.1 7.1 0 0 1-1.6-.2l-.7-.3-.8-.4-.7-.4-.3-.2-.3-.3V58c.2.2.2.3.1.4Zm0 0"/>
  </g>
  <path fill="#2f5e09" d="M30.4 25.2Zm.2.4h.2-.2Zm9.5-.2-.6-.1h-2c-1-.2-2.1-.2-3.2-.1h-.8a24.3 24.3 0 0 0-2.5.3l-.4-.2-.1-.1.4-.1.5-.1.8-.2 1.7-.1 1.6-.1H38l.8.2c.3 0 .5 0 .8.2l.6.4Zm0 0"/>
  <path fill="#2f5e09" d="M37.5 25.2h-.3l.5-.6.4-.3.3-.2.7-.5a26.7 26.7 0 0 1 2.9-1.8l.8-.4.8-.4.8-.3.8-.3 1.7-.5 1.6-.4 1.6-.4 1.6-.4 1.5-.4 1.4-.5 1.6-.6 1.6-.6.8-.4a20.2 20.2 0 0 0 2.1-1.3 4.9 4.9 0 0 0 .6-.7A5.2 5.2 0 0 0 62 13v-1.3l-.1-.4-.2-.3-.3-.7-.4-.6-.8-1 .4.2.3.2.3.2.2.2.3.3.2.2.4.8.2.7a4.1 4.1 0 0 1-1.8 4.4l-.7.4-.8.4-.8.4-1.5.6-.8.3h-.2l-1.6.6-1.6.5-3.3.8A77 77 0 0 0 45 21l-1 .4-.9.4-.7.4-.8.4a62.3 62.3 0 0 0-2.8 1.8l-1 .8h-.2ZM65 27.3l.1-.2-.2.2Zm3.4-3.9c0-.2.2-.4.3-.5l.3-.6.3-.7.3-.7a12 12 0 0 0 .6-2.6v-1.1a10.2 10.2 0 0 0-.6-2.7l-.3-.6-.2-.6a12 12 0 0 0-1.4-2l-.5-.6-.6-.5L65.4 9l-.3-.4a6 6 0 0 1 2 1.3l.6.5.5.6a14.5 14.5 0 0 1 1 1.4 11.6 11.6 0 0 1 1.3 3 9.7 9.7 0 0 1-.2 5l-.2.8-.3.8a8.4 8.4 0 0 1-1.3 2.2l-.6.7c-.3.5-.7.9-1.2 1.3l-.4.5c-.2 0-.3.2-.5.3l-.4-.3.4-.3a17.1 17.1 0 0 0 1.5-1.6l.6-.7.5-.7Zm0 0"/>
  <path fill="#2f5e09" d="M56.8 17v.6l-.7.3v-.7h.1l.6-.2Zm10.9-6.1-.3-.2-.4-.3c-.2 0-.3-.2-.4-.3-.2 0-.3-.2-.4-.3l-.5-.4c-.2 0-.3-.2-.5-.3a26.9 26.9 0 0 0-2.7-1.4l-1-.4-3.2-.8-1.2-.2-1.3-.2-1.3-.1-1.3-.2-1.7-.1a40.9 40.9 0 0 0-4.4 0l-2.5.2-2.6.4-1 .2a38.9 38.9 0 0 0-6.3 2l-1 .5-1 .5a31.6 31.6 0 0 0-5 3.4h-.2v.4h.5l1.2-.3.6-.2.6-.2A20.9 20.9 0 0 1 33 12l5.1-.8 1-.1.8-.1h.2a27.9 27.9 0 0 1 9 .8 17.3 17.3 0 0 1 6.8 3.5c.2 0 .3.2.3.3l-.4.5v-.2a5.8 5.8 0 0 0-.8-.8l-.8-.6-.9-.5-.8-.5-1.2-.5-1.2-.4-.7-.2-.7-.3-1.5-.3-.7-.1-.7-.1a17.1 17.1 0 0 0-3.5-.2l-2 .1c-1.8.1-3.5.4-5.2.6l-1.5.3a53.9 53.9 0 0 0-2.7.6l-1.3.3-1.1.4-.7.1h-.6l-.1-.1-.2-.1v-.3c-.1 0 0-.2 0-.2l.1-.5.4-.4 1-.8c.6-.5 1.3-1 2-1.3l1.2-.7A38.9 38.9 0 0 1 40 6.2l1.3-.3 1.2-.2a45.3 45.3 0 0 1 3.9-.6h6.5l2.5.4 1.3.1 1.3.2a27.3 27.3 0 0 1 4.8 1.4A18.3 18.3 0 0 1 66 8.9l.4.3.4.4a5 5 0 0 1 1 1.3ZM9.3 44.5Zm0-.6.2.3-.2.3-.4-.3a3.9 3.9 0 0 1-.7-1.1l-.1-.4-.2-.8h.3v.1l.3.4v.2l.2.3a10.6 10.6 0 0 0 .6 1Zm0 0"/>
  <path fill="#2f5e09" d="M10.1 41.8a8.8 8.8 0 0 1-.2 1.5l-.2.4-.1.3-.3.5-.2-.2V44l.3-.8.4-1.4h.2Zm2.6 1.7v.2l-.2.2-.3-.2a2.7 2.7 0 0 1-.8-1l-.2-.3-.3-.7.3-.1.5.8.3.4.3.4.3.2.1.1Zm-.1-2.9Zm0 0"/>
  <path fill="#2f5e09" d="M13 42a3 3 0 0 1-.2 1.3c0 .1 0 .3-.2.4v.2c-.2 0-.3-.1-.3-.2a30.2 30.2 0 0 1 .2-1.2V42l.1-.4v-.4h.3v.1l.2.7Zm6-2.9-.3.8-.4.8a7.1 7.1 0 0 1-.8 1l-.3.3.1-.1h-.4l.2-.3.3-.5c0-.2.2-.4.3-.5l.3-.6.3-.6.3-.6v-.2l.1.1.3.4Zm.6 2.9v-.2.2Zm0 0"/>
  <path fill="#2f5e09" d="M19.6 41v.9a5 5 0 0 1-.4 0l-.2-1v-.1a14.1 14.1 0 0 0-.5-1.7l.1-.3v-.1h.1l.5.8.1.4.1.4.2.8Zm4.7-.6v1.2l-.1.4c0 .3-.2.5-.3.8l-.4.1v-.1l.2-1v-1.3l.1-.5h.5v.4Zm0 0"/>
  <path fill="#2f5e09" d="M25.8 40.1h.3c0 .3 0 .6-.2.8l-.4.7-.6.6a2.9 2.9 0 0 1-1 .6l-.4.1v-.1l.1-.3.4-.3.3-.2.3-.3.4-.4.5-.6v-.1l.3-.5Zm2.4-2.4v1.7l-.2.5c0 .2 0 .4-.2.6v.1h-.4v-.2l.2-.8.1-1V37h.2l.2.2.1.5Zm0 0"/>
  <path fill="#2f5e09" d="m30 39.9-.4.2v-.2l-.4-.8a7.2 7.2 0 0 0-.5-.8l-.2-.2-.7-.7V37h.1l.7.5c.2 0 .2.2.3.3l.3.3.2.4.2.3.4 1Zm0 0"/>
  <path fill="#2f5e09" d="M30.5 38a4 4 0 0 1-.3 1.8H30v-3h.3l.1.4.1.8Zm0 0"/>
  <path fill="#2f5e09" d="m31.8 38.4-.3.3-.2-.3-.3-.4-.4-.3v-.1l-.4-.3-.3-.2v-.3h.2l.4.1.4.2.3.3.3.3.3.7Zm10-18.9v.1l-.2.3-.7 1-.7.9a9.6 9.6 0 0 0-1 2l-.1.4-.2.1a3 3 0 0 1 .5-2.1l.2-.4.2-.3.4-.6.6-.6 1-.8Zm0 0"/>
  <path fill="#2f5e09" d="m42.7 22-.2.1-.2.1-.2-.3a6.4 6.4 0 0 1-.4-1.2l-.1-.4-.1-.6.3-.2v.2l.2.4.2.4.4 1.2v.4Zm0 0"/>
  <path fill="#2f5e09" d="m45.7 18 .1.2-.8.9-.5.4-.5.6a13.7 13.7 0 0 0-1.5 2l-.2.1-.3.2v-.2a3.8 3.8 0 0 1 .6-1.1 9.1 9.1 0 0 1 .8-1 7.6 7.6 0 0 1 2.3-2.2Zm0 0"/>
  <path fill="#2f5e09" d="M46.5 20.6h-.2l-.2.1-.2-.4a6.6 6.6 0 0 1-.5-1.5V18l.3-.2a15.6 15.6 0 0 0 .4 1.4v.3l.2.4.2.6Zm-.3.1h.1Zm0 0"/>
  <path fill="#2f5e09" d="M49.8 16.7v.3l-.7.6-.6.5-.6.6-.2.3a23.2 23.2 0 0 0-1.4 1.6h-.2l-.3.2.4-.7.5-.7.5-.7.6-.6.5-.5.6-.5.7-.4h.2Zm0 0"/>
  <path fill="#2f5e09" d="M50.7 19.5h-.4l-.2-.3a5.3 5.3 0 0 1-.6-1.6v-.8l.3-.1.1.5.3 1 .1.3.4 1Zm0 0"/>
  <path fill="#2f5e09" d="M53.5 15.9v.3l-.5.5h-.1l-.9.8-.9.9-.4.4-.5.7H50l-.1.2h-.2v-.2l.4-.8.5-.6.6-.7.6-.5.6-.5 1-.5Zm0 0"/>
  <path fill="#2f5e09" d="M54 18.6h-.3a5.1 5.1 0 0 1-.5-1v-1.5l.3-.2v.4l.2.7v.6l.1.1.2.9Zm0 0"/>
  <path fill="#2f5e09" d="M56.4 15.3v.1A16.6 16.6 0 0 1 55 17l-.5.6-.4.4-.8.9h-.2l.1-.3a5.7 5.7 0 0 1 1-1.4 10 10 0 0 1 1-1l.5-.4.7-.4Zm0 0"/>
  <path fill="#2f5e09" d="M57.1 17.5H57l-.1.1-.2-.1a3.6 3.6 0 0 1-.5-1.7v-.4l.3-.1c0 .3.2.5.3.8l.4 1.4Zm0 0"/>
  <path fill="#2f5e09" d="M58.8 14.3v.1l-.1.3-.4.7-.4.7-.4.7-.4.5-.2.3h-.1v-.5a5.7 5.7 0 0 1 .6-1.1l.2-.4a6 6 0 0 1 1.2-1.3Zm0 0"/>
  <path fill="#2f5e09" d="m60 15.7.3.3-.3.2-.4-.2-.6-.5a2 2 0 0 1-.4-.8v-.2l.2-.2.2.3.3.4.1.2.6.5Zm0 0"/>
  <path fill="#2f5e09" d="M60.5 13.2v.8l-.1.8-.4.8-.3.5v-.7l.2-.8c0-.3 0-.5.2-.8 0-.3 0-.5.2-.8v-.3h.2v.5Zm0 0"/>
  <path fill="#2f5e09" d="M62.3 13.6v.2H62c-.3 0-.6-.2-.8-.3l-.4-.1-.3-.3-.2-.2v-.2l.6.2h.3l.2.2.7.3.2.2Zm0 0"/>
  <path fill="#2f5e09" d="M61.8 12.8V14l-.1-.1v-.1l-.3-.7-.2-.4v-.4l-.3-.8-.1-.6.4.4.4.7.1.4.1.4Zm0 0"/>
  <path fill="#2f5e09" d="M62.4 11h-.1l-.3.2h-1.2V11h.4l.9-.1h.2v.2Zm0 0"/>
  <path fill="#2f5e09" d="m61.9 11-.2-.1h-.2v-.1l-.4-.2-.3-.2-.7-.5H60c-.1-.2-.3-.2-.4-.3h.7l.7.4c.2 0 .4.3.6.4l.3.6Zm0 0"/>
  <path fill="#2f5e09" d="m59.8 9.7-.2-.1.2-.2a2.2 2.2 0 0 1 .9-.5l.1.1h.1c0 .2-.2.3-.3.3l-.4.3h-.4ZM46 30.2l-.6-.1-.4-.1-.3-.1a12.8 12.8 0 0 1 1.6-.3h1.6l1.2-.1a16.3 16.3 0 0 0 2.8-.6l1.6-.6 1.6-.6 1.6-.6 1.1-.5L59 26l1-.6a14.6 14.6 0 0 0 2.7-1.9l.8-.7.7-.8.8-1 .8-1 .4-.8a11.2 11.2 0 0 0 .7-1.4c.1-.2.3-.5.3-.8a11.8 11.8 0 0 0 .6-2.5v-2.2l-.1-.6V11l-.2-.6V10l.4.6a4.7 4.7 0 0 1 .4 1.6 19.8 19.8 0 0 1 0 2.5 9 9 0 0 1-.3 1.7c0 .3-.2.6-.3.8 0 .3-.2.6-.3.8 0 .3-.2.5-.3.8a15.4 15.4 0 0 1-2.5 3.5 15.1 15.1 0 0 1-3.9 3.3l-1.5.8-1.5.7a122.1 122.1 0 0 1-3.2 1.3l-1.7.6-1.6.4-.8.2-.9.2-1.6.2H46Zm0 0"/>
  <path fill="#2f5e09" d="M49.3 27v.1a12.2 12.2 0 0 1-1.6 1.4 8.7 8.7 0 0 0-.7.6l-.7.6-.6.4h-.3l.2-.2.5-.7.3-.3.3-.3.6-.5.6-.3.6-.4.8-.4Zm-.1-.5Zm0 0"/>
  <path fill="#2f5e09" d="M49.6 29.6v.4h-.2l-.3-1-.1-.7V27l.3-.1v.2c.2.5.2 1 .3 1.6v.8Zm0 0"/>
  <path fill="#2f5e09" d="M53.6 25.6v.2l-.8.7-.6.5-.7.5-.2.1-.5.6-.5.5-.5.5-.6.5-.1.1v.1-.1l.1-.4.5-.7.6-.7.6-.6.6-.6.6-.5.4-.2.3-.2c.3 0 .5-.2.8-.3Zm0 0"/>
  <path fill="#2f5e09" d="m53.8 28.3.1.5h-.2v-.2a3.6 3.6 0 0 1-.4-.7l-.1-.9v-.8l.1-.5h.3v-.1.8l.1.6v.7l.1.3v.3Zm0 0"/>
  <path fill="#2f5e09" d="M58 24.1c-.4.6-1 1-1.4 1.5l-1.9 1.9-.3.3-.4.4a8.6 8.6 0 0 1-.7.7v-.1l.1-.2a4.6 4.6 0 0 1 1-1.5l.5-.6a15.3 15.3 0 0 1 1.8-1.7l.6-.5.6-.3v.1Zm0-.1Zm0 0"/>
  <path fill="#2f5e09" d="m59 26.6-.3.2a2 2 0 0 1-.6-1 3.9 3.9 0 0 1-.5-1.6l.3-.2v.3l.2.3.1.3.3.7.2.2v.3l.4.5Zm0 0"/>
  <path fill="#2f5e09" d="m61.2 22.5-.5.7-.4.7-.4.7-.5.9-.2.4-.3.4-.3.4-.2.1-.2.1.2-.3.1-.4.3-.7.3-.4.1-.4.4-.7a8.1 8.1 0 0 1 .9-1.3l.5-.5c0 .2.1.2.2.3Zm0 0"/>
  <path fill="#2f5e09" d="m62.5 24 .2.2-.2.3-.6-.4-.6-.6a2.5 2.5 0 0 1-.5-1l.2-.2.2.3.2.2.1.2h.1l.1.2h.1l.1.2.2.2.4.4Zm0 0"/>
  <path fill="#2f5e09" d="M64 19.8v.3l-.3.8-.2.7-.3.8-.3.7-.3.6-.3.6-.4.6v-.3l.1-.4.2-.8.3-.8a18.2 18.2 0 0 1 .6-1.5l.3-.6.3-.6.2-.2h.1Zm0 0"/>
  <path fill="#2f5e09" d="m65.4 21.4-.1.2H65a3.8 3.8 0 0 1-1.2-1.2l-.2-.5.2-.2h.1a24.7 24.7 0 0 1 1.2 1.4l.2.3Zm.1.3h.1-.1Zm0 0"/>
  <path fill="#2f5e09" d="M65.9 16.7a14 14 0 0 1-.2 2.2l-.2.8-.1.5-.2.6-.2.6v.2l-.2.2v-.7a5.6 5.6 0 0 1 .1-1.2l.1-.3.2-.8c0-.7.4-1.4.7-2Zm0 0"/>
  <path fill="#2f5e09" d="m67.4 18.2-.2.4-.3-.3-.7-.6-.4-.6v-.4l.6.4a7.2 7.2 0 0 1 1 1.1Zm0 0"/>
  <path fill="#2f5e09" d="M67.2 17v1.7H67v-.1l-.1-.2-.1-.4-.2-.8v-.4l-.1-.4-.2-.8v-1.9l.3.1.2.8.1.8.1.9v.7Zm0 0"/>
  <path fill="#2f5e09" d="M68.3 14.8v.5l-.2-.1-.8-.4v-.1l-.8-.6-.2-.2v-.2h.1l.7.3.8.5.4.3Zm0 0"/>
  <path fill="#2f5e09" d="m68.2 15.6-.2-.2a5.5 5.5 0 0 1-.7-1.5l-.2-.7a11.5 11.5 0 0 1-.4-1.3l-.2-1h.1a11.6 11.6 0 0 1 .9 1.8c0 .3.2.5.3.8l.1.5.2.5v1.1Zm0 0"/>
  <path fill="#2f5e09" d="m68.4 11.2.1.2a4.5 4.5 0 0 1-1.2 0c-.3 0-.5 0-.7-.2v-.4h.3l1 .2.5.2Zm-6.9-1-.3-.4-.4-.2-.7-.6-.6-.4-1-.4-1.3-.4h.6l.5.1h.3l.2.2 1.7.7.3.2.3.2.3.5.1.3v.1ZM30.3 8.5V10l-.2.8v.1H30v-.2a6.7 6.7 0 0 1-.3-1.5v-.9l.1-.3v-.4h.3l.1.4v.4Zm0 0"/>
  <path fill="#2f5e09" d="m34.1 8.8-.4.2h-.2a22.8 22.8 0 0 0-2.7-.7h-.5L30 8v-.4h.6l.3.1h.4a17.5 17.5 0 0 1 2.5.8l.4.2Zm0 0"/>
  <path fill="#2f5e09" d="m34 7.5-.1.9-.2.6-.2.1h-.1V7.5l.1-.7.1-.5h.1v.5l.2.3v.4Zm-.8-.9Zm0 0"/>
  <path fill="#2f5e09" d="m37.3 7.1.6.2-.8.3a17 17 0 0 0-2.3-.5l-.4-.1-.4-.1-.5-.2.1-.4h.2l.6.1.5.1 1.6.3.8.3Zm0 0"/>
  <path fill="#2f5e09" d="M37.7 5h.2v.2a27.3 27.3 0 0 1-.5 1.6l-.2.6-.1.2-.4.1a4.2 4.2 0 0 1 .8-2.3l.2-.5Zm4.6 1.5Zm0 0"/>
  <path fill="#2f5e09" d="m42.5 6 .4.2-1 .1-.2.1h-.3a21.4 21.4 0 0 1-1.6-.3l-.8-.3a11.8 11.8 0 0 1-1.5-.5l.2-.3h.6l.4.2.4.1.8.2h.2l1.6.4c.3 0 .5 0 .8.2Zm0 0"/>
  <path fill="#2f5e09" d="M41 6.5v-1l.3-.7.3-.7h.2v.8a3 3 0 0 1-.6 1.3l-.2.3Zm.5-2.2-.3-.2.3.2Zm0 0"/>
  <path fill="#2f5e09" d="M47 5.7h-.4l-1-.1a16.2 16.2 0 0 1-1.6-.4c-.3 0-.5-.2-.8-.3-.3 0-.5 0-.8-.2a4 4 0 0 1-.7-.3l-.2-.1V4h.4c.3 0 .6 0 .9.2l.8.2.8.2.8.2a7.6 7.6 0 0 1 2 .8Zm-.4 0h.3-.3Zm.5.1H47h.2Zm0 0"/>
  <g clip-path="url(#f)">
    <path fill="#2f5e09" d="m46.2 3.5.3-.7-.5 1-.2.6-.3.5a5.5 5.5 0 0 1-.5.9h-.2v-.4a4.7 4.7 0 0 1 .4-1.2l.3-.4.4-.4h.3Zm0 0"/>
  </g>
  <path fill="#2f5e09" d="M50.8 5.6h-.6l-.5-.2-.8-.3-.7-.3a43.5 43.5 0 0 1-2.6-1.1l.3-.3h.3l.5.3.5.2 1.6.6a7.7 7.7 0 0 1 1.5.8c.2 0 .4.2.5.3Zm-.4.1.4.2-.4-.2Zm0 0"/>
  <path fill="#2f5e09" d="m50.9 3.3.1.1-.5.8-.4.6-.3.4-.3.3-.2.1h-.5l.5-.7.3-.3.2-.3.6-.6.4-.4Zm0 0"/>
  <path fill="#2f5e09" d="M54.7 6h-.2l-.9-.1-.2-.2-.7-.5-1.4-1-.6-.6-.2-.1.3-.2.8.4 1.3 1 .7.4a12.7 12.7 0 0 1 1.1.9Zm0 0"/>
  <path fill="#2f5e09" d="m55.4 3.4-.1.1-.4.7-.5.6-.5.7c-.2 0-.3.2-.4.3h-.3a4.2 4.2 0 0 1 .8-1.4l.6-.6.5-.5h.3Zm0 0"/>
  <path fill="#2f5e09" d="m59.3 6.4.3.4-.9-.2-.3-.3-.3-.2-.7-.6a28 28 0 0 0-2.6-2l.3-.2.3.1.7.5.7.4a35.7 35.7 0 0 1 2.5 2.1Zm.4.5v-.1Zm0 0"/>
  <path fill="#2f5e09" d="M60 4v.1l-.4.6-.5.6-.6.6-.5.4-.1.1h-.3l.2-.4.5-.7.5-.6.5-.5.2-.2.2-.3.4.3Zm3 4 .2.2-.1-.1Zm0 0"/>
  <path fill="#2f5e09" d="M63.8 8.2v.1h-.1l-.8-.4-.7-.8-.7-.8L60.3 5a9.8 9.8 0 0 1-.9-1h.1l.2-.3.5.5.5.5L61.8 6a18.7 18.7 0 0 1 2 2.3Zm0 0"/>
  <path fill="#2f5e09" d="m64.9 6.4.1.1-.3.2a11.2 11.2 0 0 1-1.4.7l-.9.2h-.1l-.4-.1.2-.2a5 5 0 0 1 1.5-.6l.8-.2.5-.1Zm0 0"/>
  <path fill="#2f5e09" d="m66.3 9.5.1.5-.2-.2-.3-.2-.2-.5V9l-.1-.2-.1-.2-.6-1.2c0-.2-.2-.3-.3-.5 0-.2 0-.3-.2-.5h.5l.3.3.2.4.2.3a8 8 0 0 1 .6 1.4l.1.7Zm0 0"/>
  <path fill="#2f5e09" d="M68 8.4v.2a8.8 8.8 0 0 1-1.2.7l-.4.1-.4.1h-.3l-.1-.2a5 5 0 0 1 1.3-.7l.7-.3h.4Zm0 .2Zm.3-.2Zm0 0"/>
  <path fill="#2f5e09" d="M68.3 10.7c0 .7 0 1.3-.2 1.9v-.1l-.2-1.1-.1-.7-.1-.8-.1-.6a6 6 0 0 1 0-1h.4l.2.9v.8l.1.4v.3Zm-22.4 43-.1.3v-.3h.1Zm.1-.2v.1Zm0-.2v.2-.2Zm0-.3.1-.2v.2Zm0-1 .1.8-.4.2h-.1a5 5 0 0 1 0-.3l-.1-.4-.1-.1V52h-.1l-.1-.2-.3-.2c0-.2 0-.3.2-.4l.3.2.3.2.2.4Zm2.1 2.9-.2.3-.2-.2-.2-.2h-.2v-.1l-.3-.1h-1l.2-.5.1-.1a1.4 1.4 0 0 1 .8 0 1.7 1.7 0 0 1 .7.4l.3.4Zm4.6.5v.5l-.3-.1h-.9l-.2.1-.4.3-.3.3-.2-.4.2-.3.3-.3.2-.1.5-.2h.2a1.4 1.4 0 0 1 .7.1l.2.1Zm2.9-1.9-.2.1-.3.2-.2.2-.1.2-.2.3v.2l-.1.1v.2l-.4-.2a1.6 1.6 0 0 1 .2-1l.2-.1.3-.3.3-.3h.2l.3.4Zm12.8-16.9h-.1l-.3.2v-.1a3 3 0 0 0-.9-.7l-.4-.1v-.5h.1l.5.1a2 2 0 0 1 .7.5l.2.3.2.3Zm2.5 0-.1.4-.2-.1h-.3v-.1h-1.1v-.2l.4-.2h.9c.1.2.3.2.4.3Zm.2.6Zm2.6-2-.3.3-.2.2v.1l-.2.3v.3h-.1v.1h-.3l.1-.8.3-.3.3-.3h.1l.3.1Zm0 0Zm-1.2-1.3v.2a4.2 4.2 0 0 0 .2.6v.2h.1l-.2-.1a1 1 0 0 1-.4-.5.7.7 0 0 1 0-.4v-.3l.3-.3h.1v.5Zm0 0"/>
  <path d="M6.1 73.8a6 6 0 0 1-2.7-.6c-.8-.4-1.4-1-1.9-2A7 7 0 0 1 1 68a7 7 0 0 1 .6-3.1c.5-.9 1.1-1.5 2-2 .7-.4 1.6-.6 2.6-.6a6 6 0 0 1 2.8.6c.7.4 1.3 1 1.6 2l-1.6 1h-.2c-.2-.7-.6-1-1-1.3a3 3 0 0 0-1.6-.4c-.9 0-1.6.3-2.1 1-.6.5-.8 1.5-.8 2.8 0 1.4.2 2.4.8 3 .5.6 1.2 1 2.1 1 1.5 0 2.4-.8 2.7-2.2H9l1.7.8A4.3 4.3 0 0 1 9.1 73a5 5 0 0 1-3 .8Zm6.2-.1v-8.5h2v1.3h.2a2 2 0 0 1 2-1.4c.5 0 .9.1 1.1.3l-.3 1.8h-.6l-.5-.1c-.6 0-1 .2-1.3.6-.4.4-.5 1-.5 2v4Zm10.3.1c-.8 0-1.5-.1-2.2-.5-.6-.3-1-.8-1.4-1.5-.4-.6-.5-1.4-.5-2.4 0-.9.1-1.7.5-2.4a4 4 0 0 1 1.4-1.5 5 5 0 0 1 4.4 0c.6.4 1.1.9 1.5 1.5.3.7.5 1.5.5 2.4a5 5 0 0 1-.5 2.4 4 4 0 0 1-3.7 2Zm0-1.8c1.3 0 2-.8 2-2.6 0-.9-.2-1.5-.5-2-.4-.4-.8-.6-1.5-.6-1.3 0-2 .9-2 2.6 0 1.8.7 2.6 2 2.6Zm9.9 1.8a4 4 0 0 1-3.7-2 5 5 0 0 1-.5-2.4c0-.9.2-1.7.5-2.4.4-.6.9-1.1 1.5-1.5a5 5 0 0 1 2.2-.5c1.7 0 2.9.7 3.4 2l-1.5 1h-.1c-.2-.4-.4-.7-.7-.9a2 2 0 0 0-1.1-.3c-.7 0-1.1.2-1.5.7-.3.4-.5 1-.5 2 0 .8.2 1.5.5 1.9.4.4.9.6 1.5.6.5 0 .8 0 1.2-.3l.7-1.1h.1l1.5.8c-.2.7-.6 1.3-1.2 1.8a4 4 0 0 1-2.3.6Zm8.7 0c-.8 0-1.5-.1-2.2-.5-.6-.3-1-.8-1.4-1.5-.4-.6-.5-1.4-.5-2.4 0-.9.1-1.7.5-2.4a4 4 0 0 1 1.4-1.5c.7-.3 1.4-.5 2.2-.5.9 0 1.6.2 2.2.5.6.4 1.1.9 1.5 1.5.3.7.5 1.5.5 2.4a5 5 0 0 1-.5 2.4c-.4.7-.9 1.2-1.5 1.5-.6.4-1.3.5-2.2.5Zm0-1.8c1.3 0 2-.8 2-2.6 0-.9-.2-1.5-.5-2-.3-.4-.8-.6-1.5-.6-1.3 0-2 .9-2 2.6 0 1.8.7 2.6 2 2.6Zm9.1 1.8c-.6 0-1.2-.1-1.7-.5-.5-.3-1-.8-1.2-1.4a6 6 0 0 1-.5-2.5c0-1 .2-1.7.5-2.4s.7-1.2 1.2-1.5c.5-.3 1.2-.5 1.9-.5.5 0 1 .1 1.3.3.4.2.7.5 1 .9h.2v-4.4h2v11.9h-2v-1.1h-.2a3 3 0 0 1-1 .9 3 3 0 0 1-1.5.3Zm.8-1.8c.5 0 1-.2 1.4-.6.3-.4.5-1 .5-2a4 4 0 0 0-.5-2 2 2 0 0 0-1.4-.6c-.7 0-1.2.2-1.5.7-.3.4-.5 1-.5 2 0 .8.2 1.5.5 2 .3.3.8.5 1.5.5Zm7.5-7.8c-.4 0-.7-.1-1-.4-.2-.2-.3-.5-.3-.9 0-.3.1-.6.4-.9.2-.2.5-.3 1-.3l.6.1.5.5.1.6-.1.7-.5.4-.7.2Zm-1 9.5v-8.5h2v8.5Zm6.8.1c-.7 0-1.3-.2-1.7-.6-.4-.4-.6-1-.6-1.9v-9.5h2.1v9.5c0 .5.2.7.6.7h.5l.2 1.6-.4.2h-.7Zm9.8-3.8h-5.5c0 .7.3 1.2.6 1.5.4.4.9.5 1.5.5.5 0 .9 0 1.2-.2.3-.2.5-.5.7-.9h.2l1.4 1c-.3.5-.7 1-1.3 1.4a4 4 0 0 1-2.2.5c-.9 0-1.6-.1-2.3-.5a3 3 0 0 1-1.4-1.5c-.4-.6-.6-1.4-.6-2.4s.2-1.7.6-2.4c.4-.7.8-1.2 1.5-1.5.6-.3 1.3-.5 2-.5a4 4 0 0 1 2.8 1 4 4 0 0 1 1 2.8v1Zm-1.9-1.5c0-.6-.1-1-.4-1.4-.3-.3-.7-.4-1.2-.4-1.1 0-1.8.6-2 1.8Zm0 0"/>
</svg>
